<?xml version="1.0" encoding="UTF-8" standalone="no"?>
<!-- Created with Inkscape (http://www.inkscape.org/) -->

<svg
   version="1.1"
   id="svg2"
   width="48"
   height="48"
   viewBox="0 0 48.000001 48"
   sodipodi:docname="add_48px.svg"
   inkscape:version="1.2.1 (9c6d41e410, 2022-07-14)"
   xml:space="preserve"
   xmlns:inkscape="http://www.inkscape.org/namespaces/inkscape"
   xmlns:sodipodi="http://sodipodi.sourceforge.net/DTD/sodipodi-0.dtd"
   xmlns="http://www.w3.org/2000/svg"
   xmlns:svg="http://www.w3.org/2000/svg"><defs
     id="defs6" /><sodipodi:namedview
     id="namedview4"
     pagecolor="#ffffff"
     bordercolor="#666666"
     borderopacity="1.0"
     inkscape:pageshadow="2"
     inkscape:pageopacity="0.0"
     inkscape:pagecheckerboard="0"
     showgrid="false"
     fit-margin-top="0"
     fit-margin-left="0"
     fit-margin-right="0"
     fit-margin-bottom="0"
     inkscape:zoom="11.313709"
     inkscape:cx="11.269514"
     inkscape:cy="18.826718"
     inkscape:window-width="1920"
     inkscape:window-height="1137"
     inkscape:window-x="1912"
     inkscape:window-y="-8"
     inkscape:window-maximized="1"
     inkscape:current-layer="g8"
     inkscape:showpageshadow="2"
     inkscape:deskcolor="#d1d1d1" /><g
     inkscape:groupmode="layer"
     inkscape:label="Image"
     id="g8"
     transform="translate(-39.420037,-0.51233153)"><g
       id="g10575"
       transform="matrix(0.09375146,0,0,0.09375146,24.91651,15.250882)"><circle
         style="fill:#ffffff;stroke-width:3.1748"
         id="path10567"
         cx="408.42004"
         cy="149.51233"
         r="167" /><g
         id="g10555"
         transform="translate(782,15)"><path
           style="fill:#fd95c0"
           d="m -401.02527,338.39574 c -93.76579,-11.37743 -173.40418,-72.73845 -208.31925,-160.50904 -30.45495,-76.55858 -21.36671,-165.47085 23.93671,-234.17814 63.70149,-96.60985 182.37733,-138.7524 292.02316,-103.69928 40.05872,12.80654 74.3579,33.89738 104.08924,64.005315 40.39049,40.902105 64.05503,89.362085 72.45478,148.372105 1.67457,11.7642 1.67457,51.2358 0,63 -8.52668,59.9017 -33.38429,109.97454 -74.81385,150.70399 -41.79224,41.08601 -91.71517,64.92287 -151.34093,72.26126 -14.90198,1.83405 -43.10031,1.85533 -58.02986,0.0438 z m 46.6807,-62.08012 c 6.45662,-4.7431 6.31603,-3.33717 6.31775,-63.17892 l 0.002,-54.25 h 53.78811 53.78811 l 4.43901,-2.25 c 7.14353,-3.62084 8.48477,-6.97996 8.48477,-21.25 0,-14.27004 -1.34124,-17.62916 -8.48477,-21.25 l -4.43901,-2.25 h -53.78811 -53.78811 l -0.002,-54.25 c -0.002,-59.8465 0.13907,-58.43949 -6.32178,-63.17892 -2.5341,-1.85924 -4.23986,-2.07108 -16.67622,-2.07108 -12.43636,0 -14.14212,0.21184 -16.67667,2.07108 -6.46085,4.73943 -6.32006,3.33242 -6.32178,63.17892 l -0.002,54.25 h -53.78811 -53.78811 l -4.43901,2.25 c -7.14353,3.62084 -8.48477,6.97996 -8.48477,21.25 0,13.47357 1.01608,16.59218 6.73491,20.67116 l 3.26509,2.32884 55.22549,0.28228 55.22548,0.28227 0.27452,55.39515 c 0.26875,54.23276 0.31797,55.45437 2.34559,58.21772 3.98477,5.43064 7.5318,6.43392 21.60962,6.11229 10.97379,-0.25071 13.06019,-0.56849 15.5,-2.36079 z"
           id="path10563" /><path
           style="fill:#4386d9"
           d="m -401.02527,338.39574 c -93.76579,-11.37743 -173.40418,-72.73845 -208.31925,-160.50904 -30.45495,-76.55858 -21.36671,-165.47085 23.93671,-234.17814 64.1975,-97.36211 184.15349,-139.32647 294.2158,-102.92589 39.75434,13.14784 73.08673,33.89858 102.36333,63.725253 40.03001,40.782137 63.62441,89.246497 71.99332,147.878777 1.66039,11.63265 1.64841,51.14111 -0.0191,63 -4.17249,29.67355 -11.91586,55.17002 -24.59998,81 -43.62654,88.84123 -132.69888,144.00305 -231.54097,143.39155 -9.64142,-0.0597 -22.25486,-0.68178 -28.02986,-1.38251 z m 46.6807,-62.08012 c 6.45632,-4.74287 6.31603,-3.3407 6.31775,-63.1466 l 0.002,-54.21768 55.25,-0.28232 55.25,-0.28232 3.26509,-2.32884 c 5.71883,-4.07898 6.73491,-7.19759 6.73491,-20.67116 0,-13.47357 -1.01608,-16.59218 -6.73491,-20.67116 l -3.26509,-2.32884 -55.25,-0.28232 -55.25,-0.28232 -0.002,-54.21768 c -0.001,-49.64158 -0.14913,-54.50709 -1.75,-57.6466 -3.33932,-6.54879 -5.86004,-7.53619 -20.06775,-7.86079 -14.4526,-0.33019 -17.93204,0.7318 -21.91077,6.68759 l -2.26948,3.39789 v 54.81979 54.8198 l -55.25,0.28232 -55.25,0.28232 -3.26509,2.32884 c -5.71883,4.07898 -6.73491,7.19759 -6.73491,20.67116 0,13.47357 1.01608,16.59218 6.73491,20.67116 l 3.26509,2.32884 55.25,0.28232 55.25,0.28232 v 54.8198 54.81979 l 2.26993,3.39789 c 3.97873,5.95579 7.45817,7.01778 21.91077,6.68759 10.97379,-0.25071 13.06019,-0.56849 15.5,-2.36079 z M -461.7546,-22.11518 c 19.51348,-6.0271 29.0167,-23.25671 21.8116,-39.54503 -2.62775,-5.94048 -8.49953,-11.523676 -11.878,-11.294236 -4.07508,0.276749 -6.73647,-0.916238 -8.21749,-3.683553 -1.85435,-3.464891 -7.61552,-4.784336 -18.48678,-4.233914 -11.58515,0.586567 -18.75084,3.307284 -25.88628,9.828673 -6.91193,6.31712 -9.872,12.46926 -9.82974,20.42994 0.0382,7.20078 1.98954,12.13668 6.98318,17.66404 10.45439,11.57175 28.8979,15.96303 45.50351,10.83408 z m 213.10192,-1.03019 c 7.31793,-2.91506 15.6738,-10.40869 18.64097,-16.71739 4.97248,-10.57236 2.10783,-22.28314 -7.62728,-31.18048 -6.69762,-6.121242 -14.32263,-9.171712 -24.56439,-9.827256 -11.76611,-0.753112 -16.19872,0.230173 -20.21151,4.483519 -2.76917,2.935178 -4.07132,3.580408 -7.00324,3.470186 -2.90358,-0.109157 -4.30511,0.568125 -7.23164,3.494651 -15.55799,15.558 -7.35343,39.68984 16.0945,47.33829 8.45477,2.75785 23.57774,2.25465 31.90259,-1.06152 z"
           id="path10561" /><path
           style="fill:#0169ce"
           d="m -387.02527,339.2226 c -70.61356,-4.93802 -135.05213,-37.59379 -180.23017,-91.3359 -16.7808,-19.96182 -35.38893,-51.93493 -43.64947,-75 -28.20321,-78.74897 -18.48147,-162.06657 26.86896,-230.27331 41.08285,-61.78833 105.35023,-102.08059 178.96078,-112.199 14.71213,-2.02231 44.06797,-3.17659 46.47858,-1.82754 1.39171,0.77884 0.27073,1.15691 -5.04502,1.70152 -16.14944,1.65456 -42.42461,8.44347 -60.40821,15.60811 -71.41732,28.45256 -127.44555,88.80116 -150.03483,161.60411 -8.18215,26.37023 -11.29852,47.43915 -11.29852,76.38611 0,43.04358 8.8085,79.82042 28.02293,117 29.28522,56.6664 78.75368,100.57712 138.33497,122.79317 18.38216,6.85415 48.93117,14.17084 59.38099,14.22214 2.38154,0.0117 2.76435,0.24452 1.61901,0.98469 -1.37788,0.89046 -18.27167,1.08613 -29,0.3359 z m 7.74592,-403.3588 c -10.51029,-2.65283 -20.74592,-10.864542 -20.74592,-16.643767 0,-7.408296 7.53329,-9.706322 13.79526,-4.208237 4.77849,4.195576 9.12474,5.874904 15.20474,5.874904 6.08,0 10.42625,-1.679328 15.20474,-5.874904 6.24264,-5.481111 13.79526,-3.199931 13.79526,4.166696 0,4.302775 -6.29775,10.601718 -14.20956,14.212248 -6.38555,2.91403 -16.84872,4.0369 -23.04452,2.47306 z m -76.66038,-9.14116 c -4.29735,-1.589693 -5.01983,-3.663203 -5.05374,-14.504153 -0.0175,-5.592516 0.24773,-10.89666 0.58938,-11.786985 0.91403,-2.381912 6.10551,-4.761492 8.6788,-3.978052 5.14215,1.56555 5.70002,2.99977 5.70002,14.653979 0,6.000915 -0.4405,11.733838 -0.97889,12.739829 -1.33699,2.498188 -5.94596,3.98131 -8.93557,2.875382 z m 164.14694,-0.380238 c -3.96919,-1.668919 -4.38814,-3.3712 -4.02406,-16.350755 0.27879,-9.939027 0.4084,-10.482147 2.95453,-12.380257 3.08091,-2.29679 6.74869,-1.81305 9.86249,1.30075 1.72289,1.722886 1.97456,3.354378 1.97456,12.800246 0,9.959881 -0.17995,10.987663 -2.25,12.850988 -3.24549,2.921372 -4.95265,3.277943 -8.51752,1.779028 z"
           id="path10559" /><path
           style="fill:#413d4f"
           d="m -379.27935,-64.1362 c -10.51029,-2.65283 -20.74592,-10.864542 -20.74592,-16.643767 0,-7.408296 7.53329,-9.706322 13.79526,-4.208237 4.77849,4.195576 9.12474,5.874904 15.20474,5.874904 6.08,0 10.42625,-1.679328 15.20474,-5.874904 6.24264,-5.481111 13.79526,-3.199931 13.79526,4.166696 0,4.302775 -6.29775,10.601718 -14.20956,14.212248 -6.38555,2.91403 -16.84872,4.0369 -23.04452,2.47306 z m -76.66038,-9.14116 c -4.29735,-1.589693 -5.01983,-3.663203 -5.05374,-14.504153 -0.0175,-5.592516 0.24773,-10.89666 0.58938,-11.786985 0.91403,-2.381912 6.10551,-4.761492 8.6788,-3.978052 5.14215,1.56555 5.70002,2.99977 5.70002,14.653979 0,6.000915 -0.4405,11.733838 -0.97889,12.739829 -1.33699,2.498188 -5.94596,3.98131 -8.93557,2.875382 z m 164.14694,-0.380238 c -3.96919,-1.668919 -4.38814,-3.3712 -4.02406,-16.350755 0.27879,-9.939027 0.4084,-10.482147 2.95453,-12.380257 3.08091,-2.29679 6.74869,-1.81305 9.86249,1.30075 1.72289,1.722886 1.97456,3.354378 1.97456,12.800246 0,9.959881 -0.17995,10.987663 -2.25,12.850988 -3.24549,2.921372 -4.95265,3.277943 -8.51752,1.779028 z"
           id="path10557" /></g></g></g></svg>
