<?xml version="1.0" encoding="UTF-8" standalone="no"?>
<!-- Created with Inkscape (http://www.inkscape.org/) -->

<svg
   version="1.1"
   id="svg2"
   width="36.013588"
   height="36"
   viewBox="0 0 36.013588 36"
   sodipodi:docname="cukor_36px.svg"
   inkscape:version="1.1.2 (b8e25be833, 2022-02-05)"
   xmlns:inkscape="http://www.inkscape.org/namespaces/inkscape"
   xmlns:sodipodi="http://sodipodi.sourceforge.net/DTD/sodipodi-0.dtd"
   xmlns="http://www.w3.org/2000/svg"
   xmlns:svg="http://www.w3.org/2000/svg">
  <defs
     id="defs6" />
  <sodipodi:namedview
     id="namedview4"
     pagecolor="#ffffff"
     bordercolor="#666666"
     borderopacity="1.0"
     inkscape:pageshadow="2"
     inkscape:pageopacity="0.0"
     inkscape:pagecheckerboard="0"
     showgrid="false"
     fit-margin-top="0"
     fit-margin-left="0"
     fit-margin-right="0"
     fit-margin-bottom="0"
     inkscape:zoom="12.859375"
     inkscape:cx="3.0716889"
     inkscape:cy="11.82017"
     inkscape:window-width="1920"
     inkscape:window-height="1009"
     inkscape:window-x="-8"
     inkscape:window-y="-8"
     inkscape:window-maximized="1"
     inkscape:current-layer="g8" />
  <g
     inkscape:groupmode="layer"
     inkscape:label="Image"
     id="g8"
     transform="translate(-51.208087,18.26342)">
    <g
       id="g2392"
       transform="matrix(0.07033904,0,0,0.07033904,47.606159,-16.978789)">
      <g
         id="g290"
         transform="matrix(1.0019034,0,0,1.0019034,-671.78293,681.15623)">
        <path
           style="fill:#f2eacc"
           d="m 756.56493,-195.00641 c -35.54117,-44.07195 -44.60236,-101.98773 -24.28958,-155.25 1.99267,-5.225 8.25535,-19.18174 13.91706,-31.01497 5.66171,-11.83324 11.71233,-26.3296 13.44582,-30.69341 3.77903,-9.51316 8.36488,-26.90762 10.11188,-38.35513 1.17732,-7.71452 1.49251,-8.43739 4.33598,-9.94418 2.00487,-1.0624 5.6627,-1.64423 10.56638,-1.68072 11.83781,-0.0881 14.14022,1.46685 38.5,26.00136 11.55,11.63284 22.9807,22.39007 25.40156,23.90494 15.85789,9.92322 29.77094,9.91919 59.81851,-0.0173 18.27848,-6.04456 27.80574,-7.84589 37.77578,-7.14229 10.10713,0.71327 27.50415,4.63508 27.50415,6.20026 0,0.64175 4.76817,12.0479 10.59593,23.82626 12.97241,26.21828 18.6031,39.25482 21.891,50.68324 5.1453,17.8847 5.8027,23.30509 6.4228,52.95324 l 0.5903,28.22127 16.5639,-15.72127 c 17.5409,-16.64847 23.5761,-22.07001 24.7284,-22.21404 0.3892,-0.0486 3.9196,-1.61301 7.8453,-3.47638 19.2238,-9.12475 43.302,-6.62843 60.3624,6.25812 3.0266,2.28618 43.3768,40.3225 74.5,70.22778 9.2386,8.87715 32.0707,30.53661 35.4643,33.64291 1.2244,1.12077 -37.1306,1.34031 -234.16888,1.34031 H 762.8148 Z m 269.14447,-15.30697 c 1.4778,-1.47777 1.9706,-3.06888 1.75,-5.65066 -0.8103,-9.48635 -13.8069,-9.22368 -13.8069,0.27906 0,6.59602 7.4938,9.93469 12.0569,5.3716 z m 125.4885,-8.39758 c 4.7362,-4.73618 1.9757,-12.54545 -4.4346,-12.54545 -4.4631,0 -7.5108,3.04334 -7.5108,7.5 0,6.87217 7.114,9.87693 11.9454,5.04545 z m -55,-39 c 2.6778,-2.67773 3.0891,-5.47137 1.3049,-8.86119 -1.5499,-2.94453 -2.7908,-3.65087 -6.4453,-3.66895 -4.069,-0.0201 -6.805,3.06099 -6.805,7.66327 0,6.69647 7.1875,9.62483 11.9454,4.86687 z"
           id="path304"
           sodipodi:nodetypes="ssssssssssssssscssssssscsscsssssssssss" />
        <path
           style="fill:#c5e6f5"
           d="m 860.30192,-406.13976 c -8.92155,-3.21379 -15.77876,-7.0355 -37.14945,-28.55947 -24.35379,-24.52848 -26.65913,-26.08579 -38.5,-26.00775 -4.125,0.0272 -8.55104,0.62614 -9.83565,1.33102 -1.2846,0.70487 -2.55831,1.05892 -2.83046,0.78677 -0.27215,-0.27214 0.0321,-5.5961 0.67603,-11.83102 0.64397,-6.23491 1.4964,-23.2612 1.8943,-37.8362 0.47865,-17.53312 1.13257,-27.25358 1.93253,-28.72708 2.534,-4.66751 3.3276,-4.75459 46.41325,-5.09278 l 42.9274,-0.31987 v 69.06987 c 0,37.98842 -0.1125,69.05363 -0.25,69.03378 -0.1375,-0.0198 -2.51258,-0.85111 -5.27795,-1.84727 z m 49.17315,-71.1339 v -65.23124 l 23.20487,0.42444 25.38226,0.42444 2.72254,2.72183 2.72253,2.72183 0.6622,25.66187 c 1.13487,43.9789 3.97012,67.38446 10.85873,89.64072 1.16552,3.76565 2.58989,10.55493 2.35878,10.78604 -0.23111,0.23111 -5.08497,-4.08926 -9.97988,-5.29956 -15.55934,-3.84715 -41.98355,-2.73915 -56.35342,2.77509 -1.4282,0.54805 -1.57861,-5.60934 -1.57861,-64.62546 z"
           id="path302"
           sodipodi:nodetypes="ssssssssscsssscccccssssss" />
        <path
           style="fill:#b4dff3"
           d="m 974.01478,-412.9707 c -2.68539,-1.85458 -8.43279,-25.28706 -10.73953,-43.78571 -2.23707,-17.93993 -2.73459,-25.66535 -3.46058,-53.73637 -0.6507,-25.15955 -0.70354,-25.64814 -3.04265,-28.1372 l -2.38045,-2.53305 17.03494,-0.29669 c 19.70815,-0.34325 23.57265,0.10581 26.55334,3.08555 2.08205,2.08137 2.20045,3.26533 2.83965,28.39485 0.9258,36.39444 3.3789,60.80786 7.8778,78.39821 l 1.9624,7.67299 -3.2536,2.80777 c -1.7895,1.54428 -5.7286,4.05341 -8.75363,5.57586 -4.57582,2.30295 -7.01229,2.81609 -14.5,3.05379 -4.95,0.15715 -9.51196,-0.0679 -10.13769,-0.5 z"
           id="path300" />
        <path
           style="fill:#eadfb8"
           d="m 1015.6525,-210.25641 c -2.4252,-2.42515 -2.6631,-8.19405 -0.4301,-10.42707 4.5855,-4.58554 11.6758,-1.85104 12.237,4.71944 0.5698,6.67016 -7.1248,10.3898 -11.8069,5.70763 z m 125.9108,-7.87116 c -5.2265,-4.23212 -1.7027,-13.12884 5.2,-13.12884 6.4103,0 9.1708,7.80927 4.4346,12.54545 -2.9298,2.92981 -6.4721,3.1443 -9.6346,0.58339 z m -55,-39 c -4.9839,-4.03565 -1.862,-13.14497 4.4942,-13.11353 3.6546,0.0181 4.8954,0.72442 6.4453,3.66895 1.7842,3.38982 1.3729,6.18346 -1.3049,8.86119 -2.9298,2.92981 -6.4721,3.1443 -9.6346,0.58339 z m -73.9108,-24.03181 c 0,-44.26475 -3.5589,-57.79815 -28.4041,-108.01224 -5.82776,-11.77836 -10.59593,-22.93772 -10.59593,-23.27784 0,-0.34012 4.1625,-0.61453 9.25,-0.6098 10.52414,0.01 15.84473,-1.8198 23.47513,-8.07236 2.4115,-1.97601 4.4751,-3.4299 4.5858,-3.23088 0.1107,0.19902 1.2433,3.51186 2.5167,7.36186 1.2735,3.85 8.1152,20.16923 15.2037,34.74423 7.4266,15.26996 14.5945,31.61467 16.9146,38.56931 4.4617,13.37468 8.0541,32.15927 8.0541,42.1154 0,6.2648 -0.1278,6.59387 -3.7483,9.65062 -3.3151,2.79901 -8.2159,7.40669 -31.5017,29.61751 l -5.75,5.48455 z"
           id="path298"
           sodipodi:nodetypes="sssssssssssssssscsssssssscs" />
        <path
           style="fill:#b7c6d6"
           d="m 867.40247,-541.06339 -79.75,-0.27182 v -19.24568 c 0,-21.3473 1.07217,-26.5291 6.80644,-32.89532 2.03146,-2.25534 5.71856,-5.04103 8.19356,-6.19041 4.40591,-2.04609 5.75458,-2.09001 64.5,-2.10056 l 63.73916,-0.0108 5.20384,2.31155 c 5.69588,2.53011 5.87631,6.53839 8.68966,12.71 1.57007,3.44423 8.54577,7.06687 5.58454,24.25 l -3.71719,21.56972 c 0,0 -79.25001,-0.12668 -79.24996,-0.12673 z"
           id="path296"
           sodipodi:nodetypes="ccsssscsssccc" />
        <path
           style="fill:#aebbcb"
           d="m 946.65247,-562.56007 c -10e-6,-19.66323 -0.079,-20.4622 -2.50486,-25.33024 -3.02305,-6.06648 -5.79984,-8.80208 -12.1721,-11.99153 l -3.72329,-1.86415 19.40025,-0.28015 c 20.12538,-0.29062 20.60315,0.32039 26.15015,3.04443 6.01193,2.95236 10.35738,7.70048 12.47873,13.6351 0.87325,2.44296 1.29736,9.90128 1.32723,23.3402 l 0.0439,21.0697 h -20.5 -20.5 z"
           id="path294"
           sodipodi:nodetypes="ssscsssscccs" />
        <path
           style="fill:#485d74"
           d="m 867.40247,-403.92871 -2.75,-0.46054 v -68.43358 -68.43358 h 23.5 23.5 v 64.45649 64.4565 l -8.25,2.61113 c -15.06704,4.76872 -28.8814,6.99574 -36,5.80358 z m -2.75,-246.41103 c 0,-26.44584 0.3467,-47.93334 0.77045,-47.75 0.42375,0.18333 10.99875,7.28563 23.5,15.78288 l 22.72955,15.44955 v 32.30045 32.93476 h -23.5 -23.5 z"
           id="path292"
           sodipodi:nodetypes="scccccccssssscccccs" />
      </g>
      <path
         style="fill:#3a484a;stroke-width:0.999958"
         d="m 206.6776,376.53998 c -10.7331,-4.99807 -14.73025,-12.93878 -8.84383,-17.56903 3.61793,-2.84587 6.42469,-2.6011 10.89312,0.94998 2.09181,1.66235 4.88075,3.29289 6.19765,3.6234 4.46554,1.12079 10.16565,-0.34449 13.81923,-3.55237 5.16011,-4.53065 10.35198,-4.1241 13.01151,1.01887 2.05785,3.97942 0.95152,7.29497 -3.78779,11.35164 -7.99072,6.83975 -21.65522,8.66411 -31.28989,4.17751 z m -59.02205,-6.09664 c -2.23705,-2.23705 -2.45444,-3.24014 -2.45444,-11.32521 0,-7.9796 0.2325,-9.0892 2.31435,-11.045 3.07427,-2.88813 7.72414,-2.82613 10.5108,0.14013 1.88959,2.01139 2.17422,3.45729 2.17422,11.045 0,7.93629 -0.22331,8.95395 -2.45445,11.18508 -1.34994,1.34994 -3.62029,2.45444 -5.04524,2.45444 -1.42494,0 -3.69529,-1.1045 -5.04524,-2.45444 z m 132.40082,0.54295 c -2.08684,-1.68981 -2.39383,-2.87846 -2.64716,-10.24957 -0.32253,-9.38439 0.85412,-12.78605 4.917,-14.21489 4.20251,-1.47793 7.81698,0.009 9.43469,3.88036 1.67503,4.00892 1.88665,13.17527 0.39477,17.09923 -2.06269,5.42528 -7.69842,7.0485 -12.0993,3.48487 z"
         id="path410" />
    </g>
  </g>
</svg>
