<?xml version="1.0" encoding="UTF-8" standalone="no"?>
<!-- Created with Inkscape (http://www.inkscape.org/) -->

<svg
   version="1.1"
   id="svg2"
   width="44.852371"
   height="36"
   viewBox="0 0 44.852371 36.000001"
   sodipodi:docname="dough_sleeps_36px.svg"
   inkscape:version="1.1.2 (b8e25be833, 2022-02-05)"
   xmlns:inkscape="http://www.inkscape.org/namespaces/inkscape"
   xmlns:sodipodi="http://sodipodi.sourceforge.net/DTD/sodipodi-0.dtd"
   xmlns="http://www.w3.org/2000/svg"
   xmlns:svg="http://www.w3.org/2000/svg">
  <defs
     id="defs6" />
  <sodipodi:namedview
     id="namedview4"
     pagecolor="#ffffff"
     bordercolor="#666666"
     borderopacity="1.0"
     inkscape:pageshadow="2"
     inkscape:pageopacity="0.0"
     inkscape:pagecheckerboard="0"
     showgrid="false"
     fit-margin-top="0"
     fit-margin-left="0"
     fit-margin-right="0"
     fit-margin-bottom="0"
     inkscape:zoom="6.4296874"
     inkscape:cx="5.9878494"
     inkscape:cy="12.597813"
     inkscape:window-width="1920"
     inkscape:window-height="1009"
     inkscape:window-x="-8"
     inkscape:window-y="-8"
     inkscape:window-maximized="1"
     inkscape:current-layer="g84" />
  <g
     inkscape:groupmode="layer"
     inkscape:label="Image"
     id="g8"
     transform="translate(-14.028029,-281.89861)">
    <g
       id="g84"
       transform="translate(-455.38761,29.861482)">
      <g
         id="g115"
         transform="translate(0,3.4711682)">
        <g
           id="g564"
           transform="matrix(0.0796717,0,0,0.0796717,432.0165,255.69612)">
          <path
             style="fill:#fbc873"
             d="m 864.07412,361.59547 c -6.875,-0.46012 -21.05,-2.00275 -31.5,-3.42809 -54.44457,-7.42598 -67.45945,-8.44806 -107.57566,-8.44806 -39.76309,0 -50.73042,0.85817 -107.42434,8.4057 -26.51643,3.53008 -36.95401,3.79675 -36.1451,2.98784 0.40528,-0.40527 5.61534,-1.70077 1.90009,-2.8789 -27.92381,-8.85476 -56.88248,-33.27794 -65.64673,-67.00969 -3.97234,-15.28869 -4.80897,-24.01963 -4.24372,-44.28649 0.92763,-33.25958 8.4294,-57.09774 26.81789,-85.21846 37.56794,-57.45102 105.24832,-95.01443 188.26822,-104.49109 15.13944,-1.72816 29.92795,-1.35092 54.54935,2.56048 83.34484,13.24028 151.18557,58.86046 182.06376,122.43061 26.06116,53.65311 19.50808,121.93405 -15.02527,156.55835 -20.25002,20.30336 -41.07733,25.82685 -86.03849,22.8178 z"
             id="path90"
             sodipodi:nodetypes="ssssssssssssss" />
          <path
             style="fill:#e5b15a"
             d="M 548.59142,361.58312 C 530.01548,359.6974 513.05041,351.69562 500.03624,338.68144 465.99135,304.63655 459.2961,234.1595 485.19769,182.48441 519.25143,114.54532 586.99054,70.95429 678.29164,58.22584 c 14.75077,-2.05643 45.11157,-3.4558 57.78248,-2.66327 l 10.5,0.65675 -12.05305,1.27845 c -62.38586,6.61721 -121.57695,33.23488 -160.05781,71.9765 -26.51238,26.69204 -43.36774,56.50407 -50.54509,89.39897 -2.60991,11.96164 -3.66145,42.82942 -1.87518,55.04578 6.34768,43.41202 28.56147,73.88441 61.53113,84.40703 3.85,1.22877 6.325,2.45767 5.5,2.73089 -2.85925,0.9469 -32.53817,1.33265 -40.4827,0.52618 z m 76.85677,-157.3638 c 0.002,-6.05 0.16696,-8.39607 0.36601,-5.21349 0.19905,3.18258 0.1972,8.13258 -0.004,11 -0.20131,2.86742 -0.36417,0.26349 -0.36191,-5.78651 z m 199,0 c 0.002,-6.05 0.16696,-8.39607 0.36601,-5.21349 0.19905,3.18258 0.1972,8.13258 -0.004,11 -0.20131,2.86742 -0.36417,0.26349 -0.36191,-5.78651 z"
             id="path88" />
        </g>
        <path
           style="fill:#999999;stroke-width:0.0926086"
           d="m 509.58321,259.73373 c -0.41039,-0.25025 -0.6614,-0.60704 -0.73546,-1.04539 -0.0595,-0.35233 0,-0.51106 0.77181,-2.07036 l 0.83628,-1.68878 -0.36405,-0.0582 c -0.25316,-0.0405 -0.47493,-0.16908 -0.72802,-0.42218 -0.56669,-0.56668 -0.61111,-1.28257 -0.11611,-1.87085 0.39992,-0.47528 0.68371,-0.54084 2.34103,-0.54084 1.69762,0 1.98012,0.0762 2.36099,0.63669 0.40996,0.60331 0.33531,0.97649 -0.55412,2.76998 l -0.78,1.57282 0.34743,0.0556 c 0.72673,0.11621 1.30471,0.75173 1.30502,1.43495 0,0.44819 -0.35328,1.01886 -0.75945,1.22608 -0.29998,0.15304 -0.55654,0.17562 -1.99182,0.17531 -1.45015,-2.7e-4 -1.68175,-0.0212 -1.93353,-0.17477 z m -9.38166,-0.79727 c 0,-0.0509 0.45396,-0.9886 1.0088,-2.08369 0.55482,-1.0951 1.00878,-1.94941 1.00878,-1.89848 0,0.0509 -0.45396,0.9886 -1.00878,2.08369 -0.55484,1.0951 -1.0088,1.94942 -1.0088,1.89848 z"
           id="path62" />
        <path
           style="fill:#313942;fill-opacity:1;stroke-width:0.0926086"
           d="m 491.80141,267.60412 c -0.5416,-0.24596 -0.81856,-0.67278 -0.81424,-1.25483 0.003,-0.40275 0.12706,-0.71292 0.89963,-2.24897 0.49288,-0.97999 0.89616,-1.80049 0.89616,-1.82335 0,-0.0229 -0.18323,-0.069 -0.40717,-0.10261 -0.59717,-0.0896 -0.96555,-0.3527 -1.18351,-0.84542 -0.30922,-0.69904 -0.11487,-1.30054 0.57104,-1.76737 0.2901,-0.19744 0.39553,-0.20837 2.00941,-0.20837 1.51084,0 1.74358,0.0206 2.06024,0.18212 0.40103,0.20459 0.74695,0.7949 0.74695,1.27469 0,0.17761 -0.35304,0.99735 -0.92609,2.15035 -0.50935,1.02483 -0.92609,1.88268 -0.92609,1.90634 0,0.0237 0.17711,0.0431 0.39359,0.0432 0.74582,2.8e-4 1.37478,0.524 1.51281,1.2597 0.0926,0.49355 -0.27283,1.14107 -0.79157,1.40265 -0.38223,0.19275 -0.53498,0.20822 -2.03739,0.20634 -1.38333,-0.002 -1.68047,-0.0276 -2.00377,-0.17443 z m 8.70063,-5.66337 c -0.41042,-0.12322 -0.83358,-0.63958 -0.91394,-1.11524 -0.0636,-0.37663 -0.004,-0.5203 1.28711,-3.11313 0.7446,-1.49505 1.35383,-2.73178 1.35383,-2.74828 0,-0.0165 -0.35205,-0.052 -0.78233,-0.0788 -1.20648,-0.0753 -1.71847,-0.50061 -1.71776,-1.42703 0,-0.60466 0.25968,-1.01228 0.79403,-1.24865 0.38523,-0.17041 0.58232,-0.18296 2.44512,-0.15577 2.2507,0.0329 2.29497,0.0445 2.75692,0.72321 0.38807,0.57021 0.32651,0.7716 -1.12719,3.68753 l -1.33555,2.67893 0.86427,0.0452 c 0.94557,0.0495 1.31387,0.19549 1.65823,0.65748 0.26851,0.36022 0.2706,1.15161 0.004,1.50873 -0.47202,0.63222 -0.48775,0.63584 -2.84853,0.6555 -1.18064,0.01 -2.27782,-0.0215 -2.43818,-0.0697 z"
           id="path58" />
        <path
           style="fill:#313942;fill-opacity:1;stroke-width:0.0926086"
           d="m 489.02128,275.59989 c -0.96431,-0.58805 -1.26898,-2.00731 -0.62599,-2.91609 0.42849,-0.60559 0.69888,-0.75464 1.369,-0.75464 0.516,0 0.6286,0.034 0.93593,0.28276 1.11703,0.90409 0.98008,2.79088 -0.24871,3.42631 -0.36609,0.18932 -1.08868,0.16995 -1.43023,-0.0383 z"
           id="path52" />
        <path
           style="fill:#323e40;stroke-width:0.0926086"
           d="m 480.67833,272.57171 c -0.56827,-0.20987 -1.14549,-0.77799 -1.14549,-1.12741 0,-0.67406 0.6501,-0.90524 1.25282,-0.44552 0.48246,0.36799 0.93437,0.40415 1.34022,0.10723 0.50342,-0.36828 0.69914,-0.43198 1.00247,-0.32624 0.25696,0.0896 0.47927,0.40847 0.47927,0.68748 0,0.21221 -0.55343,0.78112 -0.96362,0.99059 -0.49203,0.25125 -1.44432,0.30642 -1.96567,0.11387 z m 16.45143,-0.0312 c -0.58867,-0.20972 -1.20519,-0.79964 -1.20519,-1.1532 0,-0.63444 0.74133,-0.86565 1.29143,-0.40277 0.34325,0.28883 0.65194,0.3863 0.97034,0.30638 0.12341,-0.031 0.35812,-0.16884 0.52157,-0.30638 0.38543,-0.32431 0.87203,-0.34001 1.11815,-0.0361 0.24988,0.30858 0.2142,0.60348 -0.11893,0.98288 -0.61386,0.69916 -1.64238,0.94225 -2.57737,0.60916 z"
           id="path50" />
      </g>
    </g>
  </g>
</svg>
