<?xml version="1.0" encoding="UTF-8" standalone="no"?>
<!-- Created with Inkscape (http://www.inkscape.org/) -->

<svg
   version="1.1"
   id="svg2"
   width="59.993629"
   height="36"
   viewBox="0 0 59.993628 36.000001"
   sodipodi:docname="dough_36px.svg"
   inkscape:version="1.1.2 (b8e25be833, 2022-02-05)"
   xmlns:inkscape="http://www.inkscape.org/namespaces/inkscape"
   xmlns:sodipodi="http://sodipodi.sourceforge.net/DTD/sodipodi-0.dtd"
   xmlns="http://www.w3.org/2000/svg"
   xmlns:svg="http://www.w3.org/2000/svg">
  <defs
     id="defs6" />
  <sodipodi:namedview
     id="namedview4"
     pagecolor="#ffffff"
     bordercolor="#666666"
     borderopacity="1.0"
     inkscape:pageshadow="2"
     inkscape:pageopacity="0.0"
     inkscape:pagecheckerboard="0"
     showgrid="false"
     fit-margin-top="0"
     fit-margin-left="0"
     fit-margin-right="0"
     fit-margin-bottom="0"
     inkscape:zoom="4.5464756"
     inkscape:cx="7.5882954"
     inkscape:cy="5.7187154"
     inkscape:window-width="1920"
     inkscape:window-height="1009"
     inkscape:window-x="-8"
     inkscape:window-y="-8"
     inkscape:window-maximized="1"
     inkscape:current-layer="g84" />
  <g
     inkscape:groupmode="layer"
     inkscape:label="Image"
     id="g8"
     transform="translate(-14.028024,-301.50545)">
    <g
       id="g84"
       transform="translate(-455.38761,29.861482)">
      <g
         id="g564"
         transform="matrix(0.11725527,0,0,0.11725527,414.37418,265.15534)">
        <path
           style="fill:#fbc873"
           d="m 864.07412,361.59547 c -6.875,-0.46012 -21.05,-2.00275 -31.5,-3.42809 -54.44457,-7.42598 -67.45945,-8.44806 -107.57566,-8.44806 -39.76309,0 -50.73042,0.85817 -107.42434,8.4057 -26.51643,3.53008 -36.95401,3.79675 -36.1451,2.98784 0.40528,-0.40527 5.61534,-1.70077 1.90009,-2.8789 -27.92381,-8.85476 -56.88248,-33.27794 -65.64673,-67.00969 -3.97234,-15.28869 -4.80897,-24.01963 -4.24372,-44.28649 0.92763,-33.25958 8.4294,-57.09774 26.81789,-85.21846 37.56794,-57.45102 105.24832,-95.01443 188.26822,-104.49109 15.13944,-1.72816 29.92795,-1.35092 54.54935,2.56048 83.34484,13.24028 151.18557,58.86046 182.06376,122.43061 26.06116,53.65311 19.50808,121.93405 -15.02527,156.55835 -20.25002,20.30336 -41.07733,25.82685 -86.03849,22.8178 z"
           id="path90"
           sodipodi:nodetypes="ssssssssssssss" />
        <path
           style="fill:#e5b15a"
           d="M 548.59142,361.58312 C 530.01548,359.6974 513.05041,351.69562 500.03624,338.68144 465.99135,304.63655 459.2961,234.1595 485.19769,182.48441 519.25143,114.54532 586.99054,70.95429 678.29164,58.22584 c 14.75077,-2.05643 45.11157,-3.4558 57.78248,-2.66327 l 10.5,0.65675 -12.05305,1.27845 c -62.38586,6.61721 -121.57695,33.23488 -160.05781,71.9765 -26.51238,26.69204 -43.36774,56.50407 -50.54509,89.39897 -2.60991,11.96164 -3.66145,42.82942 -1.87518,55.04578 6.34768,43.41202 28.56147,73.88441 61.53113,84.40703 3.85,1.22877 6.325,2.45767 5.5,2.73089 -2.85925,0.9469 -32.53817,1.33265 -40.4827,0.52618 z m 76.85677,-157.3638 c 0.002,-6.05 0.16696,-8.39607 0.36601,-5.21349 0.19905,3.18258 0.1972,8.13258 -0.004,11 -0.20131,2.86742 -0.36417,0.26349 -0.36191,-5.78651 z m 199,0 c 0.002,-6.05 0.16696,-8.39607 0.36601,-5.21349 0.19905,3.18258 0.1972,8.13258 -0.004,11 -0.20131,2.86742 -0.36417,0.26349 -0.36191,-5.78651 z"
           id="path88" />
        <path
           style="fill:#3b4849"
           d="m 713.32774,227.31531 c -5.33218,-1.73645 -13.66944,-7.03787 -16.27264,-10.3473 -2.88563,-3.66848 -2.59594,-8.6198 0.65388,-11.17611 3.80267,-2.99118 6.53615,-2.57766 11.81919,1.78799 9.9258,8.2022 21.1661,8.2022 31.0919,0 5.28304,-4.36565 8.01652,-4.77917 11.81919,-1.78799 1.97041,1.54993 2.63486,2.97594 2.63486,5.65484 0,4.48892 -5.1425,9.72744 -13.62151,13.87583 -4.81224,2.35441 -7.2651,2.86715 -14.82249,3.09844 -5.7253,0.17522 -10.61777,-0.23145 -13.30238,-1.1057 z m -85.69692,-9.8185 c -1.18553,-1.69258 -1.5567,-4.91145 -1.5567,-13.5 0,-9.94416 0.23646,-11.51395 2,-13.27749 2.97766,-2.97766 8.33043,-2.66668 10.92742,0.63486 1.79001,2.27563 2.07258,4.02963 2.07258,12.86514 0,8.83551 -0.28257,10.58951 -2.07258,12.86514 -2.76461,3.51464 -9.03843,3.74215 -11.37072,0.41235 z m 183.51588,-0.41235 c -1.79001,-2.27563 -2.07258,-4.02963 -2.07258,-12.86514 0,-8.83551 0.28257,-10.58951 2.07258,-12.86514 2.59699,-3.30154 7.94976,-3.61252 10.92742,-0.63486 1.76354,1.76354 2,3.33333 2,13.27749 0,13.53626 -0.97116,15.72251 -6.98412,15.72251 -2.99053,0 -4.34202,-0.59916 -5.9433,-2.63486 z"
           id="path86" />
      </g>
    </g>
  </g>
</svg>
