<?xml version="1.0" encoding="UTF-8" standalone="no"?>
<!-- Created with Inkscape (http://www.inkscape.org/) -->

<svg
   version="1.1"
   id="svg2"
   width="35.990162"
   height="36.000004"
   viewBox="0 0 35.990162 36.000004"
   sodipodi:docname="fridge_36px.svg"
   inkscape:version="1.1.2 (b8e25be833, 2022-02-05)"
   xmlns:inkscape="http://www.inkscape.org/namespaces/inkscape"
   xmlns:sodipodi="http://sodipodi.sourceforge.net/DTD/sodipodi-0.dtd"
   xmlns="http://www.w3.org/2000/svg"
   xmlns:svg="http://www.w3.org/2000/svg">
  <defs
     id="defs6" />
  <sodipodi:namedview
     id="namedview4"
     pagecolor="#ffffff"
     bordercolor="#666666"
     borderopacity="1.0"
     inkscape:pageshadow="2"
     inkscape:pageopacity="0.0"
     inkscape:pagecheckerboard="0"
     showgrid="false"
     fit-margin-top="0"
     fit-margin-left="0"
     fit-margin-right="0"
     fit-margin-bottom="0"
     inkscape:zoom="8.5246423"
     inkscape:cx="14.370104"
     inkscape:cy="28.974823"
     inkscape:window-width="1920"
     inkscape:window-height="1009"
     inkscape:window-x="-8"
     inkscape:window-y="-8"
     inkscape:window-maximized="1"
     inkscape:current-layer="g156" />
  <g
     inkscape:groupmode="layer"
     inkscape:label="Image"
     id="g8"
     transform="translate(-24.081916,7.7836429)">
    <g
       id="g156"
       transform="matrix(0.06589996,0,0,0.06589996,24.081916,-7.7738028)">
      <path
         style="fill:#b7b7b7;stroke-width:1.06667"
         d="m 366.24871,545.16222 c -5.54199,-1.39838 -10.45021,-5.06296 -13.103,-9.78295 -2.09275,-3.72354 -2.59465,-6.46056 -3.04149,-16.58603 l -0.53514,-18.22656 h 38.54878 38.54878 v 17.76385 c 0,12.78843 -0.83477,16.15352 -5.13453,20.698 -5.85073,6.18372 -7.40491,6.52722 -30.5988,6.7627 -11.73333,0.11913 -22.8414,-0.16394 -24.6846,-0.62901 z"
         id="path785" />
      <path
         style="fill:#b7b7b7;stroke-width:1.06667"
         d="m 137.06666,545.65697 c -0.58667,-0.22205 -2.37787,-0.69265 -3.98044,-1.04578 -3.90918,-0.86139 -10.39939,-6.7024 -12.17845,-10.9603 -0.91486,-2.18957 -1.44111,-7.74624 -1.44111,-15.21666 v -18.80601 h 38.54878 38.54878 l -0.53812,19.23231 c -0.40679,14.53859 -2.90864,19.68771 -10.58818,24.08424 -4.47144,2.55988 -5.40378,2.66346 -25.97126,2.88556 -11.73334,0.1267 -21.81334,0.0486 -22.4,-0.17336 z"
         id="path160" />
      <path
         style="fill:#edebec;stroke-width:1.06667"
         d="M 72.257957,249.79766 C 72.721694,23.519767 72.430548,35.196078 77.874873,24.533332 83.361511,13.787715 96.163531,4.1837303 108.47929,1.5741167 c 10.84472,-2.2979139 318.33,-2.2979139 329.17472,0 12.31575,2.6096136 25.11778,12.2135983 30.60441,22.9592153 5.44434,10.662746 5.15319,-1.013565 5.61692,225.264328 0.31155,171.58855 0.15004,110.70067 -0.28433,-17.7413 H 273.06665 72.542291 c -0.419611,122.54687 -0.565078,155.16325 -0.284336,17.7413 z"
         id="path164"
         sodipodi:nodetypes="ssssscccccs" />
      <path
         style="fill:#d1d1d1;stroke-width:1.06667"
         d="m 118.39999,506.982 -7.08698,-1.17435 C 92.593769,502.70577 77.053281,487.71967 73.614913,469.45438 72.923026,465.77894 72.533329,418.98772 72.533329,339.58772 V 215.46665 H 273.06665 473.59997 v 124.12107 c 0,79.4 -0.38969,126.19122 -1.08159,129.86666 -1.61204,8.56354 -6.06486,16.76198 -12.71678,23.41389 -7.06135,7.06136 -15.30693,11.33629 -24.94676,12.93365 -56.43925,0 -272.68141,1.18008 -316.45485,1.18008 z m 0.49283,-399.24867 c 0,-27.866668 0.13781,-39.266668 0.30623,-25.333335 0.16842,13.933332 0.16842,36.733335 0,50.666665 -0.16842,13.93333 -0.30623,2.53333 -0.30623,-25.33333 z"
         id="path162"
         sodipodi:nodetypes="cssscccsssccssss" />
      <path
         style="fill:#b7b7b7;stroke-width:1.06667"
         d="m 136.01359,174.74805 c -5.43012,-1.21702 -10.18401,-4.48432 -13.44312,-9.23929 l -2.57048,-3.75027 -0.29568,-52.5982 c -0.28212,-50.184174 -0.20121,-52.78243 1.76286,-56.612574 9.4326,-18.394583 36.43962,-14.773518 40.63772,5.448652 0.83607,4.027317 1.11388,20.825238 0.88896,53.749812 l -0.32719,47.89173 -3.20952,5.18929 c -4.90948,7.93787 -14.39024,11.94994 -23.44355,9.92085 z"
         id="path789" />
      <path
         style="fill:#b7b7b7;stroke-width:1.06667"
         d="m 131.73333,460.09955 c -1.76,-0.92493 -4.77316,-3.17262 -6.6959,-4.99487 -6.74079,-6.38849 -6.63744,-4.84553 -6.63744,-99.09263 0,-57.87502 0.37232,-86.67933 1.16088,-89.81099 3.27873,-13.02099 18.09579,-20.1628 30.31494,-14.61176 5.37759,2.44298 10.73727,8.47144 12.19337,13.71487 0.7396,2.66325 1.11299,33.68067 1.10143,91.49581 -0.0164,82.30383 -0.13212,87.71904 -1.95993,91.74248 -2.08518,4.58995 -8.33822,10.70916 -12.59863,12.32897 -4.01962,1.52825 -13.31036,1.10338 -16.87872,-0.77188 z"
         id="path787" />
      <path
         style="fill:#3a484a;stroke-width:1.06667"
         d="m 303.71358,133.31425 c -6.87744,-1.18499 -14.24454,-4.89995 -19.7136,-9.94086 -3.61128,-3.32857 -4.53333,-4.91013 -4.53333,-7.77591 0,-2.17527 0.84339,-4.44088 2.13333,-5.73082 2.83662,-2.83662 8.64903,-2.81879 11.23117,0.0345 8.51964,9.41409 23.43014,10.33229 34.10079,2.09996 6.74464,-5.20346 11.03392,-5.63982 14.32395,-1.45722 3.98677,5.06836 2.70905,8.94904 -4.84578,14.71757 -8.85304,6.7598 -21.75655,9.93781 -32.69653,8.05284 z m -94.32398,-9.791 c -3.25192,-1.57116 -4.58961,-6.17333 -4.58961,-15.78992 0,-9.886017 1.34397,-14.231245 4.90328,-15.852977 3.84651,-1.752589 5.28055,-1.526687 8.63724,1.360618 2.94714,2.53502 2.99281,2.756214 2.99281,14.492359 0,11.73613 -0.0456,11.95733 -2.99281,14.49235 -3.22624,2.77509 -5.27737,3.07242 -8.95091,1.29757 z m 196.33206,0.0292 c -3.5357,-1.71206 -4.65502,-5.51582 -4.65502,-15.81914 0,-10.559522 1.11598,-14.127366 4.96781,-15.882379 3.65503,-1.665339 5.01554,-1.495481 8.22167,1.026462 2.75387,2.166193 2.81052,2.465623 2.81052,14.855917 0,12.39029 -0.0566,12.68971 -2.81052,14.85591 -3.07667,2.42012 -5.06268,2.64426 -8.53446,0.96319 z"
         id="path158" />
    </g>
  </g>
</svg>
