<?xml version="1.0" encoding="UTF-8" standalone="no"?>
<!-- Created with Inkscape (http://www.inkscape.org/) -->

<svg
   version="1.1"
   id="svg2"
   width="19.322067"
   height="24.000002"
   viewBox="0 0 19.322067 24.000002"
   sodipodi:docname="tej_24px.svg"
   inkscape:version="1.1.2 (b8e25be833, 2022-02-05)"
   xmlns:inkscape="http://www.inkscape.org/namespaces/inkscape"
   xmlns:sodipodi="http://sodipodi.sourceforge.net/DTD/sodipodi-0.dtd"
   xmlns="http://www.w3.org/2000/svg"
   xmlns:svg="http://www.w3.org/2000/svg">
  <defs
     id="defs6" />
  <sodipodi:namedview
     id="namedview4"
     pagecolor="#ffffff"
     bordercolor="#666666"
     borderopacity="1.0"
     inkscape:pageshadow="2"
     inkscape:pageopacity="0.0"
     inkscape:pagecheckerboard="0"
     showgrid="false"
     fit-margin-top="0"
     fit-margin-left="0"
     fit-margin-right="0"
     fit-margin-bottom="0"
     inkscape:zoom="22.627417"
     inkscape:cx="1.0827573"
     inkscape:cy="11.888233"
     inkscape:window-width="1920"
     inkscape:window-height="1009"
     inkscape:window-x="-8"
     inkscape:window-y="-8"
     inkscape:window-maximized="1"
     inkscape:current-layer="g8" />
  <g
     inkscape:groupmode="layer"
     inkscape:label="Image"
     id="g8"
     transform="translate(-36.214631,1.2650007)">
    <g
       id="g408"
       transform="matrix(0.04687305,0,0,0.04687305,61.111417,-0.68081921)">
      <path
         style="fill:#f2f4e5"
         d="m -507.55469,498.6194 c -8.19089,-2.00292 -16.24478,-8.65924 -20.64397,-17.06169 -2.31944,-4.4301 -2.36068,-5.02422 -2.65545,-38.25 l -0.29942,-33.75 h 122.52935 122.52935 l 0.27007,45.00028 0.27007,45.00029 -109.5,-0.10265 c -60.225,-0.0564 -110.85,-0.43276 -112.5,-0.83623 z m -23.5,-286.06169 v -45 h 122.5 122.5 v 45 45 h -122.5 -122.5 z M -324.86904,56.807745 -447.8059,56.557715 c -0.19264,-16.218758 0.0416,-32.4336 0.25121,-48.650404 l 3.02249,-5.924798 c 3.27917,-6.4279451 9.43485,-11.485468 16.3002,-13.392288 5.05634,-1.404376 201.29828,-1.404376 206.35462,0 6.86504,1.906735 12.89582,7.0298034 16.3002,13.391927 l 3.95057,7.3828437 c 0,16.1019963 -0.42208,44.9460343 -0.42208,47.1927193 -0.91406,0 -54.99794,0.391883 -122.82083,0.25003 z"
         id="path418"
         sodipodi:nodetypes="ssscccccsscccccccccsccssssccss" />
      <path
         style="fill:#d5d7cb"
         d="m -285.35651,498.92256 c -0.384,-0.384 -0.69818,-20.64818 -0.69818,-45.03152 v -44.33333 h 83.5612 83.56119 l -0.31119,33.25 -0.3112,33.25 -2.77978,5.66054 c -3.20114,6.51856 -8.96308,12.13433 -15.59782,15.20213 -4.56482,2.11071 -5.50746,2.14085 -75.67422,2.41884 -39.0785,0.15484 -71.366,-0.0327 -71.75,-0.41666 z m -0.69818,-286.36485 v -45 h 83.5 83.5 v 45 45 h -83.5 -83.5 z"
         id="path416" />
      <path
         style="fill:#7ee0fd"
         d="m -531.05469,333.55771 v -76 h 123 123 v 76 76 h -123 -123 z m 41.62116,-221.49999 41.62763,-55.500005 h 122.87884 122.87885 l -41.62764,55.500005 -41.62763,55.49999 h -122.87884 -122.87885 z"
         id="path414"
         sodipodi:nodetypes="cccccccccccccccccc" />
      <path
         style="fill:#54c1e1"
         d="m -286.05469,333.55771 v -76 h 84 83 v 76 76 h -83 -84 z m 2.46455,-169.25 c 1.35321,-1.78448 19.90859,-26.5375 41.24304,-54.99999 21.33444,-28.462505 40.29889,-52.750005 40.29889,-52.750005 0,0 82.36652,109.373375 82.99352,110.999995 -1.68168,0 -37.43345,0 -83.53536,0 h -83.46464 z"
         id="path412"
         sodipodi:nodetypes="cccccccccssccscs" />
      <path
         style="fill:#3a484a"
         d="m -420.57564,341.20006 c -10.73354,-4.99828 -14.73086,-12.93932 -8.84419,-17.56977 3.61808,-2.84598 6.42495,-2.6012 10.89357,0.95002 2.0919,1.66242 4.88095,3.29303 6.19791,3.62356 4.46572,1.12083 10.16607,-0.34451 13.8198,-3.55252 5.16033,-4.53084 10.35242,-4.12427 13.01206,1.01891 2.05793,3.97959 0.95156,7.29527 -3.78795,11.35211 -7.99105,6.84004 -21.65612,8.66447 -31.2912,4.17769 z m -59.0245,-6.0969 c -2.23715,-2.23714 -2.45455,-3.24027 -2.45455,-11.32568 0,-7.97993 0.23251,-9.08958 2.31445,-11.04546 3.0744,-2.88825 7.72446,-2.82625 10.51124,0.14014 1.88967,2.01147 2.17431,3.45743 2.17431,11.04546 0,7.93662 -0.22332,8.95432 -2.45455,11.18554 -1.35,1.35 -3.62045,2.45455 -5.04545,2.45455 -1.425,0 -3.69545,-1.10455 -5.04545,-2.45455 z m 132.40633,0.54298 c -2.08692,-1.68989 -2.39393,-2.87858 -2.64727,-10.25 -0.32254,-9.38478 0.85416,-12.78658 4.91721,-14.21548 4.20268,-1.478 7.8173,0.009 9.43508,3.88052 1.6751,4.00908 1.88673,13.17582 0.39479,17.09994 -2.06278,5.42551 -7.69874,7.04879 -12.09981,3.48502 z"
         id="path410" />
    </g>
  </g>
</svg>
