<?xml version="1.0" encoding="UTF-8" standalone="no"?>
<!-- Created with Inkscape (http://www.inkscape.org/) -->

<svg
   width="73.890251mm"
   height="66.638733mm"
   viewBox="0 0 73.890251 66.638733"
   version="1.1"
   id="svg5"
   inkscape:version="1.1 (c68e22c387, 2021-05-23)"
   sodipodi:docname="landing_hozzavalok.svg"
   xmlns:inkscape="http://www.inkscape.org/namespaces/inkscape"
   xmlns:sodipodi="http://sodipodi.sourceforge.net/DTD/sodipodi-0.dtd"
   xmlns="http://www.w3.org/2000/svg"
   xmlns:svg="http://www.w3.org/2000/svg">
  <sodipodi:namedview
     id="namedview7"
     pagecolor="#ffffff"
     bordercolor="#666666"
     borderopacity="1.0"
     inkscape:pageshadow="2"
     inkscape:pageopacity="0.0"
     inkscape:pagecheckerboard="0"
     inkscape:document-units="mm"
     showgrid="false"
     fit-margin-top="0"
     fit-margin-left="0"
     fit-margin-right="0"
     fit-margin-bottom="0"
     inkscape:zoom="0.73406285"
     inkscape:cx="-175.05313"
     inkscape:cy="247.25403"
     inkscape:window-width="1920"
     inkscape:window-height="1009"
     inkscape:window-x="1912"
     inkscape:window-y="-8"
     inkscape:window-maximized="1"
     inkscape:current-layer="layer1" />
  <defs
     id="defs2" />
  <g
     inkscape:label="Layer 1"
     inkscape:groupmode="layer"
     id="layer1"
     transform="translate(-72.674325,-76.65446)">
    <g
       id="g66"
       transform="matrix(0.26458333,0,0,0.26458333,90.573485,75.762841)">
      <path
         d="m 48.83,32.34 -9.85,12.99 -8.14,63.68 14.85,10.71 c 0,0 26.56,0.86 27.84,0.29 1.28,-0.57 21.99,-9.57 21.99,-9.57 l -8,-65.82 -10.99,-13.13 z"
         fill="#dcedf6"
         id="path9" />
      <path
         d="m 37.41,69.04 c 0,0 1.86,-4.28 12.99,-5.85 6.02,-0.85 9.26,0.8 13.72,0.68 5.76,-0.15 9.24,-1.32 14.83,0.17 7.29,1.95 9.64,7.15 9.64,7.15 0,0 2.93,9.41 2.21,9.41 -0.72,0 -56.54,8.42 -56.54,8.42 z"
         fill="#e0e0e0"
         id="path11" />
      <path
         d="m 31.61,98.9 c 0,0 3.04,13.76 32.84,13.92 17.68,0.09 22.17,-3.94 24.53,-5.32 2.36,-1.39 5.2,-5.07 5.2,-5.07 L 92.25,85.02 90.41,73.4 c 0,0 -3.12,-1.82 -7.55,-0.71 -2.08,0.52 -6.77,3.02 -10.27,4.49 -3.5,1.47 -6.69,3.34 -15.17,2.77 C 49.65,79.43 45.03,73.51 42.26,71.55 39.49,69.59 36.72,68.7 36.72,68.7 Z"
         fill="#ffffff"
         id="path13" />
      <path
         d="m 70.75,89.52 c -1.05,0 -1.85,0.53 -2.08,1.91 -0.23,1.38 0.97,2.15 1.89,2.01 1.2,-0.19 1.57,-1.34 1.57,-2.2 0,-0.86 -0.51,-1.72 -1.38,-1.72 z"
         fill="#e0e0e0"
         id="path15" />
      <path
         d="m 81.31,90.54 c -0.54,1.05 0.09,2.58 1.29,2.81 1.2,0.23 2.1,-0.78 2.03,-1.94 -0.09,-1.61 -2.49,-2.49 -3.32,-0.87 z"
         fill="#e0e0e0"
         id="path17" />
      <path
         d="m 84.31,99.76 c -0.72,0.87 -0.14,2.86 1.38,2.91 1.52,0.05 2.11,-1.69 1.38,-2.81 -0.59,-0.93 -1.84,-1.21 -2.76,-0.1 z"
         fill="#e0e0e0"
         id="path19" />
      <path
         d="m 67.8,107.37 c 0,1.02 0.55,1.75 1.8,1.71 1.25,-0.05 1.43,-1.38 1.34,-2.08 -0.09,-0.69 -0.46,-1.38 -1.61,-1.38 -1.15,0 -1.53,1.15 -1.53,1.75 z"
         fill="#e0e0e0"
         id="path21" />
      <path
         d="m 62.35,99.49 c -0.74,-0.83 -2.17,-0.64 -2.91,0.32 -0.6,0.78 -0.56,2.93 1.48,2.86 1.39,-0.05 2.63,-1.85 1.43,-3.18 z"
         fill="#e0e0e0"
         id="path23" />
      <path
         d="m 40.16,102.71 c -0.75,0.82 -0.6,2.17 0.32,2.86 0.92,0.69 2.17,0.37 2.54,-0.37 0.35,-0.71 0.09,-1.94 -0.55,-2.44 -0.64,-0.5 -1.75,-0.65 -2.31,-0.05 z"
         fill="#e0e0e0"
         id="path25" />
      <path
         d="M 99.63,109.81 C 99.45,108.49 96.72,98.53 95.14,87.88 93.55,77.22 91.35,57.04 91,50.35 90.65,43.66 89.02,40.91 87.69,39.85 86.37,38.79 44.84,35.11 44.84,35.11 c 0,0 -4.95,2.79 -6.69,5.29 -1.23,1.76 -1.5,2.73 -1.94,5.29 -0.44,2.55 -1.32,13.3 -1.5,16.65 -0.18,3.35 -1.94,17.09 -3.17,23.26 -1.23,6.17 -3.61,20.97 -3.88,22.64 -0.26,1.67 0.35,4.23 1.85,5.37 1.5,1.15 15.96,9.5 17.81,10.03 1.85,0.53 28.55,0.68 30.64,0.28 2.51,-0.49 19.14,-7.97 20.61,-9.34 0.76,-0.71 1.24,-3.45 1.06,-4.77 z M 49.82,75.2 c -0.62,9.14 -3.11,36.37 -4.88,37.61 -1.77,1.25 -10.6,-4.26 -11.54,-5.82 -0.94,-1.56 2.49,-17.56 3.53,-26.39 0.61,-5.2 2.83,-31.16 3.64,-33.15 0.47,-1.14 2.94,0.44 5.34,1.61 2.49,1.21 4.92,1.93 5.18,2.76 0.52,1.67 -0.65,14.24 -1.27,23.38 z m 23.58,41.05 c -1.25,0.52 -5.51,0.67 -9.88,0.72 -4.82,0.05 -8.8,-0.37 -10.45,-1.84 -1.97,-1.77 -0.46,-13.83 0.37,-25.89 0.63,-9.14 2.21,-34.64 2.48,-36.06 0.31,-1.66 3.98,0 8.14,0 4.78,0 8.2,-1.43 8.41,0.34 0.21,1.77 0.51,12.34 0.92,18.89 0.42,6.55 2.18,39.28 2.18,41.04 0,1.76 -0.92,2.28 -2.17,2.8 z m 20.27,-8.42 c -0.31,2.39 -9.88,6.63 -11.01,5.71 -1.56,-1.25 -2.91,-18.18 -3.74,-26.81 -0.83,-8.62 -2.18,-32.69 -2.18,-34.08 0,-1.26 2.58,-1.62 4.64,-2.78 2.15,-1.21 4.08,-2.74 4.4,-2.21 0.62,1.04 1.35,14.24 2.81,29.61 1.44,15.39 5.39,28.17 5.08,30.56 z"
         fill="#a6cfd6"
         id="path27" />
      <path
         d="M 55.54,32.1 42.6,36.13 c 0,0 -1.78,1.21 -2.76,2.25 -0.84,0.89 -1.69,2.01 -1.69,2.01 0,0 10.6,8.65 25.19,9.14 14.59,0.49 25.11,-8.94 25.11,-8.94 0,0 -1,-1.41 -2.22,-2.27 -1.22,-0.85 -6.63,-3.78 -6.63,-3.78 z"
         fill="#6ca4ae"
         id="path29" />
      <path
         d="m 42.17,32.53 c 0,0 -1.73,1.99 -0.37,4.64 1.55,3.02 8.42,8.41 21.55,8.06 16.18,-0.43 20.96,-7.57 21.25,-8.06 0.43,-0.73 0.92,-1.83 0.98,-3.17 0.06,-1.34 -0.85,-2.14 -0.85,-2.14 0,0 3.85,-4.52 3.97,-10.99 C 88.82,14.4 85.7,7.8 75.01,4.75 65.77,2.11 54.31,3.77 48.88,5.48 c -4.46,1.4 -11,6.11 -11.11,14.65 -0.12,9.28 4.4,12.4 4.4,12.4 z"
         fill="#aeb0b1"
         id="path31" />
      <path
         d="m 42.82,14.65 c -0.28,4.51 4.79,7.64 20.9,7.92 C 81,22.88 83.87,17.2 83.99,14.82 84.14,11.98 81,5.42 63.48,5.3 47.17,5.18 42.97,12.14 42.82,14.65 Z"
         fill="#e0e0e0"
         id="path33" />
      <path
         d="m 44.3,34.42 c -0.6,1.41 4.79,7.85 18.89,7.85 14.1,0 20.28,-6.23 19.02,-7.73 -0.85,-1.02 -6.85,4.33 -18.75,4.03 C 47.28,38.15 45.16,32.41 44.3,34.42 Z"
         fill="#e0e0e0"
         id="path35" />
      <path
         d="m 48.99,14.35 c 0.06,1.89 2.14,2.23 4.18,2.23 2.29,0 4.06,-0.77 4.09,-2.14 0.03,-1.36 -1.15,-2.63 -4.33,-2.51 -2.67,0.11 -3.99,1.06 -3.94,2.42 z"
         fill="#5e6367"
         id="path37" />
      <path
         d="m 59.11,9.28 c -0.1,1.48 1.55,2.48 4.15,2.32 2.94,-0.17 4.06,-1.15 4.09,-2.42 0.03,-1.43 -1.92,-2.26 -4.27,-2.17 -2.36,0.1 -3.88,0.91 -3.97,2.27 z"
         fill="#5e6367"
         id="path39" />
      <path
         d="m 69.23,15.28 c 0.09,1.86 2.39,2.14 3.99,2.07 2.97,-0.12 3.87,-1.08 3.87,-2.42 0,-1.7 -1.95,-2.38 -3.87,-2.42 -1.92,-0.04 -4.08,0.92 -3.99,2.77 z"
         fill="#5e6367"
         id="path41" />
    </g>
    <g
       id="g136"
       transform="matrix(0.06449012,0,0,0.06449012,114.55433,110.96584)">
      <path
         style="fill:#fabc3d"
         d="m 496.267,248.179 c 0,-137 -111.1,-248.1 -248.1,-248.1 -137,0 -248.1,111.1 -248.1,248.1 0,137 111.1,248.1 248.1,248.1 137,0 248.1,-111.1 248.1,-248.1 z"
         id="path68" />
      <path
         style="fill:#337180"
         d="m 211.967,493.579 c 135.5,20 261.6,-73.6 281.7,-209.2 2.3,-15.8 3.1,-31.6 2.5,-47 -6.3,2.7 -13.2,4.2 -20.5,4.2 -19.5,-0.1 -36.4,-11 -45,-27 -8.7,16 -25.7,26.8 -45.2,26.7 -19.3,-0.1 -36.1,-10.8 -44.8,-26.6 -8.8,15.7 -25.7,26.4 -45,26.3 -19.4,-0.1 -36.2,-10.9 -44.9,-26.8 -8.8,15.8 -25.7,26.5 -45.1,26.5 -19.3,-0.1 -36.1,-10.8 -44.8,-26.6 -8.8,15.7 -25.7,26.4 -45,26.3 -19.5,-0.1 -36.4,-11 -45,-27 -8.7,16 -25.7,26.8 -45.2,26.7 -9.2,0 -17.8,-2.5 -25.2,-6.7 -7.8,127 83,241.2 211.5,260.2 z"
         id="path70" />
      <path
         style="fill:#48a1af"
         d="m 211.967,493.579 c 105.9,15.6 206,-38.1 254.3,-127 -12.4,-6.1 -21.6,-17.2 -25.5,-30.2 -11.4,13.5 -29.6,20.4 -48,16.6 -18.3,-3.8 -32.2,-17.2 -37.4,-33.9 -11.4,13.2 -29.4,20.1 -47.7,16.3 -18.4,-3.8 -32.3,-17.3 -37.4,-34.1 -11.4,13.3 -29.5,20.2 -47.9,16.4 -18.3,-3.8 -32.2,-17.2 -37.4,-33.9 -11.4,13.4 -29.4,20.2 -47.8,16.4 -18.5,-3.8 -32.4,-17.4 -37.5,-34.3 -11.4,13.5 -29.6,20.4 -48,16.6 -18.3,-3.8 -32.2,-17.2 -37.4,-33.9 -3.9,4.6 -8.7,8.4 -14,11.3 5.4,116.2 92.3,216.1 211.7,233.7 z"
         id="path72" />
      <path
         style="fill:#337180"
         d="m 268.867,75.479 c -9.2,-14.6 -13.3,-29.3 -13.3,-29.3 v 0 c 0,0 -4.1,14.7 -13.3,29.3 -11.4,22.9 -29.5,35 -29.5,63.8 0,24.8 18.1,44.9 42.9,44.9 v 0 c 24.8,0 42.9,-20.1 42.9,-44.9 -0.1,-28.8 -18.3,-40.9 -29.7,-63.8 z"
         id="path74" />
      <path
         style="fill:#48a1af"
         d="m 268.867,75.479 c -9.2,-14.6 -13.3,-29.3 -13.3,-29.3 0,0 -24.8,137.9 0,137.9 v 0 c 24.8,0 42.9,-20.1 42.9,-44.9 0,-28.7 -18.2,-40.8 -29.6,-63.7 z"
         id="path76" />
      <path
         style="fill:#f2f7f7"
         d="m 257.967,176.779 v 0 c 19.4,0 33.6,-15.7 33.6,-35.1 0,-22.5 -52.9,35.1 -33.6,35.1 z"
         id="path78" />
      <g
         id="g80">
</g>
      <g
         id="g82">
</g>
      <g
         id="g84">
</g>
      <g
         id="g86">
</g>
      <g
         id="g88">
</g>
      <g
         id="g90">
</g>
      <g
         id="g92">
</g>
      <g
         id="g94">
</g>
      <g
         id="g96">
</g>
      <g
         id="g98">
</g>
      <g
         id="g100">
</g>
      <g
         id="g102">
</g>
      <g
         id="g104">
</g>
      <g
         id="g106">
</g>
      <g
         id="g108">
</g>
    </g>
    <g
       id="g248"
       transform="matrix(0.06256065,0,0,0.06256065,21.138681,83.680205)">
      <g
         id="g176"
         transform="translate(771.05115,441.37911)">
	<path
   style="fill:#ece8d8"
   d="m 437.292,0.55 -46.124,18.026 c -20.551,5.252 -41.649,7.91 -62.835,7.91 h -145.17 c -21.177,0 -42.284,-2.657 -62.835,-7.91 L 74.213,0.55 C 60.539,-2.946 48.754,10.86 53.989,24.234 l 25.212,64.044 c -23.049,103.989 -23.34,216.647 0,335.448 l -20.913,63.559 c -5.005,12.773 5.588,26.236 18.873,23.967 l 52.206,-8.889 c 7.795,-1.333 15.651,-2.295 23.111,-3.637 15.466,-2.79 31.082,-4.379 46.777,-4.379 H 312.24 c 15.695,0 31.32,1.589 46.777,4.379 7.468,1.342 15.316,2.304 23.119,3.637 l 52.198,8.889 c 13.285,2.269 23.879,-11.193 18.882,-23.967 l -20.913,-63.559 c 23.755,-122.915 23.42,-235.185 0,-335.448 L 457.515,24.234 C 462.75,10.86 450.957,-2.946 437.292,0.55"
   id="path138" />

	<g
   id="g144">
		<path
   style="fill:#bc8d2f"
   d="m 176.302,361.932 c -24.338,0 -44.138,-19.8 -44.138,-44.138 0,-13.55 6.215,-26.183 17.046,-34.657 1.96,-1.536 4.493,-2.154 6.965,-1.739 2.463,0.441 4.626,1.898 5.959,4.017 0.68,1.095 1.006,1.668 1.43,2.198 l 19.023,23.896 23.861,18.997 c 0.009,0 0.018,0.009 0.018,0.009 0.53,0.424 1.103,0.75 1.66,1.103 2.136,1.324 3.866,3.646 4.308,6.126 0.441,2.463 0.071,5.173 -1.474,7.142 -8.484,10.832 -21.116,17.046 -34.658,17.046"
   id="path140" />

		<path
   style="fill:#bc8d2f"
   d="m 132.164,370.76 c -2.26,0 -4.52,-0.865 -6.241,-2.586 -3.452,-3.452 -3.452,-9.031 0,-12.482 l 19.165,-19.174 c 3.452,-3.452 9.039,-3.452 12.482,0 3.452,3.452 3.452,9.039 0,12.482 l -19.165,19.174 c -1.721,1.721 -3.981,2.586 -6.241,2.586"
   id="path142" />

	</g>

	<g
   id="g156">
		<path
   style="fill:#fec24c"
   d="m 291.061,211.863 c -2.33,0 -4.581,-0.918 -6.241,-2.586 -1.898,-1.898 -2.834,-4.564 -2.534,-7.23 l 3.558,-31.356 c 2.092,-18.776 16.666,-33.359 35.46,-35.46 l 30.755,-2.781 c 2.631,-0.265 5.182,0.697 7.036,2.551 1.854,1.854 2.781,4.431 2.551,7.036 l -2.772,30.57 c -2.11,18.97 -16.684,33.554 -35.478,35.655 l -31.338,3.54 c -0.335,0.044 -0.671,0.061 -0.997,0.061"
   id="path146" />

		<path
   style="fill:#fec24c"
   d="m 282.384,291.372 c -8.836,0 -17.673,-2.948 -25.053,-8.836 l -24.726,-19.624 c -2.101,-1.668 -3.337,-4.211 -3.337,-6.903 -0.009,-2.692 1.227,-5.235 3.328,-6.912 l 24.726,-19.703 c 14.76,-11.794 35.381,-11.785 50.141,0.009 l 24.452,19.73 c 2.074,1.677 3.284,4.202 3.284,6.877 -0.009,2.675 -1.218,5.199 -3.302,6.868 L 307.481,282.5 c -7.389,5.915 -16.252,8.872 -25.097,8.872"
   id="path148" />

		<path
   style="fill:#fec24c"
   d="m 257.871,231.346 h 0.088 z m -19.774,33.483 h -0.026 c -2.684,-0.009 -5.226,-1.245 -6.894,-3.346 l -19.544,-24.655 c -11.794,-14.733 -11.794,-35.354 0.026,-50.123 l 19.535,-24.488 c 1.668,-2.083 4.202,-3.31 6.877,-3.319 2.578,0.035 5.217,1.201 6.894,3.284 l 19.774,24.497 c 11.847,14.795 11.847,35.416 0.026,50.185 0,0 -0.009,0 -0.009,0.009 l -19.774,24.655 c -1.677,2.083 -4.21,3.301 -6.885,3.301 z"
   id="path150" />

		<path
   style="fill:#fec24c"
   d="m 220.518,353.165 c -8.845,0 -17.682,-2.948 -25.062,-8.845 l -24.647,-19.624 c -2.11,-1.668 -3.328,-4.202 -3.337,-6.894 0,-2.692 1.218,-5.226 3.319,-6.903 l 24.655,-19.703 c 14.76,-11.802 35.381,-11.802 50.15,0 l 24.514,19.721 c 2.083,1.677 3.302,4.202 3.293,6.886 0,2.675 -1.218,5.208 -3.31,6.877 l -24.497,19.624 c -7.379,5.904 -16.233,8.861 -25.078,8.861"
   id="path152" />

		<path
   style="fill:#fec24c"
   d="m 176.302,326.622 h -0.009 c -2.684,0 -5.226,-1.236 -6.894,-3.328 l -19.624,-24.655 c -11.802,-14.751 -11.802,-35.372 0.018,-50.141 l 19.615,-24.497 c 1.677,-2.083 4.211,-3.31 6.886,-3.31 h 0.009 c 2.675,0 5.199,1.218 6.877,3.293 l 19.703,24.497 c 11.829,14.786 11.829,35.399 0.018,50.167 l -19.703,24.655 c -1.679,2.092 -4.212,3.319 -6.896,3.319"
   id="path154" />

	</g>

	<g
   id="g168">
		<path
   style="fill:#bc8d2f"
   d="m 352.854,264.829 h -26.483 c -4.873,0 -8.828,-3.946 -8.828,-8.828 0,-4.882 3.955,-8.828 8.828,-8.828 h 26.483 c 4.873,0 8.828,3.946 8.828,8.828 -0.001,4.882 -3.955,8.828 -8.828,8.828"
   id="path158" />

		<path
   style="fill:#bc8d2f"
   d="m 291.061,326.622 h -26.483 c -4.873,0 -8.828,-3.946 -8.828,-8.828 0,-4.882 3.955,-8.828 8.828,-8.828 h 26.483 c 4.873,0 8.828,3.946 8.828,8.828 -0.001,4.882 -3.955,8.828 -8.828,8.828"
   id="path160" />

		<path
   style="fill:#bc8d2f"
   d="m 238.095,176.553 c -4.873,0 -8.828,-3.946 -8.828,-8.828 v -26.483 c 0,-4.882 3.955,-8.828 8.828,-8.828 4.873,0 8.828,3.946 8.828,8.828 v 26.483 c 0,4.882 -3.955,8.828 -8.828,8.828"
   id="path162" />

		<path
   style="fill:#bc8d2f"
   d="m 176.302,238.346 c -4.873,0 -8.828,-3.946 -8.828,-8.828 v -26.483 c 0,-4.882 3.955,-8.828 8.828,-8.828 4.873,0 8.828,3.946 8.828,8.828 v 26.483 c 0,4.882 -3.955,8.828 -8.828,8.828"
   id="path164" />

		<path
   style="fill:#bc8d2f"
   d="m 352.854,150.07 c -2.26,0 -4.52,-0.865 -6.241,-2.586 -3.452,-3.452 -3.452,-9.031 0,-12.482 l 17.655,-17.655 c 3.452,-3.452 9.031,-3.452 12.482,0 3.451,3.452 3.452,9.031 0,12.482 l -17.655,17.655 c -1.721,1.721 -3.981,2.586 -6.241,2.586"
   id="path166" />

	</g>

	<g
   id="g174">
		<path
   style="fill:#c9c3a7"
   d="m 299.888,423.726 h -88.276 c -4.873,0 -8.828,-3.946 -8.828,-8.828 0,-4.882 3.955,-8.828 8.828,-8.828 h 88.276 c 4.873,0 8.828,3.946 8.828,8.828 0,4.882 -3.955,8.828 -8.828,8.828"
   id="path170" />

		<path
   style="fill:#c9c3a7"
   d="M 317.544,459.036 H 193.957 c -4.873,0 -8.828,-3.946 -8.828,-8.828 0,-4.882 3.955,-8.828 8.828,-8.828 h 123.586 c 4.873,0 8.828,3.946 8.828,8.828 0,4.882 -3.955,8.828 -8.827,8.828"
   id="path172" />

	</g>

</g>
      <g
         id="g178">
</g>
      <g
         id="g180">
</g>
      <g
         id="g182">
</g>
      <g
         id="g184">
</g>
      <g
         id="g186">
</g>
      <g
         id="g188">
</g>
      <g
         id="g190">
</g>
      <g
         id="g192">
</g>
      <g
         id="g194">
</g>
      <g
         id="g196">
</g>
      <g
         id="g198">
</g>
      <g
         id="g200">
</g>
      <g
         id="g202">
</g>
      <g
         id="g204">
</g>
      <g
         id="g206">
</g>
    </g>
  </g>
</svg>
