<?xml version="1.0" encoding="UTF-8" standalone="no"?>
<!-- Created with Inkscape (http://www.inkscape.org/) -->

<svg
   width="135.46666mm"
   height="112.11031mm"
   viewBox="0 0 135.46666 112.11031"
   version="1.1"
   id="svg10422"
   inkscape:version="1.1 (c68e22c387, 2021-05-23)"
   sodipodi:docname="landing_hobby.svg"
   xmlns:inkscape="http://www.inkscape.org/namespaces/inkscape"
   xmlns:sodipodi="http://sodipodi.sourceforge.net/DTD/sodipodi-0.dtd"
   xmlns="http://www.w3.org/2000/svg"
   xmlns:svg="http://www.w3.org/2000/svg">
  <sodipodi:namedview
     id="namedview10424"
     pagecolor="#ffffff"
     bordercolor="#666666"
     borderopacity="1.0"
     inkscape:pageshadow="2"
     inkscape:pageopacity="0.0"
     inkscape:pagecheckerboard="0"
     inkscape:document-units="mm"
     showgrid="false"
     fit-margin-top="0"
     fit-margin-left="0"
     fit-margin-right="0"
     fit-margin-bottom="0"
     inkscape:zoom="0.36703143"
     inkscape:cx="-407.32207"
     inkscape:cy="-58.57809"
     inkscape:window-width="1920"
     inkscape:window-height="1009"
     inkscape:window-x="1912"
     inkscape:window-y="-8"
     inkscape:window-maximized="1"
     inkscape:current-layer="g10524" />
  <defs
     id="defs10419" />
  <g
     inkscape:label="Layer 1"
     inkscape:groupmode="layer"
     id="layer1"
     transform="translate(-33.188995,-104.6997)">
    <g
       id="g10524"
       transform="matrix(0.26458333,0,0,0.26458333,33.188995,93.021522)">
      <path
         style="fill:#afb9d2"
         d="M 494.345,467.862 H 17.655 C 7.904,467.862 0,459.958 0,450.207 V 61.793 C 0,52.042 7.904,44.138 17.655,44.138 h 476.69 c 9.751,0 17.655,7.904 17.655,17.655 v 388.414 c 0,9.751 -7.904,17.655 -17.655,17.655 z"
         id="path10426" />
      <rect
         x="88.276001"
         y="44.138"
         style="fill:#959cb3"
         width="335.448"
         height="88.276001"
         id="rect10428" />
      <g
         id="g10434">
	<path
   style="fill:#707487"
   d="M 476.69,432.552 H 35.31 c -9.751,0 -17.655,-7.904 -17.655,-17.655 V 150.069 c 0,-9.751 7.904,-17.655 17.655,-17.655 h 441.38 c 9.751,0 17.655,7.904 17.655,17.655 v 264.828 c 0,9.751 -7.904,17.655 -17.655,17.655 z"
   id="path10430" />

	<circle
   style="fill:#707487"
   cx="150.069"
   cy="88.276001"
   r="26.483"
   id="circle10432" />

</g>
      <path
         style="fill:#ffd764"
         d="M 450.207,397.241 H 61.793 c -4.875,0 -8.828,-3.953 -8.828,-8.828 V 211.862 c 0,-4.875 3.953,-8.828 8.828,-8.828 h 388.414 c 4.875,0 8.828,3.953 8.828,8.828 v 176.552 c -0.001,4.875 -3.953,8.827 -8.828,8.827 z"
         id="path10436" />
      <path
         style="fill:#e4eaf6"
         d="m 450.207,158.81452 c 0,0 -117.85204,34.79166 -195.56928,33.71646 C 172.90085,193.89326 61.793,156.7711 61.793,156.7711 c -4.793287,-0.88884 -8.828,-3.953 -8.828,-8.828 0,-4.875 3.953067,-8.85365 8.828,-8.828 0,0 124.04952,39.16558 192.84472,39.16558 74.23736,-1.01695 195.56928,-37.12216 195.56928,-37.12216 4.78948,-0.90912 8.828,3.953 8.828,8.828 0,4.875 -3.95307,8.85364 -8.828,8.828 z"
         id="path10438"
         sodipodi:nodetypes="scssscsss" />
      <path
         style="fill:#ffd764"
         d="M 308.966,105.931 H 203.034 c -4.875,0 -8.828,-3.953 -8.828,-8.828 V 79.448 c 0,-4.875 3.953,-8.828 8.828,-8.828 h 105.931 c 4.875,0 8.828,3.953 8.828,8.828 v 17.655 c 0,4.875 -3.952,8.828 -8.827,8.828 z"
         id="path10440" />
      <g
         id="g10446">
	<path
   style="fill:#ffe678"
   d="m 246.06,336.561 c -2.259,0 -4.518,-0.862 -6.241,-2.586 l -86.966,-87 c -3.448,-3.448 -3.448,-9.038 0,-12.483 3.448,-3.448 9.035,-3.448 12.483,0 l 86.966,87 c 3.448,3.448 3.448,9.038 0,12.483 -1.724,1.724 -3.983,2.586 -6.242,2.586 z"
   id="path10442" />

	<path
   style="fill:#ffe678"
   d="m 344.276,383.996 c -2.259,0 -4.517,-0.862 -6.241,-2.586 l -48.518,-48.53 c -3.448,-3.448 -3.448,-9.038 0,-12.483 3.448,-3.448 9.035,-3.448 12.483,0 l 48.517,48.53 c 3.448,3.448 3.448,9.038 0,12.483 -1.724,1.724 -3.982,2.586 -6.241,2.586 z"
   id="path10444" />

</g>
      <path
         style="fill:#fff08c"
         d="m 269.284,308.983 c -2.259,0 -4.522,-0.862 -6.241,-2.586 L 243.156,286.5 c -3.448,-3.448 -3.448,-9.038 0,-12.483 3.448,-3.448 9.043,-3.448 12.483,0 l 19.887,19.896 c 3.448,3.448 3.448,9.038 0,12.483 -1.724,1.724 -3.983,2.587 -6.242,2.587 z"
         id="path10448" />
      <path
         style="fill:#ffbe5a"
         d="M 450.207,203.034 H 61.793 c -4.875,0 -8.828,3.953 -8.828,8.828 v 17.655 c 0,-4.875 3.953,-8.828 8.828,-8.828 h 388.414 c 4.875,0 8.828,3.953 8.828,8.828 v -17.655 c -0.001,-4.875 -3.953,-8.828 -8.828,-8.828 z"
         id="path10450" />
      <path
         style="fill:#afb9d2"
         d="m 167.724,114.759 c -2.259,0 -4.518,-0.862 -6.241,-2.586 l -35.31,-35.31 c -3.448,-3.448 -3.448,-9.035 0,-12.483 3.448,-3.448 9.035,-3.448 12.483,0 l 35.31,35.31 c 3.448,3.448 3.448,9.035 0,12.483 -1.724,1.724 -3.983,2.586 -6.242,2.586 z"
         id="path10452" />
      <circle
         style="fill:#707487"
         cx="361.931"
         cy="88.276001"
         r="26.483"
         id="circle10454" />
      <path
         style="fill:#afb9d2"
         d="m 379.586,114.759 c -2.259,0 -4.518,-0.862 -6.241,-2.586 l -35.31,-35.31 c -3.448,-3.448 -3.448,-9.035 0,-12.483 3.448,-3.448 9.035,-3.448 12.483,0 l 35.31,35.31 c 3.448,3.448 3.448,9.035 0,12.483 -1.724,1.724 -3.983,2.586 -6.242,2.586 z"
         id="path10456" />
      <g
         id="g10458">
</g>
      <g
         id="g10460">
</g>
      <g
         id="g10462">
</g>
      <g
         id="g10464">
</g>
      <g
         id="g10466">
</g>
      <g
         id="g10468">
</g>
      <g
         id="g10470">
</g>
      <g
         id="g10472">
</g>
      <g
         id="g10474">
</g>
      <g
         id="g10476">
</g>
      <g
         id="g10478">
</g>
      <g
         id="g10480">
</g>
      <g
         id="g10482">
</g>
      <g
         id="g10484">
</g>
      <g
         id="g10486">
</g>
    </g>
  </g>
</svg>
