<?xml version="1.0" encoding="UTF-8" standalone="no"?>
<!-- Created with Inkscape (http://www.inkscape.org/) -->

<svg
   width="114.24831mm"
   height="91.521675mm"
   viewBox="0 0 114.24831 91.521675"
   version="1.1"
   id="svg2001"
   xmlns="http://www.w3.org/2000/svg"
   xmlns:svg="http://www.w3.org/2000/svg">
  <defs
     id="defs1998" />
  <g
     id="layer1"
     transform="translate(-45.490189,-75.116317)">
    <g
       id="g2419"
       transform="translate(319.60368,23.447798)">
      <path
         style="fill:#e0eaef;stroke-width:0.264583"
         d="m -241.23361,82.101948 c -0.78223,-0.329245 -2.0704,-2.269807 -2.61793,-3.943791 -0.90095,-2.754495 -0.20307,-5.684044 1.98263,-8.322672 1.6628,-2.007373 1.75583,-4.010946 0.27289,-5.876986 -0.97505,-1.226947 -1.02127,-2.29481 -0.13756,-3.178519 1.41349,-1.413483 3.23917,-0.459647 4.66143,2.435386 0.51034,1.038784 0.63047,1.705772 0.63575,3.529764 0.007,2.570242 -0.43388,3.740327 -2.22737,5.905479 -1.6628,2.007372 -1.75584,4.010945 -0.2729,5.876985 0.89296,1.123638 1.00703,2.181392 0.32397,3.004093 -0.53475,0.644077 -1.79438,0.918151 -2.62091,0.570261 z m 46.56666,-2.116666 c -0.78223,-0.329245 -2.07039,-2.269808 -2.61793,-3.943792 -0.90095,-2.754495 -0.20307,-5.684043 1.98263,-8.322672 1.6628,-2.007372 1.75584,-4.010946 0.2729,-5.876986 -0.97506,-1.226946 -1.02127,-2.29481 -0.13756,-3.178518 1.41348,-1.413482 3.23916,-0.459648 4.66143,2.435386 0.51033,1.038783 0.63046,1.705771 0.63575,3.529764 0.007,2.570241 -0.43388,3.740327 -2.22738,5.905478 -1.6628,2.007373 -1.75583,4.010946 -0.27289,5.876986 0.89295,1.123638 1.00702,2.181391 0.32397,3.004092 -0.53475,0.644078 -1.79439,0.918152 -2.62092,0.570262 z m -23.28333,-6.35 c -0.78223,-0.329245 -2.0704,-2.269807 -2.61793,-3.943792 -0.90095,-2.754495 -0.20307,-5.684043 1.98263,-8.322672 1.6628,-2.007372 1.75584,-4.010946 0.27289,-5.876985 -0.97505,-1.226946 -1.02126,-2.29481 -0.13755,-3.17852 1.41348,-1.413481 3.23916,-0.459646 4.66143,2.435386 0.51033,1.038785 0.63046,1.705772 0.63574,3.529765 0.007,2.570242 -0.43387,3.740327 -2.22737,5.905479 -1.6628,2.007372 -1.75584,4.010945 -0.27289,5.876985 0.89295,1.123638 1.00702,2.181392 0.32397,3.004092 -0.53476,0.644078 -1.79439,0.918152 -2.62092,0.570262 z"
         id="path2433" />
      <path
         style="fill:#fcd5a0;stroke-width:0.264583"
         d="m -274.11212,122.15329 c 0.0127,-0.30823 0.0754,-0.37092 0.15985,-0.15986 0.0764,0.191 0.067,0.41921 -0.0209,0.50712 -0.0879,0.0879 -0.15045,-0.0684 -0.13896,-0.34726 z m 11.09161,-18.99556 c 0,-0.0549 0.20836,-0.2633 0.46302,-0.46302 0.41965,-0.32911 0.42901,-0.31975 0.0999,0.0999 -0.34565,0.44073 -0.56292,0.58089 -0.56292,0.36312 z m 39.90247,-14.897507 c 0.191,-0.07643 0.4192,-0.06703 0.50712,0.02088 0.0879,0.08792 -0.0684,0.150452 -0.34726,0.138964 -0.30823,-0.0127 -0.37092,-0.07539 -0.15986,-0.159851 z"
         id="path2431" />
      <path
         style="fill:#f8b351;stroke-width:0.264583"
         d="m -258.04303,143.02897 c 0.19099,-0.0764 0.41919,-0.067 0.50711,0.0209 0.0879,0.0879 -0.0684,0.15045 -0.34726,0.13896 -0.30823,-0.0127 -0.37092,-0.0754 -0.15985,-0.15985 z m 81.75624,0 c 0.191,-0.0764 0.4192,-0.067 0.50712,0.0209 0.0879,0.0879 -0.0683,0.15045 -0.34726,0.13896 -0.30823,-0.0127 -0.37092,-0.0754 -0.15986,-0.15985 z m 9.57461,-3.88791 c 0,-0.0549 0.20836,-0.2633 0.46302,-0.46302 0.41965,-0.3291 0.42901,-0.31975 0.0999,0.0999 -0.34565,0.44073 -0.56292,0.58089 -0.56292,0.36312 z m -107.39994,-12.22527 c 0.0127,-0.30823 0.0754,-0.37092 0.15985,-0.15986 0.0764,0.191 0.067,0.41921 -0.0209,0.50712 -0.0879,0.0879 -0.15045,-0.0684 -0.13896,-0.34726 z m 114.03541,0 c 0.0127,-0.30823 0.0754,-0.37092 0.15985,-0.15986 0.0764,0.191 0.067,0.41921 -0.0209,0.50712 -0.0879,0.0879 -0.15045,-0.0684 -0.13897,-0.34726 z m -114.03541,-3.96875 c 0.0127,-0.30823 0.0754,-0.37092 0.15985,-0.15986 0.0764,0.191 0.067,0.41921 -0.0209,0.50712 -0.0879,0.0879 -0.15045,-0.0684 -0.13896,-0.34726 z m 114.03541,0 c 0.0127,-0.30823 0.0754,-0.37092 0.15985,-0.15986 0.0764,0.191 0.067,0.41921 -0.0209,0.50712 -0.0879,0.0879 -0.15045,-0.0684 -0.13897,-0.34726 z m -113.77083,-2.11667 c 0.0127,-0.30822 0.0754,-0.37092 0.15986,-0.15985 0.0764,0.19099 0.067,0.4192 -0.0209,0.50712 -0.0879,0.0879 -0.15046,-0.0684 -0.13897,-0.34727 z m 106.30786,-14.06701 c -0.32911,-0.41965 -0.31975,-0.42901 0.0999,-0.0999 0.25466,0.19972 0.46302,0.40808 0.46302,0.46302 0,0.21776 -0.21728,0.0776 -0.56292,-0.36312 z m -3.43958,-3.43959 c -0.32911,-0.41964 -0.31975,-0.429 0.0999,-0.0999 0.44073,0.34564 0.58089,0.56292 0.36313,0.56292 -0.0549,0 -0.2633,-0.20836 -0.46302,-0.46303 z m -54.52003,-14.798964 c 0.191,-0.07643 0.4192,-0.06703 0.50712,0.02088 0.0879,0.08792 -0.0684,0.150453 -0.34726,0.138964 -0.30823,-0.0127 -0.37092,-0.07539 -0.15986,-0.15985 z m 3.29579,-0.267197 c 0.25744,-0.06708 0.61462,-0.06267 0.79375,0.0098 0.17914,0.07248 -0.0315,0.127362 -0.46805,0.12197 -0.43656,-0.0054 -0.58313,-0.06469 -0.3257,-0.131773 z m 11.2563,0.0026 c 0.19099,-0.07643 0.4192,-0.06703 0.50712,0.02088 0.0879,0.08792 -0.0684,0.150453 -0.34727,0.138965 -0.30823,-0.0127 -0.37092,-0.07539 -0.15985,-0.159851 z"
         id="path2429" />
      <path
         style="fill:#fdc239;stroke-width:0.264583"
         d="m -259.31634,134.34475 c -5.91052,-1.21741 -10.5431,-4.85049 -13.12954,-10.29679 -1.28223,-2.70002 -1.34721,-3.52579 -0.49083,-6.23825 2.52008,-7.98208 9.15435,-15.29796 18.70702,-20.628992 l 1.51478,-0.845349 -1.164,2.468944 c -1.90163,4.033517 -3.05731,8.101577 -3.05519,10.754467 0.002,2.43892 1.67316,4.01488 4.25936,4.01661 1.77456,0.001 3.04802,-0.72518 3.72359,-2.12387 0.24383,-0.50482 0.74558,-2.21802 1.11499,-3.80711 1.67841,-7.21992 6.57816,-13.387901 13.25836,-16.690115 3.71199,-1.834944 6.65902,-2.367325 14.76016,-2.666423 l 4.02525,-0.148616 -1.05833,0.876569 c -6.23029,5.160269 -10.22303,11.497955 -12.05607,19.136595 -0.62218,2.59278 -0.64279,3.87698 -0.0812,5.06044 0.52735,1.11131 1.43868,1.85561 2.75487,2.24995 1.46011,0.43746 2.78916,0.0883 4.01458,-1.0548 0.97333,-0.90792 1.10494,-1.20382 1.66915,-3.7529 1.75816,-7.94323 6.48293,-14.118469 13.51497,-17.663928 3.50702,-1.768187 8.54786,-2.927093 10.52708,-2.42021 2.70708,0.69329 7.30558,2.211038 7.30558,2.411227 0,0.121695 -0.11126,0.221263 -0.24725,0.221263 -0.13598,0 -1.32578,0.721424 -2.644,1.603164 -4.17868,2.795076 -7.22783,6.227524 -9.44008,10.626764 -1.36998,2.72432 -2.48534,6.37442 -2.48534,8.13346 0,3.15605 3.47986,5.23336 6.3312,3.77943 1.29682,-0.66127 1.82363,-1.51883 2.57498,-4.19166 2.2234,-7.90943 8.16699,-13.10135 16.18339,-14.136698 l 1.93852,-0.250368 1.58168,1.074103 c 7.21406,4.898973 12.42824,11.522813 14.52359,18.450063 0.68971,2.2802 0.61133,3.10352 -0.52708,5.53624 -2.28067,4.87368 -6.0012,8.20932 -11.17009,10.01454 l -2.19973,0.76825 -41.40729,0.0441 c -33.69151,0.0359 -41.72775,-0.0219 -43.12708,-0.31011 z"
         id="path2427" />
      <path
         style="fill:#fda332;stroke-width:0.264583"
         d="m -258.72432,142.9159 c -8.03438,-1.33844 -14.11494,-7.65936 -15.16952,-15.76918 -0.32342,-2.48711 0.007,-6.70602 0.42513,-5.42184 0.47342,1.45533 2.04429,4.3929 3.09262,5.78325 2.25005,2.98414 6.21761,5.61767 10.00142,6.6386 1.60527,0.43312 4.51233,0.46402 43.65624,0.46402 h 41.93646 l 2.31807,-0.8294 c 3.12417,-1.11781 4.95072,-2.25393 7.18452,-4.46876 1.95489,-1.93828 3.22615,-3.83717 4.24166,-6.33578 0.32974,-0.81131 0.66477,-1.54036 0.74451,-1.6201 0.0797,-0.0797 0.22525,0.84574 0.32335,2.05662 0.77325,9.54416 -5.90783,17.96131 -15.49086,19.51615 -2.11197,0.34267 -81.20256,0.32977 -83.2636,-0.0136 z m 61.84964,-26.29681 c 0.34178,-0.36381 0.68094,-0.66146 0.7537,-0.66146 0.0728,0 -0.14734,0.29765 -0.48911,0.66146 -0.34178,0.3638 -0.68094,0.66145 -0.7537,0.66145 -0.0728,0 0.14734,-0.29765 0.48911,-0.66145 z m -31.37826,-2.31511 -0.50403,-0.59531 0.59531,0.50403 c 0.55945,0.47366 0.71577,0.68659 0.50403,0.68659 -0.0502,0 -0.31809,-0.26789 -0.59531,-0.59531 z m -21.5384,-1.91823 c 0.34177,-0.3638 0.68094,-0.66146 0.7537,-0.66146 0.0728,0 -0.14734,0.29766 -0.48912,0.66146 -0.34177,0.36381 -0.68094,0.66146 -0.7537,0.66146 -0.0728,0 0.14734,-0.29765 0.48912,-0.66146 z m 34.13125,-12.667601 c 0,-0.05494 0.20836,-0.2633 0.46302,-0.463021 0.41964,-0.329107 0.429,-0.319749 0.0999,0.0999 -0.34564,0.44073 -0.56291,0.580888 -0.56291,0.363125 z m 18.52083,-0.776644 c 0,-0.04554 0.38695,-0.432488 0.85989,-0.859896 l 0.8599,-0.777105 -0.7771,0.859896 c -0.72438,0.801544 -0.94269,0.981511 -0.94269,0.777105 z m 18.45469,-0.09244 c 0.1819,-0.0734 0.47955,-0.0734 0.66145,0 0.1819,0.0734 0.0331,0.133453 -0.33073,0.133453 -0.3638,0 -0.51263,-0.06005 -0.33072,-0.133453 z m -41.20886,-7.100813 c 0.93748,-0.945885 1.76404,-1.719792 1.8368,-1.719792 0.0728,0 -0.63474,0.773907 -1.57221,1.719792 -0.93748,0.945885 -1.76404,1.719792 -1.8368,1.719792 -0.0728,0 0.63474,-0.773907 1.57221,-1.719792 z m 20.90209,-1.292058 c 0,-0.05579 0.23828,-0.163746 0.52953,-0.239909 0.29124,-0.07616 0.46281,-0.03052 0.38126,0.101434 -0.14242,0.230428 -0.91079,0.34725 -0.91079,0.138475 z m -32.60502,-1.001469 c 0.15375,-0.15375 0.43572,-0.227486 0.62661,-0.163859 0.19815,0.06605 0.0782,0.185986 -0.27955,0.279545 -0.44009,0.115086 -0.5434,0.08065 -0.34706,-0.115686 z"
         id="path2425" />
      <path
         style="fill:#c7701e;stroke-width:0.264583"
         d="m -200.62845,117.62897 c 0.19099,-0.0764 0.4192,-0.067 0.50712,0.0209 0.0879,0.0879 -0.0684,0.15045 -0.34727,0.13896 -0.30823,-0.0127 -0.37092,-0.0754 -0.15985,-0.15985 z m 1.32291,0 c 0.191,-0.0764 0.4192,-0.067 0.50712,0.0209 0.0879,0.0879 -0.0684,0.15045 -0.34726,0.13896 -0.30823,-0.0127 -0.37092,-0.0754 -0.15986,-0.15985 z m -3.5474,-1.20832 -0.50403,-0.59531 0.59531,0.50402 c 0.32743,0.27722 0.59532,0.54511 0.59532,0.59532 0,0.21173 -0.21294,0.0554 -0.6866,-0.50403 z m -22.38176,-0.90835 c 0.19099,-0.0764 0.4192,-0.067 0.50712,0.0209 0.0879,0.0879 -0.0684,0.15045 -0.34727,0.13897 -0.30823,-0.0127 -0.37092,-0.0754 -0.15985,-0.15986 z m 2.96002,-1.27446 c 0.34178,-0.36381 0.68094,-0.66146 0.7537,-0.66146 0.0728,0 -0.14734,0.29765 -0.48911,0.66146 -0.34178,0.3638 -0.68094,0.66145 -0.7537,0.66145 -0.0728,0 0.14734,-0.29765 0.48911,-0.66145 z m 18.32831,-0.92605 c 0,-0.65484 0.0516,-0.92273 0.11467,-0.59531 0.0631,0.32742 0.0631,0.86321 0,1.19063 -0.0631,0.32742 -0.11467,0.0595 -0.11467,-0.59532 z m -51.96414,-0.99218 c -0.32911,-0.41965 -0.31975,-0.42901 0.0999,-0.0999 0.25466,0.19972 0.46302,0.40808 0.46302,0.46302 0,0.21776 -0.21727,0.0776 -0.56292,-0.36312 z m 26.55881,-0.99219 c 0.003,-0.58208 0.0571,-0.78905 0.1204,-0.45994 0.0633,0.32912 0.0609,0.80537 -0.005,1.05834 -0.0662,0.25296 -0.11801,-0.0163 -0.11507,-0.5984 z m 38.81597,-6.81302 c 0.64876,-0.69122 1.2143,-1.25677 1.25677,-1.25677 0.19867,0 -0.0114,0.23755 -1.17957,1.33397 l -1.25677,1.17957 z m -7.26499,-4.696355 c 0.26339,-0.291041 0.53842,-0.529166 0.61118,-0.529166 0.0728,0 -0.0832,0.238125 -0.3466,0.529166 -0.26339,0.291045 -0.53842,0.529165 -0.61118,0.529165 -0.0728,0 0.0832,-0.23812 0.3466,-0.529165 z m -16.13958,-2.116666 c 0.71666,-0.727604 1.36255,-1.322917 1.43532,-1.322917 0.0728,0 -0.45407,0.595313 -1.17074,1.322917 -0.71666,0.727604 -1.36255,1.322916 -1.43532,1.322916 -0.0728,0 0.45407,-0.595312 1.17074,-1.322916 z m 34.47851,1.142177 c 0.191,-0.07643 0.4192,-0.06703 0.50712,0.02087 0.0879,0.08792 -0.0684,0.150453 -0.34726,0.138965 -0.30823,-0.0127 -0.37092,-0.07539 -0.15986,-0.159851 z m -64.24414,-0.712907 c 0,-0.05494 0.20836,-0.2633 0.46303,-0.463021 0.41964,-0.329107 0.429,-0.319748 0.0999,0.0999 -0.34564,0.440729 -0.56292,0.580887 -0.56292,0.363124 z m 48.81563,-1.22302 c 0.26339,-0.291042 0.53842,-0.529167 0.61118,-0.529167 0.0728,0 -0.0832,0.238125 -0.3466,0.529167 -0.26339,0.291041 -0.53842,0.529166 -0.61118,0.529166 -0.0728,0 0.0832,-0.238125 0.3466,-0.529166 z m -46.56667,-1.322917 c 0.56839,-0.582083 1.09297,-1.058333 1.16573,-1.058333 0.0728,0 -0.33276,0.47625 -0.90114,1.058333 -0.56839,0.582083 -1.09297,1.058333 -1.16573,1.058333 -0.0728,0 0.33275,-0.47625 0.90114,-1.058333 z m 19.44688,-1.422813 c 0,-0.05494 0.20836,-0.2633 0.46302,-0.46302 0.41964,-0.329108 0.429,-0.319749 0.0999,0.0999 -0.34564,0.440729 -0.56291,0.580887 -0.56291,0.363124 z m -17.4625,-0.264583 c 0,-0.05494 0.20836,-0.2633 0.46302,-0.463021 0.41964,-0.329107 0.429,-0.319749 0.0999,0.0999 -0.34564,0.44073 -0.56291,0.580888 -0.56291,0.363125 z m 39.90247,-3.520426 c 0.19099,-0.07643 0.4192,-0.06703 0.50712,0.02088 0.0879,0.08792 -0.0684,0.150453 -0.34727,0.138965 -0.30822,-0.0127 -0.37092,-0.07539 -0.15985,-0.159851 z m -18.07435,-0.613011 c 0.26339,-0.291042 0.53842,-0.529167 0.61118,-0.529167 0.0728,0 -0.0832,0.238125 -0.34659,0.529167 -0.2634,0.291042 -0.53843,0.529167 -0.61119,0.529167 -0.0728,0 0.0832,-0.238125 0.3466,-0.529167 z m -15.21354,0 c 0,-0.145521 0.12609,-0.264583 0.2802,-0.264583 0.15411,0 0.20661,0.119062 0.11668,0.264583 -0.0899,0.145521 -0.21603,0.264583 -0.2802,0.264583 -0.0642,0 -0.11668,-0.119062 -0.11668,-0.264583 z m 30.11289,-0.445323 c 0.19099,-0.07643 0.4192,-0.06703 0.50712,0.02088 0.0879,0.08792 -0.0684,0.150453 -0.34727,0.138964 -0.30822,-0.0127 -0.37092,-0.07539 -0.15985,-0.15985 z m -3.70417,-0.529166 c 0.191,-0.07643 0.4192,-0.06703 0.50712,0.02088 0.0879,0.08792 -0.0684,0.150453 -0.34726,0.138965 -0.30823,-0.0127 -0.37092,-0.07539 -0.15986,-0.159851 z m -2.66237,-0.259072 c 0.1819,-0.0734 0.47956,-0.0734 0.66146,0 0.1819,0.0734 0.0331,0.133453 -0.33073,0.133453 -0.3638,0 -0.51263,-0.06005 -0.33073,-0.133453 z m -4.6302,-0.278863 c 0.40018,-0.06062 1.05502,-0.06062 1.4552,0 0.40019,0.06062 0.0728,0.110222 -0.7276,0.110222 -0.80036,0 -1.12779,-0.0496 -0.7276,-0.110222 z"
         id="path2423" />
      <path
         style="fill:#bb5e18;stroke-width:0.264583"
         d="m -200.81288,117.53371 c -0.49253,-0.11049 -1.32596,-0.63166 -1.85208,-1.15815 -0.94633,-0.94699 -0.95649,-0.98062 -0.94677,-3.13499 0.0293,-6.50314 6.20826,-15.555651 13.13926,-19.249837 l 1.57971,-0.841979 1.63144,0.587772 c 1.75322,0.631648 6.44734,2.901574 8.54654,4.132839 l 1.28698,0.754857 -1.57721,0.197498 c -6.33339,0.79307 -12.03026,4.74644 -14.85113,10.30602 -0.34601,0.68195 -0.97957,2.44904 -1.40791,3.92688 -0.42833,1.47783 -0.99544,2.92635 -1.26023,3.21895 -0.98849,1.09227 -2.7412,1.60728 -4.2886,1.26014 z m -26.21902,-2.56868 c -0.50642,-0.25444 -1.20324,-0.87933 -1.54847,-1.38865 -0.56309,-0.83072 -0.6134,-1.13032 -0.48873,-2.91042 0.47644,-6.80289 5.21047,-15.395144 11.37402,-20.643842 l 2.12059,-1.805832 2.40459,0.12605 c 3.99845,0.209595 7.78478,0.618591 11.24053,1.214187 l 3.27968,0.56525 -2.95161,0.725718 c -10.17492,2.501722 -17.2894,10.103259 -19.35592,20.681009 -0.62685,3.20862 -3.40272,4.77897 -6.07468,3.43653 z m -27.09747,-1.65183 c -1.11387,-0.35015 -2.24466,-1.54622 -2.55642,-2.70399 -0.50815,-1.88713 0.84629,-7.19937 2.95377,-11.584915 l 1.33504,-2.778125 2.55959,-1.168831 c 4.55715,-2.081011 12.23623,-4.546144 16.05334,-5.153432 0.99828,-0.158824 0.95584,-0.115366 -0.74807,0.765879 -5.36414,2.774286 -8.99437,6.421122 -11.65491,11.708234 -0.9055,1.79944 -2.0534,5.38024 -2.396,7.47419 -0.20817,1.27231 -1.0321,2.54112 -1.96259,3.0223 -1.02585,0.53048 -2.63141,0.71807 -3.58375,0.41869 z"
         id="path2421" />
    </g>
    <path
       style="fill:#3e494a;stroke:none;stroke-width:0.264583"
       d="m 95.757975,143.95246 c -2.07962,0.87842 -1.86134,9.49616 1.54702,7.91078 2.38019,-1.10702 2.10503,-9.4533 -1.54702,-7.91078 m 48.418755,0.0757 c -2.12989,1.18613 -1.65576,9.48955 1.80764,7.83511 2.12883,-1.0168 1.78699,-9.83748 -1.80764,-7.83511 m -29.92173,3.89705 c -2.85909,1.04775 -0.40613,4.00447 1.05331,4.94585 2.7903,1.80023 6.75957,2.03968 9.78958,0.70697 1.64518,-0.72337 6.30317,-5.44803 1.85182,-5.76421 -2.32621,-0.1651 -3.90842,2.80273 -6.61432,2.50692 -2.03358,-0.22251 -4.15819,-3.10012 -6.08039,-2.39553 z"
       id="path1891" />
  </g>
</svg>
