<?xml version="1.0" encoding="UTF-8" standalone="no"?>
<!-- Created with Inkscape (http://www.inkscape.org/) -->

<svg
   width="307.42453mm"
   height="284.06549mm"
   viewBox="0 0 307.42453 284.06549"
   version="1.1"
   id="svg5"
   inkscape:version="1.1.2 (b8e25be833, 2022-02-05)"
   sodipodi:docname="landing_hozzavalok.svg"
   xmlns:inkscape="http://www.inkscape.org/namespaces/inkscape"
   xmlns:sodipodi="http://sodipodi.sourceforge.net/DTD/sodipodi-0.dtd"
   xmlns="http://www.w3.org/2000/svg"
   xmlns:svg="http://www.w3.org/2000/svg">
  <sodipodi:namedview
     id="namedview7"
     pagecolor="#ffffff"
     bordercolor="#666666"
     borderopacity="1.0"
     inkscape:pageshadow="2"
     inkscape:pageopacity="0.0"
     inkscape:pagecheckerboard="0"
     inkscape:document-units="mm"
     showgrid="false"
     fit-margin-top="0"
     fit-margin-left="0"
     fit-margin-right="0"
     fit-margin-bottom="0"
     inkscape:zoom="0.73406285"
     inkscape:cx="506.08746"
     inkscape:cy="730.18271"
     inkscape:window-width="1920"
     inkscape:window-height="1009"
     inkscape:window-x="-8"
     inkscape:window-y="-8"
     inkscape:window-maximized="1"
     inkscape:current-layer="layer2" />
  <defs
     id="defs2" />
  <g
     inkscape:groupmode="layer"
     id="layer2"
     inkscape:label="Layer 2"
     transform="translate(133.48715,173.57203)"
     style="display:inline">
    <path
       style="fill:#ffffff;stroke:none;stroke-width:0.264583px;stroke-linecap:butt;stroke-linejoin:miter;stroke-opacity:1"
       d="m 83.625721,9.1762634 -34.635262,56.8508486 4.5e-5,6.517006 11.085144,24.907764 57.468112,2.221706 12.6131,-22.686058 -9.52513,-39.151389 z"
       id="path32379" />
    <path
       style="display:inline;fill:#ffffff;stroke:none;stroke-width:0.196437px;stroke-linecap:butt;stroke-linejoin:miter;stroke-opacity:1"
       d="m 138.46562,-10.785412 -25.71456,42.208259 3e-5,4.838476 8.23004,18.492483 42.66654,1.64948 9.36445,-16.843002 -7.07182,-29.0675 z"
       id="path32379-6" />
    <path
       style="display:inline;fill:#ffffff;stroke:none;stroke-width:0.170588px;stroke-linecap:butt;stroke-linejoin:miter;stroke-opacity:1"
       d="m 44.660842,-22.521238 -22.330834,36.654173 2.9e-5,4.201793 7.147066,16.0591 37.052149,1.432429 8.132205,-14.626672 -6.141259,-25.2425744 z"
       id="path32379-1" />
    <g
       id="g247"
       transform="translate(52.569506,96.18409)">
      <path
         style="fill:#f2f4e5;stroke-width:0.264583"
         d="m -135.36459,14.19726 c 0.47294,-0.05869 1.24685,-0.05869 1.71979,0 0.47295,0.05869 0.086,0.106715 -0.85989,0.106715 -0.94589,0 -1.33284,-0.04802 -0.8599,-0.106715 z m 27.51667,0 c 0.47294,-0.05869 1.24685,-0.05869 1.71979,0 0.47294,0.05869 0.086,0.106715 -0.8599,0.106715 -0.94588,0 -1.33284,-0.04802 -0.85989,-0.106715 z m -34.66042,-0.259908 c 0.32742,-0.06307 0.8632,-0.06307 1.19063,0 0.32742,0.06306 0.0595,0.114663 -0.59532,0.114663 -0.65484,0 -0.92273,-0.0516 -0.59531,-0.114663 z m 42.33642,-5.29e-4 c 0.329116,-0.06329 0.805366,-0.06088 1.058331,0.0053 0.252966,0.06622 -0.01632,0.118004 -0.598397,0.115067 -0.582084,-0.0029 -0.789054,-0.05712 -0.459934,-0.120407 z m -47.23121,-0.259715 c 0.25466,-0.06655 0.67138,-0.06655 0.92604,0 0.25466,0.06655 0.0463,0.121002 -0.46302,0.121002 -0.50932,0 -0.71768,-0.05445 -0.46302,-0.121002 z m 52.387498,0 c 0.254661,-0.06655 0.67138,-0.06655 0.926042,0 0.254661,0.06655 0.0463,0.121002 -0.463021,0.121002 -0.509323,0 -0.717683,-0.05445 -0.463021,-0.121002 z m -56.223958,-0.257426 c 0.1819,-0.0734 0.47956,-0.0734 0.66146,0 0.1819,0.0734 0.0331,0.133453 -0.33073,0.133453 -0.3638,0 -0.51263,-0.06005 -0.33073,-0.133453 z m 60.197743,-0.0081 c 0.257431,-0.06708 0.614619,-0.06267 0.79375,0.0098 0.179131,0.07248 -0.03149,0.127363 -0.468056,0.12197 -0.436563,-0.0054 -0.583126,-0.06469 -0.325694,-0.131773 z m -63.372743,-0.256461 c 0.1819,-0.0734 0.47956,-0.0734 0.66146,0 0.1819,0.0734 0.0331,0.133454 -0.33073,0.133454 -0.3638,0 -0.51263,-0.06005 -0.33073,-0.133454 z m 66.939583,0 c 0.181901,-0.0734 0.479557,-0.0734 0.661458,0 0.181901,0.0734 0.03307,0.133454 -0.330729,0.133454 -0.363802,0 -0.512631,-0.06005 -0.330729,-0.133454 z m -69.568873,-0.270094 c 0.19099,-0.07643 0.41919,-0.06703 0.50711,0.02088 0.0879,0.08792 -0.0684,0.150452 -0.34726,0.138964 -0.30823,-0.0127 -0.37092,-0.07539 -0.15985,-0.159851 z m 72.495826,0 c 0.190994,-0.07643 0.4192,-0.06703 0.507118,0.02088 0.08792,0.08792 -0.06835,0.150452 -0.347265,0.138964 -0.308227,-0.0127 -0.37092,-0.07539 -0.159853,-0.159851 z m -75.141666,-0.264583 c 0.191,-0.07643 0.4192,-0.06703 0.50712,0.02088 0.0879,0.08792 -0.0683,0.150453 -0.34726,0.138965 -0.30823,-0.0127 -0.37092,-0.07539 -0.15986,-0.159851 z m 77.522915,0 c 0.190995,-0.07643 0.419201,-0.06703 0.507119,0.02088 0.08792,0.08792 -0.06835,0.150453 -0.347265,0.138965 -0.308227,-0.0127 -0.37092,-0.07539 -0.159854,-0.159851 z m -99.102985,-0.266229 c 0.25466,-0.06655 0.67138,-0.06655 0.92604,0 0.25466,0.06655 0.0463,0.121001 -0.46302,0.121001 -0.50933,0 -0.71769,-0.05445 -0.46302,-0.121001 z m 19.19882,0.0016 c 0.191,-0.07643 0.4192,-0.06703 0.50712,0.02088 0.0879,0.08792 -0.0684,0.150452 -0.34726,0.138964 -0.30823,-0.0127 -0.37092,-0.07539 -0.15986,-0.159851 z m 82.285415,0 c 0.190995,-0.07643 0.419201,-0.06703 0.507119,0.02088 0.08792,0.08792 -0.06835,0.150452 -0.347265,0.138964 -0.308227,-0.0127 -0.37092,-0.07539 -0.159854,-0.159851 z m 18.641623,-0.0026 c 0.257432,-0.06708 0.614619,-0.06267 0.79375,0.0098 0.179131,0.07248 -0.03149,0.127363 -0.468056,0.121971 -0.436562,-0.0054 -0.583126,-0.06469 -0.325694,-0.131774 z m -16.789539,-0.261969 c 0.190994,-0.07643 0.4192,-0.06703 0.507118,0.02088 0.08792,0.08792 -0.06835,0.150452 -0.347265,0.138964 -0.308227,-0.0127 -0.37092,-0.07539 -0.159853,-0.159851 z m 1.852083,-0.264583 c 0.190995,-0.07643 0.4192,-0.06703 0.507119,0.02088 0.08792,0.08792 -0.06835,0.150453 -0.347266,0.138965 -0.308226,-0.0127 -0.370919,-0.07539 -0.159853,-0.159851 z m 18.967317,-0.877504 c 0.26339,-0.291042 0.538421,-0.529167 0.611182,-0.529167 0.07276,0 -0.08321,0.238125 -0.346599,0.529167 -0.26339,0.291041 -0.538422,0.529166 -0.611182,0.529166 -0.07276,0 0.08321,-0.238125 0.346599,-0.529166 z m 1.52727,-3.96875 c 0,-0.6548437 0.0516,-0.9227343 0.114662,-0.5953124 0.06307,0.3274218 0.06307,0.863203 0,1.1906249 -0.06306,0.3274219 -0.114662,0.059531 -0.114662,-0.5953125 z m -4.325422,-8.929687 -0.641432,-0.7276042 0.727605,0.641432 c 0.680055,0.5995167 0.848939,0.8137763 0.641431,0.8137763 -0.04739,0 -0.374814,-0.3274219 -0.727604,-0.7276041 z m -1.790282,-4.0348957 c 0,-0.363802 0.06006,-0.5126301 0.133454,-0.3307291 0.0734,0.181901 0.0734,0.4795573 0,0.6614583 -0.0734,0.181901 -0.133454,0.033073 -0.133454,-0.3307292 z m 0.274389,-3.0427081 c 0.0054,-0.4365625 0.06469,-0.5831258 0.131773,-0.3256942 0.06708,0.2574317 0.06267,0.6146191 -0.0098,0.79375 -0.07248,0.1791308 -0.127362,-0.031493 -0.12197,-0.4680558 z m 0.264584,-3.7041662 c 0.0054,-0.436563 0.06469,-0.583126 0.131773,-0.325694 0.06708,0.257431 0.06267,0.614619 -0.0098,0.793749 -0.07248,0.179131 -0.127363,-0.03149 -0.121971,-0.468055 z m -119.622358,-3.990798 c 0.0127,-0.308226 0.0754,-0.370919 0.15986,-0.159853 0.0764,0.190995 0.067,0.4192 -0.0209,0.507119 -0.0879,0.08792 -0.15045,-0.06835 -0.13897,-0.347266 z m 119.911034,-1.036285 c 0.0021,-0.727605 0.05337,-0.993857 0.114186,-0.591675 0.06082,0.402183 0.05919,0.997495 -0.0036,1.322917 -0.0628,0.325421 -0.112559,-0.0037 -0.110575,-0.731242 z m -0.0036,-16.536458 c 0,-0.654844 0.0516,-0.922734 0.114662,-0.595312 0.06307,0.327421 0.06307,0.863203 0,1.190625 -0.06306,0.327421 -0.114662,0.05953 -0.114662,-0.595313 z m -119.907434,-1.212673 c 0.0127,-0.308226 0.0754,-0.370919 0.15986,-0.159853 0.0764,0.190995 0.067,0.419201 -0.0209,0.507119 -0.0879,0.08792 -0.15045,-0.06835 -0.13897,-0.347266 z m 119.622356,-3.417535 c 0.0054,-0.436563 0.06469,-0.583126 0.131773,-0.325694 0.06708,0.257431 0.06267,0.614619 -0.0098,0.79375 -0.07248,0.179131 -0.127363,-0.03149 -0.121971,-0.468056 z m -0.274389,-3.042708 c 0,-0.363802 0.06006,-0.51263 0.133453,-0.330729 0.0734,0.181901 0.0734,0.479557 0,0.661458 -0.0734,0.181901 -0.133453,0.03307 -0.133453,-0.330729 z m -0.28547,-2.800173 c 0.0127,-0.308226 0.07539,-0.370919 0.159851,-0.159853 0.07643,0.190995 0.06703,0.4192 -0.02088,0.507119 -0.08792,0.08792 -0.150452,-0.06835 -0.138964,-0.347266 z m -0.264583,-2.116666 c 0.0127,-0.308227 0.07539,-0.37092 0.159851,-0.159854 0.07643,0.190995 0.06703,0.419201 -0.02088,0.507119 -0.08792,0.08792 -0.150453,-0.06835 -0.138964,-0.347265 z m -91.772464,-46.743055 c 0.35794,-0.472942 2.33301,-3.19437 4.38905,-6.047616 3.94448,-5.473935 6.01136,-7.681725 8.74739,-9.343775 2.47842,-1.50556 4.25548,-2.12925 10.1536,-3.56358 2.99038,-0.72721 6.19327,-1.67061 7.11753,-2.09645 2.8746,-1.32441 8.95781,-4.7221 8.77742,-4.9025 -0.0944,-0.0944 0.53347,0.11489 1.39523,0.46506 2.38289,0.96825 4.36941,1.40372 8.57344,1.8794 4.47221,0.50602 5.990643,0.76952 7.805208,1.35448 2.090526,0.67391 5.157057,2.35582 6.800067,3.72964 1.203648,1.00645 12.93006,12.876471 18.039836,18.260758 l 1.067149,1.124479 h -41.75836 -41.75837 z m -9.05467,-10.352501 c 0,-0.0549 0.20836,-0.2633 0.46302,-0.46302 0.41965,-0.32911 0.42901,-0.31975 0.0999,0.0999 -0.34565,0.44072 -0.56292,0.58088 -0.56292,0.36312 z m 3.175,-3.175 c 0,-0.0549 0.20836,-0.2633 0.46302,-0.46302 0.41965,-0.32911 0.42901,-0.31975 0.0999,0.0999 -0.34564,0.44072 -0.56292,0.58088 -0.56292,0.36312 z m 34.61081,-13.83918 c 0.19099,-0.0764 0.4192,-0.067 0.50712,0.0209 0.0879,0.0879 -0.0684,0.15045 -0.34727,0.13897 -0.30823,-0.0127 -0.37092,-0.0754 -0.15985,-0.15986 z m 5.01054,0.006 c 0.18191,-0.0734 0.47956,-0.0734 0.66146,0 0.1819,0.0734 0.0331,0.13346 -0.33073,0.13346 -0.3638,0 -0.51263,-0.0601 -0.33073,-0.13346 z"
         id="path261" />
      <path
         style="fill:#d6d8cb;stroke-width:0.264583"
         d="m -132.32188,14.199152 c 0.40018,-0.06062 1.05503,-0.06062 1.45521,0 0.40018,0.06062 0.0728,0.110223 -0.72761,0.110223 -0.80036,0 -1.12778,-0.0496 -0.7276,-0.110223 z m 21.69583,0 c 0.40018,-0.06062 1.05503,-0.06062 1.45521,0 0.40018,0.06062 0.0728,0.110223 -0.7276,0.110223 -0.80037,0 -1.12779,-0.0496 -0.72761,-0.110223 z m -30.0302,-0.250304 c 0.1819,-0.0734 0.47955,-0.0734 0.66145,0 0.1819,0.0734 0.0331,0.133454 -0.33073,0.133454 -0.3638,0 -0.51263,-0.06006 -0.33072,-0.133454 z m 39.15833,0 c 0.1819,-0.0734 0.47955,-0.0734 0.66145,0 0.18191,0.0734 0.0331,0.133454 -0.33072,0.133454 -0.36381,0 -0.51263,-0.06006 -0.33073,-0.133454 z m -44.43346,-0.270094 c 0.19099,-0.07643 0.41919,-0.06703 0.50711,0.02088 0.0879,0.08792 -0.0683,0.150453 -0.34726,0.138965 -0.30823,-0.0127 -0.37092,-0.07539 -0.15985,-0.159851 z m 50.006243,0 c 0.190994,-0.07643 0.4192,-0.06703 0.507119,0.02088 0.08792,0.08792 -0.06835,0.150453 -0.347266,0.138965 -0.308226,-0.0127 -0.370919,-0.07539 -0.159853,-0.159851 z m -54.239583,-0.264583 c 0.191,-0.07643 0.4192,-0.06703 0.50712,0.02088 0.0879,0.08792 -0.0684,0.150453 -0.34726,0.138965 -0.30823,-0.0127 -0.37092,-0.07539 -0.15986,-0.159851 z m -3.175,-0.264584 c 0.191,-0.07643 0.4192,-0.06703 0.50712,0.02088 0.0879,0.08792 -0.0683,0.150452 -0.34726,0.138964 -0.30823,-0.0127 -0.37092,-0.07539 -0.15986,-0.15985 z m 65.087499,0 c 0.190995,-0.07643 0.419201,-0.06703 0.507119,0.02088 0.08792,0.08792 -0.06835,0.150452 -0.347266,0.138964 -0.308226,-0.0127 -0.370919,-0.07539 -0.159853,-0.15985 z m 27.017082,-16.4218636 -0.641432,-0.7276042 0.727604,0.641432 c 0.680056,0.5995167 0.848939,0.8137763 0.641432,0.8137763 -0.04739,0 -0.374814,-0.3274219 -0.727604,-0.7276041 z M -180.5213,-12.753178 c 0.0127,-0.308226 0.0754,-0.370919 0.15985,-0.159853 0.0764,0.190994 0.067,0.4192 -0.0209,0.507119 -0.0879,0.08792 -0.15045,-0.06835 -0.13896,-0.347266 z m 119.327076,-1.058333 c 0.0127,-0.308227 0.07539,-0.37092 0.159851,-0.159854 0.07643,0.190995 0.06703,0.419201 -0.02088,0.507119 -0.08792,0.08792 -0.150453,-0.06835 -0.138964,-0.347265 z M -180.765,-17.625922 c 0,-0.363802 0.0601,-0.51263 0.13345,-0.330729 0.0734,0.181901 0.0734,0.479557 0,0.661458 -0.0734,0.181901 -0.13345,0.03307 -0.13345,-0.330729 z m 119.866051,-1.984375 c 0.0054,-0.436562 0.06469,-0.583125 0.131773,-0.325694 0.06708,0.257432 0.06267,0.614619 -0.0098,0.79375 -0.07248,0.179131 -0.127363,-0.03149 -0.12197,-0.468056 z m 0.0098,-12.832291 c 0,-0.509323 0.05445,-0.717682 0.121002,-0.463021 0.06655,0.254662 0.06655,0.671381 0,0.926042 -0.06655,0.254662 -0.121002,0.0463 -0.121002,-0.463021 z m -119.896741,-2.271006 c 0.0127,-0.308226 0.0754,-0.370919 0.15986,-0.159853 0.0764,0.190995 0.067,0.419201 -0.0209,0.507119 -0.0879,0.08792 -0.15045,-0.06835 -0.13897,-0.347266 z m 119.591663,-3.174999 c 0.0127,-0.308227 0.07539,-0.37092 0.159851,-0.159854 0.07643,0.190995 0.06703,0.419201 -0.02088,0.507119 -0.08792,0.08792 -0.150453,-0.06835 -0.138964,-0.347265 z m -2.824152,-52.034721 -0.504028,-0.595313 0.595312,0.504029 c 0.559446,0.473662 0.715761,0.686596 0.504029,0.686596 -0.05021,0 -0.318098,-0.26789 -0.595313,-0.595312 z m -106.469641,-2.988977 c 0,-0.190902 7.17066,-10.155709 8.44906,-11.741349 1.49943,-1.8598 4.18488,-3.92494 6.79309,-5.22398 1.90738,-0.94998 3.61763,-1.49688 8.20209,-2.62283 6.12649,-1.50468 6.55849,-1.67787 14.02771,-5.6238 4.11954,-2.17632 6.49845,-2.79946 10.68221,-2.79816 2.34961,7.3e-4 3.8436,0.14113 5.15937,0.48486 3.24275,0.84714 3.26776,0.75739 -0.83292,2.98947 -5.60262,3.04963 -6.60916,3.44217 -12.48921,4.87069 -6.09293,1.48024 -8.15127,2.24543 -10.79915,4.01457 -2.6814,1.79153 -4.12993,3.41671 -8.77233,9.842111 l -4.20559,5.820833 -8.10717,0.06997 c -4.45894,0.03848 -8.10716,0.0014 -8.10716,-0.08238 z"
         id="path259" />
      <path
         style="fill:#fbc873;stroke-width:0.264583"
         d="m -133.18178,14.229656 c -9.30552,-0.267904 -20.07585,-0.954214 -26.59062,-1.694418 -1.30969,-0.148804 -2.70009,-0.294169 -3.08978,-0.32303 -0.38969,-0.02886 -0.67364,-0.116512 -0.63099,-0.194781 0.0426,-0.07827 -0.0766,-2.0473084 -0.26502,-4.3756417 -0.94597,-11.6904605 -1.09361,-27.0266173 -0.36042,-37.4385393 0.74419,-10.568138 2.45543,-21.660328 4.33696,-28.111978 l 0.44367,-1.521354 h 44.5505 c 31.949647,0 44.947059,-0.08406 45.952574,-0.297183 0.771146,-0.163449 1.843825,-0.520636 2.383731,-0.79375 0.539907,-0.273111 1.08811,-0.496567 1.218229,-0.496567 0.543558,0 2.319796,7.466832 3.084063,12.964582 1.606965,11.559688 1.814933,24.936759 0.623845,40.1274688 l -0.314566,4.0118451 1.900738,2.0352913 c 4.314579,4.6200084 5.491943,9.7677203 2.907313,12.7114508 -1.668434,1.900237 -5.309698,1.895657 -9.623494,-0.01212 -1.159134,-0.512625 -1.591669,-0.58456 -2.293765,-0.381476 -4.577037,1.323927 -16.74151,2.730132 -29.572549,3.418564 -5.198599,0.278927 -29.011769,0.534244 -34.660419,0.371623 z m 15.34709,-35.44578 c 2.02138,-0.459753 4.45311,-1.870475 5.62508,-3.263289 2.11535,-2.513949 -0.71902,-5.045622 -3.17818,-2.838765 -1.7634,1.582489 -3.12926,2.123837 -5.35857,2.123837 -2.22931,0 -3.59517,-0.541348 -5.35857,-2.123837 -1.73662,-1.558443 -3.90185,-0.89916 -3.90185,1.188059 0,0.76291 0.22692,1.147278 1.27196,2.154568 2.81647,2.714715 6.73511,3.706741 10.90013,2.759427 z m -30.77612,-3.0705 c 0.58253,-0.547259 0.61237,-0.752589 0.61237,-4.21413 0,-3.615962 -0.004,-3.642291 -0.69714,-4.187214 -0.96605,-0.759896 -1.84986,-0.687911 -2.7628,0.225029 -0.76611,0.766114 -0.7734,0.802364 -0.7734,3.849597 0,3.093421 0.30921,4.399137 1.11892,4.724921 0.80241,0.322847 1.92465,0.144243 2.50205,-0.398203 z m 58.147387,0.410932 c 0.897302,-0.344329 1.202478,-1.546688 1.202478,-4.73765 0,-3.047233 -0.0073,-3.083483 -0.773398,-3.849597 -0.912937,-0.91294 -1.796743,-0.984925 -2.762795,-0.225029 -0.692134,0.544434 -0.69714,0.574231 -0.69714,4.150135 0,3.333869 0.04279,3.647311 0.575286,4.21413 0.564221,0.600586 1.57662,0.785294 2.455569,0.448011 z M -186.05666,6.980327 c 0,-0.363802 0.06,-0.5126302 0.13345,-0.3307291 0.0734,0.181901 0.0734,0.4795572 0,0.6614583 -0.0734,0.181901 -0.13345,0.033073 -0.13345,-0.3307292 z m 5.53112,-10.2067963 c 0.50016,-0.5932699 0.96297,-1.0357855 1.02845,-0.9833689 0.0655,0.052417 -0.34374,0.5378212 -0.90939,1.0786718 l -1.02845,0.9833689 z m 0.5641,-3.4192447 c 0.005,-0.4365624 0.0647,-0.5831257 0.13177,-0.3256941 0.0671,0.2574316 0.0627,0.6146191 -0.01,0.79375 -0.0725,0.1791308 -0.12737,-0.031493 -0.12197,-0.4680559 z m -0.26459,-3.1749998 c 0.005,-0.4365622 0.0647,-0.5831262 0.13178,-0.3256942 0.0671,0.2574317 0.0627,0.6146192 -0.01,0.79375 -0.0725,0.1791309 -0.12736,-0.031493 -0.12197,-0.4680558 z m -0.25478,-4.1010412 c 0,-0.509323 0.0545,-0.717683 0.121,-0.463021 0.0666,0.254661 0.0666,0.67138 0,0.926042 -0.0665,0.254661 -0.121,0.0463 -0.121,-0.463021 z m -0.24398,-5.688542 c 0.001,-0.873125 0.0509,-1.198414 0.10977,-0.722865 0.0589,0.475549 0.0577,1.189924 -0.003,1.5875 -0.0604,0.397576 -0.10855,0.0085 -0.10707,-0.864635 z m 0,-13.229166 c 0.001,-0.873125 0.0509,-1.198414 0.10977,-0.722865 0.0589,0.475549 0.0577,1.189924 -0.003,1.5875 -0.0604,0.397576 -0.10855,0.0085 -0.10707,-0.864635 z m 0.24398,-5.159374 c 0,-0.509323 0.0545,-0.717683 0.121,-0.463021 0.0666,0.254661 0.0666,0.67138 0,0.926041 -0.0665,0.254662 -0.121,0.0463 -0.121,-0.46302 z m 0.24498,-3.439584 c 0,-0.363802 0.06,-0.51263 0.13345,-0.330729 0.0734,0.181901 0.0734,0.479558 0,0.661459 -0.0734,0.181901 -0.13345,0.03307 -0.13345,-0.33073 z m 0.26458,-2.645833 c 0,-0.363802 0.0601,-0.51263 0.13345,-0.330729 0.0734,0.181901 0.0734,0.479557 0,0.661458 -0.0734,0.181901 -0.13345,0.03307 -0.13345,-0.330729 z m 0.2437,-2.271006 c 0.0127,-0.308226 0.0754,-0.370919 0.15985,-0.159853 0.0764,0.190995 0.067,0.4192 -0.0209,0.507119 -0.0879,0.08792 -0.15045,-0.06835 -0.13896,-0.347266 z m 0.26458,-1.852083 c 0.0127,-0.308226 0.0754,-0.370919 0.15985,-0.159853 0.0764,0.190994 0.067,0.4192 -0.0209,0.507119 -0.0879,0.08792 -0.15045,-0.06835 -0.13896,-0.347266 z m 1.67377,-14.199306 -0.50403,-0.595312 0.59531,0.504028 c 0.32742,0.277215 0.59531,0.545106 0.59531,0.595313 0,0.211733 -0.21293,0.05542 -0.68659,-0.504029 z m 116.69153,-13.692187 c 0,-4.438385 0.03621,-6.254088 0.08046,-4.034895 0.04425,2.219192 0.04425,5.850598 0,8.069791 -0.04425,2.219193 -0.08046,0.40349 -0.08046,-4.034896 z m -116.5341,-13.858228 c 0,-0.05494 0.20836,-0.2633 0.46302,-0.463021 0.41964,-0.329107 0.429,-0.319749 0.0999,0.0999 -0.34564,0.44073 -0.56291,0.580887 -0.56291,0.363125 z m 44.38385,-2.744354 c 11.67804,-0.03812 30.78757,-0.03812 42.465621,0 11.678046,0.03813 2.123281,0.06932 -21.232811,0.06932 -23.35609,0 -32.91086,-0.03119 -21.23281,-0.06932 z"
         id="path257" />
      <path
         style="fill:#e5b05a;stroke-width:0.264583"
         d="m -183.05573,11.774384 c -4.33648,-1.9913206 -3.56737,-8.138488 1.73789,-13.8901405 l 1.7379,-1.8841243 -0.32574,-3.5718748 c -1.53557,-16.8379584 -0.84109,-35.2614184 1.78027,-47.2281224 0.67628,-3.08727 1.58637,-6.217708 1.80764,-6.217708 0.0958,0 0.65964,0.234587 1.25308,0.521306 1.86944,0.903213 3.22231,1.053086 9.56591,1.059725 5.18441,0.0054 6.15699,0.06609 6.03783,0.376626 -0.38006,0.990409 -1.83042,7.3025 -2.40753,10.477759 -2.20604,12.137641 -3.12529,27.404664 -2.57726,42.803485 0.29859,8.3897863 0.65214,14.4837275 0.97615,16.825414 l 0.14164,1.023694 -1.45543,-0.181845 c -0.80049,-0.100015 -3.09612,-0.515295 -5.1014,-0.922843 l -3.64595,-0.740997 -1.5214,0.630126 c -3.51616,1.456309 -6.17054,1.761268 -8.0036,0.91952 z m 61.05763,-32.758659 c 0.25744,-0.06708 0.61462,-0.06267 0.79375,0.0098 0.17914,0.07248 -0.0315,0.127362 -0.46805,0.12197 -0.43656,-0.0054 -0.58313,-0.06469 -0.3257,-0.131773 z m 1.85209,0 c 0.25743,-0.06708 0.61462,-0.06267 0.79375,0.0098 0.17913,0.07248 -0.0315,0.127362 -0.46806,0.12197 -0.43656,-0.0054 -0.58312,-0.06469 -0.32569,-0.131773 z m -8.30702,-2.660917 c -0.3291,-0.419645 -0.31975,-0.429004 0.0999,-0.0999 0.25466,0.19972 0.46302,0.40808 0.46302,0.46302 0,0.217763 -0.21727,0.0776 -0.56292,-0.363124 z m 15.64417,-0.463021 c 0.49365,-0.509323 0.95708,-0.926042 1.02985,-0.926042 0.0728,0 -0.27161,0.416719 -0.76527,0.926042 -0.49365,0.509323 -0.95708,0.926042 -1.02984,0.926042 -0.0728,0 0.27161,-0.416719 0.76526,-0.926042 z m -16.7025,-0.595313 c -0.32911,-0.419645 -0.31975,-0.429003 0.0999,-0.0999 0.44073,0.345644 0.58088,0.562917 0.36312,0.562917 -0.0549,0 -0.2633,-0.208359 -0.46302,-0.463021 z m 7.12789,-0.511468 c 0.191,-0.07643 0.4192,-0.06703 0.50712,0.02088 0.0879,0.08792 -0.0683,0.150453 -0.34727,0.138965 -0.30822,-0.0127 -0.37092,-0.07539 -0.15985,-0.159851 z m 2.91042,0 c 0.19099,-0.07643 0.4192,-0.06703 0.50712,0.02088 0.0879,0.08792 -0.0684,0.150453 -0.34727,0.138965 -0.30823,-0.0127 -0.37092,-0.07539 -0.15985,-0.159851 z m -32.65677,-3.258844 c 0,-1.81901 0.0423,-2.563151 0.0939,-1.653646 0.0517,0.909506 0.0517,2.397787 0,3.307292 -0.0517,0.909505 -0.0939,0.165364 -0.0939,-1.653646 z m 62.706252,0 c 0,-1.81901 0.04227,-2.563151 0.09394,-1.653646 0.05166,0.909506 0.05166,2.397787 0,3.307292 -0.05166,0.909505 -0.09394,0.165364 -0.09394,-1.653646 z m -36.899072,1.124479 -0.64143,-0.727604 0.72761,0.641432 c 0.68005,0.599517 0.84894,0.813776 0.64143,0.813776 -0.0474,0 -0.37482,-0.327422 -0.72761,-0.727604 z m 10.86795,0.06615 c 0.34177,-0.363802 0.68094,-0.661458 0.7537,-0.661458 0.0728,0 -0.14734,0.297656 -0.48912,0.661458 -0.34178,0.363802 -0.68094,0.661458 -0.7537,0.661458 -0.0728,0 0.14734,-0.297656 0.48912,-0.661458 z m -33.23035,-5.225521 -0.50403,-0.595312 0.59532,0.504029 c 0.55944,0.473662 0.71576,0.686596 0.50402,0.686596 -0.0502,0 -0.31809,-0.267891 -0.59531,-0.595313 z m 55.587637,0.06615 c 0.26339,-0.291041 0.538422,-0.529166 0.611182,-0.529166 0.07276,0 -0.08321,0.238125 -0.346599,0.529166 -0.26339,0.291042 -0.538421,0.529167 -0.611182,0.529167 -0.07276,0 0.08321,-0.238125 0.346599,-0.529167 z m -57.211107,-0.71252 c 0.25743,-0.06708 0.61462,-0.06267 0.79375,0.0098 0.17913,0.07248 -0.0315,0.127363 -0.46806,0.12197 -0.43656,-0.0054 -0.58312,-0.06469 -0.32569,-0.131773 z m 58.472913,0 c 0.257431,-0.06708 0.614619,-0.06267 0.79375,0.0098 0.179131,0.07248 -0.03149,0.127363 -0.468056,0.12197 -0.436563,-0.0054 -0.583126,-0.06469 -0.325694,-0.131773 z m -41.920633,-26.4734 c 11.83504,-0.03811 31.12316,-0.0381 42.862499,1.1e-5 11.739334,0.03811 2.056119,0.06929 -21.518259,0.06928 -23.57437,-5e-6 -33.17928,-0.03119 -21.34424,-0.06929 z m -21.57936,-33.057847 c 0.25743,-0.06708 0.61462,-0.06267 0.79375,0.0098 0.17913,0.07248 -0.0315,0.127362 -0.46806,0.12197 -0.43656,-0.0054 -0.58313,-0.06469 -0.32569,-0.131773 z"
         id="path255" />
      <path
         style="fill:#f98b49;stroke-width:0.264583"
         d="m -171.87709,-59.605315 c 0.1819,-0.0734 0.47956,-0.0734 0.66146,0 0.1819,0.0734 0.0331,0.133454 -0.33073,0.133454 -0.3638,0 -0.51263,-0.06006 -0.33073,-0.133454 z m 13.82448,-0.112373 c 0.80037,-0.08542 1.27662,-0.175882 1.05834,-0.201023 -0.95766,-0.110302 -3.13739,-1.378296 -4.20832,-2.448068 -0.64109,-0.640392 -1.53406,-1.938255 -1.98438,-2.88414 l -0.81876,-1.719792 -0.0798,-8.550399 c -0.0675,-7.236462 -0.0143,-8.781481 0.34673,-10.054166 0.88381,-3.115836 3.44617,-5.758198 6.47824,-6.680515 0.36474,-0.11095 -2.77972,-0.21196 -6.9877,-0.224469 -4.20797,-0.01251 -7.60126,-0.06151 -7.54062,-0.1089 0.0606,-0.04739 23.38696,-0.01762 51.83628,0.06615 l 51.726039,0.152304 1.486961,0.697222 c 2.013066,0.943907 3.416853,2.274581 4.49286,4.258863 l 0.899345,1.658498 v 9.657291 9.657292 l -0.906761,1.672412 c -1.010333,1.863439 -2.616255,3.419197 -4.474242,4.334481 -1.203086,0.592669 -1.452673,0.609304 -10.097121,0.672981 -20.741951,0.152791 -82.560211,0.186264 -81.227081,0.04398 z m -22.4478,-8.972815 c 0,-0.363802 0.06,-0.51263 0.13345,-0.330729 0.0734,0.181901 0.0734,0.479558 0,0.661459 -0.0734,0.181901 -0.13345,0.03307 -0.13345,-0.33073 z m 0,-14.816666 c 0,-0.363802 0.06,-0.51263 0.13345,-0.330729 0.0734,0.181901 0.0734,0.479558 0,0.661459 -0.0734,0.181901 -0.13345,0.03307 -0.13345,-0.33073 z"
         id="path253" />
      <path
         style="fill:#e66c23;stroke-width:0.264583"
         d="m -172.22243,-59.692503 c -2.03215,-0.298394 -3.6846,-1.152593 -5.22538,-2.701155 -2.80471,-2.81886 -3.20778,-4.847534 -3.02827,-15.241375 0.13618,-7.885239 0.28857,-8.750807 1.93304,-10.980237 1.10244,-1.494589 2.82279,-2.781972 4.56178,-3.413707 1.07447,-0.390329 2.34557,-0.450416 9.31407,-0.440279 4.43838,0.0065 7.77136,0.102515 7.40662,0.213465 -3.03207,0.922317 -5.59443,3.564679 -6.47824,6.680515 -0.36099,1.272685 -0.41427,2.817704 -0.34673,10.054166 l 0.0798,8.550399 0.72356,1.544508 c 1.20635,2.57503 2.75178,4.105851 5.11448,5.066125 l 1.44475,0.58719 -2.02767,0.171402 c -2.63927,0.223099 -11.75188,0.161536 -13.47182,-0.09102 z"
         id="path251" />
      <path
         style="fill:#3b4849;stroke-width:0.264583"
         d="m -122.33386,-21.086849 c -3.62452,-0.438819 -7.67292,-3.177825 -7.67292,-5.191238 0,-0.797746 0.80331,-1.641327 1.7338,-1.820725 0.66805,-0.128797 1.01127,0.01516 1.98438,0.832239 1.84201,1.546685 3.53534,2.227148 5.54224,2.227148 2.0069,0 3.70023,-0.680463 5.54224,-2.227148 0.97311,-0.817089 1.31633,-0.961036 1.98438,-0.832239 0.96705,0.186446 1.7338,1.03074 1.7338,1.909156 0,0.793533 -1.82299,2.819046 -3.29208,3.657801 -2.20591,1.259438 -4.874,1.769695 -7.55584,1.445006 z m -28.93619,-3.172859 c -0.69129,-0.543769 -0.69714,-0.578173 -0.69714,-4.101042 0,-3.199894 0.0525,-3.605217 0.52916,-4.081838 0.73698,-0.736973 2.13185,-0.696454 2.8643,0.0832 0.52847,0.56253 0.57529,0.886497 0.57529,3.980777 0,3.223559 -0.0279,3.396337 -0.64943,4.017841 -0.79367,0.79367 -1.69739,0.8285 -2.62218,0.101062 z m 58.425205,-0.101063 c -0.622247,-0.622245 -0.649433,-0.791993 -0.649433,-4.054919 0,-3.217619 0.03378,-3.437226 0.612365,-3.980778 0.779364,-0.732174 2.119304,-0.754034 2.827218,-0.04612 0.476621,0.476621 0.529167,0.881944 0.529167,4.081838 0,3.522869 -0.0058,3.557273 -0.69714,4.101042 -0.924788,0.727437 -1.828509,0.692607 -2.622177,-0.101063 z"
         id="path249" />
    </g>
    <g
       id="g675"
       transform="matrix(0.74740451,0,0,0.74740451,335.41893,-121.96725)">
      <path
         style="fill:#e9e9e9;stroke-width:0.352778"
         d="m -369.50006,107.58596 c 0,-0.0607 0.51594,-0.57665 1.14653,-1.14653 l 1.14653,-1.03614 -1.03614,1.14653 c -0.96583,1.06872 -1.25692,1.30868 -1.25692,1.03614 z m -94.46138,-11.18914 c -0.43938,-0.177761 -0.9313,-0.684649 -1.09314,-1.126422 -0.38175,-1.042028 5.68883,-63.530099 6.35098,-65.374439 0.66689,-1.857501 3.14722,-4.507515 5.15036,-5.502691 l 1.67957,-0.834421 29.24463,-0.09803 c 32.36785,-0.1085 31.46184,-0.164842 34.49651,2.145192 1.01775,0.774722 1.89847,1.914398 2.65568,3.436543 1.10615,2.223562 1.15862,2.548495 2.21903,13.742687 0.59735,6.305903 1.87724,19.561528 2.8442,29.456944 2.46474,25.223096 2.32195,22.801284 1.39362,23.636111 -0.77431,0.69632 -1.33022,0.706448 -42.46357,0.773645 -24.60141,0.04019 -42.00632,-0.06434 -42.47787,-0.255115 z m 45.8956,-30.891945 c 0.90989,-0.310031 2.39338,-1.232782 3.29664,-2.050556 1.93547,-1.752296 2.1849,-3.163909 0.81644,-4.620567 -1.1584,-1.23306 -2.67289,-1.158222 -4.33807,0.214362 -1.36834,1.127905 -3.38209,1.639182 -4.92799,1.251183 -0.4646,-0.116604 -1.44851,-0.691847 -2.18649,-1.278311 -1.65766,-1.31735 -3.07573,-1.384068 -4.25939,-0.200396 -1.87478,1.874778 -0.66414,4.295648 3.08512,6.169173 1.7595,0.879232 2.59366,1.078805 4.50913,1.078805 1.29265,0 3.09472,-0.253661 4.00461,-0.563693 z m -26.24834,-2.069091 c 1.31074,-0.677809 1.43634,-1.09257 1.43634,-4.742906 0,-2.83148 -0.0722,-3.152437 -0.87907,-3.9105 -0.52064,-0.489119 -1.31294,-0.825845 -1.94315,-0.825845 -0.63021,0 -1.42251,0.336726 -1.94315,0.825845 -0.81248,0.763288 -0.87907,1.069951 -0.87907,4.048312 0,3.312245 0.22016,3.96597 1.5875,4.713849 0.95152,0.520442 1.44334,0.50003 2.6206,-0.108755 z m 48.24792,-0.335283 c 0.95615,-0.822445 0.98981,-0.966075 0.98981,-4.223533 0,-3.016691 -0.0828,-3.454975 -0.78591,-4.158044 -0.51706,-0.517056 -1.21366,-0.785911 -2.03631,-0.785911 -0.82265,0 -1.51926,0.268855 -2.03631,0.785911 -0.70307,0.703069 -0.78591,1.141353 -0.78591,4.158044 0,3.257458 0.0337,3.401088 0.98981,4.223533 0.54439,0.46827 1.36898,0.851401 1.83241,0.851401 0.46343,0 1.28802,-0.383131 1.83241,-0.851401 z m 32.67274,31.0139 c 0.002,-1.164166 0.0678,-1.597886 0.14635,-0.96382 0.0785,0.634065 0.0769,1.586565 -0.004,2.116666 -0.0805,0.530102 -0.14473,0.01132 -0.14275,-1.152846 z m -0.4064,-4.7625 c 0,-0.485069 0.0801,-0.683507 0.17794,-0.440972 0.0979,0.242535 0.0979,0.63941 0,0.881944 -0.0979,0.242535 -0.17794,0.0441 -0.17794,-0.440972 z m -0.35277,-3.527777 c 0,-0.48507 0.0801,-0.683507 0.17793,-0.440973 0.0979,0.242535 0.0979,0.63941 0,0.881945 -0.0979,0.242534 -0.17793,0.0441 -0.17793,-0.440972 z m -0.33971,-3.704167 c 0.007,-0.582083 0.0863,-0.777501 0.1757,-0.434259 0.0894,0.343242 0.0836,0.819492 -0.0131,1.058333 -0.0966,0.238842 -0.16981,-0.04199 -0.16262,-0.624074 z m -0.36585,-3.704167 c 0,-0.485069 0.0801,-0.683507 0.17794,-0.440972 0.0979,0.242535 0.0979,0.63941 0,0.881945 -0.0979,0.242534 -0.17794,0.0441 -0.17794,-0.440973 z m -0.35278,-3.527777 c 0,-0.48507 0.0801,-0.683507 0.17794,-0.440973 0.0979,0.242535 0.0979,0.63941 0,0.881945 -0.0979,0.242534 -0.17794,0.0441 -0.17794,-0.440972 z m -0.35277,-3.527778 c 0,-0.48507 0.0801,-0.683507 0.17793,-0.440972 0.0979,0.242534 0.0979,0.639409 0,0.881944 -0.0979,0.242535 -0.17793,0.0441 -0.17793,-0.440972 z m -0.33971,-3.704167 c 0.007,-0.582083 0.0863,-0.777501 0.1757,-0.434259 0.0894,0.343243 0.0836,0.819493 -0.0131,1.058334 -0.0966,0.238841 -0.16982,-0.04199 -0.16263,-0.624075 z m -0.36585,-3.704166 c 0,-0.48507 0.0801,-0.683507 0.17794,-0.440973 0.0979,0.242535 0.0979,0.63941 0,0.881945 -0.0979,0.242535 -0.17794,0.0441 -0.17794,-0.440972 z m -0.35278,-3.527778 c 0,-0.48507 0.0801,-0.683507 0.17794,-0.440972 0.0979,0.242534 0.0979,0.639409 0,0.881944 -0.0979,0.242535 -0.17794,0.0441 -0.17794,-0.440972 z m -0.3397,-3.704167 c 0.007,-0.582083 0.0863,-0.777501 0.1757,-0.434259 0.0894,0.343243 0.0836,0.819493 -0.0131,1.058334 -0.0966,0.238841 -0.16982,-0.04199 -0.16263,-0.624075 z m -0.36585,-3.704166 c 0,-0.48507 0.0801,-0.683507 0.17793,-0.440973 0.0979,0.242535 0.0979,0.63941 0,0.881945 -0.0979,0.242535 -0.17793,0.0441 -0.17793,-0.440972 z m -0.35278,-3.527778 c 0,-0.48507 0.0801,-0.683507 0.17794,-0.440972 0.0979,0.242534 0.0979,0.639409 0,0.881944 -0.0979,0.242535 -0.17794,0.0441 -0.17794,-0.440972 z m -0.35278,-3.527778 c 0,-0.485069 0.0801,-0.683507 0.17794,-0.440972 0.0979,0.242535 0.0979,0.63941 0,0.881944 -0.0979,0.242535 -0.17794,0.0441 -0.17794,-0.440972 z m -0.3397,-3.704166 c 0.007,-0.582084 0.0863,-0.777502 0.1757,-0.434259 0.0894,0.343242 0.0836,0.819492 -0.0131,1.058333 -0.0966,0.238841 -0.16982,-0.04199 -0.16263,-0.624074 z m -0.36585,-3.704167 c 0,-0.48507 0.0801,-0.683507 0.17793,-0.440972 0.0979,0.242534 0.0979,0.639409 0,0.881944 -0.0979,0.242535 -0.17793,0.0441 -0.17793,-0.440972 z m -0.35278,-3.527778 c 0,-0.485069 0.0801,-0.683507 0.17794,-0.440972 0.0979,0.242535 0.0979,0.63941 0,0.881944 -0.0979,0.242535 -0.17794,0.0441 -0.17794,-0.440972 z m -0.33971,-3.704166 c 0.007,-0.582084 0.0863,-0.777502 0.1757,-0.434259 0.0894,0.343242 0.0836,0.819492 -0.0131,1.058333 -0.0966,0.238841 -0.16981,-0.04199 -0.16262,-0.624074 z m -0.36585,-3.704167 c 0,-0.48507 0.0801,-0.683507 0.17794,-0.440972 0.0979,0.242534 0.0979,0.639409 0,0.881944 -0.0979,0.242535 -0.17794,0.0441 -0.17794,-0.440972 z m -0.35277,-3.527778 c 0,-0.485069 0.0801,-0.683507 0.17793,-0.440972 0.0979,0.242535 0.0979,0.63941 0,0.881944 -0.0979,0.242535 -0.17793,0.0441 -0.17793,-0.440972 z m -0.38063,-3.380786 c 0.0169,-0.410968 0.10052,-0.494559 0.21313,-0.213137 0.10191,0.254659 0.0894,0.55893 -0.0278,0.676158 -0.11723,0.117225 -0.2006,-0.09114 -0.18529,-0.463021 z m -16.26271,-37.726351 c -0.24543,-0.29573 -0.37792,-0.606009 -0.29442,-0.689511 0.0835,-0.0835 0.34559,0.15846 0.58243,0.537693 0.51216,0.82011 0.34136,0.910153 -0.28801,0.151818 z m -70.43088,-17.614844 c 0,-0.282507 0.13488,-0.430287 0.29973,-0.328401 0.16486,0.101885 0.20841,0.333027 0.0968,0.513648 -0.28526,0.461568 -0.3965,0.409595 -0.3965,-0.185247 z m 70.08518,0.222365 c 0,-0.160206 0.43656,-0.676144 0.97014,-1.146528 l 0.97014,-0.855244 -0.79698,0.908116 c -0.43834,0.499464 -0.68969,1.015401 -0.55856,1.146528 0.13113,0.131126 0.0532,0.238412 -0.17316,0.238412 -0.22637,0 -0.41158,-0.131078 -0.41158,-0.291284 z m -72.71722,-3.501077 c -0.43881,-0.559526 -0.42633,-0.572004 0.13319,-0.133194 0.58764,0.460858 0.77452,0.750555 0.48417,0.750555 -0.0732,0 -0.35107,-0.277813 -0.61736,-0.617361 z m 76.59778,-0.970139 c 0.4557,-0.48507 0.90792,-0.881945 1.00493,-0.881945 0.097,0 -0.19645,0.396875 -0.65215,0.881945 -0.45571,0.485069 -0.90792,0.881944 -1.00494,0.881944 -0.097,0 0.19646,-0.396875 0.65216,-0.881944 z m -79.77278,-2.557639 c -0.43881,-0.559526 -0.42633,-0.572003 0.13319,-0.133193 0.58764,0.460858 0.77452,0.750554 0.48417,0.750554 -0.0732,0 -0.35107,-0.277813 -0.61736,-0.617361 z m 82.595,-0.617361 c 0.4557,-0.48507 0.90792,-0.881945 1.00493,-0.881945 0.097,0 -0.19645,0.396875 -0.65215,0.881945 -0.4557,0.485069 -0.90792,0.881944 -1.00494,0.881944 -0.097,0 0.19646,-0.396875 0.65216,-0.881944 z m 4.68219,-11.1125 c 0,-0.873125 0.0688,-1.230313 0.15289,-0.79375 0.0841,0.436562 0.0841,1.150937 0,1.5875 -0.0841,0.436562 -0.15289,0.07938 -0.15289,-0.79375 z m -4.87518,-11.377083 -1.39451,-1.499306 1.49931,1.394512 c 1.39434,1.296883 1.66141,1.604099 1.39451,1.604099 -0.0576,0 -0.73233,-0.674687 -1.49931,-1.499305 z m -82.70979,-0.08819 c 0.4557,-0.485069 0.90792,-0.881944 1.00494,-0.881944 0.097,0 -0.19646,0.396875 -0.65216,0.881944 -0.4557,0.48507 -0.90792,0.881945 -1.00493,0.881945 -0.097,0 0.19645,-0.396875 0.65215,-0.881945 z m 74.01719,-4.297932 c 0.25466,-0.101907 0.55893,-0.08937 0.67616,0.02785 0.11722,0.117225 -0.0911,0.200604 -0.46302,0.185286 -0.41097,-0.01693 -0.49456,-0.100521 -0.21314,-0.213136 z"
         id="path689" />
      <path
         style="fill:#c6c4ca;stroke-width:0.352778"
         d="m -429.49898,62.981763 -0.85525,-0.970139 0.97014,0.855243 c 0.90674,0.799355 1.13192,1.085035 0.85525,1.085035 -0.0632,0 -0.49976,-0.436563 -0.97014,-0.970139 z m 28.72263,-4.145139 c 10e-4,-1.552222 0.0633,-2.14334 0.13783,-1.313593 0.0745,0.829748 0.0735,2.099748 -0.002,2.822222 -0.0758,0.722475 -0.13677,0.04359 -0.13549,-1.508629 z m 5.64445,0 c 10e-4,-1.552222 0.0633,-2.14334 0.13783,-1.313593 0.0745,0.829748 0.0735,2.099748 -0.002,2.822222 -0.0758,0.722475 -0.13678,0.04359 -0.1355,-1.508629 z m -23.75705,0.74875 c 0,-0.07326 0.27781,-0.351067 0.61736,-0.617362 0.55953,-0.438809 0.57201,-0.426332 0.1332,0.133195 -0.46086,0.58764 -0.75056,0.774517 -0.75056,0.484167 z m 20.74774,-5.752236 c 0.25466,-0.101907 0.55894,-0.08938 0.67616,0.02783 0.11723,0.117225 -0.0911,0.200604 -0.46302,0.185286 -0.41097,-0.01693 -0.49456,-0.10052 -0.21314,-0.213134 z m 16.29393,-74.018735 c 0.4557,-0.48507 0.90792,-0.881945 1.00493,-0.881945 0.097,0 -0.19645,0.396875 -0.65215,0.881945 -0.4557,0.485069 -0.90792,0.881944 -1.00494,0.881944 -0.097,0 0.19646,-0.396875 0.65216,-0.881944 z m -80.47833,-0.08819 c -0.43881,-0.559527 -0.42634,-0.572004 0.13319,-0.133195 0.58764,0.460859 0.77452,0.750556 0.48417,0.750556 -0.0733,0 -0.35107,-0.277812 -0.61736,-0.617361 z m 83.04386,-5.732639 c 0,-0.873125 0.0688,-1.230312 0.15288,-0.79375 0.0841,0.436563 0.0841,1.150938 0,1.5875 -0.0841,0.436563 -0.15288,0.07937 -0.15288,-0.79375 z m -82.99886,-5.820833 c 0.4557,-0.485069 0.90792,-0.881944 1.00493,-0.881944 0.097,0 -0.19646,0.396875 -0.65216,0.881944 -0.4557,0.48507 -0.90792,0.881945 -1.00493,0.881945 -0.097,0 0.19646,-0.396875 0.65216,-0.881945 z m 12.48988,-7.320139 c -4.92339,-5.512912 -6.27433,-7.792689 -6.94789,-11.724904 -1.30458,-7.616084 3.73845,-15.419317 11.32459,-17.522891 2.18154,-0.604925 4.17711,-0.650121 28.70495,-0.650121 17.82957,0 26.9654,0.125779 28.22985,0.388659 4.31968,0.898063 8.93187,4.284774 10.78223,7.91735 1.93845,3.805506 2.36213,8.313398 1.14721,12.206136 -0.9036,2.895232 -1.82636,4.238475 -6.72441,9.788558 l -4.04114,4.5791 -28.99294,0.0226 -28.99294,0.0226 z m -8.81923,2.469445 -0.67204,-0.79375 0.79375,0.672037 c 0.74592,0.631549 0.95435,0.915463 0.67204,0.915463 -0.0669,0 -0.42414,-0.357188 -0.79375,-0.79375 z m -3.175,-3.527778 -0.67204,-0.79375 0.79375,0.672037 c 0.74592,0.63155 0.95435,0.915463 0.67204,0.915463 -0.0669,0 -0.42414,-0.357188 -0.79375,-0.79375 z m -6.11225,-11.053703 c 0.0169,-0.410966 0.10052,-0.49456 0.21314,-0.213137 0.1019,0.254661 0.0894,0.558932 -0.0278,0.676157 -0.11722,0.117225 -0.2006,-0.09113 -0.18528,-0.46302 z m 0,-3.880556 c 0.0169,-0.410966 0.10052,-0.494559 0.21314,-0.213137 0.1019,0.254662 0.0894,0.558933 -0.0278,0.676158 -0.11722,0.117225 -0.2006,-0.09114 -0.18528,-0.463021 z m 13.31156,-13.793534 c 0.25466,-0.101907 0.55893,-0.08937 0.67616,0.02785 0.11722,0.117225 -0.0911,0.200604 -0.46302,0.185286 -0.41097,-0.01693 -0.49456,-0.100521 -0.21314,-0.213136 z"
         id="path687" />
      <path
         style="fill:#8fd2ef;stroke-width:0.352778"
         d="m -465.52176,111.33591 c 0.25466,-0.1019 0.55893,-0.0894 0.67616,0.0278 0.11722,0.11722 -0.0911,0.2006 -0.46302,0.18529 -0.41097,-0.0169 -0.49456,-0.10053 -0.21314,-0.21314 z m 9.36109,-0.25989 c -4.74858,-1.15183 -9.31556,-4.80864 -11.36282,-9.09828 -2.31095,-4.842146 -2.38368,-2.902592 1.68058,-44.812397 1.99945,-20.617879 3.85636,-38.755627 4.12646,-40.306106 1.97061,-11.3119748 6.67831,-22.0801565 13.6514,-31.225627 l 2.55407,-3.349763 29.09782,-0.08358 29.09782,-0.08358 2.69807,3.611354 c 6.7108,8.9824032 11.08274,18.6090313 13.17551,29.011354 1.25327,6.229516 8.06046,76.440816 7.84286,80.893514 -0.14524,2.972128 -0.29804,3.560159 -1.61645,6.220821 -2.37589,4.79472 -6.81971,8.25824 -11.97499,9.33331 -2.82496,0.58911 -76.51103,0.48551 -78.97033,-0.11103 z m 77.00694,-15.14929 0.969,-0.833501 -3.09318,-31.815369 c -1.85517,-19.081634 -3.30176,-32.427513 -3.61431,-33.344813 -0.74166,-2.176646 -2.64724,-4.232201 -4.98984,-5.38256 l -2.01939,-0.99164 -29.25114,-0.09614 c -33.12861,-0.108885 -31.60315,-0.221901 -34.71014,2.571541 -3.27204,2.941849 -2.9138,0.892415 -6.3933,36.575047 -1.99847,20.494579 -2.99913,32.144381 -2.80541,32.661102 0.16561,0.441773 0.66062,0.947645 1.1,1.124168 0.46285,0.185949 18.26306,0.330352 42.31879,0.343306 l 41.51991,0.02236 z m -95.16633,11.50503 c -0.43881,-0.55952 -0.42633,-0.572 0.1332,-0.13319 0.58764,0.46086 0.77451,0.75055 0.48416,0.75055 -0.0733,0 -0.35106,-0.27781 -0.61736,-0.61736 z m -2.11667,-2.11666 c -0.4388,-0.55953 -0.42633,-0.57201 0.1332,-0.1332 0.33955,0.2663 0.61736,0.54411 0.61736,0.61736 0,0.29035 -0.2897,0.10348 -0.75056,-0.48416 z m -3.8077,-8.760651 c 0.0169,-0.410969 0.10052,-0.49456 0.21314,-0.213138 0.1019,0.25466 0.0894,0.558934 -0.0279,0.676158 -0.11723,0.117225 -0.20061,-0.09114 -0.18529,-0.46302 z m 0.0409,-4.909492 c 0.007,-0.582084 0.0863,-0.777501 0.1757,-0.434259 0.0894,0.343242 0.0836,0.819492 -0.0131,1.058333 -0.0966,0.238841 -0.16982,-0.04199 -0.16263,-0.624074 z m 0.33971,-3.704167 c 0,-0.485069 0.0801,-0.683507 0.17794,-0.440972 0.0979,0.242535 0.0979,0.63941 0,0.881944 -0.0979,0.242535 -0.17794,0.0441 -0.17794,-0.440972 z m 0.35278,-3.527778 c 0,-0.485069 0.0801,-0.683506 0.17793,-0.440972 0.0979,0.242535 0.0979,0.63941 0,0.881945 -0.0979,0.242534 -0.17793,0.0441 -0.17793,-0.440973 z m 0.36585,-3.704166 c 0.007,-0.582084 0.0863,-0.777501 0.17569,-0.434259 0.0894,0.343242 0.0836,0.819492 -0.0131,1.058333 -0.0966,0.238841 -0.16981,-0.04199 -0.16262,-0.624074 z m 0.3397,-3.704167 c 0,-0.485069 0.0801,-0.683507 0.17794,-0.440972 0.0979,0.242535 0.0979,0.63941 0,0.881944 -0.0979,0.242535 -0.17794,0.0441 -0.17794,-0.440972 z m 0.35278,-3.527778 c 0,-0.485069 0.0801,-0.683506 0.17794,-0.440972 0.0979,0.242535 0.0979,0.63941 0,0.881945 -0.0979,0.242534 -0.17794,0.0441 -0.17794,-0.440973 z m 0.36585,-3.704166 c 0.007,-0.582083 0.0863,-0.777501 0.1757,-0.434259 0.0894,0.343242 0.0836,0.819492 -0.0131,1.058333 -0.0966,0.238841 -0.16982,-0.04199 -0.16263,-0.624074 z m 0.35278,-3.527778 c 0.007,-0.582083 0.0863,-0.777501 0.1757,-0.434259 0.0894,0.343242 0.0836,0.819492 -0.0131,1.058334 -0.0966,0.238841 -0.16982,-0.04199 -0.16263,-0.624075 z m 0.3397,-3.704167 c 0,-0.485069 0.0801,-0.683506 0.17794,-0.440972 0.0979,0.242535 0.0979,0.63941 0,0.881945 -0.0979,0.242534 -0.17794,0.0441 -0.17794,-0.440973 z m 0.35278,-3.527777 c 0,-0.48507 0.0801,-0.683507 0.17794,-0.440972 0.0979,0.242534 0.0979,0.639409 0,0.881944 -0.0979,0.242535 -0.17794,0.0441 -0.17794,-0.440972 z m 0.36585,-3.704167 c 0.007,-0.582083 0.0863,-0.777501 0.1757,-0.434259 0.0894,0.343242 0.0836,0.819492 -0.0131,1.058334 -0.0966,0.238841 -0.16982,-0.04199 -0.16263,-0.624075 z m 0.33971,-3.704166 c 0,-0.48507 0.0801,-0.683507 0.17793,-0.440973 0.0979,0.242535 0.0979,0.63941 0,0.881945 -0.0979,0.242534 -0.17793,0.0441 -0.17793,-0.440972 z m 0.35277,-3.527778 c 0,-0.48507 0.0801,-0.683507 0.17794,-0.440972 0.0979,0.242534 0.0979,0.639409 0,0.881944 -0.0979,0.242535 -0.17794,0.0441 -0.17794,-0.440972 z m 0.36585,-3.704167 c 0.007,-0.582083 0.0863,-0.777501 0.1757,-0.434259 0.0894,0.343242 0.0836,0.819492 -0.013,1.058334 -0.0966,0.238841 -0.16982,-0.04199 -0.16263,-0.624075 z m 0.35278,-3.527778 c 0.007,-0.582083 0.0863,-0.777501 0.1757,-0.434258 0.0894,0.343242 0.0836,0.819492 -0.0131,1.058333 -0.0966,0.238841 -0.16982,-0.04199 -0.16263,-0.624075 z m 0.33971,-3.704166 c 0,-0.48507 0.0801,-0.683507 0.17793,-0.440972 0.0979,0.242534 0.0979,0.639409 0,0.881944 -0.0979,0.242535 -0.17793,0.0441 -0.17793,-0.440972 z m 0.35277,-3.527778 c 0,-0.485069 0.0801,-0.683507 0.17794,-0.440972 0.0979,0.242535 0.0979,0.63941 0,0.881944 -0.0979,0.242535 -0.17794,0.0441 -0.17794,-0.440972 z m 0.36586,-3.704167 c 0.007,-0.582083 0.0863,-0.777501 0.17569,-0.434258 0.0894,0.343242 0.0836,0.819492 -0.013,1.058333 -0.0966,0.238841 -0.16982,-0.04199 -0.16263,-0.624075 z m 0.3397,-3.704166 c 0,-0.48507 0.0801,-0.683507 0.17794,-0.440972 0.0979,0.242534 0.0979,0.639409 0,0.881944 -0.0979,0.242535 -0.17794,0.0441 -0.17794,-0.440972 z m 0.35278,-3.527778 c 0,-0.485069 0.0801,-0.683507 0.17793,-0.440972 0.0979,0.242535 0.0979,0.63941 0,0.881944 -0.0979,0.242535 -0.17793,0.0441 -0.17793,-0.440972 z m 0.32493,-3.028008 c 0.0169,-0.410968 0.10052,-0.494559 0.21313,-0.213138 0.10191,0.25466 0.0894,0.558931 -0.0278,0.676159 -0.11723,0.117224 -0.20061,-0.09114 -0.18529,-0.463021 z m 0.35277,-2.469444 c 0.0169,-0.410969 0.10053,-0.49456 0.21314,-0.213138 0.10191,0.25466 0.0894,0.55893 -0.0278,0.676158 -0.11722,0.117225 -0.2006,-0.09114 -0.18528,-0.46302 z"
         id="path685" />
      <path
         style="fill:#58c1e6;stroke-width:0.352778"
         d="m -466.77406,111.04276 c -4.88036,-1.0603 -9.33569,-4.5764 -11.55205,-9.11677 -2.36535,-4.84556 -2.43026,-3.007239 1.55263,-43.971311 1.95254,-20.081874 3.80267,-38.159947 4.1114,-40.173496 1.76651,-11.5212073 6.44647,-22.4275792 13.82929,-32.228352 l 2.59537,-3.445373 h 5.42015 5.42016 l -2.77538,3.686517 c -7.03589,9.345715 -11.57329,19.7529803 -13.54396,31.065262 -0.2701,1.550479 -2.12701,19.688227 -4.12646,40.306106 -3.39055,34.962627 -3.60626,37.656773 -3.20318,40.007345 1.16115,6.771292 6.28787,12.303012 12.88542,13.903332 1.71551,0.41613 1.53038,0.44099 -3.29772,0.44283 -2.99384,0.001 -6.02784,-0.1963 -7.31567,-0.47609 z"
         id="path683" />
      <path
         style="fill:#9f9cac;stroke-width:0.352778"
         d="m -398.14121,63.710916 c 0.25466,-0.101907 0.55894,-0.08938 0.67616,0.02783 0.11723,0.117224 -0.0911,0.200603 -0.46302,0.185286 -0.41097,-0.01693 -0.49456,-0.100521 -0.21314,-0.213135 z m -23.98888,-3.175 c 0.25466,-0.101907 0.55893,-0.08938 0.67615,0.02783 0.11723,0.117224 -0.0911,0.200603 -0.46302,0.185286 -0.41096,-0.01693 -0.49456,-0.100521 -0.21313,-0.213135 z m -26.56858,-79.098683 c -6.3381,-2.940759 -6.3381,-11.987272 0,-14.894739 l 1.41111,-0.647318 -4.43617,-0.0077 -4.43617,-0.0077 -4.38327,-4.914191 c -4.89864,-5.491979 -6.41353,-8.016794 -7.04057,-11.734284 -0.80094,-4.748544 0.93789,-10.076145 4.42788,-13.566536 3.55297,-3.553368 7.2143,-4.710275 14.80997,-4.679642 l 4.93889,0.01992 -2.16931,0.620831 c -7.45284,2.132922 -12.45219,9.971638 -11.16231,17.501915 0.67356,3.932215 2.0245,6.211992 6.94789,11.724904 l 4.48951,5.027084 h 29.52444 c 18.16294,0 29.98686,0.132622 30.72612,0.344639 3.40384,0.97621 5.67282,4.073147 5.67282,7.742851 0,2.497878 -0.72056,4.18537 -2.52804,5.920422 -2.39996,2.303798 -1.09136,2.220669 -34.82256,2.212118 -29.0171,-0.0074 -30.63032,-0.04078 -31.97023,-0.662478 z"
         id="path681" />
      <path
         style="fill:#817e96;stroke-width:0.352778"
         d="m -414.65561,63.069957 c 0.4557,-0.485069 0.90791,-0.881944 1.00493,-0.881944 0.097,0 -0.19646,0.396875 -0.65216,0.881944 -0.4557,0.48507 -0.90792,0.881945 -1.00493,0.881945 -0.097,0 0.19645,-0.396875 0.65216,-0.881945 z m -33.74574,-4.233333 c 10e-4,-1.552222 0.0633,-2.14334 0.13783,-1.313593 0.0745,0.829748 0.0735,2.099748 -0.002,2.822222 -0.0758,0.722475 -0.13677,0.04359 -0.13549,-1.508629 z m 5.29167,0 c 0.001,-1.552222 0.0633,-2.14334 0.13783,-1.313593 0.0745,0.829748 0.0735,2.099748 -0.002,2.822222 -0.0758,0.722475 -0.13678,0.04359 -0.1355,-1.508629 z m 12.60692,1.734492 c 0.0169,-0.410969 0.10052,-0.494559 0.21313,-0.213138 0.10191,0.25466 0.0894,0.558934 -0.0278,0.676159 -0.11723,0.117224 -0.20061,-0.09114 -0.18529,-0.463021 z m 4.86603,-1.469909 c -0.43881,-0.559527 -0.42633,-0.572004 0.1332,-0.133195 0.33955,0.266295 0.61736,0.544107 0.61736,0.617362 0,0.29035 -0.2897,0.103473 -0.75056,-0.484167 z m -33.99805,-77.83245 c -2.10196,-0.991235 -3.06006,-1.966676 -4.0273,-4.100188 -1.3982,-3.084106 -0.76168,-6.343046 1.72448,-8.829209 2.1306,-2.130595 3.42223,-2.461327 9.57569,-2.451932 l 5.07435,0.0077 -1.41111,0.647318 c -5.09844,2.338804 -6.39271,8.989353 -2.53976,13.050403 0.62076,0.654283 1.76365,1.484235 2.53976,1.844337 l 1.41111,0.65473 -5.29167,0.0043 c -4.83054,0.0039 -5.44537,-0.06818 -7.05555,-0.827507 z"
         id="path679" />
      <path
         style="fill:#433f4f;stroke-width:0.352778"
         d="m -424.55083,65.607491 c -3.30102,-0.930194 -5.62701,-2.996949 -5.62701,-4.999877 0,-2.51055 2.54208,-3.125533 4.94327,-1.195888 1.19863,0.963245 1.73708,1.154987 3.28664,1.170379 1.31088,0.01302 2.14232,-0.188055 2.84128,-0.687148 2.18359,-1.559175 3.08412,-1.906012 4.02246,-1.549255 2.13409,0.811378 2.36664,2.551451 0.60202,4.504676 -2.23719,2.476302 -6.71442,3.702307 -10.06866,2.757113 z m -22.91312,-2.713923 c -0.60612,-0.606121 -0.70555,-1.175924 -0.70555,-4.0432 0,-2.979208 0.0829,-3.414896 0.77207,-4.056944 0.42464,-0.395616 1.18846,-0.7193 1.69737,-0.7193 0.50891,0 1.27273,0.323684 1.69737,0.7193 0.68916,0.642048 0.77208,1.077736 0.77208,4.056944 0,3.77806 -0.50478,4.748756 -2.46945,4.748756 -0.58796,0 -1.37191,-0.313581 -1.76389,-0.705556 z m 47.65061,-0.223964 c -0.60807,-0.773025 -0.73116,-1.429061 -0.73116,-3.896589 0,-2.679856 0.0838,-3.050893 0.86591,-3.83298 0.47625,-0.47625 1.27721,-0.865911 1.77992,-0.865911 0.50271,0 1.30367,0.389661 1.77992,0.865911 0.78209,0.782087 0.86591,1.153124 0.86591,3.83298 0,3.590625 -0.67733,4.826109 -2.64583,4.826109 -0.85839,0 -1.38437,-0.255351 -1.91467,-0.92952 z"
         id="path677" />
    </g>
    <g
       id="g461"
       transform="matrix(0.83969973,0,0,0.83969973,382.03478,133.89821)">
      <path
         style="fill:#cfedfd;stroke-width:0.352778"
         d="m -352.97261,-28.299154 c 0.25466,-0.101907 0.55893,-0.08938 0.67616,0.02783 0.11722,0.117225 -0.0911,0.200604 -0.46302,0.185286 -0.41097,-0.01693 -0.49456,-0.10052 -0.21314,-0.213134 z m 9.87778,0 c 0.25466,-0.101907 0.55893,-0.08938 0.67615,0.02783 0.11723,0.117225 -0.0911,0.200604 -0.46302,0.185286 -0.41097,-0.01693 -0.49456,-0.10052 -0.21313,-0.213134 z m 28.11197,-12.459013 c 0.35119,-0.388056 0.7179,-0.705556 0.81491,-0.705556 0.097,0 -0.11094,0.3175 -0.46213,0.705556 -0.35118,0.388055 -0.71789,0.705555 -0.81491,0.705555 -0.097,0 0.11095,-0.3175 0.46213,-0.705555 z m -67.40274,-1.499306 -1.03614,-1.146528 1.14652,1.03614 c 1.06873,0.965828 1.30869,1.256916 1.03614,1.256916 -0.0607,0 -0.57665,-0.515938 -1.14652,-1.146528 z m 70.57774,-1.675694 c 0.35119,-0.388056 0.7179,-0.705556 0.81491,-0.705556 0.097,0 -0.11094,0.3175 -0.46213,0.705556 -0.35118,0.388055 -0.71789,0.705555 -0.81491,0.705555 -0.097,0 0.11095,-0.3175 0.46213,-0.705555 z m -67.11112,-17.18648 c 0.53625,-0.08109 1.33,-0.07892 1.76389,0.0048 0.4339,0.08373 -0.005,0.150079 -0.97499,0.147433 -0.97014,-0.0028 -1.32514,-0.07116 -0.7889,-0.152248 z m 59.6146,0.01 c 0.33955,-0.08873 0.89517,-0.08873 1.23472,0 0.33955,0.08873 0.0617,0.161336 -0.61736,0.161336 -0.6791,0 -0.95691,-0.0726 -0.61736,-0.161336 z m 2.82893,-0.0014 c 0.34324,-0.08944 0.81949,-0.08356 1.05834,0.01309 0.23884,0.09664 -0.042,0.169816 -0.62408,0.162627 -0.58208,-0.0072 -0.7775,-0.08625 -0.43426,-0.175698 z m 7.84259,-3.283204 c 0.35119,-0.388056 0.7179,-0.705556 0.81491,-0.705556 0.097,0 -0.11094,0.3175 -0.46213,0.705556 -0.35118,0.388055 -0.71789,0.705555 -0.81491,0.705555 -0.097,0 0.11095,-0.3175 0.46213,-0.705555 z m -18.21305,-0.617361 c -0.43881,-0.559527 -0.42633,-0.572005 0.13319,-0.133195 0.58764,0.460858 0.77452,0.750556 0.48417,0.750556 -0.0733,0 -0.35107,-0.277813 -0.61736,-0.617361 z m 26.88396,-2.763425 c 0.0169,-0.410969 0.10052,-0.494559 0.21314,-0.213138 0.1019,0.25466 0.0894,0.558934 -0.0278,0.676159 -0.11722,0.117224 -0.2006,-0.09114 -0.18528,-0.463021 z m -28.575,-0.705556 c 0.0169,-0.410968 0.10052,-0.494559 0.21314,-0.213137 0.1019,0.254659 0.0894,0.558934 -0.0278,0.676158 -0.11722,0.117225 -0.2006,-0.09114 -0.18528,-0.463021 z m 22.28611,-1.381714 c 0.004,-0.776111 0.0762,-1.052071 0.16055,-0.613248 0.0844,0.438824 0.0812,1.073824 -0.007,1.411112 -0.0883,0.337287 -0.15734,-0.02177 -0.15342,-0.797864 z m 6.66952,0.176389 c 0,-0.485069 0.0801,-0.683507 0.17793,-0.440972 0.0979,0.242535 0.0979,0.63941 0,0.881944 -0.0979,0.242535 -0.17793,0.0441 -0.17793,-0.440972 z m 0.37892,-3.175 c 0,-0.679097 0.0726,-0.95691 0.16134,-0.617361 0.0887,0.339549 0.0887,0.895174 0,1.234722 -0.0887,0.339549 -0.16134,0.06174 -0.16134,-0.617361 z m -97.42066,-0.205786 c 0.0169,-0.410968 0.10052,-0.494559 0.21314,-0.213137 0.1019,0.254659 0.0894,0.558934 -0.0279,0.676158 -0.11723,0.117225 -0.20061,-0.09114 -0.18529,-0.463021 z m 69.46937,-1.33852 c 0,-0.07325 0.27781,-0.351067 0.61736,-0.617361 0.55953,-0.43881 0.57201,-0.426332 0.1332,0.133195 -0.46086,0.587639 -0.75056,0.774516 -0.75056,0.484166 z m 18.48732,-1.013333 -0.67204,-0.79375 0.79375,0.672038 c 0.43656,0.36962 0.79375,0.726807 0.79375,0.79375 0,0.282311 -0.28391,0.07389 -0.91546,-0.672038 z m -17.07621,-0.397778 c 0,-0.07325 0.27781,-0.351067 0.61736,-0.617361 0.55953,-0.43881 0.57201,-0.426332 0.1332,0.133195 -0.46086,0.587639 -0.75056,0.774516 -0.75056,0.484166 z m 8.42401,-2.78748 c 0.17022,-0.170216 0.76539,-0.252621 1.3226,-0.183127 0.93261,0.116317 0.90801,0.14091 -0.30948,0.309481 -0.75838,0.105004 -1.19057,0.0511 -1.01312,-0.126354 z M -379.45299,-78.739 c 0.24253,-0.09786 0.63941,-0.09786 0.88194,0 0.24254,0.09786 0.0441,0.177938 -0.44097,0.177938 -0.48507,0 -0.68351,-0.08007 -0.44097,-0.177938 z m 80.25059,-2.235807 c 0,-0.679097 0.0726,-0.956909 0.16134,-0.617361 0.0887,0.339549 0.0887,0.895174 0,1.234722 -0.0887,0.339549 -0.16134,0.06174 -0.16134,-0.617361 z m -97.42066,0.146992 c 0.0169,-0.410968 0.10052,-0.494559 0.21314,-0.213138 0.1019,0.25466 0.0894,0.558935 -0.0279,0.676159 -0.11723,0.117225 -0.20061,-0.09114 -0.18529,-0.463021 z m 97.04174,-3.321992 c 0,-0.485069 0.0801,-0.683507 0.17793,-0.440972 0.0979,0.242535 0.0979,0.63941 0,0.881945 -0.0979,0.242534 -0.17793,0.0441 -0.17793,-0.440973 z m 12.22537,0.46457 c 0.25466,-0.101907 0.55894,-0.08938 0.67616,0.02783 0.11723,0.117225 -0.0911,0.200604 -0.46302,0.185286 -0.41097,-0.01693 -0.49456,-0.100521 -0.21314,-0.213134 z m 5.64445,0 c 0.25466,-0.101907 0.55893,-0.08938 0.67616,0.02783 0.11722,0.117225 -0.0911,0.200604 -0.46302,0.185286 -0.41097,-0.01693 -0.49456,-0.100521 -0.21314,-0.213134 z m 20.88003,-8.358875 c 0,-0.07326 0.27781,-0.351067 0.61736,-0.617362 0.55953,-0.438809 0.57201,-0.426331 0.1332,0.133195 -0.46086,0.58764 -0.75056,0.774517 -0.75056,0.484167 z m 3.52778,-3.527778 c 0,-0.07325 0.27781,-0.351067 0.61736,-0.617361 0.55953,-0.43881 0.57201,-0.426332 0.1332,0.133195 -0.46086,0.587639 -0.75056,0.774516 -0.75056,0.484166 z m -54.0017,-18.82861 -0.85524,-0.97014 0.97014,0.85525 c 0.90674,0.79935 1.13191,1.08503 0.85524,1.08503 -0.0632,0 -0.49975,-0.43656 -0.97014,-0.97014 z m 62.849,0.41158 c 0.0169,-0.41097 0.10052,-0.49456 0.21313,-0.21314 0.10191,0.25466 0.0894,0.55893 -0.0278,0.67616 -0.11723,0.11722 -0.20061,-0.0911 -0.18529,-0.46302 z m -169.40619,-2.52824 c -0.43881,-0.55953 -0.42633,-0.57201 0.1332,-0.1332 0.33955,0.2663 0.61736,0.54411 0.61736,0.61736 0,0.29035 -0.2897,0.10348 -0.75056,-0.48416 z m 169.79989,-0.26459 c 0.007,-0.58208 0.0863,-0.7775 0.17569,-0.43426 0.0894,0.34325 0.0836,0.8195 -0.0131,1.05834 -0.0966,0.23884 -0.16982,-0.042 -0.16263,-0.62408 z m -22.97148,-0.38217 c 0.0169,-0.41097 0.10052,-0.49456 0.21313,-0.21314 0.10191,0.25466 0.0894,0.55893 -0.0278,0.67616 -0.11723,0.11722 -0.2006,-0.0911 -0.18529,-0.46302 z m 15.16944,-2.11667 c 0.0169,-0.41097 0.10052,-0.49456 0.21314,-0.21314 0.1019,0.25466 0.0894,0.55893 -0.0278,0.67616 -0.11722,0.11723 -0.2006,-0.0911 -0.18528,-0.46302 z m -165.17285,-0.41157 c -0.43881,-0.55953 -0.42633,-0.57201 0.1332,-0.1332 0.33955,0.2663 0.61736,0.54411 0.61736,0.61736 0,0.29035 -0.2897,0.10348 -0.75056,-0.48416 z m 150.68111,-1.27973 c 0,-0.0733 0.27781,-0.35106 0.61736,-0.61736 0.55953,-0.43881 0.57201,-0.42633 0.1332,0.1332 -0.46086,0.58764 -0.75056,0.77451 -0.75056,0.48416 z m 12.8542,-1.01333 -1.03614,-1.14653 1.14653,1.03614 c 1.06872,0.96583 1.30868,1.25692 1.03614,1.25692 -0.0607,0 -0.57665,-0.51594 -1.14653,-1.14653 z m -45.35475,-0.52917 c -0.43881,-0.55952 -0.42633,-0.572 0.13319,-0.13319 0.58764,0.46086 0.77452,0.75055 0.48417,0.75055 -0.0733,0 -0.35107,-0.27781 -0.61736,-0.61736 z m 54.79433,-0.97014 c 0.007,-0.58208 0.0863,-0.7775 0.17569,-0.43425 0.0894,0.34324 0.0836,0.81949 -0.0131,1.05833 -0.0966,0.23884 -0.16982,-0.042 -0.16263,-0.62408 z m -57.65564,-0.77867 c 0.43883,-0.0844 1.07383,-0.0812 1.41112,0.007 0.33728,0.0883 -0.0218,0.15734 -0.79787,0.15342 -0.77611,-0.004 -1.05207,-0.0762 -0.61325,-0.16054 z m 41.44728,-0.003 c 0.53358,-0.0808 1.4067,-0.0808 1.94028,0 0.53357,0.0808 0.097,0.14696 -0.97014,0.14696 -1.06715,0 -1.50372,-0.0661 -0.97014,-0.14696 z m -56.53934,-2.04846 c -0.37281,-0.44921 -0.35099,-0.50083 0.13319,-0.31503 0.31849,0.12221 0.57907,0.36397 0.57907,0.53724 0,0.45366 -0.20422,0.38995 -0.71226,-0.22221 z m 72.354,-0.0213 c 0.0169,-0.41097 0.10052,-0.49456 0.21313,-0.21314 0.10191,0.25466 0.0894,0.55893 -0.0278,0.67616 -0.11723,0.11722 -0.20061,-0.0911 -0.18529,-0.46302 z m -73.80341,-1.8227 c -0.43881,-0.55953 -0.42633,-0.57201 0.13319,-0.1332 0.58764,0.46086 0.77452,0.75056 0.48417,0.75056 -0.0732,0 -0.35107,-0.27781 -0.61736,-0.61736 z m -2.11667,-2.46945 c -0.43881,-0.55952 -0.42633,-0.572 0.1332,-0.13319 0.58764,0.46086 0.77451,0.75056 0.48416,0.75056 -0.0732,0 -0.35106,-0.27782 -0.61736,-0.61737 z m -92.29458,-0.33137 c 0.33955,-0.0887 0.89517,-0.0887 1.23472,0 0.33955,0.0887 0.0617,0.16134 -0.61736,0.16134 -0.6791,0 -0.95691,-0.0726 -0.61736,-0.16134 z m 37.75207,-0.01 c 0.53625,-0.0811 1.33,-0.0789 1.76389,0.005 0.4339,0.0837 -0.005,0.15008 -0.97499,0.14743 -0.97014,-0.003 -1.32514,-0.0712 -0.7889,-0.15225 z m 52.44414,-2.12812 -0.85524,-0.97014 0.97014,0.85524 c 0.90674,0.79936 1.13192,1.08504 0.85524,1.08504 -0.0632,0 -0.49975,-0.43656 -0.97014,-0.97014 z m -2.64132,-2.99861 -1.03614,-1.14653 1.14653,1.03614 c 1.06872,0.96583 1.30868,1.25692 1.03614,1.25692 -0.0607,0 -0.57665,-0.51594 -1.14653,-1.14653 z m -42.07905,-0.26458 c 0,-0.48507 0.0801,-0.68351 0.17794,-0.44098 0.0979,0.24254 0.0979,0.63941 0,0.88195 -0.0979,0.24253 -0.17794,0.0441 -0.17794,-0.44097 z m 5.26382,-1.26412 c 0.0169,-0.41097 0.10052,-0.49456 0.21313,-0.21314 0.10191,0.25466 0.0894,0.55893 -0.0278,0.67616 -0.11723,0.11722 -0.20061,-0.0911 -0.18529,-0.46302 z m 33.28745,-2.35186 -1.03614,-1.14652 1.14653,1.03614 c 1.06873,0.96582 1.30868,1.25691 1.03614,1.25691 -0.0607,0 -0.57665,-0.51594 -1.14653,-1.14653 z m -40.22799,0 -0.67204,-0.79375 0.79375,0.67204 c 0.74593,0.63155 0.95435,0.91546 0.67204,0.91546 -0.0669,0 -0.42413,-0.35718 -0.79375,-0.79375 z m 9.9113,-0.26458 c 0.35118,-0.38806 0.71789,-0.70556 0.81491,-0.70556 0.097,0 -0.11095,0.3175 -0.46214,0.70556 -0.35118,0.38806 -0.71789,0.70556 -0.8149,0.70556 -0.097,0 0.11094,-0.3175 0.46213,-0.70556 z m -53.88681,-1.66008 c 0.43656,-0.0841 1.15094,-0.0841 1.5875,0 0.43656,0.0841 0.0794,0.15289 -0.79375,0.15289 -0.87312,0 -1.23031,-0.0688 -0.79375,-0.15289 z m 39.88594,0.008 c 0.25466,-0.10191 0.55893,-0.0894 0.67616,0.0278 0.11722,0.11722 -0.0911,0.2006 -0.46302,0.18529 -0.41097,-0.0169 -0.49456,-0.10052 -0.21314,-0.21314 z m 11.07103,-1.34651 c 0.007,-0.58208 0.0863,-0.7775 0.1757,-0.43426 0.0894,0.34324 0.0836,0.81949 -0.0131,1.05833 -0.0966,0.23884 -0.16982,-0.042 -0.16263,-0.62407 z m 29.54557,-0.79375 -1.21573,-1.32292 1.32291,1.21573 c 0.72761,0.66866 1.32292,1.26397 1.32292,1.32292 0,0.26939 -0.29853,0.0156 -1.4301,-1.21573 z m -23.26434,0.0882 c 0.4557,-0.48507 0.90792,-0.88194 1.00493,-0.88194 0.097,0 -0.19646,0.39687 -0.65216,0.88194 -0.4557,0.48507 -0.90792,0.88195 -1.00493,0.88195 -0.097,0 0.19646,-0.39688 0.65216,-0.88195 z m 19.72885,-3.96875 -0.85524,-0.97014 0.97014,0.85525 c 0.90674,0.79935 1.13191,1.08503 0.85524,1.08503 -0.0632,0 -0.49975,-0.43656 -0.97014,-0.97014 z m -15.49552,-0.61736 c 0.6582,-0.67909 1.27611,-1.23472 1.37313,-1.23472 0.097,0 -0.36215,0.55563 -1.02035,1.23472 -0.65821,0.6791 -1.27612,1.23472 -1.37313,1.23472 -0.097,0 0.36214,-0.55562 1.02035,-1.23472 z m 91.67722,-7.8493 c -0.43881,-0.55953 -0.42633,-0.57201 0.13319,-0.1332 0.58764,0.46086 0.77452,0.75056 0.48417,0.75056 -0.0733,0 -0.35107,-0.27781 -0.61736,-0.61736 z m -1.41111,-1.76389 c -0.43881,-0.55953 -0.42633,-0.57201 0.13319,-0.1332 0.33955,0.2663 0.61736,0.54411 0.61736,0.61736 0,0.29035 -0.28969,0.10348 -0.75055,-0.48416 z m -1.9288,-2.29306 -0.67203,-0.79375 0.79375,0.67204 c 0.74592,0.63155 0.95434,0.91546 0.67203,0.91546 -0.0669,0 -0.42413,-0.35718 -0.79375,-0.79375 z m -35.06787,0.30778 c 0,-0.0733 0.27782,-0.35107 0.61736,-0.61736 0.55953,-0.43881 0.57201,-0.42633 0.1332,0.13319 -0.46086,0.58764 -0.75056,0.77452 -0.75056,0.48417 z m 32.78163,-2.95361 -0.85524,-0.97014 0.97014,0.85524 c 0.53358,0.47039 0.97014,0.90695 0.97014,0.97014 0,0.27668 -0.28568,0.0515 -1.08504,-0.85524 z m -30.31218,0.13139 c 0,-0.0733 0.27781,-0.35107 0.61736,-0.61736 0.55953,-0.43881 0.572,-0.42633 0.13319,0.13319 -0.46086,0.58764 -0.75055,0.77452 -0.75055,0.48417 z m 27.1449,-3.65917 -1.21574,-1.32291 1.32292,1.21573 c 0.7276,0.66865 1.32292,1.26396 1.32292,1.32291 0,0.26939 -0.29853,0.0156 -1.4301,-1.21573 z m -23.44074,-0.44097 c 0.35119,-0.38806 0.7179,-0.70556 0.81491,-0.70556 0.097,0 -0.11094,0.3175 -0.46213,0.70556 -0.35119,0.38806 -0.71789,0.70556 -0.81491,0.70556 -0.097,0 0.11095,-0.3175 0.46213,-0.70556 z m 19.73337,-3.61597 -1.03614,-1.14653 1.14652,1.03614 c 1.06873,0.96583 1.30869,1.25692 1.03614,1.25692 -0.0607,0 -0.57665,-0.51594 -1.14652,-1.14653 z m -16.38198,-0.0882 c 0.4557,-0.48507 0.90792,-0.88194 1.00494,-0.88194 0.097,0 -0.19646,0.39687 -0.65216,0.88194 -0.4557,0.48507 -0.90792,0.88195 -1.00493,0.88195 -0.097,0 0.19645,-0.39688 0.65215,-0.88195 z m -86.82833,-0.79375 c -0.43881,-0.55952 -0.42633,-0.572 0.13319,-0.13319 0.58764,0.46086 0.77452,0.75055 0.48417,0.75055 -0.0732,0 -0.35107,-0.27781 -0.61736,-0.61736 z m -1.41111,-1.76389 c -0.43881,-0.55952 -0.42633,-0.572 0.13319,-0.13319 0.58764,0.46086 0.77452,0.75056 0.48417,0.75056 -0.0732,0 -0.35107,-0.27782 -0.61736,-0.61737 z m 101.27323,-1.05833 -1.21573,-1.32292 1.32291,1.21574 c 0.72761,0.66865 1.32292,1.26396 1.32292,1.32291 0,0.26939 -0.29853,0.0156 -1.4301,-1.21573 z m -103.20203,-1.23472 -0.67203,-0.79375 0.79375,0.67204 c 0.74592,0.63155 0.95434,0.91546 0.67203,0.91546 -0.0669,0 -0.42413,-0.35719 -0.79375,-0.79375 z m -27.65953,-1.45611 c 0,-0.0733 0.27781,-0.35107 0.61736,-0.61736 0.55952,-0.43881 0.572,-0.42633 0.13319,0.13319 -0.46086,0.58764 -0.75055,0.77452 -0.75055,0.48417 z m 24.84864,-1.71889 -1.03614,-1.14653 1.14652,1.03614 c 0.63059,0.56988 1.14653,1.08582 1.14653,1.14653 0,0.27254 -0.29109,0.0326 -1.25691,-1.03614 z m -21.14448,-2.38125 c 0.35119,-0.38806 0.7179,-0.70556 0.81491,-0.70556 0.097,0 -0.11094,0.3175 -0.46213,0.70556 -0.35118,0.38805 -0.71789,0.70555 -0.81491,0.70555 -0.097,0 0.11095,-0.3175 0.46213,-0.70555 z m 17.79629,-1.32292 -1.21573,-1.32291 1.32292,1.21573 c 0.7276,0.66865 1.32291,1.26396 1.32291,1.32291 0,0.26939 -0.29853,0.0156 -1.4301,-1.21573 z m -14.26851,-2.55764 c 0.35119,-0.38805 0.71789,-0.70555 0.81491,-0.70555 0.097,0 -0.11095,0.3175 -0.46213,0.70555 -0.35119,0.38806 -0.7179,0.70556 -0.81491,0.70556 -0.097,0 0.11095,-0.3175 0.46213,-0.70556 z m 10.91392,-1.14652 -1.03614,-1.14653 1.14653,1.03614 c 0.63059,0.56988 1.14652,1.08581 1.14652,1.14653 0,0.27254 -0.29108,0.0326 -1.25691,-1.03614 z m -9.6792,-0.045 c 0,-0.0733 0.27782,-0.35107 0.61736,-0.61736 0.55953,-0.43881 0.57201,-0.42634 0.1332,0.13319 -0.46086,0.58764 -0.75056,0.77451 -0.75056,0.48417 z"
         id="path475" />
      <path
         style="fill:#a2ddfc;stroke-width:0.352778"
         d="m -351.91428,-28.299154 c 0.25466,-0.101907 0.55893,-0.08938 0.67616,0.02783 0.11722,0.117225 -0.0911,0.200604 -0.46302,0.185286 -0.41097,-0.01693 -0.49456,-0.10052 -0.21314,-0.213134 z m 38.51892,-14.046513 c 0.4557,-0.48507 0.90792,-0.881945 1.00494,-0.881945 0.097,0 -0.19646,0.396875 -0.65216,0.881945 -0.4557,0.485069 -0.90792,0.881944 -1.00493,0.881944 -0.097,0 0.19645,-0.396875 0.65215,-0.881944 z m -19.44835,-3.377855 c -3.5489,-0.376322 -8.68614,-1.59385 -11.8578,-2.810302 -12.31977,-4.725109 -19.99989,-14.878286 -22.86824,-30.232 -0.77546,-4.150938 -1.07276,-16.391399 -0.53061,-21.847176 1.4644,-14.73679 6.18157,-32.28874 12.45856,-46.35666 2.2132,-4.96019 7.52033,-6.9841 11.88351,-4.53185 0.77539,0.43579 4.53853,4.27222 8.75221,8.92267 11.44125,12.62719 14.1724,15.85397 19.29659,22.79845 1.50328,2.03729 2.88886,3.66055 3.07907,3.60723 0.19021,-0.0533 0.25561,0.0491 0.14532,0.22751 -0.11028,0.17845 0.85742,2.04769 2.15045,4.15388 2.80193,4.56399 6.71465,12.607024 8.03497,16.516793 5.55135,16.438756 3.89929,32.040353 -4.783,45.169243 l -2.16023,3.266591 -2.5172,0.389171 c -6.98805,1.080385 -15.10751,1.360145 -21.0836,0.72645 z m 20.6179,-16.136136 c 4.00032,-1.76953 6.05985,-4.489362 6.05985,-8.002676 0,-1.663199 -0.20382,-2.463835 -0.95138,-3.737158 -1.53459,-2.613854 -4.65572,-4.585145 -8.0419,-5.079217 l -1.5875,-0.23163 0.10943,-3.812159 c 0.1084,-3.776271 0.10048,-3.819201 -0.84133,-4.560027 -1.19981,-0.943769 -2.26872,-0.948937 -3.45386,-0.01669 -0.89727,0.705792 -0.92952,0.85792 -0.92952,4.384523 0,2.850871 0.12177,3.775135 0.55436,4.207729 0.50397,0.50395 0.50291,0.554348 -0.0117,0.554348 -1.12635,0 -4.01914,1.768217 -5.25515,3.212221 -1.6037,1.873564 -2.11228,3.425444 -1.91242,5.835512 0.27245,3.28548 3.21435,6.398828 7.28469,7.709246 2.25903,0.72728 6.81583,0.491723 8.97646,-0.464026 z m -32.03503,-5.480777 c 3.49914,-1.62947 5.59467,-5.102235 5.61186,-9.300125 0.0111,-2.720619 -0.44528,-3.735832 -2.30316,-5.122937 -1.97557,-1.474974 -9.80958,-1.644865 -12.89585,-0.279661 -2.35073,1.039841 -3.01193,2.394913 -2.8451,5.830824 0.20729,4.269331 1.91674,7.118385 5.27528,8.792016 2.35982,1.175946 4.74607,1.202581 7.15697,0.07988 z m -22.72889,-2.551296 c 0.0169,-0.410968 0.10052,-0.494559 0.21314,-0.213138 0.10191,0.25466 0.0894,0.558935 -0.0278,0.676159 -0.11722,0.117225 -0.2006,-0.09114 -0.18528,-0.463021 z m -29.57933,-4.733103 c 0,-0.679097 0.0726,-0.956909 0.16133,-0.617361 0.0887,0.339549 0.0887,0.895174 0,1.234722 -0.0887,0.339549 -0.16133,0.06174 -0.16133,-0.617361 z m 0,-4.586111 c 0,-0.679097 0.0726,-0.95691 0.16133,-0.617361 0.0887,0.339549 0.0887,0.895174 0,1.234722 -0.0887,0.339549 -0.16133,0.06174 -0.16133,-0.617361 z m 110.94709,-4.487943 c 0.62626,-0.07793 1.73751,-0.07921 2.46944,-0.0028 0.73193,0.07637 0.21953,0.140131 -1.13866,0.141697 -1.35819,0.0014 -1.95705,-0.06092 -1.33078,-0.13885 z M -258.7148,-94.204 c 0.6582,-0.679097 1.27611,-1.234722 1.37313,-1.234722 0.097,0 -0.36215,0.555625 -1.02035,1.234722 -0.65821,0.679097 -1.27612,1.234722 -1.37313,1.234722 -0.097,0 0.36214,-0.555625 1.02035,-1.234722 z m -15.73432,-2.806824 c -10.53445,-1.636455 -17.31554,-6.324196 -21.51567,-14.873706 -1.39915,-2.848 -1.58894,-3.52099 -1.6561,-5.87242 -0.0575,-2.01337 -0.23369,-2.8301 -0.72835,-3.37635 -0.60425,-0.66729 -0.61077,-0.78012 -0.0882,-1.52621 0.36992,-0.52814 0.5643,-1.55913 0.5643,-2.99314 0,-1.85077 -0.14368,-2.35824 -0.93336,-3.29672 l -0.93335,-1.10922 0.20929,-4.82688 c 0.44122,-10.17649 3.33643,-22.44808 8.08849,-34.28381 1.9485,-4.85304 2.58945,-5.77606 4.68143,-6.74157 1.66194,-0.76703 2.59057,-0.81733 4.50425,-0.24398 1.15521,0.34611 2.35218,1.4497 6.60029,6.08542 9.47,10.33404 13.57309,15.3027 17.67694,21.40601 10.54527,15.68305 12.85056,30.76947 6.70632,43.88785 -1.32072,2.81982 -4.37258,7.69657 -4.65044,7.431214 -0.0801,-0.07653 -1.97132,0.07741 -4.20264,0.342074 -4.95431,0.58765 -10.50653,0.584334 -14.32321,-0.0086 z M -259.85,-112.56716 c 3.76049,-1.57084 5.41096,-5.47546 3.50805,-8.29919 -1.48176,-2.19878 -4.15663,-3.49416 -7.22355,-3.49818 l -1.4993,-0.002 v -1.82935 c 0,-1.3927 -0.18309,-2.02423 -0.76705,-2.64583 -0.94425,-1.00511 -2.70967,-1.0802 -3.84187,-0.1634 -1.06627,0.86341 -1.39281,4.33549 -0.55932,5.94728 0.51318,0.99238 0.50328,1.16622 -0.13808,2.42421 -1.57665,3.0925 -0.0863,6.48011 3.54243,8.05188 1.61764,0.70068 5.31768,0.70839 6.97869,0.0145 z m -21.67231,-7.29177 c 1.925,-0.57675 4.46306,-3.01454 4.46306,-4.28675 0,-1.27051 -1.44475,-2.69026 -2.73765,-2.69026 -0.5532,0 -1.54376,0.39687 -2.20123,0.88194 -0.65748,0.48507 -1.66552,0.88194 -2.2401,0.88194 -0.57458,0 -1.56503,-0.39687 -2.20098,-0.88194 -2.27219,-1.73308 -4.73115,-0.75895 -4.73115,1.87428 0,3.2165 5.28423,5.52822 9.64805,4.22079 z m -137.90496,1.75424 -1.03614,-1.14653 1.14653,1.03614 c 0.63059,0.56988 1.14653,1.08581 1.14653,1.14653 0,0.27254 -0.29109,0.0326 -1.25692,-1.03614 z m 32.83053,-2.02685 c -5.79756,-0.51275 -10.1703,-2.07298 -14.20207,-5.06739 -3.45511,-2.56614 -5.43334,-5.53349 -8.02927,-12.04396 -0.15473,-0.38805 -0.24568,-0.91992 -0.2021,-1.18193 0.0436,-0.26201 -0.0639,-0.38789 -0.23891,-0.27975 -0.18631,0.11515 -0.2048,-0.49143 -0.0446,-1.4639 0.49442,-3.00162 0.37065,-4.84675 -0.38998,-5.81374 -2.46216,-3.13013 1.3074,-24.26747 6.54069,-36.67607 0.66513,-1.5771 1.14589,-2.9309 1.06835,-3.00844 -0.33169,-0.33169 2.55384,-2.60965 3.76556,-2.97269 2.06672,-0.61921 3.72263,0.0566 6.00821,2.45205 17.62298,18.47009 24.88966,30.17912 26.39521,42.53139 0.21707,1.78095 0.30406,4.00682 0.19331,4.94638 -0.18558,1.57442 -0.15398,1.67157 0.40324,1.23962 0.33253,-0.25778 -0.29249,0.48161 -1.38893,1.64309 -2.75395,2.91729 -6.37651,7.18922 -10.00618,11.79982 -1.68599,2.14164 -3.32703,3.89564 -3.64676,3.89778 -0.31972,0.002 -1.13693,0.0657 -1.81603,0.14121 -0.6791,0.0755 -2.66347,0.011 -4.40972,-0.14347 z m 12.66625,-11.78125 c 1.85479,-1.08698 3.21969,-3.4977 2.87328,-5.07487 -0.61395,-2.79532 -3.61686,-5.00695 -6.80828,-5.01428 l -1.49931,-0.003 v -1.39451 c 0,-1.8945 -0.5964,-3.06079 -1.82555,-3.56992 -1.25945,-0.52168 -2.4475,-0.0746 -3.31329,1.24671 -0.75704,1.1554 -0.56884,5.01049 0.27473,5.62732 0.49539,0.36224 0.48367,0.48814 -0.11413,1.2264 -0.45166,0.55777 -0.6662,1.38258 -0.6662,2.56119 0,1.52269 0.16419,1.91371 1.32291,3.15043 0.72761,0.77658 1.95792,1.64626 2.73403,1.93262 2.02484,0.74712 5.08493,0.44744 7.02181,-0.68764 z m -19.57574,-6.19657 c 1.67104,-0.85251 3.20532,-2.62316 3.20532,-3.69913 0,-0.44402 -0.32902,-1.22559 -0.73116,-1.73682 -0.94559,-1.20213 -2.90595,-1.28122 -4.09393,-0.16517 -0.46323,0.43518 -1.27186,0.76435 -1.87769,0.76435 -0.60583,0 -1.41446,-0.32917 -1.87769,-0.76435 -1.18798,-1.11605 -3.14833,-1.03696 -4.09393,0.16517 -0.40213,0.51123 -0.73116,1.2928 -0.73116,1.73682 0,1.04936 1.51009,2.82582 3.12951,3.68154 1.76618,0.93328 5.2588,0.94197 7.07073,0.0176 z m 81.87476,16.43189 c 0,-0.0733 0.27782,-0.35107 0.61736,-0.61736 0.55953,-0.43881 0.57201,-0.42634 0.1332,0.13319 -0.46086,0.58764 -0.75056,0.77452 -0.75056,0.48417 z m -110.11166,-11.42028 c -0.43881,-0.55953 -0.42633,-0.572 0.13319,-0.13319 0.33955,0.26629 0.61736,0.5441 0.61736,0.61736 0,0.29035 -0.28969,0.10347 -0.75055,-0.48417 z m -1.31041,-3.26319 c 0,-0.48507 0.0801,-0.68351 0.17793,-0.44098 0.0979,0.24254 0.0979,0.63941 0,0.88195 -0.0979,0.24253 -0.17793,0.0441 -0.17793,-0.44097 z m -5.31952,-7.26135 c 0.0169,-0.41096 0.10052,-0.49455 0.21314,-0.21313 0.1019,0.25466 0.0894,0.55893 -0.0279,0.67616 -0.11723,0.11722 -0.20061,-0.0911 -0.18529,-0.46303 z"
         id="path473" />
      <path
         style="fill:#8fd4f9;stroke-width:0.352778"
         d="m -350.85595,-28.299154 c 0.25466,-0.101907 0.55893,-0.08938 0.67616,0.02783 0.11723,0.117225 -0.0911,0.200604 -0.46302,0.185286 -0.41097,-0.01693 -0.49456,-0.10052 -0.21314,-0.213134 z m 5.45272,-0.0035 c 0.34325,-0.08944 0.8195,-0.08356 1.05834,0.01309 0.23884,0.09664 -0.042,0.169816 -0.62408,0.162627 -0.58208,-0.0072 -0.7775,-0.08626 -0.43426,-0.175698 z m 13.39885,-17.284778 c 0.33955,-0.08873 0.89517,-0.08873 1.23472,0 0.33955,0.08873 0.0617,0.161336 -0.61736,0.161336 -0.6791,0 -0.95691,-0.0726 -0.61736,-0.161336 z m 12.34722,0 c 0.33955,-0.08873 0.89517,-0.08873 1.23472,0 0.33955,0.08873 0.0617,0.161336 -0.61736,0.161336 -0.6791,0 -0.95691,-0.0726 -0.61736,-0.161336 z m -15.32379,-0.350583 c 0.25466,-0.101907 0.55894,-0.08938 0.67616,0.02783 0.11723,0.117224 -0.0911,0.200603 -0.46302,0.185286 -0.41097,-0.01693 -0.49456,-0.100521 -0.21314,-0.213134 z m 19.02796,0.0073 c 0.24253,-0.09786 0.6394,-0.09786 0.88194,0 0.24253,0.09787 0.0441,0.177938 -0.44097,0.177938 -0.48507,0 -0.68351,-0.08007 -0.44097,-0.177938 z m -21.14462,-0.360126 c 0.25466,-0.101907 0.55893,-0.08938 0.67616,0.02783 0.11722,0.117225 -0.0911,0.200604 -0.46302,0.185286 -0.41097,-0.01693 -0.49456,-0.10052 -0.21314,-0.213134 z m 24.34166,0 c 0.25466,-0.101907 0.55894,-0.08938 0.67616,0.02783 0.11723,0.117225 -0.0911,0.200604 -0.46302,0.185286 -0.41097,-0.01693 -0.49456,-0.10052 -0.21314,-0.213134 z m 2.09462,-0.345429 c 0.24254,-0.09786 0.63941,-0.09786 0.88195,0 0.24253,0.09786 0.0441,0.177937 -0.44098,0.177937 -0.48507,0 -0.6835,-0.08007 -0.44097,-0.177937 z m -44.57171,-7.968435 -0.67204,-0.79375 0.79375,0.672038 c 0.74593,0.63155 0.95435,0.915462 0.67204,0.915462 -0.0669,0 -0.42413,-0.357188 -0.79375,-0.79375 z m -3.52778,-3.527778 -0.67204,-0.79375 0.79375,0.672038 c 0.74593,0.63155 0.95435,0.915462 0.67204,0.915462 -0.0669,0 -0.42413,-0.357187 -0.79375,-0.79375 z m -10.7262,-6.085416 c 0.4557,-0.48507 0.90792,-0.881945 1.00493,-0.881945 0.097,0 -0.19645,0.396875 -0.65215,0.881945 -0.4557,0.485069 -0.90792,0.881944 -1.00494,0.881944 -0.097,0 0.19646,-0.396875 0.65216,-0.881944 z m -17.68389,-0.08819 c -0.43881,-0.559527 -0.42633,-0.572004 0.13319,-0.133195 0.33955,0.266295 0.61737,0.544107 0.61737,0.617361 0,0.290351 -0.2897,0.103474 -0.75056,-0.484166 z m -2.35567,-5.55625 c 0.007,-0.582083 0.0863,-0.777501 0.1757,-0.434259 0.0894,0.343243 0.0836,0.819493 -0.0131,1.058334 -0.0966,0.238841 -0.16981,-0.04199 -0.16262,-0.624075 z m 20.01286,-5.732639 -0.85525,-0.970139 0.97014,0.855243 c 0.90674,0.799356 1.13192,1.085035 0.85525,1.085035 -0.0632,0 -0.49976,-0.436562 -0.97014,-0.970139 z m -17.96497,0.484167 c 0,-0.07326 0.27781,-0.351067 0.61736,-0.617361 0.55953,-0.43881 0.57201,-0.426332 0.1332,0.133194 -0.46086,0.58764 -0.75056,0.774517 -0.75056,0.484167 z m 48.71119,-0.778147 c 0.0169,-0.410968 0.10052,-0.494559 0.21313,-0.213138 0.10191,0.25466 0.0894,0.558934 -0.0278,0.676159 -0.11723,0.117224 -0.20061,-0.09114 -0.18529,-0.463021 z m -57.79445,-1.028936 c 0.004,-0.776111 0.0762,-1.052072 0.16055,-0.613248 0.0844,0.438824 0.0812,1.073824 -0.007,1.411111 -0.0883,0.337287 -0.15734,-0.02175 -0.15343,-0.797863 z m 28.86667,-1.440508 c 0.0169,-0.410969 0.10052,-0.49456 0.21313,-0.213138 0.10191,0.25466 0.0894,0.558934 -0.0278,0.676158 -0.11723,0.117225 -0.2006,-0.09114 -0.18529,-0.46302 z m -0.35278,-2.116667 c 0.0169,-0.410968 0.10052,-0.494559 0.21314,-0.213138 0.1019,0.25466 0.0894,0.558934 -0.0278,0.676159 -0.11723,0.117224 -0.2006,-0.09114 -0.18528,-0.463021 z m -0.31185,-2.792825 c 0.007,-0.582084 0.0863,-0.777501 0.17569,-0.434259 0.0894,0.343242 0.0836,0.819492 -0.0131,1.058333 -0.0966,0.238841 -0.16981,-0.04199 -0.16262,-0.624074 z m 18.72335,0.284695 c 0.34324,-0.08944 0.81949,-0.08356 1.05833,0.01309 0.23885,0.09664 -0.042,0.169817 -0.62407,0.162627 -0.58208,-0.0072 -0.7775,-0.08625 -0.43426,-0.175697 z m 2.82222,0 c 0.34325,-0.08944 0.8195,-0.08356 1.05834,0.01309 0.23884,0.09664 -0.042,0.169817 -0.62408,0.162627 -0.58208,-0.0072 -0.7775,-0.08625 -0.43426,-0.175697 z m -21.82604,-8.398584 c 3.6e-4,-2.910417 0.0551,-4.054097 0.12143,-2.541513 0.0663,1.51258 0.0659,3.89383 -10e-4,5.291666 -0.0668,1.397833 -0.12102,0.160264 -0.12053,-2.750153 z m 95.5566,-5.359749 c 0.34324,-0.08944 0.81949,-0.08356 1.05833,0.01309 0.23884,0.09664 -0.042,0.169817 -0.62407,0.162627 -0.58209,-0.0072 -0.7775,-0.08625 -0.43426,-0.175698 z m 10.22384,0.0014 c 0.33955,-0.08873 0.89517,-0.08873 1.23472,0 0.33955,0.08873 0.0617,0.161336 -0.61736,0.161336 -0.6791,0 -0.95691,-0.0726 -0.61736,-0.161336 z m -12.87639,-0.343235 c 0.24254,-0.09786 0.63941,-0.09786 0.88195,0 0.24253,0.09786 0.0441,0.177937 -0.44098,0.177937 -0.48507,0 -0.6835,-0.08007 -0.44097,-0.177937 z m 16.22778,0 c 0.24253,-0.09786 0.63941,-0.09786 0.88194,0 0.24254,0.09786 0.0441,0.177937 -0.44097,0.177937 -0.48507,0 -0.68351,-0.08007 -0.44097,-0.177937 z m 2.91042,-0.11926 c -0.45223,-0.292252 -0.43941,-0.342759 0.0882,-0.347377 0.33955,-0.0028 0.61736,0.153349 0.61736,0.347377 0,0.430251 -0.0398,0.430251 -0.70555,0 z m -20.88004,-0.240986 c 0.25466,-0.101907 0.55894,-0.08938 0.67616,0.02783 0.11722,0.117224 -0.0911,0.200603 -0.46302,0.185286 -0.41097,-0.01693 -0.49456,-0.100521 -0.21314,-0.213134 z m -90.86867,-2.581237 c 0,-0.6791 0.0726,-0.95691 0.16133,-0.61736 0.0887,0.33954 0.0887,0.895173 0,1.234722 -0.0887,0.339548 -0.16133,0.06174 -0.16133,-0.617362 z m 79.24815,-2.73403 c -0.43881,-0.55953 -0.42633,-0.57201 0.13319,-0.1332 0.33955,0.2663 0.61737,0.54411 0.61737,0.61737 0,0.29035 -0.2897,0.10347 -0.75056,-0.48417 z m -78.90845,-0.61736 c 0.007,-0.58209 0.0863,-0.7775 0.1757,-0.43426 0.0894,0.34324 0.0836,0.81949 -0.0131,1.05833 -0.0966,0.23884 -0.16981,-0.042 -0.16262,-0.62407 z m 0.31186,-2.85162 c 0.0169,-0.41097 0.10052,-0.49456 0.21313,-0.21314 0.10191,0.25466 0.0894,0.55893 -0.0278,0.67616 -0.11723,0.11722 -0.2006,-0.0911 -0.18529,-0.46302 z m 0.38062,-2.26366 c 0,-0.48507 0.0801,-0.68351 0.17794,-0.44097 0.0979,0.24253 0.0979,0.63941 0,0.88194 -0.0979,0.24254 -0.17794,0.0441 -0.17794,-0.44097 z m -32.93017,-0.59376 c 0.25466,-0.10191 0.55893,-0.0894 0.67615,0.0278 0.11723,0.11722 -0.0911,0.2006 -0.46302,0.18529 -0.41096,-0.0169 -0.49456,-0.10052 -0.21313,-0.21314 z m 5.99722,0 c 0.25466,-0.10191 0.55893,-0.0894 0.67616,0.0278 0.11722,0.11722 -0.0911,0.2006 -0.46303,0.18529 -0.41096,-0.0169 -0.49455,-0.10052 -0.21313,-0.21314 z m 27.25788,-1.72869 c 0.0169,-0.41097 0.10052,-0.49456 0.21314,-0.21314 0.10191,0.25466 0.0894,0.55893 -0.0278,0.67616 -0.11722,0.11722 -0.2006,-0.0911 -0.18528,-0.46302 z m 61.64212,-1.09354 c 0.25466,-0.1019 0.55893,-0.0894 0.67616,0.0278 0.11722,0.11722 -0.0911,0.2006 -0.46303,0.18528 -0.41096,-0.0169 -0.49455,-0.10052 -0.21313,-0.21313 z m -61.28934,-0.67035 c 0.0169,-0.41097 0.10052,-0.49456 0.21314,-0.21314 0.1019,0.25466 0.0894,0.55893 -0.0278,0.67616 -0.11723,0.11722 -0.2006,-0.0911 -0.18528,-0.46302 z m 0.70556,-3.52778 c 0.0169,-0.41097 0.10052,-0.49456 0.21313,-0.21314 0.10191,0.25466 0.0894,0.55893 -0.0278,0.67616 -0.11723,0.11723 -0.20061,-0.0911 -0.18529,-0.46302 z m -20.04314,-3.92792 c 0.53624,-0.0811 1.32999,-0.0789 1.76389,0.005 0.43389,0.0837 -0.005,0.15008 -0.97499,0.14744 -0.97014,-0.003 -1.32515,-0.0712 -0.7889,-0.15225 z m 5.02223,-0.007 c 0.58208,-0.0851 1.29646,-0.33914 1.5875,-0.56451 0.46052,-0.35659 0.46636,-0.32966 0.045,0.20761 -0.29883,0.38104 -0.90652,0.59713 -1.5875,0.5645 l -1.10333,-0.0528 z m -8.35642,-0.3333 c 0.25466,-0.10191 0.55893,-0.0894 0.67616,0.0278 0.11722,0.11723 -0.0911,0.20061 -0.46303,0.18529 -0.41096,-0.0169 -0.49455,-0.10052 -0.21313,-0.21314 z m 11.70781,-2.71443 c 0,-0.0733 0.27781,-0.35107 0.61736,-0.61736 0.55953,-0.43881 0.572,-0.42634 0.1332,0.13319 -0.46086,0.58764 -0.75056,0.77452 -0.75056,0.48417 z m 107.00098,-2.51264 c 0.002,-1.16417 0.0678,-1.59789 0.14635,-0.96382 0.0785,0.63406 0.0769,1.58656 -0.004,2.11666 -0.0805,0.53011 -0.14474,0.0113 -0.14276,-1.15284 z m -48.83765,0.97014 c -0.43881,-0.55953 -0.42633,-0.57201 0.1332,-0.1332 0.58764,0.46086 0.77451,0.75056 0.48416,0.75056 -0.0732,0 -0.35106,-0.27781 -0.61736,-0.61736 z m -81.84444,-0.70556 c -0.43881,-0.55953 -0.42633,-0.572 0.13319,-0.13319 0.58764,0.46085 0.77452,0.75055 0.48417,0.75055 -0.0733,0 -0.35107,-0.27781 -0.61736,-0.61736 z m 25.09222,0.48417 c 0,-0.0733 0.27781,-0.35107 0.61736,-0.61736 0.55953,-0.43881 0.57201,-0.42634 0.1332,0.13319 -0.46086,0.58764 -0.75056,0.77452 -0.75056,0.48417 z m 1.41111,-1.76389 c 0,-0.0733 0.27781,-0.35107 0.61736,-0.61736 0.55953,-0.43881 0.57201,-0.42633 0.1332,0.13319 -0.46086,0.58764 -0.75056,0.77452 -0.75056,0.48417 z m 1.94028,-2.33625 c 0.35119,-0.38806 0.7179,-0.70556 0.81491,-0.70556 0.097,0 -0.11095,0.3175 -0.46213,0.70556 -0.35119,0.38805 -0.7179,0.70555 -0.81491,0.70555 -0.097,0 0.11094,-0.3175 0.46213,-0.70555 z m 102.48194,0.57236 c 0,-0.0733 0.27781,-0.35107 0.61736,-0.61736 0.55953,-0.43881 0.57201,-0.42633 0.1332,0.13319 -0.46086,0.58764 -0.75056,0.77452 -0.75056,0.48417 z m -29.48534,-1.40111 c -0.10046,-0.26179 -0.13325,-1.57147 -0.0729,-2.91042 l 0.10977,-2.43444 0.17214,2.91124 c 0.17186,2.90667 0.1354,3.33122 -0.20904,2.43362 z m -71.4091,-1.06833 c 0,-0.0733 0.27781,-0.35107 0.61736,-0.61737 0.55953,-0.43881 0.572,-0.42633 0.1332,0.1332 -0.46086,0.58764 -0.75056,0.77452 -0.75056,0.48417 z m 2.82222,-3.2182 c 0.4557,-0.48507 0.90792,-0.88194 1.00493,-0.88194 0.097,0 -0.19645,0.39687 -0.65215,0.88194 -0.4557,0.48507 -0.90792,0.88195 -1.00493,0.88195 -0.097,0 0.19645,-0.39688 0.65215,-0.88195 z m -40.56944,-2.64583 c 0,-0.38806 0.0609,-0.70556 0.13524,-0.70556 0.0744,0 0.21827,0.3175 0.31975,0.70556 0.10148,0.38805 0.0406,0.70555 -0.13524,0.70555 -0.17586,0 -0.31975,-0.3175 -0.31975,-0.70555 z m -19.37493,-0.91134 c 0.0169,-0.41097 0.10052,-0.49456 0.21314,-0.21314 0.1019,0.25466 0.0894,0.55893 -0.0279,0.67616 -0.11723,0.11722 -0.20061,-0.0911 -0.18529,-0.46302 z m 128.80481,-0.67616 c 0.007,-0.58209 0.0863,-0.7775 0.1757,-0.43426 0.0894,0.34324 0.0836,0.81949 -0.0131,1.05833 -0.0966,0.23884 -0.16982,-0.042 -0.16263,-0.62407 z m -65.33266,0.39597 c 0,-0.0733 0.27781,-0.35107 0.61736,-0.61736 0.55953,-0.43881 0.572,-0.42633 0.1332,0.13319 -0.46086,0.58764 -0.75056,0.77452 -0.75056,0.48417 z m -45.36208,-1.67945 c -0.15303,-0.24762 -0.10285,-0.31883 0.12532,-0.17782 0.20932,0.12937 0.45356,-0.0445 0.54275,-0.38647 0.14498,-0.55579 0.1665,-0.55845 0.20309,-0.0251 0.0513,0.74779 -0.53015,1.14119 -0.87116,0.58943 z m 111.03445,-1.71513 c 0,-0.48507 0.0801,-0.68351 0.17793,-0.44098 0.0979,0.24254 0.0979,0.63941 0,0.88195 -0.0979,0.24253 -0.17793,0.0441 -0.17793,-0.44097 z m -62.14459,-0.48598 c 0,-0.0733 0.27781,-0.35106 0.61736,-0.61736 0.55952,-0.43881 0.572,-0.42633 0.13319,0.1332 -0.46086,0.58764 -0.75055,0.77451 -0.75055,0.48416 z m 62.46951,-1.83648 c 0.0169,-0.41096 0.10053,-0.49455 0.21314,-0.21313 0.10191,0.25466 0.0894,0.55893 -0.0278,0.67616 -0.11722,0.11722 -0.2006,-0.0911 -0.18528,-0.46303 z m 0.35278,-2.11666 c 0.0169,-0.41097 0.10052,-0.49456 0.21314,-0.21314 0.1019,0.25466 0.0894,0.55893 -0.0278,0.67616 -0.11722,0.11722 -0.2006,-0.0911 -0.18528,-0.46302 z m -59.29452,0.0726 c 0,-0.0733 0.27782,-0.35107 0.61737,-0.61736 0.55952,-0.43881 0.572,-0.42633 0.13319,0.13319 -0.46086,0.58764 -0.75056,0.77452 -0.75056,0.48417 z m -24.78263,-1.51155 c 0.24253,-0.0979 0.63941,-0.0979 0.88194,0 0.24254,0.0979 0.0441,0.17793 -0.44097,0.17793 -0.48507,0 -0.68351,-0.0801 -0.44097,-0.17793 z m -27.69941,-7.52748 c 0,-0.6791 0.0726,-0.95691 0.16134,-0.61736 0.0887,0.33955 0.0887,0.89517 0,1.23472 -0.0887,0.33955 -0.16134,0.0617 -0.16134,-0.61736 z m 0.32664,-3.52778 c 0,-0.48507 0.0801,-0.6835 0.17793,-0.44097 0.0979,0.24254 0.0979,0.63941 0,0.88195 -0.0979,0.24253 -0.17793,0.0441 -0.17793,-0.44098 z m 0.32492,-2.32245 c 0.0169,-0.41097 0.10052,-0.49456 0.21314,-0.21314 0.10191,0.25466 0.0894,0.55893 -0.0279,0.67616 -0.11723,0.11723 -0.20061,-0.0911 -0.18529,-0.46302 z m 0.35278,-2.11667 c 0.0169,-0.41096 0.10052,-0.49455 0.21314,-0.21313 0.1019,0.25466 0.0894,0.55893 -0.0279,0.67616 -0.11723,0.11722 -0.20061,-0.0911 -0.18529,-0.46303 z m 0.35278,-1.76389 c 0.0169,-0.41096 0.10052,-0.49455 0.21313,-0.21313 0.10191,0.25466 0.0894,0.55893 -0.0279,0.67616 -0.11722,0.11722 -0.2006,-0.0911 -0.18528,-0.46303 z m 111.09715,-0.28018 c 0,-0.0733 0.27781,-0.35107 0.61736,-0.61736 0.55952,-0.43881 0.572,-0.42633 0.13319,0.13319 -0.46086,0.58764 -0.75055,0.77452 -0.75055,0.48417 z m 3.52777,-3.88055 c 0,-0.0733 0.27782,-0.35107 0.61737,-0.61737 0.55952,-0.43881 0.572,-0.42633 0.13319,0.1332 -0.46086,0.58764 -0.75056,0.77451 -0.75056,0.48417 z m 3.72888,-3.70739 c -0.10634,-0.17205 0.0431,-0.50899 0.33195,-0.74876 0.36465,-0.30263 0.52528,-0.31485 0.52528,-0.04 0,0.21779 -0.16811,0.39598 -0.37359,0.39598 -0.20548,0 -0.27549,0.15875 -0.15557,0.35277 0.11991,0.19403 0.13865,0.35278 0.0416,0.35278 -0.097,0 -0.26339,-0.14076 -0.36971,-0.3128 z m -117.49971,-7.09553 c 0.35119,-0.38806 0.7179,-0.70556 0.81491,-0.70556 0.097,0 -0.11094,0.3175 -0.46213,0.70556 -0.35119,0.38805 -0.71789,0.70555 -0.81491,0.70555 -0.097,0 0.11095,-0.3175 0.46213,-0.70555 z m 2.99861,-3.3082 c 0,-0.0733 0.27782,-0.35106 0.61736,-0.61736 0.55953,-0.43881 0.57201,-0.42633 0.1332,0.1332 -0.46086,0.58764 -0.75056,0.77451 -0.75056,0.48416 z"
         id="path471" />
      <path
         style="fill:#79cdf8;stroke-width:0.352778"
         d="m -352.73008,-28.445602 c -21.1258,-2.197629 -38.24076,-17.71976 -42.74943,-38.770899 -0.91373,-4.266258 -0.90461,-15.492468 0.0161,-19.755555 0.9071,-4.200278 2.49077,-9.077364 4.32866,-13.330634 1.5063,-3.4859 2.0947,-4.65439 4.46519,-8.86726 0.92271,-1.63986 0.97961,-1.87494 0.39829,-1.64555 -0.37301,0.14719 -1.81891,0.56244 -3.2131,0.92278 -12.47855,3.22518 -26.26682,-2.07775 -33.44228,-12.86181 -9.23077,-13.87299 -6.49616,-30.25624 8.10062,-48.53141 2.76544,-3.46235 12.24435,-14.16231 12.40437,-14.00229 0.0497,0.0497 -0.54759,1.67275 -1.32734,3.60675 -4.04616,10.03571 -6.66019,22.17751 -6.66019,30.93559 v 3.80161 h -1.38551 c -1.82959,0 -2.84783,1.2153 -2.84783,3.39897 v 1.53992 h -1.59883 c -2.96707,0 -5.759,1.76607 -6.54185,4.13813 -1.20347,3.64654 2.29656,7.15076 7.14221,7.15076 2.96033,0 6.64292,-2.61434 6.64292,-4.71594 0,-1.09262 0.54178,-0.57063 1.14167,1.09997 1.5613,4.34795 6.16144,9.36343 10.57188,11.5264 3.74376,1.83602 7.45099,2.68084 12.81294,2.91986 l 4.59455,0.20481 1.4573,-1.93017 c 3.27695,-4.3403 8.9154,-10.98935 14.86172,-17.52543 3.46524,-3.80893 6.71671,-7.40158 7.22548,-7.98367 0.78901,-0.9027 0.61867,-0.29721 -1.15836,4.11747 -5.1941,12.90363 -8.67122,25.85669 -10.44807,38.92142 -0.935,6.874854 -0.86288,19.409613 0.14333,24.909859 3.57429,19.53816 14.40133,30.507979 32.88089,33.314502 4.46716,0.678434 14.48892,0.657494 20.21488,-0.04225 2.4996,-0.305459 4.63041,-0.469695 4.73514,-0.364966 0.319,0.318999 -6.63058,7.02479 -9.07502,8.756671 -7.46012,5.285486 -15.42748,8.238377 -24.51806,9.086959 -4.30384,0.401754 -5.09402,0.399638 -9.17222,-0.02459 z m -21.49528,-32.937714 c 8.70962,-2.58734 10.11765,-12.111242 2.34882,-15.887351 -1.82955,-0.889268 -2.14162,-1.171042 -1.95357,-1.763889 0.46606,-1.469235 0.48242,-6.341748 0.0243,-7.22128 -0.73532,-1.41157 -2.0718,-1.989444 -3.3636,-1.454365 -1.52713,0.632562 -1.93567,1.916624 -1.79011,5.626463 l 0.12393,3.158529 -1.5875,0.213635 c -5.62853,0.757446 -9.97286,5.825864 -8.84223,10.316006 1.42699,5.667071 8.48727,8.958858 15.04001,7.012252 z m 20.21556,-7.861657 c -0.43881,-0.559526 -0.42633,-0.572004 0.13319,-0.133194 0.33955,0.266294 0.61737,0.544106 0.61737,0.617361 0,0.29035 -0.2897,0.103473 -0.75056,-0.484167 z m 5.97608,-13.734736 c 0.25466,-0.101906 0.55893,-0.08938 0.67616,0.02783 0.11722,0.117224 -0.0911,0.200603 -0.46303,0.185286 -0.41096,-0.01693 -0.49455,-0.100521 -0.21313,-0.213135 z m 57.08402,-1.344623 c -2.65929,-0.551307 -6.5754,-1.773586 -8.0228,-2.504048 -0.77268,-0.389943 -1.04904,-0.968407 -1.69708,-3.552243 -1.60161,-6.3858 -5.46427,-15.053457 -9.72169,-21.815047 -1.74598,-2.77296 -1.85056,-3.03208 -0.82591,-2.04635 3.33292,3.20632 9.60342,3.08632 12.40006,-0.2373 0.53514,-0.63598 1.01534,-1.09671 1.06711,-1.02384 0.0518,0.0729 0.52596,1.17251 1.05374,2.44365 2.37511,5.7203 6.89996,10.56707 12.30209,13.177336 5.11476,2.47141 7.88478,3.079249 15.00203,3.291985 3.77672,0.112885 7.36246,0.02025 9.46637,-0.244581 1.86273,-0.234463 3.48324,-0.32984 3.60113,-0.211952 0.11789,0.117891 -0.64948,1.097862 -1.70526,2.177715 -4.81811,4.927956 -10.62529,8.288482 -17.40186,10.070203 -3.69946,0.972672 -11.90466,1.223554 -15.51793,0.474472 z m -22.42972,-32.431658 c -0.41094,-0.66492 -2.10137,-2.99076 -3.7565,-5.16854 l -3.00934,-3.95959 0.59514,-2.68077 c 2.08732,-9.40215 7.55902,-19.24846 16.87904,-30.37383 2.75822,-3.2925 12.18194,-13.75833 12.38838,-13.75833 0.0579,0 -0.44829,1.30968 -1.12492,2.91041 -4.82166,11.40671 -8.58028,28.17068 -8.58188,38.27639 -2.6e-4,1.59047 -0.0959,1.85208 -0.677,1.85208 -1.76929,0 -2.85108,1.44744 -2.85108,3.81474 v 1.38033 l -2.21523,0.17782 c -1.23595,0.0992 -2.86442,0.509 -3.68373,0.92699 -2.72207,1.38869 -4.17423,4.32002 -3.33407,6.7301 0.49069,1.40759 0.29561,1.36794 -0.62881,-0.1278 z m -96.45708,-22.6172 c -0.34042,-0.88713 -0.23999,-1.11603 0.17588,-0.40088 0.20591,0.3541 0.30007,0.71814 0.20924,0.80897 -0.0908,0.0908 -0.26413,-0.0928 -0.38512,-0.40809 z"
         id="path469" />
      <path
         style="fill:#6f92a8;stroke-width:0.352778"
         d="m -348.73928,-66.751931 c 0.25466,-0.101907 0.55893,-0.08938 0.67616,0.02783 0.11722,0.117225 -0.0911,0.200604 -0.46302,0.185286 -0.41097,-0.01693 -0.49456,-0.10052 -0.21314,-0.213134 z m 1.76389,0 c 0.25466,-0.101907 0.55893,-0.08938 0.67616,0.02783 0.11722,0.117225 -0.0911,0.200604 -0.46302,0.185286 -0.41097,-0.01693 -0.49456,-0.10052 -0.21314,-0.213134 z m 5.00503,-2.404847 c 0.45571,-0.48507 0.90792,-0.881945 1.00494,-0.881945 0.097,0 -0.19646,0.396875 -0.65216,0.881945 -0.4557,0.485069 -0.90792,0.881944 -1.00493,0.881944 -0.097,0 0.19645,-0.396875 0.65215,-0.881944 z m -31.62673,-13.581945 c 0,-1.649236 0.0608,-2.323923 0.13504,-1.499305 0.0743,0.824618 0.0743,2.173993 0,2.998611 -0.0743,0.824618 -0.13504,0.149931 -0.13504,-1.499306 z m 52.08785,-4.01375 c 0,-0.07325 0.27781,-0.351067 0.61736,-0.617361 0.55952,-0.43881 0.572,-0.426332 0.13319,0.133195 -0.46086,0.587639 -0.75055,0.774516 -0.75055,0.484166 z m 3.83555,-0.484166 c -0.43881,-0.559527 -0.42633,-0.572005 0.1332,-0.133195 0.58763,0.460858 0.77451,0.750556 0.48416,0.750556 -0.0732,0 -0.35107,-0.277813 -0.61736,-0.617361 z m -58.95708,-0.67461 c 0.24253,-0.09786 0.63941,-0.09786 0.88194,0 0.24254,0.09786 0.0441,0.177938 -0.44097,0.177938 -0.48507,0 -0.68351,-0.08007 -0.44097,-0.177938 z m 57.17205,-0.0073 c 0.25466,-0.101907 0.55893,-0.08938 0.67615,0.02783 0.11723,0.117225 -0.0911,0.200604 -0.46302,0.185286 -0.41096,-0.01693 -0.49456,-0.10052 -0.21313,-0.213134 z m 33.86666,-31.750001 c 0.25466,-0.1019 0.55894,-0.0894 0.67616,0.0278 0.11723,0.11722 -0.0911,0.2006 -0.46302,0.18528 -0.41097,-0.0169 -0.49456,-0.10052 -0.21314,-0.21313 z m 19.11615,-2.36166 c 0,-0.0733 0.27781,-0.35107 0.61736,-0.61736 0.55953,-0.43881 0.572,-0.42633 0.13319,0.13319 -0.46085,0.58764 -0.75055,0.77452 -0.75055,0.48417 z m -31.64069,-3.57097 c 0.002,-1.16417 0.0678,-1.59789 0.14636,-0.96382 0.0785,0.63406 0.0769,1.58656 -0.004,2.11666 -0.0805,0.53011 -0.14474,0.0113 -0.14276,-1.15284 z m 20.73243,1.38171 c 0.0169,-0.41097 0.10052,-0.49456 0.21313,-0.21314 0.10191,0.25466 0.0894,0.55893 -0.0278,0.67616 -0.11723,0.11723 -0.2006,-0.0911 -0.18529,-0.46302 z m -26.02769,-1.5581 c 0,-1.06715 0.0661,-1.50372 0.14696,-0.97014 0.0808,0.53358 0.0808,1.4067 0,1.94028 -0.0808,0.53357 -0.14696,0.097 -0.14696,-0.97014 z m 21.06095,0.21958 c 0,-0.0733 0.27781,-0.35106 0.61736,-0.61736 0.55953,-0.43881 0.572,-0.42633 0.13319,0.1332 -0.46085,0.58764 -0.75055,0.77451 -0.75055,0.48416 z m -16.62556,-3.30639 c -0.43881,-0.55952 -0.42633,-0.572 0.1332,-0.13319 0.58764,0.46086 0.77451,0.75055 0.48416,0.75055 -0.0733,0 -0.35106,-0.27781 -0.61736,-0.61736 z m -113.28486,-10.55238 c 0.24254,-0.0979 0.63941,-0.0979 0.88195,0 0.24253,0.0979 0.0441,0.17793 -0.44097,0.17793 -0.48507,0 -0.68351,-0.0801 -0.44098,-0.17793 z m 29.63334,0 c 0.24253,-0.0979 0.63941,-0.0979 0.88194,0 0.24254,0.0979 0.0441,0.17793 -0.44097,0.17793 -0.48507,0 -0.68351,-0.0801 -0.44097,-0.17793 z m -21.0097,-2.4122 c 0.007,-0.58208 0.0863,-0.7775 0.1757,-0.43426 0.0894,0.34324 0.0836,0.81949 -0.0131,1.05833 -0.0966,0.23885 -0.16982,-0.042 -0.16263,-0.62407 z m 13.01185,-0.0294 c 0.0169,-0.41096 0.10052,-0.49456 0.21314,-0.21313 0.1019,0.25466 0.0894,0.55893 -0.0278,0.67615 -0.11722,0.11723 -0.2006,-0.0911 -0.18528,-0.46302 z m 11.01758,-1.38172 c 0.002,-1.16417 0.0678,-1.59789 0.14635,-0.96382 0.0785,0.63406 0.0769,1.58656 -0.004,2.11667 -0.0805,0.5301 -0.14473,0.0113 -0.14275,-1.15285 z m -29.64175,0 c 0.003,-0.97014 0.0712,-1.32514 0.15225,-0.7889 0.0811,0.53624 0.0789,1.32999 -0.005,1.76389 -0.0837,0.43389 -0.15008,-0.005 -0.14743,-0.97499 z m 24.34166,0 c 0.003,-0.97014 0.0712,-1.32514 0.15225,-0.7889 0.0811,0.53624 0.0789,1.32999 -0.005,1.76389 -0.0837,0.43389 -0.15007,-0.005 -0.14743,-0.97499 z m -18.44534,0.0432 c 0,-0.0733 0.27781,-0.35106 0.61736,-0.61736 0.55953,-0.43881 0.57201,-0.42633 0.1332,0.1332 -0.46086,0.58764 -0.75056,0.77451 -0.75056,0.48416 z m 4.18834,-0.48416 c -0.43881,-0.55953 -0.42634,-0.57201 0.13319,-0.1332 0.33955,0.2663 0.61736,0.54411 0.61736,0.61736 0,0.29035 -0.2897,0.10348 -0.75055,-0.48416 z m 3.57277,0.48416 c 0,-0.0733 0.27782,-0.35106 0.61736,-0.61736 0.55953,-0.43881 0.57201,-0.42633 0.1332,0.1332 -0.46086,0.58764 -0.75056,0.77451 -0.75056,0.48416 z m 4.18834,-0.48416 c -0.43881,-0.55953 -0.42634,-0.57201 0.13319,-0.1332 0.33955,0.2663 0.61736,0.54411 0.61736,0.61736 0,0.29035 -0.2897,0.10348 -0.75055,-0.48416 z"
         id="path467" />
      <path
         style="fill:#637887;stroke-width:0.352778"
         d="m -356.75917,-77.652842 c 0.0169,-0.410968 0.10052,-0.494559 0.21313,-0.213138 0.10191,0.25466 0.0894,0.558935 -0.0278,0.676159 -0.11723,0.117225 -0.2006,-0.09114 -0.18529,-0.463021 z m -22.13424,-5.085881 c 0,-1.455208 0.0623,-2.05052 0.13838,-1.322916 0.0761,0.727604 0.0761,1.918229 0,2.645833 -0.0761,0.727604 -0.13838,0.132292 -0.13838,-1.322917 z m 94.33764,-36.922527 c 0.24253,-0.0979 0.63941,-0.0979 0.88194,0 0.24254,0.0979 0.0441,0.17794 -0.44097,0.17794 -0.48507,0 -0.68351,-0.0801 -0.44097,-0.17794 z m 5.73264,-2.01622 c 0,-0.0733 0.27781,-0.35107 0.61736,-0.61736 0.55952,-0.43881 0.572,-0.42634 0.13319,0.13319 -0.46086,0.58764 -0.75055,0.77452 -0.75055,0.48417 z m 13.51126,-4.10014 c 0,-1.06715 0.0661,-1.50372 0.14697,-0.97014 0.0808,0.53358 0.0808,1.4067 0,1.94028 -0.0808,0.53357 -0.14697,0.097 -0.14697,-0.97014 z m -25.50571,0.21958 c 0,-0.0733 0.27781,-0.35106 0.61736,-0.61736 0.55953,-0.43881 0.57201,-0.42633 0.1332,0.1332 -0.46086,0.58764 -0.75056,0.77451 -0.75056,0.48416 z m 2.05052,-1.16612 c 0.25466,-0.10191 0.55894,-0.0894 0.67616,0.0278 0.11723,0.11723 -0.0911,0.20061 -0.46302,0.18529 -0.41097,-0.0169 -0.49456,-0.10052 -0.21314,-0.21314 z m 8.46667,0 c 0.25466,-0.10191 0.55893,-0.0894 0.67616,0.0278 0.11722,0.11723 -0.0911,0.20061 -0.46302,0.18529 -0.41097,-0.0169 -0.49456,-0.10052 -0.21314,-0.21314 z m -122.39274,-13.07638 c -0.43881,-0.55952 -0.42633,-0.572 0.13319,-0.13319 0.58764,0.46086 0.77452,0.75055 0.48417,0.75055 -0.0733,0 -0.35107,-0.27781 -0.61736,-0.61736 z m -11.86048,-3.43958 c 0.004,-0.77611 0.0762,-1.05207 0.16054,-0.61325 0.0844,0.43883 0.0812,1.07383 -0.007,1.41111 -0.0883,0.33729 -0.15734,-0.0217 -0.15342,-0.79786 z"
         id="path465" />
      <path
         style="fill:#4d555f;stroke-width:0.352778"
         d="m -351.45659,-67.792421 c -3.21864,-1.603918 -5.17033,-5.150795 -5.07499,-9.222983 0.0554,-2.366232 0.94547,-3.931377 2.75299,-4.841039 1.18628,-0.597013 2.10496,-0.70527 5.9874,-0.705556 3.88858,-2.85e-4 4.79727,0.106977 5.97446,0.705221 2.23274,1.134678 2.84777,2.271984 2.82856,5.230611 -0.0204,3.146841 -1.05906,5.689992 -3.06332,7.500719 -2.78709,2.517972 -6.08829,2.985865 -9.4051,1.333027 z m -26.27313,-10.738573 c -0.89266,-0.702162 -0.92952,-0.870063 -0.92952,-4.233333 0,-3.031804 0.0948,-3.596936 0.70555,-4.207729 0.95168,-0.951678 2.51502,-0.901647 3.46629,0.110931 0.67318,0.716573 0.76704,1.214991 0.76704,4.072982 0,2.987139 -0.0716,3.328112 -0.86591,4.122399 -1.05785,1.057853 -1.92279,1.09493 -3.14345,0.13475 z m 57.206,0.184662 c -1.15561,-0.627275 -1.47452,-1.97969 -1.27972,-5.42706 0.0989,-1.74964 0.32549,-2.648517 0.79991,-3.172752 0.8268,-0.913599 2.3333,-0.940238 3.41977,-0.06047 0.72197,0.584616 0.84541,1.040299 0.95892,3.539624 0.14802,3.25949 -0.27537,4.677167 -1.57346,5.268616 -1.08334,0.493603 -1.15148,0.489268 -2.32542,-0.147958 z m 32.66085,-42.175508 c -2.86714,-1.39174 -3.88925,-3.3627 -2.59626,-5.00646 0.96171,-1.22262 2.35403,-1.24748 4.08484,-0.0729 0.71478,0.48507 1.74153,0.88194 2.28165,0.88194 0.54012,0 1.4537,-0.39687 2.03017,-0.88194 1.99821,-1.68139 4.65045,-0.84727 4.65045,1.46254 0,1.09727 -1.65688,2.93211 -3.3368,3.69519 -1.93804,0.88033 -5.21338,0.84426 -7.11405,-0.0784 z m -14.59637,-2.08077 c -0.55832,-0.55832 -0.70556,-1.17593 -0.70556,-2.95953 0,-2.71878 0.65602,-3.76897 2.38506,-3.81813 1.9033,-0.0541 2.55383,0.85751 2.55383,3.57884 0,2.91772 -0.58453,3.90437 -2.31306,3.90437 -0.74435,0 -1.48793,-0.2732 -1.92027,-0.70555 z m 32.99736,0.22926 c -0.45456,-0.33238 -0.70092,-1.07364 -0.81532,-2.45316 -0.22983,-2.77152 0.0858,-3.72844 1.41386,-4.28686 1.19322,-0.50172 1.84512,-0.39905 2.8284,0.44545 0.9087,0.78044 0.88815,5.35812 -0.0278,6.18702 -0.77994,0.70584 -2.50627,0.76045 -3.39917,0.10755 z m -129.3263,-15.38044 c -2.65027,-0.8042 -4.56551,-2.51851 -4.56551,-4.08653 0,-2.19926 2.6754,-3.20549 4.34714,-1.63498 0.5023,0.4719 1.26865,0.76436 2.00286,0.76436 0.73422,0 1.50056,-0.29246 2.00287,-0.76436 1.68898,-1.58672 4.34713,-0.56343 4.34713,1.67349 0,0.91092 -0.30017,1.40948 -1.43175,2.37808 -1.95496,1.67337 -4.5559,2.32138 -6.70274,1.66994 z m -14.79606,-2.48771 c -1.08505,-1.08505 -1.01415,-4.87878 0.11093,-5.93573 1.06968,-1.00491 2.18663,-0.971 3.25649,0.0989 0.72838,0.72838 0.86591,1.20463 0.86591,2.99861 0,2.48368 -0.73873,3.54382 -2.46944,3.54382 -0.58797,0 -1.37192,-0.31358 -1.76389,-0.70556 z m 29.63333,0 c -0.55919,-0.55919 -0.70556,-1.17592 -0.70556,-2.97301 0,-2.02937 0.0976,-2.34421 0.92952,-2.99861 0.51124,-0.40214 1.2042,-0.73116 1.53993,-0.73116 0.33572,0 1.02869,0.32902 1.53992,0.73116 0.83193,0.6544 0.92952,0.96924 0.92952,2.99861 0,2.62707 -0.70587,3.67857 -2.46944,3.67857 -0.58797,0 -1.37192,-0.31358 -1.76389,-0.70556 z"
         id="path463" />
    </g>
  </g>
</svg>
