<?xml version="1.0" encoding="UTF-8" standalone="no"?>
<!-- Created with Inkscape (http://www.inkscape.org/) -->

<svg
   width="323.88171mm"
   height="233.44446mm"
   viewBox="0 0 323.88173 233.44447"
   version="1.1"
   id="svg902"
   xmlns="http://www.w3.org/2000/svg"
   xmlns:svg="http://www.w3.org/2000/svg">
  <defs
     id="defs899" />
  <g
     id="layer1"
     transform="translate(29.581901,-49.967226)">
    <g
       id="g4320"
       transform="translate(338.71319,28.184943)">
      <g
         id="g3114"
         transform="translate(189.85173,-77.573826)">
        <path
           style="fill:#cccbd1;stroke-width:0.565137"
           d="m -382.89564,318.95208 c -1.80903,-1.7992 -3.85133,-5.66611 -4.86296,-9.20761 -0.8861,-3.10204 -0.8886,-3.26221 -1.00311,-64.10059 -0.0797,-42.29845 0.0243,-62.25868 0.33902,-65.12768 0.59717,-5.44391 2.50461,-10.08014 5.27336,-12.81748 l 2.19613,-2.17122 h 62.93721 c 70.83201,0 65.75752,-0.42787 69.06043,5.8229 3.21045,6.07577 3.10311,3.41975 2.97286,73.55919 -0.11435,61.59146 -0.11654,61.73181 -1.00294,64.83488 -0.48857,1.71038 -1.50531,4.22909 -2.25942,5.59712 -2.90385,5.26776 2.24226,4.90169 -68.42197,4.86731 -57.45141,-0.028 -64.12223,-0.15646 -65.22861,-1.25682 z"
           id="path3124" />
        <path
           style="fill:#a3adb9;stroke-width:0.352778"
           d="m -239.20518,328.03965 c 0.65821,-0.6791 1.27611,-1.23472 1.37313,-1.23472 0.097,0 -0.36215,0.55562 -1.02035,1.23472 -0.65821,0.6791 -1.27612,1.23472 -1.37313,1.23472 -0.097,0 0.36214,-0.55562 1.02035,-1.23472 z m -162.30448,-0.0882 -0.85524,-0.97014 0.97014,0.85524 c 0.53358,0.47039 0.97014,0.90695 0.97014,0.97014 0,0.27667 -0.28568,0.0515 -1.08504,-0.85524 z m 20.17913,-16.91709 c -1.80519,-0.63793 -3.83671,-2.54614 -4.81829,-4.52586 -0.6698,-1.3509 -0.6972,-2.37068 -0.79032,-29.41471 -0.11043,-32.07024 -0.21716,-30.73813 2.68816,-33.55109 2.20785,-2.13766 3.49479,-2.46278 9.74854,-2.46278 h 5.20283 l -1.88592,0.98522 c -2.37766,1.2421 -4.01566,3.34585 -4.52848,5.81609 -0.27027,1.30185 -0.35949,10.35906 -0.29113,29.55251 0.10974,30.80982 -0.0705,28.56877 2.51932,31.32142 2.40891,2.56034 -2.86351,2.33139 58.25703,2.52973 l 55.03333,0.17859 -59.79583,0.0582 c -53.141,0.0517 -59.9676,-0.002 -61.33924,-0.48727 z m 124.48646,-1.27316 c 0,-0.0607 0.51594,-0.57665 1.14653,-1.14653 l 1.14653,-1.03614 -1.03614,1.14653 c -0.96583,1.06872 -1.25692,1.30868 -1.25692,1.03614 z m 3.20285,-5.38707 c 0.0169,-0.41097 0.10052,-0.49456 0.21314,-0.21314 0.1019,0.25466 0.0894,0.55894 -0.0278,0.67616 -0.11722,0.11723 -0.2006,-0.0911 -0.18528,-0.46302 z m -57.8834,-24.26907 c 0,-0.0733 0.27781,-0.35107 0.61736,-0.61736 0.55952,-0.43881 0.572,-0.42634 0.13319,0.13319 -0.46086,0.58764 -0.75055,0.77452 -0.75055,0.48417 z m -36.56005,-5.33486 c 0.001,-1.94028 0.0602,-2.68902 0.13165,-1.66387 0.0715,1.02515 0.0707,2.61265 -0.002,3.52777 -0.0724,0.91513 -0.1309,0.0764 -0.12998,-1.8639 z m -5.64806,0 c -10e-4,-1.74625 0.0586,-2.50511 0.13256,-1.68634 0.074,0.81876 0.0749,2.24751 0.002,3.175 -0.0729,0.92748 -0.13345,0.25759 -0.13452,-1.48866 z m 28.052,0.61736 c -0.43881,-0.55953 -0.42634,-0.57201 0.13319,-0.1332 0.58764,0.46086 0.77452,0.75056 0.48417,0.75056 -0.0733,0 -0.35107,-0.27781 -0.61736,-0.61736 z m -2.13782,-1.03474 c 0.25466,-0.10191 0.55893,-0.0894 0.67616,0.0278 0.11723,0.11722 -0.0911,0.2006 -0.46302,0.18528 -0.41097,-0.0169 -0.49456,-0.10052 -0.21314,-0.21313 z m 14.79462,0.007 c 0.24254,-0.0979 0.63941,-0.0979 0.88195,0 0.24253,0.0979 0.0441,0.17794 -0.44098,0.17794 -0.48507,0 -0.6835,-0.0801 -0.44097,-0.17794 z m 52.58594,-33.16846 c 0.25466,-0.10191 0.55893,-0.0894 0.67616,0.0278 0.11722,0.11723 -0.0911,0.20061 -0.46302,0.18529 -0.41097,-0.0169 -0.49456,-0.10052 -0.21314,-0.21313 z m -27.09774,-22.86595 c 0.4557,-0.48507 0.90791,-0.88194 1.00493,-0.88194 0.097,0 -0.19646,0.39687 -0.65216,0.88194 -0.4557,0.48507 -0.90792,0.88195 -1.00493,0.88195 -0.097,0 0.19645,-0.39688 0.65216,-0.88195 z m -45.57448,-0.41737 c 0.25466,-0.10191 0.55893,-0.0894 0.67616,0.0278 0.11722,0.11723 -0.0911,0.20061 -0.46303,0.18529 -0.41096,-0.0169 -0.49455,-0.10052 -0.21313,-0.21314 z m 2.46944,-0.35278 c 0.25466,-0.10191 0.55893,-0.0894 0.67616,0.0278 0.11722,0.11723 -0.0911,0.20061 -0.46302,0.18529 -0.41097,-0.0169 -0.49456,-0.10052 -0.21314,-0.21313 z m 20.81389,0 c 0.25466,-0.10191 0.55893,-0.0894 0.67616,0.0278 0.11722,0.11723 -0.0911,0.20061 -0.46302,0.18529 -0.41097,-0.0169 -0.49456,-0.10052 -0.21314,-0.21313 z m -18.01372,-0.34543 c 0.24254,-0.0979 0.63941,-0.0979 0.88195,0 0.24253,0.0979 0.0441,0.17794 -0.44097,0.17794 -0.48507,0 -0.68351,-0.0801 -0.44098,-0.17794 z m 14.83872,-0.007 c 0.25466,-0.1019 0.55893,-0.0894 0.67616,0.0278 0.11722,0.11722 -0.0911,0.2006 -0.46302,0.18528 -0.41097,-0.0169 -0.49456,-0.10052 -0.21314,-0.21313 z m -53.11433,-27.0993 c 0.004,-0.77611 0.0762,-1.05207 0.16054,-0.61325 0.0844,0.43883 0.0812,1.07383 -0.007,1.41111 -0.0883,0.33729 -0.15734,-0.0218 -0.15342,-0.79786 z m 13.93395,0.64831 c 0.24253,-0.0979 0.63941,-0.0979 0.88194,0 0.24254,0.0979 0.0441,0.17793 -0.44097,0.17793 -0.48507,0 -0.68351,-0.0801 -0.44097,-0.17793 z m 14.48594,-6.35735 c 0.25466,-0.10191 0.55893,-0.0894 0.67615,0.0279 0.11723,0.11722 -0.0911,0.2006 -0.46302,0.18529 -0.41097,-0.0169 -0.49456,-0.10053 -0.21313,-0.21314 z m 34.57222,0 c 0.25466,-0.10191 0.55893,-0.0894 0.67616,0.0279 0.11722,0.11722 -0.0911,0.2006 -0.46302,0.18529 -0.41097,-0.0169 -0.49456,-0.10053 -0.21314,-0.21314 z m -60.43525,-0.81735 c 0.35119,-0.38805 0.7179,-0.70555 0.81491,-0.70555 0.097,0 -0.11094,0.3175 -0.46213,0.70555 -0.35118,0.38806 -0.71789,0.70556 -0.81491,0.70556 -0.097,0 0.11095,-0.3175 0.46213,-0.70556 z m 43.14914,0.46457 c 0.25466,-0.10191 0.55893,-0.0894 0.67615,0.0279 0.11723,0.11723 -0.0911,0.20061 -0.46302,0.18529 -0.41096,-0.0169 -0.49456,-0.10052 -0.21313,-0.21314 z m 85.81899,-2.08147 c 0.0169,-0.41096 0.10052,-0.49456 0.21314,-0.21313 0.1019,0.25466 0.0894,0.55893 -0.0278,0.67615 -0.11722,0.11723 -0.2006,-0.0911 -0.18528,-0.46302 z m -72.76622,-11.32409 c 0.25466,-0.1019 0.55894,-0.0894 0.67616,0.0279 0.11723,0.11722 -0.0911,0.2006 -0.46302,0.18528 -0.41097,-0.0169 -0.49456,-0.10052 -0.21314,-0.21313 z m -20.83593,-0.6982 c 0.24253,-0.0979 0.63941,-0.0979 0.88194,0 0.24254,0.0979 0.0441,0.17793 -0.44097,0.17793 -0.48507,0 -0.68351,-0.0801 -0.44097,-0.17793 z m 15.16944,0 c 0.24254,-0.0979 0.63941,-0.0979 0.88195,0 0.24253,0.0979 0.0441,0.17793 -0.44098,0.17793 -0.48507,0 -0.6835,-0.0801 -0.44097,-0.17793 z m 47.29427,-17.64624 c 0.25466,-0.10191 0.55894,-0.0894 0.67616,0.0279 0.11722,0.11723 -0.0911,0.2006 -0.46302,0.18529 -0.41097,-0.0169 -0.49456,-0.10052 -0.21314,-0.21314 z"
           id="path3122" />
        <path
           style="fill:#fb5e7d;stroke-width:0.352778"
           d="m -326.69407,216.68341 c 0,-1.47771 3.6057,-23.01004 3.94381,-23.55144 0.93507,-1.49729 3.18996,-1.85955 4.61203,-0.74095 1.11044,0.87347 0.97515,0.27891 2.89092,12.70558 0.88241,5.72382 1.68536,10.75697 1.78432,11.18477 l 0.17993,0.77784 -6.7055,-0.002 c -4.44888,-0.002 -6.70551,-0.12742 -6.70551,-0.37333 z"
           id="path3120" />
        <path
           style="fill:#768799;stroke-width:0.352778"
           d="m -391.67132,332.56116 c 0.25466,-0.1019 0.55893,-0.0894 0.67615,0.0278 0.11723,0.11722 -0.0911,0.2006 -0.46302,0.18528 -0.41096,-0.0169 -0.49456,-0.10052 -0.21313,-0.21313 z m 8.53281,-0.26453 c -4.63925,-1.29295 -8.38286,-4.47119 -10.50745,-8.92059 l -1.31061,-2.74472 -0.0917,-69.07464 c -0.0882,-66.43153 -0.0663,-69.19892 0.57191,-72.32298 2.53402,-12.40423 12.23299,-22.61673 24.74356,-26.05365 l 2.99844,-0.82373 h 51.15277 c 54.24247,0 52.74522,-0.0427 58.03195,1.65527 9.8997,3.17956 18.0698,11.25642 21.5209,21.27528 1.81528,5.26995 1.76243,3.00156 1.76243,75.64293 0,73.90839 0.11884,69.55985 -2.00771,73.46701 -2.09111,3.84206 -7.10612,7.3229 -11.61408,8.06115 -3.35862,0.55001 -133.25397,0.39508 -135.25043,-0.16133 z m 123.5515,-21.03001 c 2.0755,-0.57642 4.21948,-2.4158 5.30058,-4.54751 l 0.97014,-1.91292 v -28.20623 c 0,-20.59845 -0.1119,-28.57971 -0.41487,-29.59095 -0.5427,-1.81135 -2.89191,-4.4511 -4.68675,-5.2664 -1.36382,-0.6195 -3.98861,-0.64752 -61.35606,-0.65493 -46.45341,-0.006 -60.25729,0.0899 -61.3809,0.42656 -0.838,0.25107 -2.14429,1.10691 -3.09611,2.02847 -2.90532,2.81296 -2.79859,1.48085 -2.68816,33.55109 0.0931,27.04403 0.12052,28.06381 0.79032,29.41471 0.38162,0.76967 1.27459,1.98014 1.98437,2.68993 2.55851,2.5585 -2.21455,2.37847 63.82038,2.40723 39.94488,0.0174 59.87407,-0.0938 60.75706,-0.33905 z m -61.90359,-28.087 c 0.24254,-0.0979 0.63941,-0.0979 0.88195,0 0.24253,0.0979 0.0441,0.17794 -0.44097,0.17794 -0.48507,0 -0.68351,-0.0801 -0.44098,-0.17794 z m 1.76389,0 c 0.24254,-0.0979 0.63941,-0.0979 0.88195,0 0.24253,0.0979 0.0441,0.17794 -0.44097,0.17794 -0.48507,0 -0.68351,-0.0801 -0.44098,-0.17794 z m -10.82006,-5.96937 c 0.0169,-0.41096 0.10052,-0.49456 0.21313,-0.21313 0.10191,0.25466 0.0894,0.55893 -0.0278,0.67615 -0.11723,0.11723 -0.2006,-0.0911 -0.18529,-0.46302 z m -10.6522,-57.28526 c 13.38791,-3.82666 28.66851,-3.82219 42.19796,0.0123 3.08462,0.87425 4.32991,1.06549 6.07137,0.93242 2.53565,-0.19377 4.87759,-1.38496 6.24339,-3.17561 0.94553,-1.23966 11.47434,-22.91238 12.20163,-25.11611 0.58516,-1.77306 0.27452,-4.96636 -0.66164,-6.80138 -0.40787,-0.79948 -1.45969,-2.05799 -2.33738,-2.79668 -2.0381,-1.71532 -7.24977,-4.72381 -7.70055,-4.44522 -0.18914,0.1169 -0.24388,0.0507 -0.12163,-0.14708 0.12671,-0.20503 -1.40425,-1.12234 -3.56147,-2.13393 -7.46215,-3.49926 -17.13402,-5.90318 -26.27331,-6.53019 l -2.02847,-0.13917 -0.0791,6.02625 -0.0791,6.02624 -0.10585,-5.90902 -0.10586,-5.90903 -2.72549,-0.0406 c -1.49903,-0.0223 -3.75738,-0.0121 -5.01856,0.0226 -3.17944,0.0876 -11.43963,1.36345 -11.5836,1.78916 -0.0651,0.19242 -0.23867,0.27549 -0.38575,0.18458 -0.44841,-0.27713 -7.77092,1.79292 -11.04188,3.12149 -3.83185,1.55639 -5.36298,2.33437 -8.8549,4.49927 -1.51909,0.94179 -2.85404,1.71235 -2.96656,1.71235 -0.11252,0 -1.01436,0.61139 -2.0041,1.35865 -3.04286,2.29738 -4.61936,6.28446 -3.75465,9.49578 0.70998,2.63664 11.6162,24.86845 12.82261,26.13826 1.58404,1.66728 4.26478,2.86353 6.42652,2.86775 0.97055,0.002 3.41238,-0.46753 5.4263,-1.04316 z m -8.04502,-31.96751 c 0.0169,-0.41097 0.10052,-0.49456 0.21313,-0.21314 0.10191,0.25466 0.0894,0.55893 -0.0278,0.67616 -0.11723,0.11722 -0.20061,-0.0911 -0.18529,-0.46302 z m -56.79723,130.175 c 0.0169,-0.41097 0.10052,-0.49456 0.21314,-0.21314 0.10191,0.25466 0.0894,0.55893 -0.0279,0.67616 -0.11723,0.11722 -0.2006,-0.0911 -0.18529,-0.46302 z m 0.0409,-134.73172 c 0.007,-0.58208 0.0863,-0.7775 0.1757,-0.43426 0.0894,0.34325 0.0836,0.8195 -0.0131,1.05834 -0.0966,0.23884 -0.16981,-0.042 -0.16262,-0.62408 z m 0.31185,-2.85162 c 0.0169,-0.41096 0.10052,-0.49456 0.21314,-0.21313 0.10191,0.25466 0.0894,0.55893 -0.0279,0.67615 -0.11723,0.11723 -0.20061,-0.0911 -0.18529,-0.46302 z m 8.43882,-17.25671 c 0.4557,-0.48507 0.90792,-0.88194 1.00493,-0.88194 0.097,0 -0.19646,0.39687 -0.65215,0.88194 -0.4557,0.48507 -0.90792,0.88194 -1.00494,0.88194 -0.097,0 0.19646,-0.39687 0.65216,-0.88194 z m 2.29305,-2.29306 c 0.35119,-0.38805 0.7179,-0.70555 0.81491,-0.70555 0.097,0 -0.11094,0.3175 -0.46213,0.70555 -0.35118,0.38806 -0.71789,0.70556 -0.81491,0.70556 -0.097,0 0.11095,-0.3175 0.46213,-0.70556 z m 17.04358,-8.35487 c 0.25466,-0.10191 0.55893,-0.0894 0.67616,0.0279 0.11722,0.11722 -0.0911,0.2006 -0.46302,0.18528 -0.41097,-0.0169 -0.49456,-0.10052 -0.21314,-0.21313 z m 2.6305,-0.35626 c 0.34324,-0.0894 0.81949,-0.0836 1.05833,0.0131 0.23884,0.0966 -0.042,0.16981 -0.62407,0.16262 -0.58209,-0.007 -0.7775,-0.0863 -0.43426,-0.17569 z"
           id="path3118" />
        <path
           style="fill:#546371;stroke-width:0.352778"
           d="m -392.66351,332.40502 c -6.48438,-1.05157 -12.00751,-6.79048 -13.05003,-13.55991 -0.26046,-1.69125 -0.34219,-23.25975 -0.26459,-69.82768 0.10581,-63.49458 0.14898,-67.53296 0.74845,-70.0232 3.15236,-13.09501 13.37457,-23.23246 26.15327,-25.93643 1.75839,-0.37207 4.9383,-0.63913 8.46151,-0.71063 3.10444,-0.063 5.16819,-0.0364 4.58611,0.0592 -0.58208,0.0956 -2.32825,0.49407 -3.88038,0.88558 -12.04527,3.03831 -22.04553,13.59811 -24.56717,25.94175 -0.63821,3.12406 -0.66009,5.89145 -0.57191,72.32298 l 0.0917,69.07464 1.31061,2.74472 c 2.12459,4.4494 5.8682,7.62764 10.50745,8.92059 1.48045,0.4126 1.27825,0.44178 -2.99861,0.43273 -2.52236,-0.005 -5.45924,-0.15128 -6.52639,-0.32434 z m 70.63595,-49.38653 c -3.91358,-0.49579 -8.19429,-3.54537 -8.19429,-5.83764 0,-2.5984 2.46871,-3.36109 4.80219,-1.48361 3.49678,2.81345 7.36009,2.79744 10.59622,-0.0439 1.51135,-1.32698 2.99497,-1.39541 4.19679,-0.19358 1.31855,1.31854 1.13194,2.52791 -0.65415,4.23929 -2.74808,2.63312 -6.65025,3.83843 -10.74676,3.31947 z m -30.61171,-3.64614 c -0.81035,-0.81034 -0.86591,-1.10564 -0.86591,-4.60214 0,-3.4965 0.0556,-3.7918 0.86591,-4.60215 0.47625,-0.47625 1.27722,-0.86591 1.77992,-0.86591 0.50271,0 1.30368,0.38966 1.77993,0.86591 0.81316,0.81316 0.86591,1.09955 0.86591,4.70101 0,3.55265 -0.0601,3.89159 -0.81649,4.60214 -1.08309,1.01751 -2.5326,0.97781 -3.60927,-0.0989 z m 61.52664,0.19175 c -0.74466,-0.6028 -0.84592,-1.01475 -0.95653,-3.89146 -0.14176,-3.68695 0.0391,-4.6984 1.01462,-5.67391 0.92271,-0.9227 2.20652,-0.88117 3.3572,0.1086 0.78673,0.67672 0.96597,1.17757 1.12344,3.1392 0.24347,3.03318 -0.13622,5.46056 -0.98726,6.3116 -0.86847,0.86847 -2.48262,0.87118 -3.55147,0.006 z m -61.96797,-89.17049 c -0.43243,-0.17341 -5.89541,-8.07022 -6.28465,-9.08455 -0.11542,-0.30079 0.58819,-0.94367 1.91481,-1.74955 1.1535,-0.70071 2.17334,-1.27402 2.2663,-1.27402 0.093,0 1.46126,1.9508 3.04066,4.33512 3.10511,4.68759 3.48926,5.98336 2.16608,7.30654 -0.6644,0.6644 -2.07921,0.87707 -3.1032,0.46646 z m 62.78414,-0.57739 c -0.42188,-0.44907 -0.76705,-1.20407 -0.76705,-1.67779 0,-0.49397 1.28711,-2.78846 3.0179,-5.37991 l 3.0179,-4.51861 2.00919,1.11994 c 1.10504,0.61597 2.12548,1.22672 2.26764,1.35723 0.25726,0.23618 -4.45768,7.60931 -5.83322,9.12188 -0.96853,1.065 -2.70045,1.05439 -3.71236,-0.0227 z m -49.02541,-6.4038 c -0.59165,-0.75216 -2.89442,-8.8396 -2.89442,-10.16535 0,-0.51447 4.60889,-1.78844 4.97802,-1.376 0.31968,0.35718 2.43031,9.08335 2.43031,10.04783 0,2.10227 -3.20176,3.16165 -4.51391,1.49352 z m 34.66038,0.004 c -0.47625,-0.47625 -0.86591,-1.03995 -0.86591,-1.25267 0,-0.47033 2.47544,-10.35224 2.63264,-10.50943 0.11848,-0.11848 4.42929,0.94864 4.82824,1.19521 0.46146,0.28519 -2.38485,10.46003 -3.06526,10.95757 -1.02039,0.74612 -2.56373,0.5753 -3.52971,-0.39068 z m -17.42086,-0.41639 c -0.67594,-0.85932 -0.73116,-1.39218 -0.73116,-7.05556 v -6.12603 h 2.64583 2.64583 v 6.35 c 0,5.87963 -0.0523,6.40226 -0.70555,7.05555 -1.05045,1.05046 -2.93879,0.94075 -3.85495,-0.22396 z"
           id="path3116" />
      </g>
    </g>
    <g
       id="g1040"
       transform="translate(188.73755,-80.475091)" />
    <g
       id="g4751"
       transform="translate(-17.39828,-248.27902)">
      <path
         style="fill:#7ee0fd;stroke-width:0.264583"
         d="m 30.650445,531.4838 c -0.800365,-0.13401 -2.288646,-0.64027 -3.307292,-1.12502 -1.888667,-0.89878 -4.630208,-2.88128 -4.630208,-3.34826 0,-0.1588 1.871885,-0.25843 4.855311,-0.25843 5.026294,0 6.329722,-0.20511 6.791941,-1.06877 0.435522,-0.81378 0.297225,-1.98959 -0.297376,-2.52824 -0.507772,-0.46001 -1.147755,-0.51559 -7.326632,-0.63632 l -6.770259,-0.1323 -0.588962,-1.52135 -0.58896,-1.52135 h 5.881327 c 5.553064,0 5.913649,-0.0301 6.460387,-0.53948 0.752152,-0.70073 0.77747,-2.17253 0.04989,-2.90011 -0.501211,-0.50121 -0.882116,-0.52918 -7.209896,-0.5294 l -6.680729,-2.4e-4 -0.57735,-1.58726 -0.577352,-1.58726 h 5.814898 5.814899 l 0.64943,-0.64944 c 1.123347,-1.12334 0.767913,-2.77719 -0.707379,-3.29149 -1.041226,-0.36297 -12.846595,-0.40438 -12.974785,-0.0455 -0.04851,0.1358 -0.346816,-0.51904 -0.66291,-1.4552 l -0.574715,-1.70211 5.469508,-0.004 c 5.867712,-0.004 6.468617,-0.11681 7.155838,-1.34118 0.524182,-0.9339 0.204473,-1.99248 -0.750985,-2.48657 -1.041628,-0.53865 -13.232902,-0.60395 -13.247579,-0.071 -0.005,0.1819 -0.361758,-0.56224 -0.792777,-1.65364 -0.431019,-1.09141 -0.784216,-1.98438 -0.784882,-1.98438 -6.61e-4,0 2.632301,0.0343 5.851037,0.0761 6.377355,0.083 6.873401,-0.0123 7.218222,-1.38616 0.136091,-0.54222 -0.287086,-1.92791 -0.707517,-2.31676 -0.03264,-0.0302 -3.147978,-0.11948 -6.922963,-0.19843 l -6.8636121,-0.14356 -0.5889608,-1.52135 -0.5889607,-1.52136 h 5.7632456 c 5.429889,0 5.80357,-0.0317 6.460385,-0.54837 0.873532,-0.68712 0.955813,-2.10337 0.167973,-2.89121 -0.50121,-0.50121 -0.882115,-0.52918 -7.209895,-0.5294 l -6.6807289,-2.4e-4 -0.572289,-1.57336 -0.5722889,-1.57337 5.9539188,-0.08 c 5.893271,-0.0792 5.959065,-0.0864 6.459268,-0.70467 0.645485,-0.79784 0.645361,-1.92192 -2.65e-4,-2.7195 L 17.20377,479.25938 H 10.454015 3.7042601 L 3.3586492,478.20105 C 3.167823,477.6167 2.4626563,476.58927 1.78412,475.90696 c -1.56574699,-1.57443 -3.7130563,-2.28986 -7.778465,-2.59158 -3.4306876,-0.25461 -3.9942628,-0.44235 -5.09655,-1.69778 -0.918861,-1.04653 -1.268895,-2.33567 -1.009551,-3.71809 0.245513,-1.3087 2.2413514,-3.87769 3.7514762,-4.8288 2.6214807,-1.65107 -1.9202482,-1.53841 62.0181638,-1.53841 54.877466,0 58.711116,0.0293 60.270336,0.46049 4.88869,1.35196 7.58753,4.08689 8.81434,8.93222 0.53128,2.09832 0.46529,8.42533 -0.12555,12.03854 -1.16496,7.1241 -5.90444,22.76189 -7.331,24.18845 -2.04541,2.04542 -5.36168,0.59847 -5.3196,-2.32103 0.008,-0.53094 0.31389,-2.75128 0.68055,-4.93409 1.65348,-9.84386 1.90998,-16.90567 0.72607,-19.98966 -0.96058,-2.50225 -3.0601,-3.99749 -5.66875,-4.03721 -2.28798,-0.0348 -1.88356,-0.90081 -11.15887,23.89458 -4.599802,12.29651 -8.775668,23.20745 -9.279699,24.24654 -1.551366,3.19821 -4.137059,5.43775 -8.028276,6.95351 l -1.751427,0.68224 -21.695833,0.0403 c -12.206781,0.0227 -22.332292,-0.0663 -23.15104,-0.20337 z m 27.298561,-31.64896 c 0.680408,-0.30374 1.781736,-1.05429 2.447396,-1.66787 0.961959,-0.8867 1.210291,-1.29269 1.210291,-1.97864 0,-2.09643 -2.056161,-2.78485 -3.784713,-1.26717 -0.512818,0.45027 -1.373211,0.96414 -1.91198,1.14195 -1.229392,0.40574 -3.34169,0.21813 -4.143996,-0.36806 -0.335693,-0.24527 -1.014913,-0.73965 -1.509374,-1.09862 -1.177862,-0.8551 -1.749187,-0.82329 -2.724158,0.15168 -0.670639,0.67064 -0.776692,0.94264 -0.637963,1.63628 0.275423,1.37712 1.560179,2.49475 4.100398,3.56702 1.890893,0.79818 5.022612,0.74569 6.954099,-0.11657 z m -23.613598,-2.09031 c 0.469434,-0.59679 0.54837,-1.06771 0.54837,-3.27161 0,-2.20389 -0.07894,-2.67481 -0.54837,-3.27161 -0.736515,-0.93632 -2.125088,-0.95815 -3.03553,-0.0477 -0.60371,0.6037 -0.649433,0.8374 -0.649433,3.31931 0,2.48192 0.04572,2.71561 0.649433,3.31932 0.910442,0.91044 2.299015,0.88862 3.03553,-0.0477 z m 42.672863,0.33644 c 0.697524,-0.52995 1.002588,-1.62102 1.002588,-3.58579 0,-2.92131 -0.602779,-3.99101 -2.248958,-3.99101 -1.646179,0 -2.248958,1.0697 -2.248958,3.99101 0,2.81272 0.63923,3.92966 2.248958,3.92966 0.436562,0 0.997429,-0.15474 1.24637,-0.34387 z"
         id="path4757" />
      <path
         style="fill:#44b5d8;stroke-width:0.264583"
         d="m 21.652601,525.55854 c -0.451651,-0.65645 -0.994751,-1.60895 -1.206886,-2.11667 l -0.385704,-0.92311 h 6.582452 c 6.25866,0 6.616744,0.027 7.279592,0.54837 0.73982,0.58194 0.927401,1.702 0.438142,2.61619 -0.46449,0.8679 -1.763448,1.06877 -6.911522,1.06877 h -4.974892 z m -3.454789,-7.98982 c -0.354332,-0.97628 -0.683929,-1.86925 -0.732435,-1.98438 -0.04851,-0.11513 2.898288,-0.20933 6.548437,-0.20933 6.283854,0 6.664759,0.0281 7.165798,0.52916 0.72758,0.72758 0.702262,2.19938 -0.04989,2.90011 -0.546571,0.50921 -0.907495,0.53948 -6.433362,0.53948 h -5.854306 z m -2.726742,-7.28694 c -0.383995,-1.05503 -0.697601,-2.00753 -0.6969,-2.11667 0.0021,-0.32327 11.984831,-0.2362 12.931963,0.094 1.475292,0.5143 1.830726,2.16815 0.707379,3.29149 l -0.64943,0.64944 h -5.79742 -5.797418 z m -2.649344,-7.09274 c -0.380663,-1.02698 -0.692114,-1.97948 -0.692114,-2.11667 0,-0.14915 2.505403,-0.24945 6.230848,-0.24945 5.054221,0 6.377532,0.0759 7.007624,0.40169 0.955458,0.49409 1.275167,1.55267 0.750985,2.48657 -0.687046,1.22406 -1.288764,1.33699 -7.145781,1.34118 l -5.459449,0.004 z m 39.739525,-2.81144 c 0.190995,-0.0764 0.419198,-0.067 0.507119,0.0209 0.08792,0.0879 -0.06835,0.15045 -0.347266,0.13896 -0.308226,-0.0127 -0.370919,-0.0754 -0.159853,-0.15985 z m 2.910417,0 c 0.190994,-0.0764 0.4192,-0.067 0.507119,0.0209 0.08792,0.0879 -0.06835,0.15045 -0.347266,0.13896 -0.308226,-0.0127 -0.370919,-0.0754 -0.159853,-0.15985 z m -7.772244,-2.53124 -0.777105,-0.8599 0.859896,0.77711 c 0.472943,0.42741 0.859896,0.81436 0.859896,0.8599 0,0.2044 -0.218316,0.0244 -0.942687,-0.77711 z m -16.553563,-0.13229 c -0.329107,-0.41965 -0.319749,-0.429 0.0999,-0.0999 0.254662,0.19972 0.463021,0.40808 0.463021,0.46302 0,0.21777 -0.217273,0.0776 -0.562917,-0.36312 z m -20.437333,-0.27552 c -0.07117,-0.11515 -0.430048,-1.00812 -0.7975081,-1.98437 L 9.24291,493.67917 h 6.448796 c 3.546837,0 6.641528,0.074 6.877094,0.16436 0.645935,0.24787 1.23897,1.5825 1.045567,2.35307 -0.340391,1.35623 -0.800991,1.45132 -7.030095,1.45132 -3.16049,0 -5.804575,-0.0942 -5.875744,-0.20937 z m 19.962806,-0.73872 c 0.0127,-0.30822 0.07539,-0.37092 0.15985,-0.15985 0.07643,0.191 0.06703,0.4192 -0.02088,0.50712 -0.08792,0.0879 -0.150453,-0.0684 -0.138965,-0.34727 z m 16.160468,-0.63941 c 0,-0.3638 0.06006,-0.51263 0.133454,-0.33073 0.0734,0.18191 0.0734,0.47956 0,0.66146 -0.0734,0.1819 -0.133454,0.0331 -0.133454,-0.33073 z m 26.773589,-1.5875 c 0,-1.23692 0.04558,-1.74294 0.101282,-1.12448 0.0557,0.61847 0.0557,1.6305 0,2.24896 -0.0557,0.61847 -0.101282,0.11245 -0.101282,-1.12448 z m 4.233333,0 c 0,-1.23692 0.04558,-1.74294 0.101282,-1.12448 0.0557,0.61847 0.0557,1.6305 0,2.24896 -0.05571,0.61847 -0.101282,0.11245 -0.101282,-1.12448 z m -27.237376,0.46302 -0.504029,-0.59531 0.595312,0.50403 c 0.559446,0.47366 0.715762,0.6866 0.504029,0.6866 -0.05021,0 -0.318098,-0.26789 -0.595312,-0.59532 z m 10.177845,-0.39687 c -0.329107,-0.41965 -0.319749,-0.429 0.0999,-0.0999 0.254662,0.19972 0.463021,0.40808 0.463021,0.46302 0,0.21777 -0.217273,0.0776 -0.562917,-0.36312 z m -12.203228,-0.50596 c 0.181901,-0.0734 0.479557,-0.0734 0.661458,0 0.181901,0.0734 0.03307,0.13346 -0.330729,0.13346 -0.363802,0 -0.51263,-0.0601 -0.330729,-0.13346 z m 10.864452,-0.006 c 0.190995,-0.0764 0.419201,-0.067 0.507119,0.0209 0.08792,0.0879 -0.06835,0.15046 -0.347265,0.13897 -0.308227,-0.0127 -0.37092,-0.0754 -0.159854,-0.15985 z m -28.769083,-1.82568 c 0.0127,-0.30823 0.07539,-0.37092 0.15985,-0.15986 0.07643,0.191 0.06703,0.4192 -0.02088,0.50712 -0.08792,0.0879 -0.150453,-0.0684 -0.138965,-0.34726 z M 7.3647465,488.72155 c -0.3625005,-0.98044 -0.6987796,-1.87341 -0.7472864,-1.98438 -0.048507,-0.11096 2.8982896,-0.20175 6.5484369,-0.20175 6.283855,0 6.66476,0.0281 7.165798,0.52917 0.78784,0.78784 0.705559,2.20409 -0.167973,2.89121 -0.65646,0.51637 -1.030983,0.54837 -6.418511,0.54837 H 8.0238389 Z m -2.7365707,-7.26559 c -0.3867573,-1.06259 -0.7026216,-2.02711 -0.7019208,-2.14336 6.88e-4,-0.11626 2.9885319,-0.17579 6.639624,-0.1323 6.613507,0.0788 6.640241,0.0814 7.143751,0.70371 0.64543,0.79768 0.645451,1.92177 5e-5,2.7195 -0.500118,0.61815 -0.566822,0.62545 -6.441829,0.70454 l -5.9364799,0.0799 z"
         id="path4755" />
      <path
         style="fill:#3a484a;stroke-width:0.264583"
         d="m 52.276022,500.27046 c -2.645296,-0.62322 -5.221411,-2.66158 -5.221411,-4.13144 0,-1.73767 2.187609,-2.63923 3.332429,-1.37336 0.878737,0.97165 2.496482,1.62888 3.976693,1.61558 1.511657,-0.0136 2.177124,-0.28459 3.481856,-1.41795 1.157446,-1.00542 2.449062,-1.02866 3.212734,-0.0578 0.301604,0.38343 0.54837,0.9696 0.54837,1.30262 0,1.40062 -2.581219,3.36149 -5.252653,3.99027 -1.683242,0.39619 -2.63122,0.41295 -4.078018,0.0721 z m -20.704145,-2.4271 c -0.56624,-0.48706 -0.722936,-0.90005 -0.842724,-2.22109 -0.289171,-3.18902 0.439746,-5.1181 1.933916,-5.1181 1.655347,0 2.220709,1.01039 2.220709,3.96875 0,2.3938 -0.416425,3.54151 -1.378466,3.79922 -0.962655,0.25787 -1.195086,0.20633 -1.933435,-0.42878 z m 42.855082,-0.0511 c -0.60371,-0.60371 -0.649433,-0.8374 -0.649433,-3.31932 0,-2.48191 0.04572,-2.71561 0.649433,-3.31931 0.357188,-0.35719 0.957911,-0.64944 1.334942,-0.64944 0.377031,0 0.977754,0.29225 1.334942,0.64944 0.60371,0.6037 0.649433,0.8374 0.649433,3.31931 0,2.48192 -0.04572,2.71561 -0.649433,3.31932 -0.357188,0.35719 -0.957911,0.64943 -1.334942,0.64943 -0.377031,0 -0.977754,-0.29224 -1.334942,-0.64943 z"
         id="path4753" />
    </g>
    <g
       id="g2162"
       transform="translate(152.86521,66.063319)">
      <path
         style="fill:#f2f4e5;stroke-width:0.264583"
         d="m -111.73629,112.72385 c 0.26339,-0.29104 0.53842,-0.52917 0.61118,-0.52917 0.0728,0 -0.0832,0.23813 -0.34659,0.52917 -0.26339,0.29104 -0.53843,0.52917 -0.61119,0.52917 -0.0728,0 0.0832,-0.23813 0.3466,-0.52917 z m 1.71979,-1.71979 c 0.34178,-0.3638 0.68094,-0.66146 0.7537,-0.66146 0.0728,0 -0.14734,0.29766 -0.48911,0.66146 -0.34178,0.3638 -0.68094,0.66146 -0.7537,0.66146 -0.0728,0 0.14734,-0.29766 0.48911,-0.66146 z m 10.980212,-10.98021 c 3.344605,-3.346978 6.140632,-6.085416 6.213392,-6.085416 0.07276,0 -2.604203,2.738438 -5.948809,6.085416 -3.344605,3.34698 -6.140635,6.08542 -6.213395,6.08542 -0.0728,0 2.60421,-2.73844 5.948812,-6.08542 z m -63.041742,-5.027082 c 0,-0.509323 0.0545,-0.717683 0.121,-0.463021 0.0666,0.254661 0.0666,0.67138 0,0.926041 -0.0666,0.254662 -0.121,0.0463 -0.121,-0.46302 z m 0.25478,-3.307292 c 0.005,-0.436562 0.0647,-0.583126 0.13178,-0.325694 0.0671,0.257432 0.0627,0.614619 -0.01,0.79375 -0.0725,0.179131 -0.12736,-0.03149 -0.12197,-0.468056 z m 7.45107,-3.175 c 0.0777,-0.436562 0.41068,-4.513273 0.73986,-9.059357 l 0.59851,-8.265609 -0.60073,-3.703661 c -0.81038,-4.996201 -0.59187,-6.39373 1.58156,-10.11515 0.61284,-1.04934 1.11426,-2.047327 1.11426,-2.217751 0,-0.177945 0.78389,-0.439316 1.8413,-0.613944 2.73003,-0.450855 4.07004,-1.21965 9.3153,-5.344398 5.0249,-3.951464 5.50745,-4.226793 12.02894,-6.86332 2.92352,-1.181928 4.51752,-1.678313 5.69224,-1.772608 1.57203,-0.126188 13.23484,1.079235 14.22921,1.470676 0.36829,0.144981 -4.43672,5.079436 -23.10841,23.730957 -18.94682,18.926346 -23.54565,23.392131 -23.43204,22.754165 z m -7.18648,-0.264583 c 0.005,-0.436563 0.0647,-0.583126 0.13177,-0.325694 0.0671,0.257431 0.0627,0.614619 -0.01,0.79375 -0.0725,0.179131 -0.12737,-0.03149 -0.12197,-0.468056 z m 0.26458,-3.439583 c 0.005,-0.436563 0.0647,-0.583126 0.13177,-0.325694 0.0671,0.257431 0.0627,0.614619 -0.01,0.79375 -0.0725,0.17913 -0.12736,-0.03149 -0.12197,-0.468056 z m 0.27439,-3.307292 c 0,-0.509323 0.0545,-0.717682 0.121,-0.463021 0.0665,0.254662 0.0665,0.671381 0,0.926042 -0.0666,0.254661 -0.121,0.0463 -0.121,-0.463021 z m 74.894978,-4.233333 c 0,-0.800364 0.0496,-1.127786 0.110222,-0.727604 0.06062,0.400182 0.06062,1.055026 0,1.455208 -0.06062,0.400182 -0.110222,0.07276 -0.110222,-0.727604 z m -74.935478,0.374827 c 0.0127,-0.308226 0.0754,-0.370919 0.15985,-0.159853 0.0764,0.190995 0.067,0.419201 -0.0209,0.507119 -0.0879,0.08792 -0.15045,-0.06835 -0.13896,-0.347266 z m -0.26458,-1.5875 c 0.0127,-0.308226 0.0754,-0.370919 0.15985,-0.159853 0.0764,0.190995 0.067,0.419201 -0.0209,0.507119 -0.0879,0.08792 -0.15045,-0.06835 -0.13896,-0.347266 z m -0.52917,-3.174999 c 0.0127,-0.308227 0.0754,-0.37092 0.15985,-0.159854 0.0764,0.190995 0.067,0.419201 -0.0209,0.507119 -0.0879,0.08792 -0.15045,-0.06835 -0.13896,-0.347265 z m 0,-2.910417 c 0.0127,-0.308226 0.0754,-0.370919 0.15985,-0.159853 0.0764,0.190994 0.067,0.4192 -0.0209,0.507119 -0.0879,0.08792 -0.15045,-0.06835 -0.13896,-0.347266 z m 76.972859,-28.785139 c 0,-0.05494 0.20836,-0.2633 0.463021,-0.46302 0.419645,-0.329108 0.429003,-0.319749 0.0999,0.0999 -0.345644,0.440729 -0.562917,0.580887 -0.562917,0.363124 z m 5.027083,-5.556249 c 0,-0.05494 0.20836,-0.2633 0.463021,-0.463021 0.419645,-0.329107 0.429003,-0.319749 0.0999,0.0999 -0.345643,0.44073 -0.562917,0.580887 -0.562917,0.363125 z m 2.38125,-2.645834 c 0,-0.05494 0.20836,-0.2633 0.463021,-0.46302 0.419645,-0.329108 0.429003,-0.319749 0.0999,0.0999 -0.345644,0.440729 -0.562917,0.580887 -0.562917,0.363124 z m 5.027083,-5.556249 c 0,-0.05494 0.20836,-0.2633 0.463021,-0.463021 0.419645,-0.329107 0.429003,-0.319749 0.0999,0.0999 -0.345644,0.44073 -0.562917,0.580887 -0.562917,0.363125 z m 2.38125,-2.645833 c 0,-0.05494 0.20836,-0.263301 0.463021,-0.463021 0.419645,-0.329107 0.429003,-0.319749 0.0999,0.0999 -0.345644,0.44073 -0.562917,0.580887 -0.562917,0.363125 z m 5.027083,-5.55625 c 0,-0.05494 0.20836,-0.2633 0.463021,-0.463021 0.419645,-0.329107 0.429003,-0.319749 0.0999,0.0999 -0.345644,0.44073 -0.562917,0.580887 -0.562917,0.363125 z m 2.38125,-2.645833 c 0,-0.05494 0.20836,-0.2633 0.463021,-0.463021 0.419645,-0.329107 0.429003,-0.319749 0.0999,0.0999 -0.345644,0.44073 -0.562917,0.580887 -0.562917,0.363125 z m 5.027083,-5.55625 c 0,-0.05494 0.20836,-0.2633 0.463021,-0.463021 0.419645,-0.329106 0.429003,-0.319748 0.0999,0.0999 -0.345644,0.44073 -0.562917,0.580888 -0.562917,0.363125 z m 2.38125,-2.645832 c 0,-0.054942 0.208359,-0.2633016 0.463021,-0.4630208 0.419645,-0.3291075 0.429003,-0.3197492 0.0999,0.099895 -0.345644,0.4407291 -0.562917,0.5808871 -0.562917,0.363126 z m 2.645833,-2.9104165 c 0,-0.054942 0.20836,-0.2633017 0.463021,-0.4630208 0.419645,-0.3291075 0.429003,-0.3197492 0.0999,0.099895 -0.345643,0.4407291 -0.562917,0.5808871 -0.562917,0.363126 z m 2.38125,-2.6458332 c 0,-0.054942 0.20836,-0.2633017 0.463021,-0.4630208 0.419645,-0.3291075 0.429003,-0.3197492 0.0999,0.099895 -0.345644,0.4407291 -0.562917,0.5808871 -0.562917,0.363126 z m 2.38125,-2.6458332 c 0,-0.0549423 0.208359,-0.26330167 0.463021,-0.46302081 0.419645,-0.32910752 0.429003,-0.3197492 0.0999,0.0998948 -0.345644,0.44072914 -0.562917,0.58088712 -0.562917,0.36312605 z m 2.645833,-2.9104165 c 0,-0.054942 0.20836,-0.2633017 0.463021,-0.4630208 0.419645,-0.3291075 0.429003,-0.3197492 0.0999,0.099895 -0.345644,0.4407292 -0.562917,0.5808871 -0.562917,0.3631261 z m 2.38125,-2.6458332 c 0,-0.054942 0.20836,-0.2633017 0.463021,-0.4630208 0.419645,-0.3291076 0.429003,-0.3197492 0.0999,0.099895 -0.345644,0.4407292 -0.562917,0.5808871 -0.562917,0.3631261 z m 2.38125,-2.6458332 c 0,-0.054942 0.208359,-0.2633017 0.463021,-0.4630208 0.419645,-0.3291076 0.429003,-0.3197492 0.0999,0.099895 -0.345644,0.4407292 -0.562917,0.5808871 -0.562917,0.3631261 z m 2.645833,-2.9104162 c 0,-0.05494 0.20836,-0.263302 0.463021,-0.463021 0.419645,-0.329108 0.429003,-0.319749 0.0999,0.0999 -0.345644,0.440729 -0.562917,0.580887 -0.562917,0.363126 z m 1.165487,-2.347501 -0.504028,-0.595313 0.595312,0.504028 c 0.327422,0.277216 0.595313,0.545106 0.595313,0.595313 0,0.211733 -0.212934,0.05542 -0.686597,-0.504028 z"
         id="path2172" />
      <path
         style="fill:#d6d8cb;stroke-width:0.264583"
         d="m -106.8415,107.86145 c 0,-0.0549 0.20836,-0.2633 0.46302,-0.46302 0.41965,-0.3291 0.42901,-0.31975 0.0999,0.0999 -0.34564,0.44073 -0.56292,0.58089 -0.56292,0.36312 z m -55.20904,-11.939763 c 0.0865,-0.581467 0.42387,-4.649155 0.74962,-9.039306 l 0.59226,-7.982098 -0.61125,-3.79186 c -0.89957,-5.580382 -0.75471,-6.138762 3.41959,-13.181435 2.17891,-3.676158 3.53285,-5.198427 5.51855,-6.204654 0.7355,-0.372708 1.40765,-0.677648 1.49368,-0.677648 0.086,0 -0.2756,0.744141 -0.8036,1.653646 -2.54965,4.391871 -2.77151,5.610873 -1.95141,10.721678 l 0.60789,3.788278 -0.59781,8.256219 c -0.3288,4.540919 -0.66137,8.613407 -0.73906,9.049969 -0.11275,0.633627 10.2314,-9.560829 51.27748,-50.535414 l 51.418707,-51.329164 -47.88957,47.972403 c -26.339267,26.384821 -51.208967,51.208845 -55.266007,55.164501 -7.229,7.048357 -7.37328,7.17097 -7.21907,6.134885 z m 70.02571,-3.141482 c 0,-0.05494 0.208359,-0.2633 0.46302,-0.463021 0.419645,-0.329107 0.429004,-0.319749 0.0999,0.0999 -0.345643,0.44073 -0.562916,0.580888 -0.562916,0.363125 z m 5.577138,-12.225276 c 0.0127,-0.308226 0.07539,-0.37092 0.159851,-0.159853 0.07643,0.190994 0.06703,0.4192 -0.02088,0.507118 -0.08792,0.08792 -0.150452,-0.06835 -0.138964,-0.347265 z m -4.698703,-23.922743 c 0,-0.945885 0.04802,-1.332838 0.106714,-0.859896 0.05869,0.472943 0.05869,1.246849 0,1.719792 -0.05869,0.472943 -0.106714,0.08599 -0.106714,-0.859896 z m 5.471564,-14.651979 c 0,-0.05494 0.20836,-0.2633 0.463021,-0.46302 0.419645,-0.329108 0.429003,-0.319749 0.0999,0.0999 -0.345644,0.440729 -0.562917,0.580887 -0.562917,0.363124 z m 2.778125,-3.075103 c 0.26339,-0.291042 0.538422,-0.529167 0.611182,-0.529167 0.07276,0 -0.08321,0.238125 -0.346599,0.529167 -0.26339,0.291041 -0.538421,0.529166 -0.611182,0.529166 -0.07276,0 0.08321,-0.238125 0.346599,-0.529166 z m 2.38125,-2.645834 c 0.26339,-0.291041 0.538422,-0.529166 0.611182,-0.529166 0.07276,0 -0.08321,0.238125 -0.346599,0.529166 -0.26339,0.291042 -0.538421,0.529167 -0.611182,0.529167 -0.07276,0 0.08321,-0.238125 0.346599,-0.529167 z m 2.38125,-2.645833 c 0.26339,-0.291041 0.538422,-0.529166 0.611182,-0.529166 0.07276,0 -0.08321,0.238125 -0.346599,0.529166 -0.26339,0.291042 -0.538422,0.529167 -0.611182,0.529167 -0.07276,0 0.08321,-0.238125 0.346599,-0.529167 z m 2.645833,-2.910416 c 0.26339,-0.291042 0.538422,-0.529167 0.611182,-0.529167 0.07276,0 -0.08321,0.238125 -0.346599,0.529167 -0.26339,0.291041 -0.538421,0.529166 -0.611182,0.529166 -0.07276,0 0.08321,-0.238125 0.346599,-0.529166 z m 2.38125,-2.645834 c 0.26339,-0.291041 0.538422,-0.529166 0.611182,-0.529166 0.07276,0 -0.08321,0.238125 -0.346599,0.529166 -0.26339,0.291042 -0.538421,0.529167 -0.611182,0.529167 -0.07276,0 0.08321,-0.238125 0.346599,-0.529167 z m 2.38125,-2.645833 c 0.26339,-0.291041 0.538422,-0.529166 0.611182,-0.529166 0.07276,0 -0.08321,0.238125 -0.346599,0.529166 -0.26339,0.291042 -0.538422,0.529167 -0.611182,0.529167 -0.07276,0 0.08321,-0.238125 0.346599,-0.529167 z m 2.645833,-2.910416 c 0.26339,-0.291042 0.538422,-0.529167 0.611182,-0.529167 0.07276,0 -0.08321,0.238125 -0.346599,0.529167 -0.26339,0.291041 -0.538421,0.529166 -0.611182,0.529166 -0.07276,0 0.08321,-0.238125 0.346599,-0.529166 z m 2.38125,-2.645833 c 0.26339,-0.291042 0.538422,-0.529167 0.611182,-0.529167 0.07276,0 -0.08321,0.238125 -0.346599,0.529167 -0.26339,0.291041 -0.538421,0.529166 -0.611182,0.529166 -0.07276,0 0.08321,-0.238125 0.346599,-0.529166 z m 2.38125,-2.645834 c 0.26339,-0.291041 0.538422,-0.529166 0.611182,-0.529166 0.07276,0 -0.08321,0.238125 -0.346599,0.529166 -0.26339,0.291042 -0.538422,0.529167 -0.611182,0.529167 -0.07276,0 0.08321,-0.238125 0.346599,-0.529167 z m 2.645833,-2.910416 c 0.26339,-0.291042 0.538422,-0.529167 0.611182,-0.529167 0.07276,0 -0.08321,0.238125 -0.346599,0.529167 -0.26339,0.291041 -0.538421,0.529166 -0.611182,0.529166 -0.07276,0 0.08321,-0.238125 0.346599,-0.529166 z m 2.38125,-2.645833 c 0.26339,-0.291042 0.538422,-0.529167 0.611182,-0.529167 0.07276,0 -0.08321,0.238125 -0.346599,0.529167 -0.26339,0.291041 -0.538421,0.529166 -0.611182,0.529166 -0.07276,0 0.08321,-0.238125 0.346599,-0.529166 z m 2.38125,-2.6458336 c 0.26339,-0.2910416 0.538422,-0.5291666 0.611182,-0.5291666 0.07276,0 -0.08321,0.238125 -0.346599,0.5291666 -0.26339,0.2910417 -0.538422,0.5291667 -0.611182,0.5291667 -0.07276,0 0.08321,-0.238125 0.346599,-0.5291667 z m 2.645833,-2.9104165 c 0.26339,-0.2910416 0.538422,-0.5291666 0.611182,-0.5291666 0.07276,0 -0.08321,0.238125 -0.346599,0.5291666 -0.26339,0.2910417 -0.538421,0.5291666 -0.611182,0.5291666 -0.07276,0 0.08321,-0.2381249 0.346599,-0.5291666 z m 2.38125,-2.6458332 c 0.26339,-0.2910416 0.538422,-0.5291666 0.611182,-0.5291666 0.07276,0 -0.08321,0.238125 -0.346599,0.5291666 -0.26339,0.2910417 -0.538422,0.5291666 -0.611182,0.5291666 -0.07276,0 0.08321,-0.2381249 0.346599,-0.5291666 z m 2.38125,-2.6458332 c 0.26339,-0.29104165 0.538422,-0.52916664 0.611182,-0.52916664 0.07276,0 -0.08321,0.23812499 -0.346599,0.52916664 -0.26339,0.2910417 -0.538422,0.5291666 -0.611182,0.5291666 -0.07276,0 0.08321,-0.2381249 0.346599,-0.5291666 z m 2.645833,-2.9104165 c 0.26339,-0.2910417 0.538422,-0.5291667 0.611182,-0.5291667 0.07276,0 -0.08321,0.238125 -0.346599,0.5291667 -0.26339,0.2910416 -0.538421,0.5291666 -0.611182,0.5291666 -0.07276,0 0.08321,-0.238125 0.346599,-0.5291666 z m 2.38125,-2.6458332 c 0.26339,-0.2910417 0.538422,-0.5291667 0.611182,-0.5291667 0.07276,0 -0.08321,0.238125 -0.346599,0.5291667 -0.26339,0.2910416 -0.538422,0.5291666 -0.611182,0.5291666 -0.07276,0 0.08321,-0.238125 0.346599,-0.5291666 z m 2.38125,-2.6458332 c 0.26339,-0.2910417 0.538422,-0.5291667 0.611182,-0.5291667 0.07276,0 -0.08321,0.238125 -0.346599,0.5291667 -0.26339,0.2910416 -0.538422,0.5291666 -0.611182,0.5291666 -0.07276,0 0.08321,-0.238125 0.346599,-0.5291666 z m 2.645833,-2.9104166 c 0.26339,-0.291042 0.538422,-0.529167 0.611182,-0.529167 0.07276,0 -0.08321,0.238125 -0.346599,0.529167 -0.26339,0.291042 -0.538421,0.5291667 -0.611182,0.5291667 -0.07276,0 0.08321,-0.2381247 0.346599,-0.5291667 z m -7.590234,-5.73699 c 0.190995,-0.07643 0.4192,-0.06703 0.507119,0.02089 0.08792,0.08792 -0.06835,0.150453 -0.347266,0.138964 -0.308226,-0.0127 -0.370919,-0.07539 -0.159853,-0.159852 z m 3.439583,0 c 0.190995,-0.07643 0.419201,-0.06703 0.507119,0.02089 0.08792,0.08792 -0.06835,0.150453 -0.347266,0.138964 -0.308226,-0.0127 -0.370919,-0.07539 -0.159853,-0.159852 z"
         id="path2170" />
      <path
         style="fill:#4bc6b2;stroke-width:0.264583"
         d="m -130.72014,119.1632 c 0.1819,-0.0734 0.47956,-0.0734 0.66146,0 0.1819,0.0734 0.0331,0.13346 -0.33073,0.13346 -0.3638,0 -0.51263,-0.0601 -0.33073,-0.13346 z m 4.37066,-0.008 c 0.25743,-0.0671 0.61462,-0.0627 0.79375,0.01 0.17913,0.0725 -0.0315,0.12736 -0.46806,0.12197 -0.43656,-0.005 -0.58312,-0.0647 -0.32569,-0.13177 z m -6.20621,-0.26197 c 0.191,-0.0764 0.4192,-0.067 0.50712,0.0209 0.0879,0.0879 -0.0683,0.15045 -0.34726,0.13896 -0.30823,-0.0127 -0.37092,-0.0754 -0.15986,-0.15985 z m 19.76107,-5.37551 c 0.26339,-0.29104 0.53842,-0.52917 0.61118,-0.52917 0.0728,0 -0.0832,0.23813 -0.3466,0.52917 -0.26339,0.29104 -0.53842,0.52917 -0.61118,0.52917 -0.0728,0 0.0832,-0.23813 0.3466,-0.52917 z m -11.1022,-2.12801 c -3.33212,-0.52428 -4.95112,-1.13955 -12.18113,-4.6292 -2.61938,-1.26428 -7.62,-3.66174 -11.1125,-5.3277 -3.4925,-1.665954 -6.69244,-3.349082 -7.11097,-3.740279 -1.62465,-1.518541 -2.20656,-4.261614 -1.34542,-6.342163 0.34401,-0.831159 -0.15129,-0.429834 -3.19429,2.588186 -1.98079,1.964531 21.39933,-21.412765 51.95582,-51.949546 30.556494,-30.53678 56.008869,-55.828298 56.560843,-56.203373 3.541831,-2.406737 8.56688,-2.437353 12.222723,-0.07447 0.866542,0.560074 1.651449,1.14115 1.744233,1.291282 0.09279,0.150132 -11.00026,12.63808258 -24.651217,27.751003 -13.650957,15.11292 -25.269302,28.06657 -25.818543,28.785893 -1.396248,1.828609 -2.982394,5.167667 -3.642995,7.669003 -0.414173,1.568252 -0.562536,2.939291 -0.572624,5.291666 -0.01667,3.887806 0.378835,5.640208 2.292924,10.159352 2.082548,4.916873 2.403165,6.350103 2.403165,10.742731 0,5.178147 -1.019765,8.721634 -3.709299,12.88911 -1.485093,2.301176 -13.8773,14.933335 -16.47016,16.789075 -2.15917,1.54534 -5.45345,3.07844 -8.12044,3.77912 -2.44463,0.64225 -6.9112,0.89832 -9.25012,0.53031 z m -7.48478,-10.348 c 0.86815,-1.02598 0.60266,-2.145229 -0.89846,-3.787691 -2.13742,-2.338679 -3.44578,-2.741541 -4.73067,-1.456651 -0.9828,0.982803 -0.69298,1.97761 1.13121,3.882874 0.90951,0.949928 1.89178,1.827608 2.18282,1.950398 0.74603,0.31477 1.77106,0.054 2.3151,-0.58893 z m 12.82494,-10.767119 c 2.37712,-1.218472 3.93171,-3.0794 4.6814,-5.603885 0.63515,-2.138781 0.55181,-3.075649 -0.35422,-3.98167 -1.53433,-1.534339 -3.24373,-0.65365 -3.53696,1.822265 -0.30665,2.589168 -1.69626,3.953179 -4.40135,4.320267 -1.02696,0.139362 -1.61433,0.373542 -1.9373,0.772388 -0.64563,0.797324 -0.58669,2.067015 0.13182,2.83941 0.54542,0.58632 0.75056,0.630066 2.4474,0.521901 1.18195,-0.07534 2.25629,-0.325249 2.96921,-0.690676 z m 15.03448,-17.093802 c 1.09953,-1.099526 0.88736,-2.049476 -0.87192,-3.903874 -1.78926,-1.885995 -2.73624,-2.38211 -3.82348,-2.003097 -0.89664,0.312574 -1.26975,0.925737 -1.26975,2.086711 0,0.705916 0.31806,1.174821 1.80647,2.663226 2.06889,2.068894 2.99043,2.325286 4.15868,1.157034 z m -58.65098,32.200991 c -0.32911,-0.41964 -0.31975,-0.429 0.0999,-0.0999 0.25466,0.19972 0.46302,0.40808 0.46302,0.46302 0,0.21776 -0.21728,0.0776 -0.56292,-0.36313 z m -1.79745,-4.18923 c 0.0127,-0.30823 0.0754,-0.37092 0.15986,-0.15986 0.0764,0.191 0.067,0.41921 -0.0209,0.50712 -0.0879,0.0879 -0.15045,-0.0683 -0.13897,-0.34726 z"
         id="path2168" />
      <path
         style="fill:#29ab91;stroke-width:0.264583"
         d="m -131.8535,118.95567 c -1.16905,-0.18173 -2.77639,-0.54148 -3.57187,-0.79944 -2.34605,-0.76078 -25.71838,-12.02607 -26.54897,-12.79641 -1.69979,-1.57648 -2.2393,-4.43161 -1.22997,-6.509206 0.29437,-0.605927 2.14764,-2.693421 4.24356,-4.779888 3.12113,-3.107044 3.65533,-3.545594 3.31386,-2.720478 -0.86108,2.080639 -0.27915,4.823645 1.34547,6.342163 0.41853,0.391197 3.61847,2.074325 7.11097,3.740279 3.4925,1.66596 8.49312,4.06576 11.1125,5.33288 8.69878,4.20804 10.40253,4.72484 15.61041,4.73512 2.75591,0.005 3.88661,-0.11269 5.68854,-0.59429 2.65786,-0.71036 6.11136,-2.27747 8.02388,-3.64102 1.12701,-0.80351 0.85468,-0.45162 -1.54158,1.9919 -5.14712,5.24863 -8.16883,7.37017 -12.46446,8.75125 -2.41589,0.77674 -5.9069,1.35274 -7.90152,1.30373 -0.5859,-0.0144 -2.02177,-0.17487 -3.19082,-0.35659 z m -1.23135,-17.26048 c 0.19099,-0.0764 0.41919,-0.067 0.50711,0.0209 0.0879,0.0879 -0.0683,0.15045 -0.34726,0.13896 -0.30823,-0.0127 -0.37092,-0.0754 -0.15985,-0.15985 z m 1.10794,-0.18374 c 0,-0.0549 0.20836,-0.2633 0.46302,-0.46302 0.41964,-0.3291 0.429,-0.31975 0.0999,0.0999 -0.34565,0.44073 -0.56292,0.58089 -0.56292,0.36312 z m -0.93599,-4.728745 -1.31297,-1.389062 1.38906,1.31297 c 1.29074,1.220036 1.5104,1.465154 1.31297,1.465154 -0.0418,0 -0.66693,-0.625078 -1.38906,-1.389062 z m -2.83432,-1.696582 c 0.1819,-0.0734 0.47955,-0.0734 0.66145,0 0.18191,0.0734 0.0331,0.133453 -0.33072,0.133453 -0.36381,0 -0.51264,-0.06006 -0.33073,-0.133453 z m 11.44322,-7.333001 c 0,-0.05494 0.20836,-0.2633 0.46303,-0.463021 0.41964,-0.329107 0.429,-0.319749 0.0999,0.0999 -0.34564,0.44073 -0.56292,0.580887 -0.56292,0.363125 z m 1.65365,-0.876239 c 0.25466,-0.06655 0.67138,-0.06655 0.92604,0 0.25466,0.06655 0.0463,0.121002 -0.46302,0.121002 -0.50932,0 -0.71768,-0.05445 -0.46302,-0.121002 z m 9.00175,-4.315532 c 0,-0.654843 0.0516,-0.922734 0.11466,-0.595312 0.0631,0.327422 0.0631,0.863203 0,1.190625 -0.0631,0.327422 -0.11466,0.05953 -0.11466,-0.595313 z m -3.77623,-1.687396 c 0,-0.05494 0.20836,-0.2633 0.46302,-0.46302 0.41965,-0.329108 0.42901,-0.319749 0.0999,0.0999 -0.34565,0.440729 -0.56292,0.580887 -0.56292,0.363124 z m 1.3941,-0.877207 c 0.25743,-0.06708 0.61462,-0.06267 0.79375,0.0098 0.17913,0.07248 -0.0315,0.127363 -0.46806,0.12197 -0.43656,-0.0054 -0.58312,-0.06469 -0.32569,-0.131773 z m 8.25491,-8.084875 -1.57922,-1.653646 1.65365,1.579219 c 0.9095,0.868568 1.65364,1.612709 1.65364,1.653645 0,0.195501 -0.26111,-0.04312 -1.72807,-1.579218 z m 3.84474,1.55375 c 0,-0.05494 0.20836,-0.263301 0.46302,-0.463021 0.41965,-0.329108 0.429,-0.319749 0.0999,0.0999 -0.34565,0.440729 -0.56292,0.580887 -0.56292,0.363125 z m -0.93432,-4.464167 -1.57922,-1.653645 1.65364,1.579218 c 0.90951,0.868569 1.65365,1.612709 1.65365,1.653646 0,0.1955 -0.26111,-0.04312 -1.72807,-1.579219 z"
         id="path2166" />
      <path
         style="fill:#3a484a;stroke-width:0.264583"
         d="m -135.27603,100.24987 c -0.81932,-0.748818 -1.66849,-1.707268 -1.88704,-2.129892 -0.72282,-1.397781 0.16851,-2.858627 1.74418,-2.858627 0.85781,0 1.1841,0.217718 2.73711,1.826358 1.98071,2.051661 2.23632,2.928601 1.15084,3.948351 -1.03866,0.97577 -2.04938,0.76359 -3.74509,-0.78619 z m 11.39158,-9.83659 c -1.30813,-1.308124 -0.46656,-3.348763 1.3856,-3.359822 2.44399,-0.01461 4.44464,-1.829763 4.78554,-4.341868 0.10931,-0.805548 0.41599,-1.704676 0.6815,-1.998059 0.64934,-0.717516 2.08095,-0.70529 2.81024,0.024 0.48042,0.480415 0.54336,0.800264 0.45559,2.315104 -0.2436,4.204703 -3.54125,7.510402 -7.88503,7.904282 -1.40927,0.127788 -1.61116,0.07865 -2.23344,-0.543634 z m 18.23358,-16.834286 c -0.29104,-0.119661 -1.27331,-0.994775 -2.18281,-1.944703 -1.861,-1.943706 -2.06482,-2.708738 -1.00422,-3.769339 1.14944,-1.14944 1.92976,-0.898803 4.06836,1.306743 1.17628,1.213109 1.89679,2.175626 1.89679,2.533893 0,0.639453 -1.34583,2.134113 -1.89787,2.107742 -0.1931,-0.0092 -0.58921,-0.114673 -0.88025,-0.234336 z"
         id="path2164" />
    </g>
  </g>
</svg>
