<?xml version="1.0" encoding="UTF-8" standalone="no"?>
<!-- Created with Inkscape (http://www.inkscape.org/) -->

<svg
   width="209.89226mm"
   height="218.52026mm"
   viewBox="0 0 209.89227 218.52027"
   version="1.1"
   id="svg2650"
   inkscape:version="1.1 (c68e22c387, 2021-05-23)"
   sodipodi:docname="landing_metrics.svg"
   xmlns:inkscape="http://www.inkscape.org/namespaces/inkscape"
   xmlns:sodipodi="http://sodipodi.sourceforge.net/DTD/sodipodi-0.dtd"
   xmlns="http://www.w3.org/2000/svg"
   xmlns:svg="http://www.w3.org/2000/svg">
  <sodipodi:namedview
     id="namedview2652"
     pagecolor="#ffffff"
     bordercolor="#666666"
     borderopacity="1.0"
     inkscape:pageshadow="2"
     inkscape:pageopacity="0.0"
     inkscape:pagecheckerboard="0"
     inkscape:document-units="mm"
     showgrid="false"
     fit-margin-top="0"
     fit-margin-left="0"
     fit-margin-right="0"
     fit-margin-bottom="0"
     inkscape:zoom="0.36703143"
     inkscape:cx="64.027215"
     inkscape:cy="53.128966"
     inkscape:window-width="1920"
     inkscape:window-height="1009"
     inkscape:window-x="1912"
     inkscape:window-y="-8"
     inkscape:window-maximized="1"
     inkscape:current-layer="layer1" />
  <defs
     id="defs2647" />
  <g
     inkscape:label="Layer 1"
     inkscape:groupmode="layer"
     id="layer1"
     transform="translate(-75.544942,17.953891)">
    <g
       id="g2752"
       transform="matrix(0.26458333,0,0,0.26458333,149.97054,75.359715)">
      <path
         style="fill:#a78966"
         d="M 488.726,178.414 H 395.635 279.273 V 62.054 c 0,-12.853 -10.42,-23.273 -23.273,-23.273 -0.009,0 -0.019,0.002 -0.028,0.002 -12.84,0.016 -23.245,10.428 -23.245,23.271 V 178.415 H 116.364 23.273 C 10.42,178.414 0,188.833 0,201.687 0,214.541 10.42,224.96 23.273,224.96 h 51.99 82.202 98.507 0.028 98.534 82.202 51.99 c 12.853,0 23.273,-10.418 23.273,-23.273 0,-12.855 -10.421,-23.273 -23.273,-23.273 z"
         id="path2654" />
      <g
         id="g2660">
	<path
   style="fill:#ffb655"
   d="m 511.977,356.409 c -0.009,-0.451 -0.034,-0.9 -0.067,-1.345 -0.028,-0.329 -0.051,-0.659 -0.092,-0.988 -0.051,-0.417 -0.118,-0.828 -0.189,-1.238 -0.064,-0.36 -0.126,-0.72 -0.208,-1.078 -0.081,-0.36 -0.177,-0.714 -0.275,-1.067 -0.11,-0.4 -0.223,-0.801 -0.355,-1.196 -0.101,-0.303 -0.216,-0.599 -0.327,-0.895 -0.164,-0.434 -0.337,-0.867 -0.531,-1.296 -0.118,-0.259 -0.244,-0.514 -0.369,-0.766 -0.22,-0.444 -0.451,-0.883 -0.703,-1.317 -4.025,-6.951 -11.525,-11.638 -20.134,-11.638 h -41.103 -51.988 -51.991 -41.1 c -8.626,0 -16.14,4.706 -20.159,11.68 -0.231,0.402 -0.445,0.808 -0.652,1.218 -0.143,0.287 -0.285,0.574 -0.416,0.867 -0.177,0.391 -0.334,0.787 -0.487,1.184 -0.127,0.334 -0.254,0.667 -0.368,1.008 -0.119,0.357 -0.22,0.717 -0.32,1.077 -0.109,0.394 -0.219,0.788 -0.306,1.19 -0.071,0.318 -0.127,0.636 -0.183,0.954 -0.081,0.451 -0.155,0.905 -0.208,1.365 -0.036,0.289 -0.057,0.577 -0.081,0.866 -0.037,0.487 -0.065,0.977 -0.074,1.472 -0.003,0.132 -0.02,0.259 -0.02,0.391 0,0.371 0.025,0.737 0.029,1.108 0,0.051 0.003,0.102 0.003,0.155 0.683,63.581 52.59,115.102 116.331,115.102 C 459.799,473.221 512,421.02 512,356.857 c 0,-0.154 -0.02,-0.299 -0.023,-0.448 z"
   id="path2656" />

	<path
   style="fill:#ffb655"
   d="m 232.706,356.435 c -0.008,-0.473 -0.034,-0.942 -0.071,-1.409 -0.025,-0.309 -0.048,-0.617 -0.085,-0.928 -0.051,-0.439 -0.123,-0.87 -0.199,-1.302 -0.059,-0.34 -0.119,-0.68 -0.196,-1.016 -0.085,-0.38 -0.186,-0.754 -0.292,-1.128 -0.104,-0.38 -0.213,-0.76 -0.337,-1.137 -0.107,-0.323 -0.228,-0.638 -0.349,-0.953 -0.158,-0.416 -0.324,-0.83 -0.509,-1.24 -0.124,-0.276 -0.258,-0.548 -0.394,-0.818 -0.213,-0.425 -0.433,-0.849 -0.675,-1.268 -4.022,-6.962 -11.529,-11.66 -20.146,-11.66 H 168.352 116.364 64.374 23.273 c -8.619,0 -16.126,4.696 -20.146,11.66 -0.242,0.419 -0.464,0.841 -0.675,1.268 -0.137,0.27 -0.27,0.541 -0.394,0.818 -0.185,0.41 -0.351,0.824 -0.509,1.24 -0.119,0.315 -0.24,0.63 -0.349,0.953 -0.124,0.377 -0.233,0.757 -0.337,1.137 -0.104,0.374 -0.206,0.748 -0.292,1.128 -0.076,0.338 -0.137,0.678 -0.195,1.016 -0.076,0.431 -0.147,0.863 -0.199,1.302 -0.036,0.309 -0.061,0.617 -0.085,0.928 -0.036,0.465 -0.064,0.936 -0.071,1.409 0,0.141 -0.02,0.278 -0.02,0.419 0,0.397 0.026,0.788 0.029,1.184 0,0.02 0.002,0.039 0.002,0.057 0.672,63.59 52.586,115.122 116.331,115.122 63.745,0 115.661,-51.53 116.331,-115.122 0,-0.019 0.002,-0.037 0.002,-0.057 0.005,-0.396 0.031,-0.787 0.031,-1.184 0,-0.141 -0.02,-0.278 -0.021,-0.419 z"
   id="path2658" />

</g>
      <g
         id="g2666">
	<path
   style="fill:#a9a8ae"
   d="m 3.317,344.881 c -0.07,0.118 -0.124,0.24 -0.191,0.36 4.022,-6.962 11.529,-11.66 20.146,-11.66 h 41.101 l 51.99,-86.657 51.99,86.657 h 41.101 c 8.619,0 16.126,4.696 20.146,11.66 -0.067,-0.118 -0.121,-0.242 -0.191,-0.36 L 157.465,224.96 H 75.262 Z"
   id="path2662" />

	<path
   style="fill:#a9a8ae"
   d="m 302.545,333.581 h 41.1 l 51.99,-86.657 51.99,86.657 h 41.103 c 8.611,0 16.111,4.687 20.134,11.638 -0.064,-0.112 -0.113,-0.227 -0.18,-0.338 L 436.736,224.96 h -82.202 l -71.945,119.921 c -0.074,0.124 -0.13,0.254 -0.202,0.38 4.018,-6.974 11.53,-11.68 20.158,-11.68 z"
   id="path2664" />

</g>
      <g
         id="g2672">
	<path
   style="fill:#e69629"
   d="M 209.455,333.581 H 168.354 64.374 23.273 c -8.619,0 -16.126,4.696 -20.146,11.66 -0.242,0.419 -0.464,0.841 -0.676,1.268 -0.137,0.27 -0.27,0.541 -0.394,0.818 -0.185,0.41 -0.351,0.824 -0.509,1.24 -0.119,0.315 -0.24,0.63 -0.349,0.953 -0.124,0.377 -0.231,0.757 -0.337,1.137 -0.104,0.374 -0.206,0.748 -0.292,1.128 -0.076,0.338 -0.137,0.678 -0.195,1.016 -0.076,0.431 -0.147,0.863 -0.199,1.302 -0.036,0.309 -0.061,0.617 -0.085,0.928 -0.036,0.465 -0.064,0.934 -0.071,1.409 0,0.136 -0.02,0.273 -0.02,0.414 0,0.397 0.026,0.788 0.031,1.184 0,0.02 0.002,0.039 0.002,0.057 0.672,63.59 52.586,115.122 116.331,115.122 63.745,0 115.661,-51.53 116.331,-115.122 0,-0.019 0.002,-0.037 0.002,-0.057 0.005,-0.396 0.031,-0.787 0.031,-1.184 0,-0.141 -0.02,-0.278 -0.022,-0.419 -0.008,-0.473 -0.034,-0.942 -0.071,-1.409 -0.025,-0.309 -0.048,-0.617 -0.085,-0.928 -0.051,-0.439 -0.123,-0.87 -0.199,-1.302 -0.059,-0.34 -0.119,-0.68 -0.195,-1.016 -0.085,-0.38 -0.186,-0.754 -0.292,-1.128 -0.104,-0.38 -0.213,-0.76 -0.337,-1.137 -0.107,-0.323 -0.228,-0.638 -0.349,-0.953 -0.16,-0.416 -0.324,-0.83 -0.509,-1.24 -0.124,-0.276 -0.258,-0.548 -0.394,-0.818 -0.213,-0.425 -0.433,-0.849 -0.676,-1.268 -4.018,-6.958 -11.526,-11.655 -20.144,-11.655 z"
   id="path2668" />

	<path
   style="fill:#e69629"
   d="m 511.91,355.063 c -0.028,-0.329 -0.051,-0.659 -0.092,-0.988 -0.051,-0.417 -0.118,-0.829 -0.189,-1.238 -0.064,-0.36 -0.126,-0.72 -0.208,-1.078 -0.081,-0.36 -0.177,-0.714 -0.275,-1.067 -0.11,-0.4 -0.223,-0.801 -0.357,-1.196 -0.099,-0.303 -0.216,-0.599 -0.327,-0.895 -0.164,-0.434 -0.337,-0.867 -0.531,-1.296 -0.118,-0.259 -0.244,-0.514 -0.369,-0.766 -0.22,-0.444 -0.451,-0.883 -0.703,-1.317 -4.025,-6.951 -11.525,-11.638 -20.134,-11.638 h -41.103 -103.977 -41.1 c -8.628,0 -16.14,4.706 -20.159,11.68 -0.231,0.402 -0.445,0.808 -0.652,1.218 -0.143,0.287 -0.285,0.574 -0.417,0.867 -0.177,0.391 -0.334,0.787 -0.486,1.184 -0.127,0.334 -0.254,0.667 -0.368,1.008 -0.119,0.357 -0.22,0.717 -0.32,1.077 -0.109,0.394 -0.219,0.788 -0.306,1.19 -0.071,0.318 -0.127,0.636 -0.183,0.954 -0.081,0.452 -0.155,0.905 -0.208,1.365 -0.034,0.289 -0.057,0.577 -0.081,0.866 -0.037,0.487 -0.065,0.977 -0.074,1.472 -0.003,0.132 -0.02,0.259 -0.02,0.391 0,0.371 0.025,0.737 0.029,1.108 0,0.051 0.003,0.102 0.003,0.155 0.683,63.581 52.592,115.102 116.333,115.102 64.163,0 116.364,-52.201 116.364,-116.364 0,-0.151 -0.02,-0.295 -0.023,-0.445 -0.01,-0.455 -0.033,-0.903 -0.067,-1.349 z"
   id="path2670" />

</g>
      <path
         style="fill:#a78966"
         d="m 488.726,224.96 c 12.853,0 23.273,-10.418 23.273,-23.273 0,-12.855 -10.42,-23.273 -23.273,-23.273 H 395.635 279.273 V 62.054 c 0,-12.853 -10.42,-23.273 -23.273,-23.273 -12.853,0 -23.273,10.42 -23.273,23.273 V 178.415 H 116.364 23.273 C 10.42,178.414 0,188.833 0,201.687 0,214.541 10.42,224.96 23.273,224.96 h 51.99 82.202 98.535 98.534 82.202 z"
         id="path2674" />
      <path
         style="fill:#ffb655"
         d="m 232.706,356.435 c -0.008,-0.473 -0.034,-0.942 -0.071,-1.409 -0.025,-0.309 -0.048,-0.617 -0.085,-0.928 -0.051,-0.439 -0.123,-0.87 -0.199,-1.302 -0.059,-0.34 -0.119,-0.68 -0.196,-1.016 -0.085,-0.38 -0.186,-0.754 -0.292,-1.128 -0.104,-0.38 -0.213,-0.76 -0.337,-1.137 -0.107,-0.323 -0.228,-0.638 -0.349,-0.953 -0.158,-0.416 -0.324,-0.83 -0.509,-1.24 -0.124,-0.276 -0.258,-0.548 -0.394,-0.818 -0.213,-0.425 -0.433,-0.849 -0.675,-1.268 -4.022,-6.962 -11.529,-11.66 -20.146,-11.66 h -41.101 -51.988 v 139.636 c 63.747,0 115.661,-51.53 116.331,-115.122 0,-0.019 0.002,-0.037 0.002,-0.057 0.005,-0.396 0.031,-0.787 0.031,-1.184 -0.001,-0.136 -0.021,-0.273 -0.022,-0.414 z"
         id="path2676" />
      <g
         id="g2682">
	<path
   style="fill:#ee8700"
   d="M 64.374,333.581 H 23.273 c -8.619,0 -16.126,4.696 -20.146,11.66 -0.242,0.419 -0.464,0.841 -0.675,1.268 -0.137,0.27 -0.27,0.541 -0.394,0.818 -0.185,0.41 -0.351,0.824 -0.509,1.24 -0.119,0.315 -0.24,0.63 -0.349,0.953 -0.124,0.377 -0.233,0.757 -0.337,1.137 -0.104,0.374 -0.206,0.748 -0.292,1.128 -0.076,0.338 -0.137,0.678 -0.195,1.016 -0.076,0.431 -0.147,0.863 -0.199,1.302 -0.036,0.309 -0.061,0.617 -0.085,0.928 -0.036,0.465 -0.064,0.936 -0.071,1.409 0,0.138 -0.02,0.275 -0.02,0.416 0,0.397 0.026,0.788 0.029,1.184 0,0.02 0.002,0.039 0.002,0.057 0.672,63.59 52.586,115.122 116.331,115.122 V 333.581 Z"
   id="path2678" />

	<path
   style="fill:#ee8700"
   d="m 343.645,333.581 h -41.1 c -8.626,0 -16.14,4.706 -20.159,11.68 -0.231,0.402 -0.445,0.808 -0.652,1.218 -0.143,0.287 -0.285,0.574 -0.416,0.867 -0.177,0.391 -0.334,0.787 -0.487,1.184 -0.127,0.334 -0.254,0.667 -0.368,1.008 -0.119,0.357 -0.22,0.717 -0.32,1.077 -0.109,0.394 -0.219,0.788 -0.306,1.19 -0.071,0.318 -0.127,0.636 -0.183,0.954 -0.081,0.452 -0.155,0.905 -0.208,1.365 -0.036,0.289 -0.057,0.577 -0.081,0.866 -0.037,0.487 -0.065,0.977 -0.074,1.472 -0.003,0.132 -0.02,0.259 -0.02,0.391 0,0.371 0.025,0.737 0.029,1.108 0,0.051 0.003,0.102 0.003,0.155 0.683,63.581 52.59,115.102 116.331,115.102 V 333.583 h -51.991 v -0.002 z"
   id="path2680" />

</g>
      <path
         style="fill:#806749"
         d="M 232.727,62.054 V 178.415 H 116.364 23.273 C 10.42,178.414 0,188.833 0,201.687 0,214.541 10.42,224.96 23.273,224.96 h 51.99 82.202 98.507 V 38.782 c -12.84,0.016 -23.245,10.428 -23.245,23.272 z"
         id="path2684" />
      <g
         id="g2686">
</g>
      <g
         id="g2688">
</g>
      <g
         id="g2690">
</g>
      <g
         id="g2692">
</g>
      <g
         id="g2694">
</g>
      <g
         id="g2696">
</g>
      <g
         id="g2698">
</g>
      <g
         id="g2700">
</g>
      <g
         id="g2702">
</g>
      <g
         id="g2704">
</g>
      <g
         id="g2706">
</g>
      <g
         id="g2708">
</g>
      <g
         id="g2710">
</g>
      <g
         id="g2712">
</g>
      <g
         id="g2714">
</g>
    </g>
    <g
       id="g2846"
       transform="matrix(0.26458333,0,0,0.26458333,77.216165,-38.537945)">
      <path
         style="fill:#e0dddf"
         d="m 312.034,262.951 c -4.264,-3.797 -12.342,-24.121 -18.869,-40.546 -11.174,-28.112 -25.08,-63.098 -44.543,-91.868 -23.676,-34.995 -50.907,-52.739 -80.934,-52.739 -64.291,0 -98.685,77.967 -123.799,134.898 -6.475,14.68 -12.068,27.358 -17.314,36.764 -6.664,11.948 -9.974,13.257 -10.363,13.373 -4.316,0.046 -7.801,3.559 -7.801,7.885 0,4.356 3.529,7.885 7.885,7.885 H 167.688 310.67 c 4.356,0 7.885,-3.529 7.885,-7.885 -0.001,-3.888 -2.817,-7.12 -6.521,-7.767 z"
         id="path2754" />
      <g
         id="g2772">
	<path
   style="fill:#c1bcbf"
   d="m 46.784,270.719 c 0,-4.326 3.484,-7.839 7.801,-7.885 0.389,-0.116 3.7,-1.425 10.363,-13.374 5.246,-9.405 10.839,-22.084 17.314,-36.764 22.472,-50.941 52.379,-118.718 104.483,-132.415 -6.218,-1.651 -12.572,-2.482 -19.058,-2.482 -64.291,0 -98.685,77.967 -123.799,134.898 -6.475,14.68 -12.068,27.358 -17.314,36.764 -6.664,11.948 -9.974,13.257 -10.363,13.373 -4.316,0.046 -7.801,3.559 -7.801,7.885 0,4.356 3.529,7.885 7.885,7.885 h 38.374 c -4.355,0 -7.885,-3.53 -7.885,-7.885 z"
   id="path2756" />

	<circle
   style="fill:#c1bcbf"
   cx="228.66499"
   cy="230.76801"
   r="14.719"
   id="circle2758" />

	<circle
   style="fill:#c1bcbf"
   cx="199.228"
   cy="176.099"
   r="14.719"
   id="circle2760" />

	<circle
   style="fill:#c1bcbf"
   cx="165.58501"
   cy="129.84"
   r="14.719"
   id="circle2762" />

	<circle
   style="fill:#c1bcbf"
   cx="165.58501"
   cy="230.76801"
   r="14.719"
   id="circle2764" />

	<circle
   style="fill:#c1bcbf"
   cx="131.94299"
   cy="176.099"
   r="14.719"
   id="circle2766" />

	<circle
   style="fill:#c1bcbf"
   cx="102.505"
   cy="230.76801"
   r="14.719"
   id="circle2768" />

	<rect
   x="316.97699"
   y="270.71899"
   style="fill:#c1bcbf"
   width="105.133"
   height="13.667"
   id="rect2770" />

</g>
      <path
         style="fill:#ff675c"
         d="m 490.973,262.834 h -79.901 c -4.355,0 -7.885,3.53 -7.885,7.885 v 42.053 c 0,4.355 3.53,7.885 7.885,7.885 h 79.901 c 11.613,0 21.027,-9.414 21.027,-21.027 v -15.77 c 0,-11.613 -9.414,-21.026 -21.027,-21.026 z"
         id="path2774" />
      <path
         style="fill:#db3d5a"
         d="m 490.973,309.618 h -79.901 c -4.355,0 -7.885,-3.53 -7.885,-7.885 v 11.039 c 0,4.355 3.53,7.885 7.885,7.885 h 79.901 c 11.613,0 21.027,-9.414 21.027,-21.027 v -11.039 c 0,11.613 -9.414,21.027 -21.027,21.027 z"
         id="path2776" />
      <path
         style="fill:#9fd25a"
         d="M 319.073,262.834 H 7.885 c -4.355,0 -7.886,3.565 -7.885,7.92 0.019,90.129 73.35,163.448 163.483,163.448 90.131,0 163.459,-73.315 163.483,-163.441 0,-4.371 -3.523,-7.927 -7.893,-7.927 z"
         id="path2778" />
      <path
         style="fill:#6ead32"
         d="m 40.476,270.753 c -10e-4,-4.355 3.53,-7.92 7.885,-7.92 H 7.885 c -4.356,0 -7.886,3.565 -7.885,7.92 0.019,90.129 73.35,163.448 163.483,163.448 6.845,0 13.591,-0.434 20.217,-1.254 C 103.091,422.939 40.494,354.023 40.476,270.753 Z"
         id="path2780" />
      <g
         id="g2782">
</g>
      <g
         id="g2784">
</g>
      <g
         id="g2786">
</g>
      <g
         id="g2788">
</g>
      <g
         id="g2790">
</g>
      <g
         id="g2792">
</g>
      <g
         id="g2794">
</g>
      <g
         id="g2796">
</g>
      <g
         id="g2798">
</g>
      <g
         id="g2800">
</g>
      <g
         id="g2802">
</g>
      <g
         id="g2804">
</g>
      <g
         id="g2806">
</g>
      <g
         id="g2808">
</g>
      <g
         id="g2810">
</g>
    </g>
    <path
       style="fill:#000080;stroke:#887964;stroke-width:2.47591;stroke-linecap:butt;stroke-linejoin:miter;stroke-miterlimit:4;stroke-dasharray:14.8555, 4.95182;stroke-dashoffset:0;stroke-opacity:1"
       d="M 76.377597,181.33959 281.41485,-5.023662"
       id="path9191" />
  </g>
</svg>
