<?xml version="1.0" encoding="UTF-8" standalone="no"?>
<!-- Created with Inkscape (http://www.inkscape.org/) -->

<svg
   width="323.88171mm"
   height="233.44446mm"
   viewBox="0 0 323.88173 233.44447"
   version="1.1"
   id="svg902"
   sodipodi:docname="landing_metrics.svg"
   inkscape:version="1.1.2 (b8e25be833, 2022-02-05)"
   xmlns:inkscape="http://www.inkscape.org/namespaces/inkscape"
   xmlns:sodipodi="http://sodipodi.sourceforge.net/DTD/sodipodi-0.dtd"
   xmlns="http://www.w3.org/2000/svg"
   xmlns:svg="http://www.w3.org/2000/svg">
  <sodipodi:namedview
     id="namedview23"
     pagecolor="#ffffff"
     bordercolor="#666666"
     borderopacity="1.0"
     inkscape:pageshadow="2"
     inkscape:pageopacity="0.0"
     inkscape:pagecheckerboard="0"
     inkscape:document-units="mm"
     showgrid="false"
     inkscape:zoom="0.30557423"
     inkscape:cx="-73.631863"
     inkscape:cy="854.12961"
     inkscape:window-width="1920"
     inkscape:window-height="1009"
     inkscape:window-x="-8"
     inkscape:window-y="-8"
     inkscape:window-maximized="1"
     inkscape:current-layer="svg902" />
  <defs
     id="defs899" />
  <g
     id="g5898"
     transform="matrix(0.26463373,0,0,0.26463373,141.61583,52.90551)">
    <rect
       style="fill:#e4e4e4;fill-opacity:1"
       id="rect1858"
       width="451.2402"
       height="260.4585"
       x="162.57918"
       y="41.474281" />
    <g
       id="g192"
       transform="translate(23.225593)">
      <path
         style="fill:#323940;stroke-width:1.33333"
         d="m 334.48105,117.45389 c -3.06703,-2.48086 -3.15841,-3.16441 -3.5652,-26.666672 l -0.41751,-25.293619 h 10.08418 10.08416 v 24.940652 c 0,23.120019 -0.0841,23.846569 -3.08593,26.666669 -3.8078,3.57723 -8.94255,3.71559 -13.0997,0.35297 z"
         id="path1381" />
      <path
         style="fill:#323940;stroke-width:1.33333"
         d="m 400.97213,119.66667 c -4.72312,-3.57125 -4.69268,-7.38153 0.21731,-27.204548 3.76196,-15.188059 5.36238,-20.036678 6.98066,-19.570351 1.12051,0.322888 5.41487,1.542561 9.54303,2.710385 l 7.50575,2.123318 -4.80748,19.32236 c -2.97277,11.948256 -5.57335,19.326496 -7.40484,21.285506 -3.09091,3.30612 -8.6158,3.91823 -12.03443,1.33333 z"
         id="path1379" />
      <path
         style="fill:#323940;stroke-width:1.33333"
         d="m 269.4155,119 c -2.12681,-1.72315 -4.0986,-7.1702 -7.5402,-20.82973 -2.56314,-10.17302 -4.94706,-20.262471 -4.58073,-20.628814 0.36635,-0.366341 4.58097,-1.751643 9.36583,-3.078442 l 8.69975,-2.412368 1.28681,4.908177 c 4.51091,17.205605 8.68638,33.830107 8.68638,35.676747 0,3.25964 -6.12208,8.69777 -9.79168,8.69777 -1.78542,0 -4.5422,-1.05 -6.12616,-2.33334 z"
         id="path1377" />
      <path
         style="fill:#323940;stroke-width:1.33333"
         d="m 453.79042,141.91162 c -4.88808,-4.88808 -3.7347,-8.42143 8.91009,-27.29544 l 11.60261,-17.324533 4.2632,2.591689 c 2.34474,1.425424 6.18948,3.743914 8.54385,5.152184 l 4.28067,2.56049 -12.08536,18.09726 c -6.19018,9.26951 -12.42757,17.48011 -13.85968,18.24655 -4.23998,2.26917 -8.01489,1.61229 -11.65538,-2.0282 z"
         id="path1375"
         sodipodi:nodetypes="sccsscsss" />
      <path
         style="fill:#323940;stroke-width:1.33333"
         d="m 215.74587,143.66667 c -1.98325,-1.57616 -24.36797,-34.58304 -24.36797,-35.92035 0,-0.34581 3.72248,-2.72655 8.27217,-5.29052 l 8.27217,-4.661762 11.68327,17.598362 c 11.82116,17.80606 13.28843,22.38034 8.3945,27.27427 -3.0067,3.00669 -9.10314,3.5042 -12.25414,1 z"
         id="path1373" />
      <path
         style="fill:#cccbd1;stroke-width:1.66728"
         d="m 95.392123,631.8035 c -7.342117,-3.85848 -15.630895,-12.15127 -19.736677,-19.74623 -3.59628,-6.65246 -3.606459,-6.99596 -4.071156,-137.46719 -0.323094,-90.71127 0.09854,-133.51708 1.375897,-139.66983 2.423671,-11.67476 10.165148,-21.6174 21.402342,-27.48778 l 8.913151,-4.65629 H 358.7107 c 287.47656,0 266.8814,-0.91757 280.2865,12.48752 13.02979,13.02981 12.59416,7.33385 12.06554,157.75167 -0.4642,132.08627 -0.473,132.38722 -4.07049,139.0419 -1.98292,3.66803 -6.10944,9.06951 -9.17006,12.00332 -11.78544,11.29704 9.1004,10.51196 -277.69526,10.43826 -233.17051,-0.0599 -260.244471,-0.33557 -264.734807,-2.69535 z"
         id="path204"
         sodipodi:nodetypes="ssssscsssssss" />
      <path
         style="fill:#a3adb9;stroke-width:1.33333"
         d="m 89.557813,600.39475 c -6.82279,-2.41106 -14.500955,-9.62321 -18.21088,-17.10561 -2.531532,-5.10575 -2.63509,-8.96005 -2.987044,-111.17371 -0.417365,-121.21036 -0.820758,-116.1756 10.159979,-126.80726 8.344645,-8.07936 33.150862,-9.30816 56.787082,-9.30816 h 19.66423 l -7.12788,3.72365 c -8.98643,4.69457 -15.17732,12.64574 -17.11554,21.98209 -1.02147,4.92038 -1.35869,39.15236 -1.10031,111.69453 0.41475,116.44658 -0.26654,107.97646 9.52182,118.38017 9.10455,9.67689 -10.82271,8.81158 220.18408,9.5612 l 208,0.67497 -226.00001,0.21977 c -200.84788,0.19531 -246.591397,-0.009 -251.775527,-1.84164 z"
         id="path202"
         sodipodi:nodetypes="csssscssssscsc" />
      <path
         style="fill:#fb5e7d;stroke-width:1.33333"
         d="m 316.00001,245.84557 c 0,-5.58504 13.62783,-89.01996 14.90572,-91.0662 3.53413,-5.65904 12.05656,-7.02823 17.4313,-2.80046 4.19693,3.30131 3.68562,1.05418 10.9263,48.0211 3.33512,21.63333 6.36989,42.70913 6.74391,44.32604 l 0.68005,2.93986 -25.34364,-0.009 c -16.81467,-0.007 -25.34364,-0.4816 -25.34364,-1.411 z"
         id="path200"
         sodipodi:nodetypes="sssssccss" />
      <path
         style="fill:#768799;stroke-width:1.33333"
         d="M 103.3197,681.63855 C 81.885511,675.46418 46.706921,655.511 42.305627,634.29266 41.291241,629.40237 40.968345,550.03475 41.219545,367.33335 L 41.577024,107.33334 44.487152,97.138114 C 55.615336,58.152079 95.005149,30.275546 130,13.278638 137.33334,9.7168579 148.43334,5.4220722 154.66667,3.7346703 l 11.33334,-3.06800361 h 192.66667 c 204.29897,0 198.68809,-0.16052941 218.66667,6.25613571 37.41619,12.0172246 68.29534,42.5439476 81.33885,80.4105336 6.86092,19.917914 6.66116,11.344465 6.66116,285.894534 0,279.33881 0.44914,262.90339 -7.58818,277.67059 -7.90342,14.5212 -26.8578,27.67712 -43.89575,30.46734 -4.85206,0.79458 -102.54987,1.25212 -255.84942,1.19818 -230.87803,-0.0812 -247.23263,1.21997 -254.68031,-0.92543 z m 466.31331,-80.36601 c 7.84438,-2.17857 15.94762,-9.13056 20.03368,-17.18743 l 3.66666,-7.22993 V 470.24895 c 0,-77.8524 -0.42293,-108.01782 -1.56802,-111.83982 -2.05112,-6.84602 -10.93003,-16.82306 -17.7137,-19.90449 -5.15458,-2.34142 -15.07505,-2.44732 -231.89692,-2.47535 -175.57194,-0.0227 -227.74412,0.33988 -231.99082,1.61221 -3.16725,0.94894 -8.10439,4.18359 -11.701835,7.66667 -10.980737,10.63166 -10.577344,5.5969 -10.159979,126.80726 0.351954,102.21366 0.455512,106.06796 2.987044,111.17371 1.442347,2.90901 4.817347,7.48401 7.500001,10.16667 9.669949,9.66994 -8.369977,8.9895 241.210889,9.09818 150.97279,0.0657 226.2957,-0.3546 229.633,-1.28145 z M 261.17832,256.04432 c 50.6,-14.46295 108.35343,-14.44607 159.48836,0.0467 11.65843,3.30423 16.36501,4.02704 22.94694,3.52408 9.58353,-0.73233 18.43498,-5.23449 23.59704,-12.00229 3.57366,-4.68532 43.36758,-86.59798 46.11642,-94.92704 2.20386,-6.67777 1.04122,-18.76323 -2.4665,-25.63893 -3.59292,-7.04276 -11.24179,-13.54343 -26.6555,-22.65418 -37.81106,-22.349453 -79.06784,-34.9665 -124.5384,-38.08607 l -7.66667,-0.525981 -1.39781,0.88606 -4.30109,-0.149909 c -23.59839,-0.822494 -65.58913,5.420988 -68.74831,6.844193 l -1.49619,0.67403 c -2.00526,0.903365 -27.01151,6.032041 -41.70876,11.925532 -7.87536,3.157959 -20.17536,9.123612 -27.33334,13.257008 -16.93966,9.781857 -17.2016,9.944897 -25.02802,15.577917 -11.32011,8.14759 -17.3486,23.38527 -14.06962,35.56251 2.68338,9.96528 43.90375,93.99101 48.4634,98.79029 5.98691,6.30154 16.11886,10.82278 24.28922,10.83874 3.66821,0.007 12.89719,-1.76702 20.50883,-3.94266 z"
         id="path198"
         sodipodi:nodetypes="ssscssscsssssssssscsssssssssssssssssssccssssssssss" />
      <path
         style="fill:#5d6e7e;stroke-width:1.33333"
         d="M 64.53574,680.68572 C 40.316711,675.4166 21.49641,655.53258 17.385121,630.87015 16.328886,624.5341 16.015271,548.86409 16.287367,366.00001 L 16.668287,110 20.340667,96.66667 C 33.157968,50.130814 67.211937,16.337858 113.31803,4.4019532 123.89232,1.6644891 129.87789,1.0421346 149.33334,0.6572262 162.16667,0.4033304 170.86667,0.49190187 168.66667,0.8540517 156.32349,2.8859085 141.76799,7.5629575 130,13.278638 95.005149,30.275546 72.03832,58.152081 60.91013,97.138114 l -2.910128,10.195226 -0.357479,260.00001 c -0.251198,182.7014 0.07169,262.06902 1.086082,266.95931 C 63.129899,655.511 80.565807,673.99784 102,680.17221 l 8,2.30451 -18.666664,-0.0107 c -10.489944,-0.007 -22.228328,-0.78589 -26.797596,-1.77999 z"
         id="path196" />
      <path
         style="fill:#323940;stroke-width:1.33333"
         d="m 452.32467,482.36882 c -4.23712,-2.04304 -6.04391,-9.42179 -5.45928,-22.29528 0.45813,-10.08855 0.80755,-11.26318 4.22472,-14.20251 4.56751,-3.9288 7.49333,-4.03575 12.06343,-0.44091 3.4268,2.69552 3.51314,3.13558 3.51314,17.90323 0,14.76765 -0.0864,15.20771 -3.51314,17.90323 -3.87939,3.05153 -6.31932,3.30664 -10.82887,1.13224 z"
         id="path1371" />
      <path
         style="fill:#323940;stroke-width:1.33333"
         d="m 217.82291,480.6108 c -3.28206,-3.28206 -3.37498,-3.8497 -2.93938,-17.95573 0.51532,-16.68788 1.8101,-19.18839 9.93588,-19.18839 8.1204,0 9.84726,3.52047 9.84726,20.07499 0,12.99393 -0.21616,14.12905 -3.27273,17.18561 -4.21295,4.21296 -9.28512,4.16943 -13.57103,-0.11653 z"
         id="path1369" />
      <path
         style="fill:#323940;stroke-width:1.33333"
         d="m 324.35716,492.05967 c -17.52264,-6.30663 -26.49392,-19.08221 -18.60455,-26.49391 4.22367,-3.96792 9.29447,-3.64834 14.53433,0.91603 7.85455,6.84195 12.55875,8.51337 22.39637,7.95749 7.2709,-0.41084 10.00738,-1.24776 14.62333,-4.47234 11.14393,-7.78488 11.58508,-7.97035 15.59951,-6.55855 2.06488,0.72619 4.59608,3.07656 5.62486,5.22307 1.66975,3.48382 1.59852,4.40001 -0.66357,8.5355 -3.15579,5.76934 -13.29376,12.8301 -22.23355,15.48492 -9.2295,2.74088 -22.72593,2.48532 -31.27673,-0.59221 z"
         id="path194" />
    </g>
  </g>
  <g
     id="g120"
     transform="matrix(0.2646916,0,0,0.2646916,14.746841,-0.08675528)">
    <path
       style="fill:#f2f4e5"
       d="m 50.356459,395.5 c 0.293825,-1.65 1.552171,-17.05804 2.796325,-34.24009 l 2.262097,-31.2401 -2.270485,-13.99809 c -3.062861,-18.88328 -2.236994,-24.16528 5.977532,-38.23049 2.316273,-3.96601 4.211405,-7.73793 4.211405,-8.38205 0,-0.67255 2.962718,-1.66041 6.95924,-2.32042 10.318218,-1.70402 15.38282,-4.6097 35.207427,-20.1993 18.99176,-14.93467 20.81557,-15.97528 45.46372,-25.94011 11.04951,-4.46713 17.07409,-6.34323 21.51396,-6.69962 5.94154,-0.47693 53.54068,4.079 57.29892,5.55846 1.39196,0.54796 -18.52831,20.51757 -89.0985,91.01151 C 69.068078,382.35235 49.92708,397.91121 50.356459,395.5 Z"
       id="path130"
       sodipodi:nodetypes="sscssssssssss" />
    <path
       style="fill:#d6d8cb"
       d="m 21.775788,429.21448 c 0.327099,-2.19767 1.16214,-23.29033 2.393304,-39.88303 l 2.238479,-30.16856 -2.310252,-14.33144 c -3.399938,-21.09121 -2.852446,-23.20162 12.924436,-49.8196 8.235268,-13.89414 13.352509,-19.6476 20.857499,-23.45066 C 60.659096,270.15253 63.199531,269 63.524666,269 c 0.325134,0 -1.04161,2.8125 -3.03721,6.25 -9.636468,16.5992 -10.475015,21.20645 -7.375406,40.52288 l 2.29752,14.3179 -2.259442,31.20461 C 51.907435,378.45792 50.650461,393.85 50.356852,395.5 49.930707,397.89481 89.026719,359.36458 244.16148,204.5 L 438.49993,10.5 257.49997,191.81303 C 157.94998,291.53519 64.834063,387.11788 49.500383,402.06839 c -27.322215,26.63946 -28.307434,31.062 -27.724595,27.14609 z"
       id="path128"
       sodipodi:nodetypes="sscsssssscssscsss" />
    <path
       style="fill:#4bc6b2"
       d="m 161.04104,486.8639 c -12.59382,-1.98154 -18.71287,-4.30696 -46.03892,-17.4962 -9.9,-4.77835 -28.800004,-13.83962 -42.000004,-20.13616 -13.2,-6.29653 -25.294244,-12.65796 -26.876099,-14.1365 -6.140408,-5.73937 -8.33977,-16.10689 -5.08507,-23.97038 C 42.341167,407.98327 44.96703,404.59331 33.465949,416 25.979507,423.425 114.34532,335.06986 229.83442,219.65525 345.32352,104.24064 441.52148,8.6506455 443.60768,7.2330405 c 13.38645,-9.0963292 32.37876,-9.2120415 46.19612,-0.2814539 3.27512,2.1168141 6.2417,4.3130104 6.59238,4.8804374 0.35069,0.567426 -41.57579,47.765983 -93.16996,104.885686 -51.59417,57.1197 -95.50603,106.07838 -97.5819,108.79708 -5.27716,6.91128 -11.27204,19.53134 -13.7688,28.98521 -1.56538,5.92725 -2.12612,11.10913 -2.16425,20 -0.063,14.69407 1.43182,21.31732 8.66617,38.39755 7.87105,18.58346 9.08283,24.00039 9.08283,40.60245 0,19.57095 -3.85423,32.96366 -14.0194,48.71475 -5.61295,8.69736 -52.44964,56.44096 -62.24942,63.45476 -8.16063,5.84066 -25.10936,16.54185 -35.18933,19.19006 -9.23952,2.42741 -26.12107,3.39523 -34.96108,2.00433 z"
       id="path126"
       sodipodi:nodetypes="ssssssssssssssssssss" />
    <path
       style="fill:#29ab91"
       d="m 135.46645,510.55332 c -4.41846,-0.68684 -10.49346,-2.04651 -13.5,-3.02148 -8.86695,-2.87539 -97.203314,-45.45289 -100.342549,-48.36439 -6.424435,-5.95837 -8.463492,-16.7494 -4.648706,-24.60173 1.112579,-2.29012 8.117044,-10.17986 16.038645,-18.06572 11.796383,-11.74316 13.815417,-13.40067 12.524805,-10.28212 -3.254445,7.86383 -1.055055,18.2311 5.085256,23.97038 1.581855,1.47854 13.676099,7.83997 26.876099,14.1365 13.2,6.29654 32.1,15.36663 42,20.15576 32.87729,15.90441 39.31666,17.85767 59,17.89651 10.41601,0.0206 14.68953,-0.4259 21.5,-2.24613 10.04543,-2.68484 23.09804,-8.60777 30.32648,-13.76135 4.25956,-3.03689 3.23025,-1.70691 -5.82648,7.52845 -19.45365,19.83735 -30.8743,27.85575 -47.10974,33.07561 -9.13093,2.93568 -22.3253,5.11271 -29.86403,4.92745 -2.21442,-0.0544 -7.64133,-0.6609 -12.05978,-1.34774 z"
       id="path124" />
    <path
       style="fill:#3a484a"
       d="m 122.53089,439.85424 c -3.09666,-2.83017 -6.30611,-6.45266 -7.13211,-8.04998 C 112.66686,426.52131 116.03565,421 121.99093,421 c 3.24215,0 4.47536,0.82287 10.34501,6.90277 7.48615,7.75431 8.45221,11.06872 4.34961,14.92292 -3.92563,3.68794 -7.74566,2.88601 -14.15466,-2.97145 z m 43.05478,-37.17766 c -4.94409,-4.94409 -1.76337,-12.65674 5.23691,-12.69854 9.23714,-0.0552 16.79865,-6.91564 18.08709,-16.41021 0.41316,-3.04459 1.57225,-6.44287 2.57575,-7.55172 2.45421,-2.71187 7.86503,-2.66566 10.62139,0.0907 1.81574,1.81574 2.05364,3.02462 1.72193,8.75 -0.92071,15.89179 -13.38427,28.38577 -29.80169,29.87445 -5.32639,0.48298 -6.08945,0.29725 -8.44138,-2.05468 z M 234.5,339.05093 c -1.1,-0.45226 -4.8125,-3.75978 -8.25,-7.35006 -7.0337,-7.34629 -7.80403,-10.23775 -3.79545,-14.24632 4.34433,-4.34434 7.29356,-3.39705 15.37645,4.93887 4.4458,4.58498 7.169,8.22284 7.169,9.57692 0,2.41683 -5.08663,8.06594 -7.17308,7.96627 -0.7298,-0.0349 -2.22692,-0.43341 -3.32692,-0.88568 z"
       id="path122" />
  </g>
  <g
     id="g102"
     transform="matrix(0.26458358,0,0,0.26458358,-0.02851713,130.60997)">
    <path
       style="fill:#7ee0fd"
       d="m 162,387.88365 c -3.025,-0.50651 -8.65,-2.41994 -12.5,-4.25207 C 142.36173,380.23464 132,372.74173 132,370.97675 L 121.61758,353.5 c -1.484,-3.83333 -2.968,-7.66667 -4.45199,-11.5 L 111.5,326.99821 C 110.04526,322.99881 108.59052,318.9994 107.13577,315 l -5.30244,-15.06683 c -0.18333,0.51324 -1.3108,-1.96176 -2.505484,-5.5 L 97.155692,288 91.965579,273.25004 c -0.01893,0.6875 -1.367277,-2.125 -2.996325,-6.25 -1.629048,-4.125 -2.963964,-7.5 -2.966481,-7.5 0,0 -4.913145,-14.50004 -5.385197,-15.00004 -1.483996,-3.83333 -2.967992,-7.66667 -4.451987,-11.5 L 70.5,217.99821 c -1.44199,-3.96438 -2.883977,-7.92877 -4.325964,-11.89315 L 60.156147,190.5 l -1.306246,-4 c -0.721233,-2.20856 -3.38643,-6.09176 -5.950977,-8.67058 C 46.98114,171.87882 38.865325,169.17484 23.5,168.03449 10.533621,167.07218 8.4035728,166.36261 4.2374469,161.61766 0.76458613,157.66229 -0.55837467,152.78993 0.4218231,147.56503 1.3497467,142.61877 8.8930717,132.90921 14.60063,129.31446 24.508589,123.07419 7.3429981,123.5 249,123.5 c 207.41089,0 221.90031,0.1107 227.7934,1.74043 18.47695,5.10976 28.6773,15.44653 33.31404,33.75957 2.00799,7.93066 1.7586,31.84378 -0.47451,45.5 -4.403,26.92575 -22.31598,86.02921 -27.70772,91.42094 -7.73069,7.7307 -20.26463,2.26192 -20.10559,-8.77242 0.0289,-2.00669 1.18639,-10.39852 2.57216,-18.64852 6.24939,-37.20516 7.21885,-63.89546 2.74423,-75.55148 -3.63057,-9.45733 -11.56573,-15.10864 -21.42521,-15.25875 -8.64748,-0.13165 -7.11898,-3.40465 -42.17526,90.31023 -17.38508,46.475 -33.16788,87.71321 -35.07288,91.64047 -5.86343,12.08773 -15.63613,20.55214 -30.34309,26.28099 L 331.5,388.5 l -82,0.15229 c -46.13587,0.0857 -84.40552,-0.2505 -87.5,-0.76864 z"
       id="path108"
       sodipodi:nodetypes="ssccccccsccsccccccsssssssssssssssssscss" />
    <path
       style="fill:#44b5d8"
       d="m 127.9924,365.48895 c -1.70703,-2.48108 -3.75969,-6.08108 -4.56146,-8 L 121.97316,354 h 24.87856 c 23.65478,0 25.00817,0.10195 27.51342,2.07258 2.79617,2.19947 3.50514,6.43278 1.65597,9.88798 -1.75555,3.28026 -6.665,4.03944 -26.12229,4.03944 h -18.80274 z m -13.05747,-30.19776 c -1.33921,-3.68985 -2.58493,-7.06485 -2.76826,-7.5 -0.18334,-0.43516 10.95416,-0.79119 24.75,-0.79119 23.75,0 25.18964,0.10631 27.08333,2 2.74991,2.74991 2.65422,8.3126 -0.18856,10.96104 C 161.74566,341.88561 160.38154,342 139.49637,342 H 117.36986 Z M 104.62913,307.75 c -1.45132,-3.9875 -2.6366,-7.5875 -2.63395,-8 0.008,-1.22182 45.297,-0.89271 48.87671,0.35518 5.57591,1.94378 6.91928,8.19456 2.67356,12.44027 L 151.09091,315 H 129.1794 107.2679 Z M 94.615861,280.94279 C 93.177137,277.06132 92,273.46132 92,272.94279 92,272.37909 101.46924,272 115.54966,272 c 19.10257,0 24.10406,0.28669 26.48551,1.51819 3.61118,1.86741 4.81953,5.86836 2.83837,9.39805 -2.59671,4.62636 -4.87092,5.0532 -27.00768,5.06902 L 97.231721,288 Z m -7.98689,-21.73411 c -0.268985,-0.43523 -1.625376,-3.81023 -3.014203,-7.5 L 81.089628,245 h 24.373402 c 13.40537,0 25.10184,0.27953 25.99217,0.62118 2.44133,0.93683 4.68272,5.98112 3.95175,8.89352 -1.28652,5.12591 -3.02737,5.4853 -26.57044,5.4853 -11.945161,0 -21.938554,-0.35609 -22.207539,-0.79132 z M 73.991057,226.26252 c -1.370081,-3.70561 -2.641057,-7.08061 -2.82439,-7.5 C 70.983333,218.34313 82.120833,218 95.916667,218 c 23.750003,0 25.189643,0.10631 27.083333,2 2.97766,2.97766 2.66668,8.33043 -0.63486,10.92742 C 119.88403,232.87906 118.46851,233 98.106199,233 H 76.482115 Z M 63.648112,198.80204 c -1.46176,-4.01612 -2.655578,-7.66154 -2.652929,-8.10092 0.0026,-0.43939 11.295239,-0.66439 25.094643,-0.5 24.995934,0.29776 25.096974,0.30771 27.000004,2.65966 2.43942,3.01488 2.4395,7.26339 1.9e-4,10.27844 -1.89021,2.33633 -2.14232,2.36391 -24.347073,2.66282 l -22.437089,0.30205 z"
       id="path106" />
    <path
       style="fill:#3a484a"
       d="M 243.73447,269.91195 C 233.7365,267.55646 224,259.85245 224,254.29705 c 0,-6.56756 8.26813,-9.97502 12.59501,-5.19064 3.32121,3.67238 9.43552,6.15638 15.03002,6.10611 5.71335,-0.0513 8.2285,-1.07561 13.15977,-5.35917 4.3746,-3.80002 9.2563,-3.88786 12.14262,-0.21849 1.13992,1.44917 2.07258,3.66464 2.07258,4.92327 0,5.29369 -9.75579,12.70486 -19.85255,15.08137 -6.36186,1.49741 -9.94477,1.56074 -15.41298,0.27245 z m -78.25189,-9.17328 c -2.14012,-1.84085 -2.73236,-3.40176 -3.1851,-8.39467 C 161.20455,240.29098 163.95951,233 169.60677,233 175.8632,233 178,236.8188 178,248 c 0,9.04741 -1.57389,13.38523 -5.20995,14.35924 -3.63838,0.97464 -4.51686,0.77982 -7.30747,-1.62057 z m 161.97197,-0.19322 C 325.17281,258.26372 325,257.38047 325,248 c 0,-9.38047 0.17281,-10.26372 2.45455,-12.54545 1.35,-1.35 3.62045,-2.45455 5.04545,-2.45455 1.425,0 3.69545,1.10455 5.04545,2.45455 C 339.82719,237.73628 340,238.61953 340,248 c 0,9.38047 -0.17281,10.26372 -2.45455,12.54545 -1.35,1.35 -3.62045,2.45455 -5.04545,2.45455 -1.425,0 -3.69545,-1.10455 -5.04545,-2.45455 z"
       id="path104" />
  </g>
</svg>
