<?xml version="1.0" encoding="UTF-8" standalone="no"?>
<!-- Created with Inkscape (http://www.inkscape.org/) -->

<svg
   width="359.8197mm"
   height="353.13919mm"
   viewBox="0 0 359.8197 353.13919"
   version="1.1"
   id="svg17556"
   inkscape:version="1.1.2 (b8e25be833, 2022-02-05)"
   sodipodi:docname="landing_tools.svg"
   xmlns:inkscape="http://www.inkscape.org/namespaces/inkscape"
   xmlns:sodipodi="http://sodipodi.sourceforge.net/DTD/sodipodi-0.dtd"
   xmlns="http://www.w3.org/2000/svg"
   xmlns:svg="http://www.w3.org/2000/svg">
  <sodipodi:namedview
     id="namedview17558"
     pagecolor="#ffffff"
     bordercolor="#666666"
     borderopacity="1.0"
     inkscape:pageshadow="2"
     inkscape:pageopacity="0.0"
     inkscape:pagecheckerboard="0"
     inkscape:document-units="mm"
     showgrid="false"
     fit-margin-top="0"
     fit-margin-left="0"
     fit-margin-right="0"
     fit-margin-bottom="0"
     inkscape:zoom="0.366586"
     inkscape:cx="-28.642665"
     inkscape:cy="250.9643"
     inkscape:window-width="1920"
     inkscape:window-height="1009"
     inkscape:window-x="-8"
     inkscape:window-y="-8"
     inkscape:window-maximized="1"
     inkscape:current-layer="layer1" />
  <defs
     id="defs17553" />
  <g
     inkscape:label="Layer 1"
     inkscape:groupmode="layer"
     id="layer1"
     transform="translate(93.492631,37.828822)">
    <g
       id="g17626"
       transform="matrix(0.7256717,0,0,0.7256717,-246.64228,155.10436)">
      <g
         id="g17924">
        <path
           style="fill:#5ad4fd;stroke-width:0.352778"
           d="m 273.81382,52.56358 c -1.97691,-0.90115 -3.02841,-1.86738 -4.00308,-3.67846 -0.69683,-1.29481 -0.76875,-2.02872 -0.87268,-8.90449 l -0.11325,-7.49338 37.97247,-0.0913 37.97247,-0.0914 -0.11199,7.58473 c -0.10293,6.97096 -0.17345,7.69891 -0.87141,8.99583 -0.88005,1.63526 -1.91563,2.6494 -3.6503,3.57471 -1.17559,0.62708 -2.75535,0.66267 -32.98473,0.74301 -31.35488,0.0833 -31.76975,0.0754 -33.3375,-0.63926 z m 90.31111,-33.2686 c 0,-0.0733 0.27782,-0.35107 0.61736,-0.61736 0.55953,-0.43881 0.57201,-0.42633 0.1332,0.1332 -0.46086,0.58763 -0.75056,0.77451 -0.75056,0.48416 z m -130.71362,-4.54111 -2.45999,-2.55764 2.55764,2.45998 c 1.4067,1.353 2.55764,2.50393 2.55764,2.55764 0,0.25877 -0.37046,-0.0844 -2.65529,-2.45998 z m 135.65251,-0.0882 c 0.65821,-0.6791 1.27612,-1.23473 1.37313,-1.23473 0.097,0 -0.36214,0.55563 -1.02035,1.23473 -0.65821,0.67909 -1.27611,1.23472 -1.37313,1.23472 -0.097,0 0.36215,-0.55563 1.02035,-1.23472 z m 3.52778,-3.83737 c 0,-0.0733 0.27781,-0.35106 0.61736,-0.61736 0.55953,-0.4388098 0.57201,-0.4263298 0.1332,0.1332 -0.46086,0.58764 -0.75056,0.77452 -0.75056,0.48416 z m -65.85065,-28.70713 -82.25482,-0.0889 -0.89661,-3.791623 c -0.49313,-2.08539 -1.0881,-5.19152 -1.32215,-6.902517 -0.55312,-4.043599 0.0542,-6.269549 2.33191,-8.547287 2.85497,-2.854978 -4.19988,-2.629313 82.19927,-2.629313 86.434,0 79.34202,-0.227929 82.21216,2.642214 1.1252,1.125199 1.69745,2.088014 2.13524,3.592608 0.56062,1.926682 0.56121,2.298573 0.009,5.936012 -0.32382,2.134305 -0.94218,5.22993 -1.37414,6.879166 l -0.78536,2.99861 z m -95.69372,-11.229335 c 0.0169,-0.410968 0.10052,-0.494559 0.21314,-0.213137 0.1019,0.254659 0.0894,0.558934 -0.0279,0.676158 -0.11723,0.117225 -0.20061,-0.09114 -0.18529,-0.463021 z"
           id="path17636" />
        <path
           style="fill:#23c4fb;stroke-width:0.352778"
           d="m 264.90618,53.0612 c 0.24254,-0.0979 0.63941,-0.0979 0.88195,0 0.24253,0.0979 0.0441,0.17794 -0.44097,0.17794 -0.48507,0 -0.68351,-0.0801 -0.44098,-0.17794 z m 6.04042,-2.14761 c -0.43881,-0.55952 -0.42633,-0.572 0.1332,-0.13319 0.33954,0.26629 0.61736,0.5441 0.61736,0.61736 0,0.29035 -0.2897,0.10347 -0.75056,-0.48417 z m -2.04381,-3.82176 c 0.0169,-0.41096 0.10052,-0.49455 0.21313,-0.21313 0.10191,0.25466 0.0894,0.55893 -0.0278,0.67616 -0.11723,0.11722 -0.20061,-0.0911 -0.18529,-0.46303 z m 10.671,-14.87542 c 11.99625,-0.0515 31.5225,-0.0515 43.39166,2e-5 11.86918,0.0515 2.05407,0.0936 -21.81135,0.0936 -23.86542,-2e-5 -33.57655,-0.0422 -21.58031,-0.0937 z m 85.60948,-13.97976 c 0,-0.0733 0.27781,-0.35107 0.61736,-0.61736 0.55952,-0.43881 0.572,-0.42633 0.13319,0.13319 -0.46086,0.58764 -0.75055,0.77452 -0.75055,0.48417 z m 6.35,-6.35 c 0,-0.0733 0.27781,-0.35107 0.61736,-0.61736 0.55952,-0.43881 0.572,-0.42633 0.13319,0.13319 -0.46086,0.58764 -0.75055,0.77452 -0.75055,0.48417 z M 213.71971,-17.87807 c -0.14771,-0.23899 59.40036,-0.23813 143.70245,0.002 17.36548,0.0495 -7.82671,0.12879 -55.98265,0.17624 -48.15595,0.0475 -87.62986,-0.0328 -87.7198,-0.17829 z m 8.61641,-8.76065 c 0.0169,-0.410969 0.10052,-0.494559 0.21314,-0.213138 0.1019,0.25466 0.0894,0.558934 -0.0279,0.676159 -0.11722,0.117224 -0.2006,-0.09114 -0.18528,-0.463021 z m -0.32493,-2.263659 c 0,-0.485069 0.0801,-0.683507 0.17794,-0.440972 0.0979,0.242535 0.0979,0.63941 0,0.881945 -0.0979,0.242534 -0.17794,0.0441 -0.17794,-0.440973 z m -8.52237,-8.290277 c 0.4557,-0.48507 0.90792,-0.881945 1.00494,-0.881945 0.097,0 -0.19646,0.396875 -0.65216,0.881945 -0.4557,0.485069 -0.90792,0.881944 -1.00493,0.881944 -0.097,0 0.19646,-0.396875 0.65215,-0.881944 z m 15.1033,-2.534042 c 0.25466,-0.101907 0.55894,-0.08938 0.67616,0.02783 0.11723,0.117225 -0.0911,0.200604 -0.46302,0.185286 -0.41097,-0.01693 -0.49456,-0.10052 -0.21314,-0.213134 z"
           id="path17634" />
        <path
           style="fill:#03bafa;stroke-width:0.352778"
           d="m 264.48625,52.92021 c -2.34288,-0.39206 -4.36369,-1.87987 -5.46982,-4.02716 -0.8677,-1.68445 -0.90545,-2.02217 -1.01495,-9.0808 l -0.11374,-7.3313 h 5.4936 5.49359 l 0.003,7.49653 0.003,7.49653 1.05957,1.84754 c 0.78026,1.36053 1.54658,2.12684 2.9071,2.90711 l 1.84755,1.05956 -4.23334,-0.0382 c -2.32833,-0.021 -5.01761,-0.16943 -5.97618,-0.32983 z M 252.79227,29.46045 C 235.19251,19.22667 221.16839,3.1241002 215.08203,-13.83863 c -0.68223,-1.9014 -1.24043,-3.52859 -1.24043,-3.61597 0,-0.0874 39.36554,-0.15889 87.47897,-0.15889 h 87.47896 l -1.07207,3.08681 c -6.19904,17.8486602 -21.47663,35.1049 -39.8593,45.02159 l -3.02761,1.63327 h -43.7302 -43.73021 z m 52.72369,-13.16517 c 2.67578,-0.8328 5.61993,-2.95771 6.27704,-4.5304 0.61807,-1.47926 0.0827,-2.8515698 -1.38737,-3.5561598 -1.18856,-0.56966 -2.06061,-0.3216 -3.58997,1.02119 -1.61164,1.4150498 -3.37303,2.0843798 -5.48517,2.0843798 -2.11214,0 -3.87353,-0.66933 -5.48517,-2.0843798 -0.64419,-0.5656 -1.49662,-1.13163 -1.89431,-1.25785 -1.01163,-0.32108 -2.58018,0.51905 -3.13661,1.67999 -0.69486,1.4497898 0.30863,3.2251498 2.75498,4.8740698 3.57898,2.41235 7.84852,3.04462 11.94658,1.76916 z m -34.68471,-3.37746 c 0.81526,-0.81526 0.86591,-1.09476 0.86591,-4.7785298 0,-3.68378 -0.0507,-3.96328 -0.86591,-4.77854 -1.05091,-1.05091 -2.60949,-1.1304 -3.76932,-0.19225 -0.77358,0.62573 -0.84124,0.96355 -0.95104,4.74852 -0.11507,3.9666798 -0.0944,4.0986498 0.77772,4.9707898 1.17596,1.17596 2.78444,1.18821 3.94264,0.03 z m 64.94112,-0.03 c 0.87214,-0.87214 0.89279,-1.00411 0.77772,-4.9707898 -0.1098,-3.78497 -0.17746,-4.12279 -0.95104,-4.74852 -1.15983,-0.93815 -2.71841,-0.85866 -3.76932,0.19225 -0.81526,0.81527 -0.86591,1.09477 -0.86591,4.77855 0,3.6837698 0.0506,3.9632698 0.86591,4.7785298 1.1582,1.1582 2.76668,1.14595 3.94264,-0.03 z M 213.7177,-18.23412 c -0.27484,-0.4447 -1.2537,-4.42007 -1.85876,-7.548818 -1.17343,-6.067844 -0.67398,-8.878573 2.03994,-11.480034 2.07129,-1.985447 3.41355,-2.342868 9.29133,-2.474119 l 5.29167,-0.118159 -1.40279,0.722143 c -3.31217,1.705088 -5.1236,4.544462 -5.1236,8.031145 0,2.122025 0.93066,7.618797 1.91044,11.283611 l 0.49514,1.852081 h -5.23891 c -2.88141,0 -5.31341,-0.12053 -5.40446,-0.26785 z"
           id="path17632" />
        <path
           style="fill:#1e6e8d;stroke-width:0.352778"
           d="m 299.14768,16.71775 c 0.25466,-0.10191 0.55893,-0.0894 0.67616,0.0278 0.11722,0.11722 -0.0911,0.2006 -0.46302,0.18529 -0.41097,-0.0169 -0.49456,-0.10052 -0.21314,-0.21314 z m 3.88055,0 c 0.25466,-0.10191 0.55894,-0.0894 0.67616,0.0278 0.11723,0.11722 -0.0911,0.2006 -0.46302,0.18529 -0.41097,-0.0169 -0.49456,-0.10052 -0.21314,-0.21314 z m -11.43265,-3.72777 -0.67203,-0.79375 0.79375,0.67204 c 0.74592,0.63155 0.95434,0.91546 0.67203,0.91546 -0.0669,0 -0.42413,-0.35719 -0.79375,-0.79375 z m 19.08352,0.0882 c 0.35119,-0.38806 0.7179,-0.70556 0.81491,-0.70556 0.097,0 -0.11094,0.3175 -0.46213,0.70556 -0.35119,0.38805 -0.7179,0.70555 -0.81491,0.70555 -0.097,0 0.11094,-0.3175 0.46213,-0.70555 z m -43.96583,-0.26459 c -0.43881,-0.55952 -0.42633,-0.572 0.13319,-0.13319 0.58764,0.46086 0.77452,0.75055 0.48417,0.75055 -0.0733,0 -0.35107,-0.27781 -0.61736,-0.61736 z m 68.48389,0.48417 c 0,-0.0733 0.27781,-0.35107 0.61736,-0.61736 0.55952,-0.43881 0.572,-0.42633 0.13319,0.13319 -0.46086,0.58764 -0.75055,0.77452 -0.75055,0.48417 z M 266.18468,8.3156802 c 7e-4,-2.13431 0.0589,-2.96195 0.12912,-1.83921 0.0702,1.12275 0.0696,2.869 -0.001,3.8805598 -0.071,1.01156 -0.12848,0.093 -0.12768,-2.0413498 z m 5.18755,3.1455998 c 0.0169,-0.41097 0.10052,-0.49456 0.21314,-0.21314 0.1019,0.25466 0.0894,0.55894 -0.0278,0.67616 -0.11723,0.11722 -0.2006,-0.0911 -0.18528,-0.46302 z m 59.61944,0 c 0.0169,-0.41097 0.10053,-0.49456 0.21314,-0.21314 0.10191,0.25466 0.0894,0.55894 -0.0278,0.67616 -0.11722,0.11722 -0.2006,-0.0911 -0.18528,-0.46302 z m 5.39578,-3.1455998 c 7.1e-4,-2.13431 0.0589,-2.96195 0.12912,-1.83921 0.0702,1.12275 0.0696,2.869 -10e-4,3.8805598 -0.071,1.01156 -0.12847,0.093 -0.12767,-2.0413498 z M 300.53674,11.4181 c 0.43656,-0.0841 1.15094,-0.0841 1.5875,0 0.43656,0.0841 0.0794,0.15288 -0.79375,0.15288 -0.87312,0 -1.23031,-0.0688 -0.79375,-0.15288 z m -4.8774,-2.1322798 -0.85524,-0.97014 0.97014,0.85524 c 0.90674,0.79935 1.13192,1.0850298 0.85524,1.0850298 -0.0632,0 -0.49975,-0.4365598 -0.97014,-0.9701298 z m 10.96282,0.0882 c 0.4557,-0.48507 0.90792,-0.88194 1.00493,-0.88194 0.097,0 -0.19645,0.39687 -0.65216,0.88194 -0.4557,0.48507 -0.90792,0.8819398 -1.00493,0.8819398 -0.097,0 0.19646,-0.3968698 0.65216,-0.8819398 z m -15.34584,-0.52917 c 0.35119,-0.38805 0.7179,-0.70555 0.81491,-0.70555 0.097,0 -0.11094,0.3175 -0.46213,0.70555 -0.35119,0.38806 -0.71789,0.70556 -0.81491,0.70556 -0.097,0 0.11095,-0.3175 0.46213,-0.70556 z m 19.72204,-0.0882 -0.67204,-0.79375 0.79375,0.67204 c 0.43657,0.36962 0.79375,0.7268 0.79375,0.79375 0,0.28231 -0.28391,0.0739 -0.91546,-0.67204 z m -17.8479,-0.85835 c 0.25466,-0.10191 0.55893,-0.0894 0.67615,0.0278 0.11723,0.11722 -0.0911,0.2006 -0.46302,0.18528 -0.41097,-0.0169 -0.49456,-0.10052 -0.21313,-0.21313 z m 15.875,0 c 0.25465,-0.10191 0.55893,-0.0894 0.67615,0.0278 0.11723,0.11722 -0.0911,0.2006 -0.46302,0.18528 -0.41097,-0.0169 -0.49456,-0.10052 -0.21313,-0.21313 z m -37.65323,-3.1398 c 0.0169,-0.41097 0.10052,-0.49456 0.21314,-0.21314 0.1019,0.25466 0.0894,0.55894 -0.0278,0.67616 -0.11723,0.11723 -0.2006,-0.0911 -0.18528,-0.46302 z m 59.61944,0 c 0.0169,-0.41097 0.10053,-0.49456 0.21314,-0.21314 0.10191,0.25466 0.0894,0.55894 -0.0278,0.67616 -0.11722,0.11723 -0.2006,-0.0911 -0.18528,-0.46302 z m -64.58618,-0.98574 c 0,-0.0732 0.27781,-0.35107 0.61736,-0.61736 0.55953,-0.43881 0.57201,-0.42633 0.1332,0.13319 -0.46086,0.58764 -0.75056,0.77452 -0.75056,0.48417 z m 4.18833,-0.48417 c -0.43881,-0.55952 -0.42633,-0.572 0.1332,-0.13319 0.33955,0.26629 0.61736,0.54411 0.61736,0.61736 0,0.29035 -0.2897,0.10347 -0.75056,-0.48417 z m 60.72278,0.48417 c 0,-0.0732 0.27781,-0.35107 0.61736,-0.61736 0.55953,-0.43881 0.57201,-0.42633 0.1332,0.13319 -0.46086,0.58764 -0.75056,0.77452 -0.75056,0.48417 z m 4.18833,-0.48417 c -0.43881,-0.55952 -0.42633,-0.572 0.1332,-0.13319 0.33955,0.26629 0.61736,0.54411 0.61736,0.61736 0,0.29035 -0.2897,0.10347 -0.75056,-0.48417 z"
           id="path17630" />
        <path
           style="fill:#313942;stroke-width:0.352778"
           d="m 298.55474,16.57857 c -3.64777,-0.71688 -7.80758,-3.83257 -7.80758,-5.84787 0,-1.3052698 1.27457,-2.5914098 2.5681,-2.5914098 0.52378,0 1.44486,0.44402 2.09393,1.00941 2.02827,1.7667898 3.43672,2.3181998 5.9213,2.3181998 2.48458,0 3.89303,-0.55141 5.9213,-2.3181998 1.42238,-1.239 2.846,-1.30952 3.89498,-0.19293 1.2269,1.3059698 0.99772,2.6112198 -0.75301,4.2887198 -1.76795,1.69399 -4.14419,2.8969 -6.6681,3.37555 -2.05273,0.38929 -3.01846,0.38155 -5.17092,-0.0415 z m -31.21973,-3.526 c -0.91013,-0.71591 -0.92952,-0.81779 -0.92952,-4.8842098 0,-4.51476 0.19256,-5.00575 2.15522,-5.49543 0.68546,-0.17102 1.17376,-0.0118 1.91246,0.62361 0.91034,0.78303 1.00469,1.09726 1.1465,3.81814 0.19242,3.6921398 -0.29652,5.6991798 -1.52473,6.2587898 -1.25161,0.57027 -1.6921,0.51906 -2.75993,-0.3209 z m 65.12707,0.30013 c -1.11456,-0.53748 -1.60552,-2.69308 -1.42077,-6.2380198 0.14181,-2.72088 0.23616,-3.03511 1.1465,-3.81814 0.7387,-0.63541 1.227,-0.79463 1.91246,-0.62361 1.96266,0.48968 2.15522,0.98067 2.15522,5.49543 0,4.0664198 -0.0194,4.1682998 -0.92952,4.8842098 -1.02617,0.80719 -1.67206,0.87487 -2.86389,0.30013 z"
           id="path17628" />
      </g>
    </g>
    <g
       id="g18834"
       transform="translate(15.545848,33.047544)" />
    <g
       id="g31165"
       transform="matrix(0.77666535,0,0,0.77666535,586.52591,249.64125)">
      <g
         id="g31203">
        <path
           style="fill:#f4efea;stroke-width:0.264583"
           d="m -547.46619,-57.830771 v -11.244791 h 11.90625 11.90625 v 11.244791 11.244791 h -11.90625 -11.90625 z m 32.01458,0 v -11.244791 h 3.83646 3.83646 v 11.244791 11.244791 h -3.83646 -3.83646 z m 15.875,0 v -11.244791 h 9.92188 9.92187 v 11.244791 11.244791 h -9.92187 -9.92188 z m 85.37577,10.696918 c 0.77608,-0.384156 1.26928,-0.877358 1.65344,-1.653436 l 0.54745,-1.105983 2.1e-4,1.653646 2.1e-4,1.653646 -1.65365,-2.09e-4 -1.65364,-2.09e-4 z M -547.46619,-82.43702 v -5.159375 h 11.90625 11.90625 v 5.159375 5.159375 h -11.90625 -11.90625 z m 32.01458,0 v -5.159375 h 3.83646 3.83646 v 5.159375 5.159375 h -3.83646 -3.83646 z m 15.875,0 v -5.159375 h 9.92188 9.92187 v 5.159375 5.159375 h -9.92187 -9.92188 z m -47.88958,-31.88229 v -18.52083 h 11.90625 11.90625 v 18.52083 18.520832 h -11.90625 -11.90625 z m 32.01458,0 v -18.52083 h 3.83646 3.83646 v 18.52083 18.520832 h -3.83646 -3.83646 z m 15.875,0 v -18.52083 h 9.92188 9.92187 v 18.52083 18.520832 h -9.92187 -9.92188 z m -47.88958,-31.88229 v -5.15937 h 11.90625 11.90625 v 5.15937 5.15937 h -11.90625 -11.90625 z m 32.01458,0 v -5.15937 h 3.83646 3.83646 v 5.15937 5.15937 h -3.83646 -3.83646 z m 15.875,0 v -5.15937 h 9.92188 9.92187 v 5.15937 5.15937 h -9.92187 -9.92188 z m -47.88958,-24.60625 v -11.24479 h 11.90625 11.90625 v 11.24479 11.24479 h -11.90625 -11.90625 z m 32.01458,0 v -11.24479 h 3.83646 3.83646 v 11.24479 11.24479 h -3.83646 -3.83646 z m 15.875,0 v -11.24479 h 9.92188 9.92187 v 11.24479 11.24479 h -9.92187 -9.92188 z m 86.97053,-9.11286 c -0.33278,-0.72232 -0.80636,-1.19381 -1.5875,-1.58046 l -1.11324,-0.55105 1.65364,-2.1e-4 1.65365,-2.1e-4 v 1.5875 c 0,0.87312 -0.0298,1.58443 -0.0661,1.58067 -0.0364,-0.004 -0.27956,-0.47006 -0.5404,-1.03624 z"
           id="path31177" />
        <path
           style="fill:#eae0db;stroke-width:0.264583"
           d="m -479.73286,-57.830771 v -11.244791 h 9.26042 9.26041 v 11.244791 11.244791 h -9.26041 -9.26042 z m 26.72292,0 v -11.244791 h 5.15937 5.15937 v 11.244791 11.244791 h -5.15937 -5.15937 z m 18.52083,0 v -11.244791 h 11.24479 11.24479 v 9.573757 c 0,9.126105 -0.0255,9.626401 -0.54507,10.69972 -0.39574,0.817486 -0.85355,1.275297 -1.67103,1.671034 -1.07332,0.519584 -1.57362,0.545071 -10.69973,0.545071 h -9.57375 z m -45.24375,-24.606249 v -5.159375 h 9.26042 9.26041 v 5.159375 5.159375 h -9.26041 -9.26042 z m 26.72292,0 v -5.159375 h 5.15937 5.15937 v 5.159375 5.159375 h -5.15937 -5.15937 z m 18.52083,0 v -5.159375 h 11.24479 11.24479 v 5.159375 5.159375 h -11.24479 -11.24479 z m -45.24375,-31.88229 v -18.52083 h 9.26042 9.26041 v 18.52083 18.520832 h -9.26041 -9.26042 z m 26.72292,0 v -18.52083 h 5.15937 5.15937 v 18.52083 18.520832 h -5.15937 -5.15937 z m 18.52083,0 v -18.52083 h 11.24479 11.24479 v 18.52083 18.520832 h -11.24479 -11.24479 z m -45.24375,-31.88229 v -5.15937 h 9.26042 9.26041 v 5.15937 5.15937 h -9.26041 -9.26042 z m 26.72292,0 v -5.15937 h 5.15937 5.15937 v 5.15937 5.15937 h -5.15937 -5.15937 z m 18.52083,0 v -5.15937 h 11.24479 11.24479 v 5.15937 5.15937 h -11.24479 -11.24479 z m -45.24375,-24.60625 v -11.24479 h 9.26042 9.26041 v 11.24479 11.24479 h -9.26041 -9.26042 z m 26.72292,0 v -11.24479 h 5.15937 5.15937 v 11.24479 11.24479 h -5.15937 -5.15937 z m 18.52083,0 v -11.24479 h 9.57375 c 9.12611,0 9.62641,0.0255 10.69973,0.54507 0.81748,0.39574 1.27529,0.85355 1.67103,1.67104 0.51958,1.07331 0.54507,1.57361 0.54507,10.69972 v 9.57375 h -11.24479 -11.24479 z"
           id="path31175" />
        <path
           style="fill:#e790a3;stroke-width:0.264583"
           d="M -523.65369,-57.828075 V -69.07017 l -11.9724,-0.07161 -11.97239,-0.07161 12.10469,-0.06338 12.10468,-0.06338 v 11.377083 c 0,6.257396 -0.0595,11.377083 -0.13229,11.377083 -0.0728,0 -0.13229,-5.058942 -0.13229,-11.242095 z m 8.00073,-0.06884 -0.0632,-11.443229 h 4.10104 4.10104 l -0.0632,11.443229 -0.0632,11.443229 -0.0719,-11.310937 -0.0719,-11.310937 h -3.83078 -3.83078 l -0.0719,11.310937 -0.0719,11.310937 z m 15.875,0 -0.0632,-11.443229 10.12031,0.06287 10.12031,0.06287 -9.98518,0.0726 -9.98518,0.0726 -0.0719,11.307756 -0.0719,11.30776 z m 38.68724,0.06615 c 6e-5,-6.257396 0.0347,-8.77942 0.0769,-5.604497 0.0422,3.174924 0.0422,8.294611 -1.1e-4,11.377083 -0.0423,3.082473 -0.0768,0.484809 -0.0768,-5.772586 z m 7.9375,0 c 6e-5,-6.257396 0.0347,-8.77942 0.0769,-5.604497 0.0422,3.174924 0.0422,8.294611 -1.1e-4,11.377083 -0.0423,3.082473 -0.0769,0.484809 -0.0768,-5.772586 z m 10.58333,0 c 6e-5,-6.257396 0.0347,-8.77942 0.0769,-5.604497 0.0422,3.174924 0.0422,8.294611 -1.1e-4,11.377083 -0.0423,3.082473 -0.0768,0.484809 -0.0768,-5.772586 z m 7.9375,0 c 6e-5,-6.257396 0.0347,-8.77942 0.0769,-5.604497 0.0422,3.174924 0.0422,8.294611 -1.1e-4,11.377083 -0.0423,3.082473 -0.0768,0.484809 -0.0768,-5.772586 z m -100.9937,-19.38066 11.9724,-0.07161 V -82.437018 -87.591 l -11.9724,-0.07161 -11.97239,-0.07161 12.10469,-0.06338 12.10468,-0.06338 v 5.423958 5.423958 l -12.10468,-0.06338 -12.10469,-0.06338 z m 19.9099,-5.225589 v -5.423958 h 4.10104 4.10104 v 5.423958 5.423958 h -4.10104 -4.10104 z m 7.9375,0 v -5.159375 h -3.83646 -3.83646 v 5.159375 5.159375 h 3.83646 3.83646 z m 7.9375,0 v -5.423958 l 10.12031,0.06287 10.12031,0.06287 -9.98802,0.0726 -9.98802,0.07261 v 5.153011 5.153012 l 9.98802,0.07261 9.98802,0.0726 -10.12031,0.06287 -10.12031,0.06287 z m 38.74034,0 c -2.4e-4,-2.910416 0.0384,-4.137141 0.0859,-2.726052 0.0475,1.411086 0.0477,3.792336 5.3e-4,5.291666 -0.0473,1.499328 -0.0861,0.344803 -0.0863,-2.565614 z m 7.9375,0 c -2.4e-4,-2.910416 0.0384,-4.137141 0.0859,-2.726052 0.0475,1.411086 0.0477,3.792336 5.3e-4,5.291666 -0.0473,1.499328 -0.0861,0.344803 -0.0863,-2.565614 z m 10.58333,0 c -2.4e-4,-2.910416 0.0384,-4.137141 0.0859,-2.726052 0.0475,1.411086 0.0477,3.792336 5.3e-4,5.291666 -0.0473,1.499328 -0.0861,0.344803 -0.0863,-2.565614 z m 7.9375,0 c -2.4e-4,-2.910416 0.0384,-4.137141 0.0859,-2.726052 0.0475,1.411086 0.0477,3.792336 5.3e-4,5.291666 -0.0473,1.499328 -0.0861,0.344803 -0.0863,-2.565614 z m -100.98357,-13.295243 11.9724,-0.07161 v -18.515443 -18.51544 l -11.9724,-0.0716 -11.97239,-0.0716 12.10469,-0.0634 12.10468,-0.0634 v 18.78542 18.785419 l -12.10468,-0.06338 -12.10469,-0.06338 z m 19.9099,-18.587043 v -18.78542 h 4.10104 4.10104 v 18.78542 18.785412 h -4.10104 -4.10104 z m 7.9375,0 v -18.52083 h -3.83646 -3.83646 v 18.52083 18.520828 h 3.83646 3.83646 z m 7.9375,0 v -18.78542 l 10.12031,0.0629 10.12031,0.0629 -9.98802,0.0726 -9.98802,0.0726 v 18.51447 18.514465 l 9.98802,0.07261 9.98802,0.0726 -10.12031,0.06287 -10.12031,0.06287 z m 38.75446,0 c 0,-10.25922 0.0329,-14.45617 0.073,-9.32656 0.0402,5.12961 0.0402,13.52351 0,18.65312 -0.0402,5.129607 -0.073,0.93266 -0.073,-9.32656 z m 7.9375,0 c 0,-10.25922 0.0329,-14.45617 0.073,-9.32656 0.0402,5.12961 0.0402,13.52351 0,18.65312 -0.0402,5.129607 -0.073,0.93266 -0.073,-9.32656 z m 10.58334,0 c 0,-10.25922 0.0329,-14.45617 0.073,-9.32656 0.0402,5.12961 0.0402,13.52351 0,18.65312 -0.0402,5.129607 -0.073,0.93266 -0.073,-9.32656 z m 7.9375,0 c 0,-10.25922 0.0329,-14.45617 0.073,-9.32656 0.0402,5.12961 0.0402,13.52351 0,18.65312 -0.0402,5.129607 -0.073,0.93266 -0.073,-9.32656 z m -100.9977,-26.6567 11.9724,-0.0716 v -5.15398 -5.15398 l -11.9724,-0.0716 -11.97239,-0.0716 12.10469,-0.0634 12.10468,-0.0634 v 5.42396 5.42396 l -12.10468,-0.0634 -12.10469,-0.0634 z m 19.9099,-5.22559 v -5.42396 h 4.10104 4.10104 v 5.42396 5.42396 h -4.10104 -4.10104 z m 7.9375,0 v -5.15937 h -3.83646 -3.83646 v 5.15937 5.15937 h 3.83646 3.83646 z m 7.9375,0 v -5.42396 l 10.12031,0.0629 10.12031,0.0629 -9.98802,0.0726 -9.98802,0.0726 v 5.15301 5.15301 l 9.98802,0.0726 9.98802,0.0726 -10.12031,0.0629 -10.12031,0.0629 z m 38.74034,0 c -2.4e-4,-2.91042 0.0384,-4.13714 0.0859,-2.72605 0.0475,1.41108 0.0477,3.79233 5.3e-4,5.29166 -0.0473,1.49933 -0.0861,0.34481 -0.0863,-2.56561 z m 7.9375,0 c -2.4e-4,-2.91042 0.0384,-4.13714 0.0859,-2.72605 0.0475,1.41108 0.0477,3.79233 5.3e-4,5.29166 -0.0473,1.49933 -0.0861,0.34481 -0.0863,-2.56561 z m 10.58333,0 c -2.4e-4,-2.91042 0.0384,-4.13714 0.0859,-2.72605 0.0475,1.41108 0.0477,3.79233 5.3e-4,5.29166 -0.0473,1.49933 -0.0861,0.34481 -0.0863,-2.56561 z m 7.9375,0 c -2.4e-4,-2.91042 0.0384,-4.13714 0.0859,-2.72605 0.0475,1.41108 0.0477,3.79233 5.3e-4,5.29166 -0.0473,1.49933 -0.0861,0.34481 -0.0863,-2.56561 z m -100.98641,-13.29524 11.96956,-0.0716 0.0719,-11.30824 0.0719,-11.30824 0.0632,11.44323 0.0632,11.44323 -12.10468,-0.0634 -12.10469,-0.0634 z m 19.97597,-11.24486 0.0632,-11.44323 0.0719,11.31094 0.0719,11.31093 h 3.83078 3.83078 l 0.0719,-11.31093 0.0719,-11.31094 0.0632,11.44323 0.0632,11.44323 h -4.10104 -4.10104 z m 15.875,0 0.0632,-11.44323 0.0719,11.30776 0.0719,11.30775 9.98518,0.0726 9.98518,0.0726 -10.12031,0.0629 -10.12031,0.0629 z m 38.68724,-0.0661 c 6e-5,-6.25739 0.0347,-8.77942 0.0769,-5.6045 0.0422,3.17493 0.0422,8.29461 -1.1e-4,11.37709 -0.0423,3.08247 -0.0768,0.48481 -0.0768,-5.77259 z m 7.9375,0 c 6e-5,-6.25739 0.0347,-8.77942 0.0769,-5.6045 0.0422,3.17493 0.0422,8.29461 -1.1e-4,11.37709 -0.0423,3.08247 -0.0769,0.48481 -0.0768,-5.77259 z m 10.58333,0 c 6e-5,-6.25739 0.0347,-8.77942 0.0769,-5.6045 0.0422,3.17493 0.0422,8.29461 -1.1e-4,11.37709 -0.0423,3.08247 -0.0768,0.48481 -0.0768,-5.77259 z m 7.9375,0 c 6e-5,-6.25739 0.0347,-8.77942 0.0769,-5.6045 0.0422,3.17493 0.0422,8.29461 -1.1e-4,11.37709 -0.0423,3.08247 -0.0768,0.48481 -0.0768,-5.77259 z"
           id="path31173" />
        <path
           style="fill:#fd4067;stroke-width:0.264583"
           d="m -523.41185,-57.963063 c -0.0125,-6.257395 -0.0228,-31.617707 -0.0228,-56.356247 0,-24.73854 0.0102,-50.09885 0.0228,-56.35625 l 0.0227,-11.37708 h 3.83646 3.83646 l 0.0227,11.37708 c 0.0125,6.2574 0.0228,31.61771 0.0228,56.35625 0,24.73854 -0.0102,50.098852 -0.0228,56.356247 l -0.0227,11.377083 h -3.83646 -3.83646 z m 15.875,0 c -0.0125,-6.257395 -0.0228,-31.617707 -0.0228,-56.356247 0,-24.73854 0.0102,-50.09885 0.0228,-56.35625 l 0.0227,-11.37708 h 3.83646 3.83646 l 0.0227,11.37708 c 0.0125,6.2574 0.0228,31.61771 0.0228,56.35625 0,24.73854 -0.0102,50.098852 -0.0228,56.356247 l -0.0227,11.377083 h -3.83646 -3.83646 z"
           id="path31171" />
        <path
           style="fill:#ce305f;stroke-width:0.264583"
           d="m -460.94744,-57.787491 v -11.20151 l -14.08907,-0.175302 c -7.74898,-0.09641 -16.44054,-0.175422 -19.31458,-0.17557 l -5.22552,-2.73e-4 v -3.836458 -3.836458 l 5.22552,-2.64e-4 c 2.87404,-1.49e-4 11.5656,-0.07916 19.31458,-0.17557 l 14.08907,-0.17531 v -5.072814 -5.072814 l -14.08907,-0.175302 c -7.74898,-0.09641 -16.44054,-0.175421 -19.31458,-0.175569 l -5.22552,-2.73e-4 v -3.836458 -3.836458 l 5.22552,-2.65e-4 c 2.87404,-1.48e-4 11.5656,-0.07916 19.31458,-0.175569 l 14.08907,-0.175311 v -18.434271 -18.43427 l -14.08907,-0.1753 c -7.74898,-0.0964 -16.44054,-0.17543 -19.31458,-0.17557 l -5.22552,-2.8e-4 v -3.83645 -3.83646 l 5.22552,-2.7e-4 c 2.87404,-1.4e-4 11.5656,-0.0791 19.31458,-0.17557 l 14.08907,-0.17531 v -5.07281 -5.07281 l -14.08907,-0.17531 c -7.74898,-0.0964 -16.44054,-0.17542 -19.31458,-0.17557 l -5.22552,-2.7e-4 v -3.83646 -3.83645 l 5.22552,-2.7e-4 c 2.87404,-1.5e-4 11.5656,-0.0792 19.31458,-0.17557 l 14.08907,-0.17531 v -11.20151 -11.20151 h 3.83645 3.83646 v 11.24479 11.24479 h 5.42396 5.42396 v -11.24479 -11.24479 h 3.83646 3.83645 v 11.24479 11.24479 l 11.44323,0.0632 11.44323,0.0632 -11.31094,0.0719 -11.31093,0.0719 v 3.83077 3.83078 l 11.31093,0.0719 11.31094,0.0719 -11.44323,0.0632 -11.44323,0.0632 v 5.15937 5.15937 l 11.44323,0.0632 11.44323,0.0632 -11.31094,0.0719 -11.31093,0.0719 v 3.83078 3.83077 l 11.31093,0.0719 11.31094,0.0719 -11.44323,0.0632 -11.44323,0.0632 v 18.52083 18.520832 l 11.44323,0.06323 11.44323,0.06323 -11.31094,0.0719 -11.31093,0.0719 v 3.830778 3.830777 l 11.31093,0.0719 11.31094,0.0719 -11.44323,0.06323 -11.44323,0.06323 v 5.159375 5.159375 l 11.44323,0.06323 11.44323,0.06323 -11.31094,0.0719 -11.31093,0.0719 v 3.830777 3.830778 l 11.31093,0.0719 11.31094,0.0719 -11.44323,0.06323 -11.44323,0.06323 v 11.244791 11.244791 h -3.83645 -3.83646 v -11.244791 -11.244791 h -5.42396 -5.42396 v 11.244791 11.244791 h -3.83646 -3.83645 z m -0.26459,-15.389113 v -3.836458 h -9.26041 -9.26042 v 3.836458 3.836458 h 9.26042 9.26041 z m 18.52083,0 v -3.836458 h -5.15937 -5.15937 v 3.836458 3.836458 h 5.15937 5.15937 z m 0.26459,-9.260416 v -5.159375 h -5.42396 -5.42396 v 5.159375 5.159375 h 5.42396 5.42396 z m -18.78542,-9.260416 v -3.836458 h -9.26041 -9.26042 v 3.836458 3.836458 h 9.26042 9.26041 z m 18.52083,0 v -3.836458 h -5.15937 -5.15937 v 3.836458 3.836458 h 5.15937 5.15937 z m 0.26459,-22.621874 v -18.52083 h -5.42396 -5.42396 v 18.52083 18.520832 h 5.42396 5.42396 z m -18.78542,-22.62187 v -3.83646 h -9.26041 -9.26042 v 3.83646 3.83645 h 9.26042 9.26041 z m 18.52083,0 v -3.83646 h -5.15937 -5.15937 v 3.83646 3.83645 h 5.15937 5.15937 z m 0.26459,-9.26042 v -5.15937 h -5.42396 -5.42396 v 5.15937 5.15937 h 5.42396 5.42396 z m -18.78542,-9.26042 v -3.83645 h -9.26041 -9.26042 v 3.83645 3.83646 h 9.26042 9.26041 z m 18.52083,0 v -3.83645 h -5.15937 -5.15937 v 3.83645 3.83646 h 5.15937 5.15937 z m -104.77499,82.285416 v -3.836458 h 11.90625 11.90625 v 3.836458 3.836458 h -11.90625 -11.90625 z m 32.01458,0 v -3.836458 h 3.83646 3.83646 v 3.836458 3.836458 h -3.83646 -3.83646 z m -32.01458,-18.520832 v -3.836458 h 11.90625 11.90625 v 3.836458 3.836458 h -11.90625 -11.90625 z m 32.01458,0 v -3.836458 h 3.83646 3.83646 v 3.836458 3.836458 h -3.83646 -3.83646 z m -32.01458,-45.243744 v -3.83646 h 11.90625 11.90625 v 3.83646 3.83645 h -11.90625 -11.90625 z m 32.01458,0 v -3.83646 h 3.83646 3.83646 v 3.83646 3.83645 h -3.83646 -3.83646 z m -32.01458,-18.52084 v -3.83645 h 11.90625 11.90625 v 3.83645 3.83646 h -11.90625 -11.90625 z m 32.01458,0 v -3.83645 h 3.83646 3.83646 v 3.83645 3.83646 h -3.83646 -3.83646 z"
           id="path31169" />
        <path
           style="fill:#952739;stroke-width:0.264583"
           d="m -479.73286,-73.176604 v -3.836458 h 9.26042 9.26041 v 3.836458 3.836458 h -9.26041 -9.26042 z m 26.72292,0 v -3.836458 h 5.15937 5.15937 v 3.836458 3.836458 h -5.15937 -5.15937 z m 18.52083,0 v -3.836458 h 11.24479 11.24479 v 3.836458 3.836458 h -11.24479 -11.24479 z m -45.24375,-18.520832 v -3.836458 h 9.26042 9.26041 v 3.836458 3.836458 h -9.26041 -9.26042 z m 26.72292,0 v -3.836458 h 5.15937 5.15937 v 3.836458 3.836458 h -5.15937 -5.15937 z m 18.52083,0 v -3.836458 h 11.24479 11.24479 v 3.836458 3.836458 h -11.24479 -11.24479 z m -45.24375,-45.243744 v -3.83646 h 9.26042 9.26041 v 3.83646 3.83645 h -9.26041 -9.26042 z m 26.72292,0 v -3.83646 h 5.15937 5.15937 v 3.83646 3.83645 h -5.15937 -5.15937 z m 18.52083,0 v -3.83646 h 11.24479 11.24479 v 3.83646 3.83645 h -11.24479 -11.24479 z m -45.24375,-18.52084 v -3.83645 h 9.26042 9.26041 v 3.83645 3.83646 h -9.26041 -9.26042 z m 26.72292,0 v -3.83645 h 5.15937 5.15937 v 3.83645 3.83646 h -5.15937 -5.15937 z m 18.52083,0 v -3.83645 h 11.24479 11.24479 v 3.83645 3.83646 h -11.24479 -11.24479 z"
           id="path31167" />
      </g>
    </g>
    <g
       id="g31449"
       transform="translate(-5.99877,-9.734974)">
      <g
         id="g18490"
         transform="translate(678.63742,190.38661)">
        <g
           id="g18614"
           transform="translate(-411.87459,-59.839366)">
          <path
             style="fill:#fefefe;stroke-width:0.0793129"
             d="M -200.73358,131.13178 V 115.2121 h 25.89609 25.89609 v 15.91968 15.91968 h -25.89609 -25.89609 z m 31.96549,10.13509 c 3.22423,-0.0815 6.84723,-0.22535 9.27294,-0.36826 1.61294,-0.095 2.03409,-0.14098 2.5039,-0.2732 0.78962,-0.22224 1.6088,-0.71832 2.0074,-1.21565 l 0.3271,-0.40813 0.033,-1.19873 0.033,-1.19873 0.27045,-2.4e-4 c 0.70442,-9.4e-4 1.46496,-0.50738 1.85918,-1.2383 0.19686,-0.36499 0.22498,-0.57287 0.25965,-1.91948 l 0.0389,-1.51017 0.44498,-0.51423 c 1.1472,-1.32571 1.96343,-3.79389 1.96593,-5.94475 8.1e-4,-0.70603 -0.03,-0.87478 -0.1991,-1.08951 -1.30219,-1.65366 -9.25583,-3.02519 -19.66313,-3.39072 -2.32496,-0.0817 -8.12231,-0.0817 -10.44727,0 -10.04314,0.35274 -17.66203,1.6116 -19.50523,3.22284 -0.28184,0.24637 -0.3104,0.31867 -0.34358,0.86983 -0.0397,0.65974 0.11772,1.9999 0.34692,2.95311 0.37167,1.5458 0.99516,2.81007 1.76523,3.57945 l 0.30122,0.30094 0.002,1.26794 c 0.002,1.34138 0.0984,1.7804 0.51201,2.32131 0.29577,0.38682 0.90227,0.7929 1.45196,0.97217 l 0.46229,0.15076 v 1.03044 c 0,1.14866 0.10995,1.50129 0.62299,1.99807 0.72252,0.69963 1.82903,1.08244 3.3929,1.17381 3.67296,0.21462 7.22996,0.36055 11.00587,0.45154 1.95227,0.047 9.09757,0.0331 11.27896,-0.022 z m -16.6678,-16.62262 -0.63448,-0.20068 0.25068,-0.20887 c 0.58988,-0.49153 2.16278,-1.04016 3.83724,-1.33847 1.33953,-0.23863 1.32273,-0.24182 1.47434,0.27971 0.0702,0.24162 0.11167,0.44766 0.0921,0.45787 -0.0196,0.0102 -0.46809,0.0929 -0.99663,0.18369 -1.15069,0.19772 -2.22312,0.50887 -2.79789,0.81176 -0.23138,0.12194 -0.45899,0.22035 -0.50578,0.21869 -0.0468,-0.002 -0.37059,-0.0933 -0.71955,-0.2037 z"
             id="path18506" />
          <path
             style="fill:#f2e0c2;stroke-width:0.264583"
             d="m -169.88122,194.40206 c 0.91521,-0.0518 2.34396,-0.0514 3.175,0.001 0.83104,0.0523 0.0822,0.0947 -1.66401,0.0942 -1.74625,-5.3e-4 -2.4262,-0.0433 -1.51099,-0.0951 z m 17.84901,5.3e-4 c 0.83674,-0.0525 2.20596,-0.0525 3.04271,0 0.83674,0.0525 0.15213,0.0955 -1.52136,0.0955 -1.67349,0 -2.3581,-0.043 -1.52135,-0.0955 z m -25.79687,-0.26046 c 0.47294,-0.0587 1.24684,-0.0587 1.71979,0 0.47294,0.0587 0.086,0.10671 -0.8599,0.10671 -0.94588,0 -1.33284,-0.048 -0.85989,-0.10671 z m 34.92499,0 c 0.47295,-0.0587 1.24685,-0.0587 1.71979,0 0.47295,0.0587 0.086,0.10671 -0.85989,0.10671 -0.94589,0 -1.33284,-0.048 -0.8599,-0.10671 z m -40.34531,-0.26304 c 0.40218,-0.0608 0.99749,-0.0592 1.32291,0.004 0.32542,0.0628 -0.004,0.11256 -0.73124,0.11058 -0.7276,-0.002 -0.99386,-0.0534 -0.59167,-0.11419 z m 46.30208,0 c 0.40218,-0.0608 0.99749,-0.0592 1.32291,0.004 0.32542,0.0628 -0.004,0.11256 -0.73124,0.11058 -0.7276,-0.002 -0.99386,-0.0534 -0.59167,-0.11419 z m -50.67135,-0.26134 c 0.32742,-0.0631 0.86321,-0.0631 1.19063,0 0.32742,0.0631 0.0595,0.11466 -0.59532,0.11466 -0.65484,0 -0.92273,-0.0516 -0.59531,-0.11466 z m 55.03333,0 c 0.32742,-0.0631 0.86321,-0.0631 1.19063,0 0.32742,0.0631 0.0595,0.11466 -0.59531,0.11466 -0.65485,0 -0.92274,-0.0516 -0.59532,-0.11466 z m -59.86197,-0.26648 c -0.58209,-0.0548 -3.53208,-0.32273 -6.55554,-0.59536 -4.97786,-0.44888 -5.65585,-0.56994 -7.17639,-1.28149 -2.91876,-1.36585 -4.96109,-3.69707 -5.82389,-6.64766 -0.55946,-1.91325 -0.6168,-10.33687 -0.0704,-10.33687 0.19243,0 2.36532,0.29823 4.82865,0.66273 2.46333,0.36449 6.87815,0.86504 9.81071,1.1123 l 5.33193,0.44959 0.12011,5.43613 c 0.12644,5.72244 0.4841,7.78343 1.79754,10.35797 l 0.52612,1.03128 -0.86528,-0.0445 c -0.4759,-0.0245 -1.34152,-0.0893 -1.9236,-0.14414 z m 64.88906,0.0134 c 0.1819,-0.0734 0.47955,-0.0734 0.66145,0 0.18191,0.0734 0.0331,0.13345 -0.33072,0.13345 -0.36381,0 -0.51264,-0.06 -0.33073,-0.13345 z m 3.45612,-0.2701 c 0.19099,-0.0764 0.4192,-0.067 0.50711,0.0209 0.0879,0.0879 -0.0683,0.15045 -0.34726,0.13896 -0.30823,-0.0127 -0.37092,-0.0754 -0.15985,-0.15985 z m 2.91041,-0.26458 c 0.191,-0.0764 0.4192,-0.067 0.50712,0.0209 0.0879,0.0879 -0.0683,0.15045 -0.34726,0.13896 -0.30823,-0.0127 -0.37092,-0.0754 -0.15986,-0.15985 z m 2.91042,-0.26458 c 0.19099,-0.0764 0.4192,-0.067 0.50712,0.0209 0.0879,0.0879 -0.0683,0.15046 -0.34727,0.13897 -0.30822,-0.0127 -0.37092,-0.0754 -0.15985,-0.15985 z m -97.87997,-20.6552 c -0.32911,-0.41964 -0.31975,-0.429 0.0999,-0.0999 0.25466,0.19972 0.46302,0.40808 0.46302,0.46302 0,0.21776 -0.21728,0.0776 -0.56292,-0.36313 z m -1.16775,-1.67125 c -0.0959,-0.1552 -0.11766,-0.33893 -0.0483,-0.40828 0.0694,-0.0694 0.19661,0.0576 0.28278,0.28218 0.1789,0.46623 0.0264,0.54824 -0.23447,0.1261 z m -1.40256,-5.00948 c 0,-0.3638 0.0601,-0.51263 0.13345,-0.33073 0.0734,0.18191 0.0734,0.47956 0,0.66146 -0.0734,0.1819 -0.13345,0.0331 -0.13345,-0.33073 z m 23.10927,-5.4698 c -0.29104,-0.0642 -2.07698,-0.41265 -3.96875,-0.77428 -8.67251,-1.65786 -19.06141,-4.34518 -19.6084,-5.07215 -0.67403,-0.8958 -2.00114,-3.80183 -2.75591,-6.03473 -0.67505,-1.99706 -1.84507,-6.76614 -1.84507,-7.52063 0,-0.15102 0.44649,-0.049 0.99219,0.22659 0.5457,0.27564 2.52767,0.82118 4.40437,1.2123 5.42074,1.12973 5.23533,1.04449 10.7309,4.9332 2.90163,2.05322 4.34925,2.48505 7.61204,2.27073 2.27466,-0.14942 2.45425,-0.12518 2.45425,0.33126 0,1.08081 1.42431,5.33255 2.6444,7.89387 l 1.29186,2.71198 -0.71136,-0.0307 c -0.39125,-0.0169 -0.94948,-0.0832 -1.24052,-0.14745 z m 101.488589,-28.5512 c 0.0127,-0.30823 0.07539,-0.37092 0.159851,-0.15985 0.07643,0.19099 0.06703,0.41919 -0.02088,0.50712 -0.08792,0.0879 -0.150453,-0.0684 -0.138964,-0.34727 z m -130.968749,-1.32292 c 0.0127,-0.30822 0.0754,-0.37092 0.15986,-0.15985 0.0764,0.19099 0.067,0.4192 -0.0209,0.50712 -0.0879,0.0879 -0.15045,-0.0684 -0.13897,-0.34727 z m 39.66661,-5.24131 c 0,-0.0572 0.18478,-0.17489 0.41062,-0.26155 0.23546,-0.0904 0.34166,-0.046 0.24897,0.10398 -0.15538,0.25141 -0.65959,0.37186 -0.65959,0.15757 z m 1.05834,-0.78966 c 0,-0.0549 0.20836,-0.2633 0.46302,-0.46302 0.41964,-0.32911 0.429,-0.31975 0.0999,0.0999 -0.34564,0.44072 -0.56291,0.58088 -0.56291,0.36312 z m -4.23334,-1.85208 c 0,-0.0549 0.20836,-0.2633 0.46303,-0.46302 0.41964,-0.32911 0.429,-0.31975 0.0999,0.0999 -0.34564,0.44073 -0.56292,0.58089 -0.56292,0.36313 z m 1.7198,-1.75219 c 0.26339,-0.29104 0.53842,-0.52917 0.61118,-0.52917 0.0728,0 -0.0832,0.23813 -0.3466,0.52917 -0.26339,0.29104 -0.53842,0.52917 -0.61118,0.52917 -0.0728,0 0.0832,-0.23813 0.3466,-0.52917 z m 11.44322,-4.93773 c 0.18191,-0.0734 0.47956,-0.0734 0.66146,0 0.1819,0.0734 0.0331,0.13345 -0.33073,0.13345 -0.3638,0 -0.51263,-0.06 -0.33073,-0.13345 z m -3.42304,-6.88468 c 0.19099,-0.0764 0.4192,-0.067 0.50712,0.0209 0.0879,0.0879 -0.0684,0.15045 -0.34727,0.13897 -0.30822,-0.0127 -0.37092,-0.0754 -0.15985,-0.15986 z m 38.36458,0 c 0.19099,-0.0764 0.4192,-0.067 0.50712,0.0209 0.0879,0.0879 -0.0684,0.15045 -0.34727,0.13897 -0.30822,-0.0127 -0.37092,-0.0754 -0.15985,-0.15986 z m -34.66042,-0.26458 c 0.191,-0.0764 0.4192,-0.067 0.50712,0.0209 0.0879,0.0879 -0.0683,0.15045 -0.34726,0.13896 -0.30823,-0.0127 -0.37092,-0.0754 -0.15986,-0.15985 z m 30.95625,0 c 0.191,-0.0764 0.4192,-0.067 0.50712,0.0209 0.0879,0.0879 -0.0684,0.15045 -0.34726,0.13896 -0.30823,-0.0127 -0.37092,-0.0754 -0.15986,-0.15985 z m -25.9457,-0.25907 c 0.1819,-0.0734 0.47956,-0.0734 0.66146,0 0.1819,0.0734 0.0331,0.13345 -0.33073,0.13345 -0.3638,0 -0.51263,-0.0601 -0.33073,-0.13345 z m 20.6375,0 c 0.1819,-0.0734 0.47956,-0.0734 0.66146,0 0.1819,0.0734 0.0331,0.13345 -0.33073,0.13345 -0.3638,0 -0.51263,-0.0601 -0.33073,-0.13345 z"
             id="path18504" />
          <path
             style="fill:#edd3aa;stroke-width:0.264583"
             d="m -171.6949,194.3419 c -3.57482,-0.11601 -9.05169,-0.3561 -12.17083,-0.53352 -6.3383,-0.36054 -5.98299,-0.22936 -6.84229,-2.52605 -1.00602,-2.68884 -1.34242,-5.18944 -1.34242,-9.97882 v -4.58576 l -5.4901,-0.4673 c -6.8665,-0.58445 -15.00672,-1.78217 -16.12725,-2.3729 -1.21883,-0.64255 -2.67428,-2.22458 -3.45299,-3.75328 -1.26077,-2.47504 -1.44289,-3.61492 -1.58096,-9.8953 -0.11859,-5.39414 -0.0917,-5.91172 0.29963,-5.76157 2.75268,1.05631 19.00661,4.77481 23.44429,5.36349 l 1.31996,0.1751 -1.30943,-2.74607 c -1.34465,-2.81993 -2.77369,-7.24816 -2.61145,-8.09223 0.0725,-0.37692 0.47195,-0.51787 1.93987,-0.6844 2.76857,-0.3141 4.4481,0.0927 8.64234,2.09345 4.83462,2.30619 6.0018,2.43002 10.83238,1.14928 4.79807,-1.27213 6.19998,-1.20766 11.08121,0.50955 5.14389,1.80962 5.94253,1.81128 11.10836,0.0231 4.83589,-1.674 5.76678,-1.78251 9.13226,-1.06446 1.45521,0.31047 3.52202,0.75176 4.5929,0.98064 2.6876,0.57441 4.03354,0.25854 8.876,-2.08304 3.88702,-1.87957 3.97941,-1.90863 6.40639,-2.01477 1.35437,-0.0592 2.74859,-0.0359 3.09828,0.0519 0.61191,0.15358 0.62643,0.21113 0.38642,1.53162 -0.52489,2.8879 -2.72897,8.49429 -3.95763,10.06683 -0.6439,0.82411 -12.87268,2.26783 -24.42944,2.88413 -12.03617,0.64187 -31.17879,-0.35897 -41.12515,-2.15016 -2.62165,-0.47211 -2.54197,-0.52045 -2.95362,1.79162 -0.55736,3.13043 -0.44434,7.70336 0.25224,10.20583 0.75506,2.71259 1.48107,4.10624 2.22402,4.26931 3.3441,0.73398 38.25557,1.17356 52.05355,0.65542 5.16599,-0.19399 10.04755,-0.35886 10.84792,-0.36637 l 1.45521,-0.0137 -0.0182,5.02708 c -0.0195,5.399 -0.32946,7.41807 -1.54722,10.07949 l -0.6169,1.34824 -3.00989,0.17665 c -12.91687,0.7581 -28.96257,1.04597 -39.40747,0.70701 z m 43.07831,-0.97724 c 0.1819,-0.0734 0.47956,-0.0734 0.66146,0 0.1819,0.0734 0.0331,0.13345 -0.33073,0.13345 -0.3638,0 -0.51263,-0.06 -0.33073,-0.13345 z m 3.72071,-0.27009 c 0.19099,-0.0764 0.4192,-0.067 0.50711,0.0209 0.0879,0.0879 -0.0684,0.15045 -0.34726,0.13897 -0.30823,-0.0127 -0.37092,-0.0754 -0.15985,-0.15985 z m 2.91041,-0.26459 c 0.191,-0.0764 0.4192,-0.067 0.50712,0.0209 0.0879,0.0879 -0.0683,0.15045 -0.34726,0.13896 -0.30823,-0.0127 -0.37092,-0.0754 -0.15986,-0.15985 z m -44.00351,-61.88976 c -11.53554,-0.49734 -22.11917,-1.64812 -31.61771,-3.43788 -5.46278,-1.02932 -10.95497,-2.24651 -11.20172,-2.48255 -0.44478,-0.42545 6.41617,-4.8885 11.86867,-7.72058 11.11236,-5.77186 22.48598,-8.71917 36.11013,-9.35742 l 3.57188,-0.16733 3.96875,2.00325 c 2.18281,1.10179 5.09354,2.80753 6.46829,3.79053 5.15095,3.68314 9.62094,8.63558 12.07988,13.38366 0.66536,1.28479 1.16953,2.37161 1.12037,2.41517 -0.1462,0.12955 -8.27456,0.92841 -12.16926,1.196 -4.03477,0.27722 -16.93181,0.51803 -20.19928,0.37715 z m -18.12396,-7.14632 c 1.22022,-1.23534 4.557,-2.83141 7.64092,-3.65485 1.36486,-0.36443 2.5148,-0.69684 2.55543,-0.73869 0.22222,-0.22889 -0.78973,-4.17713 -1.07062,-4.17713 -0.99767,0 -6.16603,1.74378 -8.3099,2.80373 -2.41917,1.19606 -5.57833,3.77159 -5.57833,4.54779 0,0.25535 3.2366,2.13576 3.70417,2.15206 0.0728,0.003 0.54901,-0.41727 1.05833,-0.93291 z m 15.0151,-15.88965 c 0.18191,-0.0734 0.47956,-0.0734 0.66146,0 0.1819,0.0734 0.0331,0.13345 -0.33073,0.13345 -0.3638,0 -0.51263,-0.0601 -0.33073,-0.13345 z m 18.52084,0 c 0.1819,-0.0734 0.47955,-0.0734 0.66146,0 0.1819,0.0734 0.0331,0.13345 -0.33073,0.13345 -0.36381,0 -0.51263,-0.0601 -0.33073,-0.13345 z"
             id="path18502" />
          <path
             style="fill:#e7c18a;stroke-width:0.264583"
             d="m -127.20664,186.2418 c 0.0127,-0.30823 0.0754,-0.37092 0.15985,-0.15985 0.0764,0.19099 0.067,0.4192 -0.0209,0.50712 -0.0879,0.0879 -0.15045,-0.0684 -0.13897,-0.34727 z m 0.33052,-4.47587 c 0.001,-1.01864 0.049,-1.40294 0.10627,-0.85399 0.0573,0.54895 0.0563,1.38238 -0.002,1.85208 -0.0584,0.4697 -0.10531,0.0206 -0.10413,-0.99809 z m -48.24099,-4.278 c -5.33982,-0.14262 -16.02971,-0.64967 -16.47474,-0.78144 -0.62522,-0.18512 -1.38333,-1.73031 -2.08408,-4.24775 -0.69658,-2.50247 -0.8096,-7.07541 -0.25224,-10.20583 0.41165,-2.31207 0.33197,-2.26374 2.95362,-1.79162 6.18301,1.11347 17.97941,2.09913 27.49911,2.29774 8.0446,0.16783 15.63127,-0.10629 23.8125,-0.86039 4.57066,-0.4213 13.70201,-1.63021 14.08051,-1.86414 0.12106,-0.0748 0.1938,-0.0379 0.16165,0.0821 -0.0322,0.11996 0.0938,1.05154 0.27995,2.07019 0.47343,2.59113 0.43307,7.53897 -0.0795,9.73978 -0.23084,0.99126 -0.74379,2.47954 -1.13989,3.3073 -0.3961,0.82775 -0.70368,1.56453 -0.68352,1.63729 0.0202,0.0728 -0.63804,0.1352 -1.46265,0.13876 -0.82462,0.004 -5.17859,0.15238 -9.6755,0.33072 -6.98279,0.27694 -28.8209,0.36404 -36.93527,0.14731 z m 9.85573,-46.57209 c 0.25466,-0.0666 0.67138,-0.0666 0.92604,0 0.25467,0.0666 0.0463,0.121 -0.46302,0.121 -0.50932,0 -0.71768,-0.0545 -0.46302,-0.121 z m 10.58334,0 c 0.25466,-0.0666 0.67138,-0.0666 0.92604,0 0.25466,0.0666 0.0463,0.121 -0.46302,0.121 -0.50933,0 -0.71769,-0.0545 -0.46302,-0.121 z m -16.78451,-0.26294 c 0.191,-0.0764 0.4192,-0.067 0.50712,0.0209 0.0879,0.0879 -0.0683,0.15045 -0.34727,0.13896 -0.30822,-0.0127 -0.37091,-0.0754 -0.15985,-0.15985 z m 23.54792,0 c 0.19099,-0.0764 0.4192,-0.067 0.50712,0.0209 0.0879,0.0879 -0.0684,0.15045 -0.34727,0.13896 -0.30823,-0.0127 -0.37092,-0.0754 -0.15985,-0.15985 z m 6.78403,-12.32082 -1.04588,-1.12448 1.12448,1.04589 c 0.61846,0.57523 1.12448,1.08125 1.12448,1.12448 0,0.20017 -0.23042,-1.3e-4 -1.20308,-1.04589 z m -20.29432,-10.42783 c 0.1819,-0.0734 0.47956,-0.0734 0.66146,0 0.1819,0.0734 0.0331,0.13345 -0.33073,0.13345 -0.3638,0 -0.51263,-0.0601 -0.33073,-0.13345 z"
             id="path18500" />
          <path
             style="fill:#caac8a;stroke-width:0.264583"
             d="m -129.07961,193.41652 c 0,-0.0275 0.28687,-0.75596 0.63748,-1.61882 1.28768,-3.169 1.94777,-8.73946 1.53906,-12.98797 -0.11442,-1.18935 -0.13857,-2.11952 -0.0537,-2.06706 0.3944,0.24375 10.55481,-0.8989 19.40433,-2.18224 l 1.02196,-0.1482 -0.11579,4.86747 c -0.098,4.11864 -0.19994,5.07993 -0.66273,6.24839 -1.33932,3.38163 -4.15655,5.81542 -7.55395,6.52584 -1.05245,0.22007 -4.41386,0.59035 -7.46979,0.82283 -3.05594,0.23248 -5.82414,0.46028 -6.15157,0.50622 -0.32742,0.0459 -0.59531,0.061 -0.59531,0.0335 z m 4.29472,-25.01205 c 0,-0.50932 0.0545,-0.71768 0.121,-0.46302 0.0665,0.25466 0.0665,0.67138 0,0.92604 -0.0666,0.25467 -0.121,0.0463 -0.121,-0.46302 z m 0.005,-2.77812 c 0.003,-0.58208 0.0571,-0.78905 0.12041,-0.45994 0.0633,0.32912 0.0609,0.80537 -0.005,1.05834 -0.0662,0.25296 -0.118,-0.0163 -0.11506,-0.5984 z m 24.29583,-0.8158 c 0.0127,-0.30823 0.0754,-0.37092 0.15986,-0.15985 0.0764,0.19099 0.067,0.4192 -0.0209,0.50712 -0.0879,0.0879 -0.15045,-0.0684 -0.13896,-0.34727 z m -24.30164,-5.96543 c 1.54607,-2.63816 3.96348,-9.81679 3.53778,-10.5056 -0.0764,-0.12357 0.54119,-0.11424 1.37237,0.0207 3.59911,0.58446 6.18129,-0.30231 10.24248,-3.51746 3.18769,-2.52362 4.14137,-2.96809 9.04116,-4.21373 2.303404,-0.58558 4.496435,-1.29222 4.8734,-1.57031 l 0.685395,-0.50561 -0.334076,1.89494 c -0.82804,4.69678 -2.036466,8.58172 -3.624207,11.65137 -0.819536,1.58444 -1.272472,2.16488 -1.890922,2.42319 -2.20553,0.92123 -18.938,4.7575 -23.15332,5.3084 l -1.43798,0.18792 0.68792,-1.17384 z m -13.60427,-6.49638 c 0.19099,-0.0764 0.4192,-0.067 0.50712,0.0209 0.0879,0.0879 -0.0684,0.15045 -0.34727,0.13897 -0.30823,-0.0127 -0.37092,-0.0754 -0.15985,-0.15986 z m -61.9125,-3.43959 c 0.19099,-0.0764 0.4192,-0.067 0.50712,0.0209 0.0879,0.0879 -0.0684,0.15045 -0.34727,0.13896 -0.30822,-0.0127 -0.37092,-0.0754 -0.15985,-0.15985 z m 75.39279,-1.06472 c 0.32912,-0.0633 0.80537,-0.0609 1.05834,0.005 0.25296,0.0662 -0.0163,0.11801 -0.5984,0.11507 -0.58208,-0.003 -0.78905,-0.0571 -0.45994,-0.12041 z m -42.06874,-16.93333 c 0.32911,-0.0633 0.80536,-0.0609 1.05833,0.005 0.25296,0.0662 -0.0163,0.11801 -0.5984,0.11507 -0.58208,-0.003 -0.78905,-0.0571 -0.45993,-0.12041 z m 14.01983,5.3e-4 c 0.32742,-0.0631 0.8632,-0.0631 1.19062,0 0.32742,0.0631 0.0595,0.11466 -0.59531,0.11466 -0.65484,0 -0.92273,-0.0516 -0.59531,-0.11466 z m -19.70643,-0.26122 c 0.25744,-0.0671 0.61462,-0.0627 0.79375,0.01 0.17914,0.0725 -0.0315,0.12736 -0.46805,0.12197 -0.43656,-0.005 -0.58313,-0.0647 -0.3257,-0.13177 z m 25.52726,0.008 c 0.1819,-0.0734 0.47956,-0.0734 0.66146,0 0.1819,0.0734 0.0331,0.13345 -0.33073,0.13345 -0.3638,0 -0.51263,-0.0601 -0.33073,-0.13345 z m -29.08763,-0.2701 c 0.191,-0.0764 0.4192,-0.067 0.50712,0.0209 0.0879,0.0879 -0.0684,0.15045 -0.34727,0.13896 -0.30822,-0.0127 -0.37091,-0.0754 -0.15985,-0.15985 z m 33.07292,0 c 0.19099,-0.0764 0.4192,-0.067 0.50712,0.0209 0.0879,0.0879 -0.0684,0.15045 -0.34727,0.13896 -0.30823,-0.0127 -0.37092,-0.0754 -0.15985,-0.15985 z m 3.175,-0.26458 c 0.19099,-0.0764 0.4192,-0.067 0.50712,0.0209 0.0879,0.0879 -0.0684,0.15046 -0.34727,0.13897 -0.30823,-0.0127 -0.37092,-0.0754 -0.15985,-0.15985 z m -41.80417,-0.26459 c 0.191,-0.0764 0.4192,-0.067 0.50712,0.0209 0.0879,0.0879 -0.0684,0.15045 -0.34726,0.13896 -0.30823,-0.0127 -0.37092,-0.0754 -0.15986,-0.15985 z m 87.647579,-0.23818 c 0.0127,-0.30822 0.07539,-0.37092 0.159851,-0.15985 0.07643,0.19099 0.06703,0.4192 -0.02088,0.50712 -0.08792,0.0879 -0.150453,-0.0684 -0.138964,-0.34727 z m -39.839719,-1.33529 c -1.23279,-3.22802 -5.47285,-8.74726 -9.12041,-11.87195 -3.69659,-3.16669 -9.92266,-7.03408 -13.17988,-8.18682 -0.90781,-0.32127 -0.73432,-0.34667 2.24046,-0.32792 1.77345,0.0112 3.16541,0.11586 3.09324,0.23263 -0.0722,0.11678 0.32229,0.21302 0.87658,0.21388 1.24525,0.002 5.38527,0.6116 9.07759,1.33679 8.85798,1.73976 18.75524,5.58465 26.76108,10.39614 3.712,2.23091 6.39884,4.16359 6.13073,4.40992 -0.575,0.52828 -12.28794,2.97543 -19.40627,4.05449 -6.71706,1.01824 -5.97478,1.04773 -6.47312,-0.25716 z m -91.10814,0.16659 c 0,-0.3638 0.0601,-0.51263 0.13345,-0.33073 0.0734,0.1819 0.0734,0.47956 0,0.66146 -0.0734,0.1819 -0.13345,0.0331 -0.13345,-0.33073 z m 47.26903,-20.02449 c 0.191,-0.0764 0.4192,-0.067 0.50712,0.0209 0.0879,0.0879 -0.0684,0.15045 -0.34727,0.13897 -0.30822,-0.0127 -0.37091,-0.0754 -0.15985,-0.15986 z m 36.24792,0 c 0.19099,-0.0764 0.4192,-0.067 0.50712,0.0209 0.0879,0.0879 -0.0684,0.15045 -0.34727,0.13897 -0.30823,-0.0127 -0.37092,-0.0754 -0.15985,-0.15986 z m -32.27917,-0.26458 c 0.191,-0.0764 0.4192,-0.067 0.50712,0.0209 0.0879,0.0879 -0.0684,0.15045 -0.34727,0.13896 -0.30822,-0.0127 -0.37091,-0.0754 -0.15985,-0.15985 z m 28.31042,0 c 0.19099,-0.0764 0.4192,-0.067 0.50712,0.0209 0.0879,0.0879 -0.0684,0.15045 -0.34727,0.13896 -0.30823,-0.0127 -0.37092,-0.0754 -0.15985,-0.15985 z m -22.3688,-0.2672 c 0.25744,-0.0671 0.61462,-0.0627 0.79375,0.01 0.17914,0.0725 -0.0315,0.12736 -0.46805,0.12197 -0.43656,-0.005 -0.58313,-0.0647 -0.3257,-0.13178 z m 5.29167,0 c 0.25743,-0.0671 0.61462,-0.0627 0.79375,0.01 0.17913,0.0725 -0.0315,0.12736 -0.46805,0.12197 -0.43657,-0.005 -0.58313,-0.0647 -0.3257,-0.13178 z"
             id="path18498" />
          <path
             style="fill:#c59d70;stroke-width:0.264583"
             d="m -126.96294,176.75331 c 0,-0.0904 0.28888,-0.73444 0.64197,-1.43121 1.78964,-3.53168 2.1249,-8.10461 1.05236,-14.35424 l -0.16378,-0.95433 1.41754,-0.18521 c 3.88397,-0.50748 21.13661,-4.44265 23.3118,-5.31721 0.43036,-0.17303 0.46302,0.13832 0.46302,4.41315 0,6.80411 -0.54054,10.32068 -1.94527,12.65521 -0.67583,1.12317 -1.68199,2.09498 -2.49065,2.40562 -1.10309,0.42374 -13.70668,2.14712 -18.18595,2.48669 -1.16417,0.0883 -2.56315,0.22468 -3.10885,0.30317 -0.54571,0.0785 -0.99219,0.0688 -0.99219,-0.0216 z m -31.53503,-23.34624 c 0.191,-0.0764 0.4192,-0.067 0.50712,0.0209 0.0879,0.0879 -0.0684,0.15046 -0.34726,0.13897 -0.30823,-0.0127 -0.37092,-0.0754 -0.15986,-0.15985 z m -43.40511,-4.50431 c 0.32912,-0.0633 0.80537,-0.0609 1.05833,0.005 0.25297,0.0662 -0.0163,0.118 -0.5984,0.11506 -0.58208,-0.003 -0.78905,-0.0571 -0.45993,-0.1204 z m 83.3454,-0.53379 c 0.47555,-0.0589 1.18992,-0.0577 1.5875,0.003 0.39757,0.0604 0.008,0.10855 -0.86464,0.10707 -0.87312,-0.002 -1.19841,-0.0509 -0.72286,-0.10977 z m -7.39654,-0.51815 c 0.191,-0.0764 0.4192,-0.067 0.50712,0.0209 0.0879,0.0879 -0.0683,0.15046 -0.34726,0.13897 -0.30823,-0.0127 -0.37092,-0.0754 -0.15986,-0.15985 z m 2.64584,0 c 0.19099,-0.0764 0.4192,-0.067 0.50711,0.0209 0.0879,0.0879 -0.0683,0.15046 -0.34726,0.13897 -0.30823,-0.0127 -0.37092,-0.0754 -0.15985,-0.15985 z m 14.3371,-3.62332 c 0,-0.0549 0.20836,-0.2633 0.46302,-0.46303 0.41965,-0.3291 0.42901,-0.31974 0.0999,0.0999 -0.34564,0.44073 -0.56292,0.58089 -0.56292,0.36313 z m 14.572976,-11.43153 c 0.0127,-0.30823 0.07539,-0.37092 0.15985,-0.15985 0.07643,0.19099 0.06703,0.41919 -0.02087,0.50712 -0.08792,0.0879 -0.150453,-0.0684 -0.138965,-0.34727 z m -130.439576,-1.05833 c 0.0127,-0.30823 0.0754,-0.37092 0.15985,-0.15986 0.0764,0.191 0.067,0.4192 -0.0209,0.50712 -0.0879,0.0879 -0.15045,-0.0684 -0.13896,-0.34726 z m 56.00771,-0.82654 c 0.32912,-0.0633 0.80537,-0.0609 1.05834,0.005 0.25296,0.0662 -0.0163,0.11801 -0.5984,0.11507 -0.58208,-0.003 -0.78905,-0.0571 -0.45994,-0.12041 z m 17.85629,0.005 c 0.25466,-0.0666 0.67138,-0.0666 0.92604,0 0.25467,0.0666 0.0463,0.121 -0.46302,0.121 -0.50932,0 -0.71768,-0.0545 -0.46302,-0.121 z m -22.88646,-0.25742 c 0.18191,-0.0734 0.47956,-0.0734 0.66146,0 0.1819,0.0734 0.0331,0.13345 -0.33073,0.13345 -0.3638,0 -0.51263,-0.0601 -0.33073,-0.13345 z m 27.78125,0 c 0.1819,-0.0734 0.47956,-0.0734 0.66146,0 0.1819,0.0734 0.0331,0.13345 -0.33073,0.13345 -0.3638,0 -0.51263,-0.0601 -0.33073,-0.13345 z m -30.93971,-0.2701 c 0.191,-0.0764 0.4192,-0.067 0.50712,0.0209 0.0879,0.0879 -0.0683,0.15045 -0.34727,0.13896 -0.30822,-0.0127 -0.37091,-0.0754 -0.15985,-0.15985 z m 34.66042,0 c 0.19099,-0.0764 0.4192,-0.067 0.50712,0.0209 0.0879,0.0879 -0.0684,0.15045 -0.34727,0.13896 -0.30823,-0.0127 -0.37092,-0.0754 -0.15985,-0.15985 z m -37.57084,-0.26458 c 0.191,-0.0764 0.4192,-0.067 0.50712,0.0209 0.0879,0.0879 -0.0684,0.15046 -0.34726,0.13897 -0.30823,-0.0127 -0.37092,-0.0754 -0.15986,-0.15985 z m 43.12709,-0.26459 c 0.19099,-0.0764 0.4192,-0.067 0.50712,0.0209 0.0879,0.0879 -0.0684,0.15045 -0.34727,0.13897 -0.30823,-0.0127 -0.37092,-0.0754 -0.15985,-0.15986 z m 3.68763,-0.52365 c 0.1819,-0.0734 0.47955,-0.0734 0.66145,0 0.18191,0.0734 0.0331,0.13345 -0.33072,0.13345 -0.36381,0 -0.51263,-0.06 -0.33073,-0.13345 z m 2.11666,-0.26458 c 0.1819,-0.0734 0.47956,-0.0734 0.66146,0 0.1819,0.0734 0.0331,0.13345 -0.33073,0.13345 -0.3638,0 -0.51263,-0.0601 -0.33073,-0.13345 z m 36.885005,-0.35393 c 0,-0.36381 0.06006,-0.51263 0.133453,-0.33073 0.0734,0.1819 0.0734,0.47955 0,0.66145 -0.0734,0.18191 -0.133453,0.0331 -0.133453,-0.33072 z m -35.032915,0.0893 c 0.1819,-0.0734 0.47955,-0.0734 0.66145,0 0.18191,0.0734 0.0331,0.13345 -0.33072,0.13345 -0.36381,0 -0.51264,-0.0601 -0.33073,-0.13345 z m 1.86862,-0.27009 c 0.19099,-0.0764 0.4192,-0.067 0.50711,0.0209 0.0879,0.0879 -0.0683,0.15045 -0.34726,0.13897 -0.30823,-0.0127 -0.37092,-0.0754 -0.15985,-0.15985 z m 1.5875,-0.26459 c 0.19099,-0.0764 0.4192,-0.067 0.50711,0.0209 0.0879,0.0879 -0.0684,0.15045 -0.34726,0.13896 -0.30823,-0.0127 -0.37092,-0.0754 -0.15985,-0.15985 z m 1.5875,-0.26458 c 0.19099,-0.0764 0.4192,-0.067 0.50711,0.0209 0.0879,0.0879 -0.0683,0.15045 -0.34726,0.13896 -0.30823,-0.0127 -0.37092,-0.0754 -0.15985,-0.15985 z m -100.95984,-0.87759 c 0,-0.50933 0.0545,-0.71769 0.121,-0.46302 0.0666,0.25466 0.0666,0.67138 0,0.92604 -0.0666,0.25466 -0.121,0.0463 -0.121,-0.46302 z m 102.54734,0.61301 c 0.19099,-0.0764 0.4192,-0.067 0.50711,0.0209 0.0879,0.0879 -0.0683,0.15045 -0.34726,0.13897 -0.30823,-0.0127 -0.37092,-0.0754 -0.15985,-0.15985 z m 1.32291,-0.26459 c 0.191,-0.0764 0.4192,-0.067 0.50712,0.0209 0.0879,0.0879 -0.0683,0.15045 -0.34726,0.13896 -0.30823,-0.0127 -0.37092,-0.0754 -0.15986,-0.15985 z m 1.32292,-0.26458 c 0.19099,-0.0764 0.4192,-0.067 0.50712,0.0209 0.0879,0.0879 -0.0683,0.15045 -0.34727,0.13896 -0.30822,-0.0127 -0.37092,-0.0754 -0.15985,-0.15985 z m 3.96875,-0.79375 c 0.19099,-0.0764 0.4192,-0.067 0.50712,0.0209 0.0879,0.0879 -0.0684,0.15045 -0.34727,0.13896 -0.30822,-0.0127 -0.37092,-0.0754 -0.15985,-0.15985 z m 5.82083,-1.32292 c 0.191,-0.0764 0.4192,-0.067 0.50712,0.0209 0.0879,0.0879 -0.0683,0.15045 -0.34727,0.13896 -0.30822,-0.0127 -0.37091,-0.0754 -0.15985,-0.15985 z m 1.05833,-0.26458 c 0.191,-0.0764 0.41921,-0.067 0.50712,0.0209 0.0879,0.0879 -0.0684,0.15045 -0.34726,0.13896 -0.30823,-0.0127 -0.37092,-0.0754 -0.15986,-0.15985 z m 0.93156,-0.46908 c 0,-0.21188 0.0992,-0.32392 0.22049,-0.24897 0.12126,0.075 0.22048,0.24831 0.22048,0.38524 0,0.13693 -0.0992,0.24897 -0.22048,0.24897 -0.12127,0 -0.22049,-0.17336 -0.22049,-0.38524 z m -58.82569,-16.28351 c 0,-0.14552 0.32742,-0.25622 0.7276,-0.24599 0.64475,0.0165 0.66735,0.0445 0.19844,0.24599 -0.72268,0.31054 -0.92604,0.31054 -0.92604,0 z m 16.08997,0.0838 c 0.19099,-0.0764 0.4192,-0.067 0.50712,0.0209 0.0879,0.0879 -0.0684,0.15045 -0.34727,0.13896 -0.30822,-0.0127 -0.37092,-0.0754 -0.15985,-0.15985 z m -13.10838,-0.2672 c 0.25744,-0.0671 0.61462,-0.0627 0.79375,0.01 0.17914,0.0725 -0.0315,0.12736 -0.46805,0.12197 -0.43656,-0.005 -0.58313,-0.0647 -0.3257,-0.13178 z m 9.91993,-0.004 c 0.32912,-0.0633 0.80537,-0.0609 1.05833,0.005 0.25297,0.0662 -0.0163,0.118 -0.5984,0.11506 -0.58208,-0.003 -0.78905,-0.0571 -0.45993,-0.1204 z"
             id="path18496" />
          <path
             style="fill:#a38351;stroke-width:0.264583"
             d="m -161.22648,153.31971 c -0.58208,-0.12762 -2.60615,-0.77391 -4.49792,-1.4362 -4.24321,-1.4855 -5.57062,-1.5431 -9.92762,-0.43083 -5.7327,1.46348 -6.21904,1.41189 -11.76821,-1.24844 l -3.70417,-1.77581 -2.77812,0.0305 c -1.52797,0.0167 -4.445,0.0763 -6.48229,0.13229 -4.33091,0.11908 -4.38046,0.10172 -8.59896,-3.01289 -2.97338,-2.19532 -4.42533,-2.89484 -7.27604,-3.50546 -4.32801,-0.92706 -6.32154,-1.45677 -6.89396,-1.83183 -0.47824,-0.31336 -0.64451,-0.79632 -0.88865,-2.58131 -0.50234,-3.67272 -0.80694,-7.11983 -0.81177,-9.1865 l -0.005,-1.96359 0.80116,1.20952 c 3.68339,5.56091 18.9506,10.46795 39.28321,12.62604 7.9968,0.84877 11.86474,1.07817 21.03438,1.24754 35.36438,0.65318 65.696816,-5.99874 69.571025,-15.25696 0.206817,-0.49424 0.240403,0.007 0.132847,1.98437 -0.188973,3.47346 -0.629901,8.2351 -0.867659,9.36999 -0.255876,1.22137 -1.199335,1.67426 -6.125973,2.94064 -4.50298,1.15747 -5.60787,1.68307 -8.60295,4.09243 -4.34522,3.49546 -5.93271,3.93094 -12.05447,3.30677 -4.34088,-0.44259 -5.51498,-0.21718 -9.51145,1.82603 -5.25913,2.68874 -6.49464,2.86084 -11.5958,1.61518 -4.81732,-1.17634 -6.24166,-1.10995 -10.82109,0.50438 -3.89542,1.37321 -5.87995,1.7237 -7.61094,1.34419 z m -7.9375,-18.15012 c -14.22849,-0.88029 -25.40093,-2.39055 -37.04167,-5.0072 -5.1576,-1.15934 -12.77577,-3.15278 -13.03343,-3.41045 -0.0707,-0.0707 0.15401,-1.007 0.49933,-2.0807 l 0.62785,-1.95217 3.70417,1.02501 c 2.03729,0.56375 4.01999,1.05008 4.40599,1.08072 0.38601,0.0307 0.65787,0.12722 0.60414,0.2146 -0.10957,0.17823 6.9293,1.75744 12.21024,2.73944 18.28172,3.39949 39.12085,4.24816 58.31817,2.375 11.13381,-1.08637 24.12753,-3.49687 33.86666,-6.28269 l 4.10105,-1.17308 0.59381,1.88497 c 0.326602,1.03674 0.594493,1.96583 0.595315,2.06464 0.0019,0.22472 -1.645685,0.70505 -7.602745,2.21648 -11.36497,2.88354 -23.32627,4.83378 -36.44888,5.94284 -3.37755,0.28545 -22.28432,0.55535 -25.4,0.36259 z m -11.02982,-26.4771 c 0.191,-0.0764 0.4192,-0.067 0.50712,0.0209 0.0879,0.0879 -0.0684,0.15045 -0.34727,0.13896 -0.30822,-0.0127 -0.37091,-0.0754 -0.15985,-0.15985 z m 41.01042,0 c 0.19099,-0.0764 0.4192,-0.067 0.50712,0.0209 0.0879,0.0879 -0.0684,0.15045 -0.34727,0.13896 -0.30823,-0.0127 -0.37092,-0.0754 -0.15985,-0.15985 z m -37.57084,-0.26459 c 0.191,-0.0764 0.4192,-0.067 0.50712,0.0209 0.0879,0.0879 -0.0684,0.15045 -0.34726,0.13897 -0.30823,-0.0127 -0.37092,-0.0754 -0.15986,-0.15986 z m 7.14375,0 c 0.191,-0.0764 0.4192,-0.067 0.50712,0.0209 0.0879,0.0879 -0.0683,0.15045 -0.34726,0.13897 -0.30823,-0.0127 -0.37092,-0.0754 -0.15986,-0.15986 z m 22.01003,-0.0838 c 0.21828,-0.14106 0.635,-0.24994 0.92604,-0.24194 l 0.52917,0.0145 -0.52917,0.22739 c -0.29104,0.12506 -0.70776,0.23394 -0.92604,0.24194 -0.35278,0.0129 -0.35278,-0.014 0,-0.24194 z m 4.97747,0.0838 c 0.191,-0.0764 0.4192,-0.067 0.50712,0.0209 0.0879,0.0879 -0.0684,0.15045 -0.34726,0.13897 -0.30823,-0.0127 -0.37092,-0.0754 -0.15986,-0.15986 z m -29.91445,-0.25907 c 0.1819,-0.0734 0.47956,-0.0734 0.66146,0 0.1819,0.0734 0.0331,0.13345 -0.33073,0.13345 -0.3638,0 -0.51263,-0.06 -0.33073,-0.13345 z m 22.48958,0 c 0.1819,-0.0734 0.47956,-0.0734 0.66146,0 0.1819,0.0734 0.0331,0.13345 -0.33073,0.13345 -0.3638,0 -0.51263,-0.06 -0.33073,-0.13345 z m -15.2085,-0.27271 c 0.25743,-0.0671 0.61462,-0.0627 0.79375,0.01 0.17913,0.0725 -0.0315,0.12736 -0.46806,0.12197 -0.43656,-0.005 -0.58312,-0.0647 -0.32569,-0.13178 z"
             id="path18494" />
          <path
             style="fill:#835e2e;stroke-width:0.264583"
             d="m -169.42856,141.50318 c -18.34725,-0.7404 -35.7139,-3.69156 -45.56295,-7.74264 -17.6491,-7.25937 -11.50198,-16.67286 14.42023,-22.08265 7.50673,-1.56661 16.22893,-2.66795 26.38022,-3.331 3.82337,-0.24973 7.98516,-0.30557 5.95312,-0.0799 -6.90633,0.76708 -15.98431,3.16782 -22.80506,6.03096 -5.13779,2.15668 -11.80654,5.89318 -16.75852,9.38978 l -1.86045,1.31368 -2.99488,-0.78574 c -1.64718,-0.43216 -3.56399,-0.95475 -4.25958,-1.16132 l -1.2647,-0.37557 -0.58728,1.97826 c -0.323,1.08805 -0.53212,2.03342 -0.46471,2.10083 0.2525,0.2525 7.9242,2.25736 13.02747,3.40449 9.415,2.11633 19.48595,3.6431 30.03021,4.55261 6.701,0.578 25.68469,0.66032 31.88229,0.13825 13.61438,-1.14685 25.44583,-3.06312 36.97805,-5.98909 5.95706,-1.51143 7.604616,-1.99176 7.602745,-2.21648 -7.93e-4,-0.0988 -0.268713,-1.02448 -0.595315,-2.05705 l -0.59381,-1.87738 -3.21052,0.89564 -3.21052,0.89563 -1.96591,-1.41047 c -9.55044,-6.85213 -21.93739,-11.93439 -34.33727,-14.08828 -3.18537,-0.55331 -3.40371,-0.62332 -1.99037,-0.63824 1.96122,-0.0207 9.715,0.62598 14.15521,1.18056 21.72703,2.71369 35.658497,8.02252 37.328576,14.22471 0.999355,3.71133 -3.046294,7.45914 -11.433616,10.59188 -12.56745,4.69406 -33.23721,7.42426 -54.99912,7.26466 -3.85631,-0.0283 -7.8449,-0.0851 -8.86354,-0.12616 z m 20.70673,-33.34625 c 0.32911,-0.0633 0.80536,-0.0609 1.05833,0.005 0.25296,0.0662 -0.0163,0.118 -0.5984,0.11507 -0.58208,-0.003 -0.78905,-0.0571 -0.45993,-0.12041 z"
             id="path18492" />
        </g>
      </g>
      <path
         style="fill:#3e494a;stroke:none;stroke-width:0.264583"
         d="m 89.215813,295.47119 c -2.07962,0.87842 -1.86134,9.49616 1.54702,7.91078 2.38019,-1.10702 2.10503,-9.4533 -1.54702,-7.91078 m 48.418757,0.0757 c -2.12989,1.18613 -1.65576,9.48955 1.80764,7.83511 2.12883,-1.0168 1.78699,-9.83748 -1.80764,-7.83511 m -29.92173,3.89705 c -2.85908,1.04775 -0.40613,4.00447 1.05331,4.94585 2.7903,1.80023 6.75957,2.03968 9.78958,0.70697 1.64518,-0.72337 6.30317,-5.44803 1.85182,-5.76421 -2.32621,-0.1651 -3.90842,2.80273 -6.61432,2.50692 -2.03358,-0.22251 -4.15819,-3.10012 -6.08039,-2.39553 z"
         id="path1891" />
    </g>
    <g
       id="g31543">
      <g
         id="g18240"
         transform="translate(255.40822,-203.26219)">
        <path
           style="fill:#f3ddc9;stroke-width:0.264583"
           d="m -172.54738,296.38381 c 0.54571,-0.0571 1.43868,-0.0571 1.98438,0 0.5457,0.0571 0.0992,0.10379 -0.99219,0.10379 -1.09141,0 -1.53789,-0.0467 -0.99219,-0.10379 z m 43.25348,0.002 c 0.46969,-0.0584 1.30313,-0.0594 1.85208,-0.002 0.54895,0.0573 0.16465,0.1051 -0.854,0.10627 -1.01864,0.001 -1.46778,-0.0457 -0.99808,-0.10414 z m -48.93893,-0.26075 c 0.32912,-0.0633 0.80537,-0.0609 1.05833,0.005 0.25297,0.0662 -0.0163,0.11801 -0.5984,0.11507 -0.58208,-0.003 -0.78905,-0.0571 -0.45993,-0.1204 z m 55.82708,0 c 0.32912,-0.0633 0.80537,-0.0609 1.05833,0.005 0.25297,0.0662 -0.0163,0.11801 -0.5984,0.11507 -0.58208,-0.003 -0.78905,-0.0571 -0.45993,-0.1204 z m -59.39701,-0.26081 c 0.25743,-0.0671 0.61462,-0.0627 0.79375,0.01 0.17913,0.0725 -0.0315,0.12736 -0.46805,0.12197 -0.43657,-0.005 -0.58313,-0.0647 -0.3257,-0.13177 z m 63.23542,0 c 0.25743,-0.0671 0.61462,-0.0627 0.79375,0.01 0.17913,0.0725 -0.0315,0.12736 -0.46806,0.12197 -0.43656,-0.005 -0.58313,-0.0647 -0.32569,-0.13177 z m -66.01858,-0.25652 c 0.1819,-0.0734 0.47956,-0.0734 0.66146,0 0.1819,0.0734 0.0331,0.13345 -0.33073,0.13345 -0.3638,0 -0.51263,-0.0601 -0.33073,-0.13345 z m 68.8082,-0.006 c 0.191,-0.0764 0.4192,-0.067 0.50712,0.0209 0.0879,0.0879 -0.0683,0.15045 -0.34726,0.13896 -0.30823,-0.0127 -0.37092,-0.0754 -0.15986,-0.15985 z m -70.90833,-0.26458 c 0.191,-0.0764 0.4192,-0.067 0.50712,0.0209 0.0879,0.0879 -0.0683,0.15046 -0.34726,0.13897 -0.30823,-0.0127 -0.37092,-0.0754 -0.15986,-0.15985 z m 73.00846,0.005 c 0.1819,-0.0734 0.47956,-0.0734 0.66146,0 0.1819,0.0734 0.0331,0.13346 -0.33073,0.13346 -0.3638,0 -0.51263,-0.0601 -0.33073,-0.13346 z m -74.86054,-0.27009 c 0.19099,-0.0764 0.4192,-0.067 0.50712,0.0209 0.0879,0.0879 -0.0683,0.15046 -0.34727,0.13897 -0.30822,-0.0127 -0.37092,-0.0754 -0.15985,-0.15985 z m 76.99375,0 c 0.19099,-0.0764 0.4192,-0.067 0.50711,0.0209 0.0879,0.0879 -0.0683,0.15046 -0.34726,0.13897 -0.30823,-0.0127 -0.37092,-0.0754 -0.15985,-0.15985 z m 2.91041,-0.52917 c 0.191,-0.0764 0.4192,-0.067 0.50712,0.0209 0.0879,0.0879 -0.0683,0.15045 -0.34726,0.13896 -0.30823,-0.0127 -0.37092,-0.0754 -0.15986,-0.15985 z m -98.67372,-6.3677 c -0.3291,-0.41964 -0.31975,-0.429 0.0999,-0.0999 0.25466,0.19972 0.46302,0.40808 0.46302,0.46302 0,0.21776 -0.21727,0.0776 -0.56292,-0.36313 z m 114.598331,-0.16604 c 0,-0.0549 0.208359,-0.2633 0.46302,-0.46302 0.419645,-0.32911 0.429004,-0.31975 0.0999,0.0999 -0.345643,0.44073 -0.562916,0.58088 -0.562916,0.36312 z m -116.695491,-1.68604 -0.9118,-0.99219 0.99219,0.9118 c 0.92351,0.84868 1.11384,1.07258 0.9118,1.07258 -0.0442,0 -0.4907,-0.44649 -0.99219,-0.99219 z m 119.07674,-0.69521 c 0,-0.0549 0.20836,-0.2633 0.463021,-0.46302 0.419645,-0.32911 0.429004,-0.31975 0.0999,0.0999 -0.345643,0.44073 -0.562917,0.58088 -0.562917,0.36312 z m -102.10609,-1.71821 c -0.59477,-0.87584 -1.0814,-1.65729 -1.0814,-1.73655 0,-0.0793 2.8472,-2.04467 6.32711,-4.36757 l 6.32712,-4.22345 1.08121,1.65951 c 0.59467,0.91274 1.08122,1.73922 1.08122,1.83664 0,0.18301 -11.66835,8.04568 -12.29918,8.28775 -0.21875,0.0839 -0.76912,-0.47419 -1.43608,-1.45633 z m 21.16666,-2.11667 c -0.59477,-0.87584 -1.0814,-1.65729 -1.0814,-1.73655 0,-0.0793 2.8472,-2.04466 6.32712,-4.36756 l 6.32711,-4.22346 1.08122,1.65952 c 0.59467,0.91273 1.08122,1.73922 1.08122,1.83663 0,0.18301 -11.66835,8.04568 -12.29919,8.28776 -0.21874,0.0839 -0.76911,-0.4742 -1.43608,-1.45634 z m 21.06751,0.0231 c -0.68576,-0.69621 -1.24683,-1.38177 -1.24683,-1.52345 0,-0.14168 2.7978,-3.0535 6.21733,-6.47071 l 6.21732,-6.2131 1.51925,1.51924 1.51924,1.51924 -6.2131,6.21733 c -3.41721,3.41953 -6.33759,6.21732 -6.48975,6.21732 -0.15215,0 -0.83771,-0.56963 -1.52346,-1.26586 z m 23.22713,-4.3754 c -0.87312,-0.47514 -1.5675,-0.97826 -1.54307,-1.11804 0.0382,-0.21865 3.98858,-7.21349 7.2689,-12.87094 l 1.0268,-1.77088 1.82763,1.05371 1.82763,1.05371 -3.04926,5.34738 c -3.64114,6.38533 -5.34797,9.18648 -5.59149,9.17639 -0.0988,-0.004 -0.89401,-0.39619 -1.76714,-0.87133 z m -88.48223,-3.77348 c 0.0127,-0.30823 0.0754,-0.37092 0.15985,-0.15985 0.0764,0.19099 0.067,0.4192 -0.0209,0.50711 -0.0879,0.0879 -0.15045,-0.0684 -0.13896,-0.34726 z m -0.22409,-2.22691 c 0,-0.50932 0.0544,-0.71768 0.121,-0.46302 0.0666,0.25466 0.0666,0.67138 0,0.92604 -0.0666,0.25466 -0.121,0.0463 -0.121,-0.46302 z m 130.958941,0.13229 c 0.0054,-0.43656 0.06469,-0.58313 0.131773,-0.32569 0.06708,0.25743 0.06267,0.61461 -0.0098,0.79375 -0.07248,0.17913 -0.127363,-0.0315 -0.121971,-0.46806 z M -190.73748,270.0928 c -4.12768,-0.27596 -10.17542,-0.93448 -10.37012,-1.12919 -0.0695,-0.0695 0.0202,-1.03456 0.19931,-2.14468 0.31806,-1.97164 0.34157,-2.0153 1.01487,-1.8848 2.93728,0.56927 13.69832,1.21243 20.30524,1.21359 34.39398,0.006 62.9887,-9.34497 81.259198,-26.57333 2.464681,-2.32409 2.304925,-2.32134 3.958862,-0.0682 l 0.978689,1.33324 -1.97407,1.82586 c -16.646339,15.39652 -39.094469,24.28142 -68.384479,27.06639 -5.36966,0.51056 -21.51992,0.72668 -26.9875,0.36115 z m -24.94174,-5.79622 c 0,-0.50932 0.0544,-0.71768 0.121,-0.46302 0.0666,0.25466 0.0666,0.67138 0,0.92604 -0.0666,0.25466 -0.121,0.0463 -0.121,-0.46302 z m 130.958941,-0.13229 c 0.0054,-0.43657 0.06469,-0.58313 0.131773,-0.3257 0.06708,0.25743 0.06267,0.61462 -0.0098,0.79375 -0.07248,0.17913 -0.127363,-0.0315 -0.121971,-0.46805 z m -130.713961,-2.24896 c 0,-0.3638 0.06,-0.51263 0.13345,-0.33073 0.0734,0.1819 0.0734,0.47956 0,0.66146 -0.0734,0.1819 -0.13345,0.0331 -0.13345,-0.33073 z m 29.06239,-5.95855 c -4.00183,-3.43284 -7.30272,-6.32425 -7.33533,-6.42534 -0.0326,-0.1011 0.5627,-0.86389 1.32291,-1.69509 l 1.38221,-1.51127 7.32533,6.27377 c 4.02893,3.45057 7.33003,6.3333 7.33577,6.40606 0.006,0.0728 -0.61176,0.82104 -1.37221,1.66284 l -1.38264,1.53056 z m 101.356296,5.80421 c 0.0127,-0.30823 0.07539,-0.37092 0.15985,-0.15985 0.07643,0.19099 0.06703,0.4192 -0.02088,0.50711 -0.08792,0.0879 -0.150453,-0.0684 -0.138965,-0.34726 z m -80.390616,-4.94137 c -2.79988,-2.80264 -5.09069,-5.21813 -5.09069,-5.36776 0,-0.3439 2.44287,-2.7657 2.78976,-2.7657 0.14192,0 2.576,2.32025 5.40906,5.15611 l 5.15102,5.1561 -1.44036,1.45848 c -0.7922,0.80216 -1.5051,1.45848 -1.58423,1.45848 -0.0791,0 -2.43469,-2.29307 -5.23456,-5.09571 z m -49.78438,3.35387 c 0.0127,-0.30823 0.0754,-0.37092 0.15985,-0.15985 0.0764,0.19099 0.067,0.4192 -0.0209,0.50711 -0.0879,0.0879 -0.15045,-0.0684 -0.13896,-0.34726 z m 0.26458,-1.32292 c 0.0127,-0.30822 0.0754,-0.37092 0.15986,-0.15985 0.0764,0.19099 0.067,0.4192 -0.0209,0.50712 -0.0879,0.0879 -0.15045,-0.0684 -0.13897,-0.34727 z m 66.60576,-5.10753 -5.20773,-4.18247 1.32799,-1.64125 c 0.90072,-1.11318 1.42705,-1.56527 1.63586,-1.40513 0.67033,0.51411 9.84747,7.81982 10.06306,8.01097 0.20237,0.17944 -2.00359,3.20054 -2.44227,3.34474 -0.0931,0.0306 -2.51266,-1.8265 -5.37691,-4.12686 z m 16.7807,-5.39009 c -2.79987,-2.80264 -5.09068,-5.21813 -5.09068,-5.36776 0,-0.34389 2.44287,-2.76569 2.78976,-2.76569 0.14192,0 2.57599,2.32024 5.40906,5.1561 l 5.15102,5.15611 -1.44036,1.45848 c -0.7922,0.80216 -1.50511,1.45847 -1.58424,1.45847 -0.0791,0 -2.43468,-2.29307 -5.23456,-5.09571 z m -58.88715,-9.91939 c -0.76027,-1.21302 -10.23269,-18.01331 -10.23269,-18.14871 0,-0.0532 1.16086,-0.16562 2.57968,-0.24981 4.55403,-0.27022 9.10171,-1.79852 14.93902,-5.02041 1.84992,-1.02106 4.31402,-2.61699 5.47577,-3.54651 2.04363,-1.63511 4.57861,-4.64392 5.70684,-6.77355 0.28775,-0.54317 0.58541,-0.98334 0.66145,-0.97816 0.0761,0.005 1.15031,1.80755 2.38723,4.00527 1.23693,2.19773 3.63387,6.44998 5.32654,9.44945 l 3.07758,5.45358 -0.79992,1.4552 c -2.93471,5.33883 -7.20154,9.57611 -12.25002,12.16517 -4.00238,2.05259 -8.8403,3.17761 -13.67325,3.1796 l -2.57637,0.001 -0.62186,-0.99219 z m 12.45486,-11.74446 c 3.89294,-2.20296 7.18027,-4.09706 7.30519,-4.2091 0.204,-0.18297 -2.6206,-5.54384 -2.921,-5.54384 -0.17488,0 -13.61652,7.58067 -14.17615,7.99491 -0.42245,0.3127 -0.33897,0.55333 1.0586,3.05145 0.83447,1.49159 1.54829,2.71198 1.58626,2.71198 0.038,0 3.25416,-1.80243 7.1471,-4.0054 z m -27.45005,12.10758 c 0,-0.0549 0.20836,-0.2633 0.46302,-0.46302 0.41964,-0.3291 0.429,-0.31975 0.0999,0.0999 -0.34564,0.44073 -0.56291,0.58089 -0.56291,0.36312 z m 1.71979,-2.01677 c 0.26339,-0.29104 0.53842,-0.52916 0.61118,-0.52916 0.0728,0 -0.0832,0.23812 -0.3466,0.52916 -0.26339,0.29104 -0.53842,0.52917 -0.61118,0.52917 -0.0728,0 0.0832,-0.23813 0.3466,-0.52917 z m 106.739341,-0.19843 -0.641432,-0.72761 0.727604,0.64143 c 0.680056,0.59952 0.84894,0.81378 0.641432,0.81378 -0.04739,0 -0.374814,-0.32742 -0.727604,-0.7276 z M -203.0406,233.62134 c 0,-0.13693 0.11769,-0.32171 0.26155,-0.41062 0.14998,-0.0927 0.19434,0.0135 0.10398,0.24897 -0.17589,0.45837 -0.36553,0.54223 -0.36553,0.16165 z m 100.91339,-2.19843 -0.50402,-0.59531 0.59531,0.50403 c 0.32742,0.27721 0.59531,0.5451 0.59531,0.59531 0,0.21173 -0.21293,0.0554 -0.6866,-0.50403 z m -3.05132,-2.51354 c -0.3291,-0.41965 -0.31974,-0.429 0.0999,-0.0999 0.25466,0.19972 0.46302,0.40808 0.46302,0.46302 0,0.21777 -0.21727,0.0776 -0.56292,-0.36312 z m -32.5596,-13.74064 c 0.19099,-0.0764 0.4192,-0.067 0.50712,0.0209 0.0879,0.0879 -0.0684,0.15045 -0.34727,0.13896 -0.30823,-0.0127 -0.37092,-0.0754 -0.15985,-0.15985 z m -1.85209,-0.26458 c 0.191,-0.0764 0.4192,-0.067 0.50712,0.0209 0.0879,0.0879 -0.0684,0.15045 -0.34726,0.13896 -0.30823,-0.0127 -0.37092,-0.0754 -0.15986,-0.15985 z m -2.39778,-0.25907 c 0.1819,-0.0734 0.47955,-0.0734 0.66146,0 0.1819,0.0734 0.0331,0.13345 -0.33073,0.13345 -0.36381,0 -0.51263,-0.06 -0.33073,-0.13345 z m -14.11099,-0.31846 c 0.13172,-0.21314 1.47713,-0.0969 1.47713,0.12766 0,0.0558 -0.36421,0.10144 -0.80936,0.10144 -0.44515,0 -0.74565,-0.10309 -0.66777,-0.2291 z m 10.8037,0.0467 c 0.25466,-0.0666 0.67138,-0.0666 0.92604,0 0.25466,0.0665 0.0463,0.121 -0.46302,0.121 -0.50933,0 -0.71769,-0.0545 -0.46302,-0.121 z m 54.93343,-47.64105 c -0.329107,-0.41964 -0.319749,-0.429 0.0999,-0.0999 0.44073,0.34565 0.580888,0.56292 0.363125,0.56292 -0.05494,0 -0.2633,-0.20836 -0.463021,-0.46302 z"
           id="path18248" />
        <path
           style="fill:#fdb455;stroke-width:0.264583"
           d="m -168.57064,296.38175 c 0.69561,-0.0547 1.76717,-0.054 2.38125,0.002 0.61407,0.0555 0.0449,0.10023 -1.26476,0.0994 -1.30968,-8e-4 -1.81211,-0.0462 -1.11649,-0.10089 z m 35.18958,0 c 0.69561,-0.0547 1.76718,-0.054 2.38125,0.002 0.61407,0.0555 0.0449,0.10023 -1.26476,0.0994 -1.30968,-8e-4 -1.81211,-0.0462 -1.11649,-0.10089 z m -43.13003,-0.25313 c 0.25743,-0.0671 0.61462,-0.0627 0.79375,0.01 0.17913,0.0725 -0.0315,0.12737 -0.46806,0.12197 -0.43656,-0.005 -0.58312,-0.0647 -0.32569,-0.13177 z m 52.65208,0 c 0.25743,-0.0671 0.61462,-0.0627 0.79375,0.01 0.17913,0.0725 -0.0315,0.12737 -0.46806,0.12197 -0.43656,-0.005 -0.58312,-0.0647 -0.32569,-0.13177 z m -56.74162,-0.26197 c 0.19099,-0.0764 0.4192,-0.067 0.50712,0.0209 0.0879,0.0879 -0.0683,0.15046 -0.34727,0.13897 -0.30822,-0.0127 -0.37092,-0.0754 -0.15985,-0.15985 z m 60.83763,0.005 c 0.1819,-0.0734 0.47955,-0.0734 0.66145,0 0.18191,0.0734 0.0331,0.13345 -0.33072,0.13345 -0.36381,0 -0.51264,-0.06 -0.33073,-0.13345 z m 3.19153,-0.27009 c 0.191,-0.0764 0.4192,-0.067 0.50712,0.0209 0.0879,0.0879 -0.0683,0.15045 -0.34726,0.13897 -0.30823,-0.0127 -0.37092,-0.0754 -0.15986,-0.15985 z m -70.06497,-4.47755 c -5.59261,-0.25688 -10.88525,-0.76696 -18.53996,-1.78677 -1.33229,-0.17749 -5.33598,-4.05746 -6.98073,-6.765 -2.39706,-3.94599 -3.43602,-8.40276 -3.42768,-14.70348 0.008,-6.28257 0.96788,-11.24407 3.26722,-16.8934 0.88589,-2.17658 2.78229,-5.92874 3.66752,-7.25645 0.17473,-0.26207 0.57477,-0.17351 1.79272,0.39688 1.49018,0.69788 1.75769,0.73394 5.40425,0.72858 2.90442,-0.004 4.47923,-0.14333 6.48229,-0.57239 1.45521,-0.31171 4.20787,-0.64014 6.11703,-0.72986 10.18192,-0.47846 16.24401,-2.7116 23.6066,-8.69612 1.06831,-0.86836 3.78403,-3.34134 6.03493,-5.49551 4.38384,-4.19546 5.89762,-5.33764 8.93288,-6.74001 4.18526,-1.93371 8.9404,-2.75975 15.89976,-2.76203 4.94127,-0.002 9.50328,0.41342 14.03188,1.27656 1.44939,0.27626 2.81607,0.49857 3.03707,0.49403 0.60813,-0.0125 6.14958,3.10329 8.99088,5.0553 3.9356,2.70379 5.98216,4.40647 9.240921,7.68813 l 3.023208,3.04446 -2.229458,2.11728 c -18.124271,17.2123 -46.883401,26.62988 -81.303071,26.62382 -6.60692,-0.001 -17.36796,-0.64432 -20.30524,-1.21359 -0.6733,-0.1305 -0.69681,-0.0868 -1.01487,1.8848 -0.17908,1.11012 -0.26902,2.07497 -0.19986,2.14413 0.24127,0.24127 6.44277,0.85596 11.82588,1.17218 6.59833,0.3876 19.16778,0.18568 25.53229,-0.41017 28.76447,-2.69292 50.8237,-11.28804 67.549655,-26.31992 1.499709,-1.34782 2.760337,-2.4076 2.801395,-2.35509 1.25766,1.60855 3.622008,5.72867 3.34881,5.83564 -0.113316,0.0444 -1.152808,1.2713 -2.309984,2.7265 -5.984904,7.52633 -13.456106,14.5796 -21.780506,20.56213 -2.85175,2.04949 -7.10907,4.79816 -8.70299,5.61895 l -0.89778,0.46232 0.53628,-0.88628 c 0.29496,-0.48746 1.90964,-3.29261 3.58819,-6.23366 l 3.0519,-5.34738 -1.82763,-1.05371 -1.82763,-1.05371 -1.0268,1.77088 c -3.24821,5.60208 -7.23062,12.65143 -7.2689,12.86684 -0.0244,0.13752 0.40173,0.49516 0.94704,0.79475 0.54531,0.29959 0.9918,0.6149 0.99219,0.70069 0.001,0.25694 -7.56003,3.80752 -11.11178,5.21786 -9.87832,3.9225 -20.99472,6.54923 -32.01459,7.56481 -4.47274,0.4122 -13.39043,0.68975 -16.93333,0.52701 z m 1.96525,-9.88102 c 3.28474,-2.19299 5.97225,-4.06697 5.97225,-4.16438 0,-0.0974 -0.48655,-0.9239 -1.08122,-1.83664 l -1.08121,-1.65951 -6.32712,4.22345 c -3.47991,2.3229 -6.32711,4.28831 -6.32711,4.36757 0,0.0793 0.48663,0.86071 1.0814,1.73655 0.66696,0.98214 1.21733,1.54027 1.43608,1.45633 0.19507,-0.0748 3.04219,-1.93037 6.32693,-4.12337 z m 21.16666,-2.11666 c 3.28474,-2.193 5.97226,-4.06698 5.97226,-4.16439 0,-0.0974 -0.48655,-0.9239 -1.08122,-1.83663 l -1.08122,-1.65952 -6.32711,4.22346 c -3.47992,2.3229 -6.32712,4.2883 -6.32712,4.36756 0,0.0793 0.48663,0.86071 1.0814,1.73655 0.66697,0.98214 1.21734,1.54028 1.43608,1.45634 0.19507,-0.0749 3.04219,-1.93038 6.32693,-4.12337 z m 21.31771,-2.26135 6.2131,-6.21733 -1.51924,-1.51924 -1.51925,-1.51924 -6.21732,6.2131 c -3.41953,3.41721 -6.21733,6.32903 -6.21733,6.47071 0,0.34929 2.42338,2.78932 2.77029,2.78932 0.15216,0 3.07254,-2.79779 6.48975,-6.21732 z m -34.15414,-17.85976 c -0.006,-0.0728 -3.30684,-2.95549 -7.33577,-6.40606 l -7.32533,-6.27377 -1.38221,1.51127 c -0.76021,0.8312 -1.35552,1.59399 -1.32291,1.69509 0.0326,0.10109 3.3335,2.9925 7.33533,6.42534 l 7.27604,6.24153 1.38264,-1.53056 c 0.76045,-0.8418 1.37794,-1.59008 1.37221,-1.66284 z m 17.75358,1.45194 1.44036,-1.45848 -5.15102,-5.1561 c -2.83306,-2.83586 -5.26714,-5.15611 -5.40906,-5.15611 -0.34689,0 -2.78976,2.4218 -2.78976,2.7657 0,0.2732 10.05566,10.46347 10.32525,10.46347 0.0791,0 0.79203,-0.65632 1.58423,-1.45848 z m 17.06491,-4.18507 c 0.6884,-0.84838 1.14805,-1.63435 1.02144,-1.74662 -0.21559,-0.19115 -9.39273,-7.49686 -10.06306,-8.01097 -0.20881,-0.16014 -0.73514,0.29195 -1.63586,1.40513 l -1.32799,1.64125 5.20773,4.18247 c 2.86425,2.30036 5.28386,4.15745 5.37691,4.12686 0.0931,-0.0306 0.73242,-0.74974 1.42083,-1.59812 z m 16.80176,-4.28159 1.44036,-1.45848 -5.15102,-5.15611 c -2.83307,-2.83586 -5.26714,-5.1561 -5.40906,-5.1561 -0.34689,0 -2.78976,2.4218 -2.78976,2.76569 0,0.2732 10.05566,10.46347 10.32524,10.46347 0.0791,0 0.79204,-0.65631 1.58424,-1.45847 z m 32.8051,35.24235 c 0,-0.0455 0.386954,-0.43249 0.859896,-0.8599 l 0.859896,-0.7771 -0.777105,0.85989 c -0.724371,0.80155 -0.942687,0.98151 -0.942687,0.77711 z m 7.185525,-16.85055 c 0,-0.3638 0.06006,-0.51263 0.133453,-0.33072 0.0734,0.1819 0.0734,0.47955 0,0.66145 -0.0734,0.1819 -0.133453,0.0331 -0.133453,-0.33073 z m 0,-5.02708 c 0,-0.3638 0.06006,-0.51263 0.133453,-0.33073 0.0734,0.1819 0.0734,0.47956 0,0.66146 -0.0734,0.1819 -0.133453,0.0331 -0.133453,-0.33073 z M -203.0406,236.15166 c 0,-0.0549 0.20836,-0.2633 0.46302,-0.46302 0.41964,-0.32911 0.429,-0.31975 0.0999,0.0999 -0.34564,0.44073 -0.56291,0.58088 -0.56291,0.36312 z m 0.67847,-1.41005 c -0.14359,-0.37708 -0.1132,-0.40747 0.14811,-0.14811 0.18082,0.17948 0.26211,0.39297 0.18065,0.47443 -0.0815,0.0815 -0.22941,-0.0654 -0.32876,-0.32632 z m 35.83402,-3.64943 c 0.34178,-0.3638 0.68094,-0.66146 0.7537,-0.66146 0.0728,0 -0.14734,0.29766 -0.48911,0.66146 -0.34178,0.3638 -0.68094,0.66146 -0.7537,0.66146 -0.0728,0 0.14734,-0.29766 0.48911,-0.66146 z m -18.76336,-0.49333 c 0.0606,-0.053 0.4079,-0.23821 0.7717,-0.41147 0.62369,-0.29703 0.63214,-0.29152 0.14787,0.0965 -0.42149,0.33768 -1.28267,0.6327 -0.91957,0.31502 z m 1.56545,-0.816 c 0,-0.0728 0.35719,-0.317 0.79375,-0.54275 0.43656,-0.22576 0.79375,-0.35093 0.79375,-0.27817 0,0.0728 -0.35719,0.317 -0.79375,0.54275 -0.43656,0.22576 -0.79375,0.35093 -0.79375,0.27817 z m -2.38125,-0.67504 c -0.15576,-0.29104 -0.22367,-0.52917 -0.15091,-0.52917 0.0728,0 0.25973,0.23813 0.41549,0.52917 0.15576,0.29104 0.22367,0.52916 0.15091,0.52916 -0.0728,0 -0.25973,-0.23812 -0.41549,-0.52916 z m 4.7625,-0.64284 c 0,-0.0728 0.23812,-0.25974 0.52916,-0.4155 0.29105,-0.15576 0.52917,-0.22367 0.52917,-0.15091 0,0.0728 -0.23812,0.25974 -0.52917,0.4155 -0.29104,0.15576 -0.52916,0.22367 -0.52916,0.15091 z m -5.82083,-1.20925 c -0.15577,-0.29104 -0.22368,-0.52916 -0.15092,-0.52916 0.0728,0 0.25974,0.23812 0.4155,0.52916 0.15576,0.29105 0.22367,0.52917 0.15091,0.52917 -0.0728,0 -0.25973,-0.23812 -0.41549,-0.52917 z m 7.67291,0.14588 c 0,-0.0728 0.35719,-0.317 0.79375,-0.54275 0.43656,-0.22576 0.79375,-0.35093 0.79375,-0.27817 0,0.0728 -0.35719,0.317 -0.79375,0.54275 -0.43656,0.22576 -0.79375,0.35093 -0.79375,0.27817 z m 1.85208,-1.05833 c 0,-0.0728 0.35719,-0.317 0.79375,-0.54275 0.43657,-0.22576 0.79375,-0.35094 0.79375,-0.27818 0,0.0728 -0.35718,0.317 -0.79375,0.54276 -0.43656,0.22575 -0.79375,0.35093 -0.79375,0.27817 z m 2.38125,-1.31789 c 0,-0.0728 0.23813,-0.25973 0.52917,-0.41549 0.29104,-0.15576 0.52917,-0.22367 0.52917,-0.15091 0,0.0728 -0.23813,0.25973 -0.52917,0.41549 -0.29104,0.15576 -0.52917,0.22367 -0.52917,0.15091 z m -12.17083,-0.26458 c 0,-0.0728 0.23813,-0.25973 0.52917,-0.41549 0.29104,-0.15576 0.52917,-0.22367 0.52917,-0.15091 0,0.0728 -0.23813,0.25973 -0.52917,0.41549 -0.29104,0.15576 -0.52917,0.22367 -0.52917,0.15091 z m 14.02292,-0.79375 c 0,-0.0728 0.23812,-0.25973 0.52916,-0.41549 0.29105,-0.15576 0.52917,-0.22367 0.52917,-0.15091 0,0.0728 -0.23812,0.25973 -0.52917,0.41549 -0.29104,0.15576 -0.52916,0.22367 -0.52916,0.15091 z m -12.17083,-0.26458 c 0,-0.0728 0.23812,-0.25974 0.52916,-0.4155 0.29104,-0.15576 0.52917,-0.22367 0.52917,-0.15091 0,0.0728 -0.23813,0.25974 -0.52917,0.4155 -0.29104,0.15576 -0.52916,0.22367 -0.52916,0.15091 z m 14.02291,-0.74426 c 0,-0.0455 0.23813,-0.28669 0.52917,-0.53589 0.29104,-0.24919 0.52916,-0.33938 0.52916,-0.2004 0,0.13898 -0.23812,0.38013 -0.52916,0.53589 -0.29104,0.15576 -0.52917,0.24594 -0.52917,0.2004 z m -12.17083,-0.31911 c 0,-0.0728 0.35719,-0.317 0.79375,-0.54275 0.43656,-0.22576 0.79375,-0.35093 0.79375,-0.27817 0,0.0728 -0.35719,0.317 -0.79375,0.54275 -0.43656,0.22576 -0.79375,0.35093 -0.79375,0.27817 z m 12.43541,-1.46879 c -0.15576,-0.29104 -0.22367,-0.52917 -0.15091,-0.52917 0.0728,0 0.25974,0.23813 0.4155,0.52917 0.15576,0.29104 0.22367,0.52916 0.15091,0.52916 -0.0728,0 -0.25974,-0.23812 -0.4155,-0.52916 z m -10.05416,0.15091 c 0,-0.0728 0.23812,-0.25974 0.52916,-0.4155 0.29105,-0.15576 0.52917,-0.22367 0.52917,-0.15091 0,0.0728 -0.23812,0.25974 -0.52917,0.4155 -0.29104,0.15576 -0.52916,0.22367 -0.52916,0.15091 z m 1.85208,-1.05834 c 0,-0.0728 0.23813,-0.25973 0.52917,-0.41549 0.29104,-0.15576 0.52916,-0.22367 0.52916,-0.15091 0,0.0728 -0.23812,0.25973 -0.52916,0.41549 -0.29104,0.15576 -0.52917,0.22367 -0.52917,0.15091 z m 7.14375,-0.94466 c -0.15576,-0.29104 -0.22367,-0.52916 -0.15091,-0.52916 0.0728,0 0.25973,0.23812 0.41549,0.52916 0.15576,0.29105 0.22368,0.52917 0.15091,0.52917 -0.0728,0 -0.25973,-0.23812 -0.41549,-0.52917 z m -4.7625,-0.37825 c 0,-0.0728 0.23813,-0.25974 0.52917,-0.4155 0.29104,-0.15576 0.52916,-0.22367 0.52916,-0.15091 0,0.0728 -0.23812,0.25974 -0.52916,0.4155 -0.29104,0.15576 -0.52917,0.22367 -0.52917,0.15091 z m 1.85208,-1.05834 c 0,-0.0728 0.23813,-0.25973 0.52917,-0.41549 0.29104,-0.15576 0.52917,-0.22367 0.52917,-0.15091 0,0.0728 -0.23813,0.25973 -0.52917,0.41549 -0.29104,0.15576 -0.52917,0.22367 -0.52917,0.15091 z m 1.78119,-0.41549 c -0.2492,-0.29104 -0.33938,-0.52917 -0.20041,-0.52917 0.13898,0 0.38013,0.23813 0.53589,0.52917 0.15576,0.29104 0.24594,0.52917 0.2004,0.52917 -0.0455,0 -0.28668,-0.23813 -0.53588,-0.52917 z m 9.86048,-0.26458 c -0.15576,-0.29104 -0.22367,-0.52917 -0.15091,-0.52917 0.0728,0 0.25973,0.23813 0.41549,0.52917 0.15576,0.29104 0.22367,0.52916 0.15091,0.52916 -0.0728,0 -0.25973,-0.23812 -0.41549,-0.52916 z m 20.85247,-2.56199 c 0.191,-0.0764 0.4192,-0.067 0.50712,0.0209 0.0879,0.0879 -0.0683,0.15046 -0.34726,0.13897 -0.30823,-0.0127 -0.37092,-0.0754 -0.15986,-0.15985 z m -13.9733,-0.18783 c 0,-0.0572 0.18477,-0.17489 0.41061,-0.26155 0.23546,-0.0904 0.34167,-0.046 0.24897,0.10398 -0.15538,0.25141 -0.65958,0.37186 -0.65958,0.15757 z m 2.44739,-0.0784 c 0.25466,-0.0666 0.67138,-0.0666 0.92604,0 0.25467,0.0665 0.0463,0.121 -0.46302,0.121 -0.50932,0 -0.71768,-0.0545 -0.46302,-0.121 z m 7.40834,0 c 0.25466,-0.0666 0.67138,-0.0666 0.92604,0 0.25466,0.0665 0.0463,0.121 -0.46302,0.121 -0.50933,0 -0.71769,-0.0545 -0.46302,-0.121 z m -6.41615,-1.78337 c 0,-0.0728 0.23813,-0.25974 0.52917,-0.4155 0.29104,-0.15576 0.52916,-0.22367 0.52916,-0.15091 0,0.0728 -0.23812,0.25974 -0.52916,0.4155 -0.29104,0.15576 -0.52917,0.22367 -0.52917,0.15091 z m 6.08542,-3.43959 c 0,-0.0728 0.23812,-0.25973 0.52916,-0.41549 0.29104,-0.15576 0.52917,-0.22367 0.52917,-0.15091 0,0.0728 -0.23813,0.25973 -0.52917,0.41549 -0.29104,0.15576 -0.52916,0.22368 -0.52916,0.15091 z m 6.08541,-3.43958 c 0,-0.0728 0.23813,-0.25973 0.52917,-0.41549 0.29104,-0.15576 0.52917,-0.22367 0.52917,-0.15091 0,0.0728 -0.23813,0.25973 -0.52917,0.41549 -0.29104,0.15576 -0.52917,0.22367 -0.52917,0.15091 z m 10.58334,-7.03008 c -0.15576,-0.29104 -0.22368,-0.52916 -0.15091,-0.52916 0.0728,0 0.25973,0.23812 0.41549,0.52916 0.15576,0.29105 0.22367,0.52917 0.15091,0.52917 -0.0728,0 -0.25973,-0.23812 -0.41549,-0.52917 z m -1.05834,-1.85208 c -0.15576,-0.29104 -0.22367,-0.52916 -0.15091,-0.52916 0.0728,0 0.25974,0.23812 0.4155,0.52916 0.15576,0.29104 0.22367,0.52917 0.15091,0.52917 -0.0728,0 -0.25974,-0.23813 -0.4155,-0.52917 z"
           id="path18246" />
        <path
           style="fill:#d79446;stroke-width:0.264583"
           d="m -171.68748,296.3155 c -15.24269,-0.49365 -24.03841,-2.05142 -31.03438,-5.49637 -1.35265,-0.66607 -2.50594,-1.2864 -2.56287,-1.37851 -0.0569,-0.0921 1.40699,0.0447 3.25313,0.30397 10.09241,1.41746 23.24407,1.78362 32.1962,0.89637 14.50034,-1.43713 27.21602,-4.93765 39.50925,-10.87654 3.83652,-1.85344 4.0882,-1.93733 4.66946,-1.55647 0.59319,0.38867 0.63585,0.36431 1.23659,-0.70585 0.50389,-0.89767 1.20074,-1.45813 3.66491,-2.94769 10.46985,-6.32886 20.83262,-15.43121 28.395086,-24.9414 1.157176,-1.4552 2.199732,-2.68315 2.316789,-2.72877 0.306285,-0.11935 1.987902,3.60106 3.049543,6.74682 3.540304,10.49031 3.09949,22.03354 -1.105779,28.95616 -1.260051,2.07427 -3.751302,4.73358 -5.787919,6.17837 -5.84786,4.14851 -13.90582,6.25395 -27.92605,7.29673 -4.63408,0.34467 -41.30165,0.53081 -49.87396,0.25318 z m -33.54005,-51.60274 c -0.54796,-0.13891 -1.47297,-0.49574 -2.05557,-0.79296 -0.89,-0.45404 -1.01788,-0.61775 -0.80025,-1.02439 0.48798,-0.9118 3.41964,-4.74685 4.76064,-6.22763 0.73724,-0.81409 1.34044,-1.54262 1.34044,-1.61896 0,-0.0763 -0.19472,-0.43598 -0.43272,-0.7992 -0.23799,-0.36323 -0.38682,-0.69456 -0.33072,-0.73631 0.0561,-0.0417 1.35214,-0.77108 2.88011,-1.62076 1.52796,-0.84967 3.08534,-1.75803 3.46082,-2.01855 l 0.6827,-0.47369 2.88813,5.04656 2.88812,5.04656 3.9698,-0.13854 c 3.06194,-0.10685 4.55708,-0.29186 6.5378,-0.80898 7.71435,-2.01403 13.9462,-6.90574 18.05232,-14.17022 l 0.94763,-1.67652 -1.36726,-2.55037 c -0.752,-1.4027 -1.99326,-3.644 -2.75837,-4.98067 l -1.3911,-2.43029 16.40512,-9.27752 c 9.02282,-5.10263 16.5209,-9.27751 16.6624,-9.27751 0.1415,0 0.18317,0.1199 0.0926,0.26645 -0.0906,0.14655 0.0208,0.33762 0.24745,0.4246 0.22667,0.087 0.34625,0.26473 0.26574,0.395 -0.0805,0.13028 -0.0133,0.23687 0.14943,0.23687 0.16269,0 0.22222,0.11906 0.13229,0.26458 -0.0899,0.14552 -0.0304,0.26458 0.13229,0.26458 0.1627,0 0.22491,0.11472 0.13825,0.25494 -0.0866,0.14021 0.075,0.48747 0.35922,0.7717 0.28422,0.28422 0.44731,0.58622 0.36242,0.67111 -0.0849,0.0849 -0.008,0.15433 0.16996,0.15433 0.17836,0 0.25339,0.11473 0.16674,0.25494 -0.0867,0.14021 0.0849,0.4974 0.38126,0.79375 0.29635,0.29635 0.43545,0.53881 0.30911,0.53881 -0.17934,0 -24.09098,13.40908 -26.36092,14.78257 -0.42259,0.2557 0.21689,0.28672 3.175,0.15404 8.54119,-0.38311 18.4168,0.95416 26.81526,3.6311 3.314,1.05632 9.14856,3.36812 8.96465,3.55204 -0.0524,0.0524 -1.33306,-0.14457 -2.8458,-0.43781 -4.58251,-0.88832 -9.13548,-1.3091 -14.14707,-1.30746 -6.95936,0.002 -11.7145,0.82832 -15.89976,2.76203 -3.03526,1.40237 -4.54904,2.54455 -8.93288,6.74001 -2.2509,2.15417 -4.96662,4.62715 -6.03493,5.49551 -7.36322,5.98504 -13.43041,8.2198 -23.6066,8.69515 -1.90916,0.0892 -4.60229,0.40206 -5.98474,0.69527 -2.82966,0.60018 -8.81677,0.8744 -10.38901,0.47584 z m 18.62926,-16.82629 c -0.77938,-1.39298 -1.31516,-2.62839 -1.19063,-2.74535 0.31911,-0.29971 13.88243,-7.93956 14.09541,-7.93956 0.1862,0 2.93205,4.68872 2.93205,5.00668 0,0.16443 -14.05914,8.23171 -14.31954,8.2167 -0.0551,-0.003 -0.73792,-1.14549 -1.51729,-2.53847 z m 61.41131,-24.89021 c 0.25466,-0.0666 0.67138,-0.0666 0.92604,0 0.25466,0.0666 0.0463,0.121 -0.46302,0.121 -0.50932,0 -0.71768,-0.0544 -0.46302,-0.121 z m -0.10481,-12.89666 -0.9647,-1.69705 14.66704,-8.37863 c 10.63895,-6.07756 14.755087,-8.30348 14.987621,-8.10497 0.41315,0.35269 1.917957,3.16652 1.762019,3.29479 -0.420944,0.34627 -29.06882,16.58734 -29.2552,16.58537 -0.12764,-0.001 -0.66619,-0.76613 -1.19678,-1.69951 z m -8.93628,1.01845 c 0.0127,-0.30822 0.0754,-0.37092 0.15985,-0.15985 0.0764,0.19099 0.067,0.4192 -0.0209,0.50712 -0.0879,0.0879 -0.15045,-0.0683 -0.13896,-0.34727 z m 1.43432,-4.34357 c 0.26339,-0.29105 0.53842,-0.52917 0.61118,-0.52917 0.0728,0 -0.0832,0.23812 -0.3466,0.52917 -0.26339,0.29104 -0.53842,0.52916 -0.61118,0.52916 -0.0728,0 0.0832,-0.23812 0.3466,-0.52916 z m 46.566662,-5.02709 c 0.26339,-0.29104 0.538422,-0.52916 0.611182,-0.52916 0.07276,0 -0.08321,0.23812 -0.346599,0.52916 -0.26339,0.29104 -0.538422,0.52917 -0.611182,0.52917 -0.07276,0 0.08321,-0.23813 0.346599,-0.52917 z"
           id="path18244" />
        <path
           style="fill:#a04a11;stroke-width:0.264583"
           d="m -127.00576,202.49423 c -0.45464,-0.22428 -1.12118,-0.72758 -1.48121,-1.11845 -0.98966,-1.07445 -5.22491,-8.75523 -5.49687,-9.96879 -0.39068,-1.74328 0.13742,-3.39348 1.49807,-4.68122 1.09851,-1.03964 36.145422,-20.79756 37.492903,-21.13686 0.820023,-0.20649 1.443524,-0.20728 2.202836,-0.003 2.033011,0.54743 2.668402,1.24253 5.234916,5.72686 2.606924,4.55493 3.051114,5.5531 3.042028,6.8359 -0.0078,1.10122 -0.814191,2.77957 -1.746763,3.63556 -0.418534,0.38416 -7.249874,4.36713 -15.18076,8.85103 -23.47892,13.27433 -21.59222,12.27953 -23.27584,12.27259 -0.80448,-0.003 -1.83467,-0.18952 -2.28931,-0.4138 z m 17.59514,-18.93783 c 7.94877,-4.53484 14.50564,-8.28903 14.57083,-8.34266 0.155938,-0.12827 -1.348869,-2.9421 -1.762019,-3.29479 -0.232534,-0.19851 -4.348671,2.02741 -14.987621,8.10497 l -14.66704,8.37863 0.9647,1.69705 c 0.53059,0.93338 1.06914,1.69816 1.19678,1.69951 0.12764,10e-4 6.7356,-3.70787 14.68437,-8.24271 z"
           id="path18242" />
      </g>
      <path
         style="fill:#3e494a;stroke:none;stroke-width:0.142868"
         d="m 66.510155,30.026962 c -0.731128,0.975408 1.714734,4.935869 2.873372,3.269272 0.809152,-1.163797 -1.589403,-4.982162 -2.873372,-3.269272 M 89.116171,16.892276 c -0.670879,1.132617 1.80883,4.876869 2.974358,3.163086 0.716443,-1.053342 -1.842255,-5.074858 -2.974358,-3.163086 m -12.897294,9.956589 c -1.048657,1.26641 0.89978,1.978395 1.836608,2.020541 1.791231,0.08077 3.707868,-0.887187 4.758748,-2.333012 0.570653,-0.784916 1.458304,-4.255765 -0.704076,-3.192474 -1.129992,0.555721 -1.060775,2.37046 -2.403431,2.968487 -1.009107,0.449346 -2.782869,-0.315047 -3.487849,0.536458 z"
         id="path1891-3" />
    </g>
    <g
       id="g18078"
       transform="matrix(0.70149747,0,0,0.70149747,2.7646235,2.1494846)">
      <path
         style="fill:#b9e0f4;stroke-width:0.264583"
         d="m 243.94606,296.35362 c 0.1819,-0.0734 0.47956,-0.0734 0.66146,0 0.1819,0.0734 0.0331,0.13346 -0.33073,0.13346 -0.3638,0 -0.51263,-0.0601 -0.33073,-0.13346 z m 1.32292,0 c 0.1819,-0.0734 0.47955,-0.0734 0.66146,0 0.1819,0.0734 0.0331,0.13346 -0.33073,0.13346 -0.36381,0 -0.51263,-0.0601 -0.33073,-0.13346 z m 38.8276,-26.25708 c -0.43656,-0.27564 -3.70605,-3.42652 -7.26552,-7.00196 l -6.47176,-6.5008 15.33365,-15.17893 15.33365,-15.17894 1.16054,1.2908 c 1.86815,2.07783 3.10231,2.50612 4.36334,1.51419 0.52924,-0.4163 0.69714,-0.7847 0.69714,-1.52964 0,-0.84838 -0.21497,-1.19399 -1.5875,-2.5522 -0.87313,-0.86401 -1.5875,-1.64404 -1.5875,-1.7334 0,-0.0894 4.76996,-4.84415 10.59991,-10.56621 l 10.59991,-10.40374 1.37248,1.33334 c 0.75487,0.73334 1.63794,1.46893 1.96237,1.63464 0.79174,0.40441 1.8166,0.11119 2.45701,-0.70296 0.8844,-1.12433 0.67736,-1.80608 -1.11554,-3.6732 l -1.64053,-1.70844 8.32126,-8.34864 c 10.75388,-10.78927 12.69958,-12.5338 15.43545,-13.83958 2.57886,-1.23083 4.23606,-1.60254 7.12018,-1.59705 2.45191,0.005 4.51543,0.42261 6.65515,1.34793 1.40046,0.60561 1.49504,0.71063 2.23991,2.48694 1.43045,3.41121 1.70694,7.55781 0.69671,10.4485 -0.89074,2.54877 -3.5315,5.02876 -6.22773,5.84858 -0.51132,0.15547 -2.83467,0.34523 -5.163,0.42169 -4.78832,0.15725 -5.75705,0.46752 -6.82609,2.18632 -0.52553,0.84494 -0.59513,1.38711 -0.71454,5.56632 -0.14858,5.20043 -0.38508,5.97933 -2.12602,7.0021 -0.79844,0.46907 -1.51393,0.55559 -5.54689,0.67082 -4.16631,0.11904 -4.72299,0.19011 -5.55625,0.70933 -1.75032,1.09066 -1.96776,1.79066 -2.12205,6.8313 -0.15819,5.16795 -0.43004,6.06227 -2.19881,7.2335 -1.02551,0.67907 -1.2278,0.70868 -5.71333,0.83629 -4.25764,0.12112 -4.73235,0.18338 -5.6236,0.73758 -1.72406,1.07206 -2.06929,2.22912 -2.06929,6.93533 0,3.58128 -0.0658,4.20224 -0.55188,5.20629 -1.02647,2.1204 -1.56405,2.31437 -6.85646,2.47394 -5.31418,0.16023 -6.19019,0.4215 -7.3658,2.19688 -0.67906,1.02551 -0.70867,1.2278 -0.83628,5.71334 -0.15255,5.36237 -0.37451,6.02802 -2.36015,7.07805 -1.04973,0.55512 -1.51198,0.6154 -4.75907,0.62065 -4.08801,0.007 -5.31685,0.36089 -6.36699,1.83568 -0.92286,1.29603 -1.08762,2.49626 -0.65385,4.7631 0.2099,1.0969 0.38166,2.3277 0.38168,2.73511 1.6e-4,2.54064 -3.23015,4.24227 -5.42391,2.85715 z m 33.31989,-50.04841 c 2.83435,-1.06046 4.85704,-3.82677 5.11095,-6.98992 0.12401,-1.54494 0.0798,-1.73551 -0.54897,-2.36425 -1.36047,-1.36046 -3.61288,-0.49914 -3.62414,1.38587 -0.009,1.58729 -0.85883,3.11237 -2.08043,3.73558 -0.58722,0.29958 -1.47308,0.54469 -1.96858,0.54469 -1.36052,0 -2.29518,0.86197 -2.29518,2.11667 0,2.04321 2.33293,2.72128 5.40635,1.57136 z m -44.56468,45.15999 c 0,-0.0549 0.20836,-0.2633 0.46302,-0.46302 0.41964,-0.32911 0.429,-0.31975 0.0999,0.0999 -0.34564,0.44073 -0.56291,0.58088 -0.56291,0.36312 z m 5.02708,-28.34281 c 5.60113,-5.60255 10.24341,-10.18646 10.31617,-10.18646 0.0728,0 -4.45045,4.58391 -10.05159,10.18646 -5.60113,5.60255 -10.24341,10.18646 -10.31617,10.18646 -0.0728,0 4.45046,-4.58391 10.05159,-10.18646 z m 34.13125,-33.86666 c 5.60113,-5.60256 10.24341,-10.18646 10.31617,-10.18646 0.0728,0 -4.45045,4.5839 -10.05159,10.18646 -5.60113,5.60255 -10.24341,10.18645 -10.31617,10.18645 -0.0728,0 4.45046,-4.5839 10.05159,-10.18645 z m 27.38437,-27.11979 c 1.7417,-1.74625 3.22626,-3.175 3.29902,-3.175 0.0728,0 -1.29273,1.42875 -3.03443,3.175 -1.74171,1.74625 -3.22626,3.175 -3.29902,3.175 -0.0728,0 1.29273,-1.42875 3.03443,-3.175 z m 25.12297,-1.91823 -1.04588,-1.12448 1.12447,1.04588 c 0.61847,0.57524 1.12448,1.08125 1.12448,1.12448 0,0.20018 -0.23041,-1.3e-4 -1.20307,-1.04588 z m -14.45695,-4.61251 c 0.19099,-0.0764 0.4192,-0.067 0.50712,0.0209 0.0879,0.0879 -0.0684,0.15046 -0.34727,0.13897 -0.30822,-0.0127 -0.37092,-0.0754 -0.15985,-0.15985 z m 5.55625,0 c 0.19099,-0.0764 0.4192,-0.067 0.50712,0.0209 0.0879,0.0879 -0.0684,0.15046 -0.34727,0.13897 -0.30823,-0.0127 -0.37092,-0.0754 -0.15985,-0.15985 z m -3.32019,-0.27371 c 0.40218,-0.0608 0.99749,-0.0592 1.32291,0.004 0.32543,0.0628 -0.004,0.11256 -0.73124,0.11058 -0.7276,-0.002 -0.99385,-0.0534 -0.59167,-0.11419 z"
         id="path18086" />
      <path
         style="fill:#94caeb;stroke-width:0.264583"
         d="m 237.11301,293.15541 -0.64143,-0.7276 0.72761,0.64143 c 0.40018,0.35279 0.7276,0.68021 0.7276,0.7276 0,0.20751 -0.21426,0.0386 -0.81378,-0.64143 z m 30.22412,-39.57964 -2.99379,-3.00231 18.60787,-18.50318 c 54.34065,-54.03494 59.88324,-59.47644 61.6218,-60.49791 6.17574,-3.62847 14.05453,-2.8868 19.24663,1.81177 1.48215,1.34127 3.48891,3.81763 3.09369,3.81763 -0.0855,0 -0.6233,-0.23863 -1.19501,-0.53029 -2.38264,-1.21554 -6.99396,-1.68335 -10.10508,-1.02516 -1.72678,0.36532 -4.2573,1.48705 -5.94959,2.63735 -0.70033,0.47603 -5.7977,5.35243 -11.32749,10.83644 -10.03574,9.95265 -10.05596,9.97071 -11.0312,9.84704 -0.79226,-0.10047 -1.105,0.004 -1.65365,0.55271 -1.0849,1.0849 -0.89505,1.83541 0.96945,3.83242 l 1.64607,1.76303 -1.4972,-1.4298 -1.49719,-1.4298 -10.62586,10.42564 c -10.15774,9.96634 -10.66517,10.42184 -11.51817,10.33968 -1.24655,-0.12007 -2.23079,0.87614 -2.23079,2.25792 0,0.97275 -0.35863,1.36186 -11.04635,11.98539 -6.0755,6.039 -12.95301,12.8551 -15.28335,15.14687 l -4.237,4.16687 z m 35.14799,-25.70629 c -0.64268,-0.65485 -1.10898,-1.19063 -1.03622,-1.19063 0.0728,0 0.65812,0.53578 1.3008,1.19063 0.64268,0.65484 1.10898,1.19062 1.03622,1.19062 -0.0728,0 -0.65812,-0.53578 -1.3008,-1.19062 z m 17.59479,-9.65729 c 0.26339,-0.29104 0.53842,-0.52917 0.61118,-0.52917 0.0728,0 -0.0832,0.23813 -0.3466,0.52917 -0.26339,0.29104 -0.53842,0.52916 -0.61118,0.52916 -0.0728,0 0.0832,-0.23812 0.3466,-0.52916 z m 1.68604,-7.60677 c -0.32911,-0.41965 -0.31975,-0.42901 0.0999,-0.0999 0.25466,0.19972 0.46302,0.40808 0.46302,0.46302 0,0.21776 -0.21727,0.0776 -0.56292,-0.36312 z m 7.39248,-5.27397 c 0.19099,-0.0764 0.4192,-0.067 0.50711,0.0209 0.0879,0.0879 -0.0684,0.15046 -0.34726,0.13897 -0.30823,-0.0127 -0.37092,-0.0754 -0.15985,-0.15985 z"
         id="path18084" />
      <path
         style="fill:#687e96;stroke-width:0.264583"
         d="m 241.47681,295.73919 -1.60936,-0.52526 -0.44117,-1.82779 c -0.24263,-1.00529 -0.44116,-2.35129 -0.44116,-2.99112 0,-1.58122 0.6776,-4.06593 1.50202,-5.50784 0.95866,-1.67669 20.54316,-21.29368 21.931,-21.96738 1.35928,-0.65985 3.35135,-0.667 4.74511,-0.017 0.58208,0.27144 1.76631,1.21863 2.63162,2.10486 1.52501,1.56188 1.5897,1.5973 2.10814,1.15429 0.29417,-0.25136 -0.15873,0.31688 -1.00643,1.26277 -2.74314,3.06084 -6.593,8.42436 -11.96462,16.66875 -2.89182,4.43838 -5.7715,8.57159 -6.39928,9.18489 -0.62778,0.61331 -1.92639,1.50155 -2.8858,1.97387 -1.51642,0.74653 -2.05908,0.86878 -4.15255,0.9355 -1.84455,0.0588 -2.78483,-0.0462 -4.01752,-0.44851 z m -7.49788,-9.41885 c 0.0127,-0.30822 0.0754,-0.37091 0.15985,-0.15985 0.0764,0.191 0.067,0.4192 -0.0209,0.50712 -0.0879,0.0879 -0.15045,-0.0684 -0.13896,-0.34727 z m 0.0405,-1.69774 c 0,-0.50932 0.0545,-0.71768 0.121,-0.46302 0.0666,0.25466 0.0666,0.67138 0,0.92604 -0.0666,0.25466 -0.121,0.0463 -0.121,-0.46302 z m 16.20965,-20.04228 14.02208,-14.08916 5.81956,5.81956 5.81956,5.81956 -1.31694,1.25814 -1.31694,1.25814 1.18004,-1.26119 1.18004,-1.26119 -5.6802,-5.68481 -5.6802,-5.68482 -14.02454,13.95747 -14.02453,13.95746 z m 54.85227,-35.17179 c 0.191,-0.0764 0.4192,-0.067 0.50712,0.0209 0.0879,0.0879 -0.0684,0.15045 -0.34726,0.13896 -0.30823,-0.0127 -0.37092,-0.0754 -0.15986,-0.15985 z m -3.91914,-5.47541 c 0,-0.0549 0.20836,-0.2633 0.46302,-0.46302 0.41965,-0.3291 0.42901,-0.31975 0.0999,0.0999 -0.34564,0.44073 -0.56292,0.58089 -0.56292,0.36312 z m 1.3941,-0.8772 c 0.25743,-0.0671 0.61462,-0.0627 0.79375,0.01 0.17913,0.0725 -0.0315,0.12737 -0.46806,0.12197 -0.43656,-0.005 -0.58312,-0.0647 -0.32569,-0.13177 z m 11.50434,-2.64921 c 0.32742,-0.0631 0.8632,-0.0631 1.19063,0 0.32742,0.0631 0.0595,0.11467 -0.59532,0.11467 -0.65484,0 -0.92273,-0.0516 -0.59531,-0.11467 z m -1.5551,-0.54088 c -0.32911,-0.41964 -0.31975,-0.429 0.0999,-0.0999 0.44073,0.34564 0.58089,0.56291 0.36313,0.56291 -0.0549,0 -0.2633,-0.20836 -0.46302,-0.46302 z m -0.23084,-2.54729 c 0,-0.0549 0.20836,-0.2633 0.46302,-0.46302 0.41965,-0.32911 0.42901,-0.31975 0.0999,0.0999 -0.34564,0.44073 -0.56292,0.58088 -0.56292,0.36312 z m 1.3941,-0.87721 c 0.25743,-0.0671 0.61462,-0.0627 0.79375,0.01 0.17913,0.0725 -0.0315,0.12736 -0.46806,0.12197 -0.43656,-0.005 -0.58312,-0.0647 -0.32569,-0.13177 z m 8.72679,-3.91768 c 0.003,-0.58209 0.0571,-0.78906 0.12041,-0.45994 0.0633,0.32912 0.0609,0.80537 -0.005,1.05833 -0.0662,0.25297 -0.118,-0.0163 -0.11506,-0.59839 z m -3.77089,-1.55511 c 0,-0.0549 0.20836,-0.2633 0.46302,-0.46302 0.41965,-0.32911 0.42901,-0.31975 0.0999,0.0999 -0.34564,0.44073 -0.56292,0.58088 -0.56292,0.36312 z m 10.83888,-10.41729 -1.44617,-1.52135 1.52135,1.44617 c 1.41339,1.34353 1.64256,1.59653 1.44617,1.59653 -0.0414,0 -0.72596,-0.6846 -1.52135,-1.52135 z m -4.22429,-0.69521 c 0,-0.0549 0.20835,-0.2633 0.46302,-0.46302 0.41964,-0.32911 0.429,-0.31975 0.0999,0.0999 -0.34564,0.44073 -0.56291,0.58088 -0.56291,0.36312 z"
         id="path18082" />
      <path
         style="fill:#4e6477;stroke-width:0.264583"
         d="m 238.24508,293.90054 c -4.19342,-3.31471 -5.34179,-9.51831 -2.61083,-14.10394 0.36919,-0.61992 6.96013,-7.40798 14.64653,-15.08458 l 13.97529,-13.95747 5.66419,5.6688 5.6642,5.6688 -2.0731,2.28348 -2.0731,2.28348 -1.74063,-1.72255 c -0.95735,-0.9474 -2.18329,-1.90624 -2.72432,-2.13075 -1.35331,-0.56159 -3.26187,-0.51383 -4.55517,0.11399 -1.38784,0.6737 -20.97234,20.29069 -21.931,21.96738 -1.42304,2.48888 -1.82469,5.52916 -1.0987,8.31644 0.22183,0.85165 0.35669,1.59508 0.2997,1.65207 -0.057,0.057 -0.70637,-0.37283 -1.44306,-0.95515 z m 64.33531,-66.26414 c -1.84678,-1.89275 -2.04568,-2.54148 -1.1344,-3.69999 0.41035,-0.52167 0.78727,-0.69714 1.49754,-0.69714 0.80295,0 1.184,0.23482 2.47342,1.52425 1.79942,1.79942 2.13383,2.70465 1.37583,3.7243 -0.37543,0.50503 -0.80782,0.72846 -1.5267,0.7889 -0.92834,0.078 -1.12808,-0.0439 -2.68569,-1.64032 z m 9.9781,-8.00469 c -1.13204,-1.43915 -0.29406,-2.83219 1.87694,-3.12018 2.47115,-0.32782 3.63803,-1.45276 3.95881,-3.81655 0.23389,-1.72354 0.89385,-2.50849 2.10908,-2.50849 2.52604,0 2.44869,4.6276 -0.12837,7.67961 -1.16034,1.3742 -3.6399,2.46275 -5.60976,2.46275 -1.47638,0 -1.7185,-0.0765 -2.2067,-0.69714 z m 14.32749,-16.06864 c -1.44422,-1.40231 -1.73489,-1.83045 -1.73489,-2.55542 0,-0.9824 1.05855,-2.11005 1.98076,-2.11005 0.30705,0 1.32826,0.76088 2.36649,1.7632 1.52545,1.4727 1.82636,1.90546 1.82636,2.62663 0,0.61764 -0.19845,1.01954 -0.69714,1.4118 -1.16746,0.91833 -1.83418,0.71587 -3.74158,-1.13616 z"
         id="path18080" />
    </g>
  </g>
</svg>
