<?xml version="1.0" encoding="UTF-8" standalone="no"?>
<!-- Created with Inkscape (http://www.inkscape.org/) -->

<svg
   width="163.52197mm"
   height="135.4901mm"
   viewBox="0 0 163.52197 135.4901"
   version="1.1"
   id="svg4904"
   inkscape:version="1.1.2 (b8e25be833, 2022-02-05)"
   sodipodi:docname="landing_hobby.svg"
   xmlns:inkscape="http://www.inkscape.org/namespaces/inkscape"
   xmlns:sodipodi="http://sodipodi.sourceforge.net/DTD/sodipodi-0.dtd"
   xmlns="http://www.w3.org/2000/svg"
   xmlns:svg="http://www.w3.org/2000/svg">
  <sodipodi:namedview
     id="namedview4906"
     pagecolor="#ffffff"
     bordercolor="#666666"
     borderopacity="1.0"
     inkscape:pageshadow="2"
     inkscape:pageopacity="0.0"
     inkscape:pagecheckerboard="0"
     inkscape:document-units="mm"
     showgrid="false"
     fit-margin-top="0"
     fit-margin-left="0"
     fit-margin-right="0"
     fit-margin-bottom="0"
     inkscape:zoom="0.51843089"
     inkscape:cx="207.35647"
     inkscape:cy="312.48138"
     inkscape:window-width="1920"
     inkscape:window-height="1009"
     inkscape:window-x="-8"
     inkscape:window-y="-8"
     inkscape:window-maximized="1"
     inkscape:current-layer="g17443" />
  <defs
     id="defs4901" />
  <g
     inkscape:label="Layer 1"
     inkscape:groupmode="layer"
     id="layer1"
     transform="translate(1.2363,-104.7843)">
    <g
       id="g16763"
       transform="translate(216.08362,24.233135)">
      <rect
         style="fill:#f3f5e6;fill-opacity:1;stroke-width:0.173109"
         id="rect16899"
         width="73.143562"
         height="38.020382"
         x="-190.8849"
         y="142.32289" />
      <path
         style="fill:#7ee0fd;stroke-width:0.264583"
         d="m -210.35456,206.61172 c 0.191,-0.0764 0.4192,-0.067 0.50712,0.0209 0.0879,0.0879 -0.0683,0.15045 -0.34726,0.13896 -0.30823,-0.0127 -0.37092,-0.0754 -0.15986,-0.15985 z m 18.70274,-0.0486 c -4.45558,-0.19011 -5.2579,-0.45454 -7.06313,-2.3279 -1.71859,-1.78344 -2.05256,-2.90266 -2.05919,-6.90091 l -0.006,-3.50506 51.26302,-0.0668 51.263019,-0.0668 0.06733,-28.47602 0.06733,-28.47601 0.854382,-0.17088 c 2.79491,-0.55898 4.526939,-3.43182 3.78755,-6.28224 -0.385099,-1.48459 -1.159899,-2.43338 -2.583236,-3.1633 -0.955063,-0.48979 -2.386314,-0.50342 -52.850525,-0.50342 h -51.86887 v -2.99076 c 0,-2.68568 0.0697,-3.1307 0.68366,-4.36268 0.37601,-0.75455 1.21891,-1.84307 1.87311,-2.41892 2.31003,-2.03337 -2.30506,-1.88257 55.26476,-1.8058 l 51.583678,0.0688 1.08915,0.58267 c 1.773036,0.94852 2.668235,1.85529 3.525705,3.57124 l 0.809103,1.61915 v 39.7304 c 0,44.58135 0.160767,41.08703 -2.000937,43.49137 -0.716312,0.79671 -1.68533,1.51516 -2.538802,1.88231 l -1.380312,0.59379 -47.906125,0.0736 c -26.34836,0.0405 -49.69205,-0.003 -51.87486,-0.0958 z m -23.44938,-2.08573 c -0.3291,-0.41965 -0.31975,-0.429 0.0999,-0.0999 0.25466,0.19972 0.46302,0.40808 0.46302,0.46302 0,0.21777 -0.21727,0.0776 -0.56292,-0.36312 z m -2.21872,-43.72239 c 0,-21.17328 0.0313,-29.83508 0.0696,-19.24844 0.0383,10.58664 0.0383,27.91023 0,38.49687 -0.0383,10.58664 -0.0696,1.92485 -0.0696,-19.24843 z m 58.57497,4.56406 c -0.32911,-0.41965 -0.31975,-0.42901 0.0999,-0.0999 0.44073,0.34565 0.58088,0.56292 0.36312,0.56292 -0.0549,0 -0.2633,-0.20836 -0.46302,-0.46302 z m 13.79208,0.36312 c 0,-0.0549 0.20836,-0.2633 0.46302,-0.46302 0.41965,-0.32911 0.42901,-0.31975 0.0999,0.0999 -0.34564,0.44073 -0.56292,0.58089 -0.56292,0.36312 z m -64.70117,-62.47406 c 6e-5,-6.548433 0.0345,-9.189444 0.0765,-5.86891 0.042,3.32054 0.042,8.67835 -1.1e-4,11.90625 -0.0421,3.2279 -0.0764,0.5111 -0.0764,-6.03734 z m 25.04786,-4.001266 c -4.51227,-2.248555 -3.65192,-9.06964 1.27729,-10.126766 4.69929,-1.007818 8.24237,3.892878 5.8412,8.079412 -1.46146,2.54813 -4.41114,3.39649 -7.11849,2.047354 z m 30.77106,0.193172 c -2.09729,-0.952566 -3.56161,-3.620741 -3.16801,-5.772483 1.13287,-6.193097 9.73849,-6.193097 10.87136,0 0.56278,3.076568 -2.20217,6.261668 -5.43568,6.261668 -0.65484,0 -1.6753,-0.220133 -2.26767,-0.489185 z m 30.71038,0.0037 c -2.12165,-0.97326 -3.30729,-2.73951 -3.30729,-4.926849 0,-5.819097 7.70475,-7.637391 10.35442,-2.443606 0.77435,1.517837 0.61298,3.953863 -0.35921,5.422952 -1.38315,2.090079 -4.43795,2.979627 -6.68792,1.947503 z m 29.257343,-9.446814 c 0.0127,-0.308224 0.07539,-0.370919 0.15985,-0.159852 0.07643,0.190996 0.06703,0.419199 -0.02087,0.507118 -0.08792,0.08792 -0.150453,-0.06835 -0.138965,-0.347266 z m -3.210132,-6.129513 -0.911799,-0.992188 0.992188,0.911799 c 0.545703,0.501489 0.992187,0.947973 0.992187,0.992187 0,0.202041 -0.223895,0.01171 -1.072576,-0.911798 z m -6.666481,-3.151791 c 0.1819,-0.0734 0.47955,-0.0734 0.66145,0 0.1819,0.0734 0.0331,0.133452 -0.33073,0.133452 -0.3638,0 -0.51263,-0.06005 -0.33072,-0.133452 z"
         id="path16775" />
      <path
         style="fill:#54c1e2;stroke-width:0.264583"
         d="m -209.72137,208.84298 c -0.0524,-2.23006 -0.077,-2.3151 -0.66874,-2.3151 -1.39267,0 -3.23081,-0.90029 -4.5519,-2.22946 -2.43254,-2.44741 -2.24231,1.2464 -2.24063,-43.50769 9.4e-4,-24.91909 0.0967,-39.66899 0.26128,-40.26156 0.76521,-2.75443 2.96312,-4.68263 6.18202,-5.42344 2.63942,-0.60744 16.6566,-0.29729 14.80768,0.32764 -1.52181,0.51437 -3.34681,2.19576 -4.16463,3.83691 -0.61113,1.22638 -0.68368,1.68219 -0.68384,4.29653 l -1.9e-4,2.92462 -2.71179,0.007 c -2.95094,0.008 -3.71288,0.25437 -5.01286,1.62296 -1.84999,1.94762 -1.9745,4.71928 -0.30132,6.70774 0.76072,0.90406 2.42307,1.84869 3.2533,1.84869 h 0.53971 l -3e-5,28.50886 -2e-5,28.50885 53.24742,-0.006 53.247416,-0.006 -51.130726,0.0726 -51.13073,0.0726 0.003,3.50506 c 0.002,3.13622 0.0686,3.64427 0.62983,4.82798 0.76282,1.60884 2.26748,3.09431 3.8655,3.81617 l 1.19062,0.53783 -7.19959,0.006 -7.1996,0.006 -0.0882,2.31511 -0.0882,2.3151 -0.0544,-2.3151 z m 36.0243,-47.02968 c 0,-1.38245 0.0446,-1.948 0.0991,-1.25677 0.0545,0.69122 0.0545,1.82232 0,2.51354 -0.0545,0.69122 -0.0991,0.12568 -0.0991,-1.25677 z m 44.18542,0 c 0,-1.38245 0.0446,-1.948 0.0991,-1.25677 0.0545,0.69122 0.0545,1.82232 0,2.51354 -0.0545,0.69122 -0.0991,0.12568 -0.0991,-1.25677 z m -32.63913,-48.9177 c 0,-3.81158 -1.84529,-6.12587 -5.31518,-6.66608 -2.04903,-0.31901 -29.68675,-0.19447 -30.61861,0.13797 l -0.61191,0.21829 0.0828,-8.700299 0.0827,-8.700303 0.9492,-1.984375 c 1.53349,-3.205874 4.09819,-5.339656 7.51747,-6.254392 2.03826,-0.545281 84.93842,-0.517677 87.51897,0.02914 4.313315,0.913992 7.720174,4.292893 8.624155,8.553377 0.195339,0.920631 0.297492,5.531466 0.297492,13.427602 v 12.02552 h -3.704166 -3.704171 v -2.06922 c 0,-3.77096 -1.81628,-6.11686 -5.15937,-6.66382 -2.07775,-0.33993 -27.55559,-0.33993 -29.63333,0 -3.34309,0.54696 -5.15938,2.89286 -5.15938,6.66382 v 2.06922 h -10.58333 -10.58333 z m -17.50304,-13.685609 c 3.83827,-1.912689 3.94103,-7.598738 0.17283,-9.56276 -2.84686,-1.483807 -6.12948,-0.450011 -7.5763,2.386007 -0.43072,0.844285 -0.52686,1.432545 -0.44477,2.721689 0.13881,2.179996 1.0031,3.508687 2.89588,4.451897 1.78966,0.891826 3.16729,0.892706 4.95236,0.0032 z m 30.35404,0.190005 c 3.98524,-1.810056 4.26101,-7.50167 0.47108,-9.722717 -3.30388,-1.9362 -7.46553,0.07489 -8.17443,3.950234 -0.56278,3.076568 2.20217,6.261668 5.43568,6.261668 0.65484,0 1.6753,-0.220133 2.26767,-0.489185 z m 30.77106,-0.193172 c 1.89278,-0.94321 2.75707,-2.271901 2.89588,-4.451897 0.27918,-4.3845 -4.08126,-7.161163 -8.02107,-5.107696 -3.07683,1.603672 -3.75232,6.044339 -1.29381,8.505502 1.80524,1.80719 4.13876,2.190387 6.419,1.054091 z m -88.60123,-14.470061 c 0,-0.04554 0.38696,-0.432488 0.8599,-0.859896 l 0.85989,-0.777105 -0.7771,0.859895 c -0.72437,0.801544 -0.94269,0.981512 -0.94269,0.777106 z"
         id="path16773" />
      <path
         style="fill:#f87276;stroke-width:0.264583"
         d="m -207.16407,136.14817 c -1.62846,-0.86226 -2.87334,-2.81076 -2.87334,-4.49737 0,-0.967 0.62043,-2.47014 1.37367,-3.32804 1.65875,-1.8892 -3.4803,-1.73526 57.00955,-1.70781 52.855396,0.024 54.674989,0.041 55.60933,0.52019 3.457088,1.77305 3.740293,6.54947 0.514893,8.68398 l -1.097757,0.72647 -54.788086,0.0555 c -53.58906,0.0543 -54.80911,0.0444 -55.74826,-0.45291 z"
         id="path16771" />
      <path
         style="fill:#47b4d6;stroke-width:0.264583"
         d="m -204.15338,206.59433 c 3.01955,-0.0425 7.96065,-0.0425 10.9802,0 3.01956,0.0424 0.54901,0.0772 -5.4901,0.0772 -6.03912,0 -8.50966,-0.0347 -5.4901,-0.0772 z m 94.19166,0 c 3.01955,-0.0425 7.96065,-0.0425 10.980205,0 3.019557,0.0424 0.54901,0.0772 -5.490105,0.0772 -6.03911,0 -8.50966,-0.0347 -5.4901,-0.0772 z m -94.05937,-12.96018 c 0.61846,-0.0557 1.63049,-0.0557 2.24895,0 0.61847,0.0557 0.11245,0.10128 -1.12447,0.10128 -1.23693,0 -1.74295,-0.0456 -1.12448,-0.10128 z m 105.762504,-28.51356 c 1.3e-5,-15.71625 0.03186,-22.10673 0.07078,-14.20106 0.03892,7.90566 0.03891,20.76441 -2.1e-5,28.57499 -0.03893,7.81059 -0.07077,1.34232 -0.07076,-14.37393 z m -53.771884,3.12491 c 0.25466,-0.0666 0.67138,-0.0666 0.92604,0 0.25466,0.0666 0.0463,0.121 -0.46302,0.121 -0.50932,0 -0.71768,-0.0545 -0.46302,-0.121 z m -57.47759,-65.63272 c 0.002,-9.262647 0.0862,-12.415291 0.35705,-13.427602 1.14514,-4.280499 4.60006,-7.518864 8.88955,-8.33235 0.7732,-0.146634 3.62199,-0.255962 6.33065,-0.24295 4.4293,0.02128 4.80502,0.05705 3.7342,0.355483 -3.31855,0.924872 -5.87904,3.086738 -7.38518,6.235442 l -0.9492,1.984375 v 8.800317 c 0,7.962275 -0.0418,8.813595 -0.43862,8.939775 -0.77487,0.24636 -2.55492,2.41274 -2.84711,3.46502 -0.15576,0.56094 -0.28386,1.76403 -0.28467,2.67353 l -0.001,1.65365 h -3.70417 -3.70417 l 0.003,-12.10469 z m 47.13447,8.66511 c 0,-0.36381 0.0601,-0.51264 0.13345,-0.33073 0.0734,0.1819 0.0734,0.47955 0,0.66145 -0.0734,0.18191 -0.13345,0.0331 -0.13345,-0.33072 z m 22.97697,-3.3073 c 0.34178,-0.3638 0.68094,-0.66145 0.7537,-0.66145 0.0728,0 -0.14734,0.29765 -0.48911,0.66145 -0.34178,0.36381 -0.68094,0.66146 -0.7537,0.66146 -0.0728,0 0.14734,-0.29765 0.48911,-0.66146 z m 36.49247,-0.0661 -0.64143,-0.72761 0.72761,0.64144 c 0.68005,0.59951 0.84894,0.81377 0.64143,0.81377 -0.0474,0 -0.37482,-0.32742 -0.72761,-0.7276 z m -61.25615,-0.13229 -0.50402,-0.59532 0.59531,0.50403 c 0.55944,0.47366 0.71576,0.6866 0.50403,0.6866 -0.0502,0 -0.3181,-0.26789 -0.59532,-0.59531 z m -25.17642,-1.71961 c 3.89268,-0.0412 10.26253,-0.0412 14.15521,0 3.89268,0.0412 0.70776,0.075 -7.07761,0.075 -7.78536,0 -10.97028,-0.0337 -7.0776,-0.075 z m 61.40195,-3e-5 c 3.90292,-0.0413 10.21323,-0.0412 14.02291,7e-5 3.80969,0.0413 0.61639,0.0751 -7.09622,0.075 -7.7126,-5e-5 -10.82961,-0.0338 -6.92669,-0.0751 z"
         id="path16769" />
      <path
         style="fill:#394749;stroke-width:0.264583"
         d="m -205.32747,215.87214 c 0.19099,-0.0764 0.4192,-0.067 0.50711,0.0209 0.0879,0.0879 -0.0684,0.15045 -0.34726,0.13896 -0.30823,-0.0127 -0.37092,-0.0754 -0.15985,-0.15985 z m 7.19524,-0.24074 c -2.37002,-1.02777 -3.17688,-2.59802 -3.17688,-6.18256 v -2.65638 h 6.74687 6.74688 v 1.83906 c 0,2.96699 -0.41906,4.38762 -1.68061,5.69742 -0.68056,0.70659 -1.49959,1.24995 -2.15585,1.43024 -1.55363,0.42682 -5.37529,0.35146 -6.48041,-0.12778 z m 94.3198,-0.0569 c -1.34149,-0.62843 -2.66555,-2.12428 -3.02453,-3.41695 -0.15265,-0.54968 -0.27821,-1.98169 -0.27902,-3.18223 l -0.001,-2.18282 h 6.74687 6.746877 v 2.60422 c 0,3.24826 -0.555313,4.51749 -2.504728,5.72484 -1.158251,0.71735 -1.514192,0.7957 -3.948209,0.8691 -2.18205,0.0658 -2.8707,-0.0109 -3.73579,-0.41616 z m -104.39588,-1.30752 -0.64143,-0.7276 0.72761,0.64143 c 0.68005,0.59952 0.84893,0.81378 0.64143,0.81378 -0.0474,0 -0.37482,-0.32743 -0.72761,-0.72761 z m 92.98416,-5.09323 c 0,-1.38244 0.0446,-1.94799 0.0991,-1.25677 0.0545,0.69123 0.0545,1.82232 0,2.51354 -0.0545,0.69123 -0.0991,0.12568 -0.0991,-1.25677 z m -89.72419,-43.98697 -0.0649,-28.50886 h 53.31354 53.313537 v 28.44271 28.44271 h -51.196877 -51.19687 v -28.31042 -28.31041 h -1.98318 -1.98318 l -0.0686,28.37656 -0.0685,28.37656 z m 55.11823,2.95355 c 4.47954,-0.82058 7.67766,-4.33263 5.50302,-6.0432 -0.9524,-0.74916 -1.76973,-0.68823 -2.79938,0.20869 -1.52121,1.32509 -2.57754,1.73865 -4.44098,1.73865 -1.86344,0 -2.91977,-0.41356 -4.44098,-1.73865 -1.02965,-0.89692 -1.84698,-0.95785 -2.79938,-0.20869 -2.10037,1.65214 0.79452,5.02463 5.12369,5.969 1.88664,0.41156 2.00045,0.41375 3.85401,0.0742 z m -24.44782,-2.89038 0.79672,-0.79673 -0.0895,-2.93133 c -0.0826,-2.70664 -0.13736,-2.97006 -0.7141,-3.43661 -0.92465,-0.74797 -2.25747,-0.66064 -2.92805,0.19187 -0.47804,0.60773 -0.54729,1.05734 -0.53995,3.50573 0.009,2.88358 0.14893,3.35164 1.18221,3.94422 0.85747,0.49177 1.44626,0.36922 2.29264,-0.47715 z m 47.66485,0.48892 c 1.07792,-0.5741 1.22222,-1.03786 1.23096,-3.95599 0.007,-2.44839 -0.0619,-2.898 -0.53995,-3.50573 -0.67058,-0.85251 -2.0034,-0.93984 -2.92805,-0.19187 -0.57674,0.46655 -0.63148,0.72997 -0.7141,3.43661 l -0.0895,2.93133 0.79672,0.79673 c 0.86176,0.86175 1.34583,0.96723 2.24389,0.48892 z m -75.43721,-52.80562 0.0526,-2.0522 0.0913,1.91823 0.0913,1.91823 h 3.95716 3.95716 v -1.68653 c 0,-3.01246 1.24294,-5.19688 3.57187,-6.27747 0.97646,-0.45306 1.90545,-0.4915 12.00785,-0.49686 11.80492,-0.006 12.29064,0.0419 13.91411,1.38012 1.4822,1.22176 2.03269,2.56157 2.0818,5.06686 l 0.0421,2.14617 -19.9099,0.0678 -19.90989,0.0678 z m 61.11799,0.13061 0.0518,-1.91823 0.0925,1.78594 0.0926,1.78594 h 3.92267 3.92267 l 0.12245,-2.05052 c 0.13476,-2.25652 0.71181,-3.68488 1.97183,-4.88076 1.60077,-1.5193 1.74341,-1.53539 13.61107,-1.53539 11.74044,0 12.23512,0.0495 13.85647,1.38593 1.45666,1.2007 2.06335,2.62259 2.20273,5.16251 l 0.11979,2.18281 h -20.00922 -20.00922 z m -56.45767,-6.72918 c 0.19099,-0.0764 0.4192,-0.067 0.50711,0.0209 0.0879,0.0879 -0.0684,0.15046 -0.34726,0.13897 -0.30823,-0.0127 -0.37092,-0.0754 -0.15985,-0.15985 z m 61.11874,0 c 0.191,-0.0764 0.4192,-0.067 0.50712,0.0209 0.0879,0.0879 -0.0684,0.15046 -0.34726,0.13897 -0.30823,-0.0127 -0.37092,-0.0754 -0.15986,-0.15985 z"
         id="path16767" />
      <path
         style="fill:#323d3f;stroke-width:0.264583"
         d="m -204.88099,215.92284 c -0.14552,-0.0485 -0.58982,-0.15992 -0.98733,-0.24752 -1.01953,-0.22465 -2.58089,-1.67597 -3.14943,-2.92746 -0.35295,-0.77691 -0.48338,-1.71524 -0.48764,-3.508 l -0.006,-2.4474 h 4.10104 4.10105 v 2.65638 c 0,3.58454 0.80686,5.15479 3.17688,6.18256 0.88179,0.3824 0.75435,0.40028 -2.78001,0.39024 -2.03729,-0.006 -3.82323,-0.0502 -3.96875,-0.0988 z m 93.41321,-0.26475 c -2.73932,-0.97584 -3.57682,-2.41428 -3.58282,-6.15365 l -0.004,-2.71198 h 3.96875 3.96875 l 0.002,2.18282 c 7.9e-4,1.20054 0.12636,2.63255 0.27901,3.18223 0.36118,1.30061 1.69064,2.79595 3.02453,3.40193 l 1.0606,0.48182 -3.83645,-0.006 c -2.60911,-0.004 -4.17015,-0.12468 -4.8795,-0.37737 z m -93.28092,-50.40521 v -28.31041 h 1.98438 1.98437 v 28.31041 28.31042 h -1.98437 -1.98438 z m 2.95024,-52.87049 c 0.11113,-2.80633 0.786,-4.07408 2.79853,-5.25707 1.22184,-0.71822 1.39963,-0.74469 5.49602,-0.81847 l 4.23334,-0.0762 -1.05834,0.50695 c -2.34358,1.12261 -3.57187,3.28677 -3.57187,6.29338 v 1.68653 h -3.99508 -3.99507 z m 61.11875,0 c 0.11113,-2.80633 0.786,-4.07408 2.79852,-5.25707 1.22309,-0.71894 1.39549,-0.74447 5.49603,-0.81378 4.03865,-0.0683 4.19075,-0.0524 3.30729,0.34533 -2.27122,1.02243 -3.46971,2.99602 -3.6497,6.01008 l -0.12245,2.05052 h -3.96108 -3.96109 z"
         id="path16765" />
    </g>
    <g
       id="g5076"
       transform="matrix(0.42129659,0,0,0.42129659,104.22704,-19.248854)">
      <g
         id="g17443">
        <g
           id="g17530"
           transform="rotate(165,127.11307,413.70792)">
          <path
             style="fill:#f2f4e5;stroke-width:0.264583"
             d="m 155.84319,432.59755 c -4.08341,-1.48093 -5.16743,-6.75226 -2.00567,-9.7531 1.71954,-1.63201 -0.70887,-1.53539 38.58725,-1.53539 39.29613,0 36.86772,-0.0966 38.58725,1.53539 3.22504,3.06089 2.00097,8.54969 -2.18648,9.80428 -1.46833,0.43992 -71.76415,0.39062 -72.98235,-0.0512 z m 86.05867,-1.23432 c 0.26339,-0.29104 0.53842,-0.52917 0.61118,-0.52917 0.0728,0 -0.0832,0.23813 -0.3466,0.52917 -0.26339,0.29104 -0.53842,0.52917 -0.61118,0.52917 -0.0728,0 0.0832,-0.23813 0.3466,-0.52917 z m -0.0166,-8.53281 -0.77711,-0.8599 0.8599,0.77711 c 0.47294,0.42741 0.85989,0.81436 0.85989,0.85989 0,0.20441 -0.21831,0.0245 -0.94268,-0.7771 z m -3.81982,-14.08906 v -4.8948 l 5.4901,0.0554 c 3.01956,0.0305 4.32765,0.0943 2.90685,0.14191 l -2.58325,0.0865 0.73117,0.62892 c 0.72709,0.62542 0.73117,0.64769 0.73117,3.98813 v 3.3592 l -0.91605,0.76475 c -0.87964,0.73436 -1.02421,0.76475 -3.63802,0.76475 h -2.72197 z m 10.26914,4.71405 c 0.19099,-0.0764 0.4192,-0.067 0.50712,0.0209 0.0879,0.0879 -0.0683,0.15046 -0.34727,0.13897 -0.30822,-0.0127 -0.37092,-0.0754 -0.15985,-0.15985 z m 1.74426,-8.61666 -0.50403,-0.59531 0.59532,0.50403 c 0.32742,0.27721 0.59531,0.5451 0.59531,0.59531 0,0.21173 -0.21293,0.0554 -0.6866,-0.50403 z m -80.67278,-95.71301 c 0.71667,-0.72761 1.36256,-1.32292 1.43532,-1.32292 0.0728,0 -0.45407,0.59531 -1.17073,1.32292 -0.71667,0.7276 -1.36256,1.32291 -1.43532,1.32291 -0.0728,0 0.45407,-0.59531 1.17073,-1.32291 z"
             id="path5086" />
          <path
             style="fill:#d6d8cb;stroke-width:0.264583"
             d="m 229.00636,432.59755 c 4.94213,-1.79237 5.1528,-8.77671 0.32779,-10.86666 -0.87599,-0.37943 -0.66864,-0.40332 3.83646,-0.44194 2.61937,-0.0225 5.00062,-0.0203 5.29166,0.005 1.21193,0.1043 2.40457,0.6771 3.48675,1.67463 2.56082,2.36048 2.413,6.3446 -0.31896,8.5965 -1.48744,1.22608 -2.46176,1.38786 -8.22557,1.36581 -4.37561,-0.0168 -5.11576,-0.0728 -4.39813,-0.33306 z m -71.24814,-32.58744 c -2e-5,-11.78719 0.0325,-16.64787 0.0722,-10.80151 0.0397,5.84636 0.0397,15.49042 4e-5,21.43125 -0.0397,5.94083 -0.0722,1.15744 -0.0722,-10.62974 z m 86.65718,12.88804 0.92604,-0.7915 v -3.3592 c 0,-3.35266 -0.001,-3.36045 -0.74236,-3.99775 l -0.74236,-0.63855 h 2.74338 c 2.71561,0 2.75124,0.008 3.52048,0.81084 0.76155,0.7946 0.77711,0.86796 0.77711,3.66285 0,4.38943 -0.39709,4.81746 -4.63021,4.99095 l -2.77813,0.11386 z M 133.60656,350.53303 c 0.005,-0.43657 0.0647,-0.58313 0.13178,-0.3257 0.0671,0.25743 0.0627,0.61462 -0.01,0.79375 -0.0725,0.17913 -0.12736,-0.0315 -0.12197,-0.46805 z m 0,-2.11667 c 0.005,-0.43656 0.0647,-0.58313 0.13178,-0.32569 0.0671,0.25743 0.0627,0.61461 -0.01,0.79374 -0.0725,0.17914 -0.12736,-0.0315 -0.12197,-0.46805 z m 22.03403,-6.28385 -1.84498,-1.91823 1.91124,1.83805 1.91125,1.83806 0.0803,-4.21931 0.0804,-4.2193 0.0589,4.29948 c 0.0324,2.36471 -0.0336,4.29947 -0.14661,4.29947 -0.11304,0 -1.03577,-0.8632 -2.05052,-1.91822 z m -19.43977,-0.29834 c 0,-0.0549 0.20836,-0.2633 0.46302,-0.46302 0.41964,-0.32911 0.429,-0.31975 0.0999,0.0999 -0.34564,0.44073 -0.56291,0.58088 -0.56291,0.36312 z m 1.32291,-1.32291 c 0,-0.055 0.20836,-0.2633 0.46302,-0.46303 0.41965,-0.3291 0.42901,-0.31974 0.0999,0.0999 -0.34565,0.44073 -0.56292,0.58089 -0.56292,0.36313 z m 7.7427,-3.26497 c 0.40219,-0.0608 0.9975,-0.0592 1.32292,0.004 0.32542,0.0628 -0.004,0.11256 -0.73124,0.11057 -0.72761,-0.002 -0.99386,-0.0534 -0.59168,-0.11418 z m 92.55527,-2.61031 c 0.0127,-0.30823 0.0754,-0.37092 0.15985,-0.15985 0.0764,0.19099 0.067,0.41919 -0.0209,0.50711 -0.0879,0.0879 -0.15045,-0.0683 -0.13896,-0.34726 z m -79.90416,-1.5875 c 0.0127,-0.30823 0.0754,-0.37092 0.15985,-0.15985 0.0764,0.19099 0.067,0.41919 -0.0209,0.50711 -0.0879,0.0879 -0.15045,-0.0684 -0.13896,-0.34726 z m 8.97494,-21.11222 c 0,-0.0549 0.20836,-0.2633 0.46302,-0.46302 0.41965,-0.32911 0.42901,-0.31975 0.0999,0.0999 -0.34565,0.44073 -0.56292,0.58089 -0.56292,0.36313 z m 60.30497,-1.68604 -0.64143,-0.72761 0.72761,0.64143 c 0.40018,0.35279 0.7276,0.68021 0.7276,0.72761 0,0.2075 -0.21426,0.0386 -0.81378,-0.64143 z m -2.11666,-2.11667 -0.64143,-0.72761 0.7276,0.64144 c 0.40018,0.35279 0.7276,0.68021 0.7276,0.7276 0,0.20751 -0.21426,0.0386 -0.81377,-0.64143 z m -53.69039,-0.69521 c 0,-0.0549 0.20836,-0.2633 0.46302,-0.46302 0.41964,-0.32911 0.429,-0.31975 0.0999,0.0999 -0.34564,0.44072 -0.56291,0.58088 -0.56291,0.36312 z m 20.58789,-9.60584 c 0.19099,-0.0764 0.4192,-0.067 0.50712,0.0209 0.0879,0.0879 -0.0684,0.15046 -0.34727,0.13897 -0.30822,-0.0127 -0.37092,-0.0754 -0.15985,-0.15985 z"
             id="path5084" />
          <path
             style="fill:#4bc6b2;stroke-width:0.264583"
             d="m 157.89665,400.08427 v -21.2265 l -10.81584,-10.85508 c -5.94871,-5.97029 -11.10651,-11.33133 -11.46178,-11.91341 -3.84362,-6.29757 -1.57457,-14.26495 4.98595,-17.50733 1.68809,-0.8343 2.24095,-0.97039 4.40139,-1.08339 4.29071,-0.22444 6.47922,0.68379 10.10884,4.19512 1.34006,1.29638 2.50024,2.35705 2.5782,2.35705 0.0779,0 0.20349,-2.7682 0.27898,-6.15156 0.14907,-6.68087 0.34759,-8.01222 1.92374,-12.90133 3.2303,-10.02018 10.52853,-18.42936 20.19581,-23.27007 2.79722,-1.40066 7.70702,-3.04405 10.53756,-3.5271 1.94778,-0.3324 2.38737,-0.32431 4.23333,0.0779 7.88007,1.71684 14.44722,5.15751 19.87687,10.41392 5.72988,5.54706 9.43608,12.13973 11.47353,20.40932 l 0.58668,2.38125 0.0824,44.78072 0.0824,44.78073 h 5.41725 5.41725 l 0.0681,-42.99479 0.0681,-42.9948 -10e-4,43.06094 -0.001,43.06094 -40.01823,0.067 -40.01823,0.067 z m 43.83374,-37.89179 c 3.143,-1.4105 4.40859,-3.54285 2.99548,-5.04702 -0.87596,-0.93243 -1.76765,-0.83133 -3.38476,0.38375 -2.35985,1.77315 -4.85529,1.72191 -7.03573,-0.14446 -1.2169,-1.04162 -2.15678,-1.14553 -3.16784,-0.35023 -1.46153,1.14964 -0.63568,3.18798 1.89174,4.66914 2.70541,1.58548 5.86225,1.76283 8.70111,0.48882 z m -24.37484,-1.85785 c 0.60776,-0.60775 0.64943,-0.82923 0.64943,-3.4516 0,-2.62238 -0.0417,-2.84385 -0.64943,-3.45161 -1.04289,-1.0429 -2.53987,-0.84256 -3.19681,0.42782 -0.46692,0.90292 -0.53005,4.93408 -0.0923,5.89479 0.58837,1.29132 2.27984,1.5899 3.28914,0.5806 z m 43.92083,0 c 0.60776,-0.60775 0.64943,-0.82923 0.64943,-3.4516 0,-2.62238 -0.0417,-2.84385 -0.64943,-3.45161 -0.40937,-0.40938 -0.95173,-0.64944 -1.46723,-0.64944 -0.51551,0 -1.05786,0.24006 -1.46724,0.64944 -0.60633,0.60633 -0.64943,0.8322 -0.64943,3.4035 0,2.62288 0.0332,2.7873 0.69754,3.45161 0.89718,0.89718 2.0186,0.91587 2.88636,0.0481 z m 16.28074,-27.55073 c 0.0127,-0.30823 0.0754,-0.37092 0.15985,-0.15986 0.0764,0.191 0.067,0.4192 -0.0209,0.50712 -0.0879,0.0879 -0.15045,-0.0683 -0.13897,-0.34726 z m -9.05047,-20.94618 c -0.32911,-0.41965 -0.31975,-0.42901 0.0999,-0.0999 0.44073,0.34564 0.58088,0.56292 0.36312,0.56292 -0.0549,0 -0.2633,-0.20836 -0.46302,-0.46302 z m -2.38125,-2.64584 c -0.32911,-0.41964 -0.31975,-0.429 0.0999,-0.0999 0.44073,0.34564 0.58088,0.56291 0.36312,0.56291 -0.0549,0 -0.2633,-0.20836 -0.46302,-0.46302 z m -2.64584,-2.38125 c -0.3291,-0.41964 -0.31974,-0.429 0.0999,-0.0999 0.44073,0.34564 0.58089,0.56291 0.36313,0.56291 -0.0549,0 -0.2633,-0.20836 -0.46302,-0.46302 z m -18.53669,-8.71355 c 0.191,-0.0764 0.4192,-0.067 0.50712,0.0209 0.0879,0.0879 -0.0684,0.15045 -0.34726,0.13896 -0.30823,-0.0127 -0.37092,-0.0754 -0.15986,-0.15985 z m -1.86862,-0.25907 c 0.1819,-0.0734 0.47956,-0.0734 0.66146,0 0.1819,0.0734 0.0331,0.13345 -0.33073,0.13345 -0.3638,0 -0.51263,-0.06 -0.33073,-0.13345 z m -8.59392,-0.27271 c 0.25743,-0.0671 0.61462,-0.0627 0.79375,0.01 0.17913,0.0725 -0.0315,0.12737 -0.46806,0.12197 -0.43656,-0.005 -0.58312,-0.0647 -0.32569,-0.13177 z m 6.08542,0 c 0.25743,-0.0671 0.61462,-0.0627 0.79375,0.01 0.17913,0.0725 -0.0315,0.12737 -0.46806,0.12197 -0.43656,-0.005 -0.58313,-0.0647 -0.32569,-0.13177 z"
             id="path5082" />
          <path
             style="fill:#29ab91;stroke-width:0.264583"
             d="m 226.88232,376.26375 -0.0824,-44.78072 -0.58669,-2.38125 c -2.89272,-11.74103 -9.66197,-20.87217 -19.59695,-26.43463 -3.89827,-2.18258 -6.94574,-3.2925 -12.604,-4.59049 -1.9255,-0.44171 3.67762,-0.71303 7.24856,-0.351 5.60321,0.56806 9.13175,1.54197 13.97882,3.8583 11.07718,5.29358 18.69024,14.92194 21.84403,27.62648 0.5629,2.26759 0.56433,2.37109 0.64655,47.05331 l 0.0824,44.78073 h -5.42396 -5.42395 z m -30.15807,-13.33824 c 0.1819,-0.0734 0.47956,-0.0734 0.66146,0 0.1819,0.0734 0.0331,0.13345 -0.33073,0.13345 -0.3638,0 -0.51263,-0.0601 -0.33073,-0.13345 z m 1.85209,0 c 0.1819,-0.0734 0.47955,-0.0734 0.66145,0 0.18191,0.0734 0.0331,0.13345 -0.33072,0.13345 -0.36381,0 -0.51263,-0.0601 -0.33073,-0.13345 z m -21.62969,-2.30592 c 0,-0.0549 0.20836,-0.2633 0.46302,-0.46302 0.41964,-0.32911 0.429,-0.31975 0.0999,0.0999 -0.34564,0.44073 -0.56291,0.58089 -0.56291,0.36313 z m 43.92083,0 c 0,-0.0549 0.20836,-0.2633 0.46302,-0.46302 0.41965,-0.32911 0.42901,-0.31975 0.0999,0.0999 -0.34564,0.44073 -0.56291,0.58089 -0.56291,0.36313 z m -46.9992,-3.73656 c 8e-4,-1.45521 0.0451,-2.01677 0.0987,-1.24791 0.0536,0.76887 0.053,1.95949 -0.001,2.64584 -0.0543,0.68634 -0.0982,0.0573 -0.0975,-1.39793 z m 20.38344,0.59531 -0.50403,-0.59531 0.59531,0.50402 c 0.55945,0.47367 0.71576,0.6866 0.50403,0.6866 -0.0502,0 -0.3181,-0.26789 -0.59531,-0.59531 z m 23.70534,-3.73792 c 0,-0.0549 0.20836,-0.2633 0.46303,-0.46302 0.41964,-0.32911 0.429,-0.31975 0.0999,0.0999 -0.34565,0.44073 -0.56292,0.58088 -0.56292,0.36312 z m 3.14125,-0.36312 c -0.3291,-0.41965 -0.31974,-0.42901 0.0999,-0.0999 0.25467,0.19972 0.46303,0.40808 0.46303,0.46302 0,0.21776 -0.21728,0.0776 -0.56292,-0.36312 z"
             id="path5080" />
          <path
             style="fill:#3a494b;stroke-width:0.264583"
             d="m 196.32109,362.80238 c -1.76304,-0.28842 -3.74081,-1.28357 -4.9458,-2.48857 -1.33021,-1.3302 -1.26261,-2.71403 0.16873,-3.4542 0.9006,-0.46572 1.65818,-0.30489 2.60055,0.5521 1.08133,0.98337 2.27336,1.45569 3.6738,1.45569 1.65095,0 2.35929,-0.26708 3.6019,-1.35811 1.23078,-1.08064 2.58831,-1.18342 3.34172,-0.253 1.06705,1.31776 0.43466,2.77972 -1.815,4.19588 -2.07548,1.30651 -4.22077,1.74367 -6.6259,1.35021 z m -20.96194,-2.00866 c -1.18363,-0.42732 -1.32292,-0.83908 -1.32292,-3.91069 0,-2.48843 0.0739,-3.02555 0.46302,-3.36729 1.1108,-0.97541 2.6492,-0.73665 3.21197,0.49849 0.16157,0.35461 0.29376,1.70406 0.29376,2.99878 0,2.07082 -0.0716,2.43283 -0.59531,3.00888 -0.64332,0.70764 -1.41929,0.99972 -2.05052,0.77183 z m 43.66146,-0.15139 c -1.09163,-0.54919 -1.35364,-1.39711 -1.271,-4.11325 0.0711,-2.33617 0.11556,-2.50535 0.81752,-3.10886 0.98333,-0.84541 1.64525,-0.80488 2.60995,0.15982 0.79614,0.79614 0.79783,0.80437 0.70725,3.43276 -0.0764,2.21566 -0.17497,2.71556 -0.61997,3.14305 -0.74132,0.71213 -1.47782,0.87181 -2.24375,0.48648 z"
             id="path5078" />
        </g>
      </g>
    </g>
    <g
       id="g10950"
       transform="translate(117.16057,-36.131291)" />
  </g>
</svg>
