<?xml version="1.0" encoding="UTF-8" standalone="no"?>
<!-- Created with Inkscape (http://www.inkscape.org/) -->

<svg
   version="1.1"
   id="svg2"
   width="24.000534"
   height="24"
   viewBox="0 0 24.000534 24"
   sodipodi:docname="pizza_24px.svg"
   inkscape:version="1.1.2 (b8e25be833, 2022-02-05)"
   xmlns:inkscape="http://www.inkscape.org/namespaces/inkscape"
   xmlns:sodipodi="http://sodipodi.sourceforge.net/DTD/sodipodi-0.dtd"
   xmlns="http://www.w3.org/2000/svg"
   xmlns:svg="http://www.w3.org/2000/svg">
  <defs
     id="defs6" />
  <sodipodi:namedview
     id="namedview4"
     pagecolor="#ffffff"
     bordercolor="#666666"
     borderopacity="1.0"
     inkscape:pageshadow="2"
     inkscape:pageopacity="0.0"
     inkscape:pagecheckerboard="0"
     showgrid="false"
     fit-margin-top="0"
     fit-margin-left="0"
     fit-margin-right="0"
     fit-margin-bottom="0"
     inkscape:zoom="9.0929513"
     inkscape:cx="27.438836"
     inkscape:cy="11.107505"
     inkscape:window-width="1920"
     inkscape:window-height="1009"
     inkscape:window-x="-8"
     inkscape:window-y="-8"
     inkscape:window-maximized="1"
     inkscape:current-layer="g8" />
  <g
     inkscape:groupmode="layer"
     inkscape:label="Image"
     id="g8"
     transform="translate(-681.33199,-18.141636)">
    <g
       id="g120"
       transform="matrix(0.04693462,0,0,0.04693462,681.31486,18.116029)">
      <g
         id="g2473">
        <path
           style="fill:#fae55d;stroke-width:1.21232"
           d="m 295.64178,346.58678 c -2.00033,-1.25628 -6.89315,-5.61859 -10.87294,-9.69404 -3.97979,-4.07545 -7.83252,-7.4099 -8.56162,-7.4099 -0.7291,0 -3.74667,1.1719 -6.70572,2.60423 -6.64812,3.21804 -20.14686,4.41409 -25.37536,2.24838 -4.9108,-2.03412 -9.34281,-7.4857 -10.95589,-13.47623 -4.3964,-16.32696 13.1695,-44.62547 34.66286,-55.84159 17.9959,-9.39099 32.3332,-8.29885 39.45885,3.00577 3.29269,5.22377 2.69337,19.56312 -1.14684,27.43907 -1.44279,2.95905 -2.62325,5.9753 -2.62325,6.70279 0,0.72749 3.5869,4.853 7.97087,9.16778 9.48079,9.33117 11.42776,12.67308 11.42174,19.605 -0.0121,13.69736 -15.88122,22.80298 -27.2727,15.64874 z"
           id="path901" />
        <path
           style="fill:#fae55d"
           d="m 445.7717,388.71654 c -7.89785,-2.76343 -16.45843,-8.39873 -21.46859,-14.13247 C 422.34033,372.33783 417.61154,363.975 413.79469,356 384.14047,294.04 360.04545,258.31805 316.12597,211.20171 286.49036,179.40895 237.99801,144.84312 201.03998,124.17082 190.99533,118.5524 190.96534,114.20123 186.35825,104.5 c -12.50009,-26.321674 -0.13535,-57.792346 27.218,-69.275126 6.68518,-2.8064 17.71922,-4.509082 23.80118,-3.672802 2.68258,0.368861 6.28857,0.801807 8.0133,0.962104 3.33882,0.310311 22.09614,11.326105 42.10927,24.729922 C 366.39812,110.08622 433.82047,183.01799 480.0238,265.5 c 9.27118,16.55088 24.07941,46.55151 28.01495,56.7567 10.43802,27.0667 -1.92113,55.24964 -29.03875,66.21791 -3.0931,1.25107 -7.93909,1.94143 -15.5,2.20812 -9.6003,0.33864 -11.85615,0.0885 -17.7283,-1.96619 z"
           id="path899"
           sodipodi:nodetypes="sssssssssssssss" />
        <path
           style="fill:#fae55d;stroke-width:1.19028"
           d="m 87.487695,451.48013 c -7.205921,-4.93773 -9.048078,-8.53225 -8.942403,-17.44894 0.06655,-5.61473 0.985215,-10.12606 3.131114,-15.37599 l 3.03694,-7.42985 -8.756769,-9.50972 c -9.47054,-10.28486 -10.619536,-12.78587 -9.684618,-21.08044 1.162957,-10.31774 11.927579,-16.92253 23.036478,-14.13437 1.794178,0.4503 7.426659,4.87142 12.516623,9.8247 l 9.25449,9.00596 5.5339,-2.60125 c 12.68389,-5.96213 23.80952,-5.75803 31.33572,0.57485 16.03226,13.49025 -1.37359,51.25535 -30.1868,65.4956 -7.67141,3.79143 -10.91372,4.71088 -17.799114,5.04752 -7.270095,0.35543 -8.972596,0.0323 -12.475561,-2.36807 z"
           id="path130" />
        <path
           style="fill:#fdcd58"
           d="M 51.740395,511.00171 C 52.318771,510.58432 54.5,505.01889 54.5,497.5 c 0,-15.51239 -0.944994,-12.36811 16.968541,-56.45939 l 13.581033,-33.42752 -4.774787,-5.11873 c -2.626133,-2.8153 -1.785749,-2.06277 1.867519,1.67229 l 6.642306,6.79103 -2.563187,6.27116 c -1.814307,4.43893 -2.586304,8.22163 -2.642307,12.947 -0.08878,7.49122 1.45888,10.51111 7.51283,14.65947 2.942966,2.01661 4.373297,2.28811 10.481162,1.9895 5.78466,-0.28282 8.50864,-1.05529 14.95367,-4.2406 24.207,-11.96374 38.83027,-43.69154 25.361,-55.02518 -6.33299,-5.32887 -15.6692,-5.49236 -26.37125,-0.4618 l -4.69423,2.20655 -6.52549,-6.52549 -6.525493,-6.52549 11.175403,-27.3764 11.1754,-27.3764 6.64768,-5.50308 c 13.11157,-10.85402 22.21281,-25.34357 26.37163,-41.98474 1.83109,-7.32698 2.04949,-10.40419 1.5969,-22.5 L 154.21402,237.5 159.4512,220.49118 c 5.41739,-17.59408 8.58144,-18.5621 13.94441,-25.30378 C 177.00236,190.65343 188.30814,183 190.4248,183 c 0.66262,0 2.00698,1.6875 2.98746,3.75 8.04403,16.92123 27.43707,32.1957 46.58774,36.69374 9.31836,2.18866 23.96602,1.99464 33.5,-0.44374 4.30096,-1.1 8.13668,-2 8.52382,-2 0.38714,0 7.06033,6.87234 14.82933,15.27186 36.77716,39.76198 63.83438,79.85524 85.69532,126.9829 3.62668,7.81838 7.12442,14.5526 7.77275,14.96493 -29.77767,13.71254 -68.70642,26.8895 -101.01939,41.43924 -3.46385,1.6241 -5.96615,3.67237 -7.5,6.13917 -2.2233,3.5756 -2.31889,4.65716 -2.80183,31.7019 -0.49579,27.76425 -0.52248,28.04796 -3.17018,33.6965 -8.57542,18.29457 -30.48523,25.64709 -48.00736,16.11036 -9.95946,-5.42062 -17.76086,-17.46979 -17.86635,-27.59437 -0.0523,-5.02061 -2.05893,-11.0631 -4.61103,-13.8851 -3.3057,-3.6553 -9.32178,-6.09127 -13.77124,-5.57612 -2.24061,0.25942 -30.39884,11.17519 -62.57384,24.25727 -32.175,13.08209 -60.75,24.34757 -63.5,25.03441 -6.624098,1.65442 -15.010564,2.36152 -13.759605,1.45876 z M 233.58125,408.61442 c 6.13292,-2.85575 11.92078,-8.57552 13.49049,-13.3318 1.86092,-5.63863 0.74997,-14.44255 -2.42857,-19.24565 -12.303,-18.59108 -44.78119,-14.05472 -50.24745,7.01826 -2.60305,10.03499 2.37201,19.67378 12.85959,24.91449 8.05067,4.02296 18.52025,4.27935 26.32594,0.6447 z m 74.17789,-69.60902 c 4.48138,-2.73233 7.2326,-7.60021 7.23712,-12.80506 0.005,-5.71789 -1.60102,-8.47451 -9.42138,-16.17145 C 301.9587,306.46978 299,303.0668 299,302.46672 c 0,-0.60008 0.97372,-3.08808 2.16382,-5.52889 3.16765,-6.49659 3.66201,-18.3246 0.94599,-22.6335 -5.87769,-9.32477 -17.70401,-10.22564 -32.54818,-2.47935 -17.72909,9.25177 -32.21857,32.59419 -28.59214,46.06171 1.33057,4.94137 4.98638,9.43818 9.03712,11.11605 4.3128,1.78642 15.44742,0.79984 20.93122,-1.8546 2.44081,-1.18148 4.92989,-2.14814 5.5313,-2.14814 0.60141,0 3.77939,2.75047 7.06217,6.11216 3.28279,3.36169 7.3187,6.96 8.9687,7.99626 3.99556,2.50935 11.05266,2.46171 15.25914,-0.10302 z M 169.4338,105.5826 C 153.44957,97.560131 141.38062,90.835254 138.23043,88.195921 131.53237,82.584085 125.9069,74.04048 123.0408,65.126886 c -1.97447,-6.140603 -2.23609,-8.630514 -1.84077,-17.519104 0.41522,-9.336209 0.81967,-11.116844 4.08849,-18.000033 5.9646,-12.559762 16.38484,-22.071929 29.29221,-26.7395465 8.02852,-2.90330782 22.60925,-3.11977743 30.41927,-0.4516132 11.8093,4.0344509 62.8623,29.0544457 61.68582,30.2309197 -0.1555,0.155508 -3.29671,-0.186491 -6.98045,-0.759997 -17.40768,-2.710124 -36.77848,5.410978 -47.70374,19.99953 -8.53815,11.401028 -11.92135,24.221142 -10.02203,37.976827 1.20322,8.714131 5.94814,19.706371 10.98064,25.438071 1.78582,2.03393 3.08783,3.62273 2.89335,3.53066 -0.19447,-0.0921 -12.08338,-6.05458 -26.41979,-13.25 z"
           id="path128"
           sodipodi:nodetypes="ssscsscssssssscccccssscsssssssssccssssssssssssssssssssssssssssssssssssssssssss" />
        <path
           style="fill:#fdb350"
           d="M 45.5,510.95929 C 17.145874,507.2397 -3.5247215,479.6638 0.98353258,451.57146 1.7934272,446.52475 8.4652067,428.96633 25.547712,386.92479 38.44647,355.17981 49.006891,328.59765 49.015313,327.85332 c 0.0108,-0.95494 0.231586,-1.01462 0.75,-0.20275 1.032281,1.61662 10.339732,4.164 19.399933,5.30961 14.461502,1.82859 34.066254,-2.11456 45.878664,-9.22767 l 5.54391,-3.3384 -8.79501,21.55295 c -4.83725,11.85412 -9.94152,24.29809 -11.34282,27.65328 l -2.547814,6.10034 -3.965111,-1.96178 c -5.773783,-2.85664 -11.781477,-1.75807 -16.87303,3.0854 -7.402137,7.04149 -6.532232,15.68813 2.53465,25.19381 l 5.416781,5.67893 -13.563979,33.38554 C 53.55724,485.12639 54.5,481.98872 54.5,497.5 c 0,11.5609 -0.562247,14.78997 -2.5,14.35788 -0.275,-0.0613 -3.2,-0.46569 -6.5,-0.89859 z M 383.02368,364.25 C 361.19695,316.91166 333.78724,276.20351 296.85315,236.27186 289.08415,227.87234 282.06186,221 281.24806,221 c -0.81381,0 2.05996,-1.77498 6.38614,-3.9444 4.32619,-2.16943 10.52324,-6.31776 13.77122,-9.21852 l 7.28509,-4.64667 14.72518,14.17999 c 28.35334,27.30359 48.73769,58.98486 68.38254,93.1296 9.17253,15.9428 28.3232,54.44681 27.31829,55.39475 -1.15132,1.08605 -27.54493,12.57184 -29.03962,12.57184 -0.64898,0 -3.56631,-6.65409 -7.05322,-14.21659 z M 152.20394,236.20849 C 149.5586,223.40106 138.02312,205.19937 127.03831,196.5 c -4.67538,-3.70265 -15.96987,-10.97719 -18.19465,-11.71878 -1.08188,-0.36063 39.6093,-92.494447 40.84736,-92.522731 1.06782,-0.02439 38.23198,17.877401 42.43947,22.540731 l 3.86255,4.28101 -2.38264,4.70988 c -6.76343,13.36961 -9.07125,29.89426 -6.17277,44.19885 0.93821,4.63025 2.27785,9.78943 2.97698,11.46484 1.23739,2.96531 1.17574,3.09193 -2.32173,4.76817 -5.28632,2.53359 -13.3821,9.99848 -17.36321,16.01011 -3.59117,5.42281 -14.1824,29.96362 -16.19442,37.52387 l -1.13264,4.25595 z"
           id="path126"
           sodipodi:nodetypes="ssssssscsscssscssssssssscsssssssssscsssssscs" />
        <path
           style="fill:#fd6658;stroke-width:1.04535"
           d="m 244.67448,226.4037 c -15.63973,-2.85885 -27.93331,-9.35843 -39.56327,-20.917 -7.50184,-7.45578 -9.7688,-10.54545 -13.82769,-18.84591 -10.44276,-21.35553 -10.46171,-44.50977 -0.0533,-65.08424 l 2.51906,-4.97944 3.16238,1.63533 c 6.37256,3.29539 22.75455,13.53614 36.41224,22.76214 23.56091,15.91578 46.66572,34.46714 67.56068,54.24594 l 9.12565,8.63819 -5.95128,5.40841 c -6.9365,6.30374 -16.92804,11.78787 -27.25405,14.95916 -8.21791,2.52384 -24.28036,3.61237 -32.13043,2.17742 z"
           id="path1063" />
        <path
           style="fill:#fd6658;stroke-width:1.0503"
           d="m 66.582387,336.66626 c -11.019278,-1.46543 -19.375636,-4.19926 -19.012856,-6.22018 0.773115,-4.30676 60.302939,-149.15117 61.305359,-149.16452 0.61737,-0.008 4.04103,1.75743 7.60812,3.92368 25.17992,15.29144 38.93539,37.87795 40.77758,66.95688 2.41319,38.09217 -25.32903,74.55023 -63.109475,82.93673 -8.844979,1.96342 -19.875336,2.59054 -27.568728,1.56741 z"
           id="path1061" />
        <path
           style="fill:#fd6658;stroke-width:1.04611"
           d="m 212.63382,411.15299 c -20.64591,-6.7937 -26.53413,-27.30013 -11.52736,-40.14537 11.09742,-9.49898 28.69508,-9.49898 39.79249,0 17.14909,14.67897 5.95917,39.61248 -18.25681,40.68003 -4.06617,0.17925 -8.56992,-0.0613 -10.00832,-0.53466 z"
           id="path124" />
        <path
           style="fill:#42545e"
           d="M 383.32949,223.49649 C 380.09141,222.13498 379,220.33192 379,216.34398 c 0,-2.87266 9.99816,-13.99662 13.93387,-15.50284 4.79675,-1.83574 10.06613,2.49873 10.06613,8.28015 0,2.56897 -10.28041,13.43221 -13.90843,14.69694 -1.90214,0.66309 -3.65228,0.56537 -5.76208,-0.32174 z m -39.37893,-33.80893 c -12.1472,-3.40841 -20.86193,-13.46601 -22.58956,-26.07045 -0.76307,-5.56717 0.85587,-9.93926 4.25364,-11.48739 3.56641,-1.62497 4.93611,-1.42022 7.97275,1.19179 2.09348,1.80074 2.87697,3.63352 3.4926,8.17017 1.11428,8.21114 5.21719,12.31405 13.42833,13.42833 4.53665,0.61563 6.36943,1.39912 8.17017,3.4926 2.9155,3.38947 2.93377,5.76407 0.07,9.09346 -2.74802,3.19476 -8.28019,4.01031 -14.79788,2.18149 z M 289.91078,131.12884 C 288.2439,129.77908 287.6,128.21839 287.6,125.52796 c 0,-3.28168 0.79167,-4.49841 6.5904,-10.12884 7.3625,-7.14882 9.97093,-7.88475 14.41075,-4.06577 2.01981,1.73736 2.68797,3.20263 2.61592,5.73667 -0.08,2.81446 -1.21286,4.48702 -6.54731,9.66665 -7.08964,6.88386 -10.44773,7.88321 -14.75898,4.39217 z"
           id="path122" />
      </g>
    </g>
  </g>
</svg>
