<?xml version="1.0" encoding="UTF-8" standalone="no"?>
<!-- Created with Inkscape (http://www.inkscape.org/) -->

<svg
   width="48"
   height="48"
   viewBox="0 0 12.7 12.7"
   version="1.1"
   id="svg16537"
   inkscape:version="1.2.1 (9c6d41e410, 2022-07-14)"
   sodipodi:docname="beaker_48px.svg"
   xml:space="preserve"
   xmlns:inkscape="http://www.inkscape.org/namespaces/inkscape"
   xmlns:sodipodi="http://sodipodi.sourceforge.net/DTD/sodipodi-0.dtd"
   xmlns="http://www.w3.org/2000/svg"
   xmlns:svg="http://www.w3.org/2000/svg"><sodipodi:namedview
     id="namedview16539"
     pagecolor="#ffffff"
     bordercolor="#666666"
     borderopacity="1.0"
     inkscape:pageshadow="2"
     inkscape:pageopacity="0.0"
     inkscape:pagecheckerboard="0"
     inkscape:document-units="mm"
     showgrid="false"
     fit-margin-top="0"
     fit-margin-left="0"
     fit-margin-right="0"
     fit-margin-bottom="0"
     inkscape:zoom="8.294894"
     inkscape:cx="35.503769"
     inkscape:cy="22.905657"
     inkscape:window-width="1920"
     inkscape:window-height="1137"
     inkscape:window-x="1912"
     inkscape:window-y="-8"
     inkscape:window-maximized="1"
     inkscape:current-layer="g247"
     inkscape:showpageshadow="2"
     inkscape:deskcolor="#d1d1d1" /><defs
     id="defs16534" /><g
     inkscape:label="Layer 1"
     inkscape:groupmode="layer"
     id="layer1"
     transform="translate(-48.219646,-115.72297)"><g
       id="g247"
       transform="matrix(0.07044967,0,0,0.07044967,61.313661,124.24191)"
       inkscape:export-filename="C:\Users\adici\Documents\Git\Docusaurus\docs\img\flour.png"
       inkscape:export-xdpi="24.019777"
       inkscape:export-ydpi="24.019777"
       style="display:inline"><g
         id="g2467"
         transform="matrix(0.09375226,0,0,0.09375226,-177.55132,25.515539)"><path
           style="fill:#fdf7e6;stroke-width:3.75564"
           d="M 542.66739,355.44874 C 400.49441,329.22501 282.84599,230.20064 233.62322,95.327029 210.30631,31.437162 210.93051,46.038587 210.93051,-435.50288 V -874.3217 l -16.42116,-7.26385 c -22.63508,-10.0126 -46.08699,-32.16064 -58.0444,-54.8173 -9.03329,-17.11613 -10.03625,-22.9573 -10.03625,-58.45069 0,-33.73716 1.22412,-41.72506 8.47324,-55.29126 13.4435,-25.1585 29.67552,-41.1267 54.32924,-53.4463 l 22.89905,-11.4428 h 127.49358 c 113.97754,0 127.25518,-0.6213 125.24479,-5.8603 -1.23684,-3.2231 -34.64236,-61.9127 -74.23447,-130.4212 -39.59214,-68.5086 -76.29101,-133.8955 -81.55303,-145.3041 -25.17222,-54.5762 -1.65042,-122.5869 52.61131,-152.1199 25.87855,-14.0848 67.60081,-17.3832 96.87867,-7.6586 40.02163,13.293 48.76047,25.4542 171.42597,238.5597 61.23238,106.3784 113.01152,195.4977 115.0648,198.0429 2.90555,3.6017 91.27435,4.8505 398.60965,5.6334 l 394.8764,1.0059 16.3865,8.7434 c 24.4974,13.0711 47.6649,38.9555 56.9796,63.6616 10.8059,28.6615 9.1914,77.17318 -3.3768,101.46242 -12.5744,24.30129 -32.6574,44.47593 -55.3027,55.55528 l -20.3201,9.94166 v 434.72112 c 0,469.751622 0.1908,464.789488 -20.1618,524.462227 C 1468.4348,215.32881 1364.571,312.23901 1230.5857,348.66778 l -37.5563,10.21105 -311.71784,0.76826 c -245.06754,0.60394 -317.47507,-0.2937 -338.64417,-4.19835 z"
           id="path2483" /><path
           style="fill:#b8e5fd;stroke-width:3.75564"
           d="M 542.66739,355.44874 C 400.49441,329.22501 282.84599,230.20064 233.62322,95.327029 210.30631,31.437162 210.93051,46.038587 210.93051,-435.50288 V -874.3217 l -16.42116,-7.26385 c -22.63508,-10.0126 -46.08699,-32.16064 -58.0444,-54.8173 -9.03329,-17.11613 -10.03625,-22.9573 -10.03625,-58.45069 0,-33.73716 1.22412,-41.72506 8.47324,-55.29126 13.4435,-25.1585 29.67552,-41.1267 54.32924,-53.4463 l 22.89905,-11.4428 h 127.09176 c 69.9005,0 127.09178,-1.433 127.09178,-3.1845 0,-1.7515 -33.1694,-60.4802 -73.70977,-130.5083 -40.54036,-70.0282 -78.00283,-136.5412 -83.24994,-147.8069 -26.11839,-56.0768 0.0338,-126.0503 57.72487,-154.4436 15.46286,-7.6104 24.02041,-9.0878 52.28939,-9.0275 29.30436,0.062 36.36034,1.4127 53.04216,10.1502 10.58278,5.543 25.79311,17.6012 33.80073,26.7959 8.00761,9.1947 60.08383,95.8891 115.72489,192.6541 55.6411,96.765 106.72436,184.7789 113.51835,195.5863 l 12.35274,19.6498 395.37031,1.0062 395.3704,1.0061 16.3865,8.7434 c 24.4974,13.0711 47.6649,38.9555 56.9796,63.6616 10.8059,28.6615 9.1914,77.17318 -3.3768,101.46242 -12.5744,24.30129 -32.6574,44.47593 -55.3027,55.55528 l -20.3201,9.94166 v 434.72112 c 0,469.751622 0.1908,464.789488 -20.1618,524.462227 C 1468.4348,215.32881 1364.571,312.23901 1230.5857,348.66778 l -37.5563,10.21105 -311.71784,0.76826 c -245.06754,0.60394 -317.47507,-0.2937 -338.64417,-4.19835 z m 576.64251,-142.8641 c 62.8993,-15.14029 119.5546,-46.56869 165.8723,-92.01425 57.2542,-56.17632 88.1856,-112.7939238 105.6667,-193.415263 3.5042,-16.161028 4.9,-61.301557 4.9354,-159.614537 0.049,-135.34471 -0.063,-137.35863 -8.8022,-159.02742 -26.0588,-64.60982 -78.2994,-92.94542 -192.8619,-104.6093 -86.9798,-8.85564 -196.77976,13.51237 -280.08841,57.05844 -25.60518,13.38404 -40.66231,22.29218 -84.7187,50.12148 -33.02849,20.86328 -83.08969,42.7177 -106.58619,46.53065 -6.76323,1.09751 -12.29678,3.07586 -12.29678,4.39631 0,12.98454 30.14225,107.11555 53.49956,167.07345 l 18.85438,48.39888 4.95264,-11.77884 c 9.2902,-22.09485 31.5781,-24.55942 53.70732,-5.9389 20.58367,17.32002 39.8799,16.16107 67.65129,-4.06318 16.15017,-11.76115 28.27937,-11.78387 39.9884,-0.0747 14.77797,14.77794 12.50961,30.22761 -7.21252,49.124736 -36.73872,35.201916 -94.61852,37.349126 -134.94567,5.006188 l -14.29587,-11.465464 16.97781,33.804852 C 853.70238,19.895942 916.39912,113.49864 985.2735,194.35726 l 23.7297,27.85867 43.1898,-1.93592 c 23.7544,-1.06476 53.957,-4.52764 67.1169,-7.6953 z m -43.2423,-306.05066 c -15.1058,-6.10197 -20.119,-18.43232 -20.119,-49.48434 0,-24.99616 1.2143,-30.41164 8.7948,-39.22446 11.2985,-13.13538 28.8419,-13.73466 41.9369,-1.43259 8.5733,8.05419 9.3585,11.5135 9.3585,41.22975 0,27.45325 -1.1767,33.70098 -7.6576,40.65735 -4.2116,4.5207 -9.1435,8.219438 -10.9597,8.219438 -1.8162,0 -5.5529,0.739334 -8.3039,1.642978 -2.7509,0.903644 -8.6234,0.179895 -13.05,-1.608126 z"
           id="path2481" /><path
           style="fill:#f7e8b8;stroke-width:3.75564"
           d="M 564.1787,356.71837 C 416.68627,339.62932 282.72865,232.63996 235.13695,93.919079 211.96882,26.38831 213.38654,58.446345 211.98366,-429.63248 l -1.28457,-446.92288 -17.58761,-7.27429 c -21.96613,-9.0853 -45.48349,-32.26501 -57.49047,-56.66512 -7.8318,-15.91544 -9.17618,-23.96084 -9.08333,-54.35877 0.095,-31.10936 1.37465,-38.10266 9.99189,-54.60756 5.4356,-10.4109 17.52525,-25.9734 26.86588,-34.5832 31.55171,-29.0834 29.69412,-28.757 176.04208,-30.9308 l 130.38483,-1.9366 -79.19191,-137.0807 c -43.55554,-75.3944 -81.52577,-143.6309 -84.37829,-151.6366 -19.30799,-54.1887 10.1762,-121.0313 64.29289,-145.7561 28.62283,-13.0772 71.56274,-12.2792 100.36656,1.8652 11.82398,5.8063 27.04268,17.0344 33.81928,24.9514 6.77659,7.9169 63.63294,103.2707 126.34744,211.8972 l 114.02637,197.5029 392.966,1.0061 392.9659,1.0062 21.2589,10.4399 c 24.5691,12.0653 45.6851,33.7819 56.9596,58.5797 11.4841,25.2584 11.0664,73.87325 -0.8658,100.78685 -10.2887,23.20652 -37.9727,50.44739 -63.2354,62.22315 l -17.8729,8.33113 -319.5854,1.87782 -319.58543,1.87782 106.93122,185.11286 c 58.81211,101.8121 106.15111,185.89302 105.19761,186.8465 -0.9535,0.95348 -10.0414,2.65629 -20.1953,3.78399 -10.1539,1.12771 -21.2842,2.88715 -24.7339,3.90988 -3.4498,1.02278 -9.7875,2.63353 -14.0837,3.5795 -4.2962,0.94597 -10.7688,2.51729 -14.3836,3.4918 -3.6148,0.97452 -14.1065,3.59704 -23.3148,5.82785 -9.20837,2.23081 -22.72866,6.70407 -30.04513,9.94061 -7.31647,3.23653 -19.21778,8.38637 -26.44738,11.44409 -27.07396,11.45071 -45.26454,20.68383 -58.66093,29.77484 -10.885,7.38677 -14.48173,8.31986 -17.00278,4.41088 -1.75857,-2.72678 -44.97419,-77.24994 -96.03466,-165.60707 -78.20233,-135.3245 -93.32207,-159.33872 -95.91286,-152.33517 -5.55162,15.00745 -3.54667,181.65389 2.88448,239.7496 4.81011,43.4521 17.59016,119.84265 26.38917,157.73671 9.70013,41.77492 32.43149,111.92829 55.23207,170.45706 l 18.85438,48.39888 4.95264,-11.77884 c 9.2902,-22.09485 31.5781,-24.55942 53.70732,-5.9389 20.58367,17.32002 39.8799,16.16107 67.65129,-4.06318 16.15017,-11.76115 28.27937,-11.78387 39.9884,-0.0747 14.77797,14.77794 12.50961,30.22761 -7.21252,49.124736 -36.73872,35.201916 -94.61852,37.349126 -134.94567,5.006188 l -14.29587,-11.465464 16.97781,33.804852 c 70.64449,140.661567 176.60713,277.725798 293.14474,379.186978 24.8652,21.64842 47.6842,41.67509 50.7089,44.50365 4.6581,4.3562 -37.8508,5.0683 -277.91711,4.65556 -155.87903,-0.26778 -295.9934,-1.94444 -311.36529,-3.72548 z M 348.94158,-267.19904 c -0.63455,-29.4348 -1.15373,-5.35178 -1.15373,53.51781 0,58.8696 0.51918,82.95261 1.15373,53.51782 0.63455,-29.4348 0.63455,-77.60084 0,-107.03563 z m 727.12602,173.73302 c -15.1058,-6.10197 -20.119,-18.43232 -20.119,-49.48434 0,-24.99616 1.2143,-30.41164 8.7948,-39.22446 11.2985,-13.13538 28.8419,-13.73466 41.9369,-1.43259 8.5733,8.05419 9.3585,11.5135 9.3585,41.22975 0,27.45325 -1.1767,33.70098 -7.6576,40.65735 -4.2116,4.5207 -9.1435,8.219438 -10.9597,8.219438 -1.8162,0 -5.5529,0.739334 -8.3039,1.642978 -2.7509,0.903644 -8.6234,0.179895 -13.05,-1.608126 z"
           id="path2479" /><path
           style="fill:#8bd5fc;stroke-width:3.75564"
           d="M 564.1787,356.71837 C 416.68627,339.62932 282.72865,232.63996 235.13695,93.919079 211.96882,26.38831 213.38654,58.446345 211.98366,-429.63248 l -1.28457,-446.92288 -17.58761,-7.27429 c -21.96613,-9.0853 -45.48349,-32.26501 -57.49047,-56.66512 -7.8318,-15.91544 -9.17618,-23.96084 -9.08333,-54.35877 0.095,-31.10936 1.37465,-38.10266 9.99189,-54.60756 5.4356,-10.4109 17.52525,-25.9734 26.86588,-34.5832 31.55171,-29.0834 29.69412,-28.757 176.04208,-30.9308 l 130.38483,-1.9366 -79.19191,-137.0807 c -43.55554,-75.3944 -81.52577,-143.6309 -84.37829,-151.6366 -19.30799,-54.1887 10.1762,-121.0313 64.29289,-145.7561 28.62283,-13.0772 71.56274,-12.2792 100.36656,1.8652 11.82398,5.8063 27.04268,17.0344 33.81928,24.9514 6.77659,7.9169 63.63294,103.2707 126.34744,211.8972 l 114.02637,197.5029 392.966,1.0061 392.9659,1.0062 21.2589,10.4399 c 24.5691,12.0653 45.6851,33.7819 56.9596,58.5797 11.4841,25.2584 11.0664,73.87325 -0.8658,100.78685 -10.2887,23.20652 -37.9727,50.44739 -63.2354,62.22315 l -17.8729,8.33113 -319.5905,1.87782 -319.59051,1.87782 106.39841,184.02617 c 58.5191,101.21439 106.4253,184.91317 106.4582,185.99731 0.034,1.08411 -16.4182,4.79039 -36.5578,8.23619 -58.0809,9.93737 -121.43667,32.97426 -172.17163,62.60356 l -19.12948,11.17167 -95.3049,-165.06847 c -80.00538,-138.56968 -95.79614,-163.74044 -98.36519,-156.79571 -1.68316,4.54999 -3.11116,47.41539 -3.17339,95.25645 -0.1277,98.14075 6.50836,172.4889 22.50951,252.19142 9.0328,44.99267 9.53507,51.12224 4.36458,53.26281 -3.21359,1.33039 -31.19345,2.2862 -62.17745,2.12396 -66.60301,-0.34852 -94.84427,-6.66378 -151.55562,-33.88958 -54.72262,-26.27105 -83.29854,-24.08835 -117.83924,9.00079 -24.83921,23.79534 -26.39296,34.18816 -24.42733,163.39383 1.52084,99.967451 2.67551,117.111479 9.73675,144.566381 17.58997,68.391974 51.4269,126.745697 100.74264,173.736439 47.57242,45.32967 95.13714,72.70273 157.16557,90.44744 28.97296,8.28839 35.77059,8.60457 211.9702,9.85922 l 182.03728,1.29618 41.4231,40.26684 c 22.7826,22.1468 56.2108,52.77525 74.2848,68.06328 18.074,15.28803 32.8618,28.34278 32.8618,29.01057 0,2.82194 -567.70506,-0.0481 -593.1721,-2.99865 z M 838.8915,-74.101397 c -39.39226,-14.050135 -60.6237,-39.884663 -49.33257,-60.028213 12.21093,-21.78453 28.19044,-22.49186 55.69056,-2.4652 8.12641,5.91795 17.81389,9.29321 26.67298,9.29321 8.8591,0 18.54657,-3.37526 26.67298,-9.29321 26.77558,-19.49903 41.6529,-19.57873 54.2908,-0.29068 11.88873,18.14449 -1.63719,40.851441 -33.6695,56.523373 -26.98481,13.202451 -54.78752,15.369528 -80.32525,6.260908 z M 635.58998,-103.39645 c -6.35003,-8.07274 -7.78386,-15.24345 -7.78386,-38.92769 0,-23.68425 1.43383,-30.85496 7.78386,-38.9277 9.52088,-12.10381 28.44192,-13.34032 41.56227,-2.71611 8.15221,6.60124 8.86623,9.95495 8.86623,41.64381 0,31.68885 -0.71402,35.04256 -8.86623,41.64381 -13.12035,10.624203 -32.04139,9.387697 -41.56227,-2.71612 z m 431.31272,2.88613 c -7.0674,-5.7228 -8.9464,-11.56488 -10.2366,-31.82638 -0.8691,-13.6493 -0.4981,-29.12845 0.8245,-34.39806 6.0453,-24.08647 32.3389,-32.18524 49.3298,-15.19425 8.2337,8.23363 9.2184,12.39198 9.2184,38.92769 0,24.36935 -1.3991,31.48793 -7.7838,39.60487 -9.4654,12.033211 -28.4222,13.356284 -41.3523,2.88613 z"
           id="path2477" /><path
           style="fill:#5ec3f9;stroke-width:3.75564"
           d="m 838.8915,-74.101397 c -39.39226,-14.050135 -60.6237,-39.884663 -49.33257,-60.028213 12.21093,-21.78453 28.19044,-22.49186 55.69056,-2.4652 8.12641,5.91795 17.81389,9.29321 26.67298,9.29321 8.8591,0 18.54657,-3.37526 26.67298,-9.29321 26.77558,-19.49903 41.6529,-19.57873 54.2908,-0.29068 11.88873,18.14449 -1.63719,40.851441 -33.6695,56.523373 -26.98481,13.202451 -54.78752,15.369528 -80.32525,6.260908 z M 635.58998,-103.39645 c -6.35003,-8.07274 -7.78386,-15.24345 -7.78386,-38.92769 0,-23.68425 1.43383,-30.85496 7.78386,-38.9277 9.52088,-12.10381 28.44192,-13.34032 41.56227,-2.71611 8.15221,6.60124 8.86623,9.95495 8.86623,41.64381 0,31.68885 -0.71402,35.04256 -8.86623,41.64381 -13.12035,10.624203 -32.04139,9.387697 -41.56227,-2.71612 z m 431.31272,2.88613 c -7.0674,-5.7228 -8.9464,-11.56488 -10.2366,-31.82638 -0.8691,-13.6493 -0.4981,-29.12845 0.8245,-34.39806 6.0453,-24.08647 32.3389,-32.18524 49.3298,-15.19425 8.2337,8.23363 9.2184,12.39198 9.2184,38.92769 0,24.36935 -1.3991,31.48793 -7.7838,39.60487 -9.4654,12.033211 -28.4222,13.356284 -41.3523,2.88613 z M 785.34826,-571.40557 c -47.99211,-83.14039 -100.25197,-173.13483 -116.13302,-199.98762 -15.88104,-26.8528 -35.16721,-60.13585 -42.85812,-73.9623 l -13.98343,-25.13903 -197.90486,-1.21724 -197.90486,-1.21724 -18.50097,-8.8518 c -45.66419,-21.84812 -70.66272,-60.21772 -71.22217,-109.31711 -0.59206,-51.96089 21.69922,-90.49839 64.50615,-111.51929 l 21.46135,-10.5389 128.65397,-1.8778 128.65398,-1.8778 -73.654,-127.6916 c -101.36563,-175.7345 -93.4495,-158.8731 -93.4495,-199.0488 0,-29.3419 1.31935,-36.3092 10.00163,-52.8172 11.95551,-22.7313 35.14949,-44.5877 58.94877,-55.5491 13.3102,-6.1303 24.36916,-7.9466 47.40514,-7.7856 35.77979,0.25 59.24305,9.7771 82.36072,33.4419 9.12879,9.3448 58.10953,90.3272 128.39341,212.2795 109.47319,189.951 114.06644,197.2148 125.44005,198.3702 9.32077,0.947 11.28294,2.5281 9.3216,7.5113 -22.46678,57.0818 -65.72089,206.04203 -65.72089,226.33211 0,6.69788 4.8148,7.11671 92.75779,8.0691 l 92.75779,1.00452 108.16874,187.44421 c 59.49277,103.09436 108.16877,188.01868 108.16877,188.72072 0,0.70208 -3.5371,1.2765 -7.8603,1.2765 -4.3231,0 -25.0255,3.49808 -46.0055,7.77349 -45.8515,9.34399 -107.49855,31.95401 -142.86327,52.39744 -14.21617,8.21797 -27.16001,14.94179 -28.76408,14.94179 -1.60407,0 -42.18278,-68.02396 -90.17489,-151.16435 z"
           id="path2475" /><path
           style="fill:#6c7aa7;stroke-width:3.75564"
           d="m 838.8915,-74.101397 c -39.39226,-14.050135 -60.6237,-39.884663 -49.33257,-60.028213 12.21093,-21.78453 28.19044,-22.49186 55.69056,-2.4652 8.12641,5.91795 17.81389,9.29321 26.67298,9.29321 8.8591,0 18.54657,-3.37526 26.67298,-9.29321 26.77558,-19.49903 41.6529,-19.57873 54.2908,-0.29068 11.88873,18.14449 -1.63719,40.851441 -33.6695,56.523373 -26.98481,13.202451 -54.78752,15.369528 -80.32525,6.260908 z M 635.58998,-103.39645 c -6.35003,-8.07274 -7.78386,-15.24345 -7.78386,-38.92769 0,-23.68425 1.43383,-30.85496 7.78386,-38.9277 9.52088,-12.10381 28.44192,-13.34032 41.56227,-2.71611 8.15221,6.60124 8.86623,9.95495 8.86623,41.64381 0,31.68885 -0.71402,35.04256 -8.86623,41.64381 -13.12035,10.624203 -32.04139,9.387697 -41.56227,-2.71612 z m 431.31272,2.88613 c -7.0674,-5.7228 -8.9464,-11.56488 -10.2366,-31.82638 -0.8691,-13.6493 -0.4981,-29.12845 0.8245,-34.39806 6.0453,-24.08647 32.3389,-32.18524 49.3298,-15.19425 8.2337,8.23363 9.2184,12.39198 9.2184,38.92769 0,24.36935 -1.3991,31.48793 -7.7838,39.60487 -9.4654,12.033211 -28.4222,13.356284 -41.3523,2.88613 z M 870.75424,-423.05794 c -1.26317,-2.20787 -250.24866,-433.7314 -256.78606,-445.04288 -0.89534,-1.5492 59.91633,-2.81673 135.13707,-2.81673 H 885.87023 L 992.50434,-686.205 c 58.64876,101.59191 107.19746,186.09372 107.88596,187.78181 0.6886,1.68808 -2.426,3.06925 -6.9213,3.06925 -4.4952,0 -25.3385,3.49808 -46.3185,7.77349 -45.8515,9.34399 -107.49855,31.95401 -142.86327,52.39744 -26.69487,15.43157 -30.79336,16.91354 -33.53299,12.12507 z m -476.7694,-826.23996 c -42.42209,-73.8452 -80.25442,-140.1791 -84.07187,-147.4087 -5.26886,-9.9784 -6.93591,-21.2868 -6.92051,-46.9455 0.0188,-29.3188 1.34647,-36.3222 10.02195,-52.8172 11.95551,-22.7313 35.14949,-44.5877 58.94877,-55.5491 13.3102,-6.1303 24.36916,-7.9466 47.40514,-7.7856 35.84848,0.2505 59.19769,9.7579 82.62399,33.6429 12.48115,12.7255 102.53754,164.9928 230.2502,389.307 l 12.42331,21.8202 H 607.89085 471.11588 Z"
           id="path2473" /><path
           style="fill:#53659d;stroke-width:3.75564"
           d="m 830.61047,-78.773295 c -9.29519,-4.202707 -22.39298,-12.947293 -29.10618,-19.432413 -31.6602,-30.584622 2.56976,-70.313542 36.20006,-42.015502 6.28419,5.28778 16.55409,11.08495 22.82198,12.88254 14.44959,4.14409 30.90104,-0.5022 45.61427,-12.88254 33.63029,-28.29804 67.86025,11.43088 36.20005,42.015502 -18.72564,18.089472 -42.09343,27.073705 -70.41818,27.073705 -16.50872,0 -29.88288,-2.473762 -41.312,-7.641292 z M 643.68856,-96.014482 c -14.87923,-5.986638 -21.65376,-58.055978 -10.3879,-79.841778 8.91858,-17.24664 24.84946,-20.16758 40.94443,-7.5073 9.35927,7.36203 9.89558,9.58615 9.89558,41.03942 0,31.45326 -0.53631,33.67739 -9.89558,41.03941 -9.49887,7.47184 -20.40816,9.353413 -30.55653,5.270248 z m 425.77534,-5.377168 c -9.7206,-7.64629 -9.9981,-8.94311 -8.9566,-41.85848 1.0036,-31.71815 1.729,-34.45526 10.9527,-41.32976 14.5952,-10.87787 32.3205,-6.10205 39.2937,10.5871 6.3275,15.14389 6.8762,44.76177 1.1345,61.2326 -7.0227,20.145085 -25.1062,24.990982 -42.4243,11.36854 z M 392.33007,-1254.9313 c -43.19207,-74.878 -80.97355,-142.057 -83.95875,-149.2866 -2.9881,-7.2364 -5.40583,-24.9612 -5.37905,-39.4342 0.14921,-80.5853 77.39694,-135.0178 154.97509,-109.2029 38.78359,12.9056 46.88705,24.0863 160.8059,221.872 57.10685,99.1488 108.01224,187.4532 113.12314,196.232 l 9.29253,15.9615 H 606.02501 470.86109 Z"
           id="path2471" /><path
           style="fill:#4b5164;stroke-width:3.75564"
           d="m 830.61047,-78.773295 c -9.29519,-4.202707 -22.39298,-12.947293 -29.10618,-19.432413 -30.86806,-29.819412 3.03903,-69.918682 35.80703,-42.346222 23.97508,20.17366 43.02509,20.66599 66.85573,1.72778 16.24932,-12.91334 32.15609,-14.21204 42.86814,-3.49999 27.32098,27.32097 -18.96615,71.192137 -75.11272,71.192137 -16.50872,0 -29.88288,-2.473762 -41.312,-7.641292 z M 641.83778,-98.195417 c -19.32583,-14.675453 -18.50819,-78.760763 1.13901,-89.275643 10.6292,-5.68855 20.45567,-4.39773 31.2683,4.1075 9.35927,7.36203 9.89558,9.58615 9.89558,41.03942 0,31.45326 -0.53631,33.67739 -9.89558,41.03941 -11.22297,8.828 -23.33027,9.982144 -32.40731,3.089313 z m 427.76212,-3.089313 c -9.3593,-7.36202 -9.8956,-9.58615 -9.8956,-41.03941 0,-31.45327 0.5363,-33.67739 9.8956,-41.03942 11.3306,-8.91265 16.0676,-9.48264 29.1749,-3.51054 11.2604,5.13058 17.264,20.62284 17.264,44.54996 0,23.92712 -6.0036,39.41938 -17.264,44.549955 -13.1073,5.9721 -17.8443,5.402107 -29.1749,-3.510545 z"
           id="path2469" /></g></g></g></svg>
