<?xml version="1.0" encoding="UTF-8" standalone="no"?>
<!-- Created with Inkscape (http://www.inkscape.org/) -->

<svg
   width="10.688222mm"
   height="9.5246391mm"
   viewBox="0 0 10.688222 9.5246391"
   version="1.1"
   id="svg16685"
   inkscape:version="1.1.2 (b8e25be833, 2022-02-05)"
   sodipodi:docname="viz_36px.svg"
   xmlns:inkscape="http://www.inkscape.org/namespaces/inkscape"
   xmlns:sodipodi="http://sodipodi.sourceforge.net/DTD/sodipodi-0.dtd"
   xmlns="http://www.w3.org/2000/svg"
   xmlns:svg="http://www.w3.org/2000/svg">
  <sodipodi:namedview
     id="namedview16687"
     pagecolor="#ffffff"
     bordercolor="#666666"
     borderopacity="1.0"
     inkscape:pageshadow="2"
     inkscape:pageopacity="0.0"
     inkscape:pagecheckerboard="false"
     inkscape:document-units="mm"
     showgrid="false"
     fit-margin-top="0"
     fit-margin-left="0"
     fit-margin-right="0"
     fit-margin-bottom="0"
     inkscape:zoom="11.313709"
     inkscape:cx="20.108349"
     inkscape:cy="9.6343299"
     inkscape:window-width="1920"
     inkscape:window-height="1009"
     inkscape:window-x="-8"
     inkscape:window-y="-8"
     inkscape:window-maximized="1"
     inkscape:current-layer="layer1" />
  <defs
     id="defs16682" />
  <g
     inkscape:label="Layer 1"
     inkscape:groupmode="layer"
     id="layer1"
     transform="translate(-69.766086,-111.11892)">
    <ellipse
       style="fill:#ffffff;stroke-width:0.264583"
       id="path1351"
       cx="70.594971"
       cy="114.24274"
       rx="0.63716966"
       ry="0.54131228" />
    <ellipse
       style="fill:#ffffff;stroke-width:0.264583"
       id="path1351-0"
       cx="72.743309"
       cy="114.17508"
       rx="0.63716966"
       ry="0.54131228" />
    <ellipse
       style="fill:#ffffff;stroke-width:0.316095"
       id="path1351-5"
       cx="72.788422"
       cy="118.25008"
       rx="0.7612204"
       ry="0.6467005" />
    <ellipse
       style="fill:#ffffff;stroke-width:0.320778"
       id="path1351-2"
       cx="76.419708"
       cy="118.27095"
       rx="0.77249771"
       ry="0.65628123" />
    <ellipse
       style="fill:#ffffff;stroke-width:0.264583"
       id="path1351-1"
       cx="79.611206"
       cy="115.37048"
       rx="0.63716966"
       ry="0.54131228" />
    <ellipse
       style="fill:#ffffff;stroke-width:0.264583"
       id="path1351-4"
       cx="77.017418"
       cy="115.31409"
       rx="0.63716966"
       ry="0.54131228" />
    <g
       id="g1319">
      <path
         style="fill:#a2ddfc;stroke-width:0.0209056"
         d="m 75.42125,119.69435 c -0.210307,-0.0223 -0.51474,-0.1318 -0.702692,-0.20388 -0.730069,-0.28001 -1.231874,-0.91904 -1.401852,-1.8289 -0.04595,-0.24598 -0.08224,-1.01803 -0.05012,-1.34134 0.08678,-0.8733 0.401965,-1.88872 0.773939,-2.72239 0.131154,-0.29394 0.475362,-0.41057 0.733924,-0.26525 0.04595,0.0258 0.268953,0.25317 0.518655,0.52876 0.678008,0.74828 0.813449,0.86688 1.117109,1.27841 0.140109,0.20555 0.24538,0.36576 0.384529,0.55923 0.166042,0.27046 0.391308,0.70748 0.46955,0.93917 0.328973,0.97416 0.198064,1.92512 -0.316448,2.70314 l -0.173529,0.23617 -0.131664,0.0458 c -0.395752,0.13772 -0.867262,0.10861 -1.221405,0.0711 z m 1.221816,-1.04959 c 0.237059,-0.10486 0.359107,-0.26604 0.359107,-0.47424 0,-0.0986 -0.01208,-0.14601 -0.05638,-0.22146 -0.09094,-0.1549 -0.275898,-0.27172 -0.476563,-0.301 -0.167675,-3e-5 -0.226937,0.017 -0.365048,0.0312 -0.06675,0 -0.238174,0.10478 -0.31142,0.19036 -0.09503,0.11102 -0.125174,0.20299 -0.11333,0.34581 0.01614,0.1947 0.190482,0.37919 0.43169,0.45685 0.13387,0.0431 0.403906,0.0291 0.531945,-0.0275 z m 2.212238,-2.05995 c -0.495461,-0.0483 -1.020708,-0.40086 -1.288221,-0.89792 -0.128389,-0.17356 -0.06626,-0.21688 -0.01892,-0.348 0.0395,-0.10941 -0.03696,-0.22052 -0.06627,-0.25289 -0.03581,-0.0396 -0.0725,-0.0429 -0.04154,-0.0871 0.02192,-0.0313 0.01694,-0.0627 0.01694,-0.14766 0,-0.10968 -0.0084,-0.117 -0.06521,-0.16236 l -0.130469,-0.10421 0.009,-0.40407 c 0.01006,-0.45139 0.297728,-1.19852 0.579335,-1.8999 0.115468,-0.2876 0.178207,-0.33734 0.302178,-0.39456 0.09849,-0.0455 0.153517,-0.0484 0.266921,-0.0145 0.06846,0.0205 0.139391,0.0859 0.391133,0.36063 0.561192,0.61239 0.804341,0.90683 1.047535,1.26851 0.624912,0.92938 0.761523,1.8234 0.397416,2.6008 -0.07827,0.1671 -0.259466,0.42429 -0.275585,0.44037 -0.07767,0.0775 -0.153116,0.0803 -0.239712,0.0716 -0.325959,-0.0495 -0.61198,0.0151 -0.884535,-0.0288 z m 0.89155,-0.94497 c 0.222846,-0.0931 0.320653,-0.32448 0.207887,-0.49181 -0.08781,-0.1303 -0.246322,-0.20707 -0.428067,-0.20731 -0.214954,0.0212 -0.315186,0.075 -0.403301,0.2211 -0.09343,0.18326 -0.0051,0.38401 0.209924,0.47715 0.09586,0.0415 0.315126,0.042 0.413557,8.6e-4 z m -7.548351,-0.39692 c -0.334606,-0.0836 -0.574682,-0.12751 -0.813605,-0.30496 -0.204749,-0.15207 -0.476084,-0.48161 -0.464143,-0.68572 0.003,-0.0509 0.0034,-0.0951 -0.02131,-0.14706 -0.02818,-0.0592 -0.121524,-0.14729 -0.121524,-0.14729 0,0 0.0089,-0.21256 -0.07477,-0.32624 -0.145908,-0.18549 0.222187,-1.41941 0.532312,-2.15475 0.03942,-0.0935 0.03129,-0.12226 0.08198,-0.16894 0.02045,-0.0188 0.151341,-0.15465 0.223147,-0.17616 0.122474,-0.0367 0.220603,0.003 0.356046,0.14531 1.044337,1.09453 1.47496,1.78841 1.564179,2.5204 0.01286,0.10554 0.01802,0.23745 0.01146,0.29313 -0.011,0.0933 -0.0091,0.0991 0.0239,0.0735 0.01971,-0.0153 0.02935,0.0986 -0.03563,0.16739 -0.163199,0.17288 -0.420696,0.37129 -0.611638,0.66191 -0.273801,0.41673 -0.12247,0.29154 -0.141418,0.29167 -0.01895,1.2e-4 -0.184076,-0.0335 -0.22432,-0.029 -0.104351,-0.0174 -0.188227,0.0109 -0.284662,-0.0132 z m 0.787947,-0.74951 c 0.109915,-0.0644 0.190799,-0.20727 0.17027,-0.30073 -0.03638,-0.16565 -0.214335,-0.29671 -0.403458,-0.29715 -0.221299,-0.025 -0.286129,0.0589 -0.383859,0.18566 -0.02677,0.0331 -0.03948,0.0819 -0.03948,0.15178 0,0.0902 0.0097,0.11341 0.0784,0.18669 0.04312,0.046 0.116027,0.0976 0.162019,0.11453 0.119992,0.0443 0.301332,0.0265 0.416112,-0.0407 z"
         id="path473"
         sodipodi:nodetypes="sssssssccsscssscsccssssscsccssscsssssssscccsscscccscsccsssssssssccccsccsssccccc" />
      <path
         style="fill:#79cdf8;stroke-width:0.0209056"
         d="m 74.242785,120.62488 c -1.251914,-0.13024 -2.266145,-1.05008 -2.533329,-2.29757 -0.05415,-0.25281 -0.05361,-0.91808 9.54e-4,-1.17071 0.05376,-0.24891 0.147603,-0.53792 0.256516,-0.78997 0.08926,-0.20658 0.124132,-0.27582 0.264607,-0.52548 0.05468,-0.0972 0.05805,-0.1111 0.0236,-0.0975 -0.0221,0.009 -0.107789,0.0333 -0.190408,0.0547 -0.739479,0.19113 -1.556571,-0.12312 -1.981788,-0.76219 -0.547015,-0.82211 -0.384962,-1.79298 0.480042,-2.87597 0.16388,-0.20517 0.7256,-0.83925 0.735083,-0.82977 0.0029,0.003 -0.03245,0.0991 -0.07866,0.21373 -0.239775,0.59472 -0.394682,1.31424 -0.394682,1.83325 v 0.22528 l -0.09144,0.12604 c -0.06367,0.0878 0.0885,0.11373 -0.03805,0.14074 l -0.121371,0.0259 h -0.09475 c -0.175829,0 -0.341278,0.10465 -0.38767,0.24522 -0.07132,0.2161 0.136094,0.42376 0.423247,0.42376 0.175429,0 0.393659,-0.15493 0.393659,-0.27947 0,-0.0648 0.03211,-0.0338 0.06766,0.0652 0.09252,0.25766 0.365126,0.55488 0.626489,0.68306 0.221855,0.1088 0.441545,0.15886 0.759294,0.17303 l 0.272273,0.0121 0.08636,-0.11439 c 0.194192,-0.2572 0.528326,-0.65122 0.880705,-1.03855 0.20535,-0.22572 0.398032,-0.43862 0.428181,-0.47311 0.04676,-0.0535 0.03666,-0.0176 -0.06864,0.244 -0.307802,0.76467 -0.513856,1.53226 -0.619152,2.30648 -0.05541,0.4074 -0.05113,1.15021 0.0085,1.47616 0.211812,1.15783 0.853422,1.8079 1.94852,1.97421 0.264723,0.0402 0.858612,0.039 1.197932,-0.003 0.148127,-0.0181 0.274398,-0.0278 0.280605,-0.0216 0.0189,0.0189 -0.392928,0.41629 -0.537786,0.51892 -0.442086,0.31322 -0.914231,0.48821 -1.452939,0.53849 -0.255045,0.0238 -0.301871,0.0237 -0.543545,-0.001 z m -1.273809,-1.95189 c 0.516132,-0.15333 0.599571,-0.71771 0.139191,-0.94149 -0.127242,-0.0526 -0.1975,-0.0677 -0.412393,-0.098 l -0.09408,0.0127 c -0.333547,0.0449 -0.590991,0.34524 -0.52399,0.61132 0.08456,0.33583 0.502955,0.5309 0.89127,0.41555 z m 4.934911,-1.35949 c -0.157589,-0.0327 -0.389658,-0.1051 -0.47543,-0.14839 -0.04579,-0.0231 -0.06217,-0.0574 -0.100569,-0.2105 -0.09491,-0.37842 -0.323813,-0.89207 -0.576107,-1.29276 -0.103467,-0.16433 -0.109664,-0.17968 -0.04894,-0.12127 0.197509,0.19001 0.569099,0.1829 0.734827,-0.0141 0.03171,-0.0377 0.06017,-0.065 0.06324,-0.0607 0.0031,0.004 0.03117,0.0695 0.06244,0.14481 0.140749,0.33898 0.408891,0.6262 0.729021,0.78089 0.303101,0.14645 0.467252,0.18247 0.88902,0.19508 0.223808,0.007 0.436299,10e-4 0.560976,-0.0145 0.110386,-0.0139 0.206417,-0.0196 0.213403,-0.0126 0.007,0.007 -0.03849,0.0651 -0.101054,0.12905 -0.285521,0.29203 -0.629654,0.49117 -1.031233,0.59676 -0.21923,0.0576 -0.705469,0.0725 -0.919592,0.0281 z m -1.329184,-1.92189 c -0.02435,-0.0394 -0.124527,-0.17724 -0.22261,-0.30629 l -0.178333,-0.23465 0.03527,-0.15886 c 0.123694,-0.55717 0.447947,-1.14066 1.000251,-1.79995 0.163452,-0.19511 0.721901,-0.81532 0.734135,-0.81532 0.0034,0 -0.02657,0.0776 -0.06666,0.17247 -0.285731,0.67596 -0.508467,1.6694 -0.508562,2.26826 -1.5e-5,0.0943 0.0037,0.16577 -0.03078,0.16577 -0.104848,0 -0.122274,0.0298 -0.122274,0.17004 v 0.0865 l -0.187292,0.006 c -0.07344,0.002 -0.169745,0.0302 -0.218298,0.0549 -0.161309,0.0823 -0.247364,0.256 -0.197577,0.39882 0.02908,0.0834 0.01752,0.0811 -0.03726,-0.008 z"
         id="path469"
         sodipodi:nodetypes="sssssssssssscsscssssssscssssssssssssssccssssssssssssssssssssscssssssscssss" />
      <path
         style="fill:#4d555f;stroke-width:0.0209056"
         d="m 74.318252,118.29318 c -0.190736,-0.095 -0.306393,-0.30523 -0.300744,-0.54655 0.0033,-0.14022 0.05603,-0.23297 0.163142,-0.28688 0.0703,-0.0354 0.12474,-0.0418 0.354813,-0.0418 0.230438,-2e-5 0.284286,0.006 0.354047,0.0418 0.132312,0.0672 0.168758,0.13464 0.16762,0.30997 -0.0012,0.18648 -0.06276,0.33719 -0.181532,0.44449 -0.165163,0.14921 -0.360792,0.17694 -0.557346,0.079 z m -1.556944,-0.63636 c -0.0529,-0.0416 -0.05508,-0.0516 -0.05508,-0.25087 0,-0.17966 0.0056,-0.21315 0.04181,-0.24935 0.0564,-0.0564 0.14904,-0.0534 0.205412,0.007 0.03989,0.0425 0.04546,0.072 0.04546,0.24137 0,0.17702 -0.0042,0.19722 -0.05131,0.24429 -0.06269,0.0627 -0.113944,0.0649 -0.18628,0.008 z m 3.390024,0.0109 c -0.06848,-0.0372 -0.08738,-0.11732 -0.07584,-0.32161 0.0059,-0.10368 0.01929,-0.15695 0.0474,-0.18801 0.049,-0.0541 0.138271,-0.0557 0.202655,-0.004 0.04278,0.0346 0.0501,0.0617 0.05683,0.20976 0.0088,0.19316 -0.01632,0.27717 -0.09324,0.31222 -0.0642,0.0293 -0.06824,0.029 -0.137805,-0.009 z m 1.935481,-2.49932 c -0.169907,-0.0825 -0.230477,-0.19927 -0.153855,-0.29668 0.05699,-0.0724 0.1395,-0.0739 0.242068,-0.004 0.04236,0.0287 0.103203,0.0523 0.13521,0.0523 0.03201,0 0.08615,-0.0235 0.120308,-0.0523 0.118414,-0.0996 0.275586,-0.0502 0.275586,0.0867 0,0.065 -0.09819,0.17376 -0.197739,0.21898 -0.114848,0.0522 -0.308945,0.05 -0.421578,-0.005 z m -0.86498,-0.1233 c -0.03309,-0.0331 -0.04181,-0.0697 -0.04181,-0.17539 0,-0.16111 0.03888,-0.22335 0.141339,-0.22626 0.112789,-0.003 0.151339,0.0508 0.151339,0.21208 0,0.17291 -0.03464,0.23138 -0.137071,0.23138 -0.04411,0 -0.08818,-0.0162 -0.113795,-0.0418 z m 1.955421,0.0136 c -0.02694,-0.0197 -0.04154,-0.0636 -0.04832,-0.14537 -0.01362,-0.16424 0.0051,-0.22095 0.08378,-0.25404 0.07071,-0.0297 0.109342,-0.0237 0.167611,0.0264 0.05385,0.0462 0.05263,0.31752 -0.0016,0.36664 -0.04622,0.0418 -0.148521,0.0451 -0.201434,0.006 z m -7.66387,-0.91144 c -0.157054,-0.0477 -0.270552,-0.14925 -0.270552,-0.24217 0,-0.13033 0.158545,-0.18996 0.257612,-0.0969 0.02977,0.028 0.07518,0.0453 0.118689,0.0453 0.04351,0 0.08892,-0.0173 0.11869,-0.0453 0.100089,-0.094 0.257611,-0.0334 0.257611,0.0992 0,0.054 -0.01779,0.0835 -0.08485,0.14093 -0.11585,0.0992 -0.269982,0.13756 -0.397204,0.099 z m -0.876813,-0.14742 c -0.0643,-0.0643 -0.0601,-0.28912 0.0066,-0.35176 0.06339,-0.0596 0.12958,-0.0575 0.19298,0.006 0.04316,0.0432 0.05131,0.0714 0.05131,0.17769 0,0.14719 -0.04378,0.21001 -0.146339,0.21001 -0.03484,0 -0.0813,-0.0186 -0.104528,-0.0418 z m 1.756069,0 c -0.03314,-0.0331 -0.04181,-0.0697 -0.04181,-0.17618 0,-0.12027 0.0058,-0.13892 0.05508,-0.1777 0.0303,-0.0238 0.07136,-0.0433 0.09126,-0.0433 0.01989,0 0.06096,0.0195 0.09126,0.0433 0.0493,0.0388 0.05508,0.0574 0.05508,0.1777 0,0.15568 -0.04183,0.21799 -0.146339,0.21799 -0.03484,0 -0.0813,-0.0186 -0.104528,-0.0418 z"
         id="path463" />
    </g>
  </g>
</svg>
