<?xml version="1.0" encoding="UTF-8" standalone="no"?>
<!-- Created with Inkscape (http://www.inkscape.org/) -->

<svg
   width="48"
   height="48"
   viewBox="0 0 12.7 12.7"
   version="1.1"
   id="svg16537"
   inkscape:version="1.2.1 (9c6d41e410, 2022-07-14)"
   sodipodi:docname="yeast_throwout_48px.svg"
   xml:space="preserve"
   xmlns:inkscape="http://www.inkscape.org/namespaces/inkscape"
   xmlns:sodipodi="http://sodipodi.sourceforge.net/DTD/sodipodi-0.dtd"
   xmlns="http://www.w3.org/2000/svg"
   xmlns:svg="http://www.w3.org/2000/svg"><sodipodi:namedview
     id="namedview16539"
     pagecolor="#ffffff"
     bordercolor="#666666"
     borderopacity="1.0"
     inkscape:pageshadow="2"
     inkscape:pageopacity="0.0"
     inkscape:pagecheckerboard="0"
     inkscape:document-units="mm"
     showgrid="false"
     fit-margin-top="0"
     fit-margin-left="0"
     fit-margin-right="0"
     fit-margin-bottom="0"
     inkscape:zoom="4.147447"
     inkscape:cx="-20.856204"
     inkscape:cy="11.573385"
     inkscape:window-width="1920"
     inkscape:window-height="1137"
     inkscape:window-x="1912"
     inkscape:window-y="-8"
     inkscape:window-maximized="1"
     inkscape:current-layer="g247"
     inkscape:showpageshadow="2"
     inkscape:deskcolor="#d1d1d1" /><defs
     id="defs16534" /><g
     inkscape:label="Layer 1"
     inkscape:groupmode="layer"
     id="layer1"
     transform="translate(-48.219646,-115.72297)"><g
       id="g247"
       transform="matrix(0.07044967,0,0,0.07044967,61.313661,124.24191)"
       inkscape:export-filename="C:\Users\adici\Documents\Git\Docusaurus\docs\img\flour.png"
       inkscape:export-xdpi="24.019777"
       inkscape:export-ydpi="24.019777"
       style="display:inline"><g
         id="g1803"
         transform="translate(-2.274897,-2.082069)"><g
           id="g1587"
           transform="matrix(14.194531,0,0,14.194531,70.800787,-105.69319)"><g
             id="g1612"
             transform="matrix(0.09523229,0,0,0.09523229,-28.070819,-5.1536352)"><path
               style="fill:#faf0e7;stroke-width:0.264583"
               d="m 110.63099,177.20104 c -1.31246,-0.64967 -3.14352,-2.55563 -3.6733,-3.82355 -0.46503,-1.11299 -0.52118,-11.18963 -0.0995,-17.8519 1.50659,-23.80177 6.59183,-40.50697 14.51112,-47.66949 2.89645,-2.61967 6.60753,-4.18884 9.90658,-4.18884 h 1.56498 l -0.17968,-0.8599 c -0.46411,-2.22108 -1.20906,-7.939212 -1.49349,-11.463726 -0.45902,-5.688002 -0.17639,-17.852493 0.5374,-23.130233 1.24543,-9.208588 3.31376,-15.854096 6.05201,-19.444944 1.71182,-2.244829 1.74086,-2.251193 10.27261,-2.251193 h 7.45803 l 1.11472,0.859895 c 0.94408,0.728269 1.5602,1.583508 3.36642,4.67294 0.16475,0.281802 1.28634,-0.609618 4.5699,-3.632093 l 4.35156,-4.005553 35.52031,-0.0059 35.52031,-0.0059 v 37.041665 37.041672 h -36.58111 -36.58112 l -3.25465,-2.91042 c -1.79006,-1.60073 -3.30458,-2.91042 -3.36559,-2.91042 -0.061,0 -0.36744,0.50602 -0.68095,1.12448 -0.90407,1.78351 -2.08267,3.29876 -3.13083,4.02514 l -0.96856,0.67122 h -9.52891 c -10.82038,0 -11.38294,0.0778 -13.4006,1.85383 -0.66391,0.5844 -1.48497,1.62675 -1.82458,2.31633 -0.60703,1.23259 -0.61971,1.42832 -0.74976,11.57254 -0.12948,10.09903 -0.14525,10.34506 -0.74077,11.55396 -0.71357,1.44855 -2.58714,3.26329 -3.97156,3.84685 -0.53692,0.22632 -1.79412,0.50267 -2.79378,0.61411 -3.13754,0.34978 -2.92252,-0.49597 -3.07722,12.10403 -0.13054,10.63196 -0.14026,10.78762 -0.73339,11.74142 -0.77467,1.24576 -2.52044,2.81923 -3.65296,3.29243 -1.26814,0.52986 -2.9773,0.45835 -4.26366,-0.17839 z"
               id="path1601" /><path
               style="fill:#eddbcc;stroke-width:0.264583"
               d="m 110.92932,177.25042 c -1.57951,-0.71741 -2.89971,-1.98841 -3.66907,-3.53231 -0.66014,-1.32473 -0.67925,-1.50969 -0.67925,-6.57345 0,-8.57614 0.7189,-18.63698 1.88897,-26.43573 3.23837,-21.58438 9.93583,-34.02175 19.65976,-36.50872 1.14611,-0.29312 2.70052,-0.53295 3.45426,-0.53295 h 1.37044 l -0.47044,-2.44739 c -1.06219,-5.525896 -1.40327,-10.075833 -1.40327,-18.719275 0,-9.260421 0.34863,-13.405488 1.69129,-20.108332 1.68829,-8.428345 4.45719,-14.316243 7.2889,-15.499405 0.60487,-0.252731 2.69346,-0.351306 7.76475,-0.366472 7.78839,-0.02329 8.00836,0.01905 9.67365,1.862331 0.50847,0.56282 1.2945,1.756271 1.74672,2.652113 l 0.82221,1.628802 0.97148,-0.91317 c 0.53432,-0.502244 2.55448,-2.362777 4.48924,-4.134518 l 3.51777,-3.221347 h 35.44213 35.44213 v 37.041665 37.041668 h -36.62917 c -20.17885,0 -36.69238,-0.10226 -36.76991,-0.22771 -0.0774,-0.12523 -1.56845,-1.49949 -3.31345,-3.05389 l -3.17272,-2.8262 -0.83353,1.65122 c -0.46076,0.91275 -1.47606,2.27852 -2.27024,3.05389 l -1.43672,1.40269 -9.97619,0.0201 c -6.93505,0.014 -10.233,0.11481 -10.81864,0.33073 -1.57871,0.58205 -3.10744,1.89603 -3.92005,3.36937 l -0.79375,1.43915 -0.13229,10.31875 -0.13229,10.31875 -0.73821,1.50325 c -1.2791,2.6047 -3.43274,4.02307 -6.70713,4.41727 -1.45079,0.17466 -1.88151,0.34265 -2.38789,0.93135 l -0.61781,0.71825 v 10.25205 10.25204 l -0.67926,1.36309 c -1.11966,2.24687 -3.62157,4.02086 -5.67074,4.02086 -0.50933,0 -1.41008,-0.21985 -2.00168,-0.48855 z m 66.16313,-84.636352 c 9.91258,-3.781412 20.55553,-8.377195 31.15596,-13.453607 l 6.28512,-3.009866 h 5.67528 5.67528 l 0.14664,-0.859895 c 0.23368,-1.370306 0.93568,-14.546979 0.93568,-17.562842 V 54.98393 h -7.8046 -7.80459 l -1.38968,0.981433 c -0.76432,0.539788 -3.3542,2.538473 -5.7553,4.441521 -5.01468,3.974517 -15.14182,11.717298 -16.17773,12.368808 -2.32251,1.460683 -6.3107,1.916285 -9.75143,1.113981 -1.75831,-0.410001 -6.48319,-2.591028 -7.67292,-3.541853 l -0.66146,-0.528635 7.01146,-7.046463 c 4.40378,-4.425771 6.76545,-6.974386 6.35,-6.852661 -0.3638,0.106592 -4.9045,2.314417 -10.09044,4.906277 -5.18594,2.591861 -9.51775,4.629579 -9.62625,4.528262 -0.10849,-0.101317 -0.12694,0.232506 -0.041,0.741829 1.37159,8.128378 1.5669,18.309285 0.55972,29.175534 l -0.19055,2.055741 4.86562,-1.70076 c 2.67608,-0.935416 6.41342,-2.291212 8.30519,-3.012876 z"
               id="path1599" /><path
               style="fill:#eed2ab;stroke-width:0.264583"
               d="m 111.87095,177.51164 c -1.85373,-0.58696 -3.71305,-2.18258 -4.65451,-3.99438 -0.65787,-1.26605 -0.76979,-5.14551 -0.39101,-13.55429 1.18323,-26.26811 6.0635,-43.85166 14.33715,-51.6566 3.02651,-2.85506 5.89268,-4.16984 9.87723,-4.53091 1.84641,-0.16731 1.98288,-0.22119 1.87361,-0.73964 -3.25702,-15.454214 -2.1239,-38.303108 2.45787,-49.561837 1.49016,-3.661756 2.86461,-5.548982 4.682,-6.428767 1.40761,-0.681411 2.28407,-0.561932 3.76908,0.513804 3.51326,2.54499 6.64125,12.583433 7.75494,24.887409 0.40861,4.514313 0.41214,15.810039 0.006,19.976041 -1.23401,12.66556 -3.44278,20.49141 -6.847,24.25947 -1.49826,1.65839 -1.96902,1.80166 -5.9294,1.80457 -3.12738,0.002 -3.66626,0.0712 -4.84371,0.61953 -1.36622,0.63622 -2.68125,1.92025 -3.49885,3.41635 -0.41784,0.76459 -0.48214,1.96179 -0.60026,11.17508 -0.12902,10.06291 -0.14737,10.35155 -0.74027,11.64166 -1.26477,2.7521 -3.74881,4.47148 -6.94231,4.80526 -2.95787,0.30916 -2.7481,-0.54224 -2.90075,11.77362 -0.1474,11.89211 -0.0763,11.42924 -2.07968,13.53989 -1.59328,1.67861 -3.8135,2.53404 -5.33037,2.05374 z m 51.85122,-61.94476 c -1.81416,-1.60437 -3.33515,-3.02411 -3.37999,-3.15499 -0.0448,-0.13087 0.33736,-1.46735 0.84935,-2.96994 0.89539,-2.62783 2.53241,-9.947822 2.53716,-11.345007 0.002,-0.605631 0.20077,-0.738571 1.92053,-1.284869 10.56066,-3.354703 29.44999,-11.147136 42.76735,-17.642855 l 6.1887,-3.018624 h 5.64636 c 6.54833,0 5.79181,0.463918 6.04048,-3.704166 0.0825,-1.382448 0.26316,-4.418541 0.40151,-6.746875 0.13835,-2.328333 0.32239,-7.805208 0.40897,-12.170832 0.0866,-4.365625 0.2127,-8.205391 0.28025,-8.532813 l 0.12281,-0.595312 h 6.21267 6.21267 v 37.041665 37.041668 h -36.45517 -36.45518 z m 13.76716,-41.96087 c -2.1644,-0.639357 -5.5085,-2.235456 -6.88188,-3.284645 l -0.65875,-0.50324 12.83229,-12.694371 12.83229,-12.694371 15.33261,-0.01439 c 8.43293,-0.0079 15.21949,0.08542 15.08125,0.207409 -0.13825,0.121992 -3.70417,2.641136 -7.92427,5.598099 -9.19192,6.440637 -10.69453,7.541284 -14.81667,10.853109 -5.52663,4.440224 -14.74142,11.391123 -15.85812,11.962099 -2.81071,1.437135 -6.32219,1.638631 -9.93875,0.570304 z"
               id="path1597" /><path
               style="fill:#dab78b;stroke-width:0.264583"
               d="m 110.81433,159.75892 v -5.29166 h 2.11667 2.11666 v 5.29166 5.29167 h -2.11666 -2.11667 z m 8.33437,-20.34721 c -1.1777,-0.51726 -1.85208,-1.59227 -1.85208,-2.95234 0,-1.11152 0.12342,-1.41994 0.86499,-2.1615 0.74447,-0.74447 1.04787,-0.86499 2.17772,-0.86499 1.12985,0 1.43325,0.12052 2.17772,0.86499 0.74448,0.74447 0.86499,1.04787 0.86499,2.17772 0,1.11463 -0.12352,1.43626 -0.81846,2.1312 -0.8736,0.8736 -2.42561,1.23942 -3.41488,0.80492 z m -0.52916,-14.6773 c -1.53062,-0.36248 -1.51668,-0.26134 -0.47841,-3.47236 1.19575,-3.69802 3.01777,-6.78608 5.17978,-8.77895 1.12149,-1.03375 3.02989,-2.20126 3.59817,-2.20126 0.23478,0 1.35831,2.94453 1.35728,3.55711 -2.6e-4,0.15364 -0.5321,0.61521 -1.18185,1.0257 -1.99225,1.25862 -4.17748,4.8549 -5.29405,8.71251 -0.49624,1.71444 -0.62711,1.76206 -3.18092,1.15725 z m 56.14442,-10.41003 c -0.79805,-0.12011 -0.7989,-0.12946 -0.30605,-3.38108 l 0.12031,-0.79375 5.49045,-0.0177 c 4.81066,-0.0155 5.75252,-0.09 7.60711,-0.60137 3.00053,-0.82741 5.19969,-1.92809 6.75033,-3.37852 l 1.34048,-1.25387 1.84158,0.8909 c 1.01286,0.49 1.84157,0.99799 1.84157,1.12887 0,0.47584 -3.34863,3.51902 -4.82695,4.38665 -2.05533,1.20628 -5.36787,2.31089 -8.40221,2.80184 -2.33392,0.37762 -9.49105,0.51382 -11.45662,0.21801 z m 50.74724,-0.63101 c -2.61459,-1.5186 -3.20257,-3.9379 -2.37241,-9.76153 0.91341,-6.407691 1.74405,-14.284595 2.62268,-24.870828 0.99433,-11.980043 1.19431,-15.50918 1.34942,-23.812499 0.0775,-4.147343 0.20519,-8.284765 0.28382,-9.19427 l 0.14298,-1.653646 h 6.19665 6.19665 V 68.814244 93.22789 l -2.22307,6.65766 c -1.22268,3.66171 -2.56213,7.28571 -2.97656,8.05333 -1.03294,1.91327 -3.48353,4.47426 -5.0117,5.23746 -1.44943,0.72388 -3.4328,0.96755 -4.20846,0.51703 z m -17.4625,-3.91499 c -1.17771,-0.51726 -1.85208,-1.59227 -1.85208,-2.95235 0,-1.11152 0.12342,-1.41993 0.86498,-2.16149 0.74447,-0.74448 1.04788,-0.86499 2.17772,-0.86499 1.12985,0 1.43326,0.12051 2.17773,0.86499 0.74447,0.74447 0.86498,1.04787 0.86498,2.17772 0,1.11463 -0.12352,1.43626 -0.81845,2.1312 -0.8736,0.87359 -2.42561,1.23942 -3.41488,0.80492 z m -23.28333,-4.23333 c -1.17771,-0.51727 -1.85209,-1.59227 -1.85209,-2.95235 0,-1.11152 0.12342,-1.41993 0.86499,-2.1615 0.74447,-0.744468 1.04788,-0.864981 2.17772,-0.864981 1.12985,0 1.43325,0.120513 2.17773,0.864981 0.74447,0.74448 0.86498,1.04788 0.86498,2.17773 0,1.11463 -0.12352,1.43625 -0.81846,2.13119 -0.87359,0.8736 -2.42561,1.23943 -3.41487,0.80493 z m -44.83686,-4.42431 c -1.56806,-8.901571 -1.72239,-22.109531 -0.38913,-33.304519 0.59999,-5.038017 0.92431,-6.746875 1.28047,-6.746875 0.44579,0 3.42737,0.557369 3.62129,0.676956 0.0864,0.05326 0.002,1.143121 -0.18706,2.421917 -1.2126,8.193816 -1.74545,20.64697 -1.18631,27.725084 0.29701,3.759792 0.87172,8.322257 1.22622,9.734727 0.19605,0.78112 -0.057,0.90322 -2.36151,1.13932 l -1.68353,0.17249 z m 55.47896,-5.95796 c -0.40303,-1.039442 -0.7002,-1.913501 -0.66037,-1.942351 0.57734,-0.418116 10.38569,-4.07558 10.51702,-3.921725 0.27573,0.323006 1.32937,3.015011 1.32937,3.396485 0,0.276386 -9.60401,4.357489 -10.25443,4.357489 -0.10933,0 -0.52855,-0.850453 -0.93159,-1.889898 z m 21.1079,-2.317731 c -1.17771,-0.517266 -1.85209,-1.59227 -1.85209,-2.952348 0,-1.11152 0.12342,-1.419934 0.86499,-2.161497 0.74447,-0.744472 1.04787,-0.864984 2.17772,-0.864984 1.12985,0 1.43325,0.120512 2.17773,0.864984 0.74447,0.744474 0.86498,1.047877 0.86498,2.177724 0,1.114629 -0.12352,1.436256 -0.81846,2.131198 -0.87359,0.873595 -2.42561,1.239422 -3.41487,0.804923 z m -38.1,-19.039551 c -1.01865,-0.268263 -2.50693,-0.752287 -3.30729,-1.075608 -1.45703,-0.588592 -5.02712,-2.665158 -5.02705,-2.924019 2e-5,-0.07566 5.76482,-5.822801 12.81067,-12.77142 l 12.81063,-12.633854 h 15.27989 15.27989 l -3.41816,2.41694 c -1.87999,1.329318 -5.97801,4.209786 -9.10671,6.401041 -3.1287,2.191255 -7.7126,5.606801 -10.18646,7.590101 -8.32784,6.676467 -15.74709,12.130036 -17.3099,12.723745 -2.08047,0.790372 -5.41889,0.906868 -7.82551,0.273074 z"
               id="path1595" /><path
               style="fill:#f3b94f;stroke-width:0.264583"
               d="m 225.47922,113.62023 c -1.28979,-0.58371 -2.22063,-2.0202 -2.54061,-3.92073 -0.24,-1.42547 -0.16098,-2.5854 0.54612,-8.01661 2.0124,-15.45724 3.74476,-37.922602 3.74586,-48.576543 2.2e-4,-2.124076 0.0778,-4.951811 0.17231,-6.283854 l 0.17191,-2.421896 h 6.17809 6.17809 v 24.248376 24.248376 l -2.2631,6.90631 c -2.45737,7.499141 -3.52455,9.669251 -5.7752,11.743831 -2.18734,2.01622 -4.72567,2.83657 -6.41347,2.07274 z M 178.9089,73.903444 c -2.66029,-0.578561 -7.70682,-2.895801 -8.48209,-3.894766 -0.19771,-0.254755 2.95102,-3.518346 12.51761,-12.974227 l 12.78177,-12.633854 h 15.14386 c 9.10283,0 15.04359,0.09603 14.8925,0.240719 -0.13824,0.132396 -4.18041,3.009487 -8.9826,6.393535 -4.80219,3.384049 -10.93391,7.896018 -13.62604,10.0266 -8.22603,6.510156 -14.08325,10.923669 -15.59234,11.749079 -2.6241,1.435272 -5.44192,1.791189 -8.65267,1.092914 z"
               id="path1593" /><path
               style="fill:#fb7a25;stroke-width:0.264583"
               d="m 227.49557,113.64867 c 0,-0.04 0.89297,-2.74571 1.98438,-6.01266 1.09141,-3.26694 1.98437,-5.97264 1.98437,-6.01266 0,-0.04 -1.76226,-0.0728 -3.91614,-0.0728 h -3.91614 l 0.33259,-2.711975 c 0.47273,-3.854714 1.58071,-15.226225 1.93992,-19.909895 0.16741,-2.182812 0.41345,-5.191611 0.54675,-6.686221 0.2386,-2.675139 0.64463,-12.365453 0.94763,-22.616381 l 0.15446,-5.225521 h 6.1888 6.1888 v 24.100694 24.100693 l -2.26097,6.948027 c -2.41396,7.418149 -3.30073,9.297889 -5.43786,11.526869 -1.18015,1.23087 -3.49529,2.64455 -4.33092,2.64455 -0.22311,0 -0.40567,-0.0327 -0.40567,-0.0728 z M 179.97302,74.045092 c -0.74402,-0.115009 -1.98115,-0.417822 -2.74918,-0.672923 l -1.39642,-0.463817 1.34126,-1.223148 c 3.56544,-3.251455 4.30039,-6.353424 2.22541,-9.392629 l -0.7003,-1.025728 8.59204,-8.421319 8.59204,-8.421319 15.0592,-0.01181 c 8.28256,-0.0065 15.00959,0.03414 14.94896,0.09029 -0.0606,0.05615 -4.2179,3.006102 -9.23837,6.555446 -5.02047,3.549344 -10.60272,7.640824 -12.405,9.092178 -4.64279,3.738782 -13.89498,10.817709 -15.76075,12.058687 -2.41419,1.605745 -5.57985,2.288847 -8.50889,1.836092 z"
               id="path1591" /><path
               style="fill:#ae4630;stroke-width:0.264583"
               d="m 225.73809,80.874283 c 0.0935,-0.894471 0.16998,-1.846971 0.16998,-2.116666 0,-0.454872 0.27761,-0.490355 3.83646,-0.490355 h 3.83646 v 2.116667 2.116666 h -4.00644 -4.00644 z m 0.43687,-5.451292 c 0.001,-0.400182 0.0774,-1.352682 0.16914,-2.116666 l 0.16685,-1.389063 h 3.53502 3.53502 v 2.116667 2.116666 h -3.70417 -3.70416 l 0.002,-0.727604 z m -28.5773,-11.368409 c 0,-1.996536 -0.5154,-5.615113 -0.94684,-6.647697 l -0.39106,-0.935937 1.38752,-1.404967 c 0.76313,-0.772732 1.46195,-1.404968 1.55294,-1.404968 0.091,0 0.47202,0.565547 0.84676,1.256771 0.72602,1.339206 1.36526,3.579351 1.64819,5.775957 l 0.17313,1.344187 -1.80459,1.450172 c -2.57547,2.069649 -2.46605,2.044514 -2.46605,0.566482 z"
               id="path1589" /></g></g><path
           style="display:inline;fill:#3b4849;stroke-width:0.264583"
           d="m -150.16308,-24.259807 c -0.8042,0.35724 -0.97239,0.321648 -4.01762,-0.850231 -3.00294,-1.155603 -3.1958,-1.265892 -3.49524,-2.001216 -0.40343,-0.990321 0.0574,-2.248709 0.97235,-2.655145 0.61602,-0.273645 1.01315,-0.177109 3.99955,0.972141 3.28781,1.265257 3.31777,1.283219 3.57704,2.123519 0.34672,1.124368 -0.0103,1.955261 -1.03608,2.41093 z"
           id="path1736" /><path
           style="display:inline;fill:#3b4849;stroke-width:0.264583"
           d="m -171.05226,30.303515 c -0.75577,0.449879 -0.78997,0.442974 -4.07779,-0.822271 -2.98638,-1.149278 -3.3458,-1.343863 -3.61945,-1.959852 -0.42309,-0.952496 0.11567,-2.239741 1.10636,-2.643299 0.71481,-0.291182 1.03398,-0.218532 3.9218,0.892786 3.00847,1.15779 3.15957,1.246196 3.51653,2.049118 0.45568,1.025755 0.1636,1.881698 -0.84745,2.483518 z"
           id="path1734" /><path
           style="display:inline;fill:#3b4849;stroke-width:0.264583"
           d="m -165.186,-2.6009578 c 1.96656,-3.076091 6.18971,-5.537105 8.00414,-4.664351 0.71892,0.345765 1.1309,1.435382 0.88919,2.351688 -0.17351,0.657855 -0.45201,0.904752 -1.61014,1.427505 -2.19228,0.989525 -3.53951,2.220539 -4.40944,4.029101 -0.86992,1.808545 -0.99072,3.629484 -0.39535,5.959884 0.31453,1.231122 0.29548,1.602817 -0.11018,2.149013 -0.5872,0.790654 -1.68042,1.115648 -2.47201,0.734882 -0.71512,-0.343941 -1.75023,-2.864789 -1.86929,-4.552254 -0.17865,-2.533832 0.51794,-5.159405 1.97303,-7.435451 z"
           id="path249-7" /></g></g></g></svg>
