<?xml version="1.0" encoding="UTF-8" standalone="no"?>
<!-- Created with Inkscape (http://www.inkscape.org/) -->

<svg
   version="1.1"
   id="svg2"
   width="47.415607"
   height="36.000004"
   viewBox="0 0 47.415607 36.000004"
   sodipodi:docname="tal_sleeps_36px.svg"
   inkscape:version="1.1.2 (b8e25be833, 2022-02-05)"
   xmlns:inkscape="http://www.inkscape.org/namespaces/inkscape"
   xmlns:sodipodi="http://sodipodi.sourceforge.net/DTD/sodipodi-0.dtd"
   xmlns="http://www.w3.org/2000/svg"
   xmlns:svg="http://www.w3.org/2000/svg">
  <defs
     id="defs6" />
  <sodipodi:namedview
     id="namedview4"
     pagecolor="#ffffff"
     bordercolor="#666666"
     borderopacity="1.0"
     inkscape:pageshadow="2"
     inkscape:pageopacity="0.0"
     inkscape:pagecheckerboard="0"
     showgrid="false"
     fit-margin-top="0"
     fit-margin-left="0"
     fit-margin-right="0"
     fit-margin-bottom="0"
     inkscape:zoom="3.4098566"
     inkscape:cx="36.511799"
     inkscape:cy="-18.47585"
     inkscape:window-width="1920"
     inkscape:window-height="1009"
     inkscape:window-x="-8"
     inkscape:window-y="-8"
     inkscape:window-maximized="1"
     inkscape:current-layer="g8" />
  <g
     inkscape:groupmode="layer"
     inkscape:label="Image"
     id="g8"
     transform="translate(-26.652589,-265.74477)">
    <g
       id="g66"
       transform="matrix(0.75079717,0,0,0.75079717,240.47225,-37.78261)" />
    <g
       id="g5285"
       transform="matrix(0.09260861,0,0,0.09260861,4.3581932,259.54838)">
      <path
         style="fill:#5ad4fd;stroke-width:1.33333"
         d="M 361.14532,394.13976 50.957283,393.80079 48.209958,383.47027 c -3.593775,-13.51335 -9.799686,-38.86691 -9.805038,-46.52445 -0.0088,-12.62329 10.305449,-27.62357 22.81628,-31.09813 3.351083,-0.93068 103.56149,-0.50189 300.20348,-0.50691 327.19374,-0.008 300.4583,-0.86132 311.24974,9.93012 8.47611,8.47611 10.94572,17.23088 8.98803,31.86255 -1.73304,12.95258 -10.76497,47.22078 -11.88102,46.73651 -0.41892,-0.18177 -138.03269,0.45623 -308.63611,0.2698 z"
         id="path195"
         sodipodi:nodetypes="scssscssss"
         transform="matrix(0.75079717,0,0,0.75079717,240.47225,-37.78261)" />
      <path
         style="fill:#5ad4fd;stroke-width:1.33333"
         d="m 236.29521,654.44924 c -6.94294,-3.34798 -14.50127,-11.912 -16.29307,-18.36208 -0.72633,-2.61459 -1.32395,-16.60381 -1.32803,-31.08714 l -0.007,-31.72499 H 359.8914 c 77.67336,0 142.17336,-0.36419 143.33334,-0.80932 1.8822,-0.72227 2.1059,7.5736 2.07977,32.39166 -0.0264,25.1046 -0.29384,28.39288 -2.74943,33.80932 -3.38386,7.46401 -7.03513,11.44177 -13.88796,15.12976 l -5.33333,2.87024 -120.66667,0.28181 c -119.89562,0.28002 -120.66655,0.25194 -120.66655,0.25194 z"
         id="path72"
         sodipodi:nodetypes="ssccssssscscs"
         transform="matrix(0.75079717,0,0,0.75079717,240.47225,-37.78261)" />
      <path
         style="fill:#03bafa;stroke-width:1.33333"
         d="m 200.16434,655.99738 c -6.82312,-1.61097 -15.10864,-8.08909 -18.831,-14.72322 -3.22277,-5.74376 -3.34737,-6.89178 -3.75657,-34.61259 l -0.42324,-28.67179 -10.19559,-5.32821 C 139.65515,558.39314 106.4937,533.10776 81.932687,507.8304 37.582232,462.18642 11.995347,412.37639 1.9498806,352.12777 0.04147692,340.68193 -0.08904342,337.06709 1.2036733,331.4611 3.9958783,319.35242 12.827255,310.11621 24.78844,306.7952 c 2.866358,-0.79584 13.911561,-1.42399 24.544895,-1.3959 18.077793,0.0477 18.998018,0.17062 14.169995,1.8916 -12.229319,4.35924 -22.17423,17.79584 -22.165735,29.94819 0.0053,7.65815 3.278675,26.91178 6.873121,40.42759 l 2.748086,10.33333 H 360.73405 c 195.80378,0 310.06541,0.46947 310.56389,1.27603 1.19375,1.93152 -7.9288,25.38915 -16.87438,43.39064 -18.98944,38.2131 -48.85589,74.56436 -85.75687,104.37706 -13.35464,10.78936 -40.84822,29.05741 -53.9137,35.82287 l -9.91369,5.13341 -143.08631,0.35103 -143.08632,0.35102 0.008,26.31564 c 0.004,14.4736 0.6017,28.45486 1.32803,31.06945 1.79405,6.45814 9.37169,14.9911 16.29307,18.34714 l 5.7048,2.76614 -18.66667,-0.07 c -10.26667,-0.0385 -20.69272,-0.54838 -23.169,-1.13303 z"
         id="path70"
         sodipodi:nodetypes="ssscssssssssscsssssccccsscsss"
         transform="matrix(0.75079717,0,0,0.75079717,240.47225,-37.78261)" />
      <path
         style="fill:#999999"
         d="m 700.29677,150.01848 c -4.4315,-2.70227 -7.1419,-6.55494 -7.9416,-11.28831 -0.6428,-3.8045 0,-5.51845 8.3341,-22.35602 l 9.0303,-18.235616 -3.9311,-0.62862 c -2.7337,-0.43714 -5.1283,-1.82575 -7.8613,-4.55877 -6.1191,-6.11904 -6.5988,-13.84937 -1.2537,-20.20164 4.3184,-5.13212 7.3828,-5.84007 25.2787,-5.84007 18.3312,0 21.3816,0.8226 25.4943,6.87505 4.4268,6.51459 3.6207,10.54424 -5.9835,29.910616 l -8.4225,16.98351 3.7516,0.5999 c 7.8473,1.25484 14.0884,8.11727 14.0918,15.49476 0,4.8396 -3.8148,11.00181 -8.2007,13.23937 -3.2392,1.65248 -6.0095,1.89631 -21.5079,1.89305 -15.6589,-0.003 -18.1598,-0.22934 -20.8785,-1.88721 z m -101.3044,-8.60905 c 0,-0.55 4.9019,-10.675 10.8931,-22.5 5.9911,-11.825 10.893,-21.049996 10.893,-20.499996 0,0.55 -4.9019,10.674996 -10.893,22.499996 -5.9912,11.825 -10.8931,21.05 -10.8931,20.5 z"
         id="path62" />
      <path
         style="fill:#313942;fill-opacity:1"
         d="m 508.2865,235.004 c -5.84823,-2.65595 -8.83884,-7.26482 -8.79225,-13.54988 0.0322,-4.34894 1.372,-7.69821 9.71429,-24.28469 5.32229,-10.582 9.67689,-19.44193 9.67689,-19.68873 0,-0.2468 -1.9785,-0.74542 -4.39666,-1.10804 -6.44832,-0.96699 -10.42618,-3.80851 -12.77965,-9.12891 -3.339,-7.54835 -1.24042,-14.04346 6.16614,-19.08432 3.13248,-2.13194 4.27096,-2.25 21.69789,-2.25 16.31422,0 18.82742,0.22216 22.24672,1.96655 4.3304,2.20922 8.0656,8.58343 8.0656,13.76429 0,1.91788 -3.8121,10.76949 -10,23.21978 -5.50004,11.06621 -10.00004,20.32941 -10.00004,20.58488 0,0.25548 1.9125,0.4652 4.25,0.46605 8.05354,0.003 14.84514,5.65826 16.33554,13.60244 0.9998,5.32941 -2.946,12.3214 -8.5474,15.14601 -4.1274,2.08131 -5.7768,2.24835 -22.00003,2.22804 -14.9374,-0.0187 -18.14594,-0.29801 -21.63704,-1.88347 z m 93.95057,-61.15386 c -4.4318,-1.33054 -9.0011,-6.90628 -9.8688,-12.04256 -0.6871,-4.06683 -0.046,-5.61822 13.8984,-33.61593 8.0403,-16.14378 14.6188,-29.498116 14.6188,-29.676316 0,-0.17819 -3.8015,-0.56115 -8.4477,-0.85101 -13.0277,-0.81278 -18.5563,-5.40563 -18.5486,-15.40918 0,-6.52928 2.804,-10.93077 8.574,-13.48314 4.1598,-1.84006 6.288,-1.975632 26.4028,-1.68197 24.3033,0.3548 24.7814,0.4802 29.7695,7.80923 4.1905,6.15723 3.5258,8.33191 -12.1715,39.818456 l -14.4214,28.92741 9.3325,0.48815 c 10.2104,0.53407 14.1873,2.11086 17.9058,7.09948 2.8994,3.88971 2.9219,12.43532 0.043,16.29155 -5.0969,6.82676 -5.2668,6.86587 -30.7588,7.07809 -12.7487,0.10614 -24.5962,-0.23238 -26.3278,-0.75226 z"
         id="path58" />
      <path
         style="fill:#313942;fill-opacity:1"
         d="m 488.34281,370.04651 c -10.41278,-6.34991 -13.7026,-21.67527 -6.75946,-31.48831 4.62681,-6.53927 7.54659,-8.14877 14.78259,-8.14877 5.57182,0 6.78771,0.36734 10.10628,3.05329 12.06189,9.76249 10.583,30.13635 -2.68557,36.99779 -3.95313,2.04425 -11.75572,1.83508 -15.44384,-0.414 z"
         id="path52" />
      <path
         style="fill:#323e40"
         d="m 398.25457,337.34781 c -6.13624,-2.26625 -12.36914,-8.40081 -12.36914,-12.17399 0,-7.27851 7.01983,-9.77485 13.52809,-4.81076 5.20968,3.97361 10.08948,4.36407 14.47191,1.15796 5.43595,-3.97684 7.54937,-4.66464 10.82475,-3.52284 2.77465,0.96725 5.17525,4.41073 5.17525,7.42351 0,2.29147 -5.97598,8.43468 -10.40532,10.69649 -5.31304,2.71307 -15.59592,3.30877 -21.22554,1.22963 z m 177.6447,-0.33651 c -6.3566,-2.26453 -13.0138,-8.63456 -13.0138,-12.45236 0,-6.8508 8.005,-9.34742 13.945,-4.34922 3.7065,3.11885 7.0398,4.17132 10.4779,3.30841 1.3326,-0.33446 3.867,-1.82325 5.632,-3.30841 4.1619,-3.50195 9.4163,-3.67146 12.0739,-0.38951 2.6982,3.33211 2.3129,6.51654 -1.2842,10.61334 -6.6286,7.54964 -17.7347,10.17452 -27.8308,6.57775 z"
         id="path50" />
    </g>
  </g>
</svg>
