<?xml version="1.0" encoding="UTF-8" standalone="no"?>
<!-- Created with Inkscape (http://www.inkscape.org/) -->

<svg
   version="1.1"
   id="svg2"
   width="511.50421"
   height="511.49356"
   viewBox="0 0 511.50421 511.49356"
   sodipodi:docname="baguette.svg"
   inkscape:version="1.1.2 (b8e25be833, 2022-02-05)"
   xmlns:inkscape="http://www.inkscape.org/namespaces/inkscape"
   xmlns:sodipodi="http://sodipodi.sourceforge.net/DTD/sodipodi-0.dtd"
   xmlns="http://www.w3.org/2000/svg"
   xmlns:svg="http://www.w3.org/2000/svg">
  <defs
     id="defs6" />
  <sodipodi:namedview
     id="namedview4"
     pagecolor="#ffffff"
     bordercolor="#666666"
     borderopacity="1.0"
     inkscape:pageshadow="2"
     inkscape:pageopacity="0.0"
     inkscape:pagecheckerboard="0"
     showgrid="false"
     fit-margin-top="0"
     fit-margin-left="0"
     fit-margin-right="0"
     fit-margin-bottom="0"
     inkscape:zoom="0.28415473"
     inkscape:cx="-459.25683"
     inkscape:cy="-390.63225"
     inkscape:window-width="1920"
     inkscape:window-height="1009"
     inkscape:window-x="-8"
     inkscape:window-y="-8"
     inkscape:window-maximized="1"
     inkscape:current-layer="g8" />
  <g
     inkscape:groupmode="layer"
     inkscape:label="Image"
     id="g8"
     transform="translate(639.28895,-12.650652)">
    <g
       id="g66"
       transform="matrix(1.0009901,0,0,1.0009901,-639.53365,12.442078)">
      <path
         style="fill:#f3e44b"
         d="m 92.071232,369.63418 c -2.508666,-0.68872 -5.883666,-2.21341 -7.5,-3.3882 C 82.954897,365.0712 63.95488,352.34656 53.48811,339.77841 L 34.519962,317.0021 51.500386,299.99961 68.48081,282.99712 96.443087,301.04929 c 16.653933,10.75162 22.593263,32.9142 23.771043,35.42762 2.13855,4.56374 2.45671,11.97094 0.75775,17.64156 -3.38432,11.29587 -17.21846,18.72292 -28.900648,15.51571 z M 171.99158,283.4393 c -5.59915,-1.70041 -15.88322,0.96417 -35.30703,-23.78788 l -19.70488,-25.11022 17.25064,-17.27179 17.25063,-17.27179 23.57428,19.72932 c 25.85456,21.63767 27.89048,31.14501 27.86809,40.32835 -0.0217,8.88573 -5.37281,17.57731 -13.34587,21.67701 -4.62008,2.37561 -12.77709,3.16739 -17.58586,1.707 z m 79.93005,-81.80139 c -3.70559,-1.76853 -17.02645,-8.6155 -31.72811,-26.1161 l -20.1959,-24.04087 17.29003,-17.26885 17.29004,-17.26886 24.81684,19.47887 c 14.69753,11.53616 23.41171,30.73558 24.55342,33.12164 2.70044,5.64364 2.59436,15.69021 -0.22173,21 -6.27146,11.82497 -20.13826,16.66203 -31.80459,11.09417 z m 83,-84.06776 c -2.51342,-1.17778 -22.20167,-5.70727 -33.40576,-22.060234 l -18.51875,-27.029106 17.0027,-16.980627 17.00269,-16.980627 25.44331,17.94648 c 16.75373,11.817271 22.75316,30.02719 24.16541,32.932433 4.53374,9.326643 1.85485,21.472251 -6.26993,28.426761 -6.76291,5.78879 -17.6387,7.39106 -25.41967,3.74492 z"
         id="path74"
         sodipodi:nodetypes="ssscccsssssscccsssssscccsssssscccssss" />
      <path
         style="fill:#f8b457"
         d="M 48.370872,490.61545 C 36.876049,487.38693 30.399814,480.96463 22.818319,470.39023 6.8572789,448.12835 -0.91477811,422.1833 0.38431581,395.5 1.7479264,367.49153 11.280377,343.75788 29.766143,322.34589 l 4.62771,-5.36026 23.053074,22.87292 c 24.858219,24.66396 26.13882,25.56501 36.198528,25.46979 C 106.8354,365.20348 117,354.44178 117,340.60186 c 0,-8.37511 -1.85013,-10.87637 -25.781238,-34.85465 l -22.70803,-22.75279 24.212289,-24.21229 24.212289,-24.21229 22.28234,22.02126 c 13.2921,13.13634 23.89623,22.79348 26.28235,23.93522 5.64364,2.70044 15.69021,2.59436 21,-0.22173 11.50503,-6.10177 16.55032,-19.91309 11.4356,-31.30459 -1.44437,-3.21689 -8.35109,-10.84508 -24.22258,-26.75288 l -22.20211,-22.25288 24.24167,-24.24166 24.24166,-24.24167 22.25288,22.20211 c 15.9078,15.87149 23.53599,22.77821 26.75288,24.22258 11.3915,5.11472 25.20282,0.0694 31.30459,-11.4356 2.81609,-5.30979 2.92217,-15.35636 0.22173,-21 -1.14174,-2.38612 -10.79888,-12.99025 -23.93522,-26.28235 l -22.02126,-22.28234 24.21229,-24.212289 24.21229,-24.212289 22.75279,22.70803 C 329.72549,115.14987 332.22675,117 340.60186,117 c 13.83992,0 24.60162,-10.1646 24.72648,-23.354545 0.0952,-10.059001 -0.807,-11.341489 -25.45425,-36.182897 l -22.85737,-23.037441 7.24164,-6.037851 c 9.09546,-7.583505 14.50931,-11.248941 22.72855,-15.388306 40.17186,-20.2313229 88.31738,-16.2232086 124.05349,10.327454 13.24101,9.837604 18.81339,20.079113 19.70909,36.223436 0.59218,10.673785 2.79065,20.384912 -1.46217,29.464933 L 93.161622,483.49655 c -8.319157,5.81777 -16.486619,9.73874 -28.051647,10.11827 -7.166184,0.23517 -13.156471,-1.99313 -16.739103,-2.99937 z"
         id="path72"
         sodipodi:nodetypes="sssscsssscccssssscccssssscccsssscssssccss" />
      <path
         style="fill:#eb8c00"
         d="M 72.262656,510.55124 C 61.78593,508.16532 54.582596,503.6077 42.5,491.72013 c -9.506863,-9.35341 -10.335555,-10.41266 -6.105004,-7.8035 8.653519,5.337 13.827214,6.58704 27.105004,6.54895 10.653437,-0.0306 12.692565,-0.32772 18.171844,-2.64819 3.394515,-1.43757 8.119515,-3.97581 10.5,-5.64054 C 94.55233,480.51213 183.41219,392.15381 289.63821,285.82504 471.77496,103.5121 482.95239,92.124293 485.86569,85.904212 c 4.25282,-9.080021 5.47598,-15.680577 4.8838,-26.354362 -0.53462,-9.636085 -2.68836,-16.717887 -7.27782,-23.930484 -1.84719,-2.902962 0.59832,-0.871186 8.28175,6.880634 8.72976,8.807472 11.63458,12.494906 14.57361,18.5 7.21403,14.73989 7.22895,30.027992 0.0439,45 -3.53231,7.36056 -7.19625,11.09926 -197.06798,201.08895 -137.20715,137.29239 -195.07998,194.56546 -199.00932,196.94689 -11.375365,6.89419 -25.638218,9.33767 -38.030994,6.5154 z"
         id="path70"
         sodipodi:nodetypes="sssssssssssssssss" />
      <path
         style="fill:#433e4e"
         d="M 188.31429,340.68571 C 180.96341,333.33484 180,331.95276 180,328.75829 180,324.58745 183.59471,321 187.77398,321 c 3.57319,0 18.98657,15.29635 19.83433,19.68371 0.81509,4.21835 -3.00309,8.31629 -7.74857,8.31629 -2.71581,0 -4.55727,-1.32611 -11.54545,-8.31429 z M 247.75,293.03335 c -1.98999,-1.57644 -2.75,-3.07756 -2.75,-5.43162 0,-4.75241 3.2233,-7.22006 10.33069,-7.90883 C 269.42077,278.32744 280,266.76526 280,252.73149 c 0,-7.15468 8.68279,-10.47334 13.03335,-4.98149 1.89776,2.39559 2.12093,3.6665 1.73166,9.86148 -1.21158,19.28164 -17.8228,35.93833 -37.04516,37.14657 -6.31079,0.39668 -7.5661,0.17952 -9.96985,-1.7247 z m 90.75,-85.98841 c -1.1,-0.45556 -5.4875,-4.42536 -9.75,-8.82178 -8.44597,-8.71132 -9.28176,-11.00613 -5.67742,-15.5883 1.55582,-1.9779 2.97346,-2.63486 5.68571,-2.63486 3.19447,0 4.57655,0.96341 11.92742,8.31429 6.98818,6.98818 8.31429,8.82964 8.31429,11.54545 0,2.09729 -0.86135,4.09252 -2.45455,5.68571 -2.53858,2.53859 -4.60601,2.92391 -8.04545,1.49949 z"
         id="path68" />
    </g>
  </g>
</svg>
