<?xml version="1.0" encoding="UTF-8" standalone="no"?>
<!-- Created with Inkscape (http://www.inkscape.org/) -->

<svg
   version="1.1"
   id="svg2"
   width="36"
   height="36"
   viewBox="0 0 36 36"
   sodipodi:docname="bulb_36px.svg"
   inkscape:version="1.2.1 (9c6d41e410, 2022-07-14)"
   xml:space="preserve"
   xmlns:inkscape="http://www.inkscape.org/namespaces/inkscape"
   xmlns:sodipodi="http://sodipodi.sourceforge.net/DTD/sodipodi-0.dtd"
   xmlns="http://www.w3.org/2000/svg"
   xmlns:svg="http://www.w3.org/2000/svg"><defs
     id="defs6" /><sodipodi:namedview
     id="namedview4"
     pagecolor="#ffffff"
     bordercolor="#666666"
     borderopacity="1.0"
     inkscape:pageshadow="2"
     inkscape:pageopacity="0.0"
     inkscape:pagecheckerboard="0"
     showgrid="false"
     fit-margin-top="0"
     fit-margin-left="0"
     fit-margin-right="0"
     fit-margin-bottom="0"
     inkscape:zoom="11.313709"
     inkscape:cx="-14.805048"
     inkscape:cy="15.379572"
     inkscape:window-width="1920"
     inkscape:window-height="1137"
     inkscape:window-x="1912"
     inkscape:window-y="-8"
     inkscape:window-maximized="1"
     inkscape:current-layer="g8"
     inkscape:showpageshadow="2"
     inkscape:deskcolor="#d1d1d1" /><g
     inkscape:groupmode="layer"
     inkscape:label="Image"
     id="g8"
     transform="translate(-39.420037,-0.51233153)"><g
       id="g1703"
       transform="matrix(0.07032214,0,0,0.07032214,-3.1165121,20.710889)"><path
         style="fill:#e7edfd"
         d="M 791.57108,222.81565 C 767.27792,213.3188 760.11016,182.34656 777.97812,164.0798 l 4.08401,-4.17516 -4.37914,-1.17919 c -10.17444,-2.73969 -17.93226,-8.87027 -22.96055,-18.14447 -3.28703,-6.06262 -3.42984,-6.76319 -3.42984,-16.82601 0,-10.06282 0.14281,-10.76339 3.42984,-16.82601 3.60466,-6.64845 9.00618,-12.02712 15.37425,-15.30921 3.7758,-1.94604 3.79917,-1.99558 3.14295,-6.6627 -1.07589,-7.6518 -5.2719,-19.20959 -9.69409,-26.70208 C 759.29876,51.05965 752.84693,44.1679 737.38265,30.30815 707.01662,3.0928 687.38637,-33.47507 679.64627,-77.24503 c -1.74038,-9.84176 -1.72937,-43.89169 0.0176,-54.5 10.14791,-61.62174 48.40712,-112.73526 103.82141,-138.70327 11.29336,-5.29224 29.60869,-11.19351 43.40736,-13.98601 9.99622,-2.02298 14.23204,-2.30181 34.39995,-2.26446 21.13502,0.0392 24.03755,0.26321 35.79567,2.7632 23.55251,5.00771 50.09188,16.60587 69.70433,30.46198 12.31814,8.70271 34.53881,30.92633 43.22281,43.22856 25.3041,35.84711 37.3823,81.90928 32.7218,124.78941 -4.7774,43.95579 -25.8703,86.1445 -57.21269,114.43322 -16.33861,14.74677 -23.28097,22.1408 -27.48894,29.27737 -4.57439,7.758 -8.72328,19.34044 -9.67154,27 l -0.619,5 4.03031,1.83548 c 5.63965,2.5684 12.9002,10.16716 15.83062,16.56805 3.00648,6.56702 3.94131,16.78215 2.20004,24.04055 -2.72005,11.33846 -13.56081,22.49372 -24.51341,25.22457 -2.75,0.68567 -5.19693,1.38766 -5.43763,1.55998 -0.2407,0.17231 1.42396,2.21637 3.69925,4.54234 15.01831,15.35285 12.90835,40.32708 -4.53861,53.72071 -9.26117,7.10958 -7.38724,6.94465 -78.72301,6.9289 -59.82589,-0.0132 -64.30794,-0.13451 -68.72152,-1.8599 z M 691.52876,88.50497 c -2.73882,-2.07978 -3.68619,-5.97044 -2.26287,-9.29321 1.69818,-3.96443 14.82653,-16.45679 17.29462,-16.45679 1.07931,0 3.14806,0.93266 4.59723,2.07258 2.00363,1.57606 2.62985,2.95357 2.61394,5.75 -0.0181,3.17758 -1.01029,4.7308 -7.29995,11.42742 -5.95169,6.33679 -7.82769,7.75 -10.28794,7.75 -1.65491,0 -3.74968,-0.5625 -4.65503,-1.25 z m 330.22844,-0.0318 c -0.8445,-0.67001 -4.3582,-4.27247 -7.8082,-8.00548 -5.5993,-6.05863 -6.2396,-7.17518 -5.9645,-10.40065 0.3904,-4.57842 4.3454,-7.896 8.246,-6.91701 2.7007,0.67783 14.0894,11.95727 16.3353,16.1786 3.4124,6.41369 -5.1355,13.64554 -10.8086,9.14454 z M 630.42746,13.68239 c -3.41619,-2.68718 -3.59758,-7.69926 -0.38486,-10.63437 3.17913,-2.90443 21.99857,-12.29305 24.64136,-12.29305 2.93647,0 7.10864,4.31017 7.10864,7.34376 0,1.33907 -0.7875,3.36138 -1.75,4.49401 -2.20872,2.59915 -22.23306,13.16223 -24.95152,13.16223 -1.11582,0 -3.21445,-0.93266 -4.66362,-2.07258 z M 1073.3355,9.80832 c -11.5345,-6.21026 -13.5429,-7.95869 -13.5429,-11.78993 0,-2.96614 4.2057,-7.26342 7.1086,-7.26342 2.6428,0 21.4623,9.38862 24.6414,12.29305 4.6526,4.25054 1.2099,12.75418 -5.1349,12.68333 -1.1633,-0.013 -7.0458,-2.67835 -13.0722,-5.92303 z M 607.9064,-93.99503 c -1.15928,-0.9625 -2.38442,-3.18267 -2.72253,-4.93371 -0.49588,-2.56806 -0.11849,-3.67998 1.95153,-5.75 l 2.56629,-2.56629 h 18.47288 18.47287 l 2.07258,2.63486 c 2.74937,3.49526 2.61773,6.9109 -0.38197,9.91059 -2.42358,2.42358 -2.6808,2.45455 -20.38921,2.45455 -15.61101,0 -18.20776,-0.22673 -20.04244,-1.75 z m 465.3408,-0.70455 c -2.9998,-2.99969 -3.1314,-6.41533 -0.382,-9.91059 l 2.0726,-2.63486 h 18.4728 18.4729 l 2.5663,2.56629 c 2.07,2.07002 2.4474,3.18194 1.9515,5.75 -1.2008,6.21871 -2.7846,6.68371 -22.7649,6.68371 -17.7084,0 -17.9657,-0.031 -20.3892,-2.45455 z M 636.85774,-195.7788 c -12.75957,-6.71412 -14.06514,-7.83924 -14.06514,-12.12122 0,-4.01541 2.95409,-7.34501 6.51666,-7.34501 2.73022,0 23.38077,9.96656 25.20508,12.16471 0.61461,0.74056 1.42459,2.57014 1.79996,4.06572 0.55242,2.20102 0.10597,3.29575 -2.34269,5.7444 -1.66384,1.66384 -3.84728,3.01551 -4.85209,3.00371 -1.0048,-0.0118 -6.52261,-2.49235 -12.26178,-5.51231 z m 430.75586,2.5086 c -2.4487,-2.44865 -2.8951,-3.54338 -2.3427,-5.7444 1.0457,-4.16649 2.111,-5.00775 13.7029,-10.82131 11.7262,-5.8809 14.7655,-6.46239 17.8188,-3.40912 3.2437,3.2437 2.6766,8.38958 -1.25,11.34162 -4.1649,3.13122 -21.212,11.65838 -23.3069,11.65838 -0.8783,0 -2.9583,-1.36133 -4.6221,-3.02517 z m -371.03743,-74.22483 c -3.78433,-3.9875 -7.29763,-8.2625 -7.80734,-9.5 -1.95081,-4.73635 3.45397,-11.1118 8.37332,-9.87712 1.30027,0.32635 5.57854,3.97731 9.50729,8.11325 5.91553,6.22752 7.14316,8.09094 7.14316,10.84257 0,4.11138 -3.47225,7.6713 -7.48236,7.6713 -2.24286,0 -4.32581,-1.5514 -9.73407,-7.25 z m 313.39073,4.93555 c -4.0714,-4.33386 -3.0076,-7.80233 4.9689,-16.19942 3.9287,-4.13594 8.207,-7.7869 9.5072,-8.11325 4.913,-1.23307 10.3163,5.13307 8.3833,9.87712 -0.5042,1.2375 -3.9996,5.5125 -7.7675,9.5 -7.7024,8.15143 -11.0441,9.24425 -15.0919,4.93555 z"
         id="path1723" /><path
         style="fill:#d1daf9"
         d="m 794.07864,223.30422 c -25.84004,-8.07563 -34.37624,-39.06531 -16.22981,-58.9204 l 4.91504,-5.37783 -4.0774,-0.652 c -9.61812,-1.538 -19.90216,-9.87305 -24.5097,-19.86471 -2.45207,-5.31741 -2.87489,-7.48444 -2.87489,-14.73431 0,-7.24987 0.42282,-9.4169 2.87489,-14.73431 3.12281,-6.77197 10.07156,-14.08477 16.12788,-16.97282 3.61071,-1.72184 3.61525,-1.73221 2.95688,-6.75868 -1.02035,-7.79012 -5.16602,-19.32522 -9.71598,-27.03419 C 759.29876,51.05965 752.84693,44.1679 737.38265,30.30815 707.01662,3.0928 687.38637,-33.47507 679.64627,-77.24503 c -1.74038,-9.84176 -1.72937,-43.89169 0.0176,-54.5 10.14791,-61.62174 48.40712,-112.73526 103.82141,-138.70327 11.29336,-5.29224 29.60869,-11.19351 43.40736,-13.98601 9.99622,-2.02298 14.23204,-2.30181 34.39995,-2.26446 21.13502,0.0392 24.03755,0.26321 35.79567,2.7632 23.55251,5.00771 50.09188,16.60587 69.70433,30.46198 12.31814,8.70271 34.53881,30.92633 43.22281,43.22856 3.6883,5.225 9.8143,15.575 13.6134,23 32.998,64.49194 24.9078,141.12211 -20.8967,197.9311 -7.57612,9.39632 -13.53026,15.37757 -29.67362,29.80876 -13.04108,11.65795 -21.5073,26.49773 -24.31479,42.61952 -1.1027,6.3322 -1.33662,6.75775 -3.31871,6.03737 -1.17281,-0.42625 -20.64123,-0.93775 -43.26315,-1.13667 -39.82738,-0.35021 -41.3326,-0.29412 -47.5,1.77012 -32.99628,11.04387 -33.09797,56.82702 -0.15079,67.88308 5.8815,1.97365 8.33158,2.08672 45.21521,2.08672 H 938.723 l 3.3767,2.96478 c 1.85718,1.63063 4.778,5.59389 6.49069,8.80724 8.84597,16.59672 4.09602,36.6687 -11.04563,46.67583 -9.86859,6.52217 -10.32074,6.55966 -78.21227,6.48525 -47.53478,-0.0521 -61.97224,-0.35827 -65.25386,-1.38385 z M 691.52876,88.50497 c -2.73882,-2.07978 -3.68619,-5.97044 -2.26287,-9.29321 1.69818,-3.96443 14.82653,-16.45679 17.29462,-16.45679 1.07931,0 3.14806,0.93266 4.59723,2.07258 2.00363,1.57606 2.62985,2.95357 2.61394,5.75 -0.0181,3.17758 -1.01029,4.7308 -7.29995,11.42742 -5.95169,6.33679 -7.82769,7.75 -10.28794,7.75 -1.65491,0 -3.74968,-0.5625 -4.65503,-1.25 z m 330.22844,-0.0318 c -0.8445,-0.67001 -4.3582,-4.27247 -7.8082,-8.00548 -5.5993,-6.05863 -6.2396,-7.17518 -5.9645,-10.40065 0.3904,-4.57842 4.3454,-7.896 8.246,-6.91701 2.7007,0.67783 14.0894,11.95727 16.3353,16.1786 3.4124,6.41369 -5.1355,13.64554 -10.8086,9.14454 z M 630.42746,13.68239 c -3.41619,-2.68718 -3.59758,-7.69926 -0.38486,-10.63437 3.17913,-2.90443 21.99857,-12.29305 24.64136,-12.29305 2.93647,0 7.10864,4.31017 7.10864,7.34376 0,1.33907 -0.7875,3.36138 -1.75,4.49401 -2.20872,2.59915 -22.23306,13.16223 -24.95152,13.16223 -1.11582,0 -3.21445,-0.93266 -4.66362,-2.07258 z M 1073.3355,9.80832 c -11.5345,-6.21026 -13.5429,-7.95869 -13.5429,-11.78993 0,-2.96614 4.2057,-7.26342 7.1086,-7.26342 2.6428,0 21.4623,9.38862 24.6414,12.29305 4.6526,4.25054 1.2099,12.75418 -5.1349,12.68333 -1.1633,-0.013 -7.0458,-2.67835 -13.0722,-5.92303 z M 607.9064,-93.99503 c -1.15928,-0.9625 -2.38442,-3.18267 -2.72253,-4.93371 -0.49588,-2.56806 -0.11849,-3.67998 1.95153,-5.75 l 2.56629,-2.56629 h 18.47288 18.47287 l 2.07258,2.63486 c 2.74937,3.49526 2.61773,6.9109 -0.38197,9.91059 -2.42358,2.42358 -2.6808,2.45455 -20.38921,2.45455 -15.61101,0 -18.20776,-0.22673 -20.04244,-1.75 z m 465.3408,-0.70455 c -2.9998,-2.99969 -3.1314,-6.41533 -0.382,-9.91059 l 2.0726,-2.63486 h 18.4728 18.4729 l 2.5663,2.56629 c 2.07,2.07002 2.4474,3.18194 1.9515,5.75 -1.2008,6.21871 -2.7846,6.68371 -22.7649,6.68371 -17.7084,0 -17.9657,-0.031 -20.3892,-2.45455 z M 636.85774,-195.7788 c -12.75957,-6.71412 -14.06514,-7.83924 -14.06514,-12.12122 0,-4.01541 2.95409,-7.34501 6.51666,-7.34501 2.73022,0 23.38077,9.96656 25.20508,12.16471 0.61461,0.74056 1.42459,2.57014 1.79996,4.06572 0.55242,2.20102 0.10597,3.29575 -2.34269,5.7444 -1.66384,1.66384 -3.84728,3.01551 -4.85209,3.00371 -1.0048,-0.0118 -6.52261,-2.49235 -12.26178,-5.51231 z m 430.75586,2.5086 c -2.4487,-2.44865 -2.8951,-3.54338 -2.3427,-5.7444 1.0457,-4.16649 2.111,-5.00775 13.7029,-10.82131 11.7262,-5.8809 14.7655,-6.46239 17.8188,-3.40912 3.2437,3.2437 2.6766,8.38958 -1.25,11.34162 -4.1649,3.13122 -21.212,11.65838 -23.3069,11.65838 -0.8783,0 -2.9583,-1.36133 -4.6221,-3.02517 z m -371.03743,-74.22483 c -3.78433,-3.9875 -7.29763,-8.2625 -7.80734,-9.5 -1.95081,-4.73635 3.45397,-11.1118 8.37332,-9.87712 1.30027,0.32635 5.57854,3.97731 9.50729,8.11325 5.91553,6.22752 7.14316,8.09094 7.14316,10.84257 0,4.11138 -3.47225,7.6713 -7.48236,7.6713 -2.24286,0 -4.32581,-1.5514 -9.73407,-7.25 z m 313.39073,4.93555 c -4.0714,-4.33386 -3.0076,-7.80233 4.9689,-16.19942 3.9287,-4.13594 8.207,-7.7869 9.5072,-8.11325 4.913,-1.23307 10.3163,5.13307 8.3833,9.87712 -0.5042,1.2375 -3.9996,5.5125 -7.7675,9.5 -7.7024,8.15143 -11.0441,9.24425 -15.0919,4.93555 z"
         id="path1721" /><path
         style="fill:#fbe5ac"
         d="m 794.82551,223.1541 c -10.21937,-2.7464 -17.58022,-8.80587 -22.82754,-18.79169 -2.38922,-4.54676 -2.68503,-6.2052 -2.69461,-15.10744 -0.009,-8.74029 0.32281,-10.71148 2.6372,-15.64796 1.45638,-3.10638 4.49388,-7.49388 6.75,-9.75 l 4.10204,-4.10204 h 31.34516 31.34517 l -3.85478,4.05221 c -2.12012,2.22872 -5.08795,6.39122 -6.59516,9.25 -2.48317,4.70992 -2.74039,6.18333 -2.74039,15.69779 0,10.06282 0.14281,10.76339 3.42984,16.82601 4.9729,9.17204 13.42657,15.87649 22.80463,18.08594 2.46273,0.58021 -6.95986,0.89913 -27.23447,0.92179 -24.20681,0.0271 -32.19803,-0.28733 -36.46709,-1.43461 z M 691.52876,88.50497 c -2.73882,-2.07978 -3.68619,-5.97044 -2.26287,-9.29321 1.69818,-3.96443 14.82653,-16.45679 17.29462,-16.45679 1.07931,0 3.14806,0.93266 4.59723,2.07258 2.00363,1.57606 2.62985,2.95357 2.61394,5.75 -0.0181,3.17758 -1.01029,4.7308 -7.29995,11.42742 -5.95169,6.33679 -7.82769,7.75 -10.28794,7.75 -1.65491,0 -3.74968,-0.5625 -4.65503,-1.25 z m 81.30733,-5.42168 C 770.0658,67.17511 761.4941,52.0369 749.00252,40.99156 727.8312,22.27142 718.68961,12.19261 707.51891,-4.74503 c -13.84305,-20.98959 -22.95498,-44.6908 -27.87264,-72.5 -1.74038,-9.84176 -1.72937,-43.89169 0.0176,-54.5 10.14791,-61.62174 48.40712,-112.73526 103.82141,-138.70327 11.29336,-5.29224 29.60869,-11.19351 43.40736,-13.98601 9.99622,-2.02298 14.23204,-2.30181 34.39995,-2.26446 21.13502,0.0392 24.03755,0.26321 35.79567,2.7632 23.55251,5.00771 50.09188,16.60587 69.70433,30.46198 12.31814,8.70271 34.53881,30.92633 43.22281,43.22856 3.6883,5.225 9.8143,15.575 13.6134,23 32.998,64.49194 24.9078,141.12211 -20.8967,197.9311 -7.57612,9.39632 -13.53026,15.37757 -29.67362,29.80876 -13.02247,11.64131 -21.50762,26.49956 -24.30423,42.55888 l -1.17576,6.75172 -3.64295,-0.77523 C 939.09176,87.99943 781.17971,88.02744 777.1548,89.0598 l -3.1378,0.80481 -1.18091,-6.7813 z m 248.92111,5.38988 c -0.8445,-0.67001 -4.3582,-4.27247 -7.8082,-8.00548 -5.5993,-6.05863 -6.2396,-7.17518 -5.9645,-10.40065 0.3904,-4.57842 4.3454,-7.896 8.246,-6.91701 2.7007,0.67783 14.0894,11.95727 16.3353,16.1786 3.4124,6.41369 -5.1355,13.64554 -10.8086,9.14454 z M 630.42746,13.68239 c -3.41619,-2.68718 -3.59758,-7.69926 -0.38486,-10.63437 3.17913,-2.90443 21.99857,-12.29305 24.64136,-12.29305 2.93647,0 7.10864,4.31017 7.10864,7.34376 0,1.33907 -0.7875,3.36138 -1.75,4.49401 -2.20872,2.59915 -22.23306,13.16223 -24.95152,13.16223 -1.11582,0 -3.21445,-0.93266 -4.66362,-2.07258 z M 1073.3355,9.80832 c -11.5345,-6.21026 -13.5429,-7.95869 -13.5429,-11.78993 0,-2.96614 4.2057,-7.26342 7.1086,-7.26342 2.6428,0 21.4623,9.38862 24.6414,12.29305 4.6526,4.25054 1.2099,12.75418 -5.1349,12.68333 -1.1633,-0.013 -7.0458,-2.67835 -13.0722,-5.92303 z M 607.9064,-93.99503 c -1.15928,-0.9625 -2.38442,-3.18267 -2.72253,-4.93371 -0.49588,-2.56806 -0.11849,-3.67998 1.95153,-5.75 l 2.56629,-2.56629 h 18.47288 18.47287 l 2.07258,2.63486 c 2.74937,3.49526 2.61773,6.9109 -0.38197,9.91059 -2.42358,2.42358 -2.6808,2.45455 -20.38921,2.45455 -15.61101,0 -18.20776,-0.22673 -20.04244,-1.75 z m 465.3408,-0.70455 c -2.9998,-2.99969 -3.1314,-6.41533 -0.382,-9.91059 l 2.0726,-2.63486 h 18.4728 18.4729 l 2.5663,2.56629 c 2.07,2.07002 2.4474,3.18194 1.9515,5.75 -1.2008,6.21871 -2.7846,6.68371 -22.7649,6.68371 -17.7084,0 -17.9657,-0.031 -20.3892,-2.45455 z M 636.85774,-195.7788 c -12.75957,-6.71412 -14.06514,-7.83924 -14.06514,-12.12122 0,-4.01541 2.95409,-7.34501 6.51666,-7.34501 2.73022,0 23.38077,9.96656 25.20508,12.16471 0.61461,0.74056 1.42459,2.57014 1.79996,4.06572 0.55242,2.20102 0.10597,3.29575 -2.34269,5.7444 -1.66384,1.66384 -3.84728,3.01551 -4.85209,3.00371 -1.0048,-0.0118 -6.52261,-2.49235 -12.26178,-5.51231 z m 430.75586,2.5086 c -2.4487,-2.44865 -2.8951,-3.54338 -2.3427,-5.7444 1.0457,-4.16649 2.111,-5.00775 13.7029,-10.82131 11.7262,-5.8809 14.7655,-6.46239 17.8188,-3.40912 3.2437,3.2437 2.6766,8.38958 -1.25,11.34162 -4.1649,3.13122 -21.212,11.65838 -23.3069,11.65838 -0.8783,0 -2.9583,-1.36133 -4.6221,-3.02517 z m -371.03743,-74.22483 c -3.78433,-3.9875 -7.29763,-8.2625 -7.80734,-9.5 -1.95081,-4.73635 3.45397,-11.1118 8.37332,-9.87712 1.30027,0.32635 5.57854,3.97731 9.50729,8.11325 5.91553,6.22752 7.14316,8.09094 7.14316,10.84257 0,4.11138 -3.47225,7.6713 -7.48236,7.6713 -2.24286,0 -4.32581,-1.5514 -9.73407,-7.25 z m 313.39073,4.93555 c -4.0714,-4.33386 -3.0076,-7.80233 4.9689,-16.19942 3.9287,-4.13594 8.207,-7.7869 9.5072,-8.11325 4.913,-1.23307 10.3163,5.13307 8.3833,9.87712 -0.5042,1.2375 -3.9996,5.5125 -7.7675,9.5 -7.7024,8.15143 -11.0441,9.24425 -15.0919,4.93555 z"
         id="path1719" /><path
         style="fill:#bdc7f6"
         d="m 794.82551,223.1541 c -10.21937,-2.7464 -17.58022,-8.80587 -22.82754,-18.79169 -2.38922,-4.54676 -2.68503,-6.2052 -2.69461,-15.10744 -0.009,-8.74029 0.32281,-10.71148 2.6372,-15.64796 1.45638,-3.10638 4.49388,-7.49388 6.75,-9.75 l 4.10204,-4.10204 h 31.34516 31.34517 l -3.85478,4.05221 c -2.12012,2.22872 -5.08795,6.39122 -6.59516,9.25 -2.48317,4.70992 -2.74039,6.18333 -2.74039,15.69779 0,10.06282 0.14281,10.76339 3.42984,16.82601 4.9729,9.17204 13.42657,15.87649 22.80463,18.08594 2.46273,0.58021 -6.95986,0.89913 -27.23447,0.92179 -24.20681,0.0271 -32.19803,-0.28733 -36.46709,-1.43461 z M 693.03447,88.71148 c -2.81836,-1.12089 -4.69578,-5.06809 -3.86821,-8.13277 0.34512,-1.27806 3.75566,-5.58624 7.57897,-9.57374 7.73425,-8.06639 11.13911,-9.21465 15.00841,-5.06144 3.1222,3.35129 2.48256,6.17897 -2.82972,12.50952 -8.43388,10.05051 -11.47519,12.01402 -15.88945,10.25843 z m 79.64912,-7.25143 c -1.90125,-9.81777 -7.87164,-23.06747 -13.67978,-30.35869 -2.25793,-2.83449 -8.96666,-9.481 -14.90827,-14.77002 -33.05996,-29.42885 -52.82011,-62.00489 -61.68561,-101.69319 -9.1545,-40.98209 -3.81402,-83.08143 15.39797,-121.38318 9.46847,-18.87672 17.86891,-30.37863 33.98445,-46.53166 15.87917,-15.91611 27.26047,-24.28208 46.03631,-33.83957 45.67304,-23.249 99.80706,-26.54417 145.10441,-8.83257 46.42487,18.15245 79.57873,47.80818 100.84423,90.2038 7.8332,15.61662 12.6045,29.36144 16.1418,46.5 2.1244,10.29313 2.3683,14.01869 2.3239,35.5 -0.043,21.01091 -0.3303,25.30772 -2.304,34.5 -8.5078,39.62475 -27.6497,73.2035 -56.74944,99.54978 -15.45184,13.98977 -21.0614,20.03573 -25.46163,27.44242 -4.91755,8.27746 -8.63918,18.49905 -9.51927,26.14505 l -0.64888,5.63725 -3.29562,-0.90996 c -3.94937,-1.09048 -166.28204,-0.71245 -168.47156,0.39232 -1.22075,0.61595 -1.79955,-0.78996 -3.10901,-7.55178 z m 250.57001,7.33249 c -2.8746,-1.15184 -15.461,-15.7699 -15.461,-17.95668 0,-2.84888 3.8793,-7.08089 6.4908,-7.08089 3.9381,0 5.207,0.91623 11.978,8.64897 4.6999,5.36757 6.5312,8.24154 6.5312,10.25001 0,4.48028 -5.2484,7.85779 -9.539,6.13859 z M 629.86518,12.12011 c -2.36016,-3.00046 -2.41661,-3.33008 -1.14368,-6.67812 1.13476,-2.98465 21.33669,-13.68702 25.83578,-13.68702 3.66748,0 6.23532,2.7484 6.23532,6.67375 0,3.77152 -1.2163,4.80746 -13.12377,11.17772 -11.07233,5.92348 -14.71675,6.43803 -17.80365,2.51367 z M 1073.6897,9.50114 c -5.2816,-2.88539 -10.3441,-5.86377 -11.25,-6.61861 -2.2154,-1.84598 -2.1089,-7.39967 0.1816,-9.47257 3.0224,-2.73517 6.7958,-1.92926 18.1427,3.87482 8.662,4.43073 11.0604,6.1328 12.0673,8.56368 1.1019,2.66017 1.0107,3.36479 -0.7403,5.7202 -3.3107,4.45328 -7.282,4.00708 -18.4013,-2.06752 z M 607.44759,-95.07377 c -2.58031,-2.85121 -2.11316,-7.6657 0.97987,-10.09868 2.42714,-1.90919 3.95376,-2.07258 19.36514,-2.07258 15.41138,0 16.938,0.16339 19.36514,2.07258 3.19407,2.51246 3.60431,7.74011 0.80612,10.27243 -1.56306,1.41456 -4.51875,1.65499 -20.34501,1.65499 -16.66827,0 -18.68145,-0.18252 -20.17126,-1.82874 z m 466.00001,0 c -2.5803,-2.85121 -2.1132,-7.6657 0.9799,-10.09868 2.4271,-1.90919 3.9537,-2.07258 19.3651,-2.07258 15.4114,0 16.938,0.16339 19.3651,2.07258 3.1941,2.51246 3.6044,7.74011 0.8062,10.27243 -1.5631,1.41456 -4.5188,1.65499 -20.345,1.65499 -16.6683,0 -18.6815,-0.18252 -20.1713,-1.82874 z M 635.58612,-197.0238 c -6.08022,-3.24909 -11.23668,-6.70518 -11.9335,-7.99836 -1.64975,-3.06165 -0.12826,-7.21498 3.36039,-9.1731 2.57293,-1.44415 3.15324,-1.28825 12.91262,3.46906 12.70298,6.19219 15.86697,8.69876 15.86697,12.57006 0,3.67989 -3.17752,6.91971 -6.75,6.88234 -1.5125,-0.0158 -7.56792,-2.60332 -13.45648,-5.75 z m 432.20648,3.77877 c -2.938,-2.93803 -2.5809,-7.34114 0.8242,-10.16111 1.5533,-1.28639 7.4225,-4.58042 13.0428,-7.32006 9.7594,-4.75731 10.3397,-4.91321 12.9126,-3.46906 3.4876,1.95754 5.0099,6.11096 3.362,9.1731 -1.5017,2.79051 -21.86,13.77713 -25.5292,13.77713 -1.4368,0 -3.5124,-0.9 -4.6124,-2 z m -363.6099,-68.0514 c -1.12956,-0.41785 -5.04944,-4.06472 -8.71085,-8.10416 -7.25323,-8.00211 -8.27623,-11.24746 -4.67925,-14.84444 3.92889,-3.92889 7.41147,-2.71382 15.04737,5.25 3.82331,3.9875 7.24593,8.34382 7.60582,9.68071 1.36276,5.06231 -4.21098,9.88679 -9.26309,8.01789 z m 308.6249,0.0921 c -3.1615,-0.79363 -5.53,-4.90851 -4.6682,-8.11002 0.3599,-1.33689 3.7825,-5.69321 7.6058,-9.68071 7.6359,-7.96382 11.1185,-9.17889 15.0474,-5.25 3.1787,3.17867 2.4637,6.34363 -2.8687,12.69808 -8.2049,9.77762 -10.6642,11.46028 -15.1163,10.34265 z"
         id="path1717" /><path
         style="fill:#fae19e"
         d="m 693.03447,88.71148 c -2.81836,-1.12089 -4.69578,-5.06809 -3.86821,-8.13277 0.34512,-1.27806 3.75566,-5.58624 7.57897,-9.57374 7.73425,-8.06639 11.13911,-9.21465 15.00841,-5.06144 3.1222,3.35129 2.48256,6.17897 -2.82972,12.50952 -8.43388,10.05051 -11.47519,12.01402 -15.88945,10.25843 z m 79.64912,-7.25143 c -1.90125,-9.81777 -7.87164,-23.06747 -13.67978,-30.35869 -2.25793,-2.83449 -8.96666,-9.481 -14.90827,-14.77002 -33.05996,-29.42885 -52.82011,-62.00489 -61.68561,-101.69319 -9.1545,-40.98209 -3.81402,-83.08143 15.39797,-121.38318 9.46847,-18.87672 17.86891,-30.37863 33.98445,-46.53166 15.87917,-15.91611 27.26047,-24.28208 46.03631,-33.83957 45.67304,-23.249 99.80706,-26.54417 145.10441,-8.83257 46.42487,18.15245 79.57873,47.80818 100.84423,90.2038 7.8332,15.61662 12.6045,29.36144 16.1418,46.5 2.1244,10.29313 2.3683,14.01869 2.3239,35.5 -0.043,21.01091 -0.3303,25.30772 -2.304,34.5 -8.5078,39.62475 -27.6497,73.2035 -56.74944,99.54978 -15.45184,13.98977 -21.0614,20.03573 -25.46163,27.44242 -4.91755,8.27746 -8.63918,18.49905 -9.51927,26.14505 l -0.64888,5.63725 -3.29562,-0.90996 c -3.94937,-1.09048 -166.28204,-0.71245 -168.47156,0.39232 -1.22075,0.61595 -1.79955,-0.78996 -3.10901,-7.55178 z m 250.57001,7.33249 c -2.8746,-1.15184 -15.461,-15.7699 -15.461,-17.95668 0,-2.84888 3.8793,-7.08089 6.4908,-7.08089 3.9381,0 5.207,0.91623 11.978,8.64897 4.6999,5.36757 6.5312,8.24154 6.5312,10.25001 0,4.48028 -5.2484,7.85779 -9.539,6.13859 z M 629.86518,12.12011 c -2.36016,-3.00046 -2.41661,-3.33008 -1.14368,-6.67812 1.13476,-2.98465 21.33669,-13.68702 25.83578,-13.68702 3.66748,0 6.23532,2.7484 6.23532,6.67375 0,3.77152 -1.2163,4.80746 -13.12377,11.17772 -11.07233,5.92348 -14.71675,6.43803 -17.80365,2.51367 z M 1073.6897,9.50114 c -5.2816,-2.88539 -10.3441,-5.86377 -11.25,-6.61861 -2.2154,-1.84598 -2.1089,-7.39967 0.1816,-9.47257 3.0224,-2.73517 6.7958,-1.92926 18.1427,3.87482 8.662,4.43073 11.0604,6.1328 12.0673,8.56368 1.1019,2.66017 1.0107,3.36479 -0.7403,5.7202 -3.3107,4.45328 -7.282,4.00708 -18.4013,-2.06752 z M 607.44759,-95.07377 c -2.58031,-2.85121 -2.11316,-7.6657 0.97987,-10.09868 2.42714,-1.90919 3.95376,-2.07258 19.36514,-2.07258 15.41138,0 16.938,0.16339 19.36514,2.07258 3.19407,2.51246 3.60431,7.74011 0.80612,10.27243 -1.56306,1.41456 -4.51875,1.65499 -20.34501,1.65499 -16.66827,0 -18.68145,-0.18252 -20.17126,-1.82874 z m 466.00001,0 c -2.5803,-2.85121 -2.1132,-7.6657 0.9799,-10.09868 2.4271,-1.90919 3.9537,-2.07258 19.3651,-2.07258 15.4114,0 16.938,0.16339 19.3651,2.07258 3.1941,2.51246 3.6044,7.74011 0.8062,10.27243 -1.5631,1.41456 -4.5188,1.65499 -20.345,1.65499 -16.6683,0 -18.6815,-0.18252 -20.1713,-1.82874 z M 635.58612,-197.0238 c -6.08022,-3.24909 -11.23668,-6.70518 -11.9335,-7.99836 -1.64975,-3.06165 -0.12826,-7.21498 3.36039,-9.1731 2.57293,-1.44415 3.15324,-1.28825 12.91262,3.46906 12.70298,6.19219 15.86697,8.69876 15.86697,12.57006 0,3.67989 -3.17752,6.91971 -6.75,6.88234 -1.5125,-0.0158 -7.56792,-2.60332 -13.45648,-5.75 z m 432.20648,3.77877 c -2.938,-2.93803 -2.5809,-7.34114 0.8242,-10.16111 1.5533,-1.28639 7.4225,-4.58042 13.0428,-7.32006 9.7594,-4.75731 10.3397,-4.91321 12.9126,-3.46906 3.4876,1.95754 5.0099,6.11096 3.362,9.1731 -1.5017,2.79051 -21.86,13.77713 -25.5292,13.77713 -1.4368,0 -3.5124,-0.9 -4.6124,-2 z m -363.6099,-68.0514 c -1.12956,-0.41785 -5.04944,-4.06472 -8.71085,-8.10416 -7.25323,-8.00211 -8.27623,-11.24746 -4.67925,-14.84444 3.92889,-3.92889 7.41147,-2.71382 15.04737,5.25 3.82331,3.9875 7.24593,8.34382 7.60582,9.68071 1.36276,5.06231 -4.21098,9.88679 -9.26309,8.01789 z m 308.6249,0.0921 c -3.1615,-0.79363 -5.53,-4.90851 -4.6682,-8.11002 0.3599,-1.33689 3.7825,-5.69321 7.6058,-9.68071 7.6359,-7.96382 11.1185,-9.17889 15.0474,-5.25 3.1787,3.17867 2.4637,6.34363 -2.8687,12.69808 -8.2049,9.77762 -10.6642,11.46028 -15.1163,10.34265 z"
         id="path1715" /><path
         style="fill:#fda0aa"
         d="m 773.36533,83.90148 c -0.87392,-7.45209 -6.18018,-21.23266 -10.9209,-28.36206 -4.45759,-6.70362 -9.88478,-12.40218 -21.89734,-22.99227 -40.36828,-35.58806 -61.93402,-83.42334 -61.89591,-137.29218 0.0263,-37.11703 10.19258,-71.06531 30.24558,-100.99865 28.66574,-42.78968 71.70532,-70.30099 123.89584,-79.19541 13.42894,-2.28859 42.13759,-2.26547 56.20634,0.0453 9.72922,1.59799 27.38418,5.90599 28.41072,6.93253 0.22998,0.22997 -4.70356,2.53902 -10.9634,5.13122 -39.76559,16.46687 -74.77274,49.60052 -93.66511,88.65235 l -2.20955,4.5673 3.14783,3.4327 c 3.59359,3.91881 6.47455,12.48531 5.50201,16.36021 -1.54035,6.13725 -9.69116,7.60762 -13.7095,2.47312 l -2.42562,-3.09936 -0.99996,3.93954 c -0.90727,3.57434 -0.76726,4.16294 1.51025,6.34937 3.39157,3.25592 6.14731,9.5904 6.17403,14.19194 0.0419,7.21994 -5.3996,15.75372 -12.37267,19.40367 l -2.89464,1.51516 0.59144,16.14952 c 0.78182,21.34815 3.08289,33.63773 10.85088,57.95229 l 1.2149,3.80276 2.06865,-5.30276 c 3.73337,-9.57009 6.74528,-14.21022 13.61354,-20.97296 21.73336,-21.39942 54.7836,-21.16685 76.37765,0.53745 8.10702,8.14841 12.85264,16.74302 15.09936,27.34589 1.81174,8.55006 1.80966,13.03332 -0.01,21.62165 -1.96797,9.2881997 -5.09592,15.6803397 -12.35567,25.24949 -9.22725,12.16251 -9.16148,11.82837 -9.16148,46.54145 V 87.75497 H 836.536 c -30.94113,0 -57.66328,0.40343 -59.38254,0.89651 l -3.12595,0.89651 z m 156.90636,-197.88205 c -17.76102,-6.37449 -23.79753,-23.15806 -12.73378,-35.40431 1.99528,-2.20853 5.79383,-5.11314 8.44123,-6.45468 3.83913,-1.94543 4.81346,-2.951 4.81346,-4.96777 0,-2.71972 -4.00878,-7.4377 -6.31969,-7.4377 -2.4763,0 -6.68031,4.05134 -6.68031,6.43772 0,3.89417 -3.67311,7.56228 -7.57258,7.56228 -9.34577,0 -10.2535,-12.97301 -1.56326,-22.34158 8.33077,-8.98104 22.94091,-8.98104 31.27168,0 3.79932,4.09588 5.86396,8.68656 5.86555,13.04192 10e-4,3.77395 0.0413,3.81139 5.90057,5.53312 16.23831,4.77158 24.00729,19.71382 16.71744,32.15301 -2.59008,4.41964 -7.9933,8.82728 -14.1194,11.5178 -5.09394,2.23721 -18.24173,2.43436 -24.02091,0.36019 z m -77.98681,-18.00176 c -10.4455,-3.73649 -16.34913,-10.8601 -13.38412,-16.14993 3.21158,-5.72971 7.49468,-5.89978 14.78972,-0.58724 2.16379,1.57575 4.74324,2.47447 7.10212,2.47447 2.35888,0 4.93833,-0.89872 7.10212,-2.47447 7.01532,-5.10883 10.90528,-5.20845 14.29697,-0.36614 3.58963,5.12492 0.26876,10.899 -8.82817,15.34972 -7.04889,3.4487 -14.58682,4.0758 -21.07864,1.75359 z"
         id="path1713" /><path
         style="fill:#f7cf70"
         d="m 773.36533,83.90148 c -0.87392,-7.45209 -6.18018,-21.23266 -10.9209,-28.36206 -4.45759,-6.70362 -9.88478,-12.40218 -21.89734,-22.99227 -40.36828,-35.58806 -61.93402,-83.42334 -61.89591,-137.29218 0.0263,-37.11703 10.19258,-71.06531 30.24558,-100.99865 28.66574,-42.78968 71.70532,-70.30099 123.89584,-79.19541 13.42894,-2.28859 42.13759,-2.26547 56.20634,0.0453 9.72922,1.59799 27.38418,5.90599 28.41072,6.93253 0.22998,0.22997 -4.70356,2.53902 -10.9634,5.13122 -39.76559,16.46687 -74.77274,49.60052 -93.66511,88.65235 l -2.20955,4.5673 3.14783,3.4327 c 3.59359,3.91881 6.47455,12.48531 5.50201,16.36021 -0.84728,3.37581 -4.03197,5.57249 -8.07887,5.57249 -2.41405,0 -3.82014,-0.78598 -5.69751,-3.18482 l -2.49249,-3.18481 -0.69128,3.68481 c -0.3802,2.02665 -0.82922,3.68482 -0.99782,3.68482 -0.1686,0 -2.60049,-1.15218 -5.40419,-2.5604 l -5.09765,-2.5604 -2.61937,2.0604 c -3.51899,2.76803 -6.90588,2.59509 -10.01222,-0.51125 -2.44654,-2.44654 -2.80617,-2.51538 -7.39261,-1.41512 -11.55292,2.77151 -19.94483,11.90809 -19.94483,21.71467 0,6.58098 1.6977,10.81595 6.10106,15.21931 7.47933,7.47934 22.53525,11.02236 33.00565,7.76704 l 4.6067,-1.43226 0.5901,16.109 c 0.78048,21.30659 3.08525,33.60879 10.84954,57.91177 l 1.2149,3.80276 2.06865,-5.30276 c 3.73337,-9.57009 6.74528,-14.21022 13.61354,-20.97296 21.73336,-21.39942 54.7836,-21.16685 76.37765,0.53745 8.10702,8.14841 12.85264,16.74302 15.09936,27.34589 1.81174,8.55006 1.80966,13.03332 -0.01,21.62165 -1.96797,9.2882 -5.09592,15.68034 -12.35567,25.24949 -9.22725,12.16251 -9.16148,11.82837 -9.16148,46.54145 V 87.75497 H 836.536 c -30.94113,0 -57.66328,0.40343 -59.38254,0.89651 l -3.12595,0.89651 z m 78.91955,-215.88381 c -10.4455,-3.73649 -16.34913,-10.8601 -13.38412,-16.14993 3.21158,-5.72971 7.49468,-5.89978 14.78972,-0.58724 2.16379,1.57575 4.74324,2.47447 7.10212,2.47447 2.35888,0 4.93833,-0.89872 7.10212,-2.47447 7.01532,-5.10883 10.90528,-5.20845 14.29697,-0.36614 3.58963,5.12492 0.26876,10.899 -8.82817,15.34972 -7.04889,3.4487 -14.58682,4.0758 -21.07864,1.75359 z m 52.50772,-24.2627 c -2.62033,-2.62033 -2.66471,-9.78741 -0.0916,-14.78984 4.00626,-7.78854 11.10088,-12.21016 19.5916,-12.21016 11.64551,0 21.5,9.34462 21.5,20.38758 0,3.63498 -0.49089,4.85339 -2.63486,6.53984 -1.44917,1.13992 -3.63848,2.07258 -4.86514,2.07258 -3.29037,0 -7.5,-3.7146 -7.5,-6.61803 0,-2.67471 -4.02988,-7.38197 -6.31969,-7.38197 -2.4763,0 -6.68031,4.05134 -6.68031,6.43772 0,1.26091 -0.93266,3.47825 -2.07258,4.92742 -2.59699,3.30154 -7.94976,3.61252 -10.92742,0.63486 z"
         id="path1711" /><path
         style="fill:#f5c855"
         d="m 828.59457,56.00497 c -0.34194,-35.95304 0.0322,-34.12895 -9.28013,-45.25 -9.04645,-10.80357 -14.4315,-27.47488 -12.92052,-40 4.48446,-37.17361 42.80815,-59.92679 75.82199,-45.01634 20.13938,9.09579 32.60692,28.03969 32.56191,49.47644 -0.029,13.79769 -3.90436,24.37698 -13.06555,35.66716 -9.53926,11.75612 -9.37461,10.97603 -9.7348,46.12274 l -0.31513,30.75 h -31.3829 -31.3829 z M 856.119,-131.3143 c -5.43358,-1.04198 -10.04575,-3.41381 -14.0764,-7.23885 -2.53972,-2.41017 -3.25,-3.90314 -3.25,-6.83134 0,-7.08576 7.68244,-9.18758 13.96223,-3.8199 4.89104,4.18065 11.24561,4.16504 16.53777,-0.0406 6.34735,-5.04424 12.31153,-3.63715 14.04653,3.31389 0.61561,2.46633 0.0935,3.40079 -4.22738,7.56552 -6.23379,6.00858 -14.7735,8.6275 -22.99275,7.05132 z m -77.87185,-25.38528 c -5.93164,-5.93163 -0.64272,-19.28839 9.75561,-24.63703 4.14873,-2.13401 12.93198,-2.55977 17.47474,-0.84709 6.95189,2.62097 13.3151,11.87294 13.3151,19.35988 0,10.93746 -12.17776,11.87264 -14.8796,1.14266 -1.10962,-4.40672 -3.27869,-6.56387 -6.60011,-6.56387 -2.4571,0 -6.52029,4.60015 -6.52029,7.38197 0,2.96939 -4.2343,6.61803 -7.68031,6.61803 -1.32583,0 -3.51514,-1.10455 -4.86514,-2.45455 z m 126.71976,0.1401 c -4.34964,-4.62999 -1.81159,-15.2848 5.08294,-21.33827 13.07255,-11.47785 34.09857,-3.16041 35.52607,14.05334 0.39957,4.81833 0.19771,5.46914 -2.30758,7.4398 -1.51,1.18777 -3.83023,2.15958 -5.15605,2.15958 -3.16129,0 -7.31969,-4.23502 -7.31969,-7.45455 0,-3.24923 -3.27332,-6.54545 -6.5,-6.54545 -3.22668,0 -6.5,3.29622 -6.5,6.54545 0,3.44639 -4.18327,7.45455 -7.78023,7.45455 -1.7082,0 -3.75184,-0.93746 -5.04546,-2.31445 z"
         id="path1709" /><path
         style="fill:#f8b557"
         d="M 829.56663,57.50497 C 829.13189,22.93824 829.03347,22.43129 820.80729,12.38663 810.91609,0.3089 806.7926,-10.66284 806.7926,-24.90351 c 0,-29.42063 24.11369,-53.64008 53.5,-53.73464 4.4,-0.0142 10.40348,0.57322 13.34106,1.30528 l 5.34106,1.33101 -6.60159,3.62842 c -8.954,4.92137 -14.58265,9.88188 -19.40204,17.09898 -13.94017,20.87556 -12.57549,46.9279 3.46196,66.09047 2.50358,2.99143 5.62927,7.68896 6.94598,10.43896 2.36431,4.93792 2.39415,5.38177 2.4038,35.75 l 0.01,30.75 H 847.86984 829.94707 Z M 856.119,-131.3143 c -5.43358,-1.04198 -10.04575,-3.41381 -14.0764,-7.23885 -2.53972,-2.41017 -3.25,-3.90314 -3.25,-6.83134 0,-7.08576 7.68244,-9.18758 13.96223,-3.8199 4.89104,4.18065 11.24561,4.16504 16.53777,-0.0406 6.34735,-5.04424 12.31153,-3.63715 14.04653,3.31389 0.61561,2.46633 0.0935,3.40079 -4.22738,7.56552 -6.23379,6.00858 -14.7735,8.6275 -22.99275,7.05132 z m -77.87185,-25.38528 c -5.93164,-5.93163 -0.64272,-19.28839 9.75561,-24.63703 4.14873,-2.13401 12.93198,-2.55977 17.47474,-0.84709 6.95189,2.62097 13.3151,11.87294 13.3151,19.35988 0,10.93746 -12.17776,11.87264 -14.8796,1.14266 -1.10962,-4.40672 -3.27869,-6.56387 -6.60011,-6.56387 -2.4571,0 -6.52029,4.60015 -6.52029,7.38197 0,2.96939 -4.2343,6.61803 -7.68031,6.61803 -1.32583,0 -3.51514,-1.10455 -4.86514,-2.45455 z m 126.71976,0.1401 c -4.34964,-4.62999 -1.81159,-15.2848 5.08294,-21.33827 13.07255,-11.47785 34.09857,-3.16041 35.52607,14.05334 0.39957,4.81833 0.19771,5.46914 -2.30758,7.4398 -1.51,1.18777 -3.83023,2.15958 -5.15605,2.15958 -3.16129,0 -7.31969,-4.23502 -7.31969,-7.45455 0,-3.24923 -3.27332,-6.54545 -6.5,-6.54545 -3.22668,0 -6.5,3.29622 -6.5,6.54545 0,3.44639 -4.18327,7.45455 -7.78023,7.45455 -1.7082,0 -3.75184,-0.93746 -5.04546,-2.31445 z"
         id="path1707" /><path
         style="fill:#49555f"
         d="m 849.7926,-133.32357 c -2.475,-1.11904 -5.9625,-3.44743 -7.75,-5.1742 -8.34108,-8.05772 0.83652,-18.594 9.69993,-11.13594 5.77939,4.86304 12.3319,4.85365 18.13099,-0.026 8.61595,-7.24984 18.03012,2.37081 10.33575,10.56244 -7.07649,7.53381 -20.77339,10.13374 -30.41667,5.77366 z m -71.54545,-23.37601 c -6.39616,-6.39615 1.04641,-21.59106 12.44467,-25.40735 13.53103,-4.53036 28.10078,5.66065 28.10078,19.65547 0,10.3879 -12.62967,11.02784 -14.5601,0.73775 -1.14124,-6.08333 -7.40631,-8.56491 -11.4399,-4.53132 -1.1,1.1 -2,3.14545 -2,4.54545 0,3.29518 -4.18473,7.45455 -7.5,7.45455 -1.425,0 -3.69545,-1.10455 -5.04545,-2.45455 z m 127.06971,0.29497 c -2.50529,-1.97066 -2.70715,-2.62147 -2.30758,-7.4398 1.48673,-17.92797 23.54906,-25.68751 36.4254,-12.81118 4.27501,4.27502 6.34198,9.18445 6.35234,15.08798 0.006,3.68784 -3.80306,7.32258 -7.67473,7.32258 -3.16129,0 -7.31969,-4.23502 -7.31969,-7.45455 0,-3.07081 -3.21998,-6.54545 -6.06574,-6.54545 -3.77749,0 -5.89886,1.97379 -7.05466,6.56387 -1.8212,7.23263 -7.03686,9.46007 -12.35534,5.27655 z"
         id="path1705" /></g></g></svg>
