<?xml version="1.0" encoding="UTF-8" standalone="no"?>
<!-- Created with Inkscape (http://www.inkscape.org/) -->

<svg
   version="1.1"
   id="svg2"
   width="41.531895"
   height="48"
   viewBox="0 0 41.531895 48"
   sodipodi:docname="glove_48px.svg"
   inkscape:version="1.1.2 (b8e25be833, 2022-02-05)"
   xmlns:inkscape="http://www.inkscape.org/namespaces/inkscape"
   xmlns:sodipodi="http://sodipodi.sourceforge.net/DTD/sodipodi-0.dtd"
   xmlns="http://www.w3.org/2000/svg"
   xmlns:svg="http://www.w3.org/2000/svg">
  <defs
     id="defs6" />
  <sodipodi:namedview
     id="namedview4"
     pagecolor="#ffffff"
     bordercolor="#666666"
     borderopacity="1.0"
     inkscape:pageshadow="2"
     inkscape:pageopacity="0.0"
     inkscape:pagecheckerboard="0"
     showgrid="false"
     fit-margin-top="0"
     fit-margin-left="0"
     fit-margin-right="0"
     fit-margin-bottom="0"
     inkscape:zoom="9.0929513"
     inkscape:cx="16.111381"
     inkscape:cy="20.785331"
     inkscape:window-width="1920"
     inkscape:window-height="1009"
     inkscape:window-x="-8"
     inkscape:window-y="-8"
     inkscape:window-maximized="1"
     inkscape:current-layer="g8" />
  <g
     inkscape:groupmode="layer"
     inkscape:label="Image"
     id="g8"
     transform="translate(756.95145,-50.046581)">
    <g
       id="g84"
       transform="matrix(0.09379797,0,0,0.09379797,-760.20809,50.020557)">
      <path
         style="fill:#f2f4e5"
         d="m 118.23888,510.66513 c -15.43335,-5.59721 -19.53042,-25.52035 -7.58046,-36.86208 6.49904,-6.16825 -1.74605,-14.51265 146.77475,-14.51265 148.5208,0 148.05214,12.07709 154.55118,18.24534 12.18912,11.56871 4.45213,28.58108 -11.37443,33.32283 -5.54962,1.6627 -277.76679,1.47639 -282.37104,-0.19344 z M 426.69052,420.5 V 402 l 26.86993,0.20929 1.22305,0.86346 2.76347,2.37704 c 2.74805,2.36377 2.76348,2.44794 2.76348,15.07323 v 12.69619 l -3.46223,2.8904 C 453.52359,438.88514 449.16672,439 439.28777,439 h -12.59725 z"
         id="path94"
         sodipodi:nodetypes="ssssssccccsscsscc" />
      <path
         style="fill:#d6d8cb"
         d="m 394.76112,510.66513 c 18.6789,-6.77428 18.37541,-34.71145 0.13913,-42.61048 -3.31083,-1.43408 -2.52713,-1.52436 14.5,-1.67031 9.9,-0.0849 18.9,-0.0768 20,0.0178 4.58053,0.3942 10.18787,4.09876 14.27803,7.86894 9.67869,8.9215 9.11998,23.97959 -1.20552,32.49074 -5.62182,4.63398 -9.30429,5.24543 -31.08878,5.16208 -16.53774,-0.0633 -19.33517,-0.27511 -16.62286,-1.25879 z M 125.4768,387.5 c -7e-5,-44.55 0.12269,-62.92107 0.27281,-40.82459 0.15012,22.09647 0.15018,58.54647 1.4e-4,81 C 125.5997,450.12893 125.47687,432.05 125.4768,387.5 Z M 453,436.21072 l 3.5,-2.99151 v -12.69619 c 0,-12.67145 -0.005,-12.70089 -2.80576,-15.1096 L 451.43282,403 h 9.82433 c 10.26372,0 10.3984,0.031 13.30576,3.0646 2.87827,3.00322 2.93709,3.28049 2.93709,13.84383 0,16.58998 -1.50081,18.20772 -17.5,18.86345 l -11.74423,0.0415 z"
         id="path92"
         sodipodi:nodetypes="ssscsssssssssccsccsssscc" />
      <path
         style="fill:#4bc6b2"
         d="M 126,387.78031 V 307.55416 L 85.121231,266.52708 C 62.637909,243.96219 43.14386,223.7 41.801124,221.5 c -14.527071,-23.80181 -5.95115,-53.91475 18.844521,-66.16943 6.380208,-3.15327 8.469741,-3.6676 16.635182,-4.09471 16.216856,-0.84825 24.488383,2.5844 38.206663,15.85558 5.06477,4.89971 9.44973,8.90856 9.74435,8.90856 0.29461,0 0.76911,-10.4625 1.05443,-23.25 0.5634,-25.25054 1.31371,-30.2824 7.27081,-48.76093 12.20904,-37.871552 39.79289,-69.654289 76.33064,-87.949886 10.57218,-5.293821 29.12887,-11.505057 39.82699,-13.3307615 7.36169,-1.2563194 12.44478,-2.15893073 19.42163,-0.6388779 29.78293,6.4888349 74.93668,20.4261194 95.45819,40.2928684 21.65624,20.965281 35.66395,45.88244 43.36452,77.137587 l 2.2174,9 0.31146,169.25 L 410.79937,467 277.25,467.75323 126,468.00645 Z"
         id="path90"
         sodipodi:nodetypes="ccssssssssssssscccccc" />
      <path
         style="fill:#29ab91"
         d="m 386.73325,297.75 -0.31146,-169.25 -2.2174,-9 C 373.27125,75.124468 347.68669,40.613076 310.13716,19.58961 295.40354,11.340462 283.88555,7.1454984 262.5,2.2396947 c -7.27749,-1.66944153 13.89967,-2.69491333 27.39614,-1.3266161 21.17749,2.1470151 34.5137,5.8279532 52.83333,14.5825724 41.86651,20.007248 70.64028,56.397887 82.5601,104.415049 2.12753,8.57041 2.1329,8.96158 2.44368,177.8393 L 428.04471,467 h -20.5 -20.5 z"
         id="path88" />
      <path
         style="fill:#3a494b"
         d="m 271.22624,246.87237 c -6.66348,-1.09011 -14.13849,-4.85128 -18.69281,-9.40561 -5.02755,-5.02755 -4.77206,-10.25776 0.63773,-13.05527 3.40386,-1.7602 6.26713,-1.15232 9.82884,2.08669 4.08694,3.71666 8.59225,5.50182 13.88524,5.50182 6.2398,0 8.91699,-1.00944 13.61347,-5.13301 4.65179,-4.08433 9.78259,-4.47277 12.63013,-0.95621 4.03297,4.98051 1.64281,10.50601 -6.85982,15.85841 -7.84436,4.93801 -15.95254,6.59028 -25.04278,5.10318 z M 192,239.28056 c -4.47356,-1.61506 -5,-3.17129 -5,-14.78056 0,-9.40509 0.27915,-11.43515 1.75,-12.72673 4.1983,-3.6866 10.01272,-2.78422 12.13973,1.88405 0.61065,1.34023 1.11027,6.44052 1.11027,11.33397 0,7.82672 -0.27071,9.19495 -2.25,11.37213 -2.43145,2.67454 -5.36424,3.77846 -7.75,2.91714 z m 165.01971,-0.57215 c -4.12586,-2.0757 -5.11613,-5.28043 -4.8038,-15.54617 0.26863,-8.82959 0.43678,-9.46903 3.08985,-11.75 3.71652,-3.19526 6.21826,-3.04207 9.86436,0.60404 3.00905,3.00904 3.01545,3.04015 2.67308,12.97422 -0.28861,8.37413 -0.6613,10.26353 -2.3432,11.87922 -2.80182,2.69152 -5.58545,3.29506 -8.48029,1.83869 z"
         id="path86" />
    </g>
  </g>
</svg>
