<?xml version="1.0" encoding="UTF-8" standalone="no"?>
<!-- Created with Inkscape (http://www.inkscape.org/) -->

<svg
   width="80"
   height="62.079533"
   viewBox="0 0 21.166668 16.425208"
   version="1.1"
   id="svg2001"
   sodipodi:docname="kenyer_48px.svg"
   inkscape:version="1.2.1 (9c6d41e410, 2022-07-14)"
   xmlns:inkscape="http://www.inkscape.org/namespaces/inkscape"
   xmlns:sodipodi="http://sodipodi.sourceforge.net/DTD/sodipodi-0.dtd"
   xmlns="http://www.w3.org/2000/svg"
   xmlns:svg="http://www.w3.org/2000/svg">
  <sodipodi:namedview
     id="namedview14"
     pagecolor="#ffffff"
     bordercolor="#666666"
     borderopacity="1.0"
     inkscape:pageshadow="2"
     inkscape:pageopacity="0.0"
     inkscape:pagecheckerboard="0"
     inkscape:document-units="mm"
     showgrid="false"
     inkscape:zoom="4.441237"
     inkscape:cx="63.383242"
     inkscape:cy="34.900186"
     inkscape:window-width="1920"
     inkscape:window-height="1137"
     inkscape:window-x="1912"
     inkscape:window-y="-8"
     inkscape:window-maximized="1"
     inkscape:current-layer="layer1"
     fit-margin-top="0"
     fit-margin-left="0"
     fit-margin-right="0"
     fit-margin-bottom="0"
     units="px"
     inkscape:showpageshadow="2"
     inkscape:deskcolor="#d1d1d1" />
  <defs
     id="defs1998" />
  <g
     id="layer1"
     transform="translate(-45.579519,-75.116315)">
    <g
       id="g2419"
       transform="translate(319.60368,23.447798)" />
    <g
       id="g3991"
       transform="matrix(0.18548522,0,0,0.17948789,37.125192,61.633846)">
      <path
         style="fill:#e0eaef;stroke-width:0.264583"
         d="m -241.23361,82.101948 c -0.78223,-0.329245 -2.0704,-2.269807 -2.61793,-3.943791 -0.90095,-2.754495 -0.20307,-5.684044 1.98263,-8.322672 1.6628,-2.007373 1.75583,-4.010946 0.27289,-5.876986 -0.97505,-1.226947 -1.02127,-2.29481 -0.13756,-3.178519 1.41349,-1.413483 3.23917,-0.459647 4.66143,2.435386 0.51034,1.038784 0.63047,1.705772 0.63575,3.529764 0.007,2.570242 -0.43388,3.740327 -2.22737,5.905479 -1.6628,2.007372 -1.75584,4.010945 -0.2729,5.876985 0.89296,1.123638 1.00703,2.181392 0.32397,3.004093 -0.53475,0.644077 -1.79438,0.918151 -2.62091,0.570261 z m 46.56666,-2.116666 c -0.78223,-0.329245 -2.07039,-2.269808 -2.61793,-3.943792 -0.90095,-2.754495 -0.20307,-5.684043 1.98263,-8.322672 1.6628,-2.007372 1.75584,-4.010946 0.2729,-5.876986 -0.97506,-1.226946 -1.02127,-2.29481 -0.13756,-3.178518 1.41348,-1.413482 3.23916,-0.459648 4.66143,2.435386 0.51033,1.038783 0.63046,1.705771 0.63575,3.529764 0.007,2.570241 -0.43388,3.740327 -2.22738,5.905478 -1.6628,2.007373 -1.75583,4.010946 -0.27289,5.876986 0.89295,1.123638 1.00702,2.181391 0.32397,3.004092 -0.53475,0.644078 -1.79439,0.918152 -2.62092,0.570262 z m -23.28333,-6.35 c -0.78223,-0.329245 -2.0704,-2.269807 -2.61793,-3.943792 -0.90095,-2.754495 -0.20307,-5.684043 1.98263,-8.322672 1.6628,-2.007372 1.75584,-4.010946 0.27289,-5.876985 -0.97505,-1.226946 -1.02126,-2.29481 -0.13755,-3.17852 1.41348,-1.413481 3.23916,-0.459646 4.66143,2.435386 0.51033,1.038785 0.63046,1.705772 0.63574,3.529765 0.007,2.570242 -0.43387,3.740327 -2.22737,5.905479 -1.6628,2.007372 -1.75584,4.010945 -0.27289,5.876985 0.89295,1.123638 1.00702,2.181392 0.32397,3.004092 -0.53476,0.644078 -1.79439,0.918152 -2.62092,0.570262 z"
         id="path2433"
         transform="translate(319.60368,23.447798)" />
      <path
         style="fill:#fdc239;stroke-width:0.264583"
         d="m -259.09393,138.12571 c -5.58214,-0.36369 -11.08522,-8.48549 -13.67166,-13.93179 -1.28223,-2.70002 -1.42367,-0.51631 -0.17112,-6.38421 2.52008,-7.98208 9.15435,-15.29796 18.70702,-20.628992 3.70692,-2.140189 18.15416,-8.773863 34.41205,-8.892846 8.87044,-0.02766 8.87044,-0.02766 23.3103,2.2831 2.70708,0.69329 4.45511,1.326408 7.30558,2.411227 2.30562,0.845909 6.85517,2.939872 12.21142,5.785355 l 1.58168,1.074103 c 7.21406,4.898973 12.42824,11.522813 14.52359,18.450063 1.18117,5.13067 0.72253,3.27033 -0.41588,5.70305 -2.28067,4.87368 -8.55891,12.04589 -13.7278,13.85111 -12.61831,0 -27.93891,0.25632 -41.49412,0.25632 -14.20189,-0.1433 -30.37776,0.0235 -42.57106,0.0235 z"
         id="path2427"
         sodipodi:nodetypes="csccccccscsccc"
         transform="translate(319.60368,23.447798)" />
      <path
         style="fill:#fda332;stroke-width:0.264583"
         d="m -258.72432,142.9159 c -8.03438,-1.33844 -14.11494,-7.65936 -15.16952,-15.76918 -0.32342,-2.48711 0.007,-6.70602 0.42513,-5.42184 0.47342,1.45533 2.04429,4.3929 3.09262,5.78325 2.25005,2.98414 6.21761,5.61767 10.00142,6.6386 1.60527,0.43312 4.51233,0.46402 43.65624,0.46402 h 41.93646 l 2.31807,-0.8294 c 3.12417,-1.11781 4.95072,-2.25393 7.18452,-4.46876 1.95489,-1.93828 3.22615,-3.83717 4.24166,-6.33578 0.32974,-0.81131 0.66477,-1.54036 0.74451,-1.6201 0.0797,-0.0797 0.22525,0.84574 0.32335,2.05662 0.77325,9.54416 -5.90783,17.96131 -15.49086,19.51615 -2.11197,0.34267 -81.20256,0.32977 -83.2636,-0.0136 z"
         id="path2425"
         sodipodi:nodetypes="cscssscsssssscc"
         transform="translate(319.60368,23.447798)" />
      <path
         style="fill:#bb5e18;stroke-width:0.264583"
         d="m -200.81288,117.53371 c -0.49253,-0.11049 -1.32596,-0.63166 -1.85208,-1.15815 -0.94633,-0.94699 -0.95649,-0.98062 -0.94677,-3.13499 0.0293,-6.50314 6.20826,-15.555651 13.13926,-19.249837 l 1.57971,-0.841979 1.63144,0.587772 c 1.75322,0.631648 6.44734,2.901574 8.54654,4.132839 l 1.28698,0.754857 -1.57721,0.197498 c -6.33339,0.79307 -12.03026,4.74644 -14.85113,10.30602 -0.34601,0.68195 -0.97957,2.44904 -1.40791,3.92688 -0.42833,1.47783 -0.99544,2.92635 -1.26023,3.21895 -0.98849,1.09227 -2.7412,1.60728 -4.2886,1.26014 z m -26.21902,-2.56868 c -0.50642,-0.25444 -1.20324,-0.87933 -1.54847,-1.38865 -0.56309,-0.83072 -0.6134,-1.13032 -0.48873,-2.91042 0.47644,-6.80289 5.21047,-15.395144 11.37402,-20.643842 l 2.12059,-1.805832 2.40459,0.12605 c 3.99845,0.209595 7.78478,0.618591 11.24053,1.214187 l 3.27968,0.56525 -2.95161,0.725718 c -10.17492,2.501722 -17.2894,10.103259 -19.35592,20.681009 -0.62685,3.20862 -3.40272,4.77897 -6.07468,3.43653 z m -27.09747,-1.65183 c -1.11387,-0.35015 -2.24466,-1.54622 -2.55642,-2.70399 -0.50815,-1.88713 0.84629,-7.19937 2.95377,-11.584915 l 1.33504,-2.778125 2.55959,-1.168831 c 4.55715,-2.081011 12.23623,-4.546144 16.05334,-5.153432 0.99828,-0.158824 0.95584,-0.115366 -0.74807,0.765879 -5.36414,2.774286 -8.99437,6.421122 -11.65491,11.708234 -0.9055,1.79944 -2.0534,5.38024 -2.396,7.47419 -0.20817,1.27231 -1.0321,2.54112 -1.96259,3.0223 -1.02585,0.53048 -2.63141,0.71807 -3.58375,0.41869 z"
         id="path2421"
         transform="translate(319.60368,23.447798)" />
      <path
         style="fill:#3e494a;stroke:none;stroke-width:0.264583"
         d="m 95.757975,143.95246 c -2.07962,0.87842 -1.86134,9.49616 1.54702,7.91078 2.38019,-1.10702 2.10503,-9.4533 -1.54702,-7.91078 m 48.418755,0.0757 c -2.12989,1.18613 -1.65576,9.48955 1.80764,7.83511 2.12883,-1.0168 1.78699,-9.83748 -1.80764,-7.83511 m -29.92173,3.89705 c -2.85909,1.04775 -0.40613,4.00447 1.05331,4.94585 2.7903,1.80023 6.75957,2.03968 9.78958,0.70697 1.64518,-0.72337 6.30317,-5.44803 1.85182,-5.76421 -2.32621,-0.1651 -3.90842,2.80273 -6.61432,2.50692 -2.03358,-0.22251 -4.15819,-3.10012 -6.08039,-2.39553 z"
         id="path1891" />
    </g>
  </g>
</svg>
