<?xml version="1.0" encoding="UTF-8" standalone="no"?>
<!-- Created with Inkscape (http://www.inkscape.org/) -->

<svg
   version="1.1"
   id="svg2"
   width="52.692631"
   height="48"
   viewBox="0 0 52.692631 48"
   sodipodi:docname="knead_48px.svg"
   inkscape:version="1.1.2 (b8e25be833, 2022-02-05)"
   xmlns:inkscape="http://www.inkscape.org/namespaces/inkscape"
   xmlns:sodipodi="http://sodipodi.sourceforge.net/DTD/sodipodi-0.dtd"
   xmlns="http://www.w3.org/2000/svg"
   xmlns:svg="http://www.w3.org/2000/svg">
  <defs
     id="defs6" />
  <sodipodi:namedview
     id="namedview4"
     pagecolor="#ffffff"
     bordercolor="#666666"
     borderopacity="1.0"
     inkscape:pageshadow="2"
     inkscape:pageopacity="0.0"
     inkscape:pagecheckerboard="0"
     showgrid="false"
     fit-margin-top="0"
     fit-margin-left="0"
     fit-margin-right="0"
     fit-margin-bottom="0"
     inkscape:zoom="5.6568543"
     inkscape:cx="14.584077"
     inkscape:cy="11.313708"
     inkscape:window-width="1920"
     inkscape:window-height="1009"
     inkscape:window-x="-8"
     inkscape:window-y="-8"
     inkscape:window-maximized="1"
     inkscape:current-layer="g204" />
  <g
     inkscape:groupmode="layer"
     inkscape:label="Image"
     id="g8"
     transform="translate(542.73524,-57.474575)">
    <g
       id="g204"
       transform="matrix(0.07733435,0,0,0.07733435,-542.77391,55.695885)">
      <g
         id="g661"
         transform="matrix(1.3333333,0,0,1.3333333,-0.16666665,-7.6666661)">
        <path
           style="fill:#d0976d"
           d="M 72,487.31522 C 64.882318,486.09644 54.11685,482.58459 47.708513,479.39099 18.411765,464.79094 0.70820191,436.20516 0.70820191,403.5 c 0,-20.93886 6.71418269,-39.38418 20.19081709,-55.46855 l 2.906196,-3.46854 c 169.282495,-115.7699 354.274965,-96.6788 466.861665,2.94747 13.89362,16.87969 20.55813,34.77836 20.66137,55.48962 0.16637,33.37416 -18.19234,62.59015 -48.32825,76.90943 -17.48467,8.30796 2.1157,7.56908 -204.5,7.70914 -101.2,0.0686 -185.125,-0.0679 -186.5,-0.30335 z"
           id="path208"
           sodipodi:nodetypes="ssssccssss" />
        <path
           style="fill:#ca8959"
           d="m 329.76271,456.45821 c -6.86533,-3.78409 -3.94325,-19.01735 5.42772,-28.29556 6.62139,-6.55585 11.82012,-8.61155 21.80957,-8.624 7.2774,-0.009 9.2283,0.37176 13.56346,2.6477 9.29778,4.88129 15.89194,14.41969 17.11646,24.75888 0.54199,4.57628 0.35103,5.17767 -2.5724,8.1011 -2.56338,2.56338 -3.67081,3.03264 -5.88269,2.49271 -4.08023,-0.996 -6.09632,-3.5278 -7.10389,-8.92107 -1.62227,-8.68359 -7.07983,-13.8032 -14.83916,-13.92025 -8.54157,-0.12886 -14.43252,5.13912 -15.88177,14.20225 -1.17779,7.36549 -6.13994,10.58832 -11.6373,7.55824 z M 157.86078,435.08668 c -1.9677,-1.59474 -2.35258,-2.8116 -2.31152,-7.30826 0.11901,-13.03472 9.26646,-24.34332 22.89621,-28.30559 17.70577,-5.14721 36.60788,7.99577 38.29747,26.62893 0.46992,5.18234 0.27343,5.97278 -2.06636,8.31257 -5.26416,5.26416 -11.96402,2.0149 -13.0723,-6.33973 -1.97078,-14.85648 -20.95359,-19.39074 -28.60968,-6.83374 -1.09292,1.79253 -1.98881,4.52622 -1.99086,6.07488 -0.0105,7.94708 -7.47789,12.36224 -13.14296,7.77094 z m 140.59377,-26.02202 c -2.13373,-2.13372 -2.44999,-3.34274 -2.41966,-9.25 0.0453,-8.81757 2.11172,-20.22619 5.51416,-30.44274 v 0 l 0.88046,-13.75774 c 0,0 -1.98545,-9.96704 -2.38375,-21.77682 -0.66804,-19.8076 -1.02935,-20.53081 -12.14423,-24.30835 -9.29525,-3.15911 -15.38654,-6.71433 -20.44614,-11.93352 -8.32183,-8.58429 -14.48469,-8.72697 -22.47381,-0.52028 -5.63721,5.79073 -11.43756,9.24362 -20.97018,12.48334 C 212.85953,313.34858 212,314.98717 212,332.45699 c 0,15.11961 -1.35162,22.236 -5.78291,30.44741 -5.34537,9.90526 -16.59139,19.19704 -27.70788,22.89303 -1.65507,0.55028 -8.85921,1.27748 -16.00921,1.61602 -12.8005,0.60606 -13.09208,0.67253 -19,4.331 -8.10565,5.01942 -13.57406,6.83038 -22.61009,7.48774 -9.9591,0.72451 -16.15119,-0.80172 -27.750749,-6.84005 l -9.360838,-4.87293 H 73.478256 c -16.659112,0 -26.314663,-3.90253 -36.763198,-14.85876 C 31.039671,366.7093 25.865564,357.46548 24.53015,350.89147 23.950838,348.03962 24.362516,343.84763 29.197398,339.7449 34.158035,335.53545 45.228453,328 46.451963,328 l 32.211724,-99.08966 161.660463,-2.48363 c 0,0 25.95394,-0.93589 31.3517,0 l 4.17584,0.72403 C 475.31571,216.79159 449.8447,238.27142 465.54805,328 c 1.22245,0 12.29197,7.57499 17.2464,11.80189 4.80222,4.09705 5.23613,8.32352 4.66724,11.12676 -1.32653,6.5367 -6.51285,15.7927 -12.17674,21.7318 -10.45182,10.95966 -20.10276,14.85876 -36.77804,14.85876 H 428.192 l -8.80948,4.64683 c -10.37587,5.47307 -16.66311,7.32507 -24.92242,7.3413 -8.49775,0.0167 -16.81177,-2.38114 -24.9601,-7.19871 l -7,-4.13864 -13.5,-0.6334 c -14.5435,-0.68236 -18.23814,-1.75321 -28.27888,-8.19634 -2.63844,-1.69308 -5.01588,-2.85961 -5.28321,-2.59229 -0.88934,0.88935 -3.27942,14.16191 -3.99789,22.20104 -0.57047,6.38317 -1.16122,8.38232 -3.0289,10.25 -3.00282,3.00282 -6.87162,2.95062 -9.95657,-0.13434 z"
           id="path206"
           sodipodi:nodetypes="ssssssssssssssssssssssscssssssssssssscssssccssccsssscssscssssss" />
        <path
           style="fill:#f3d9cb"
           d="m 111.7718,371.31487 c -1.61078,-0.42233 -1.74666,-4.72169 -2,-63.27949 -0.26031,-60.17081 -0.35232,-62.91532 -2.17679,-64.93088 -2.8585,-3.15788 -8.837744,-2.88267 -11.52243,0.53036 C 94.043726,246.21413 94,247.24454 94,292.47593 c 0,50.05779 -0.194279,52.1568 -5.467395,59.07021 -1.449795,1.90078 -3.924327,4.12219 -5.498959,4.93646 l -2.862967,1.4805 -2.146213,-9.23155 C 66.449302,298.94304 63.307193,238.26875 69.533344,184.7675 76.234808,127.18188 93.628701,72.235535 117.81123,32.260329 l 4.9845,-8.239672 -44.147867,-0.270999 c -24.281325,-0.14905 -7.105779,-0.378698 38.167877,-0.510329 61.06691,-0.177549 82.87958,0.06097 84.5,0.924014 4.54517,2.420772 4.61906,2.934978 4.65246,32.376558 0.035,30.847035 0.56026,34.79264 6.16517,46.309819 1.69958,3.49235 5.88033,9.34235 9.29057,13 3.41024,3.65765 7.19442,8.08305 8.40929,9.83421 5.2025,7.49905 5.16171,6.91261 5.18221,74.51298 0.0138,45.46501 -0.30814,64.048 -1.15873,66.88702 -2.64982,8.84431 -12.27878,16.21324 -21.35671,16.34403 -9.27737,0.13367 -8.5,3.9699 -8.5,-41.94624 0,-33.66022 -0.24951,-41.06353 -1.46301,-43.4102 -3.16707,-6.12444 -10.9561,-5.35978 -13.49768,1.32507 -0.68113,1.79152 -1.05444,26.57707 -1.0832,71.91851 -0.035,55.17709 -0.315,69.94457 -1.38286,72.93693 -3.3457,9.37524 -12.27236,15.73376 -22.07325,15.72289 -2.75,-0.003 -5.55151,-0.35592 -6.22557,-0.78415 -0.93844,-0.59619 -1.28986,-14.03916 -1.5,-57.38028 -0.26204,-54.04677 -0.36042,-56.69667 -2.17942,-58.70608 -2.58967,-2.86077 -8.59996,-2.86102 -11.19002,-4.8e-4 -1.81094,2.00006 -1.92967,4.8017 -2.40499,56.75 l -0.5,54.64607 -2.35237,4.77719 c -4.59033,9.32204 -16.31849,14.67466 -26.37583,12.03768 z M 388.25,370.96884 386,370.06445 v -62.53223 c 0,-61.19889 -0.0426,-62.57486 -2,-64.53222 -2.35521,-2.35521 -7.72659,-2.65113 -10.55887,-0.58171 -1.86339,1.3615 -1.96115,3.37385 -2.44113,50.25 -0.48251,47.12316 -0.57418,48.98916 -2.62,53.33171 -2.05992,4.37247 -7.86504,10.8483 -8.84566,9.86767 C 357.81609,354.14942 350.94803,315.90666 348.06426,292 342.6597,247.19562 342.46265,190.95968 347.54919,145 351.95774,105.16634 361.59173,62.927441 373.40679,31.630941 374.83306,27.852958 376,24.596692 376,24.394794 c 0,-0.201898 -14.5125,-0.492278 -32.25,-0.645288 -17.7375,-0.153011 4.96241,-0.384245 50.44424,-0.513854 L 476.88847,23 l 2.80577,2.411614 2.80576,2.411614 0.5294,31.338386 c 0.45482,26.924079 0.78577,32.042683 2.34947,36.338386 3.00779,8.26282 7.44305,15.18914 14.8232,23.14865 12.32524,13.29279 11.29793,4.79729 11.29793,93.42977 v 76.57842 l -3.02366,4.89065 c -5.60589,9.06732 -14.93167,13.08913 -25.67999,11.07468 l -3.29635,-0.6178 0.27902,-29.47317 c 0.26956,-28.47447 0.21026,-29.54192 -1.75,-31.50218 -2.99474,-2.99474 -8.34715,-2.71134 -10.93534,0.57901 -1.99799,2.54004 -2.05172,3.76009 -2.06107,46.80286 -0.009,43.48337 -0.5038,51.76827 -3.42129,57.33849 -2.08313,3.97722 -7.53552,8.9091 -11.8292,10.69994 -3.79134,1.58132 -10.48415,2.00521 -14.53212,0.92039 L 433,358.76674 v -56.88337 c 0,-55.55004 -0.0469,-56.93025 -2,-58.88337 -2.68697,-2.68697 -8.31139,-2.65551 -10.84188,0.0607 -1.8322,1.96664 -1.94008,4.53297 -2.36455,56.25 -0.48439,59.01726 -0.32928,57.43999 -6.35117,64.58225 -5.31963,6.30934 -16.56437,9.74008 -23.1924,7.07594 z M 276.45804,185 c 0,-23.375 0.13089,-32.9375 0.29087,-21.25 0.15998,11.6875 0.15998,30.8125 0,42.5 -0.15998,11.6875 -0.29087,2.125 -0.29087,-21.25 z M 29.439608,56.5 c 5.03e-4,-15.4 0.139319,-21.560274 0.308479,-13.689498 0.169161,7.870776 0.168748,20.470776 -9.16e-4,28 C 29.577507,78.339726 29.439104,71.9 29.439608,56.5 Z"
           id="path216" />
        <path
           style="fill:#eec8ba"
           d="m 382.5,368.58015 c -7.70339,-4.62382 -11.28047,-12.01224 -11.50598,-23.76546 -0.0772,-4.02308 -0.10743,-28.12719 -0.0672,-53.56469 0.071,-44.8657 0.13303,-46.30986 2.07317,-48.25 2.35549,-2.35549 7.72705,-2.65109 10.55887,-0.58105 1.87694,1.37203 1.95766,3.52135 2.44113,65.00029 0.275,34.96973 0.5,63.57694 0.5,63.57158 0,-0.005 -1.8,-1.09016 -4,-2.41067 z m -277.56496,-0.84494 c -1.8484,-1.24564 -4.70386,-4.17584 -6.345464,-6.51156 -2.724096,-3.87592 -3.048721,-5.22818 -3.717379,-15.48521 -0.40295,-6.18114 -0.764037,-31.09025 -0.802417,-55.35358 -0.06828,-43.16982 -0.02537,-44.1716 2.0028,-46.75 2.684683,-3.41302 8.66393,-3.68824 11.52243,-0.53036 1.82413,2.01516 1.91654,4.75312 2.17703,64.5 0.15324,35.14925 -0.10969,62.3955 -0.60212,62.3955 -0.48079,0 -2.38648,-1.01916 -4.23488,-2.26479 z M 61.5,358.15487 c -5.056174,-2.41514 -9.920562,-7.50877 -12.053096,-12.62113 -2.159627,-5.1773 -2.451274,-12.24372 -2.462497,-59.66475 -0.0091,-38.49482 -0.06844,-39.7061 -2.069473,-42.25 -2.596798,-3.3013 -7.94435,-3.58957 -10.943953,-0.58997 -1.960063,1.96006 -2.019536,3.02804 -1.75,31.4256 L 32.5,303.8512 29.625,304.4256 C 18.174022,306.71341 8.3374333,301.99785 2.662371,291.5 0.5002902,287.50054 0.5,287.48987 0.5,212 V 136.5 L 3.0872856,131 c 1.423007,-3.025 5.9426704,-9.1494 10.0436964,-13.60979 4.417532,-4.80462 8.78129,-10.801 10.707231,-14.71314 C 29.181203,91.823918 29.963178,85.788076 29.982636,55.25 29.999142,29.345767 30.098772,27.901228 32,26 c 1.939945,-1.939945 3.333333,-2 46.40407,-2 h 44.40407 l -4.9907,8.25 c -24.189314,39.986744 -41.581905,94.92563 -48.284096,152.5175 -6.169863,53.01757 -3.267907,111.65798 7.994709,161.5507 1.688453,7.47975 2.167736,11.38601 1.481246,12.0725 -1.973638,1.97364 -13.200268,1.82243 -17.509299,-0.23583 z m 275.88297,-0.55703 c -5.53312,-2.57636 -9.82103,-7.36262 -11.95622,-13.34581 -1.06832,-2.99365 -1.34784,-17.86361 -1.38286,-73.56777 -0.0321,-51.08585 -0.35599,-70.40173 -1.20723,-72 -2.618,-4.91549 -7.83629,-6.12399 -11.97588,-2.77349 l -2.36078,1.91077 -0.5,42.26793 -0.5,42.26792 -3,0.83499 c -9.86448,2.74559 -23.45661,-5.73314 -26.42564,-16.48424 -0.84141,-3.04679 -1.08102,-21.7327 -0.86824,-67.70814 0.34048,-73.56807 -0.57377,-67.23075 11.59181,-80.35135 7.38015,-7.95951 11.81541,-14.88583 14.8232,-23.14865 1.56244,-4.292232 1.89501,-9.409022 2.34947,-36.147348 0.48955,-28.802984 0.67278,-31.305607 2.43439,-33.25 C 310.26728,24.047127 311.04613,24 343.15499,24 361.21974,24 376,24.171423 376,24.380941 c 0,0.209517 -1.16694,3.472017 -2.59321,7.25 C 358.6787,70.643681 348.74805,120.12969 345.03744,173 c -1.33516,19.02389 -1.318,67.51315 0.031,87.59479 1.90396,28.34281 7.61259,68.07921 12.80271,89.1166 l 1.77911,7.21138 -3.84537,1.53862 c -5.60216,2.24154 -12.44187,1.92092 -18.42193,-0.86355 z m -183.883,-0.43862 c -4.2938,-2.61317 -9.06818,-8.36509 -10.64411,-12.82345 -1.0685,-3.02283 -1.35586,-13.93348 -1.35586,-51.4805 0,-45.4492 0.0878,-47.74174 1.90499,-49.75 2.58947,-2.86172 8.59953,-2.8624 11.19002,-10e-4 1.79829,1.98618 1.92061,4.40865 2.18395,43.25 0.15342,22.63029 0.15342,48.23011 0,56.88849 l -0.27896,15.74251 -3.00003,-1.8258 z m 274.72935,-1.16083 c -3.81414,-2.32549 -9.15707,-10.2578 -9.39232,-13.94417 -0.0896,-1.40482 -0.48928,-0.30422 -0.88808,2.44578 -0.49617,3.42151 -0.60419,2.00088 -0.34217,-4.5 0.2106,-5.225 0.38523,-28.65265 0.38808,-52.06144 0.005,-41.44655 0.0586,-42.61877 2.04413,-44.75 C 422.6874,240.34578 428.25009,240.25009 431,243 c 1.9528,1.9528 2,3.33333 2,58.5 0,31.075 -0.3375,56.49832 -0.75,56.49626 -0.4125,-0.002 -2.2218,-0.9011 -4.02068,-1.99787 z m 46.05343,-55.90853 c -2.32695,-1.68563 -5.01992,-4.94663 -6.40004,-7.75 -2.2355,-4.54084 -2.40248,-6.10802 -2.70265,-25.36609 -0.30734,-19.7183 -0.23561,-20.63344 1.82258,-23.25 2.66688,-3.39039 7.981,-3.74013 10.99736,-0.72377 1.90805,1.90805 2,3.33333 2,31 0,15.95 -0.38248,29 -0.84996,29 -0.46748,0 -2.65776,-1.30956 -4.86729,-2.91014 z M 199.36301,279.75 c -3.62833,-2.42485 -5.62469,-4.77336 -7.86301,-9.25 l -3.71104,-6 -0.31846,-29.97833 c -0.17515,-16.48808 -0.0419,-31.45236 0.29606,-33.25395 1.05433,-5.62009 6.82103,-10.20903 11.50167,-7.53887 5.05846,2.8857 5.10743,4.49636 5.62057,47.34396 0.275,22.96281 1.73672,41.92776 1.73672,41.92776 0,0 -4.58785,-1.46307 -7.26251,-3.25057 z"
           id="path214"
           sodipodi:nodetypes="sssssssssssssssssssssssscssscsssssscsssssssssscccssssssssssssscssscssscsscccsssssssssssssssssssscscsscs" />
        <path
           style="fill:#ebbaae"
           d="m 32,274 c 0,-27.66667 0.09195,-29.09195 2,-31 2.97766,-2.97766 8.330432,-2.66668 10.92742,0.63486 1.928703,2.45195 2.072193,3.92711 2.067003,21.25 -0.006,19.94054 -0.712271,24.48856 -4.716313,30.3695 C 40.047841,298.53007 34.481154,303 32.631966,303 32.284385,303 32,289.95 32,274 Z m 276,-33.65149 0.5,-42.52724 2.36078,-1.91064 c 4.13969,-3.35033 9.35791,-2.14179 11.97588,2.77363 1.54641,2.90349 1.60685,59.14927 0.0713,66.30951 -1.32803,6.19237 -6.10025,12.73084 -11.45462,15.6941 l -3.9533,2.18787 0.5,-42.52723 z"
           id="path212" />
        <path
           style="fill:#dcaf8f"
           d="m 168.75,488.25007 c 47.9875,-0.14358 126.5125,-0.14358 174.5,0 47.9875,0.14358 8.725,0.26106 -87.25,0.26106 -95.975,0 -135.2375,-0.11748 -87.25,-0.26106 z M 235.41127,244 c 0,-9.625 0.14998,-13.5625 0.3333,-8.75 0.18331,4.8125 0.18331,12.6875 0,17.5 -0.18332,4.8125 -0.3333,0.875 -0.3333,-8.75 z m 41,0 c 0,-9.625 0.14998,-13.5625 0.3333,-8.75 0.18331,4.8125 0.18331,12.6875 0,17.5 -0.18332,4.8125 -0.3333,0.875 -0.3333,-8.75 z"
           id="path210"
           sodipodi:nodetypes="ssssssssssss" />
      </g>
    </g>
  </g>
</svg>
