<?xml version="1.0" encoding="UTF-8" standalone="no"?>
<!-- Created with Inkscape (http://www.inkscape.org/) -->

<svg
   width="6.1145663mm"
   height="6.3499994mm"
   viewBox="0 0 6.1145661 6.3499994"
   version="1.1"
   id="svg16537"
   inkscape:version="1.1.2 (b8e25be833, 2022-02-05)"
   sodipodi:docname="liszt_24px.svg"
   xmlns:inkscape="http://www.inkscape.org/namespaces/inkscape"
   xmlns:sodipodi="http://sodipodi.sourceforge.net/DTD/sodipodi-0.dtd"
   xmlns="http://www.w3.org/2000/svg"
   xmlns:svg="http://www.w3.org/2000/svg">
  <sodipodi:namedview
     id="namedview16539"
     pagecolor="#ffffff"
     bordercolor="#666666"
     borderopacity="1.0"
     inkscape:pageshadow="2"
     inkscape:pageopacity="0.0"
     inkscape:pagecheckerboard="0"
     inkscape:document-units="mm"
     showgrid="false"
     fit-margin-top="0"
     fit-margin-left="0"
     fit-margin-right="0"
     fit-margin-bottom="0"
     inkscape:zoom="16.589788"
     inkscape:cx="9.7951821"
     inkscape:cy="11.332272"
     inkscape:window-width="1920"
     inkscape:window-height="1009"
     inkscape:window-x="-8"
     inkscape:window-y="-8"
     inkscape:window-maximized="1"
     inkscape:current-layer="layer1" />
  <defs
     id="defs16534" />
  <g
     inkscape:label="Layer 1"
     inkscape:groupmode="layer"
     id="layer1"
     transform="translate(-48.219647,-115.72296)">
    <g
       id="g247"
       transform="matrix(0.04696644,0,0,0.04696644,56.948989,121.40226)"
       inkscape:export-filename="C:\Users\adici\Documents\Git\Docusaurus\docs\img\flour.png"
       inkscape:export-xdpi="24.019777"
       inkscape:export-ydpi="24.019777"
       style="display:inline">
      <path
         style="fill:#f2f4e5;stroke-width:0.264583"
         d="m -153.76044,-92.862797 c 0.35794,-0.47294 1.98257,-4.19791 4.03861,-7.051156 3.94448,-5.473937 6.3618,-7.442787 9.09783,-9.104837 2.47842,-1.50556 4.03247,-2.43191 9.93059,-3.86624 2.99038,-0.72721 6.19327,-1.52724 7.11753,-1.95308 2.8746,-1.32441 8.71887,-4.70617 8.53848,-4.88657 -0.0944,-0.0944 0.99542,0.25825 1.85718,0.60842 2.38289,0.96825 4.36941,1.40372 8.57344,1.8794 4.47221,0.50602 5.990643,0.76952 7.805208,1.35448 2.090526,0.67391 5.157057,2.35582 6.800067,3.72964 1.203648,1.00645 12.93006,13.641073 18.039836,19.02536 l 1.067149,1.124479 h -41.75836 -41.75837 z"
         id="path261"
         sodipodi:nodetypes="ssssssssssscccs" />
      <path
         style="fill:#d6d8cb;stroke-width:0.264583"
         d="m -170.48802,-91.892822 c 0,-0.190902 7.17066,-11.175178 8.44906,-12.760818 1.49943,-1.8598 4.18488,-3.92494 6.79309,-5.22398 1.90738,-0.94998 3.61763,-1.49688 8.20209,-2.62283 6.12649,-1.50468 6.55849,-1.67787 14.02771,-5.6238 4.11954,-2.17632 6.49845,-2.79946 10.68221,-2.79816 2.34961,7.3e-4 3.8436,0.14113 5.15937,0.48486 3.24275,0.84714 3.26776,0.75739 -0.83292,2.98947 -5.60262,3.04963 -6.60916,3.44217 -12.48921,4.87069 -6.09293,1.48024 -8.15127,2.24543 -10.79915,4.01457 -2.6814,1.79153 -4.12993,3.41671 -8.77233,9.842111 l -4.20559,6.840302 -8.10717,0.06997 c -4.45894,0.03848 -8.10716,0.0014 -8.10716,-0.08238 z"
         id="path259"
         sodipodi:nodetypes="ssssssssssscsss" />
      <path
         style="fill:#fbc873;stroke-width:0.264583"
         d="m -133.18178,14.229656 c -9.30552,-0.267904 -20.07585,-0.954214 -26.59062,-1.694418 -1.30969,-0.148804 -3.47728,-0.468756 -3.86697,-0.497617 -0.38969,-0.02886 -0.49342,-0.375576 -0.45077,-0.453845 -0.0721,-24.133749 -16.85309,-58.262657 -11.19649,-78.564034 35.45168,-8.799688 72.59117,2.154775 106.483582,5.134404 2.29806,-0.307084 2.091749,-0.539669 3.570102,0.828268 0.543558,0 2.319796,7.466832 3.084063,12.964582 1.606965,11.559688 1.814933,24.936759 0.623845,40.1274688 l -0.314566,4.0118451 1.900738,2.0352913 c 4.314579,4.6200084 5.491943,9.7677203 2.907313,12.7114508 -1.668434,1.900237 -5.309698,1.895657 -9.623494,-0.01212 -1.159134,-0.512625 -1.591669,-0.58456 -2.293765,-0.381476 -4.577037,1.323927 -16.74151,2.730132 -29.572549,3.418564 -5.198599,0.278927 -29.011769,0.534244 -34.660419,0.371623 z"
         id="path257"
         sodipodi:nodetypes="sssccccsscsssssss" />
      <path
         style="fill:#e5b05a;stroke-width:0.264583"
         d="m -183.05573,11.774384 c -4.33648,-1.9913206 -3.56737,-8.138488 1.73789,-13.8901405 l 1.7379,-1.8841243 -0.32574,-3.5718748 c -1.53557,-16.8379584 -0.84109,-35.2614184 1.78027,-47.2281224 0.67628,-3.08727 1.69901,-6.600672 1.92028,-6.600672 0.0958,0 0.65964,0.234587 1.25308,0.521306 1.86944,0.903213 3.22231,1.053086 9.56591,1.059725 5.18441,0.0054 6.15699,0.06609 6.03783,0.376626 -0.38006,0.990409 -1.94306,7.685464 -2.52017,10.860723 -2.20604,12.137641 -3.12529,27.404664 -2.57726,42.803485 0.29859,8.3897863 0.65214,14.4837275 0.97615,16.825414 l 0.14164,1.023694 -1.45543,-0.181845 c -0.80049,-0.100015 -3.09612,-0.515295 -5.1014,-0.922843 l -3.64595,-0.740997 -1.5214,0.630126 c -3.51616,1.456309 -6.17054,1.761268 -8.0036,0.91952 z m 49.2995,-71.402884 c 11.83504,-0.03811 31.12316,-0.0381 42.862499,1.1e-5 11.739334,0.03811 2.056119,0.06929 -21.518259,0.06928 -23.57437,-5e-6 -33.17928,-0.03119 -21.34424,-0.06929 z"
         id="path255"
         sodipodi:nodetypes="sscssssssssscsscssssss" />
      <path
         style="fill:#f98b49;stroke-width:0.264583"
         d="m -158.38712,-59.781405 c -0.78929,-0.157857 1.27662,-0.175882 1.05834,-0.201023 -0.95766,-0.110302 -3.45598,-1.219004 -4.52691,-2.288776 -0.64109,-0.640392 -1.58483,-2.064275 -2.03217,-3.011573 l -0.83469,-1.76758 0.30251,-8.53447 c -0.0675,-7.236462 -0.0143,-8.781481 0.34673,-10.054166 0.88381,-3.115836 1.35944,-5.567047 4.39151,-6.489364 -39.57,-0.698355 37.99355,-0.399675 39.7292,-0.394653 0,0 46.370647,0.344075 49.05808,0.520109 4.086671,0.453376 8.473624,2.994769 9.274922,4.416988 0.872143,2.485493 1.13238,6.45345 0.94123,11.614515 0,4.047086 0.239746,7.853734 -1.575788,11.20227 -1.010333,1.863439 -2.616255,3.419197 -4.474242,4.334481 -1.203086,0.592669 -1.452673,0.609304 -10.097121,0.672981 -20.741951,0.152791 -80.246931,0.243196 -81.561591,-0.01974 z"
         id="path253"
         sodipodi:nodetypes="sssscccccccccssss" />
      <path
         style="fill:#e66c23;stroke-width:0.264583"
         d="m -172.22243,-59.692503 c -2.03215,-0.298394 -3.6846,-1.152593 -5.22538,-2.701155 -2.80471,-2.81886 -3.20778,-4.847534 -3.02827,-15.241375 0.13618,-7.885239 0.28857,-8.750807 1.93304,-10.980237 1.10244,-1.494589 2.82279,-2.781972 4.56178,-3.413707 1.07447,-0.390329 2.34557,-0.450416 9.31407,-0.440279 4.43838,0.0065 7.77136,0.102515 7.40662,0.213465 -3.03207,0.922317 -5.59443,3.564679 -6.47824,6.680515 -0.36099,1.272685 -0.41427,2.817704 -0.34673,10.054166 l 0.0798,8.550399 0.72356,1.544508 c 1.20635,2.57503 2.75178,4.105851 5.11448,5.066125 l 1.44475,0.58719 -2.02767,0.171402 c -2.63927,0.223099 -11.75188,0.161536 -13.47182,-0.09102 z"
         id="path251" />
      <path
         style="fill:#3b4849;stroke-width:0.264583"
         d="m -122.33386,-21.086849 c -3.62452,-0.438819 -7.67292,-3.177825 -7.67292,-5.191238 0,-0.797746 0.80331,-1.641327 1.7338,-1.820725 0.66805,-0.128797 1.01127,0.01516 1.98438,0.832239 1.84201,1.546685 3.53534,2.227148 5.54224,2.227148 2.0069,0 3.70023,-0.680463 5.54224,-2.227148 0.97311,-0.817089 1.31633,-0.961036 1.98438,-0.832239 0.96705,0.186446 1.7338,1.03074 1.7338,1.909156 0,0.793533 -1.82299,2.819046 -3.29208,3.657801 -2.20591,1.259438 -4.874,1.769695 -7.55584,1.445006 z m -28.93619,-3.172859 c -0.69129,-0.543769 -0.69714,-0.578173 -0.69714,-4.101042 0,-3.199894 0.0525,-3.605217 0.52916,-4.081838 0.73698,-0.736973 2.13185,-0.696454 2.8643,0.0832 0.52847,0.56253 0.57529,0.886497 0.57529,3.980777 0,3.223559 -0.0279,3.396337 -0.64943,4.017841 -0.79367,0.79367 -1.69739,0.8285 -2.62218,0.101062 z m 58.425205,-0.101063 c -0.622247,-0.622245 -0.649433,-0.791993 -0.649433,-4.054919 0,-3.217619 0.03378,-3.437226 0.612365,-3.980778 0.779364,-0.732174 2.119304,-0.754034 2.827218,-0.04612 0.476621,0.476621 0.529167,0.881944 0.529167,4.081838 0,3.522869 -0.0058,3.557273 -0.69714,4.101042 -0.924788,0.727437 -1.828509,0.692607 -2.622177,-0.101063 z"
         id="path249" />
    </g>
  </g>
</svg>
