<?xml version="1.0" encoding="UTF-8" standalone="no"?>
<!-- Created with Inkscape (http://www.inkscape.org/) -->

<svg
   version="1.1"
   id="svg2"
   width="36"
   height="36"
   viewBox="0 0 36.000001 36"
   sodipodi:docname="merleg_36px.svg"
   inkscape:version="1.2.1 (9c6d41e410, 2022-07-14)"
   xmlns:inkscape="http://www.inkscape.org/namespaces/inkscape"
   xmlns:sodipodi="http://sodipodi.sourceforge.net/DTD/sodipodi-0.dtd"
   xmlns="http://www.w3.org/2000/svg"
   xmlns:svg="http://www.w3.org/2000/svg">
  <defs
     id="defs6" />
  <sodipodi:namedview
     id="namedview4"
     pagecolor="#ffffff"
     bordercolor="#666666"
     borderopacity="1.0"
     inkscape:pageshadow="2"
     inkscape:pageopacity="0.0"
     inkscape:pagecheckerboard="0"
     showgrid="false"
     fit-margin-top="0"
     fit-margin-left="0"
     fit-margin-right="0"
     fit-margin-bottom="0"
     inkscape:zoom="9.6445312"
     inkscape:cx="8.4503848"
     inkscape:cy="22.810855"
     inkscape:window-width="1920"
     inkscape:window-height="1137"
     inkscape:window-x="1912"
     inkscape:window-y="-8"
     inkscape:window-maximized="1"
     inkscape:current-layer="g8"
     inkscape:showpageshadow="2"
     inkscape:deskcolor="#d1d1d1" />
  <g
     inkscape:groupmode="layer"
     inkscape:label="Image"
     id="g8"
     transform="translate(-39.420037,-0.51233153)">
    <g
       id="g5898"
       transform="matrix(0.05275738,0,0,0.05275738,38.508935,0.48530227)">
      <rect
         style="fill:#e4e4e4;fill-opacity:1"
         id="rect1858"
         width="451.2402"
         height="260.4585"
         x="162.57918"
         y="41.474281" />
      <g
         id="g192"
         transform="translate(23.225593)">
        <path
           style="fill:#323940;stroke-width:1.33333"
           d="m 334.48105,117.45389 c -3.06703,-2.48086 -3.15841,-3.16441 -3.5652,-26.666672 l -0.41751,-25.293619 h 10.08418 10.08416 v 24.940652 c 0,23.120019 -0.0841,23.846569 -3.08593,26.666669 -3.8078,3.57723 -8.94255,3.71559 -13.0997,0.35297 z"
           id="path1381" />
        <path
           style="fill:#323940;stroke-width:1.33333"
           d="m 400.97213,119.66667 c -4.72312,-3.57125 -4.69268,-7.38153 0.21731,-27.204548 3.76196,-15.188059 5.36238,-20.036678 6.98066,-19.570351 1.12051,0.322888 5.41487,1.542561 9.54303,2.710385 l 7.50575,2.123318 -4.80748,19.32236 c -2.97277,11.948256 -5.57335,19.326496 -7.40484,21.285506 -3.09091,3.30612 -8.6158,3.91823 -12.03443,1.33333 z"
           id="path1379" />
        <path
           style="fill:#323940;stroke-width:1.33333"
           d="m 269.4155,119 c -2.12681,-1.72315 -4.0986,-7.1702 -7.5402,-20.82973 -2.56314,-10.17302 -4.94706,-20.262471 -4.58073,-20.628814 0.36635,-0.366341 4.58097,-1.751643 9.36583,-3.078442 l 8.69975,-2.412368 1.28681,4.908177 c 4.51091,17.205605 8.68638,33.830107 8.68638,35.676747 0,3.25964 -6.12208,8.69777 -9.79168,8.69777 -1.78542,0 -4.5422,-1.05 -6.12616,-2.33334 z"
           id="path1377" />
        <path
           style="fill:#323940;stroke-width:1.33333"
           d="m 453.79042,141.91162 c -4.88808,-4.88808 -3.7347,-8.42143 8.91009,-27.29544 l 11.60261,-17.324533 4.2632,2.591689 c 2.34474,1.425424 6.18948,3.743914 8.54385,5.152184 l 4.28067,2.56049 -12.08536,18.09726 c -6.19018,9.26951 -12.42757,17.48011 -13.85968,18.24655 -4.23998,2.26917 -8.01489,1.61229 -11.65538,-2.0282 z"
           id="path1375"
           sodipodi:nodetypes="sccsscsss" />
        <path
           style="fill:#323940;stroke-width:1.33333"
           d="m 215.74587,143.66667 c -1.98325,-1.57616 -24.36797,-34.58304 -24.36797,-35.92035 0,-0.34581 3.72248,-2.72655 8.27217,-5.29052 l 8.27217,-4.661762 11.68327,17.598362 c 11.82116,17.80606 13.28843,22.38034 8.3945,27.27427 -3.0067,3.00669 -9.10314,3.5042 -12.25414,1 z"
           id="path1373" />
        <path
           style="fill:#cccbd1;stroke-width:1.66728"
           d="m 95.392123,631.8035 c -7.342117,-3.85848 -15.630895,-12.15127 -19.736677,-19.74623 -3.59628,-6.65246 -3.606459,-6.99596 -4.071156,-137.46719 -0.323094,-90.71127 0.09854,-133.51708 1.375897,-139.66983 2.423671,-11.67476 10.165148,-21.6174 21.402342,-27.48778 l 8.913151,-4.65629 H 358.7107 c 287.47656,0 266.8814,-0.91757 280.2865,12.48752 13.02979,13.02981 12.59416,7.33385 12.06554,157.75167 -0.4642,132.08627 -0.473,132.38722 -4.07049,139.0419 -1.98292,3.66803 -6.10944,9.06951 -9.17006,12.00332 -11.78544,11.29704 9.1004,10.51196 -277.69526,10.43826 -233.17051,-0.0599 -260.244471,-0.33557 -264.734807,-2.69535 z"
           id="path204"
           sodipodi:nodetypes="ssssscsssssss" />
        <path
           style="fill:#a3adb9;stroke-width:1.33333"
           d="m 89.557813,600.39475 c -6.82279,-2.41106 -14.500955,-9.62321 -18.21088,-17.10561 -2.531532,-5.10575 -2.63509,-8.96005 -2.987044,-111.17371 -0.417365,-121.21036 -0.820758,-116.1756 10.159979,-126.80726 8.344645,-8.07936 33.150862,-9.30816 56.787082,-9.30816 h 19.66423 l -7.12788,3.72365 c -8.98643,4.69457 -15.17732,12.64574 -17.11554,21.98209 -1.02147,4.92038 -1.35869,39.15236 -1.10031,111.69453 0.41475,116.44658 -0.26654,107.97646 9.52182,118.38017 9.10455,9.67689 -10.82271,8.81158 220.18408,9.5612 l 208,0.67497 -226.00001,0.21977 c -200.84788,0.19531 -246.591397,-0.009 -251.775527,-1.84164 z"
           id="path202"
           sodipodi:nodetypes="csssscssssscsc" />
        <path
           style="fill:#fb5e7d;stroke-width:1.33333"
           d="m 316.00001,245.84557 c 0,-5.58504 13.62783,-89.01996 14.90572,-91.0662 3.53413,-5.65904 12.05656,-7.02823 17.4313,-2.80046 4.19693,3.30131 3.68562,1.05418 10.9263,48.0211 3.33512,21.63333 6.36989,42.70913 6.74391,44.32604 l 0.68005,2.93986 -25.34364,-0.009 c -16.81467,-0.007 -25.34364,-0.4816 -25.34364,-1.411 z"
           id="path200"
           sodipodi:nodetypes="sssssccss" />
        <path
           style="fill:#768799;stroke-width:1.33333"
           d="M 103.3197,681.63855 C 81.885511,675.46418 46.706921,655.511 42.305627,634.29266 41.291241,629.40237 40.968345,550.03475 41.219545,367.33335 L 41.577024,107.33334 44.487152,97.138114 C 55.615336,58.152079 95.005149,30.275546 130,13.278638 137.33334,9.7168579 148.43334,5.4220722 154.66667,3.7346703 l 11.33334,-3.06800361 h 192.66667 c 204.29897,0 198.68809,-0.16052941 218.66667,6.25613571 37.41619,12.0172246 68.29534,42.5439476 81.33885,80.4105336 6.86092,19.917914 6.66116,11.344465 6.66116,285.894534 0,279.33881 0.44914,262.90339 -7.58818,277.67059 -7.90342,14.5212 -26.8578,27.67712 -43.89575,30.46734 -4.85206,0.79458 -102.54987,1.25212 -255.84942,1.19818 -230.87803,-0.0812 -247.23263,1.21997 -254.68031,-0.92543 z m 466.31331,-80.36601 c 7.84438,-2.17857 15.94762,-9.13056 20.03368,-17.18743 l 3.66666,-7.22993 V 470.24895 c 0,-77.8524 -0.42293,-108.01782 -1.56802,-111.83982 -2.05112,-6.84602 -10.93003,-16.82306 -17.7137,-19.90449 -5.15458,-2.34142 -15.07505,-2.44732 -231.89692,-2.47535 -175.57194,-0.0227 -227.74412,0.33988 -231.99082,1.61221 -3.16725,0.94894 -8.10439,4.18359 -11.701835,7.66667 -10.980737,10.63166 -10.577344,5.5969 -10.159979,126.80726 0.351954,102.21366 0.455512,106.06796 2.987044,111.17371 1.442347,2.90901 4.817347,7.48401 7.500001,10.16667 9.669949,9.66994 -8.369977,8.9895 241.210889,9.09818 150.97279,0.0657 226.2957,-0.3546 229.633,-1.28145 z M 261.17832,256.04432 c 50.6,-14.46295 108.35343,-14.44607 159.48836,0.0467 11.65843,3.30423 16.36501,4.02704 22.94694,3.52408 9.58353,-0.73233 18.43498,-5.23449 23.59704,-12.00229 3.57366,-4.68532 43.36758,-86.59798 46.11642,-94.92704 2.20386,-6.67777 1.04122,-18.76323 -2.4665,-25.63893 -3.59292,-7.04276 -11.24179,-13.54343 -26.6555,-22.65418 -37.81106,-22.349453 -79.06784,-34.9665 -124.5384,-38.08607 l -7.66667,-0.525981 -1.39781,0.88606 -4.30109,-0.149909 c -23.59839,-0.822494 -65.58913,5.420988 -68.74831,6.844193 l -1.49619,0.67403 c -2.00526,0.903365 -27.01151,6.032041 -41.70876,11.925532 -7.87536,3.157959 -20.17536,9.123612 -27.33334,13.257008 -16.93966,9.781857 -17.2016,9.944897 -25.02802,15.577917 -11.32011,8.14759 -17.3486,23.38527 -14.06962,35.56251 2.68338,9.96528 43.90375,93.99101 48.4634,98.79029 5.98691,6.30154 16.11886,10.82278 24.28922,10.83874 3.66821,0.007 12.89719,-1.76702 20.50883,-3.94266 z"
           id="path198"
           sodipodi:nodetypes="ssscssscsssssssssscsssssssssssssssssssccssssssssss" />
        <path
           style="fill:#5d6e7e;stroke-width:1.33333"
           d="M 64.53574,680.68572 C 40.316711,675.4166 21.49641,655.53258 17.385121,630.87015 16.328886,624.5341 16.015271,548.86409 16.287367,366.00001 L 16.668287,110 20.340667,96.66667 C 33.157968,50.130814 67.211937,16.337858 113.31803,4.4019532 123.89232,1.6644891 129.87789,1.0421346 149.33334,0.6572262 162.16667,0.4033304 170.86667,0.49190187 168.66667,0.8540517 156.32349,2.8859085 141.76799,7.5629575 130,13.278638 95.005149,30.275546 72.03832,58.152081 60.91013,97.138114 l -2.910128,10.195226 -0.357479,260.00001 c -0.251198,182.7014 0.07169,262.06902 1.086082,266.95931 C 63.129899,655.511 80.565807,673.99784 102,680.17221 l 8,2.30451 -18.666664,-0.0107 c -10.489944,-0.007 -22.228328,-0.78589 -26.797596,-1.77999 z"
           id="path196" />
        <path
           style="fill:#323940;stroke-width:1.33333"
           d="m 452.32467,482.36882 c -4.23712,-2.04304 -6.04391,-9.42179 -5.45928,-22.29528 0.45813,-10.08855 0.80755,-11.26318 4.22472,-14.20251 4.56751,-3.9288 7.49333,-4.03575 12.06343,-0.44091 3.4268,2.69552 3.51314,3.13558 3.51314,17.90323 0,14.76765 -0.0864,15.20771 -3.51314,17.90323 -3.87939,3.05153 -6.31932,3.30664 -10.82887,1.13224 z"
           id="path1371" />
        <path
           style="fill:#323940;stroke-width:1.33333"
           d="m 217.82291,480.6108 c -3.28206,-3.28206 -3.37498,-3.8497 -2.93938,-17.95573 0.51532,-16.68788 1.8101,-19.18839 9.93588,-19.18839 8.1204,0 9.84726,3.52047 9.84726,20.07499 0,12.99393 -0.21616,14.12905 -3.27273,17.18561 -4.21295,4.21296 -9.28512,4.16943 -13.57103,-0.11653 z"
           id="path1369" />
        <path
           style="fill:#323940;stroke-width:1.33333"
           d="m 324.35716,492.05967 c -17.52264,-6.30663 -26.49392,-19.08221 -18.60455,-26.49391 4.22367,-3.96792 9.29447,-3.64834 14.53433,0.91603 7.85455,6.84195 12.55875,8.51337 22.39637,7.95749 7.2709,-0.41084 10.00738,-1.24776 14.62333,-4.47234 11.14393,-7.78488 11.58508,-7.97035 15.59951,-6.55855 2.06488,0.72619 4.59608,3.07656 5.62486,5.22307 1.66975,3.48382 1.59852,4.40001 -0.66357,8.5355 -3.15579,5.76934 -13.29376,12.8301 -22.23355,15.48492 -9.2295,2.74088 -22.72593,2.48532 -31.27673,-0.59221 z"
           id="path194" />
      </g>
    </g>
  </g>
</svg>
