<?xml version="1.0" encoding="UTF-8" standalone="no"?>
<!-- Created with Inkscape (http://www.inkscape.org/) -->

<svg
   width="36"
   height="36"
   viewBox="0 0 9.525 9.525"
   version="1.1"
   id="svg16537"
   inkscape:version="1.2.1 (9c6d41e410, 2022-07-14)"
   sodipodi:docname="repeat_36px.svg"
   xml:space="preserve"
   xmlns:inkscape="http://www.inkscape.org/namespaces/inkscape"
   xmlns:sodipodi="http://sodipodi.sourceforge.net/DTD/sodipodi-0.dtd"
   xmlns="http://www.w3.org/2000/svg"
   xmlns:svg="http://www.w3.org/2000/svg"><sodipodi:namedview
     id="namedview16539"
     pagecolor="#ffffff"
     bordercolor="#666666"
     borderopacity="1.0"
     inkscape:pageshadow="2"
     inkscape:pageopacity="0.0"
     inkscape:pagecheckerboard="0"
     inkscape:document-units="mm"
     showgrid="false"
     fit-margin-top="0"
     fit-margin-left="0"
     fit-margin-right="0"
     fit-margin-bottom="0"
     inkscape:zoom="5.8653758"
     inkscape:cx="-7.5868966"
     inkscape:cy="19.265603"
     inkscape:window-width="1920"
     inkscape:window-height="1137"
     inkscape:window-x="1912"
     inkscape:window-y="-8"
     inkscape:window-maximized="1"
     inkscape:current-layer="g247"
     inkscape:showpageshadow="2"
     inkscape:deskcolor="#d1d1d1" /><defs
     id="defs16534" /><g
     inkscape:label="Layer 1"
     inkscape:groupmode="layer"
     id="layer1"
     transform="translate(-48.219646,-115.72297)"><g
       id="g247"
       transform="matrix(0.07044967,0,0,0.07044967,61.313661,124.24191)"
       inkscape:export-filename="C:\Users\adici\Documents\Git\Docusaurus\docs\img\flour.png"
       inkscape:export-xdpi="24.019777"
       inkscape:export-ydpi="24.019777"
       style="display:inline"><g
         id="g1853"
         transform="translate(-817.01595,16.700692)"><path
           style="fill:#f9efce;stroke-width:0.264132"
           d="m 695.32711,-9.9715085 c -9.1807,-0.7717705 -16.0121,-2.6471605 -23.6397,-6.4896905 -14.6746,-7.39255 -25.829,-20.77379 -30.524,-36.61773 -0.478,-1.6132 -0.5482,-2.34924 -0.4279,-4.49024 0.079,-1.40842 0.219,-2.85791 0.3109,-3.22109 0.1461,-0.57722 -0.4328,-1.3181 -4.5998,-5.88656 -2.6218,-2.87443 -4.8876,-5.45181 -5.0351,-5.72749 -0.4304,-0.80417 -0.3086,-2.44771 0.2493,-3.36258 0.8172,-1.34033 1.7361,-1.66364 4.728,-1.66364 h 2.6306 l 0.3005,-1.91496 c 2.9394,-18.72985 15.1051,-35.564401 31.8882,-44.125841 8.9135,-4.54702 17.5718,-6.62657 27.5527,-6.61768 11.3789,0.0101 21.4451,2.79499 31.1279,8.61167 12.2837,7.37907 22.1621,20.17015 26.3523,34.122391 0.6991,2.32789 0.817,4.937 0.3321,7.3514 l -0.2966,1.47707 4.5589,4.97217 c 2.5074,2.7347 4.7799,5.32875 5.05,5.76457 0.623,1.00519 0.6258,2.13328 0.01,3.30576 -0.7512,1.42652 -1.8492,1.84391 -4.852,1.84439 l -2.5634,5.3e-4 -0.1677,0.99049 c -2.3101,13.64333 -7.4389,24.08876 -16.3484,33.29598 -9.702,10.02626 -22.1778,16.27248 -35.9379,17.99291 -2.4089,0.30119 -8.9214,0.5375805 -10.6973,0.3882905 z m 8.8896,-26.9275405 c 10.7316,-1.67045 20.1684,-8.76909 24.9134,-18.74065 0.8975,-1.88606 2.383,-6.09319 2.383,-6.74898 0,-0.13777 -0.7572,-0.2505 -1.6828,-0.2505 -1.6271,0 -1.7036,0.0306 -2.3111,0.92381 -0.8336,1.2255 -2.4459,2.3593 -4.1456,2.91527 -1.9499,0.63777 -5.2846,0.44829 -7.0366,-0.39984 -3.8924,-1.88427 -5.1547,-6.18186 -2.635,-8.97088 0.7977,-0.88296 0.845,-1.02017 0.4779,-1.38726 -0.4771,-0.4771 -0.7793,-3.15155 -0.5152,-4.55935 0.1,-0.53096 0.4122,-1.19647 0.6946,-1.47892 0.692,-0.69202 2.0373,-0.6629 2.8077,0.0608 0.5347,0.50239 0.6113,0.82511 0.6113,2.57724 v 2.00293 l 2.0952,-0.0951 c 2.2945,-0.1042 4.0843,0.33475 5.6232,1.3791 l 0.8729,0.59234 2.6378,-2.87912 c 3.7912,-4.13807 3.6759,-3.95802 3.1659,-4.94431 -0.2324,-0.44943 -0.8415,-2.02077 -1.3536,-3.49186 -4.1731,-11.98897 -13.3856,-20.173631 -25.5259,-22.677961 -5.0284,-1.03726 -11.4202,-0.66547 -16.5796,0.96439 -10.5269,3.325451 -18.6997,11.495401 -22.023,22.015261 -0.3754,1.18865 -0.6827,2.27391 -0.6827,2.41168 0,0.13777 0.9212,0.25225 2.047,0.25439 1.1259,0.002 2.3406,0.15245 2.6995,0.33401 1.629,0.82429 2.3946,3.5086 1.4124,4.95198 -0.3715,0.54589 -2.9413,3.42983 -6.4977,7.29209 -0.7476,0.81182 -0.7541,0.84459 -0.3307,1.66333 0.2375,0.45937 0.8502,2.03705 1.3615,3.50598 1.9071,5.47884 4.454,9.61462 8.272,13.43269 4.5158,4.51575 9.914,7.53319 16.1145,9.00751 4.3408,1.03213 8.0639,1.12854 13.1297,0.34 z m -30.2842,-21.94961 c -2.9692,-1.02513 -4.7544,-3.24256 -4.7544,-5.90561 0,-2.50172 1.7813,-4.72168 4.6538,-5.79975 1.2502,-0.46923 1.9785,-0.56564 3.7324,-0.49413 l 2.1791,0.0888 v -2.00097 c 0,-1.75011 0.077,-2.07298 0.6113,-2.57528 0.7703,-0.72368 2.1156,-0.7528 2.8076,-0.0608 0.2825,0.28245 0.5951,0.94796 0.6947,1.47892 0.2671,1.42379 -0.038,4.08217 -0.5244,4.56852 -0.3793,0.37932 -0.3428,0.49262 0.4082,1.26748 1.6559,1.70852 1.7923,4.61603 0.3169,6.75674 -0.7869,1.14166 -2.6694,2.41201 -4.1823,2.8222 -1.5085,0.40904 -4.5516,0.33419 -5.9429,-0.14617 z m 22.7153,-8.24792 c -2.3309,-0.767 -4.4903,-2.63477 -4.4903,-3.88393 0,-1.63711 2.4961,-2.61355 3.5903,-1.40449 0.7625,0.84258 1.813,1.29362 3.013,1.29362 1.2,0 2.2505,-0.45104 3.0131,-1.29362 1.0942,-1.20906 3.5902,-0.23262 3.5902,1.40449 0,0.91635 -1.4028,2.42868 -3.0137,3.24898 -1.4349,0.73065 -4.4063,1.0615 -5.7026,0.63495 z"
           id="path1863" /><path
           style="fill:#f8debb;stroke-width:0.264132"
           d="m 691.89341,-10.369219 c -10.2737,-1.15988 -20.9861,-5.48141 -29.4771,-11.89146 -3.1164,-2.35264 -3.4159,-2.76964 -0.7299,-1.01621 3.7166,2.42627 7.5236,3.97775 12.4619,5.07868 2.1614,0.48184 3.4167,0.57196 8.1043,0.5818 3.4685,0.007 6.2198,-0.11583 7.343,-0.32858 4.8124,-0.91151 10.1698,-6.10252 11.5254,-11.16748 0.3894,-1.45526 0.4829,-4.11209 0.2094,-5.95271 l -0.2004,-1.34838 1.7869,-0.16623 c 3.7941,-0.35295 9.0853,-2.10525 12.5745,-4.16435 7.4399,-4.39049 12.8897,-11.12983 15.3563,-18.98959 0.3875,-1.23482 0.7514,-2.39369 0.8087,-2.57528 0.077,-0.24397 -0.4108,-0.33017 -1.8684,-0.33017 -1.1678,0 -1.9727,0.11018 -1.9727,0.27004 0,0.60803 -2.213,2.61385 -3.5058,3.17766 -2.068,0.90187 -5.1379,1.00641 -7.1601,0.24384 -1.7915,-0.67561 -3.4133,-2.03143 -4.1446,-3.4649 -0.9696,-1.90063 -0.4858,-4.75775 1.0392,-6.13691 0.4951,-0.44782 0.5106,-0.54894 0.1601,-1.04926 -0.272,-0.38841 -0.3878,-1.27143 -0.3878,-2.95812 0,-2.17182 0.059,-2.46 0.6113,-2.97874 0.811,-0.76183 1.8962,-0.7321 2.7024,0.074 0.5717,0.57171 0.6483,0.87965 0.6483,2.60604 v 1.95773 l 1.8195,-0.13019 c 2.1919,-0.15683 4.0875,0.25734 5.6258,1.2292 l 1.139,0.71949 6.8766,-7.53949 c 8.1662,-8.95327 8.4085,-9.1319 12.3863,-9.1319 4.0434,0 4.1784,0.1 12.6135,9.33708 3.9333,4.3073 7.3733,8.18803 7.6445,8.62385 0.6092,0.97917 0.6283,2.01633 0.059,3.21547 -0.7081,1.49224 -1.4197,1.7864 -4.6811,1.93509 l -2.8967,0.13207 -0.447,2.64131 c -2.4037,14.2004 -10.1559,27.38738 -21.5291,36.62212 -4.3169,3.50521 -10.6247,7.13088 -16.2334,9.33081 -3.3784,1.32511 -9.7085,2.90465 -13.6931,3.41683 -3.5032,0.45029 -11.1168,0.5165705 -14.569,0.12682 z m -42.261,-43.97542 c -2.0712,-0.5518 -3.5314,-1.64966 -6.2236,-4.67934 -1.2984,-1.46116 -4.3712,-4.86322 -6.8285,-7.56013 -2.4573,-2.69691 -4.6855,-5.26005 -4.9515,-5.69586 -0.95,-1.55657 -0.4147,-3.66183 1.178,-4.63299 0.6925,-0.42223 1.3338,-0.51578 3.541,-0.51659 l 2.6954,-9.8e-4 0.1593,-0.99049 c 2.2543,-14.01729 8.1148,-25.395351 17.9931,-34.933011 21.2527,-20.5197 54.4245,-22.42664 77.8833,-4.47726 2.3767,1.81855 4.8119,3.91058 3.5658,3.06332 -3.0942,-2.10375 -5.0557,-3.35798 -5.9857,-3.8274 -5.45,-2.75095 -12.7289,-4.23476 -19.2389,-3.92187 -7.0606,0.33935 -9.3343,1.18248 -12.9446,4.80017 -2.1708,2.17529 -3.4137,4.22335 -4.0923,6.74358 -0.3764,1.39757 -0.4606,4.38654 -0.173,6.13933 l 0.2058,1.25462 h -0.9115 c -1.3968,0 -4.9665,0.73625 -7.2435,1.49398 -10.6049,3.529121 -18.9461,12.182021 -21.9394,22.759271 l -0.5365,1.89576 2.1587,0.001 c 1.675,8e-4 2.3483,0.11654 3.0044,0.51659 1.4249,0.86882 2.0366,2.70412 1.4285,4.28563 -0.1294,0.33632 -1.7043,2.22521 -3.4998,4.19754 -1.7955,1.97226 -4.988,5.51139 -7.0945,7.86466 -4.1373,4.62212 -5.3606,5.60167 -7.7839,6.23286 -1.8916,0.4927 -2.4763,0.49104 -4.3661,-0.0124 z m 24.6963,-4.43791 c -2.2247,-0.70357 -3.8183,-1.97764 -4.7248,-3.77748 -0.9731,-1.93185 -0.2765,-4.77461 1.5663,-6.39266 1.7908,-1.57229 3.0879,-2.00621 5.9979,-2.00643 l 2.5753,-2.1e-4 v -1.92696 c 0,-1.69373 0.078,-2.00542 0.6483,-2.57528 0.8319,-0.83191 1.978,-0.84739 2.7393,-0.037 0.5015,0.53378 0.5743,0.91158 0.5743,2.97874 0,1.65414 -0.1168,2.53424 -0.3878,2.9211 -0.3504,0.50032 -0.335,0.60145 0.1602,1.04927 1.525,1.37915 2.0088,4.23627 1.0392,6.13691 -1.6053,3.14654 -6.3601,4.84066 -10.1882,3.62999 z m 22.1406,-8.46294 c -2.465,-0.77076 -4.1533,-2.29717 -4.1533,-3.75508 0,-1.79504 1.9741,-2.54891 3.4531,-1.31864 1.1533,0.95938 1.8074,1.22783 2.9917,1.22783 1.1844,0 1.8385,-0.26845 2.9918,-1.22783 1.2561,-1.04497 2.7489,-0.74518 3.335,0.66974 0.4335,1.04655 -0.017,1.97183 -1.518,3.11453 -1.9999,1.52292 -4.754,2.02309 -7.1003,1.28945 z"
           id="path1861" /><path
           style="fill:#79ccf8;stroke-width:0.264132"
           d="m 691.89341,-10.369219 c -10.2737,-1.15988 -20.9861,-5.48141 -29.4771,-11.89146 -3.1164,-2.35264 -3.4159,-2.76964 -0.7299,-1.01621 3.7113,2.42277 7.5062,3.97044 12.4619,5.08233 2.2072,0.49521 3.3535,0.57318 8.3684,0.56916 5.2815,-0.004 6.1132,-0.0689 9.128,-0.70965 13.4703,-2.86296 25.3255,-10.99889 32.603,-22.37461 3.7592,-5.87606 6.2315,-12.64442 7.6484,-20.93902 l 0.1692,-0.9905 h -2.125 c -1.305,0 -2.125,0.10678 -2.125,0.27671 0,0.15219 -0.5792,0.85591 -1.2871,1.56381 -2.2069,2.20687 -5.656,2.91611 -9.0633,1.86369 -4.6779,-1.44485 -6.424,-6.02099 -3.5829,-9.38989 0.5987,-0.7099 0.6327,-0.85581 0.3042,-1.30511 -0.2539,-0.34721 -0.3699,-1.27094 -0.3699,-2.94545 0,-2.32093 0.034,-2.46622 0.696,-2.98702 0.9232,-0.7262 1.8253,-0.69143 2.6177,0.10089 0.5704,0.57039 0.6483,0.881 0.6483,2.58415 v 1.93584 l 2.4746,-0.009 c 2.3218,-0.008 2.587,0.0488 4.2942,0.92454 l 1.8196,0.93342 6.8746,-7.5329 c 8.164,-8.94573 8.4077,-9.12529 12.3842,-9.12529 4.0434,0 4.1784,0.1 12.6135,9.33708 3.9333,4.3073 7.3733,8.18803 7.6445,8.62385 0.6092,0.97917 0.6283,2.01633 0.059,3.21547 -0.7081,1.49224 -1.4197,1.7864 -4.6811,1.93509 l -2.8967,0.13207 -0.447,2.64131 c -2.4037,14.2004 -10.1559,27.38738 -21.5291,36.62212 -4.3169,3.50521 -10.6247,7.13088 -16.2334,9.33081 -3.3784,1.32511 -9.7085,2.90465 -13.6931,3.41683 -3.5032,0.45029 -11.1168,0.5165705 -14.569,0.12682 z m -42.7037,-44.18234 c -0.6066,-0.19828 -1.5258,-0.62184 -2.0426,-0.94126 -1.0952,-0.67689 -15.1905,-16.10511 -15.6618,-17.14292 -0.4579,-1.00824 -0.4127,-1.77208 0.173,-2.92005 0.759,-1.48787 1.792,-1.87474 5.0055,-1.87474 h 2.6675 v -0.69318 c 0,-1.48328 1.4013,-7.5338 2.5311,-10.9286 5.0359,-15.131451 15.8435,-27.535751 30.2378,-34.705121 15.3179,-7.62935 33.6925,-8.31133 49.3739,-1.83253 4.8525,2.00482 11.7283,6.04036 14.5292,8.52753 0.8989,0.79817 0.8811,0.79396 -0.6446,-0.15206 -3.3643,-2.08606 -7.6541,-3.74637 -12.2978,-4.75974 -1.8064,-0.39419 -3.3807,-0.49001 -8.056,-0.49032 -5.0975,-3.5e-4 -6.1676,0.0757 -8.7163,0.61971 -10.6634,2.27582 -19.5619,7.19 -26.943,14.87925 -3.7233,3.87869 -5.9837,7.059581 -8.4141,11.840301 -2.6449,5.20283 -4.1514,9.94562 -5.306,16.70426 l -0.1692,0.9905 h 2.1952 c 2.5818,0 3.735,0.48037 4.4777,1.8652 0.5533,1.03177 0.5958,1.92136 0.1405,2.94299 -0.175,0.39279 -3.61,4.33292 -7.6333,8.75583 -8.3805,9.21286 -8.6691,9.43739 -12.3261,9.59082 -1.2199,0.0512 -2.4537,-0.0579 -3.1206,-0.27587 z m 25.1717,-4.29381 c -3.7903,-1.16395 -5.8105,-4.17593 -4.9242,-7.3416 0.4676,-1.66993 1.6239,-2.90914 3.641,-3.902 1.6211,-0.79792 1.972,-0.86961 4.2167,-0.86147 l 2.4485,0.009 v -1.93584 c 0,-1.70316 0.078,-2.01376 0.6483,-2.58416 0.7923,-0.79231 1.6945,-0.82708 2.6177,-0.10089 0.6621,0.52081 0.6959,0.6661 0.6959,2.98703 0,1.67451 -0.116,2.59824 -0.3699,2.94545 -0.3285,0.44929 -0.2945,0.5952 0.3042,1.3051 2.8411,3.36891 1.095,7.94505 -3.5828,9.3899 -1.9795,0.61141 -3.8979,0.64159 -5.6954,0.0896 z m 22.9467,-8.19743 c -3.0513,-0.67142 -5.4621,-2.93067 -4.8487,-4.5439 0.6006,-1.57992 2.0603,-1.7657 3.622,-0.461 1.8096,1.51191 3.6907,1.48234 5.4771,-0.0861 1.3995,-1.22875 2.9188,-0.99152 3.5038,0.5471 0.3955,1.04022 -0.2626,2.18824 -1.858,3.24114 -1.865,1.23083 -4.0396,1.7113 -5.8962,1.30276 z"
           id="path1859" /><path
           style="fill:#e6879c;stroke-width:0.264132"
           d="m 649.18971,-54.551559 c -0.6066,-0.19828 -1.5258,-0.62184 -2.0426,-0.94126 -1.0952,-0.67689 -15.1905,-16.10511 -15.6618,-17.14292 -0.4579,-1.00824 -0.4127,-1.77208 0.173,-2.92005 0.759,-1.48787 1.792,-1.87474 5.0055,-1.87474 h 2.6675 v -0.69318 c 0,-1.48328 1.4013,-7.5338 2.5311,-10.9286 5.0359,-15.131451 15.8435,-27.535751 30.2378,-34.705121 15.3179,-7.62935 33.6925,-8.31133 49.3739,-1.83253 4.8525,2.00482 11.7283,6.04036 14.5292,8.52753 0.8989,0.79817 0.8811,0.79396 -0.6446,-0.15206 -3.3643,-2.08606 -7.6541,-3.74637 -12.2978,-4.75974 -1.8064,-0.39419 -3.3807,-0.49001 -8.056,-0.49032 -5.0975,-3.5e-4 -6.1676,0.0757 -8.7163,0.61971 -10.6634,2.27582 -19.5619,7.19 -26.943,14.87925 -3.7233,3.87869 -5.9837,7.059581 -8.4141,11.840301 -2.6449,5.20283 -4.1514,9.94562 -5.306,16.70426 l -0.1692,0.9905 h 2.1952 c 2.5818,0 3.735,0.48037 4.4777,1.8652 0.5533,1.03177 0.5958,1.92136 0.1405,2.94299 -0.175,0.39279 -3.61,4.33292 -7.6333,8.75583 -8.3805,9.21286 -8.6691,9.43739 -12.3261,9.59082 -1.2199,0.0512 -2.4537,-0.0579 -3.1206,-0.27587 z m 25.1717,-4.29381 c -3.7903,-1.16395 -5.8105,-4.17593 -4.9242,-7.3416 0.4676,-1.66993 1.6239,-2.90914 3.641,-3.902 1.6211,-0.79792 1.972,-0.86961 4.2167,-0.86147 l 2.4485,0.009 v -1.93584 c 0,-1.70316 0.078,-2.01376 0.6483,-2.58416 0.7923,-0.79231 1.6945,-0.82708 2.6177,-0.10089 0.6621,0.52081 0.6959,0.6661 0.6959,2.98703 0,1.67451 -0.116,2.59824 -0.3699,2.94545 -0.3285,0.44929 -0.2945,0.5952 0.3042,1.3051 2.8411,3.36891 1.095,7.94505 -3.5828,9.3899 -1.9795,0.61141 -3.8979,0.64159 -5.6954,0.0896 z m 43.0113,-0.10298 c -4.5917,-1.45635 -6.3001,-6.04523 -3.4907,-9.37651 0.5987,-0.7099 0.6327,-0.85581 0.3042,-1.30511 -0.2539,-0.34721 -0.3699,-1.27094 -0.3699,-2.94545 0,-2.32093 0.034,-2.46622 0.696,-2.98702 0.9232,-0.7262 1.8253,-0.69143 2.6177,0.10089 0.5704,0.57039 0.6483,0.881 0.6483,2.58415 v 1.93584 l 2.4432,-0.006 c 2.1144,-0.005 2.6387,0.0887 3.8959,0.69807 2.2817,1.1058 2.2466,1.05186 1.4473,2.22265 -0.5674,0.83109 -0.6791,1.2451 -0.5797,2.14824 0.1593,1.44661 0.7976,2.39721 1.9264,2.86883 0.4971,0.20772 0.9039,0.5006 0.9039,0.65084 0,0.15024 -0.5792,0.85236 -1.2871,1.56027 -2.2038,2.20378 -5.7692,2.92433 -9.1555,1.8503 z m -20.0646,-8.09445 c -3.0513,-0.67142 -5.4621,-2.93067 -4.8487,-4.5439 0.6006,-1.57992 2.0603,-1.7657 3.622,-0.461 1.8096,1.51191 3.6907,1.48234 5.4771,-0.0861 1.3995,-1.22875 2.9188,-0.99152 3.5038,0.5471 0.3955,1.04022 -0.2626,2.18824 -1.858,3.24114 -1.865,1.23083 -4.0396,1.7113 -5.8962,1.30276 z"
           id="path1857" /><path
           style="fill:#4e5660;stroke-width:0.264132"
           d="m 697.41451,-67.146829 c -1.5628,-0.2463 -2.7653,-0.86112 -4.0023,-2.04627 -1.2463,-1.19402 -1.3542,-2.36626 -0.2946,-3.19977 0.9343,-0.73487 1.4281,-0.69089 2.5874,0.23043 2.055,1.63308 3.7009,1.67306 5.8541,0.14219 1.5017,-1.06769 1.8957,-1.11929 2.8449,-0.37262 1.1162,0.87799 0.9616,2.04589 -0.4421,3.33975 -1.7438,1.6074 -4.0968,2.29249 -6.5474,1.90629 z m -17.1237,-2.52745 c -0.442,-0.56195 -0.5474,-1.07303 -0.5474,-2.65443 0,-1.21406 0.1488,-2.24632 0.3916,-2.71576 0.6748,-1.30506 2.6062,-1.31687 3.3002,-0.0202 0.1485,0.27766 0.2701,1.4475 0.2701,2.59964 0,2.55219 -0.5309,3.48669 -1.981,3.48669 -0.6426,0 -1.0365,-0.19119 -1.4335,-0.69595 z m 34.0998,0.0846 c -0.4938,-0.52569 -0.5743,-0.9166 -0.5743,-2.79074 0,-1.19869 0.1216,-2.40661 0.2702,-2.68427 0.694,-1.29668 2.6253,-1.28487 3.3002,0.0202 0.2427,0.46944 0.3916,1.5017 0.3916,2.71576 0,1.5814 -0.1054,2.09248 -0.5475,2.65443 -0.7155,0.90972 -2.0283,0.94884 -2.8402,0.0846 z"
           id="path1855" /></g></g></g></svg>
