<?xml version="1.0" encoding="UTF-8" standalone="no"?>
<!-- Created with Inkscape (http://www.inkscape.org/) -->

<svg
   width="6.135859mm"
   height="9.5249996mm"
   viewBox="0 0 6.135859 9.5249996"
   version="1.1"
   id="svg16613"
   inkscape:version="1.1.2 (b8e25be833, 2022-02-05)"
   sodipodi:docname="so_36px.svg"
   xmlns:inkscape="http://www.inkscape.org/namespaces/inkscape"
   xmlns:sodipodi="http://sodipodi.sourceforge.net/DTD/sodipodi-0.dtd"
   xmlns="http://www.w3.org/2000/svg"
   xmlns:svg="http://www.w3.org/2000/svg">
  <sodipodi:namedview
     id="namedview16615"
     pagecolor="#ffffff"
     bordercolor="#666666"
     borderopacity="1.0"
     inkscape:pageshadow="2"
     inkscape:pageopacity="0.0"
     inkscape:pagecheckerboard="0"
     inkscape:document-units="mm"
     showgrid="false"
     fit-margin-top="0"
     fit-margin-left="0"
     fit-margin-right="0"
     fit-margin-bottom="0"
     inkscape:zoom="5.865376"
     inkscape:cx="-29.750863"
     inkscape:cy="12.957396"
     inkscape:window-width="1920"
     inkscape:window-height="1009"
     inkscape:window-x="-8"
     inkscape:window-y="-8"
     inkscape:window-maximized="1"
     inkscape:current-layer="layer1" />
  <defs
     id="defs16610" />
  <g
     inkscape:label="Layer 1"
     inkscape:groupmode="layer"
     id="layer1"
     transform="translate(-109.16246,-54.467744)">
    <g
       id="g675"
       transform="matrix(0.05272732,0,0,0.05272732,134.46965,58.11143)"
       inkscape:export-filename="C:\Users\adici\Documents\Git\Docusaurus\docs\img\salt.png"
       inkscape:export-xdpi="24.082964"
       inkscape:export-ydpi="24.082964"
       style="display:inline">
      <path
         style="fill:#e9e9e9;stroke-width:0.352778"
         d="m -466.49391,98.039842 c -0.38175,-1.042028 4.65014,-69.131566 5.31229,-70.975906 0.66689,-1.857501 5.62524,-4.507518 7.62838,-5.502691 l 1.67957,-0.834421 29.24463,-0.09803 c 32.36785,-0.108499 31.46184,-0.164842 34.49651,2.145192 1.01775,0.774722 1.89847,1.914398 2.65568,3.436543 1.10615,2.223562 3.99064,5.380518 5.05105,16.57471 0.59735,6.305903 1.87724,19.561528 2.8442,29.456944 2.46474,25.223096 1.25994,25.633307 0.33161,26.468134 -8.76263,0 -82.93467,-0.670475 -89.24392,-0.670475 z"
         id="path689"
         sodipodi:nodetypes="csscssssscc" />
      <path
         style="fill:#c6c4ca;stroke-width:0.352778"
         d="m -450.792,-39.272557 c -5.08524,-5.363986 -6.27433,-7.792689 -6.94789,-11.724904 -1.30458,-7.616084 4.73972,-15.607055 12.32586,-17.710629 2.18154,-0.604925 4.17711,-0.337224 28.70495,-0.337224 17.82957,0 26.9654,0.125779 28.22985,0.388659 4.31968,0.898063 8.93187,4.284774 10.78223,7.91735 1.93845,3.805506 2.36213,8.313398 1.14721,12.206136 -0.9036,2.895232 -1.82636,4.238475 -6.72441,9.788558 l -4.29146,4.954577 -28.99294,0.0226 -28.99294,0.0226 z"
         id="path687"
         sodipodi:nodetypes="sssssssscccs" />
      <path
         style="fill:#8fd2ef;stroke-width:0.352778"
         d="m -468.46125,102.48924 c -2.31095,-4.842141 -2.72468,-3.328841 1.33958,-45.238646 1.99945,-20.617879 2.9186,-38.840878 3.1887,-40.391357 1.97061,-11.3119748 2.86124,-23.4935723 12.20213,-30.202617 l 6.33373,-4.549162 29.16095,-0.438194 29.09782,-0.08358 2.52107,4.142358 c 5.82925,9.5780113 11.08274,18.6090313 13.17551,29.011354 1.25327,6.229516 8.06046,76.440816 7.84286,80.893514 -0.14524,2.972128 -0.29804,3.560159 -1.61645,6.22082 -2.37589,4.79472 -6.81971,8.25824 -11.97499,9.33331 -2.82496,0.58911 -79.71777,0.26727 -83.89356,0.26727 -3.84623,-2.51734 -5.07899,-3.97376 -7.37735,-8.96507 z m 89.30752,-6.56251 0.969,-0.833501 -3.09318,-31.815369 c -1.85517,-19.081634 -3.30176,-32.427513 -3.61431,-33.344813 -0.74166,-2.176646 -2.64724,-4.232201 -4.98984,-5.38256 l -2.01939,-0.99164 -29.25114,-0.09614 c -33.12861,-0.108885 -31.60315,-0.221901 -34.71014,2.571541 -3.27204,2.941849 -2.9138,0.892415 -6.3933,36.575047 -1.99847,20.494579 -2.99913,32.144381 -2.80541,32.661102 0.16561,0.441773 0.66062,0.947645 1.1,1.124168 0.46285,0.185949 18.26306,0.330352 42.31879,0.343306 l 41.51991,0.02236 z"
         id="path685"
         sodipodi:nodetypes="cssscccsssssccccssscsssssscc" />
      <path
         style="fill:#58c1e6;stroke-width:0.352778"
         d="m -466.77406,111.04276 c -4.88036,-1.0603 -9.33569,-4.5764 -11.55205,-9.11677 -2.36535,-4.84556 -2.43026,-3.007239 1.55263,-43.971311 1.95254,-20.081874 3.80267,-38.159947 4.1114,-40.173496 1.76651,-11.5212073 6.44647,-22.4275792 13.82929,-32.228352 l 2.75025,-3.666625 h 5.42015 5.42016 l -2.93026,3.907769 c -7.018,9.3591559 -11.57329,19.7529803 -13.54396,31.065262 -0.2701,1.550479 -2.12701,19.688227 -4.12646,40.306106 -3.39055,34.962627 -3.60626,37.656773 -3.20318,40.007345 1.16115,6.771292 6.28787,12.303012 12.88542,13.903332 1.71551,0.41613 1.53038,0.44099 -3.29772,0.44283 -2.99384,0.001 -6.02784,-0.1963 -7.31567,-0.47609 z"
         id="path683"
         sodipodi:nodetypes="ssssscccssssscs" />
      <path
         style="fill:#9f9cac;stroke-width:0.352778"
         d="m -448.69867,-18.562767 c -11.09495,-4.385699 -5.26606,-11.669801 -2.71531,-14.310747 l -4.43617,-0.0077 -4.69302,-6.153201 c -4.46295,-5.851545 -6.41353,-8.016794 -7.04057,-11.734284 -0.80094,-4.748544 0.93789,-10.076145 4.42788,-13.566536 3.55297,-3.553368 7.2143,-4.710275 14.80997,-4.679642 l 4.93889,0.01992 -2.16931,0.620831 c -7.45284,2.132922 -12.45219,9.971638 -11.16231,17.501915 0.67356,3.932215 2.0245,6.211992 6.94789,11.724904 l 4.48951,5.027084 h 29.52444 c 18.16294,0 29.98686,0.132622 30.72612,0.344639 3.40384,0.97621 5.67282,4.073147 5.67282,7.742851 0,2.497878 -0.72056,4.18537 -2.52804,5.920422 -2.39996,2.303798 -1.09136,2.220669 -34.82256,2.212118 -29.0171,-0.0074 -29.21921,0.613807 -30.55912,-0.0079 z"
         id="path681"
         sodipodi:nodetypes="cccsssscssscssssccc" />
      <path
         style="fill:#817e96;stroke-width:0.352778"
         d="m -459.63478,-18.731243 c -2.10196,-0.991235 -3.06006,-1.966676 -4.0273,-4.100188 -1.3982,-3.084106 -0.76168,-6.343046 1.72448,-8.829209 2.1306,-2.130595 3.42223,-2.461327 9.57569,-2.451932 l 5.07435,0.0077 -1.41111,0.647318 c -5.09844,2.338804 -6.39271,8.989353 -2.53976,13.050403 0.62076,0.654283 1.76365,1.484235 2.53976,1.844337 l 1.41111,0.65473 -5.29167,0.0043 c -4.83054,0.0039 -5.44537,-0.06818 -7.05555,-0.827507 z"
         id="path679"
         sodipodi:nodetypes="cssccssscscc" />
      <path
         style="fill:#433f4f;stroke-width:0.352778"
         d="m -424.55083,65.607491 c -3.30102,-0.930194 -5.62701,-2.996949 -5.62701,-4.999877 0,-2.51055 2.54208,-3.125533 4.94327,-1.195888 1.19863,0.963245 1.73708,1.154987 3.28664,1.170379 1.31088,0.01302 2.14232,-0.188055 2.84128,-0.687148 2.18359,-1.559175 3.08412,-1.906012 4.02246,-1.549255 2.13409,0.811378 2.36664,2.551451 0.60202,4.504676 -2.23719,2.476302 -6.71442,3.702307 -10.06866,2.757113 z m -22.91312,-2.713923 c -0.60612,-0.606121 -0.70555,-1.175924 -0.70555,-4.0432 0,-2.979208 0.0829,-3.414896 0.77207,-4.056944 0.42464,-0.395616 1.18846,-0.7193 1.69737,-0.7193 0.50891,0 1.27273,0.323684 1.69737,0.7193 0.68916,0.642048 0.77208,1.077736 0.77208,4.056944 0,3.77806 -0.50478,4.748756 -2.46945,4.748756 -0.58796,0 -1.37191,-0.313581 -1.76389,-0.705556 z m 47.65061,-0.223964 c -0.60807,-0.773025 -0.73116,-1.429061 -0.73116,-3.896589 0,-2.679856 0.0838,-3.050893 0.86591,-3.83298 0.47625,-0.47625 1.27721,-0.865911 1.77992,-0.865911 0.50271,0 1.30367,0.389661 1.77992,0.865911 0.78209,0.782087 0.86591,1.153124 0.86591,3.83298 0,3.590625 -0.67733,4.826109 -2.64583,4.826109 -0.85839,0 -1.38437,-0.255351 -1.91467,-0.92952 z"
         id="path677" />
    </g>
  </g>
</svg>
