<?xml version="1.0" encoding="UTF-8" standalone="no"?>
<!-- Created with Inkscape (http://www.inkscape.org/) -->

<svg
   version="1.1"
   id="svg2"
   width="93.004028"
   height="48"
   viewBox="0 0 93.004028 48"
   sodipodi:docname="tal_48px.svg"
   inkscape:version="1.1.2 (b8e25be833, 2022-02-05)"
   xmlns:inkscape="http://www.inkscape.org/namespaces/inkscape"
   xmlns:sodipodi="http://sodipodi.sourceforge.net/DTD/sodipodi-0.dtd"
   xmlns="http://www.w3.org/2000/svg"
   xmlns:svg="http://www.w3.org/2000/svg">
  <defs
     id="defs6" />
  <sodipodi:namedview
     id="namedview4"
     pagecolor="#ffffff"
     bordercolor="#666666"
     borderopacity="1.0"
     inkscape:pageshadow="2"
     inkscape:pageopacity="0.0"
     inkscape:pagecheckerboard="0"
     showgrid="false"
     fit-margin-top="0"
     fit-margin-left="0"
     fit-margin-right="0"
     fit-margin-bottom="0"
     inkscape:zoom="4.8222655"
     inkscape:cx="27.061969"
     inkscape:cy="0.62211423"
     inkscape:window-width="1920"
     inkscape:window-height="1009"
     inkscape:window-x="-8"
     inkscape:window-y="-8"
     inkscape:window-maximized="1"
     inkscape:current-layer="g8" />
  <g
     inkscape:groupmode="layer"
     inkscape:label="Image"
     id="g8"
     transform="translate(-16.776706,-267.70825)">
    <g
       id="g66"
       transform="matrix(0.13638117,0,0,0.13638117,16.728464,226.07838)">
      <path
         style="fill:#5ad4fd;stroke-width:1.33333"
         d="M 361.14532,394.13976 50.957283,393.80079 48.209958,383.47027 c -3.593775,-13.51335 -9.799686,-38.86691 -9.805038,-46.52445 -0.0088,-12.62329 10.305449,-27.62357 22.81628,-31.09813 3.351083,-0.93068 103.56149,-0.50189 300.20348,-0.50691 327.19374,-0.008 300.4583,-0.86132 311.24974,9.93012 8.47611,8.47611 10.94572,17.23088 8.98803,31.86255 -1.73304,12.95258 -10.76497,47.22078 -11.88102,46.73651 -0.41892,-0.18177 -138.03269,0.45623 -308.63611,0.2698 z"
         id="path195"
         sodipodi:nodetypes="scssscssss" />
      <path
         style="fill:#5ad4fd;stroke-width:1.33333"
         d="m 236.29521,654.44924 c -6.94294,-3.34798 -14.50127,-11.912 -16.29307,-18.36208 -0.72633,-2.61459 -1.32395,-16.60381 -1.32803,-31.08714 l -0.007,-31.72499 H 359.8914 c 77.67336,0 142.17336,-0.36419 143.33334,-0.80932 1.8822,-0.72227 2.1059,7.5736 2.07977,32.39166 -0.0264,25.1046 -0.29384,28.39288 -2.74943,33.80932 -3.38386,7.46401 -7.03513,11.44177 -13.88796,15.12976 l -5.33333,2.87024 -120.66667,0.28181 c -119.89562,0.28002 -120.66655,0.25194 -120.66655,0.25194 z"
         id="path72"
         sodipodi:nodetypes="ssccssssscscs" />
      <path
         style="fill:#03bafa;stroke-width:1.33333"
         d="m 200.16434,655.99738 c -6.82312,-1.61097 -15.10864,-8.08909 -18.831,-14.72322 -3.22277,-5.74376 -3.34737,-6.89178 -3.75657,-34.61259 l -0.42324,-28.67179 -10.19559,-5.32821 C 139.65515,558.39314 106.4937,533.10776 81.932687,507.8304 37.582232,462.18642 11.995347,412.37639 1.9498806,352.12777 0.04147692,340.68193 -0.08904342,337.06709 1.2036733,331.4611 3.9958783,319.35242 12.827255,310.11621 24.78844,306.7952 c 2.866358,-0.79584 13.911561,-1.42399 24.544895,-1.3959 18.077793,0.0477 18.998018,0.17062 14.169995,1.8916 -12.229319,4.35924 -22.17423,17.79584 -22.165735,29.94819 0.0053,7.65815 3.278675,26.91178 6.873121,40.42759 l 2.748086,10.33333 H 360.73405 c 195.80378,0 310.06541,0.46947 310.56389,1.27603 1.19375,1.93152 -7.9288,25.38915 -16.87438,43.39064 -18.98944,38.2131 -48.85589,74.56436 -85.75687,104.37706 -13.35464,10.78936 -40.84822,29.05741 -53.9137,35.82287 l -9.91369,5.13341 -143.08631,0.35103 -143.08632,0.35102 0.008,26.31564 c 0.004,14.4736 0.6017,28.45486 1.32803,31.06945 1.79405,6.45814 9.37169,14.9911 16.29307,18.34714 l 5.7048,2.76614 -18.66667,-0.07 c -10.26667,-0.0385 -20.69272,-0.54838 -23.169,-1.13303 z"
         id="path70"
         sodipodi:nodetypes="ssscssssssssscsssssccccsscsss" />
      <path
         style="fill:#313942;stroke-width:1.33333"
         d="m 328.9793,518.63438 c -7.5927,-1.91751 -15.26078,-6.2244 -21.7785,-12.23223 -4.7055,-4.33736 -5.86746,-6.29896 -5.86746,-9.90528 0,-10.23388 9.78931,-12.91279 19.15172,-5.24099 7.26678,5.95458 11.86716,7.64054 20.84828,7.64054 8.98113,0 13.58151,-1.68596 20.84829,-7.64054 9.36241,-7.6718 19.15172,-4.99289 19.15172,5.24099 0,3.63227 -1.17278,5.57788 -6.0998,10.11945 -8.92254,8.2245 -18.56906,12.21082 -30.973,12.79926 -5.6433,0.26772 -12.51986,-0.0839 -15.28125,-0.7812 z M 213.63862,507.10763 c -3.77333,-1.5182 -5.63861,-8.28724 -5.63861,-20.46239 0,-15.72828 2.81681,-21.17485 11,-21.26949 4.22502,-0.0488 8.56012,3.74072 9.76334,8.53479 0.45716,1.82144 0.62242,9.09037 0.36726,16.15321 -0.4189,11.59481 -0.76952,13.08881 -3.61164,15.38889 -2.98948,2.41932 -8.18264,3.14275 -11.88035,1.65499 z m 243.5091,-1.65416 c -2.88254,-2.33203 -3.18562,-3.72255 -3.59781,-16.50705 -0.50743,-15.73823 1.31593,-21.60963 7.16691,-23.07812 4.53866,-1.13914 10.61473,1.60402 12.44357,5.6179 2.23463,4.90447 1.92588,26.50152 -0.44439,31.08512 -3.12228,6.03782 -10.07632,7.32522 -15.56828,2.88215 z"
         id="path68" />
    </g>
  </g>
</svg>
