<?xml version="1.0" encoding="UTF-8" standalone="no"?>
<!-- Created with Inkscape (http://www.inkscape.org/) -->

<svg
   width="12.7mm"
   height="12.687611mm"
   viewBox="0 0 12.7 12.687611"
   version="1.1"
   id="svg12672"
   inkscape:version="1.1.2 (b8e25be833, 2022-02-05)"
   sodipodi:docname="yeast_48px.svg"
   xmlns:inkscape="http://www.inkscape.org/namespaces/inkscape"
   xmlns:sodipodi="http://sodipodi.sourceforge.net/DTD/sodipodi-0.dtd"
   xmlns="http://www.w3.org/2000/svg"
   xmlns:svg="http://www.w3.org/2000/svg">
  <sodipodi:namedview
     id="namedview12674"
     pagecolor="#ffffff"
     bordercolor="#666666"
     borderopacity="1.0"
     inkscape:pageshadow="2"
     inkscape:pageopacity="0.0"
     inkscape:pagecheckerboard="0"
     inkscape:document-units="mm"
     showgrid="false"
     fit-margin-top="0"
     fit-margin-left="0"
     fit-margin-right="0"
     fit-margin-bottom="0"
     inkscape:zoom="8.7988368"
     inkscape:cx="17.104534"
     inkscape:cy="33.981764"
     inkscape:window-width="1920"
     inkscape:window-height="1129"
     inkscape:window-x="-8"
     inkscape:window-y="-8"
     inkscape:window-maximized="1"
     inkscape:current-layer="g1118" />
  <defs
     id="defs12669" />
  <g
     inkscape:label="Layer 1"
     inkscape:groupmode="layer"
     id="layer1"
     transform="translate(-49.264691,-84.704608)">
    <g
       id="g1118"
       transform="matrix(0.09375,0,0,0.09375,51.123858,89.734912)">
      <path
         style="fill:#fefefe;stroke-width:0.264583"
         d="m -185.33977,44.305123 v -67.73333 h 67.73333 67.73333 v 67.73333 67.733327 h -67.73333 -67.73333 z"
         id="path1136" />
      <g
         id="g1601">
        <g
           id="g665"
           transform="matrix(1.0329172,0,0,1.0329172,79.177631,-17.483338)">
          <path
             style="fill:#f4e3d3;stroke-width:0.264583"
             d="m -37.429516,95.98736 c -15.36639,-1.069499 -29.97793,-4.799039 -41.115194,-10.494496 -6.66274,-3.407241 -11.889041,-7.904017 -12.827754,-11.03716 -0.396632,-1.32384 -0.423379,-66.8389797 -0.02771,-67.8796627 1.242469,-3.26794 7.761607,-6.97599322 16.267538,-9.2528941 l 2.645833,-0.7082498 -0.09218,-1.3637233 c -0.0507,-0.7500488 -0.250924,-1.542706 -0.444946,-1.7614608 -0.821975,-0.926756 -1.706541,-3.3343769 -1.700835,-4.6293483 0.0065,-1.469558 0.356176,-2.099872 1.381233,-2.489598 l 0.687649,-0.261444 0.08454,-4.215822 0.08454,-4.215823 1.02697,-1.489979 c 3.800589,-5.51409 16.257166,-9.770208 32.286097,-11.031397 4.907095,-0.386101 17.853852,-0.162125 22.117139,0.382621 14.5112654,1.854192 24.50916,5.664022 27.944904,10.648776 l 1.02697,1.489979 0.08456,4.217653 c 0.07347,3.664473 0.142878,4.238158 0.529167,4.373999 1.126479,0.39613 1.635286,1.197377 1.632643,2.57101 -0.0026,1.3069266 -0.883148,3.7098167 -1.703943,4.6493733 -0.191103,0.2187548 -0.400505,1.0748565 -0.465333,1.9024493 l -0.117875,1.5047171 2.108853,0.5690287 c 8.658196,2.33623372 15.043184,5.7023633 16.598222,8.7504875 0.503833,0.9875916 0.51552,1.7958434 0.495864,34.2933211 -0.01498,24.77086 -0.09956,33.499823 -0.330729,34.134096 -0.528871,1.451072 -2.557733,3.981386 -4.385347,5.469225 -9.274191,7.55001 -25.58438174,13.272336 -43.814834,15.372151 -3.531319,0.406744 -16.61974,0.735769 -19.976042,0.502171 z"
             id="path685" />
          <path
             style="fill:#f2ddc9;stroke-width:0.264583"
             d="M -36.238891,95.873526 C -44.80467,95.43944 -54.202524,93.911619 -62.348079,91.628924 l -3.908491,-1.095309 -0.07241,-4.357441 -0.07241,-4.357441 -2.365574,-0.914273 c -5.738482,-2.217872 -10.423203,-5.248701 -12.64442,-8.18044 -1.87713,-2.477587 -1.8096,-1.599433 -1.730125,-22.498179 l 0.07137,-18.767561 0.774434,-1.5875 c 0.970542,-1.989498 3.5473,-4.598435 6.344431,-6.423657 1.15048,-0.750729 2.193445,-1.39885 2.3177,-1.440268 0.124254,-0.04142 -1.356339,-1.693648 -3.290207,-3.67162 -3.921724,-4.011165 -3.969215,-4.038846 -9.517815,-5.547526 -3.609877,-0.981535 -4.581449,-1.38644 -4.941621,-2.059427 -0.471311,-0.880652 -0.344635,-3.3852877 0.227985,-4.5077163 0.658937,-1.2916217 2.899616,-3.3262727 5.065273,-4.599527 2.096016,-1.23230742 7.420153,-3.3160307 10.980877,-4.297619 l 2.669392,-0.7358723 -0.128337,-1.3356325 c -0.08109,-0.8438753 -0.407577,-1.7759494 -0.88676,-2.5315411 -1.429693,-2.2543928 -1.724014,-4.8067658 -0.668613,-5.7982628 0.336801,-0.316408 0.813051,-0.575287 1.058334,-0.575287 0.398458,0 0.445968,-0.423736 0.445968,-3.977546 0,-3.686015 0.04688,-4.069015 0.639646,-5.225521 1.175872,-2.29417 4.06047,-4.625472 7.912562,-6.394845 8.284321,-3.805222 20.00859,-5.827878 33.781123,-5.827878 14.26652,0 26.1891635,2.149888 34.5535974,6.230697 3.4005598,1.659051 6.0915676,3.908568 7.1321296,5.962014 0.601691,1.187382 0.647604,1.559983 0.647604,5.255533 0,3.674566 0.0368,3.977546 0.483047,3.977546 0.265674,0 0.741924,0.275564 1.058334,0.612365 1.001815,1.066384 0.619884,3.7698884 -0.847948,6.0022175 -0.37031,0.5631788 -0.669612,1.5202481 -0.763836,2.4424824 l -0.154932,1.5164408 1.104855,0.2759842 c 3.127182,0.7811505 8.855559,2.81189364 11.178061,3.9626882 3.246038,1.608402 5.011126,2.9371156 6.146913,4.6272263 l 0.874284,1.3009853 -0.08053,33.4844903 -0.08054,33.48449 -0.762339,1.455208 c -1.731854,3.305895 -6.60173,7.07072 -13.525161,10.456093 -14.6965871,7.186236 -34.272504,10.85086 -52.916663,9.906031 z"
             id="path683" />
          <path
             style="fill:#ecd3ab;stroke-width:0.264583"
             d="M -36.106599,86.714506 C -46.897783,86.15024 -55.892904,84.801201 -63.424827,82.61747 l -2.844271,-0.82464 V 65.19382 48.594807 l -1.653645,-0.599363 c -2.384018,-0.864085 -6.637783,-3.040714 -8.791811,-4.498724 -2.555501,-1.729756 -4.744605,-4.105529 -5.736977,-6.22618 -0.742328,-1.586317 -0.806472,-1.929625 -0.692462,-3.706137 0.170667,-2.659357 1.215513,-4.753039 3.494595,-7.002537 1.587216,-1.566613 4.991638,-4.046087 6.002503,-4.371683 0.579872,-0.186772 -6.104318,-7.013707 -7.591981,-7.754112 -0.957112,-0.476351 -2.205719,-0.864875 -7.436063,-2.313858 -0.754307,-0.208968 -1.736572,-0.68716 -2.182812,-1.062646 -0.738031,-0.621011 -0.811345,-0.824976 -0.811345,-2.2572211 0,-1.9042035 0.557476,-3.1000328 2.160978,-4.635468 2.75151,-2.6347101 8.046797,-5.10199456 14.944309,-6.9631424 l 2.128151,-0.5742384 -0.11951,-1.3710232 c -0.07314,-0.8390704 -0.361163,-1.7303273 -0.742331,-2.2970674 -0.832735,-1.2381547 -1.438265,-3.0194305 -1.438265,-4.2309165 0,-1.143361 0.836024,-2.383666 1.606704,-2.383666 0.480396,0 0.510113,-0.22627 0.512547,-3.902604 0.0023,-3.539652 0.06034,-4.025639 0.623546,-5.225521 1.898511,-4.044648 9.016159,-7.806076 18.953035,-10.016011 7.78329,-1.730983 15.837,-2.423748 25.532291,-2.196239 9.24439,0.216928 14.92692,0.910303 21.9604154,2.67958 8.9063218,2.240388 15.2281962,5.791033 16.9727926,9.53267 0.557884,1.1965 0.617077,1.695846 0.619413,5.225521 0.0024,3.676334 0.03215,3.902604 0.512548,3.902604 0.770679,0 1.606704,1.240305 1.606704,2.383666 0,1.209121 -0.604446,2.9900049 -1.436002,4.2309165 -0.392544,0.5857822 -0.672698,1.4803252 -0.762463,2.4345634 l -0.141902,1.5085218 1.500913,0.414028 c 9.314343,2.56936329 15.543053,5.7811085 17.158474,8.8475207 0.824574,1.565214 0.862571,4.0096066 0.07458,4.7975966 -0.663991,0.66399 -1.231725,0.883722 -4.770027,1.846154 -5.486045,1.492226 -5.539544,1.523436 -9.438293,5.50587 -1.926794,1.968154 -3.474606,3.597196 -3.439583,3.620098 0.03502,0.02291 1.135239,0.732745 2.444927,1.577433 2.917952,1.881939 5.295947,4.265324 6.349999,6.364393 l 0.79375,1.580695 v 19.049999 19.049999 l -0.776808,1.5875 c -3.387693,6.923158 -17.4049711,12.661436 -36.132565,14.791657 -6.711346,0.7634 -15.759556,1.087477 -21.695831,0.777071 z M -66.269098,32.748801 c 0,-1.804334 -0.04384,-1.980388 -0.416213,-1.671347 -0.610013,0.506267 -1.43587,2.241018 -1.43587,3.016118 0,0.591611 0.110779,0.671999 0.926042,0.671999 h 0.926041 z"
             id="path681" />
          <path
             style="fill:#d2b88c;stroke-width:0.264583"
             d="m -37.694099,53.652359 c -9.138237,-0.525338 -19.052846,-2.206868 -26.259895,-4.453707 l -2.315104,-0.721749 v -6.855666 -6.855666 h 0.994688 c 0.708144,0 1.08989,-0.15244 1.32516,-0.529167 0.181759,-0.291041 0.566577,-0.529166 0.855152,-0.529166 0.288576,0 0.673394,0.238125 0.855152,0.529166 0.284999,0.456354 0.617016,0.529167 2.412939,0.529167 h 2.082467 l -0.183952,-0.992187 c -0.260501,-1.405065 -1.090149,-2.633194 -2.335599,-3.457395 -0.892198,-0.590429 -1.366993,-0.709793 -2.823321,-0.709793 -1.23046,0 -1.963523,0.139415 -2.466718,0.46912 l -0.715968,0.469122 V 26.68989 22.835343 l -0.992187,0.210428 c -1.593014,0.337852 -3.440173,0.157072 -4.718594,-0.461799 -0.746964,-0.361598 -2.584767,-1.979112 -4.948631,-4.355456 l -3.760379,-3.780235 -3.042708,-0.932701 c -1.673489,-0.512984 -3.898099,-1.181399 -4.943576,-1.485363 -2.374971,-0.690504 -2.993923,-1.368237 -2.993923,-3.2782477 0,-2.978269 2.194065,-5.3637257 7.224009,-7.85416649 2.751502,-1.36233422 7.660058,-3.14022301 10.94647,-3.96483131 l 1.104855,-0.2772251 -0.147585,-1.5164408 c -0.08117,-0.8340434 -0.296594,-1.6950345 -0.478716,-1.9133158 -0.733246,-0.8788293 -1.451251,-2.6862985 -1.612658,-4.0596238 -0.155777,-1.325417 -0.110788,-1.512934 0.512527,-2.136249 0.375812,-0.375811 0.867299,-0.683293 1.092195,-0.683293 0.350399,0 0.408902,-0.560389 0.408902,-3.916801 0,-3.676975 0.04167,-4.00043 0.680623,-5.282633 3.533612,-7.091037 21.039381,-12.231815 41.652708,-12.231815 20.9052494,0 38.5291232,5.271278 41.813433,12.506346 0.426093,0.938649 0.509217,1.746077 0.514088,4.993616 l 0.0058,3.873921 0.658111,0.165175 c 1.766266,0.443305 1.884722,2.957206 0.277151,5.8818198 -0.514395,0.9358259 -0.935262,2.0468404 -0.935262,2.4689195 0,0.4220819 -0.114806,1.0693823 -0.255125,1.4384496 -0.2408,0.6333463 -0.192508,0.6866255 0.859896,0.9486952 3.07535,0.7658232 9.587126,3.05844829 11.679361,4.1119979 4.760018,2.3969132 6.53709,4.2937878 6.720456,7.1735311 0.164995,2.5911599 -0.309967,2.9720589 -5.378547,4.3133639 -5.079772,1.344272 -5.603745,1.656374 -9.535662,5.679914 l -3.450244,3.530645 1.991527,1.156279 c 2.662235,1.545693 6.037125,4.884967 7.043422,6.96909 0.629896,1.304563 0.763773,1.926257 0.769178,3.571875 0.0085,2.603333 -0.819454,4.423426 -3.094138,6.801434 -6.135584,6.414281 -19.84568795,11.088383 -37.512623,12.78895 -3.084057,0.296863 -16.42561,0.544055 -19.579165,0.362762 z m 6.553181,-12.007622 c 0.181758,-0.291041 0.566576,-0.529166 0.855152,-0.529166 0.288576,0 0.673394,0.238125 0.855152,0.529166 0.284998,0.456354 0.617016,0.529167 2.412939,0.529167 h 2.082466 l -0.179527,-0.992187 c -0.245777,-1.358316 -1.231263,-2.787065 -2.441239,-3.539289 -0.792721,-0.492821 -1.379974,-0.627899 -2.729791,-0.627899 -1.349817,0 -1.93707,0.135078 -2.729791,0.627899 -1.209976,0.752224 -2.195462,2.180973 -2.441239,3.539289 l -0.179527,0.992187 h 2.082466 c 1.795923,0 2.127941,-0.07281 2.412939,-0.529167 z m 28.5749988,-7.408333 c 0.1817581,-0.291041 0.5665761,-0.529166 0.8551518,-0.529166 0.2885757,0 0.6733936,0.238125 0.85515181,0.529166 0.28499857,0.456354 0.61701624,0.529167 2.41293899,0.529167 H 3.63979 L 3.4602622,33.773384 C 3.2144855,32.415068 2.2289999,30.986319 1.0190234,30.234095 0.22630264,29.741274 -0.36095062,29.606196 -1.7107674,29.606196 c -1.3498168,0 -1.9370701,0.135078 -2.7297908,0.627899 -1.2099766,0.752224 -2.1954621,2.180973 -2.4412388,3.539289 l -0.1795278,0.992187 h 2.0824666 c 1.7959227,0 2.1279404,-0.07281 2.412939,-0.529167 z"
             id="path679" />
          <path
             style="fill:#f79351;stroke-width:0.264583"
             d="m -45.391233,26.152405 c -0.668162,-0.205827 -2.335037,-1.144283 -3.704166,-2.085464 -6.1502,-4.227833 -7.081364,-4.554662 -10.463704,-3.672657 -1.143884,0.298288 -3.317917,0.987845 -4.831188,1.532352 -5.748721,2.068515 -7.109,1.673818 -12.197556,-3.539217 -1.81901,-1.863508 -3.783542,-3.630779 -4.365625,-3.927266 -0.981938,-0.500157 -2.655977,-1.046496 -7.442623,-2.428972 -2.556082,-0.738246 -3.044688,-1.176341 -3.208043,-2.8763995 -0.167955,-1.7479459 0.794669,-3.8464144 2.398563,-5.2287353 2.641972,-2.2769934 7.636815,-4.60118858 13.54377,-6.3021736 l 3.174999,-0.9142809 -0.0911,-1.5022353 c -0.06327,-1.0433949 -0.287296,-1.7913508 -0.733451,-2.448798 -0.353295,-0.5206073 -0.833585,-1.6043697 -1.067311,-2.4083617 -0.573161,-1.9716047 -0.281175,-3.1927907 0.893946,-3.7387897 l 0.854169,-0.396875 0.0057,-3.604756 c 0.0065,-4.113866 0.286417,-5.239623 1.745285,-7.019977 6.356784,-7.757617 30.825561,-12.400138 52.833567,-10.024243 15.18822,1.639659 26.50089,6.079931 29.480418,11.571192 0.385964,0.71133 0.492464,1.657888 0.567381,5.042888 0.07595,3.431715 0.160295,4.167188 0.477885,4.167188 0.663866,0 1.68452,1.24611 1.68452,2.056617 0,1.150765 -0.712341,3.305825 -1.453938,4.3986308 -0.364501,0.53712 -0.662729,1.2995036 -0.662729,1.6941852 0,0.3946816 -0.110511,1.1029288 -0.245578,1.5738845 l -0.245578,0.8562815 1.502349,0.4162663 c 10.022741,2.77707186 16.050875,5.9528311 17.545843,9.2435596 0.657346,1.4469533 0.639662,3.3152158 -0.03956,4.1786991 -0.562221,0.714751 -1.427814,1.047549 -5.64819,2.171586 -4.339418,1.155743 -4.931074,1.521667 -8.918395,5.515803 -5.364622,5.373793 -6.354664,5.636368 -12.6271725,3.348956 -6.7042688,-2.444864 -7.9423732,-2.403256 -12.0161811,0.403817 -4.1315294,2.846845 -5.8812374,3.825851 -7.4112244,4.14677 -1.29934,0.272539 -1.661388,0.242811 -3.201943,-0.262919 -0.955328,-0.313611 -2.905212,-1.217007 -4.333078,-2.007545 -2.770129,-1.533683 -5.408017,-2.545011 -6.638256,-2.545011 -1.37555,0 -3.594263,0.82351 -6.479928,2.405129 -3.047754,1.670457 -5.537377,2.633419 -6.731114,2.603526 -0.404772,-0.01013 -1.282631,-0.18683 -1.950794,-0.392655 z"
             id="path677" />
          <path
             style="fill:#f97925;stroke-width:0.264583"
             d="m -45.391233,26.152405 c -0.668162,-0.205827 -2.335037,-1.144283 -3.704166,-2.085464 -6.1502,-4.227833 -7.081364,-4.554662 -10.463704,-3.672657 -1.143884,0.298288 -3.317917,0.987845 -4.831188,1.532352 -5.748721,2.068515 -7.109,1.673818 -12.197556,-3.539217 -1.81901,-1.863508 -3.783542,-3.630779 -4.365625,-3.927266 -0.981938,-0.500157 -2.655977,-1.046496 -7.442623,-2.428972 -2.556082,-0.738246 -3.044688,-1.176341 -3.208043,-2.8763995 -0.167955,-1.7479459 0.794669,-3.8464144 2.398563,-5.2287353 2.641269,-2.2763875 7.633372,-4.59957462 13.54377,-6.3028959 l 3.174999,-0.9150058 -0.09049,-1.4003364 -0.09049,-1.4003389 1.2073,1.1128506 c 5.349026,4.93055783 18.205571,8.8443696 31.980446,9.7355391 l 2.84427,0.1840124 V 2.8403868 0.74089961 l -3.78152,-0.31289888 c -12.80507,-1.05955565 -23.952315,-4.49028583 -28.1465,-8.66250553 -1.270842,-1.264187 -1.670852,-1.8547952 -1.802781,-2.6617792 -0.268145,-1.640164 -0.618395,-2.256089 -1.464577,-2.575486 l -0.787953,-0.29742 v -3.612894 c 0,-4.123747 0.277135,-5.243424 1.739558,-7.028117 6.356784,-7.757617 30.825561,-12.400138 52.833567,-10.024243 15.18822,1.639659 26.50089,6.079931 29.480418,11.571192 0.385808,0.71104 0.492459,1.657296 0.567193,5.032377 0.08207,3.706547 0.143068,4.172871 0.563255,4.306233 0.25917,0.08226 0.691063,0.392486 0.959766,0.689399 0.888627,0.981923 0.4001,3.8972667 -0.978194,5.8374932 -0.274397,0.3862652 -0.498901,1.0418974 -0.498901,1.4569546 0,0.4150597 -0.110511,1.139981 -0.245578,1.6109367 l -0.245578,0.8562815 1.502349,0.4162663 c 10.022741,2.77707186 16.050875,5.9528311 17.545843,9.2435596 0.657346,1.4469533 0.639662,3.3152158 -0.03956,4.1786991 -0.562221,0.714751 -1.427814,1.047549 -5.64819,2.171586 -4.339418,1.155743 -4.931074,1.521667 -8.918395,5.515803 -5.364622,5.373793 -6.354664,5.636368 -12.6271725,3.348956 -6.7042688,-2.444864 -7.9423732,-2.403256 -12.0161811,0.403817 -4.1315294,2.846845 -5.8812374,3.825851 -7.4112244,4.14677 -1.29934,0.272539 -1.661388,0.242811 -3.201943,-0.262919 -0.955328,-0.313611 -2.905212,-1.217007 -4.333078,-2.007545 -2.770129,-1.533683 -5.408017,-2.545011 -6.638256,-2.545011 -1.37555,0 -3.594263,0.82351 -6.479928,2.405129 -3.047754,1.670457 -5.537377,2.633419 -6.731114,2.603526 -0.404772,-0.01013 -1.282631,-0.18683 -1.950794,-0.392655 z"
             id="path675" />
          <path
             style="fill:#bc6958;stroke-width:0.264583"
             d="m -45.391233,26.152405 c -0.668162,-0.205827 -2.335037,-1.144283 -3.704166,-2.085464 -6.1502,-4.227833 -7.081364,-4.554662 -10.463704,-3.672657 -1.143884,0.298288 -3.317917,0.987845 -4.831188,1.532352 -5.748721,2.068515 -7.109,1.673818 -12.197556,-3.539217 -1.81901,-1.863508 -3.783542,-3.630779 -4.365625,-3.927266 -0.981938,-0.500157 -2.655977,-1.046496 -7.442623,-2.428972 -2.556082,-0.738246 -3.044688,-1.176341 -3.208043,-2.8763995 -0.167955,-1.7479459 0.794669,-3.8464144 2.398563,-5.2287353 2.641269,-2.2763875 7.633372,-4.59957462 13.54377,-6.3028959 l 3.174999,-0.9150058 -0.09049,-1.4003364 -0.09049,-1.4003389 1.2073,1.1128506 c 5.578642,5.14221126 18.052788,8.8113152 33.456701,9.8408406 20.423547,1.3650118 41.2823512,-2.8258372 48.868389,-9.8184039 1.117925,-1.0304674 1.182957,-1.0557351 1.182957,-0.4596553 0,0.3469163 -0.110511,1.0160846 -0.245578,1.4870403 l -0.245578,0.8562815 1.502349,0.4162663 c 10.022741,2.77707186 16.050875,5.9528311 17.545843,9.2435596 0.657346,1.4469533 0.639662,3.3152158 -0.03956,4.1786991 -0.562221,0.714751 -1.427814,1.047549 -5.64819,2.171586 -4.339418,1.155743 -4.931074,1.521667 -8.918395,5.515803 -5.364622,5.373793 -6.354664,5.636368 -12.6271725,3.348956 -6.7042688,-2.444864 -7.9423732,-2.403256 -12.0161811,0.403817 -4.1315294,2.846845 -5.8812374,3.825851 -7.4112244,4.14677 -1.29934,0.272539 -1.661388,0.242811 -3.201943,-0.262919 -0.955328,-0.313611 -2.905212,-1.217007 -4.333078,-2.007545 -2.770129,-1.533683 -5.408017,-2.545011 -6.638256,-2.545011 -1.37555,0 -3.594263,0.82351 -6.479928,2.405129 -3.047754,1.670457 -5.537377,2.633419 -6.731114,2.603526 -0.404772,-0.01013 -1.282631,-0.18683 -1.950794,-0.392655 z M -38.355557,0.63668024 C -53.048321,-0.49540829 -64.915595,-4.0866162 -69.00903,-8.6394998 c -0.800039,-0.8898361 -1.265626,-1.6788582 -1.369586,-2.3210082 -0.254521,-1.572143 -0.61482,-2.195063 -1.452528,-2.511262 l -0.787953,-0.29742 v -3.612894 c 0,-4.123747 0.277135,-5.243424 1.739558,-7.028117 6.356784,-7.757617 30.825561,-12.400138 52.833567,-10.024243 15.18822,1.639659 26.50089,6.079931 29.480418,11.571192 0.384966,0.709492 0.492422,1.654083 0.566142,4.976742 l 0.09099,4.101042 -0.809958,0.305558 c -0.867326,0.3272 -1.21706,0.935025 -1.4865828,2.583626 C 9.663106,-10.0893 9.2630957,-9.4986918 7.9922544,-8.2345048 3.9093183,-4.1729524 -6.10452,-0.98404341 -19.040975,0.37423211 -22.612985,0.74927632 -34.75325,0.91424137 -38.355557,0.63668024 Z"
             id="path673" />
          <path
             style="fill:#ae4631;stroke-width:0.264583"
             d="m -45.966447,25.797742 c -0.693492,-0.280038 -2.479429,-1.37205 -3.96875,-2.426695 -5.956403,-4.217956 -7.136918,-4.336158 -14.579009,-1.459756 l -1.816981,0.70227 0.177699,-0.737016 c 0.09774,-0.405357 0.514795,-1.45139 0.926801,-2.324515 3.126219,-6.625079 12.129505,-11.6236901 25.071701,-13.9197706 2.527149,-0.4483417 4.080632,-0.5459306 8.149428,-0.511937 C -12.88682,5.2800487 4.0727647,1.284195 10.904319,-4.989692 l 1.222669,-1.1228599 -0.190069,1.0583333 c -0.104537,0.5820833 -0.249187,1.3055494 -0.321445,1.6077035 -0.115424,0.4826503 0.05547,0.5902775 1.407126,0.8861795 4.794837,1.0496814 12.124409,4.055676 14.776468,6.0601037 2.599634,1.9648063 3.739906,4.3880826 3.04937,6.4804313 -0.382323,1.1584406 -1.136721,1.5436716 -5.174832,2.6424966 -5.399098,1.469171 -5.625597,1.601814 -9.524999,5.578062 -4.056417,4.136353 -5.155478,4.806807 -7.8052082,4.761357 -1.3949785,-0.02392 -2.419387,-0.296172 -5.4239581,-1.441458 -3.4005095,-1.296207 -3.88931131,-1.413084 -5.9626629,-1.425707 -2.6793348,-0.01633 -3.3203381,0.262752 -7.7336358,3.366939 -4.798097,3.374842 -6.797672,3.617312 -11.131155,1.349772 -6.218798,-3.254052 -5.922684,-3.142964 -8.377753,-3.142964 -2.456172,0 -2.152269,-0.114131 -8.402031,3.155373 -2.970522,1.553998 -5.127093,1.842484 -7.27865,0.973672 z m 9.934241,-25.06504447 c -0.559806,-0.12684124 -0.590521,-0.27652397 -0.661458,-3.22360643 l -0.07439,-3.0905872 -3.571875,-0.3117453 c -16.390585,-1.4305412 -28.546395,-5.9532606 -31.658727,-11.7790256 -0.680007,-1.272857 -0.606959,-3.733248 0.154814,-5.214475 2.737917,-5.323728 13.464244,-9.556709 28.990371,-11.440607 6.253678,-0.758805 17.966544,-0.82647 24.209374,-0.139858 17.2723458,1.899684 28.7277,6.743781 30.428913,12.867397 0.142891,0.514347 0.260466,2.486651 0.261276,4.382898 l 0.0016,3.447722 -0.787953,0.29742 c -0.846182,0.319397 -1.196432,0.935322 -1.4645767,2.575486 -0.1319292,0.806984 -0.5319395,1.3975922 -1.8027808,2.6617792 -4.082936,4.0615524 -14.0967744,7.25046139 -27.0332295,8.60873691 -2.85201,0.29944746 -16.025142,0.57736314 -16.991231,0.35846542 z"
             id="path671" />
          <path
             style="fill:#804744;stroke-width:0.264583"
             d="m -38.752432,-5.7228735 c -17.031483,-1.3118571 -30.06613,-5.9967835 -33.246227,-11.9493935 -0.680007,-1.272857 -0.606959,-3.733248 0.154814,-5.214475 2.737917,-5.323728 13.464244,-9.556709 28.990371,-11.440607 6.253678,-0.758805 17.966544,-0.82647 24.209374,-0.139858 17.4212613,1.916062 28.780596,6.761952 30.458615,12.993639 1.865752,6.928874 -10.88635747,13.3883067 -30.590907,15.4954642 -3.583019,0.3831589 -16.219126,0.5446103 -19.97604,0.2552303 z"
             id="path669" />
          <path
             style="fill:#621b17;stroke-width:0.264583"
             d="m -37.826391,-5.734875 c -10.164164,-0.8008117 -17.336935,-8.928409 -15.343049,-17.385485 1.156491,-4.905269 5.305055,-9.023072 10.977425,-10.896028 3.418932,-1.128896 16.927416,-1.202787 25.664582,-0.140384 11.409732,1.387376 21.2867305,4.699356 25.4163841,8.522687 1.8916359,1.751322 2.5253259,2.738109 2.9099029,4.531333 1.195544,5.574623 -7.1548169,10.897107 -21.6026563,13.7694444 -8.0321437,1.5968503 -19.6392977,2.2589304 -28.0225887,1.5984326 z"
             id="path667" />
        </g>
        <path
           style="fill:#010000;stroke-width:0.264583"
           d="m 86.236365,-2.2172889 c -0.453661,-0.45367 -0.529162,-0.88195 -0.529162,-3.0017 0,-2.79419 0.299001,-3.3483 1.80677,-3.3483 1.484986,0 1.897392,0.72146 1.897392,3.31932 0,2.04777 -0.06124,2.32222 -0.649433,2.91041 -0.78661,0.78661 -1.81047,0.83537 -2.525567,0.12026 z"
           id="path1227" />
        <path
           style="fill:#010000;stroke-width:0.264583"
           d="m 53.019134,-2.3375489 c -0.588191,-0.58819 -0.649431,-0.86264 -0.649431,-2.91042 0,-2.62337 0.40745,-3.31931 1.94336,-3.31931 1.45211,0 1.760802,0.59507 1.760802,3.39427 0,2.07378 -0.07691,2.50349 -0.529162,2.95572 -0.7151,0.7151 -1.73896,0.66635 -2.525569,-0.12025 z"
           id="path1225" />
        <path
           style="fill:#010000;stroke-width:0.264583"
           d="m 68.429373,-0.21807889 c -1.43409,-0.51152 -3.067629,-1.70781001 -3.51599,-2.57483001 -1.14734,-2.2187 1.59091,-3.79049 3.347001,-1.92122 0.33622,0.35789 1.06555,0.77302 1.620729,0.92252 1.28958,0.34724 2.808339,-0.0377 3.639571,-0.92252 1.233839,-1.31336 3.173979,-1.04116 3.560679,0.49956 0.500869,1.99565 -2.853249,4.35531001 -6.190829,4.35531001 -0.80036,0 -1.907881,-0.16146 -2.461161,-0.35882 z"
           id="path1223" />
      </g>
    </g>
  </g>
</svg>
