<?xml version="1.0" encoding="UTF-8" standalone="no"?>
<!-- Created with Inkscape (http://www.inkscape.org/) -->

<svg
   version="1.1"
   id="svg4225"
   width="24"
   height="24"
   viewBox="0 0 24 24"
   sodipodi:docname="croissant_24px.svg"
   inkscape:version="1.1.2 (b8e25be833, 2022-02-05)"
   xmlns:inkscape="http://www.inkscape.org/namespaces/inkscape"
   xmlns:sodipodi="http://sodipodi.sourceforge.net/DTD/sodipodi-0.dtd"
   xmlns="http://www.w3.org/2000/svg"
   xmlns:svg="http://www.w3.org/2000/svg">
  <defs
     id="defs4229" />
  <sodipodi:namedview
     id="namedview4227"
     pagecolor="#ffffff"
     bordercolor="#666666"
     borderopacity="1.0"
     inkscape:pageshadow="2"
     inkscape:pageopacity="0.0"
     inkscape:pagecheckerboard="0"
     showgrid="false"
     fit-margin-top="0"
     fit-margin-left="0"
     fit-margin-right="0"
     fit-margin-bottom="0"
     inkscape:zoom="18.185902"
     inkscape:cx="2.7768762"
     inkscape:cy="14.846665"
     inkscape:window-width="1920"
     inkscape:window-height="1009"
     inkscape:window-x="-8"
     inkscape:window-y="-8"
     inkscape:window-maximized="1"
     inkscape:current-layer="g4231" />
  <g
     inkscape:groupmode="layer"
     inkscape:label="Image"
     id="g4231"
     transform="translate(-589.76428,-105.75941)">
    <g
       id="g4823"
       transform="matrix(0.046875,0,0,0.046875,589.76428,105.75941)">
      <path
         style="fill:#f98b49"
         d="M 79.584748,425.96182 C 45.508438,420.59752 15.396557,398.89272 4.7214864,372 1.1445445,362.98894 -0.39328005,353.1426 0.35910276,344.06866 0.95259978,336.91093 4.1588426,323.23319 4.3504837,326.88349 c 0.129057,2.45822 12.6023323,12.84501 26.2698083,21.87549 43.134332,28.50006 83.243278,42.87291 123.319608,44.19108 l 7,0.23024 -6.9399,8.18687 c -14.33842,16.91477 -34.02105,24.31397 -57.5,25.1392 -6.05,0.21265 -13.661863,-0.0324 -16.915252,-0.54455 z M 218.99964,307.14043 c -0.0454,-0.64402 -3.91601,-1.61126 -9.11662,-2.27821 -16.81843,-2.15688 -31.7339,-8.13691 -49.46233,-19.83084 -8.19483,-5.40543 -51.56111,-41.11452 -77.499998,-63.81582 -23.577938,-20.63503 -39.202016,-39.85067 -44.23363,-54.40177 -1.829553,-5.29094 -2.249436,-8.57794 -2.178512,-17.05419 0.0767,-9.16695 3.560241,-13.30833 6.263292,-20.52011 5.764467,-15.3797 15.462959,-29.23438 33.649926,-48.070279 C 96.179493,60.706514 114.88605,47.563889 133,41.419172 c 8.22881,-2.791425 23.45443,-2.626507 32.05419,0.347198 14.53632,5.026503 35.94284,19.189679 56.2347,42.534124 23.83175,27.416856 58.01975,69.005856 63.2974,76.999996 11.61731,17.59689 18.24918,34.17574 20.461,50.8951 2.19847,4.90955 -0.96182,11.51972 -1.04729,12.84657 0,5.13517 -3.41812,18.12262 -6.50123,24.70198 -4.94459,10.55176 -8.65349,15.49915 -20.57157,27.44085 -10.74302,10.76432 -20.20791,17.69607 -29.4272,21.55145 -4.923,2.05872 -21.62552,7.02316 -25.45382,7.02316 -1.07735,0 -2.1858,0.5625 -2.46321,1.25 -0.31041,0.76927 -0.53475,0.81958 -0.58333,0.13083 z M 390.87211,150.17163 C 389.11419,113.59542 373.76454,73.056374 345.83252,31.220218 338.32542,19.9762 327.61913,7.4464588 325.42093,7.3322107 c -0.94624,-0.04918 0.52956,-0.7818108 3.27956,-1.6280694 3.23794,-0.9964112 12.02846,-4.98630168 19.79951,-5.03411826 10.64437,-0.0654967 12.90267,0.23971125 19.9904,2.70170206 10.13551,3.5206642 18.88977,7.9002209 27.47974,15.7713609 13.66692,12.523252 24.16045,30.251503 29.22877,49.380398 3.61439,13.641519 3.83795,34.755546 0.49738,46.976516 -4.22534,15.45775 -11.39761,27.68469 -22.43728,38.25 -3.59184,3.4375 -7.94566,7.85704 -8.18345,7.85704 -0.23778,0 -3.8532,-4.14791 -4.20345,-11.43541 z"
         id="path4833"
         sodipodi:nodetypes="sssssscsssssssssssssssccssssssssssssssssss" />
      <path
         style="fill:#eb8446"
         d="m 159.41815,395.25 c 0.53486,-0.95527 -1.25925,-1.25432 -7.60913,-1.26832 C 123.01783,393.9182 85.32638,382.4185 51.926905,363.50756 28.359335,350.16348 4,332.08145 4,327.93123 c 0,-3.00676 6.941265,-16.41605 12.114831,-24.1982 l 4.62457,-6.95634 2.759848,3.77295 c 11.681675,15.96986 52.511262,40.83548 85.556041,52.10443 17.66232,6.02322 24.89284,9.70408 42.44471,9.70684 11.35852,0.002 19.05616,-2.6145 22.72905,-3.69033 l 5.17375,-1.51545 -2.05031,5.58373 C 173.45381,373.35634 163.34519,392.1542 160.3153,395 c -0.87837,0.825 -1.28209,0.9375 -0.89715,0.25 z M 358.58176,173.65801 c 2.48698,-8.49056 2.08302,-34.73316 -0.71845,-46.67376 -8.11527,-34.589338 -32.7498,-81.241139 -52.77446,-99.941957 -4.24771,-3.966898 -7.30281,-7.516421 -6.78909,-7.887829 C 307.84563,12.25292 324.15782,4 327.94849,4 c 2.44969,0 12.56488,11.63859 20.68354,23.79859 27.92066,41.819136 43.28159,82.3774 45.03799,118.9161 0.43898,9.13198 0.97427,13.0276 1.7326,12.60913 0.60356,-0.33305 0.53236,1.21286 -0.29264,2.09123 -2.8458,3.02989 -19.57624,10.48348 -30.19372,14.38215 l -7.84995,3.03456 z"
         id="path4831"
         sodipodi:nodetypes="ssssscsscscssssssssssssscs" />
      <path
         style="fill:#e76c23"
         d="m 96.5,510.86294 c -17.736378,-2.40696 -43.65062,-22.28216 -59.244883,-45.72429 -4.689229,-7.0491 -13.303921,-25.62959 -13.329163,-27.55723 -0.0081,-0.61549 5.011546,1.48118 9.824046,3.89892 28.51792,14.32699 65.035707,18.26383 92.5,9.97207 2.6125,-0.78874 5.52764,-0.97147 5.52764,-0.78626 0,0.18522 -1.43038,5.30609 -2.22816,9.09864 -0.79779,3.79256 -1.95722,12.03447 -2.57652,18.31538 -1.5494,15.71394 -3.21163,21.13857 -8.10356,26.44568 -5.55381,6.02518 -11.74453,7.77897 -22.3694,6.33709 z M 135.73363,361.91198 C 114.73699,358.83827 87.019513,348.32711 63.331876,334.4554 34.964803,317.84338 23.610448,307.71741 15.699088,291.97582 9.352958,279.34864 7.6334681,270.93514 8.3466092,256 9.238127,237.32916 15.846982,217.63245 28.03613,197.31831 c 5.93114,-9.8847 15.586539,-23.33326 16.721019,-23.28995 0.408568,0.0156 2.274235,2.55741 4.145926,5.64847 5.342257,8.82261 16.976844,22.07668 28.775961,32.78143 11.887561,10.78499 59.400394,50.95361 73.385124,62.04174 22.4284,17.7829 43.74398,27.51041 64.00477,29.209 3.81209,0.31959 6.93107,0.91841 6.93107,1.3307 0,0.4123 -0.94492,3.83453 -2.09982,7.60496 -5.97901,19.51978 -19.07982,35.62234 -35.21922,43.28889 -4.89346,2.3245 -12.1659,4.82959 -16.33796,5.62784 -8.09824,1.54945 -23.3032,1.71292 -32.60937,0.35059 z M 303.709,215.06893 C 302.01041,194.80814 292.2829,173.49256 274.5,151.06416 263.41187,137.07943 223.24325,89.566597 212.45826,77.679036 201.75351,65.879919 188.49944,54.245332 179.67683,48.903075 176.58577,47.031384 171.84445,45.605618 171.82885,45.19705 171.78861,44.142991 187.11947,34.175947 196,28.816146 217.71245,15.711699 237.08146,9.1394591 256.5,8.2874439 c 14.11834,-0.6194613 22.98592,1.1995697 35.27281,7.2356101 12.29349,6.03928 20.95553,14.231881 31.10974,29.42373 25.06053,37.493419 38.46649,72.012086 39.82843,102.553216 0.68927,15.45689 -1.08423,25.19607 -6.76647,37.15801 -7.67831,16.16395 -23.76791,29.25943 -43.29985,35.24217 C 308.87423,221.05508 305.452,222 305.0397,222 c -0.41229,0 -1.01111,-3.11898 -1.3307,-6.93107 z m 147.43235,-87.88576 c 8.29176,-27.464292 4.35492,-63.982079 -9.97207,-92.499999 -2.41774,-4.8125 -3.8923,-8.743406 -3.27681,-8.735346 0.61549,0.0081 7.54987,1.068549 12.36829,3.497185 25.55664,12.881368 44.91529,31.044818 55.50723,52.08022 3.86711,7.680031 5.3263,13.152612 5.42848,20.35918 0.11314,7.97962 -1.58114,12.29368 -6.67062,16.98499 -5.30711,4.89193 -10.73174,6.55416 -26.44568,8.10356 -6.28091,0.6193 -14.52282,1.77873 -18.31538,2.57652 -3.79255,0.79778 -9.53554,2.38369 -9.72076,2.38369 -0.18521,0 0.30858,-2.1375 1.09732,-4.75 z"
         id="path4829"
         sodipodi:nodetypes="ssssssssssssssssssssssssssssssssssssssssssssssssss" />
      <path
         style="fill:#d86521"
         d="m 71.445665,456.06547 c -19.30126,-3.39959 -45.839314,-14.2445 -48.35203,-19.75931 -2.313229,-5.07698 -6.925777,-27.21732 -7.556141,-34.72562 -0.346318,-4.125 -0.867637,-9.075 -1.158487,-11 l -0.528819,-3.5 4.983983,5.55824 c 11.919878,13.2933 32.476885,25.23526 50.836923,29.53214 33.748086,7.89823 65.347976,-1.11632 86.726776,-24.74066 3.08117,-3.4048 3.81355,-3.72834 3.81355,-3.38025 0,0.3481 0.83026,1.05989 -0.34102,4.24302 -2.19265,5.95887 -5.67733,11.63745 -14.59729,23.78751 -5.59436,7.62018 -10.33704,18.9877 -12.32786,25.67853 -1.17057,3.9341 -1.65556,4.37501 -6.35626,5.77851 -15.39987,4.59799 -37.609698,5.61613 -55.143325,2.52789 z M 402.89691,153.25 c 16.84112,-16.87054 24.263,-35.30237 24.26064,-60.25 -0.003,-28.095274 -12.35348,-56.504534 -32.40136,-74.529295 l -5.15691,-4.636506 3.45036,0.536813 c 1.8977,0.295248 6.70456,0.808984 10.68192,1.141636 7.9132,0.661831 24.592,4.432648 31.06892,7.024195 3.70036,1.480593 4.53881,2.52929 8.63595,10.801478 14.73027,29.740634 18.54603,64.966546 10.10115,93.250669 -1.40278,4.69831 -1.84641,5.18684 -5.77851,6.36345 -7.69141,2.30153 -16.08357,7.00438 -27.75907,15.55582 -7.37459,5.40133 -13.94196,9.33207 -18.30721,10.95732 -3.74397,1.39393 -6.96998,2.53442 -7.16892,2.53442 -0.19894,0 3.56893,-3.9375 8.37304,-8.75 z"
         id="path4827"
         sodipodi:nodetypes="sssscsssssssssscscssssssssss" />
      <path
         style="fill:#3b4748"
         d="m 92.5,275.0407 c -1.1,-0.4579 -6.1625,-5.09376 -11.25,-10.30192 -10.225767,-10.46829 -11.37934,-13.38974 -6.935549,-17.56447 4.502024,-4.22943 7.789411,-3.07968 17.299543,6.05043 12.173246,11.6868 13.504796,14.81032 8.462926,19.85218 -3.045533,3.04554 -4.236599,3.35424 -7.57692,1.96378 z M 158,209.23326 c -3.94818,-0.65636 -6,-3.12993 -6,-7.23326 0,-5.42688 2.59408,-7.27104 11.41271,-8.11339 16.83558,-1.60812 28.86614,-13.64214 30.47483,-30.48357 C 194.7289,154.59471 196.57486,152 202,152 c 5.56408,0 7,2.22778 7,10.86029 0,19.59761 -13.40332,37.71826 -32.5,43.93844 -6.35896,2.07124 -14.35544,3.12355 -18.5,2.43453 z M 263.73987,101.16678 c -1.51808,-1.00103 -6.35558,-5.60889 -10.75,-10.239693 -8.91935,-9.399118 -10.02597,-12.665647 -5.67542,-16.752773 4.46417,-4.193869 7.08489,-3.07836 17.79793,7.575686 11.46922,11.40606 12.51736,13.774108 8.06663,18.224832 -3.48221,3.482208 -5.56672,3.745438 -9.43914,1.191948 z"
         id="path4825" />
    </g>
  </g>
</svg>
