<?xml version="1.0" encoding="UTF-8" standalone="no"?>
<!-- Created with Inkscape (http://www.inkscape.org/) -->

<svg
   version="1.1"
   id="svg2"
   width="481.53882"
   height="511.79001"
   viewBox="0 0 481.53882 511.79001"
   sodipodi:docname="kanal.svg"
   inkscape:version="1.1.2 (b8e25be833, 2022-02-05)"
   xmlns:inkscape="http://www.inkscape.org/namespaces/inkscape"
   xmlns:sodipodi="http://sodipodi.sourceforge.net/DTD/sodipodi-0.dtd"
   xmlns="http://www.w3.org/2000/svg"
   xmlns:svg="http://www.w3.org/2000/svg">
  <defs
     id="defs6" />
  <sodipodi:namedview
     id="namedview4"
     pagecolor="#ffffff"
     bordercolor="#666666"
     borderopacity="1.0"
     inkscape:pageshadow="2"
     inkscape:pageopacity="0.0"
     inkscape:pagecheckerboard="0"
     showgrid="false"
     fit-margin-top="0"
     fit-margin-left="0"
     fit-margin-right="0"
     fit-margin-bottom="0"
     inkscape:zoom="0.40185547"
     inkscape:cx="-222.71689"
     inkscape:cy="42.303767"
     inkscape:window-width="1920"
     inkscape:window-height="1009"
     inkscape:window-x="-8"
     inkscape:window-y="-8"
     inkscape:window-maximized="1"
     inkscape:current-layer="g8" />
  <g
     inkscape:groupmode="layer"
     inkscape:label="Image"
     id="g8"
     transform="translate(332.40549,254.00831)">
    <g
       id="g120"
       transform="matrix(1.0004092,0,0,1.0004092,-347.46816,-254.33985)">
      <path
         style="fill:#f2f4e5"
         d="m 50.356459,395.5 c 0.293825,-1.65 1.552171,-17.05804 2.796325,-34.24009 l 2.262097,-31.2401 -2.270485,-13.99809 c -3.062861,-18.88328 -2.236994,-24.16528 5.977532,-38.23049 2.316273,-3.96601 4.211405,-7.73793 4.211405,-8.38205 0,-0.67255 2.962718,-1.66041 6.95924,-2.32042 10.318218,-1.70402 15.38282,-4.6097 35.207427,-20.1993 18.99176,-14.93467 20.81557,-15.97528 45.46372,-25.94011 11.04951,-4.46713 17.07409,-6.34323 21.51396,-6.69962 5.94154,-0.47693 53.54068,4.079 57.29892,5.55846 1.39196,0.54796 -18.52831,20.51757 -89.0985,91.01151 C 69.068078,382.35235 49.92708,397.91121 50.356459,395.5 Z"
         id="path130"
         sodipodi:nodetypes="sscssssssssss" />
      <path
         style="fill:#d6d8cb"
         d="m 21.775788,429.21448 c 0.327099,-2.19767 1.16214,-23.29033 2.393304,-39.88303 l 2.238479,-30.16856 -2.310252,-14.33144 c -3.399938,-21.09121 -2.852446,-23.20162 12.924436,-49.8196 8.235268,-13.89414 13.352509,-19.6476 20.857499,-23.45066 C 60.659096,270.15253 63.199531,269 63.524666,269 c 0.325134,0 -1.04161,2.8125 -3.03721,6.25 -9.636468,16.5992 -10.475015,21.20645 -7.375406,40.52288 l 2.29752,14.3179 -2.259442,31.20461 C 51.907435,378.45792 50.650461,393.85 50.356852,395.5 49.930707,397.89481 89.026719,359.36458 244.16148,204.5 L 438.49993,10.5 257.49997,191.81303 C 157.94998,291.53519 64.834063,387.11788 49.500383,402.06839 c -27.322215,26.63946 -28.307434,31.062 -27.724595,27.14609 z"
         id="path128"
         sodipodi:nodetypes="sscsssssscssscsss" />
      <path
         style="fill:#4bc6b2"
         d="m 161.04104,486.8639 c -12.59382,-1.98154 -18.71287,-4.30696 -46.03892,-17.4962 -9.9,-4.77835 -28.800004,-13.83962 -42.000004,-20.13616 -13.2,-6.29653 -25.294244,-12.65796 -26.876099,-14.1365 -6.140408,-5.73937 -8.33977,-16.10689 -5.08507,-23.97038 C 42.341167,407.98327 44.96703,404.59331 33.465949,416 25.979507,423.425 114.34532,335.06986 229.83442,219.65525 345.32352,104.24064 441.52148,8.6506455 443.60768,7.2330405 c 13.38645,-9.0963292 32.37876,-9.2120415 46.19612,-0.2814539 3.27512,2.1168141 6.2417,4.3130104 6.59238,4.8804374 0.35069,0.567426 -41.57579,47.765983 -93.16996,104.885686 -51.59417,57.1197 -95.50603,106.07838 -97.5819,108.79708 -5.27716,6.91128 -11.27204,19.53134 -13.7688,28.98521 -1.56538,5.92725 -2.12612,11.10913 -2.16425,20 -0.063,14.69407 1.43182,21.31732 8.66617,38.39755 7.87105,18.58346 9.08283,24.00039 9.08283,40.60245 0,19.57095 -3.85423,32.96366 -14.0194,48.71475 -5.61295,8.69736 -52.44964,56.44096 -62.24942,63.45476 -8.16063,5.84066 -25.10936,16.54185 -35.18933,19.19006 -9.23952,2.42741 -26.12107,3.39523 -34.96108,2.00433 z"
         id="path126"
         sodipodi:nodetypes="ssssssssssssssssssss" />
      <path
         style="fill:#29ab91"
         d="m 135.46645,510.55332 c -4.41846,-0.68684 -10.49346,-2.04651 -13.5,-3.02148 -8.86695,-2.87539 -97.203314,-45.45289 -100.342549,-48.36439 -6.424435,-5.95837 -8.463492,-16.7494 -4.648706,-24.60173 1.112579,-2.29012 8.117044,-10.17986 16.038645,-18.06572 11.796383,-11.74316 13.815417,-13.40067 12.524805,-10.28212 -3.254445,7.86383 -1.055055,18.2311 5.085256,23.97038 1.581855,1.47854 13.676099,7.83997 26.876099,14.1365 13.2,6.29654 32.1,15.36663 42,20.15576 32.87729,15.90441 39.31666,17.85767 59,17.89651 10.41601,0.0206 14.68953,-0.4259 21.5,-2.24613 10.04543,-2.68484 23.09804,-8.60777 30.32648,-13.76135 4.25956,-3.03689 3.23025,-1.70691 -5.82648,7.52845 -19.45365,19.83735 -30.8743,27.85575 -47.10974,33.07561 -9.13093,2.93568 -22.3253,5.11271 -29.86403,4.92745 -2.21442,-0.0544 -7.64133,-0.6609 -12.05978,-1.34774 z"
         id="path124" />
      <path
         style="fill:#3a484a"
         d="m 122.53089,439.85424 c -3.09666,-2.83017 -6.30611,-6.45266 -7.13211,-8.04998 C 112.66686,426.52131 116.03565,421 121.99093,421 c 3.24215,0 4.47536,0.82287 10.34501,6.90277 7.48615,7.75431 8.45221,11.06872 4.34961,14.92292 -3.92563,3.68794 -7.74566,2.88601 -14.15466,-2.97145 z m 43.05478,-37.17766 c -4.94409,-4.94409 -1.76337,-12.65674 5.23691,-12.69854 9.23714,-0.0552 16.79865,-6.91564 18.08709,-16.41021 0.41316,-3.04459 1.57225,-6.44287 2.57575,-7.55172 2.45421,-2.71187 7.86503,-2.66566 10.62139,0.0907 1.81574,1.81574 2.05364,3.02462 1.72193,8.75 -0.92071,15.89179 -13.38427,28.38577 -29.80169,29.87445 -5.32639,0.48298 -6.08945,0.29725 -8.44138,-2.05468 z M 234.5,339.05093 c -1.1,-0.45226 -4.8125,-3.75978 -8.25,-7.35006 -7.0337,-7.34629 -7.80403,-10.23775 -3.79545,-14.24632 4.34433,-4.34434 7.29356,-3.39705 15.37645,4.93887 4.4458,4.58498 7.169,8.22284 7.169,9.57692 0,2.41683 -5.08663,8.06594 -7.17308,7.96627 -0.7298,-0.0349 -2.22692,-0.43341 -3.32692,-0.88568 z"
         id="path122" />
    </g>
  </g>
</svg>
