<?xml version="1.0" encoding="UTF-8" standalone="no"?>
<!-- Created with Inkscape (http://www.inkscape.org/) -->

<svg
   version="1.1"
   id="svg4225"
   width="453.43558"
   height="512"
   viewBox="0 0 453.43558 512"
   sodipodi:docname="kifli.svg"
   inkscape:version="1.1.2 (b8e25be833, 2022-02-05)"
   xmlns:inkscape="http://www.inkscape.org/namespaces/inkscape"
   xmlns:sodipodi="http://sodipodi.sourceforge.net/DTD/sodipodi-0.dtd"
   xmlns="http://www.w3.org/2000/svg"
   xmlns:svg="http://www.w3.org/2000/svg">
  <defs
     id="defs4229" />
  <sodipodi:namedview
     id="namedview4227"
     pagecolor="#ffffff"
     bordercolor="#666666"
     borderopacity="1.0"
     inkscape:pageshadow="2"
     inkscape:pageopacity="0.0"
     inkscape:pagecheckerboard="0"
     showgrid="false"
     fit-margin-top="0"
     fit-margin-left="0"
     fit-margin-right="0"
     fit-margin-bottom="0"
     inkscape:zoom="0.20092773"
     inkscape:cx="1878.7849"
     inkscape:cy="-209.03038"
     inkscape:window-width="1920"
     inkscape:window-height="1009"
     inkscape:window-x="-8"
     inkscape:window-y="-8"
     inkscape:window-maximized="1"
     inkscape:current-layer="g4823" />
  <g
     inkscape:groupmode="layer"
     inkscape:label="Image"
     id="g4231"
     transform="translate(-635.18113,-131.83951)">
    <g
       id="g4823"
       transform="translate(589.76428,105.75941)">
      <g
         id="g54265"
         transform="matrix(0.47574864,0.75016263,-0.75016263,0.47574864,345.63685,-61.313182)">
        <path
           style="fill:#f5db7f;fill-opacity:1"
           d="m 357.69774,200.45692 c 7.43224,-4.79963 24.28109,-24.92309 29.9665,-35.79058 37.8209,-43.19865 44.35673,-32.30034 56.20496,-72.148474 11.73543,1.01721 35.63335,34.468314 38.50199,36.946234 1.85383,1.60134 14.59439,12.16022 4.49461,22.73248 l -40.13206,42.00949 c 0,0 -52.64865,19.29369 -51.80122,19.47272 0.67446,0.1425 -0.38997,1.26584 -1.58848,1.39127 -4.1342,0.43263 -21.60134,-5.04342 -32.25094,-8.85348 l -7.9242,-2.835 z"
           id="path14653" />
        <path
           style="fill:#f5db7f;fill-opacity:1"
           d="m 85.279449,236.86472 c 1.029212,-0.37328 -0.133016,-1.77238 -4.929213,-5.93383 -21.746572,-18.86858 5.229911,-0.95335 -7.683646,-37.09735 -9.112147,-25.50419 -31.314179,-46.48705 -28.60122,-49.62778 27.776219,-18.58611 26.066802,-36.23403 57.49121,-44.986395 22.24171,30.052095 5.4923,36.869915 66.01501,83.233395 8.59439,7.42647 14.66525,21.26775 15.34177,25.03469 20.73013,-20.63568 6.1138,5.12433 -23.05374,13.55684 -10.99155,2.66764 -69.584642,16.04471 -73.73782,16.2177 -1.204011,0.0501 -1.583072,-0.12863 -0.842351,-0.39727 z"
           id="path4831" />
        <path
           style="fill:#f6ef9a;fill-opacity:1"
           d="m 393.93621,213.26473 c 52.79753,-19.05866 85.97204,-81.84973 85.97204,-81.84973 15.53765,3.93129 35.72826,25.00527 42.35221,36.39274 5.36875,9.2898 39.92385,51.75914 41.27912,63.3309 2.15628,18.41106 -12.03071,21.74934 -20.69957,39.53847 -6.1821,12.68608 -33.03031,5.27691 -43.54705,12.34157 -13.30216,8.93578 -42.93533,-21.0078 -62.50775,-34.07874 -15.47358,-10.33363 -46.05178,-30.33009 -42.849,-35.67521 z"
           id="path14554"
           sodipodi:nodetypes="cccssssc" />
        <path
           style="fill:#f6ef9a;fill-opacity:1"
           d="M 182.91336,207.48745 C 156.23557,182.10753 154.48975,179.20514 117.31105,147.84032 80.132365,116.4755 83.759665,109.21496 89.463844,94.914122 91.537944,89.714178 93.368873,86.952228 98.963389,80.584085 138.22103,54.654804 189.25387,21.07359 260.93614,18.163423 c 54.8448,0 147.56106,25.057591 169.86375,54.658265 28.75595,29.382442 29.91328,43.990122 12.21935,66.980772 -24.52164,26.64881 -52.04096,51.94991 -83.09496,62.3283 -30.79308,7.91822 -33.23454,-20.09649 -84.94584,-16.88682 -48.73606,4.65248 -72.61481,37.10843 -92.06508,22.24351 z"
           id="path14552" />
        <path
           style="fill:#f6ef9a;fill-opacity:1"
           d="m -15.126733,296.73016 c -22.281068,-26.33486 -3.097316,-93.64713 13.4363162,-108.31558 2.97497,-8.42004 24.3201518,-26.32364 30.8210738,-32.69863 5.128076,-5.02874 28.593756,-22.11203 28.593756,-22.11203 l 47.811347,33.08764 54.32386,54.35273 -73.436444,42.30056 -62.98718,49.04824 C 18.71858,308.5992 -12.999479,299.24444 -15.126733,296.73016 Z"
           id="path4833"
           sodipodi:nodetypes="scscccccs" />
        <path
           style="fill:#f5db7f;fill-opacity:1"
           d="m 473.40207,274.61464 c 15.09093,-2.56766 32.3496,-2.83721 53.99736,-15.23716 32.97042,-20.41839 36.25211,-32.02325 36.25211,-32.02325 5.59171,14.16938 18.97514,36.96862 21.35617,52.41138 0.55409,3.94687 12.00217,58.78088 -8.79072,66.20295 -24.37145,8.69943 -55.23681,-15.16712 -75.03356,-34.26632 -21.88106,-21.11007 -27.78136,-37.0876 -27.78136,-37.0876 z"
           id="path14354"
           sodipodi:nodetypes="ccccssc" />
        <path
           style="fill:#f5db7f;fill-opacity:1"
           d="m -70.228172,355.47128 c -23.068024,-16.2803 15.424418,-79.90497 17.127868,-85.72091 11.382307,-18.49598 24.302121,-34.58342 35.39574,-52.1359 0.401836,21.78611 12.3098459,46.47572 23.3486434,62.11149 20.3762756,28.03788 17.7919166,32.66713 17.7919166,32.66713 -11.007084,8.7388 -30.7322963,21.04736 -41.301564,29.44953 -32.575938,25.89665 -51.208033,15.38777 -52.362604,13.62862 z"
           id="path4827"
           sodipodi:nodetypes="sccccsss" />
        <path
           style="fill:#3b4748"
           d="m 145.1994,111.83465 c -0.46506,-1.09699 -0.83547,-7.9514 -0.82314,-15.232018 0.0248,-14.63389 1.2459,-17.52776 7.34172,-17.39861 6.17569,0.13084 7.71861,3.25306 8.11945,16.43035 0.5131,16.867298 -0.72237,20.030058 -7.85228,20.101538 -4.30683,0.0432 -5.37352,-0.57008 -6.78575,-3.90126 z m 92.84153,-1.14822 c -2.36019,-3.23241 -2.09406,-6.43517 0.7782,-9.3656 3.79872,-3.875668 6.94218,-3.376878 13.82973,2.19443 13.14896,10.63615 30.1643,10.46311 43.10187,-0.43832 6.76654,-5.701618 9.9011,-6.262518 13.77552,-2.46502 3.97365,3.89476 3.43972,6.49087 -2.60289,12.65587 -13.71798,13.99583 -35.97423,17.55479 -53.96633,8.62966 -5.99115,-2.97196 -12.43852,-7.81784 -14.9161,-11.21102 z m 151.15983,-3.16076 c -0.38345,-1.77753 -0.61278,-8.454438 -0.50962,-14.837598 0.20937,-12.95586 1.70558,-16.0633 7.67349,-15.93685 6.12376,0.12974 7.21454,2.76085 7.40773,17.86849 0.20682,16.173998 -0.70223,18.598848 -6.99619,18.661938 -4.92434,0.0494 -6.59728,-1.22176 -7.57541,-5.75598 z"
           id="path4825" />
      </g>
    </g>
  </g>
</svg>
