<?xml version="1.0" encoding="UTF-8" standalone="no"?>
<!-- Created with Inkscape (http://www.inkscape.org/) -->

<svg
   version="1.1"
   id="svg2"
   width="987.35529"
   height="512"
   viewBox="0 0 987.35529 512"
   sodipodi:docname="meroepohar.svg"
   inkscape:version="1.1.2 (b8e25be833, 2022-02-05)"
   xmlns:inkscape="http://www.inkscape.org/namespaces/inkscape"
   xmlns:sodipodi="http://sodipodi.sourceforge.net/DTD/sodipodi-0.dtd"
   xmlns="http://www.w3.org/2000/svg"
   xmlns:svg="http://www.w3.org/2000/svg">
  <defs
     id="defs6" />
  <sodipodi:namedview
     id="namedview4"
     pagecolor="#ffffff"
     bordercolor="#666666"
     borderopacity="1.0"
     inkscape:pageshadow="2"
     inkscape:pageopacity="0.0"
     inkscape:pagecheckerboard="0"
     showgrid="false"
     fit-margin-top="0"
     fit-margin-left="0"
     fit-margin-right="0"
     fit-margin-bottom="0"
     inkscape:zoom="0.40185547"
     inkscape:cx="-262.5322"
     inkscape:cy="194.09964"
     inkscape:window-width="1920"
     inkscape:window-height="1009"
     inkscape:window-x="-8"
     inkscape:window-y="-8"
     inkscape:window-maximized="1"
     inkscape:current-layer="g8" />
  <g
     inkscape:groupmode="layer"
     inkscape:label="Image"
     id="g8"
     transform="translate(721.33048,-68.946121)">
    <g
       id="g102"
       transform="matrix(1.9308241,0,0,1.9308241,-721.53797,-169.4988)">
      <path
         style="fill:#7ee0fd"
         d="m 162,387.88365 c -3.025,-0.50651 -8.65,-2.41994 -12.5,-4.25207 C 142.36173,380.23464 132,372.74173 132,370.97675 L 121.61758,353.5 c -1.484,-3.83333 -2.968,-7.66667 -4.45199,-11.5 L 111.5,326.99821 C 110.04526,322.99881 108.59052,318.9994 107.13577,315 l -5.30244,-15.06683 c -0.18333,0.51324 -1.3108,-1.96176 -2.505484,-5.5 L 97.155692,288 91.965579,273.25004 c -0.01893,0.6875 -1.367277,-2.125 -2.996325,-6.25 -1.629048,-4.125 -2.963964,-7.5 -2.966481,-7.5 0,0 -4.913145,-14.50004 -5.385197,-15.00004 -1.483996,-3.83333 -2.967992,-7.66667 -4.451987,-11.5 L 70.5,217.99821 c -1.44199,-3.96438 -2.883977,-7.92877 -4.325964,-11.89315 L 60.156147,190.5 l -1.306246,-4 c -0.721233,-2.20856 -3.38643,-6.09176 -5.950977,-8.67058 C 46.98114,171.87882 38.865325,169.17484 23.5,168.03449 10.533621,167.07218 8.4035728,166.36261 4.2374469,161.61766 0.76458613,157.66229 -0.55837467,152.78993 0.4218231,147.56503 1.3497467,142.61877 8.8930717,132.90921 14.60063,129.31446 24.508589,123.07419 7.3429981,123.5 249,123.5 c 207.41089,0 221.90031,0.1107 227.7934,1.74043 18.47695,5.10976 28.6773,15.44653 33.31404,33.75957 2.00799,7.93066 1.7586,31.84378 -0.47451,45.5 -4.403,26.92575 -22.31598,86.02921 -27.70772,91.42094 -7.73069,7.7307 -20.26463,2.26192 -20.10559,-8.77242 0.0289,-2.00669 1.18639,-10.39852 2.57216,-18.64852 6.24939,-37.20516 7.21885,-63.89546 2.74423,-75.55148 -3.63057,-9.45733 -11.56573,-15.10864 -21.42521,-15.25875 -8.64748,-0.13165 -7.11898,-3.40465 -42.17526,90.31023 -17.38508,46.475 -33.16788,87.71321 -35.07288,91.64047 -5.86343,12.08773 -15.63613,20.55214 -30.34309,26.28099 L 331.5,388.5 l -82,0.15229 c -46.13587,0.0857 -84.40552,-0.2505 -87.5,-0.76864 z"
         id="path108"
         sodipodi:nodetypes="ssccccccsccsccccccsssssssssssssssssscss" />
      <path
         style="fill:#44b5d8"
         d="m 127.9924,365.48895 c -1.70703,-2.48108 -3.75969,-6.08108 -4.56146,-8 L 121.97316,354 h 24.87856 c 23.65478,0 25.00817,0.10195 27.51342,2.07258 2.79617,2.19947 3.50514,6.43278 1.65597,9.88798 -1.75555,3.28026 -6.665,4.03944 -26.12229,4.03944 h -18.80274 z m -13.05747,-30.19776 c -1.33921,-3.68985 -2.58493,-7.06485 -2.76826,-7.5 -0.18334,-0.43516 10.95416,-0.79119 24.75,-0.79119 23.75,0 25.18964,0.10631 27.08333,2 2.74991,2.74991 2.65422,8.3126 -0.18856,10.96104 C 161.74566,341.88561 160.38154,342 139.49637,342 H 117.36986 Z M 104.62913,307.75 c -1.45132,-3.9875 -2.6366,-7.5875 -2.63395,-8 0.008,-1.22182 45.297,-0.89271 48.87671,0.35518 5.57591,1.94378 6.91928,8.19456 2.67356,12.44027 L 151.09091,315 H 129.1794 107.2679 Z M 94.615861,280.94279 C 93.177137,277.06132 92,273.46132 92,272.94279 92,272.37909 101.46924,272 115.54966,272 c 19.10257,0 24.10406,0.28669 26.48551,1.51819 3.61118,1.86741 4.81953,5.86836 2.83837,9.39805 -2.59671,4.62636 -4.87092,5.0532 -27.00768,5.06902 L 97.231721,288 Z m -7.98689,-21.73411 c -0.268985,-0.43523 -1.625376,-3.81023 -3.014203,-7.5 L 81.089628,245 h 24.373402 c 13.40537,0 25.10184,0.27953 25.99217,0.62118 2.44133,0.93683 4.68272,5.98112 3.95175,8.89352 -1.28652,5.12591 -3.02737,5.4853 -26.57044,5.4853 -11.945161,0 -21.938554,-0.35609 -22.207539,-0.79132 z M 73.991057,226.26252 c -1.370081,-3.70561 -2.641057,-7.08061 -2.82439,-7.5 C 70.983333,218.34313 82.120833,218 95.916667,218 c 23.750003,0 25.189643,0.10631 27.083333,2 2.97766,2.97766 2.66668,8.33043 -0.63486,10.92742 C 119.88403,232.87906 118.46851,233 98.106199,233 H 76.482115 Z M 63.648112,198.80204 c -1.46176,-4.01612 -2.655578,-7.66154 -2.652929,-8.10092 0.0026,-0.43939 11.295239,-0.66439 25.094643,-0.5 24.995934,0.29776 25.096974,0.30771 27.000004,2.65966 2.43942,3.01488 2.4395,7.26339 1.9e-4,10.27844 -1.89021,2.33633 -2.14232,2.36391 -24.347073,2.66282 l -22.437089,0.30205 z"
         id="path106" />
      <path
         style="fill:#3a484a"
         d="M 243.73447,269.91195 C 233.7365,267.55646 224,259.85245 224,254.29705 c 0,-6.56756 8.26813,-9.97502 12.59501,-5.19064 3.32121,3.67238 9.43552,6.15638 15.03002,6.10611 5.71335,-0.0513 8.2285,-1.07561 13.15977,-5.35917 4.3746,-3.80002 9.2563,-3.88786 12.14262,-0.21849 1.13992,1.44917 2.07258,3.66464 2.07258,4.92327 0,5.29369 -9.75579,12.70486 -19.85255,15.08137 -6.36186,1.49741 -9.94477,1.56074 -15.41298,0.27245 z m -78.25189,-9.17328 c -2.14012,-1.84085 -2.73236,-3.40176 -3.1851,-8.39467 C 161.20455,240.29098 163.95951,233 169.60677,233 175.8632,233 178,236.8188 178,248 c 0,9.04741 -1.57389,13.38523 -5.20995,14.35924 -3.63838,0.97464 -4.51686,0.77982 -7.30747,-1.62057 z m 161.97197,-0.19322 C 325.17281,258.26372 325,257.38047 325,248 c 0,-9.38047 0.17281,-10.26372 2.45455,-12.54545 1.35,-1.35 3.62045,-2.45455 5.04545,-2.45455 1.425,0 3.69545,1.10455 5.04545,2.45455 C 339.82719,237.73628 340,238.61953 340,248 c 0,9.38047 -0.17281,10.26372 -2.45455,12.54545 -1.35,1.35 -3.62045,2.45455 -5.04545,2.45455 -1.425,0 -3.69545,-1.10455 -5.04545,-2.45455 z"
         id="path104" />
    </g>
  </g>
</svg>
