<?xml version="1.0" encoding="UTF-8" standalone="no"?>
<!-- Created with Inkscape (http://www.inkscape.org/) -->

<svg
   version="1.1"
   id="svg2"
   width="48"
   height="48"
   viewBox="0 0 48 48"
   sodipodi:docname="rating_48px.svg"
   inkscape:version="1.2.1 (9c6d41e410, 2022-07-14)"
   xml:space="preserve"
   xmlns:inkscape="http://www.inkscape.org/namespaces/inkscape"
   xmlns:sodipodi="http://sodipodi.sourceforge.net/DTD/sodipodi-0.dtd"
   xmlns="http://www.w3.org/2000/svg"
   xmlns:svg="http://www.w3.org/2000/svg"><defs
     id="defs6" /><sodipodi:namedview
     id="namedview4"
     pagecolor="#ffffff"
     bordercolor="#666666"
     borderopacity="1.0"
     inkscape:pageshadow="2"
     inkscape:pageopacity="0.0"
     inkscape:pagecheckerboard="0"
     showgrid="false"
     fit-margin-top="0"
     fit-margin-left="0"
     fit-margin-right="0"
     fit-margin-bottom="0"
     inkscape:zoom="4.0000002"
     inkscape:cx="26.124999"
     inkscape:cy="37.999998"
     inkscape:window-width="1920"
     inkscape:window-height="1137"
     inkscape:window-x="1912"
     inkscape:window-y="-8"
     inkscape:window-maximized="1"
     inkscape:current-layer="g8"
     inkscape:showpageshadow="2"
     inkscape:deskcolor="#d1d1d1" /><g
     inkscape:groupmode="layer"
     inkscape:label="Image"
     id="g8"
     transform="translate(-39.420037,-0.51233153)"><g
       id="g1782"
       transform="matrix(0.09376409,0,0,0.09376409,117.24879,27.546031)"><path
         style="fill:#dbe0ea"
         d="m -762.39685,222.20843 c -29.41775,-6.40577 -53.81885,-28.41699 -63.50808,-57.288 -2.84799,-8.48616 -3.33239,-11.44988 -3.75367,-22.96644 -0.41021,-11.21401 -0.15121,-14.66179 1.70481,-22.69377 5.47243,-23.68205 21.06905,-44.38585 42.1669,-55.97464 7.87538,-4.32585 19.1994,-8.31358 26.27478,-9.25262 l 5.12887,-0.6807 -9.43596,-2.31496 c -29.73317,-7.29457 -52.54206,-28.2946 -62.30118,-57.36039 -3.07357,-9.15409 -3.18972,-10.1008 -3.18972,-26 0,-15.8992 0.11615,-16.84591 3.18972,-26 10.22464,-30.45226 33.96586,-51.38002 66.23714,-58.38771 4.26604,-0.92637 5.46203,-1.44598 3.4799,-1.51188 -4.47143,-0.14866 -16.74192,-3.74588 -23.99371,-7.034 -23.59811,-10.6999 -41.59762,-32.86151 -47.52566,-58.51523 -1.89025,-8.18011 -2.14782,-11.56734 -1.73589,-22.82826 0.42128,-11.51656 0.90568,-14.48028 3.75367,-22.96644 8.25129,-24.58638 27.84395,-45.07538 51.17694,-53.51825 11.2751,-4.07981 18.09903,-5.23963 30.77841,-5.23122 57.20287,0.0379 98.49345,56.69231 80.89338,110.99299 -5.88991,18.17189 -17.96324,34.52406 -33.15374,44.90358 -9.97157,6.81348 -27.98863,13.86624 -36.31765,14.21651 -2.24054,0.0942 -1.88635,0.33057 1.64435,1.09723 37.91736,8.23346 64.23042,34.49058 70.48039,70.33055 1.79736,10.30686 1.88948,15.58761 0.45583,26.12977 -4.7597,34.99961 -30.75399,63.13845 -66.43622,71.91724 -4.95,1.21784 -7.71496,2.25719 -6.14435,2.30968 5.10663,0.17067 14.96309,3.17352 23.48787,7.15577 19.51492,9.11618 33.10126,22.74218 42.14333,42.26637 4.91891,10.62118 6.94604,18.86038 7.66973,31.1733 2.38338,40.5509 -25.69898,77.86906 -65.83869,87.49191 -9.78412,2.34558 -27.83928,2.60657 -37.3315,0.53961 z m 168.01361,-53.46983 c -8.09344,-1.97909 -16.77095,-8.7257 -20.37119,-15.83825 -7.98612,-15.77718 -1.40702,-35.02888 14.66858,-42.92308 l 5.70261,-2.80036 125.80927,0.28621 c 123.64681,0.28129 125.90259,0.32113 131.23866,2.31761 6.47343,2.42202 13.17839,8.74293 16.53443,15.58734 3.58186,7.30498 3.41169,18.78454 -0.39331,26.53309 -4.56567,9.29759 -12.57561,15.04303 -23.45672,16.82526 -6.74868,1.10537 -245.21416,1.117 -249.73233,0.0122 z m -4.07568,-172.11068 c -7.15231,-2.76293 -12.77521,-7.96441 -16.35598,-15.13016 -2.62515,-5.25339 -3.06834,-7.24967 -3.06834,-13.82085 0,-6.57118 0.44319,-8.56746 3.06834,-13.82085 3.64939,-7.30306 9.25781,-12.40918 16.68015,-15.18624 5.33673,-1.99672 7.04486,-2.01963 131.07935,-1.758 l 125.67216,0.26509 5.09882,2.30811 c 6.36983,2.88346 12.61219,9.16958 15.58265,15.69189 3.17977,6.9819 3.17977,18.0181 0,25 -2.97046,6.52231 -9.21282,12.80843 -15.58265,15.69189 l -5.09882,2.30811 -126,0.20587 c -123.02646,0.201 -126.11978,0.15959 -131.07568,-1.75486 z m 3.98258,-169.27943 c -13.74081,-3.54648 -23.45207,-15.71804 -23.55904,-29.52763 -0.102,-13.1683 5.63305,-22.67237 17.43557,-28.89404 l 5.21657,-2.74991 122.91977,-0.2693 c 79.39239,-0.17393 124.84802,0.0872 128.36508,0.73733 10.96016,2.02609 19.11642,8.22547 23.56287,17.90957 3.09203,6.73425 2.96569,18.84171 -0.26536,25.43124 -3.41928,6.9734 -10.04759,13.15793 -16.8437,15.71596 l -5.73866,2.16002 -123,0.40064 c -99.38876,0.32373 -123.97768,0.14831 -128.0931,-0.91388 z"
         id="path1798" /><path
         style="fill:#fdee49"
         d="m -759.64569,222.56644 c -12.55347,-2.09126 -27.69347,-9.10149 -38.87882,-18.00194 -12.42838,-9.88956 -24.5872,-28.59279 -28.85602,-44.38759 -2.21804,-8.20683 -3.04997,-26.48843 -1.59643,-35.08128 3.72596,-22.0265 16.19369,-42.53394 33.76524,-55.53847 10.74399,-7.95151 30.1384,-15.73043 39.76682,-15.9501 1.68391,-0.0384 -1.59872,-1.14805 -7.29474,-2.46584 -59.20459,-13.69722 -86.10926,-80.71167 -52.61411,-131.05178 12.44987,-18.711 31.70853,-31.5414 54.47051,-36.28904 5.225,-1.08982 8.10948,-2.01344 6.40996,-2.05249 -5.34136,-0.12273 -18.61215,-3.9617 -26.32121,-7.61418 -40.93986,-19.39696 -59.26402,-65.49499 -43.15217,-108.55776 4.35448,-11.6384 14.63196,-25.92748 24.2526,-33.71911 17.5723,-14.23157 32.86483,-19.66124 55.31082,-19.63832 16.63599,0.017 22.36857,1.32131 37,8.41856 29.69239,14.40285 47.65385,43.22492 47.65385,76.46831 0,20.87321 -6.08147,37.78118 -19.64945,54.63023 -11.97408,14.86971 -34.90773,27.74739 -52.77465,29.63397 l -6.22975,0.6578 7.76617,1.31855 c 16.28107,2.7642 31.64969,10.55025 44.07835,22.33095 12.44339,11.79466 20.40421,25.14389 24.74856,41.5 2.98062,11.22179 2.98062,29.77821 0,41 -8.62615,32.47675 -34.17053,56.66897 -67.08435,63.5333 -5.4619,1.1391 -7.30713,1.80894 -5.15308,1.87062 4.73059,0.13545 13.54113,2.5484 21.91765,6.0026 44.99111,18.55284 65.34735,71.73358 44.24625,115.59348 -14.3557,29.83917 -44.67155,48.80015 -77.35752,48.3831 -5.03912,-0.0643 -11.53013,-0.5114 -14.42448,-0.99357 z m 164.71301,-54.22754 c -6.17038,-1.69668 -11.11928,-4.91071 -15.86765,-10.30514 -5.38254,-6.11488 -7.45576,-12.67985 -6.86422,-21.73589 0.76943,-11.77949 6.42723,-20.2891 17.00351,-25.57413 l 6.09724,-3.04683 h 76.66214 c 86.89826,0 82.11153,-0.42337 91.42213,8.08599 12.6581,11.56879 13.59288,30.15527 2.19438,43.63174 -1.49687,1.76976 -5.72115,4.69476 -9.38731,6.5 l -6.66572,3.28227 -75.02253,0.20648 c -57.4935,0.15823 -76.08551,-0.0858 -79.57197,-1.04449 z m -1.65741,-171.09549 c -8.38617,-2.65134 -16.17492,-10.11788 -19.39514,-18.59279 -5.62258,-14.79742 1.24131,-31.94688 15.61781,-39.02114 l 4.98418,-2.45257 h 62.5 c 61.73012,0 62.55694,0.0263 67.1224,2.13733 6.63474,3.0678 12.39668,8.68357 15.59782,15.20213 3.9588,8.06141 3.9588,18.25967 0,26.32108 -3.20114,6.51856 -8.96308,12.13433 -15.59782,15.20213 -4.54557,2.1018 -5.6363,2.14063 -65.6224,2.33559 -48.41983,0.15738 -61.86759,-0.076 -65.20685,-1.13176 z m 0.0716,-170.64817 c -8.68881,-2.53868 -18.01979,-12.2338 -20.46246,-21.26099 -1.70539,-6.30249 -0.63941,-16.28786 2.37216,-22.22079 3.04698,-6.0027 9.19961,-11.83831 15.60319,-14.79922 l 4.62236,-2.13733 98,0.33807 98,0.33807 5.04563,2.26304 c 7.07714,3.17421 11.91416,7.76081 15.16428,14.37922 3.76622,7.66934 3.94381,19.20844 0.40658,26.41782 -3.05781,6.23226 -8.62539,11.85415 -14.70111,14.84452 l -4.91538,2.41926 -98,0.1672 c -56.95084,0.0972 -99.31328,-0.21652 -101.13529,-0.74887 z"
         id="path1796" /><path
         style="fill:#fdd944"
         d="m -759.64569,222.56644 c -12.55347,-2.09126 -27.69347,-9.10149 -38.87882,-18.00194 -12.42838,-9.88956 -24.5872,-28.59279 -28.85602,-44.38759 -2.21804,-8.20683 -3.04997,-26.48843 -1.59643,-35.08128 3.72596,-22.0265 16.19369,-42.53394 33.76524,-55.53847 10.79169,-7.98682 30.36295,-15.81726 39.76682,-15.91066 4.29316,-0.0426 1.39482,-1.52831 -4.69728,-2.40779 -2.61741,-0.37787 -7.90274,-1.7563 -11.74517,-3.0632 -37.94351,-12.90542 -62.23306,-51.66383 -57.06133,-91.05174 4.92389,-37.50037 33.02038,-66.75844 70.47825,-73.39203 6.70442,-1.18731 8.35677,-2.05483 3.91382,-2.05483 -5.06347,0 -18.42406,-3.84107 -26.23788,-7.54318 -40.93986,-19.39696 -59.26402,-65.49499 -43.15217,-108.55776 4.35448,-11.6384 14.63196,-25.92748 24.2526,-33.71911 17.5723,-14.23157 32.86483,-19.66124 55.31082,-19.63832 16.63599,0.017 22.36857,1.32131 37,8.41856 29.69239,14.40285 47.65385,43.22492 47.65385,76.46831 0,20.87321 -6.08147,37.78118 -19.64945,54.63023 -11.97283,14.86816 -34.89941,27.74274 -52.77465,29.63599 -5.26066,0.55718 -5.76307,0.76609 -3.22975,1.343 1.65,0.37575 6.5719,1.47926 10.93755,2.45223 l 7.93754,1.76905 -7.43768,3.65054 c -19.14884,9.3986 -31.65173,21.96783 -40.67828,40.89413 -10.89942,22.85321 -10.89942,49.53945 0,72.39266 9.02655,18.9263 21.52944,31.49553 40.67828,40.89413 l 7.43768,3.65054 -7.93754,1.75349 c -4.36565,0.96442 -9.06255,2.11217 -10.43755,2.55055 -2.32843,0.74237 -2.26971,0.80248 0.85565,0.87601 4.69874,0.11055 13.49833,2.51362 21.91765,5.98547 44.99111,18.55284 65.34735,71.73358 44.24625,115.59348 -14.3557,29.83917 -44.67155,48.80015 -77.35752,48.3831 -5.03912,-0.0643 -11.53013,-0.5114 -14.42448,-0.99357 z m 164.71301,-54.22754 c -6.17038,-1.69668 -11.11928,-4.91071 -15.86765,-10.30514 -5.38254,-6.11488 -7.45576,-12.67985 -6.86422,-21.73589 0.76943,-11.77949 6.42723,-20.2891 17.00351,-25.57413 l 6.09724,-3.04683 h 76.66214 c 86.89826,0 82.11153,-0.42337 91.42213,8.08599 12.6581,11.56879 13.59288,30.15527 2.19438,43.63174 -1.49687,1.76976 -5.72115,4.69476 -9.38731,6.5 l -6.66572,3.28227 -75.02253,0.20648 c -57.4935,0.15823 -76.08551,-0.0858 -79.57197,-1.04449 z m -0.27823,-171.09462 c -9.78836,-2.63103 -18.34637,-11.1984 -21.28555,-21.30883 -4.10511,-14.1211 2.83124,-29.28954 16.45268,-35.97876 l 5.66054,-2.77978 39.5,-0.22691 39.5,-0.2269 -5.14345,2.00704 c -16.86466,6.58083 -24.83927,26.29997 -17.0504,42.16121 3.38023,6.88349 10.02173,13.00028 17.0504,15.70331 l 5.14345,1.97804 -37.5,-0.01539 c -27.54517,-0.0113 -38.78156,-0.35986 -42.32767,-1.31303 z m -106.25918,-17.88842 c -2.82371,-2.42885 -2.91315,-2.78742 -2.91315,-11.67895 0,-8.81118 0.11072,-9.2684 2.80576,-11.58658 3.58283,-3.08182 7.131,-3.06757 10.23969,0.0411 2.23977,2.23976 2.45455,3.23635 2.45455,11.38921 0,10.09739 -1.25545,12.71729 -6.58685,13.7456 -2.39671,0.46227 -3.73816,0.0351 -6,-1.91041 z m -68.41315,-0.67895 c -1.2381,-1.2381 -2,-3.33333 -2,-5.5 0,-2.16667 0.7619,-4.2619 2,-5.5 1.86618,-1.86618 3.33333,-2 21.92742,-2 h 19.92742 l 2.07258,2.63486 c 2.62957,3.34296 2.62957,6.38732 0,9.73028 l -2.07258,2.63486 h -19.92742 c -18.59409,0 -20.06124,-0.13382 -21.92742,-2 z m 173.36471,-152.08167 c -8.68881,-2.53868 -18.01979,-12.2338 -20.46246,-21.26099 -1.70539,-6.30249 -0.63941,-16.28786 2.37216,-22.22079 3.04698,-6.0027 9.19961,-11.83831 15.60319,-14.79922 l 4.6224,-2.13733 98,0.33807 98,0.33807 5.04563,2.26304 c 7.07714,3.17421 11.91416,7.76081 15.16428,14.37922 3.76622,7.66934 3.94381,19.20844 0.40658,26.41782 -3.05781,6.23226 -8.62539,11.85415 -14.70111,14.84452 l -4.91538,2.41926 -98,0.1672 c -56.95084,0.0972 -99.31328,-0.21652 -101.13529,-0.74887 z"
         id="path1794" /><path
         style="fill:#a4e686"
         d="m -759.64569,222.56644 c -25.80352,-4.29857 -49.88496,-22.73067 -61.692,-47.2195 -5.80723,-12.04469 -7.54438,-18.84635 -8.23704,-32.25131 -1.25029,-24.197 6.41179,-45.53093 22.47696,-62.58375 11.84483,-12.57302 25.39036,-20.76294 41.24456,-24.93733 10.61092,-2.79385 30.9497,-3.06448 40.52852,-0.53928 53.68361,14.15224 80.98754,71.24032 57.461,120.14164 -14.3557,29.83917 -44.67155,48.80015 -77.35752,48.3831 -5.03912,-0.0643 -11.53013,-0.5114 -14.42448,-0.99357 z m 164.71301,-54.22754 c -6.17038,-1.69668 -11.11928,-4.91071 -15.86765,-10.30514 -5.38254,-6.11488 -7.45576,-12.67985 -6.86422,-21.73589 0.76943,-11.77949 6.42723,-20.2891 17.00351,-25.57413 l 6.09724,-3.04683 h 76.66214 c 86.89826,0 82.11153,-0.42337 91.42213,8.08599 12.6581,11.56879 13.59288,30.15527 2.19438,43.63174 -1.49687,1.76976 -5.72115,4.69476 -9.38731,6.5 l -6.66572,3.28227 -75.02253,0.20648 c -57.4935,0.15823 -76.08551,-0.0858 -79.57197,-1.04449 z M -802.56787,-19.33939 c -3.40141,-1.35595 -4.31537,-4.1743 -4.31537,-13.30717 0,-6.72685 0.37693,-8.92045 1.84417,-10.73241 2.66898,-3.29606 7.77698,-3.08587 10.81409,0.44498 2.02767,2.3573 2.34174,3.78041 2.34174,10.6109 0,6.78065 -0.31598,8.23604 -2.25,10.36342 -2.67955,2.94745 -5.45278,3.80897 -8.43463,2.62028 z m 103,0 c -3.40141,-1.35595 -4.31537,-4.1743 -4.31537,-13.30717 0,-6.72685 0.37693,-8.92045 1.84417,-10.73241 2.66898,-3.29606 7.77698,-3.08587 10.81409,0.44498 2.02767,2.3573 2.34174,3.78041 2.34174,10.6109 0,6.78065 -0.31598,8.23604 -2.25,10.36342 -2.67955,2.94745 -5.45278,3.80897 -8.43463,2.62028 z m -70.14106,-2.29815 c -2.88427,-3.07017 -2.77173,-7.17904 0.28023,-10.231 2.43322,-2.43322 2.61908,-2.45455 21.38922,-2.45455 17.01012,0 19.16954,0.19019 21.24546,1.87116 3.21091,2.60004 3.21091,8.65764 0,11.25768 -2.07857,1.68312 -4.24177,1.87116 -21.52569,1.87116 -18.79214,0 -19.26274,-0.05092 -21.38922,-2.31445 z m 11.16726,-97.16502 c -43.29758,-7.85678 -73.20281,-44.88259 -71.05112,-87.96876 0.77025,-15.42395 4.31331,-27.59081 11.47011,-39.38842 12.55774,-20.70077 29.48643,-33.29564 53.73944,-39.98189 8.54639,-2.35614 31.64283,-2.26988 40.5,0.15125 16.94159,4.63102 34.70937,16.17093 45.7182,29.6933 18.79545,23.08682 23.81166,56.81159 12.6135,84.80257 -5.63809,14.093 -15.07288,26.71138 -26.47026,35.40213 -20.07348,15.30646 -43.66207,21.4376 -66.51987,17.28982 z m 162.02314,-54.6022 c -8.68881,-2.53868 -18.01979,-12.2338 -20.46246,-21.26099 -1.70539,-6.30249 -0.63941,-16.28786 2.37216,-22.22079 3.04698,-6.0027 9.19961,-11.83831 15.60319,-14.79922 l 4.6224,-2.13733 98,0.33807 98,0.33807 5.04563,2.26304 c 7.07714,3.17421 11.91416,7.76081 15.16428,14.37922 3.76622,7.66934 3.94381,19.20844 0.40658,26.41782 -3.05781,6.23226 -8.62539,11.85415 -14.70111,14.84452 l -4.91538,2.41926 -98,0.1672 c -56.95084,0.0972 -99.31328,-0.21652 -101.13529,-0.74887 z"
         id="path1792" /><path
         style="fill:#99da85"
         d="m -759.64569,222.56644 c -25.80352,-4.29857 -49.88496,-22.73067 -61.692,-47.2195 -5.80723,-12.04469 -7.54438,-18.84635 -8.23704,-32.25131 -1.25029,-24.197 6.41179,-45.53093 22.47696,-62.58375 11.84483,-12.57302 25.39036,-20.76294 41.24456,-24.93733 10.61092,-2.79385 30.9497,-3.06448 40.52852,-0.53928 53.68361,14.15224 80.98754,71.24032 57.461,120.14164 -14.3557,29.83917 -44.67155,48.80015 -77.35752,48.3831 -5.03912,-0.0643 -11.53013,-0.5114 -14.42448,-0.99357 z m 164.71301,-54.22754 c -6.17038,-1.69668 -11.11928,-4.91071 -15.86765,-10.30514 -5.38254,-6.11488 -7.45576,-12.67985 -6.86422,-21.73589 0.76943,-11.77949 6.42723,-20.2891 17.00351,-25.57413 l 6.09724,-3.04683 h 76.66214 c 86.89826,0 82.11153,-0.42337 91.42213,8.08599 12.6581,11.56879 13.59288,30.15527 2.19438,43.63174 -1.49687,1.76976 -5.72115,4.69476 -9.38731,6.5 l -6.66572,3.28227 -75.02253,0.20648 c -57.4935,0.15823 -76.08551,-0.0858 -79.57197,-1.04449 z M -802.56787,-19.33939 c -3.40141,-1.35595 -4.31537,-4.1743 -4.31537,-13.30717 0,-6.72685 0.37693,-8.92045 1.84417,-10.73241 2.66898,-3.29606 7.77698,-3.08587 10.81409,0.44498 2.02767,2.3573 2.34174,3.78041 2.34174,10.6109 0,6.78065 -0.31598,8.23604 -2.25,10.36342 -2.67955,2.94745 -5.45278,3.80897 -8.43463,2.62028 z m 103,0 c -3.40141,-1.35595 -4.31537,-4.1743 -4.31537,-13.30717 0,-6.72685 0.37693,-8.92045 1.84417,-10.73241 2.66898,-3.29606 7.77698,-3.08587 10.81409,0.44498 2.02767,2.3573 2.34174,3.78041 2.34174,10.6109 0,6.78065 -0.31598,8.23604 -2.25,10.36342 -2.67955,2.94745 -5.45278,3.80897 -8.43463,2.62028 z m -70.14106,-2.29815 c -2.88427,-3.07017 -2.77173,-7.17904 0.28023,-10.231 2.43322,-2.43322 2.61908,-2.45455 21.38922,-2.45455 17.01012,0 19.16954,0.19019 21.24546,1.87116 3.21091,2.60004 3.21091,8.65764 0,11.25768 -2.07857,1.68312 -4.24177,1.87116 -21.52569,1.87116 -18.79214,0 -19.26274,-0.05092 -21.38922,-2.31445 z m 7.32569,-98.16475 c -32.60553,-7.17429 -58.51432,-33.2547 -65.58637,-66.0208 -2.0459,-9.47906 -1.55381,-28.48994 0.98364,-38 8.17381,-30.63456 30.96817,-53.42892 61.60273,-61.60273 10.59543,-2.82704 28.68413,-3.07102 39.75,-0.53615 4.2625,0.97642 7.75,2.15059 7.75,2.60927 0,0.45868 -1.4625,1.34367 -3.25,1.96666 -5.29431,1.84518 -16.29554,8.76711 -22.33901,14.05561 -36.32074,31.78346 -39.40535,86.68756 -6.84601,121.85466 7.98441,8.6239 16.5582,14.94481 26.54743,19.57173 l 7.31572,3.38858 -3.96406,1.05102 c -9.85407,2.6127 -13.69021,3.08898 -24.46407,3.0374 -6.325,-0.0303 -14.2,-0.64914 -17.5,-1.37525 z m 168,-53.45911 c -8.56046,-2.09329 -16.82313,-9.10799 -20.68605,-17.56169 -3.14844,-6.89011 -3.1752,-18.10276 -0.0585,-24.5 3.28011,-6.73261 7.42197,-11.22856 13.38899,-14.53362 l 5.35556,-2.96638 39.49855,-0.29439 39.49855,-0.29438 -6.23415,3.11524 c -6.70494,3.3505 -10.9538,7.74471 -14.44856,14.94283 -3.3411,6.88164 -3.14323,18.74967 0.42747,25.6383 3.23339,6.23789 11.32969,13.71891 17.03272,15.73831 3.88627,1.3761 1.2155,1.49432 -33.27458,1.47278 -20.625,-0.0129 -38.85,-0.35353 -40.5,-0.757 z m -156.45283,-10.36661 c -11.79352,-3.75971 -18.04516,-22.85094 -10.08834,-30.80776 3.29799,-3.29798 8.84637,-4.30673 20.34974,-3.69975 12.28044,0.64797 15.71324,3.73902 15.66947,14.10948 -0.0381,9.02434 -5.11287,16.77342 -13.19592,20.1499 -4.22856,1.76637 -7.75687,1.83512 -12.73495,0.24813 z m 52.40738,-22.14962 c -2.23655,-2.23655 -2.45455,-3.24116 -2.45455,-11.31144 0,-7.42385 0.31813,-9.19837 1.96617,-10.96733 2.61002,-2.80153 5.21184,-3.52971 8.34945,-2.33679 4.68801,1.78238 5.93076,5.06804 5.53763,14.64073 -0.31251,7.60969 -0.62679,8.82757 -2.71413,10.5178 -3.28652,2.66126 -7.70487,2.43673 -10.68457,-0.54297 z"
         id="path1790" /><path
         style="fill:#fd876f"
         d="m -759.64569,222.56644 c -25.80352,-4.29857 -49.88496,-22.73067 -61.692,-47.2195 -5.80723,-12.04469 -7.54438,-18.84635 -8.23704,-32.25131 -1.25029,-24.197 6.41179,-45.53093 22.47696,-62.58375 11.84483,-12.57302 25.39036,-20.76294 41.24456,-24.93733 10.61092,-2.79385 30.9497,-3.06448 40.52852,-0.53928 53.68361,14.15224 80.98754,71.24032 57.461,120.14164 -14.3557,29.83917 -44.67155,48.80015 -77.35752,48.3831 -5.03912,-0.0643 -11.53013,-0.5114 -14.42448,-0.99357 z m 164.71301,-54.22754 c -6.17038,-1.69668 -11.11928,-4.91071 -15.86765,-10.30514 -5.38254,-6.11488 -7.45576,-12.67985 -6.86422,-21.73589 0.76943,-11.77949 6.42723,-20.2891 17.00351,-25.57413 l 6.09724,-3.04683 h 76.66214 c 86.89826,0 82.11153,-0.42337 91.42213,8.08599 12.6581,11.56879 13.59288,30.15527 2.19438,43.63174 -1.49687,1.76976 -5.72115,4.69476 -9.38731,6.5 l -6.66572,3.28227 -75.02253,0.20648 c -57.4935,0.15823 -76.08551,-0.0858 -79.57197,-1.04449 z M -802.53791,-19.60431 c -3.66701,-1.92246 -4.34533,-3.93772 -4.34533,-12.90991 0,-7.47554 0.30273,-9.1116 2,-10.80887 3.22279,-3.22279 7.52069,-2.97863 10.75,0.61069 1.92777,2.14268 2.25,3.61926 2.25,10.31022 0,6.26555 -0.39093,8.30636 -1.9775,10.32335 -2.24115,2.84916 -5.94681,3.90593 -8.67717,2.47452 z m 33.10922,-2.17333 c -2.94366,-2.94366 -3.14227,-6.47371 -0.54487,-9.68467 1.8672,-2.30827 2.32964,-2.36764 20.79077,-2.66928 17.99956,-0.29409 19.00759,-0.209 21.59032,1.82258 3.47835,2.73607 3.72682,7.95998 0.52067,10.94696 -2.04207,1.90249 -3.45072,2.03896 -21.04546,2.03896 -18.68756,0 -18.87893,-0.022 -21.31143,-2.45455 z m 67.58441,0.26599 c -1.7251,-1.85167 -2.03896,-3.5159 -2.03896,-10.81144 0,-10.09103 1.65229,-13 7.38397,-13 5.61921,0 7.11603,2.73449 7.11603,13 0,7.24056 -0.3358,9.16108 -1.90499,10.89501 -2.57413,2.84439 -7.86729,2.80248 -10.55605,-0.0836 z m -51.23529,-163.85199 c -6.71361,-3.54569 -10.80367,-11.1294 -10.80367,-20.03195 0,-6.83601 3.22122,-10.41622 10.78543,-11.98741 6.92692,-1.43881 17.90849,-0.66685 22.21833,1.56186 9.23891,4.77762 6.89979,22.79818 -3.84365,29.61147 -5.56226,3.52748 -12.65984,3.8546 -18.35644,0.84603 z m -47.8801,-20.88204 c -3.08734,-3.08734 -3.12234,-3.23476 -2.77508,-11.69052 0.31072,-7.56597 0.62674,-8.78647 2.71239,-10.47532 3.06059,-2.47832 7.61207,-2.43862 10.13912,0.0884 1.71464,1.71464 2,3.33333 2,11.34501 0,10.19264 -0.76732,11.81721 -6.22483,13.17917 -2.21716,0.55331 -3.3074,0.0974 -5.8516,-2.44677 z m 105.09614,1.631 c -3.9868,-2.00574 -5.12783,-5.35026 -4.79553,-14.05637 0.2608,-6.8328 0.60338,-8.09399 2.64847,-9.75 3.04993,-2.46968 7.60375,-2.42564 10.12735,0.098 1.70001,1.70001 2,3.33333 2,10.88922 0,7.02824 -0.36636,9.31292 -1.75,10.9131 -2.36846,2.73914 -5.24859,3.40616 -8.23029,1.90609 z"
         id="path1788" /><path
         style="fill:#fc6b51"
         d="m -756.38324,222.63508 c -34.55756,-5.37125 -61.52046,-29.60052 -70.61774,-63.45817 -3.00961,-11.20097 -3.00273,-30.64306 0.0148,-41.94602 7.56725,-28.34487 28.15147,-50.23202 56.10291,-59.65412 8.21556,-2.76937 11.26556,-3.26625 22.55841,-3.67505 12.41447,-0.4494 17.23065,0.0524 27.90566,2.90738 l 3.96406,1.06018 -7.31572,3.38858 c -49.58924,22.96929 -64.74936,87.03547 -30.70489,129.75789 8.88573,11.15072 23.18794,22.18504 33.34248,25.72411 1.7875,0.62299 3.25,1.50261 3.25,1.95472 0,1.40352 -13.7318,4.02762 -23.34167,4.46051 -5.03708,0.22691 -11.85833,-0.007 -15.15833,-0.52001 z m 159.20268,-55.40049 c -6.31856,-2.25389 -11.51398,-6.30337 -15.16605,-11.82093 -10.32282,-15.59577 -4.96591,-35.55458 11.96337,-44.57315 l 5,-2.6636 39.5,-0.19973 c 36.59496,-0.18503 39.18621,-0.0866 35.23333,1.33889 -6.08898,2.19577 -14.48387,10.23416 -17.32653,16.59073 -3.2245,7.21043 -3.2924,18.3229 -0.15134,24.77011 3.48258,7.1482 7.80614,11.62483 14.41866,14.92915 l 6.14532,3.07085 -37.90972,-0.0439 c -29.26187,-0.0339 -38.77595,-0.35289 -41.70704,-1.39843 z m -168.31358,-13.89942 c -5.72623,-4.92549 -2.33868,-12.08956 8.14102,-17.2168 6.91688,-3.38411 13.77344,-4.07655 20.62973,-2.08337 6.63069,1.9276 14.57571,7.74012 15.47446,11.32101 0.93281,3.71663 -0.73756,7.60379 -3.92367,9.13086 -3.32124,1.59183 -5.39066,1.02047 -10.22824,-2.82395 -6.54492,-5.20124 -13.2644,-4.71301 -20.64851,1.50031 -3.71653,3.12725 -5.96153,3.16812 -9.44479,0.17194 z m 67.63607,-7.47925 c -2.85902,-2.85901 -3.02517,-3.46136 -3.02517,-10.96723 0,-9.72109 2.00075,-13.21178 7.57258,-13.21178 6.02725,0 7.42742,2.51573 7.42742,13.34501 0,10.19264 -0.76732,11.81721 -6.22483,13.17917 -2.20544,0.55038 -3.30148,0.10336 -5.75,-2.34517 z M -804.88324,-21.32309 c -1.7037,-1.7037 -2,-3.33333 -2,-11 0,-10.45355 1.45489,-13 7.42742,-13 5.53011,0 7.57258,3.50635 7.57258,13 0,6.30632 -0.38178,8.21564 -2.07258,10.36514 -2.59699,3.30154 -7.94976,3.61252 -10.92742,0.63486 z m 35.45455,-0.45455 c -2.94366,-2.94366 -3.14227,-6.47371 -0.54487,-9.68467 1.8672,-2.30827 2.32964,-2.36764 20.79077,-2.66928 17.99956,-0.29409 19.00759,-0.209 21.59032,1.82258 3.47835,2.73607 3.72682,7.95998 0.52067,10.94696 -2.04207,1.90249 -3.45072,2.03896 -21.04546,2.03896 -18.68756,0 -18.87893,-0.022 -21.31143,-2.45455 z m 67.58441,0.26599 c -1.7251,-1.85167 -2.03896,-3.5159 -2.03896,-10.81144 0,-10.09103 1.65229,-13 7.38397,-13 5.61921,0 7.11603,2.73449 7.11603,13 0,7.24056 -0.3358,9.16108 -1.90499,10.89501 -2.57413,2.84439 -7.86729,2.80248 -10.55605,-0.0836 z m -51.23529,-163.85199 c -6.71361,-3.54569 -10.80367,-11.1294 -10.80367,-20.03195 0,-6.83601 3.22122,-10.41622 10.78543,-11.98741 6.92692,-1.43881 17.90849,-0.66685 22.21833,1.56186 9.23891,4.77762 6.89979,22.79818 -3.84365,29.61147 -5.56226,3.52748 -12.65984,3.8546 -18.35644,0.84603 z m -47.8801,-20.88204 c -3.08734,-3.08734 -3.12234,-3.23476 -2.77508,-11.69052 0.31072,-7.56597 0.62674,-8.78647 2.71239,-10.47532 3.06059,-2.47832 7.61207,-2.43862 10.13912,0.0884 1.71464,1.71464 2,3.33333 2,11.34501 0,10.19264 -0.76732,11.81721 -6.22483,13.17917 -2.21716,0.55331 -3.3074,0.0974 -5.8516,-2.44677 z m 105.09614,1.631 c -3.9868,-2.00574 -5.12783,-5.35026 -4.79553,-14.05637 0.2608,-6.8328 0.60338,-8.09399 2.64847,-9.75 3.04993,-2.46968 7.60375,-2.42564 10.12735,0.098 1.70001,1.70001 2,3.33333 2,10.88922 0,7.02824 -0.36636,9.31292 -1.75,10.9131 -2.36846,2.73914 -5.24859,3.40616 -8.23029,1.90609 z"
         id="path1786" /><path
         style="fill:#49545f"
         d="m -762.88324,154.95747 c -5.50483,-1.98738 -6.6563,-8.1587 -2.4541,-13.15274 1.40025,-1.6641 5.09671,-4.27363 8.21435,-5.79895 10.95952,-5.36199 24.31333,-3.18863 32.84805,5.3461 3.84807,3.84807 4.43856,7.86628 1.6417,11.1716 -2.85187,3.37034 -6.31713,3.61089 -10.27503,0.71327 -8.73235,-6.39301 -14.43044,-6.83617 -20.98946,-1.63242 -3.91888,3.10914 -6.74262,4.16288 -8.98551,3.35314 z m -35.78263,-7.39585 c -4.11039,-1.52054 -5.46081,-5.1874 -5.07106,-13.76978 0.42337,-9.3227 2.15395,-12.11493 7.50868,-12.11493 5.84438,0 7.34501,2.61052 7.34501,12.77749 0,9.60483 -1.2027,12.64578 -5.31212,13.43134 -1.30335,0.24916 -3.31508,0.1033 -4.47051,-0.32412 z m 102.58005,-0.29839 c -3.75765,-1.87339 -4.90066,-5.35605 -4.57324,-13.93428 0.2608,-6.8328 0.60338,-8.09399 2.64847,-9.75 3.04993,-2.46969 7.60375,-2.42564 10.12735,0.098 1.69619,1.69619 2,3.33333 2,10.77749 0,9.68162 -1.19878,12.64503 -5.44348,13.45646 -1.3756,0.26296 -3.5172,-0.0285 -4.7591,-0.64763 z M -804.88324,-21.32309 c -1.7037,-1.7037 -2,-3.33333 -2,-11 0,-10.45355 1.45489,-13 7.42742,-13 5.53011,0 7.57258,3.50635 7.57258,13 0,6.30632 -0.38178,8.21564 -2.07258,10.36514 -2.59699,3.30154 -7.94976,3.61252 -10.92742,0.63486 z m 35.45455,-0.45455 c -2.94366,-2.94366 -3.14227,-6.47371 -0.54487,-9.68467 1.8672,-2.30827 2.32964,-2.36764 20.79077,-2.66928 17.99956,-0.29409 19.00759,-0.209 21.59032,1.82258 3.47835,2.73607 3.72682,7.95998 0.52067,10.94696 -2.04207,1.90249 -3.45072,2.03896 -21.04546,2.03896 -18.68756,0 -18.87893,-0.022 -21.31143,-2.45455 z m 67.58441,0.26599 c -1.7251,-1.85167 -2.03896,-3.5159 -2.03896,-10.81144 0,-10.09103 1.65229,-13 7.38397,-13 5.61921,0 7.11603,2.73449 7.11603,13 0,7.24056 -0.3358,9.16108 -1.90499,10.89501 -2.57413,2.84439 -7.86729,2.80248 -10.55605,-0.0836 z m -51.23529,-163.85199 c -6.71361,-3.54569 -10.80367,-11.1294 -10.80367,-20.03195 0,-6.83601 3.22122,-10.41622 10.78543,-11.98741 6.92692,-1.43881 17.90849,-0.66685 22.21833,1.56186 9.23891,4.77762 6.89979,22.79818 -3.84365,29.61147 -5.56226,3.52748 -12.65984,3.8546 -18.35644,0.84603 z m -47.8801,-20.88204 c -3.08734,-3.08734 -3.12234,-3.23476 -2.77508,-11.69052 0.31072,-7.56597 0.62674,-8.78647 2.71239,-10.47532 3.06059,-2.47832 7.61207,-2.43862 10.13912,0.0884 1.71464,1.71464 2,3.33333 2,11.34501 0,10.19264 -0.76732,11.81721 -6.22483,13.17917 -2.21716,0.55331 -3.3074,0.0974 -5.8516,-2.44677 z m 105.09614,1.631 c -3.9868,-2.00574 -5.12783,-5.35026 -4.79553,-14.05637 0.2608,-6.8328 0.60338,-8.09399 2.64847,-9.75 3.04993,-2.46968 7.60375,-2.42564 10.12735,0.098 1.70001,1.70001 2,3.33333 2,10.88922 0,7.02824 -0.36636,9.31292 -1.75,10.9131 -2.36846,2.73914 -5.24859,3.40616 -8.23029,1.90609 z"
         id="path1784" /></g></g></svg>
