<?xml version="1.0" encoding="UTF-8" standalone="no"?>
<!-- Created with Inkscape (http://www.inkscape.org/) -->

<svg
   version="1.1"
   id="svg2"
   width="511.99997"
   height="315.90219"
   viewBox="0 0 511.99996 315.9022"
   sodipodi:docname="vaj.svg"
   inkscape:version="1.1.2 (b8e25be833, 2022-02-05)"
   xmlns:inkscape="http://www.inkscape.org/namespaces/inkscape"
   xmlns:sodipodi="http://sodipodi.sourceforge.net/DTD/sodipodi-0.dtd"
   xmlns="http://www.w3.org/2000/svg"
   xmlns:svg="http://www.w3.org/2000/svg">
  <defs
     id="defs6" />
  <sodipodi:namedview
     id="namedview4"
     pagecolor="#ffffff"
     bordercolor="#666666"
     borderopacity="1.0"
     inkscape:pageshadow="2"
     inkscape:pageopacity="0.0"
     inkscape:pagecheckerboard="0"
     showgrid="false"
     fit-margin-top="0"
     fit-margin-left="0"
     fit-margin-right="0"
     fit-margin-bottom="0"
     inkscape:zoom="1.1366189"
     inkscape:cx="180.79938"
     inkscape:cy="95.018655"
     inkscape:window-width="1920"
     inkscape:window-height="1009"
     inkscape:window-x="-8"
     inkscape:window-y="-8"
     inkscape:window-maximized="1"
     inkscape:current-layer="g119" />
  <g
     inkscape:groupmode="layer"
     inkscape:label="Image"
     id="g8"
     transform="translate(-185.70348,-142.71098)">
    <g
       id="g102"
       transform="translate(21.151887,-6.2211421)">
      <g
         id="g1188"
         transform="matrix(1.0011493,0,0,1.0011493,-3.9443426e-4,-0.17067083)">
        <g
           id="g119">
          <g
             id="g429"
             transform="matrix(1.472146,0,0,1.472146,-77.603385,-70.317481)">
            <path
               style="fill:#fce85f"
               d="m 304,288.99184 0.008,-52.24592 c 0.005,-31.66498 0.42106,-54.79455 1.05725,-58.71576 0.57733,-3.55842 2.24453,-8.66518 3.7049,-11.34835 3.47172,-6.3787 12.14426,-15.37974 18.33288,-17.57761 l 138.63967,-0.17257 5.85361,2.19012 c 7.82916,2.92927 15.28035,10.0382 19.02997,18.15588 L 493.5,175.5 l 0.28864,57.25 0.28865,57.25 C 350.26396,289.63782 304,288.99184 304,288.99184 Z"
               id="path112"
               sodipodi:nodetypes="ccssccsccccc" />
            <path
               style="fill:#fcc200;stroke-width:0.692978"
               d="m 177.03237,231.75 c -0.003,-66.12072 -0.16994,-63.30306 4.32434,-72.87559 1.91571,-4.08034 3.40462,-6.20913 5.42047,-7.75 L 189.55646,149 l 68.77328,0.0521 68.77329,0.0521 -2.49617,1.99839 c -5.20839,4.16972 -9.25858,14.86359 -10.1985,26.92756 -0.30551,3.92126 -0.50551,27.05201 -0.50772,58.71984 L 313.89702,289 h -68.43114 -68.43113 l -0.002,-57.25 z"
               id="path108" />
            <path
               style="fill:#3c4849"
               d="m 390.89076,236.50096 c -2.53508,-0.81367 -6.54758,-3.19952 -8.91667,-5.3019 -5.36363,-4.75981 -5.90389,-9.14236 -1.58499,-12.85732 3.56313,-3.06488 5.4052,-2.9548 10.71042,0.64006 5.81603,3.94099 10.22289,3.95102 16,0.0364 2.42026,-1.63999 4.94181,-2.98999 5.60343,-3 3.94451,-0.0597 8.29705,4.39622 8.29705,8.49406 0,2.23572 -5.93276,8.41279 -10.14301,10.5607 -5.18591,2.64565 -14.17043,3.28823 -19.96623,1.428 z M 337,230 c -1.68627,-1.68627 -2,-3.33333 -2,-10.5 0,-9.8553 1.54994,-12.5 7.32569,-12.5 5.74982,0 7.67431,3.16977 7.67431,12.64014 0,7.08108 -0.26872,8.26368 -2.31445,10.18555 C 344.73992,232.59296 339.67558,232.67558 337,230 Z m 113.07258,-0.63486 C 448.40986,227.25133 448,225.30049 448,219.5 c 0,-8.67239 2.18581,-12.5 7.13832,-12.5 4.24782,0 6.48427,1.4786 7.7565,5.12811 2.32639,6.67351 0.73345,16.9301 -2.93426,18.893 -3.4552,1.84917 -7.68851,1.1402 -9.88798,-1.65597 z"
               id="path104" />
            <g
               id="g967"
               transform="matrix(0.67928044,0,0,1,164.12997,0)">
              <path
                 style="fill:#4bc6b2"
                 d="m 86.5,363 c 15.74361,-0.34225 21.60187,-0.74951 18.56845,-1.29085 C 89.316031,358.898 68.817387,346.57731 59.047069,332.22104 46.647783,314.00183 45.465886,294.10207 58.276963,289.25444 L 64.5,286.89968 l -24.416667,-0.005 c -13.429166,-0.003 -24.229166,-0.12711 -24,-0.2762 0.229167,-0.1491 109.396397,-0.0366 242.593857,0.25 l 242.17718,0.52108 2.82282,2.09195 c 6.66637,4.94035 9.47216,15.75693 7.41654,23.47983 -4.82269,18.1187 -19.61094,35.22211 -37.77468,43.68842 -14.12205,6.58245 -0.58984,6.1713 -214.81905,6.52679 C 151.25,363.35439 73.85,363.275 86.5,363 Z"
                 id="path110"
                 sodipodi:nodetypes="ssssccsscssscs" />
              <path
                 style="fill:#29ab91"
                 d="M 53.404757,361.51487 C 29.632482,356.3428 9.1360051,337.64677 1.5230016,314.1905 -0.53807575,307.84016 0.06198994,300.03257 3.6333819,294.56093 8.2345891,287.51152 10.93602,286.93571 39.5,286.91652 l 25,-0.0168 -3.890109,2.35476 c -8.87829,5.3742 -10.972459,18.58239 -5.747895,30.82548 8.650467,20.27126 26.116975,35.33408 47.459594,40.92837 l 7.17841,1.88159 -25,-0.0244 C 67.551342,362.84892 57.537005,362.414 53.404757,361.51495 Z"
                 id="path106"
                 sodipodi:nodetypes="cssscssscccc" />
            </g>
          </g>
        </g>
      </g>
    </g>
  </g>
</svg>
