<?xml version="1.0" encoding="UTF-8" standalone="no"?>
<!-- Created with Inkscape (http://www.inkscape.org/) -->

<svg
   width="163.52197mm"
   height="135.4901mm"
   viewBox="0 0 163.52197 135.4901"
   version="1.1"
   id="svg4904"
   inkscape:version="1.1.2 (b8e25be833, 2022-02-05)"
   sodipodi:docname="landing_hobby.svg"
   xmlns:inkscape="http://www.inkscape.org/namespaces/inkscape"
   xmlns:sodipodi="http://sodipodi.sourceforge.net/DTD/sodipodi-0.dtd"
   xmlns="http://www.w3.org/2000/svg"
   xmlns:svg="http://www.w3.org/2000/svg">
  <sodipodi:namedview
     id="namedview4906"
     pagecolor="#ffffff"
     bordercolor="#666666"
     borderopacity="1.0"
     inkscape:pageshadow="2"
     inkscape:pageopacity="0.0"
     inkscape:pagecheckerboard="0"
     inkscape:document-units="mm"
     showgrid="false"
     fit-margin-top="0"
     fit-margin-left="0"
     fit-margin-right="0"
     fit-margin-bottom="0"
     inkscape:zoom="0.733172"
     inkscape:cx="179.35764"
     inkscape:cy="282.33484"
     inkscape:window-width="1920"
     inkscape:window-height="1009"
     inkscape:window-x="-8"
     inkscape:window-y="-8"
     inkscape:window-maximized="1"
     inkscape:current-layer="g17443" />
  <defs
     id="defs4901" />
  <g
     inkscape:label="Layer 1"
     inkscape:groupmode="layer"
     id="layer1"
     transform="translate(1.2363,-104.7843)">
    <g
       id="g16763"
       transform="translate(216.08362,24.233135)">
      <rect
         style="fill:#f3f5e6;fill-opacity:1;stroke-width:0.173109"
         id="rect16899"
         width="73.143562"
         height="38.020382"
         x="-190.8849"
         y="142.32289" />
      <path
         style="fill:#7ee0fd;stroke-width:0.264583"
         d="m -210.35456,206.61172 c 0.191,-0.0764 0.4192,-0.067 0.50712,0.0209 0.0879,0.0879 -0.0683,0.15045 -0.34726,0.13896 -0.30823,-0.0127 -0.37092,-0.0754 -0.15986,-0.15985 z m 18.70274,-0.0486 c -4.45558,-0.19011 -5.2579,-0.45454 -7.06313,-2.3279 -1.71859,-1.78344 -2.05256,-2.90266 -2.05919,-6.90091 l -0.006,-3.50506 51.26302,-0.0668 51.263019,-0.0668 0.06733,-28.47602 0.06733,-28.47601 0.854382,-0.17088 c 2.79491,-0.55898 4.526939,-3.43182 3.78755,-6.28224 -0.385099,-1.48459 -1.159899,-2.43338 -2.583236,-3.1633 -0.955063,-0.48979 -2.386314,-0.50342 -52.850525,-0.50342 h -51.86887 v -2.99076 c 0,-2.68568 0.0697,-3.1307 0.68366,-4.36268 0.37601,-0.75455 1.21891,-1.84307 1.87311,-2.41892 2.31003,-2.03337 -2.30506,-1.88257 55.26476,-1.8058 l 51.583678,0.0688 1.08915,0.58267 c 1.773036,0.94852 2.668235,1.85529 3.525705,3.57124 l 0.809103,1.61915 v 39.7304 c 0,44.58135 0.160767,41.08703 -2.000937,43.49137 -0.716312,0.79671 -1.68533,1.51516 -2.538802,1.88231 l -1.380312,0.59379 -47.906125,0.0736 c -26.34836,0.0405 -49.69205,-0.003 -51.87486,-0.0958 z m -23.44938,-2.08573 c -0.3291,-0.41965 -0.31975,-0.429 0.0999,-0.0999 0.25466,0.19972 0.46302,0.40808 0.46302,0.46302 0,0.21777 -0.21727,0.0776 -0.56292,-0.36312 z m -2.21872,-43.72239 c 0,-21.17328 0.0313,-29.83508 0.0696,-19.24844 0.0383,10.58664 0.0383,27.91023 0,38.49687 -0.0383,10.58664 -0.0696,1.92485 -0.0696,-19.24843 z m 58.57497,4.56406 c -0.32911,-0.41965 -0.31975,-0.42901 0.0999,-0.0999 0.44073,0.34565 0.58088,0.56292 0.36312,0.56292 -0.0549,0 -0.2633,-0.20836 -0.46302,-0.46302 z m 13.79208,0.36312 c 0,-0.0549 0.20836,-0.2633 0.46302,-0.46302 0.41965,-0.32911 0.42901,-0.31975 0.0999,0.0999 -0.34564,0.44073 -0.56292,0.58089 -0.56292,0.36312 z m -64.70117,-62.47406 c 6e-5,-6.548433 0.0345,-9.189444 0.0765,-5.86891 0.042,3.32054 0.042,8.67835 -1.1e-4,11.90625 -0.0421,3.2279 -0.0764,0.5111 -0.0764,-6.03734 z m 25.04786,-4.001266 c -4.51227,-2.248555 -3.65192,-9.06964 1.27729,-10.126766 4.69929,-1.007818 8.24237,3.892878 5.8412,8.079412 -1.46146,2.54813 -4.41114,3.39649 -7.11849,2.047354 z m 30.77106,0.193172 c -2.09729,-0.952566 -3.56161,-3.620741 -3.16801,-5.772483 1.13287,-6.193097 9.73849,-6.193097 10.87136,0 0.56278,3.076568 -2.20217,6.261668 -5.43568,6.261668 -0.65484,0 -1.6753,-0.220133 -2.26767,-0.489185 z m 30.71038,0.0037 c -2.12165,-0.97326 -3.30729,-2.73951 -3.30729,-4.926849 0,-5.819097 7.70475,-7.637391 10.35442,-2.443606 0.77435,1.517837 0.61298,3.953863 -0.35921,5.422952 -1.38315,2.090079 -4.43795,2.979627 -6.68792,1.947503 z m 29.257343,-9.446814 c 0.0127,-0.308224 0.07539,-0.370919 0.15985,-0.159852 0.07643,0.190996 0.06703,0.419199 -0.02087,0.507118 -0.08792,0.08792 -0.150453,-0.06835 -0.138965,-0.347266 z m -3.210132,-6.129513 -0.911799,-0.992188 0.992188,0.911799 c 0.545703,0.501489 0.992187,0.947973 0.992187,0.992187 0,0.202041 -0.223895,0.01171 -1.072576,-0.911798 z m -6.666481,-3.151791 c 0.1819,-0.0734 0.47955,-0.0734 0.66145,0 0.1819,0.0734 0.0331,0.133452 -0.33073,0.133452 -0.3638,0 -0.51263,-0.06005 -0.33072,-0.133452 z"
         id="path16775" />
      <path
         style="fill:#54c1e2;stroke-width:0.264583"
         d="m -209.72137,208.84298 c -0.0524,-2.23006 -0.077,-2.3151 -0.66874,-2.3151 -1.39267,0 -3.23081,-0.90029 -4.5519,-2.22946 -2.43254,-2.44741 -2.24231,1.2464 -2.24063,-43.50769 9.4e-4,-24.91909 0.0967,-39.66899 0.26128,-40.26156 0.76521,-2.75443 2.96312,-4.68263 6.18202,-5.42344 2.63942,-0.60744 16.6566,-0.29729 14.80768,0.32764 -1.52181,0.51437 -3.34681,2.19576 -4.16463,3.83691 -0.61113,1.22638 -0.68368,1.68219 -0.68384,4.29653 l -1.9e-4,2.92462 -2.71179,0.007 c -2.95094,0.008 -3.71288,0.25437 -5.01286,1.62296 -1.84999,1.94762 -1.9745,4.71928 -0.30132,6.70774 0.76072,0.90406 2.42307,1.84869 3.2533,1.84869 h 0.53971 l -3e-5,28.50886 -2e-5,28.50885 53.24742,-0.006 53.247416,-0.006 -51.130726,0.0726 -51.13073,0.0726 0.003,3.50506 c 0.002,3.13622 0.0686,3.64427 0.62983,4.82798 0.76282,1.60884 2.26748,3.09431 3.8655,3.81617 l 1.19062,0.53783 -7.19959,0.006 -7.1996,0.006 -0.0882,2.31511 -0.0882,2.3151 -0.0544,-2.3151 z m 36.0243,-47.02968 c 0,-1.38245 0.0446,-1.948 0.0991,-1.25677 0.0545,0.69122 0.0545,1.82232 0,2.51354 -0.0545,0.69122 -0.0991,0.12568 -0.0991,-1.25677 z m 44.18542,0 c 0,-1.38245 0.0446,-1.948 0.0991,-1.25677 0.0545,0.69122 0.0545,1.82232 0,2.51354 -0.0545,0.69122 -0.0991,0.12568 -0.0991,-1.25677 z m -32.63913,-48.9177 c 0,-3.81158 -1.84529,-6.12587 -5.31518,-6.66608 -2.04903,-0.31901 -29.68675,-0.19447 -30.61861,0.13797 l -0.61191,0.21829 0.0828,-8.700299 0.0827,-8.700303 0.9492,-1.984375 c 1.53349,-3.205874 4.09819,-5.339656 7.51747,-6.254392 2.03826,-0.545281 84.93842,-0.517677 87.51897,0.02914 4.313315,0.913992 7.720174,4.292893 8.624155,8.553377 0.195339,0.920631 0.297492,5.531466 0.297492,13.427602 v 12.02552 h -3.704166 -3.704171 v -2.06922 c 0,-3.77096 -1.81628,-6.11686 -5.15937,-6.66382 -2.07775,-0.33993 -27.55559,-0.33993 -29.63333,0 -3.34309,0.54696 -5.15938,2.89286 -5.15938,6.66382 v 2.06922 h -10.58333 -10.58333 z m -17.50304,-13.685609 c 3.83827,-1.912689 3.94103,-7.598738 0.17283,-9.56276 -2.84686,-1.483807 -6.12948,-0.450011 -7.5763,2.386007 -0.43072,0.844285 -0.52686,1.432545 -0.44477,2.721689 0.13881,2.179996 1.0031,3.508687 2.89588,4.451897 1.78966,0.891826 3.16729,0.892706 4.95236,0.0032 z m 30.35404,0.190005 c 3.98524,-1.810056 4.26101,-7.50167 0.47108,-9.722717 -3.30388,-1.9362 -7.46553,0.07489 -8.17443,3.950234 -0.56278,3.076568 2.20217,6.261668 5.43568,6.261668 0.65484,0 1.6753,-0.220133 2.26767,-0.489185 z m 30.77106,-0.193172 c 1.89278,-0.94321 2.75707,-2.271901 2.89588,-4.451897 0.27918,-4.3845 -4.08126,-7.161163 -8.02107,-5.107696 -3.07683,1.603672 -3.75232,6.044339 -1.29381,8.505502 1.80524,1.80719 4.13876,2.190387 6.419,1.054091 z m -88.60123,-14.470061 c 0,-0.04554 0.38696,-0.432488 0.8599,-0.859896 l 0.85989,-0.777105 -0.7771,0.859895 c -0.72437,0.801544 -0.94269,0.981512 -0.94269,0.777106 z"
         id="path16773" />
      <path
         style="fill:#f87276;stroke-width:0.264583"
         d="m -207.16407,136.14817 c -1.62846,-0.86226 -2.87334,-2.81076 -2.87334,-4.49737 0,-0.967 0.62043,-2.47014 1.37367,-3.32804 1.65875,-1.8892 -3.4803,-1.73526 57.00955,-1.70781 52.855396,0.024 54.674989,0.041 55.60933,0.52019 3.457088,1.77305 3.740293,6.54947 0.514893,8.68398 l -1.097757,0.72647 -54.788086,0.0555 c -53.58906,0.0543 -54.80911,0.0444 -55.74826,-0.45291 z"
         id="path16771" />
      <path
         style="fill:#47b4d6;stroke-width:0.264583"
         d="m -204.15338,206.59433 c 3.01955,-0.0425 7.96065,-0.0425 10.9802,0 3.01956,0.0424 0.54901,0.0772 -5.4901,0.0772 -6.03912,0 -8.50966,-0.0347 -5.4901,-0.0772 z m 94.19166,0 c 3.01955,-0.0425 7.96065,-0.0425 10.980205,0 3.019557,0.0424 0.54901,0.0772 -5.490105,0.0772 -6.03911,0 -8.50966,-0.0347 -5.4901,-0.0772 z m -94.05937,-12.96018 c 0.61846,-0.0557 1.63049,-0.0557 2.24895,0 0.61847,0.0557 0.11245,0.10128 -1.12447,0.10128 -1.23693,0 -1.74295,-0.0456 -1.12448,-0.10128 z m 105.762504,-28.51356 c 1.3e-5,-15.71625 0.03186,-22.10673 0.07078,-14.20106 0.03892,7.90566 0.03891,20.76441 -2.1e-5,28.57499 -0.03893,7.81059 -0.07077,1.34232 -0.07076,-14.37393 z m -53.771884,3.12491 c 0.25466,-0.0666 0.67138,-0.0666 0.92604,0 0.25466,0.0666 0.0463,0.121 -0.46302,0.121 -0.50932,0 -0.71768,-0.0545 -0.46302,-0.121 z m -57.47759,-65.63272 c 0.002,-9.262647 0.0862,-12.415291 0.35705,-13.427602 1.14514,-4.280499 4.60006,-7.518864 8.88955,-8.33235 0.7732,-0.146634 3.62199,-0.255962 6.33065,-0.24295 4.4293,0.02128 4.80502,0.05705 3.7342,0.355483 -3.31855,0.924872 -5.87904,3.086738 -7.38518,6.235442 l -0.9492,1.984375 v 8.800317 c 0,7.962275 -0.0418,8.813595 -0.43862,8.939775 -0.77487,0.24636 -2.55492,2.41274 -2.84711,3.46502 -0.15576,0.56094 -0.28386,1.76403 -0.28467,2.67353 l -0.001,1.65365 h -3.70417 -3.70417 l 0.003,-12.10469 z m 47.13447,8.66511 c 0,-0.36381 0.0601,-0.51264 0.13345,-0.33073 0.0734,0.1819 0.0734,0.47955 0,0.66145 -0.0734,0.18191 -0.13345,0.0331 -0.13345,-0.33072 z m 22.97697,-3.3073 c 0.34178,-0.3638 0.68094,-0.66145 0.7537,-0.66145 0.0728,0 -0.14734,0.29765 -0.48911,0.66145 -0.34178,0.36381 -0.68094,0.66146 -0.7537,0.66146 -0.0728,0 0.14734,-0.29765 0.48911,-0.66146 z m 36.49247,-0.0661 -0.64143,-0.72761 0.72761,0.64144 c 0.68005,0.59951 0.84894,0.81377 0.64143,0.81377 -0.0474,0 -0.37482,-0.32742 -0.72761,-0.7276 z m -61.25615,-0.13229 -0.50402,-0.59532 0.59531,0.50403 c 0.55944,0.47366 0.71576,0.6866 0.50403,0.6866 -0.0502,0 -0.3181,-0.26789 -0.59532,-0.59531 z m -25.17642,-1.71961 c 3.89268,-0.0412 10.26253,-0.0412 14.15521,0 3.89268,0.0412 0.70776,0.075 -7.07761,0.075 -7.78536,0 -10.97028,-0.0337 -7.0776,-0.075 z m 61.40195,-3e-5 c 3.90292,-0.0413 10.21323,-0.0412 14.02291,7e-5 3.80969,0.0413 0.61639,0.0751 -7.09622,0.075 -7.7126,-5e-5 -10.82961,-0.0338 -6.92669,-0.0751 z"
         id="path16769" />
      <path
         style="fill:#394749;stroke-width:0.264583"
         d="m -205.32747,215.87214 c 0.19099,-0.0764 0.4192,-0.067 0.50711,0.0209 0.0879,0.0879 -0.0684,0.15045 -0.34726,0.13896 -0.30823,-0.0127 -0.37092,-0.0754 -0.15985,-0.15985 z m 7.19524,-0.24074 c -2.37002,-1.02777 -3.17688,-2.59802 -3.17688,-6.18256 v -2.65638 h 6.74687 6.74688 v 1.83906 c 0,2.96699 -0.41906,4.38762 -1.68061,5.69742 -0.68056,0.70659 -1.49959,1.24995 -2.15585,1.43024 -1.55363,0.42682 -5.37529,0.35146 -6.48041,-0.12778 z m 94.3198,-0.0569 c -1.34149,-0.62843 -2.66555,-2.12428 -3.02453,-3.41695 -0.15265,-0.54968 -0.27821,-1.98169 -0.27902,-3.18223 l -0.001,-2.18282 h 6.74687 6.746877 v 2.60422 c 0,3.24826 -0.555313,4.51749 -2.504728,5.72484 -1.158251,0.71735 -1.514192,0.7957 -3.948209,0.8691 -2.18205,0.0658 -2.8707,-0.0109 -3.73579,-0.41616 z m -104.39588,-1.30752 -0.64143,-0.7276 0.72761,0.64143 c 0.68005,0.59952 0.84893,0.81378 0.64143,0.81378 -0.0474,0 -0.37482,-0.32743 -0.72761,-0.72761 z m 92.98416,-5.09323 c 0,-1.38244 0.0446,-1.94799 0.0991,-1.25677 0.0545,0.69123 0.0545,1.82232 0,2.51354 -0.0545,0.69123 -0.0991,0.12568 -0.0991,-1.25677 z m -89.72419,-43.98697 -0.0649,-28.50886 h 53.31354 53.313537 v 28.44271 28.44271 h -51.196877 -51.19687 v -28.31042 -28.31041 h -1.98318 -1.98318 l -0.0686,28.37656 -0.0685,28.37656 z m 55.11823,2.95355 c 4.47954,-0.82058 7.67766,-4.33263 5.50302,-6.0432 -0.9524,-0.74916 -1.76973,-0.68823 -2.79938,0.20869 -1.52121,1.32509 -2.57754,1.73865 -4.44098,1.73865 -1.86344,0 -2.91977,-0.41356 -4.44098,-1.73865 -1.02965,-0.89692 -1.84698,-0.95785 -2.79938,-0.20869 -2.10037,1.65214 0.79452,5.02463 5.12369,5.969 1.88664,0.41156 2.00045,0.41375 3.85401,0.0742 z m -24.44782,-2.89038 0.79672,-0.79673 -0.0895,-2.93133 c -0.0826,-2.70664 -0.13736,-2.97006 -0.7141,-3.43661 -0.92465,-0.74797 -2.25747,-0.66064 -2.92805,0.19187 -0.47804,0.60773 -0.54729,1.05734 -0.53995,3.50573 0.009,2.88358 0.14893,3.35164 1.18221,3.94422 0.85747,0.49177 1.44626,0.36922 2.29264,-0.47715 z m 47.66485,0.48892 c 1.07792,-0.5741 1.22222,-1.03786 1.23096,-3.95599 0.007,-2.44839 -0.0619,-2.898 -0.53995,-3.50573 -0.67058,-0.85251 -2.0034,-0.93984 -2.92805,-0.19187 -0.57674,0.46655 -0.63148,0.72997 -0.7141,3.43661 l -0.0895,2.93133 0.79672,0.79673 c 0.86176,0.86175 1.34583,0.96723 2.24389,0.48892 z m -75.43721,-52.80562 0.0526,-2.0522 0.0913,1.91823 0.0913,1.91823 h 3.95716 3.95716 v -1.68653 c 0,-3.01246 1.24294,-5.19688 3.57187,-6.27747 0.97646,-0.45306 1.90545,-0.4915 12.00785,-0.49686 11.80492,-0.006 12.29064,0.0419 13.91411,1.38012 1.4822,1.22176 2.03269,2.56157 2.0818,5.06686 l 0.0421,2.14617 -19.9099,0.0678 -19.90989,0.0678 z m 61.11799,0.13061 0.0518,-1.91823 0.0925,1.78594 0.0926,1.78594 h 3.92267 3.92267 l 0.12245,-2.05052 c 0.13476,-2.25652 0.71181,-3.68488 1.97183,-4.88076 1.60077,-1.5193 1.74341,-1.53539 13.61107,-1.53539 11.74044,0 12.23512,0.0495 13.85647,1.38593 1.45666,1.2007 2.06335,2.62259 2.20273,5.16251 l 0.11979,2.18281 h -20.00922 -20.00922 z m -56.45767,-6.72918 c 0.19099,-0.0764 0.4192,-0.067 0.50711,0.0209 0.0879,0.0879 -0.0684,0.15046 -0.34726,0.13897 -0.30823,-0.0127 -0.37092,-0.0754 -0.15985,-0.15985 z m 61.11874,0 c 0.191,-0.0764 0.4192,-0.067 0.50712,0.0209 0.0879,0.0879 -0.0684,0.15046 -0.34726,0.13897 -0.30823,-0.0127 -0.37092,-0.0754 -0.15986,-0.15985 z"
         id="path16767" />
      <path
         style="fill:#323d3f;stroke-width:0.264583"
         d="m -204.88099,215.92284 c -0.14552,-0.0485 -0.58982,-0.15992 -0.98733,-0.24752 -1.01953,-0.22465 -2.58089,-1.67597 -3.14943,-2.92746 -0.35295,-0.77691 -0.48338,-1.71524 -0.48764,-3.508 l -0.006,-2.4474 h 4.10104 4.10105 v 2.65638 c 0,3.58454 0.80686,5.15479 3.17688,6.18256 0.88179,0.3824 0.75435,0.40028 -2.78001,0.39024 -2.03729,-0.006 -3.82323,-0.0502 -3.96875,-0.0988 z m 93.41321,-0.26475 c -2.73932,-0.97584 -3.57682,-2.41428 -3.58282,-6.15365 l -0.004,-2.71198 h 3.96875 3.96875 l 0.002,2.18282 c 7.9e-4,1.20054 0.12636,2.63255 0.27901,3.18223 0.36118,1.30061 1.69064,2.79595 3.02453,3.40193 l 1.0606,0.48182 -3.83645,-0.006 c -2.60911,-0.004 -4.17015,-0.12468 -4.8795,-0.37737 z m -93.28092,-50.40521 v -28.31041 h 1.98438 1.98437 v 28.31041 28.31042 h -1.98437 -1.98438 z m 2.95024,-52.87049 c 0.11113,-2.80633 0.786,-4.07408 2.79853,-5.25707 1.22184,-0.71822 1.39963,-0.74469 5.49602,-0.81847 l 4.23334,-0.0762 -1.05834,0.50695 c -2.34358,1.12261 -3.57187,3.28677 -3.57187,6.29338 v 1.68653 h -3.99508 -3.99507 z m 61.11875,0 c 0.11113,-2.80633 0.786,-4.07408 2.79852,-5.25707 1.22309,-0.71894 1.39549,-0.74447 5.49603,-0.81378 4.03865,-0.0683 4.19075,-0.0524 3.30729,0.34533 -2.27122,1.02243 -3.46971,2.99602 -3.6497,6.01008 l -0.12245,2.05052 h -3.96108 -3.96109 z"
         id="path16765" />
    </g>
    <g
       id="g5076"
       transform="matrix(0.42129659,0,0,0.42129659,104.22704,-19.248854)">
      <g
         id="g17443">
        <g
           id="g84"
           transform="matrix(-0.2540405,0.06938674,-0.06938674,-0.2540405,159.82039,524.60391)">
          <path
             style="fill:#f2f4e5"
             d="m 118.23888,510.66513 c -15.43335,-5.59721 -19.53042,-25.52035 -7.58046,-36.86208 6.49904,-6.16825 -1.74605,-14.51265 146.77475,-14.51265 148.5208,0 148.05214,12.07709 154.55118,18.24534 12.18912,11.56871 4.45213,28.58108 -11.37443,33.32283 -5.54962,1.6627 -277.76679,1.47639 -282.37104,-0.19344 z M 426.69052,420.5 V 402 l 26.86993,0.20929 1.22305,0.86346 2.76347,2.37704 c 2.74805,2.36377 2.76348,2.44794 2.76348,15.07323 v 12.69619 l -3.46223,2.8904 C 453.52359,438.88514 449.16672,439 439.28777,439 h -12.59725 z"
             id="path94"
             sodipodi:nodetypes="ssssssccccsscsscc" />
          <path
             style="fill:#d6d8cb"
             d="m 394.76112,510.66513 c 18.6789,-6.77428 18.37541,-34.71145 0.13913,-42.61048 -3.31083,-1.43408 -2.52713,-1.52436 14.5,-1.67031 9.9,-0.0849 18.9,-0.0768 20,0.0178 4.58053,0.3942 10.18787,4.09876 14.27803,7.86894 9.67869,8.9215 9.11998,23.97959 -1.20552,32.49074 -5.62182,4.63398 -9.30429,5.24543 -31.08878,5.16208 -16.53774,-0.0633 -19.33517,-0.27511 -16.62286,-1.25879 z M 125.4768,387.5 c -7e-5,-44.55 0.12269,-62.92107 0.27281,-40.82459 0.15012,22.09647 0.15018,58.54647 1.4e-4,81 C 125.5997,450.12893 125.47687,432.05 125.4768,387.5 Z M 453,436.21072 l 3.5,-2.99151 v -12.69619 c 0,-12.67145 -0.005,-12.70089 -2.80576,-15.1096 L 451.43282,403 h 9.82433 c 10.26372,0 10.3984,0.031 13.30576,3.0646 2.87827,3.00322 2.93709,3.28049 2.93709,13.84383 0,16.58998 -1.50081,18.20772 -17.5,18.86345 l -11.74423,0.0415 z"
             id="path92"
             sodipodi:nodetypes="ssscsssssssssccsccsssscc" />
          <path
             style="fill:#4bc6b2"
             d="M 126,387.78031 V 307.55416 L 85.121231,266.52708 C 62.637909,243.96219 43.14386,223.7 41.801124,221.5 c -14.527071,-23.80181 -5.95115,-53.91475 18.844521,-66.16943 6.380208,-3.15327 8.469741,-3.6676 16.635182,-4.09471 16.216856,-0.84825 24.488383,2.5844 38.206663,15.85558 5.06477,4.89971 9.44973,8.90856 9.74435,8.90856 0.29461,0 0.76911,-10.4625 1.05443,-23.25 0.5634,-25.25054 1.31371,-30.2824 7.27081,-48.76093 12.20904,-37.871552 39.79289,-69.654289 76.33064,-87.949886 10.57218,-5.293821 29.12887,-11.505057 39.82699,-13.3307615 7.36169,-1.2563194 12.44478,-2.15893073 19.42163,-0.6388779 29.78293,6.4888349 74.93668,20.4261194 95.45819,40.2928684 21.65624,20.965281 35.66395,45.88244 43.36452,77.137587 l 2.2174,9 0.31146,169.25 L 410.79937,467 277.25,467.75323 126,468.00645 Z"
             id="path90"
             sodipodi:nodetypes="ccssssssssssssscccccc" />
          <path
             style="fill:#29ab91"
             d="m 386.73325,297.75 -0.31146,-169.25 -2.2174,-9 C 373.27125,75.124468 347.68669,40.613076 310.13716,19.58961 295.40354,11.340462 283.88555,7.1454984 262.5,2.2396947 c -7.27749,-1.66944153 13.89967,-2.69491333 27.39614,-1.3266161 21.17749,2.1470151 34.5137,5.8279532 52.83333,14.5825724 41.86651,20.007248 70.64028,56.397887 82.5601,104.415049 2.12753,8.57041 2.1329,8.96158 2.44368,177.8393 L 428.04471,467 h -20.5 -20.5 z"
             id="path88" />
          <path
             style="fill:#3a494b"
             d="m 271.22624,246.87237 c -6.66348,-1.09011 -14.13849,-4.85128 -18.69281,-9.40561 -5.02755,-5.02755 -4.77206,-10.25776 0.63773,-13.05527 3.40386,-1.7602 6.26713,-1.15232 9.82884,2.08669 4.08694,3.71666 8.59225,5.50182 13.88524,5.50182 6.2398,0 8.91699,-1.00944 13.61347,-5.13301 4.65179,-4.08433 9.78259,-4.47277 12.63013,-0.95621 4.03297,4.98051 1.64281,10.50601 -6.85982,15.85841 -7.84436,4.93801 -15.95254,6.59028 -25.04278,5.10318 z M 192,239.28056 c -4.47356,-1.61506 -5,-3.17129 -5,-14.78056 0,-9.40509 0.27915,-11.43515 1.75,-12.72673 4.1983,-3.6866 10.01272,-2.78422 12.13973,1.88405 0.61065,1.34023 1.11027,6.44052 1.11027,11.33397 0,7.82672 -0.27071,9.19495 -2.25,11.37213 -2.43145,2.67454 -5.36424,3.77846 -7.75,2.91714 z m 165.01971,-0.57215 c -4.12586,-2.0757 -5.11613,-5.28043 -4.8038,-15.54617 0.26863,-8.82959 0.43678,-9.46903 3.08985,-11.75 3.71652,-3.19526 6.21826,-3.04207 9.86436,0.60404 3.00905,3.00904 3.01545,3.04015 2.67308,12.97422 -0.28861,8.37413 -0.6613,10.26353 -2.3432,11.87922 -2.80182,2.69152 -5.58545,3.29506 -8.48029,1.83869 z"
             id="path86" />
        </g>
      </g>
    </g>
    <g
       id="g10950"
       transform="translate(117.16057,-36.131291)" />
  </g>
</svg>
