<?xml version="1.0" encoding="UTF-8" standalone="no"?>
<!-- Created with Inkscape (http://www.inkscape.org/) -->

<svg
   version="1.1"
   id="svg2"
   width="396.82956"
   height="512"
   viewBox="0 0 396.82956 512"
   sodipodi:docname="landing_kovasz.svg"
   inkscape:version="1.1.2 (b8e25be833, 2022-02-05)"
   xmlns:inkscape="http://www.inkscape.org/namespaces/inkscape"
   xmlns:sodipodi="http://sodipodi.sourceforge.net/DTD/sodipodi-0.dtd"
   xmlns="http://www.w3.org/2000/svg"
   xmlns:svg="http://www.w3.org/2000/svg">
  <defs
     id="defs6" />
  <sodipodi:namedview
     id="namedview4"
     pagecolor="#ffffff"
     bordercolor="#666666"
     borderopacity="1.0"
     inkscape:pageshadow="2"
     inkscape:pageopacity="0.0"
     inkscape:pagecheckerboard="0"
     showgrid="false"
     inkscape:zoom="0.32"
     inkscape:cx="276.5625"
     inkscape:cy="193.75"
     inkscape:window-width="1920"
     inkscape:window-height="1009"
     inkscape:window-x="-8"
     inkscape:window-y="-8"
     inkscape:window-maximized="1"
     inkscape:current-layer="g8"
     fit-margin-top="0"
     fit-margin-left="0"
     fit-margin-right="0"
     fit-margin-bottom="0" />
  <g
     inkscape:groupmode="layer"
     inkscape:label="Image"
     id="g8"
     style="display:inline"
     transform="translate(1085.6404,29.125605)">
    <g
       id="g8755">
      <g
         id="g120"
         transform="matrix(1.0022486,0,0,1.0022486,-1488.5443,-225.15892)">
        <path
           id="rect6957"
           style="fill:#ffffff;fill-opacity:1;stroke-width:0.92103"
           d="m 632.3496,201.76182 c -80.13213,0.0443 -146.26764,19.01753 -150.8496,43.27639 h -0.5235 v 377.77547 c -0.2047,0.73335 -0.35121,1.46809 -0.4394,2.20358 -0.003,25.35099 70.15369,53.05297 153.75651,53.053 83.60286,-10e-6 118.00401,-33.19045 118.00401,-33.19045 l 27.80757,-50.84813 2.78151,-342.17727 c 0.48922,-1.39211 0.76814,-2.79028 0.8359,-4.19012 0.003,-25.35099 -67.7702,-45.90244 -151.373,-45.90247 z"
           sodipodi:nodetypes="cccccsccccc" />
        <path
           style="fill:#ffeeaa;fill-opacity:1"
           d="m 598,652.8695 c -21.0868,-2.14527 -52.00808,-9.48492 -63.88904,-15.16506 L 529.5,635.5 l -0.0399,-8 c -0.0453,-9.06984 -2.14084,-14.37072 -7.44564,-18.83442 -3.023,-2.54369 -4.64203,-3.00546 -14.42756,-4.11497 -2.70223,-0.30639 -6.30223,-1.36702 -8,-2.35695 -3.04675,-1.7765 -3.09055,-1.91692 -3.37191,-10.81006 -0.32591,-10.30177 -0.2813,-10.37861 8.7688,-15.10645 3.46751,-1.81144 6.59084,-4.44142 8.49918,-7.15666 2.77092,-3.94253 3.01708,-4.97222 3.01708,-12.62049 0,-7.64827 -0.24616,-8.67796 -3.01708,-12.62049 -1.90834,-2.71524 -5.03167,-5.34522 -8.49918,-7.15666 C 495.03321,531.52462 496,538.4667 496,472.21496 V 413.7399 l 4.30212,0.48491 c 2.36616,0.2667 6.1878,1.7328 8.49253,3.25799 5.6444,3.73529 12.14117,3.26746 17.81448,-1.28281 12.30853,-9.87204 30.95072,-7.49606 39.17435,4.99284 1.49409,2.269 4.35108,5.85385 6.34887,7.96632 5.37067,5.67895 9.03476,5.38662 19.73783,-1.57471 18.25464,-11.87292 30.83052,-11.1844 44.29026,2.42485 7.74437,7.83039 13.33194,8.63651 18.62039,2.68637 7.03264,-7.91258 9.04848,-9.57301 12.38107,-10.19821 4.77743,-0.89625 10.26109,0.74711 16.8381,5.04608 4.88884,3.19553 6.07642,3.55097 10.6874,3.19866 4.26734,-0.32605 5.90348,-1.04329 9.22479,-4.04389 5.54353,-5.00825 8.15352,-5.47729 14.34832,-2.57852 8.89651,4.16297 16.24582,2.77925 22.90564,-4.31264 3.15683,-3.36165 8.56466,-5.80714 12.84157,-5.80714 6.14674,0 15.14848,6.71446 16.52628,12.32707 0.29338,1.19511 0.40575,39.74793 0.24971,85.67293 -0.28359,83.46389 -0.28465,83.50173 -2.44898,87.5 -2.6,4.80312 -8.54757,10.6307 -13.28949,13.02138 -1.94173,0.97894 -7.08714,2.0242 -11.7487,2.38666 -6.71337,0.52202 -8.71864,1.06962 -10.52251,2.87349 -2.12359,2.12358 -2.85241,6.97191 -1.68312,11.19649 0.56911,2.05615 -15.72312,10.14738 -29.24355,14.52326 -12.81583,4.14784 -31.5858,8.03067 -45.70331,9.45436 -12.05782,1.21599 -45.83678,1.16594 -58.14405,-0.0861 z M 563.36422,631.62118 C 568.51014,629.47108 571,625.58695 571,619.70953 c 0,-9.45605 -7.9951,-15.52561 -16.9263,-12.84976 -5.84868,1.75231 -9.0737,6.12851 -9.0737,12.31258 0,10.3106 8.95426,16.38056 18.36422,12.44883 z m 37.61585,-18.37273 c 4.32285,-2.17188 8.02113,-7.54493 8.01619,-11.64633 -0.0157,-13.0225 -19.3124,-18.33039 -26.11058,-7.18216 -7.11345,11.66524 5.73701,25.03705 18.09439,18.82849 z m 76.86298,-1.9412 c 13.14533,-8.08863 15.92347,-25.47456 5.89174,-36.8712 -5.33834,-6.06468 -10.44876,-8.38589 -18.52463,-8.41409 -14.15611,-0.0494 -24.23769,10.0349 -24.1882,24.1948 0.0137,3.91774 0.71263,7.80373 1.85651,10.32195 2.2942,5.05061 10.00796,11.94535 14.90973,13.32665 6.28034,1.76978 14.78417,0.68507 20.05485,-2.55811 z M 661.5,600.57323 C 649.72914,595.47261 653.13848,579 665.96503,579 c 2.07615,0 4.23226,1.07032 6.68602,3.31902 3.00311,2.75215 3.62168,4.00082 3.62168,7.31094 0,4.67646 -1.47284,7.8274 -4.55791,9.75107 -3.51431,2.19132 -6.97659,2.59541 -10.21482,1.1922 z m 53.46017,-28.20877 C 718.79674,570.09814 721,565.95252 721,561 c 0,-4.95252 -2.20326,-9.09814 -6.03983,-11.36446 -5.94005,-3.50887 -14.92601,-1.34911 -18.32463,4.40429 -3.4597,5.85682 -1.38999,14.78406 4.23726,18.27646 3.39739,2.10849 10.55808,2.13297 14.08737,0.0482 z M 566.03004,540.75 c 13.12275,-6.62941 13.12275,-24.87059 0,-31.5 C 563.58044,508.0125 559.96692,507 558,507 c -4.89942,0 -12.02179,3.80459 -14.71758,7.86175 -6.10598,9.18951 -3.06503,20.9614 6.68754,25.88825 2.4496,1.2375 6.06312,2.25 8.03004,2.25 1.96692,0 5.58044,-1.0125 8.03004,-2.25 z M 555,528 c -1.1,-1.1 -2,-2.45 -2,-3 0,-0.55 0.9,-1.9 2,-3 1.1,-1.1 2.45,-2 3,-2 0.55,0 1.9,0.9 3,2 1.1,1.1 2,2.45 2,3 0,0.55 -0.9,1.9 -2,3 -1.1,1.1 -2.45,2 -3,2 -0.55,0 -1.9,-0.9 -3,-2 z m 133.78492,6.76103 c 2.25749,-1.49394 5.3669,-4.86382 6.9098,-7.48864 5.87174,-9.98912 2.72744,-23.65579 -6.9098,-30.03342 -5.93799,-3.92957 -16.39345,-4.39199 -22.78492,-1.00771 -5.32677,2.82052 -10.51223,9.92217 -11.4958,15.74386 -1.57792,9.33963 3.31179,19.4602 11.4958,23.79362 6.39147,3.38428 16.84693,2.92186 22.78492,-1.00771 z M 672.20557,523.9524 c -1.26194,-0.50645 -2.96995,-2.53757 -3.79558,-4.51359 -1.36919,-3.27692 -1.3433,-3.91566 0.29443,-7.26579 3.34759,-6.84779 12.94328,-6.65378 15.85737,0.32062 3.32015,7.94623 -4.05845,14.78891 -12.35622,11.45876 z M 539.28984,493.88715 c 9.15566,-4.59473 13.72362,-11.97113 13.6882,-22.10391 -0.0282,-8.06877 -2.35117,-13.18124 -8.41409,-18.51803 -11.22878,-9.88397 -28.47577,-7.3579 -36.53563,5.35119 -5.88848,9.28517 -5.00483,20.72052 2.23689,28.94755 2.28655,2.59767 5.97479,5.54858 8.19608,6.55758 5.72183,2.59909 15.39945,2.49019 20.82855,-0.23438 z m -17.94089,-14.20617 c -3.07602,-2.81896 -3.62168,-3.96083 -3.62168,-7.57887 0,-5.33305 2.7086,-9.18166 7.61974,-10.82679 12.13642,-4.06544 20.16003,13.17572 9.23268,19.83921 -4.75925,2.90219 -9.00115,2.44258 -13.23074,-1.43355 z m 90.75317,11.03642 c 2.1847,-1.46762 3.92243,-3.78838 4.86705,-6.5 1.29222,-3.70946 1.29222,-4.72534 0,-8.4348 -2.0458,-5.87269 -6.59647,-8.7826 -13.7347,-8.7826 -5.02043,0 -5.78869,0.31893 -9.35212,3.88235 C 590.36131,474.40339 590,475.25193 590,480 c 0,4.74807 0.36131,5.59661 3.88235,9.11765 3.56343,3.56342 4.33169,3.88235 9.35212,3.88235 4.03642,0 6.36017,-0.59815 8.86765,-2.2826 z m 129.85805,0.64706 C 745.79674,489.09814 748,484.95252 748,480 c 0,-7.78985 -5.21015,-13 -13,-13 -7.78985,0 -13,5.21015 -13,13 0,7.79769 5.07766,12.92583 12.84571,12.97339 2.39014,0.0146 5.59164,-0.70938 7.11446,-1.60893 z M 496,556.5 c 0,-9.28502 0.70029,-10.18278 5.13922,-6.58835 1.872,1.51586 2.36078,2.87991 2.36078,6.58835 0,3.70844 -0.48878,5.07249 -2.36078,6.58835 C 496.70029,566.68278 496,565.78502 496,556.5 Z"
           id="path128" />
        <path
           style="fill:#007e8f"
           d="m 614.5,690.33975 c -75.04935,0 -130.09943,-28.23349 -136.69642,-62.15791 -0.69405,-3.56912 -2.35974,-9.41493 -4.46144,-12.3238 -1.84463,-2.55309 -4.58873,-7.27809 -6.098,-10.5 L 464.5,599.5 l -0.26502,-126.78915 -0.26501,-127.7723 8.76501,0.28915 8.76502,0.28915 0.5,125.98315 0.5,125 2.74901,4.67638 C 490.40404,609.94568 499.3654,615 509.75842,615 515.34113,615 520,619.09408 520,624 c 0,2.1525 -0.92808,4.08193 -2.92308,6.07692 -2.46781,2.46781 -3.71869,2.92308 -8.03138,2.92308 -6.06792,0 -7.53181,1.89748 -3.90343,5.05954 4.4487,3.87696 16.00855,11.1342 22.18163,13.92557 28.03622,12.67752 65.33539,18.82237 107.5856,17.72416 38.96653,-1.01285 71.03318,-7.85397 95.09066,-20.28672 9.63132,-4.9774 20.31901,-12.95837 19.73364,-14.73598 -0.23095,-0.70136 -3.31316,-1.39103 -7.53738,-1.68657 -8.80988,-0.61636 -11.65081,-2.81092 -11.65081,-9 0,-6.37693 2.70972,-8.31117 12.73541,-9.09074 5.31113,-0.41297 9.70135,-1.37776 12.2487,-2.69174 4.65976,-2.40362 10.48329,-8.27479 13.11026,-13.21752 1.78085,-3.35074 1.87149,-8.84204 2.12536,-128.76465 l 0.26518,-125.26466 -2.76518,-6.47321 C 766.74433,334.93722 765.275,332.15339 765,332.3112 c -10.14263,5.82031 -31.29618,13.31732 -48.21195,17.08677 -27.4267,6.11167 -53.51115,8.57774 -90.87744,8.59171 -56.10702,0.021 -103.14377,-8.01188 -132.01923,-22.54605 -3.63475,-1.82951 -7.00975,-2.51854 -7.5,-2.13199 -0.49026,0.38655 -5.01796,0.55416 -10.06156,0.37246 l -9.17018,-0.33036 1.42018,-3.89054 c 1.70458,-4.66964 1.75665,-8.12489 -0.60178,-13.3224 C 466.89012,313.74323 466,311.38073 466,310.8908 466,310.40086 470.72396,310 476.49769,310 c 10.41029,0 10.53839,0.0292 15.38792,3.51328 35.37371,25.41348 139.39902,34.78503 215.60143,19.42333 30.99557,-6.24842 55.02568,-16.93997 61.45493,-27.34271 C 770.80337,302.58208 771,300.67491 771,285.63197 771,276.48438 770.76217,269 770.47148,269 c -0.29068,0 -3.16479,1.33079 -6.38691,2.95731 -19.63157,9.90999 -54.0229,17.86113 -93.02195,21.50631 -19.23603,1.79797 -65.55818,2.06224 -84.75815,0.48356 C 546.41496,290.66734 509.89996,282.4483 488.87639,272.01741 485.53149,270.35784 482.61593,269 482.39738,269 482.17882,269 482,275.3 482,283 v 14 h -9 -9 l -0.25,-13.75 c -0.45213,-24.86703 0.29706,-42.45471 1.95976,-46.0067 2.38814,-5.1017 11.31502,-12.53714 21.15099,-17.61722 21.11516,-10.90555 53.70159,-18.7321 94.89797,-22.79242 16.6835,-1.64432 71.9167,-1.65629 88.74128,-0.0192 62.06154,6.03871 105.50374,21.07781 115.86234,40.10998 l 2.76008,5.07117 -0.31121,33.25221 L 788.5,308.5 l -2.75,5.87084 c -3.457,7.38018 -3.45474,11.67543 0.01,18.62916 l 2.74023,5.5 0.29932,126 c 0.21722,91.43801 -0.014,127.63667 -0.84295,131.96667 -1.27214,6.64505 -4.74557,14.16388 -9.0946,19.6868 -1.70372,2.16359 -3.28476,7.79022 -3.877,10.9131 -4.0617,21.41724 -24.77525,38.73264 -60.29888,50.40658 -27.76831,9.12535 -67.59313,12.86659 -100.18589,12.8666 z M 667,275.53392 c 45.92017,-4.05223 80.17055,-12.97117 98.75,-25.71491 2.3375,-1.6033 4.25,-3.52847 4.25,-4.27816 0,-3.88434 -14.45275,-11.8191 -32.05736,-17.59994 -59.44382,-19.5196 -164.17539,-19.42681 -224.39464,0.19882 -11.17846,3.64309 -23.9013,9.81858 -28.548,13.8568 l -3.5,3.04168 4,3.56402 c 13.48273,12.01317 52.50558,22.687 98,26.80571 20.56245,1.86157 63.10482,1.92575 83.5,0.12598 z m -83,-11.96961 c -27.77386,-3.17021 -46.70637,-9.59621 -52.4555,-17.80424 -5.30547,-7.57463 3.29768,-15.84371 9.53119,-9.16108 10.01085,10.73212 45.83755,16.35385 95.92431,15.05191 39.14215,-1.01746 59.31666,-5.23982 74.5,-15.59224 3.91532,-2.66957 6.64786,-2.59462 9.32569,0.25579 4.87714,5.19149 1.64166,9.89229 -11.1386,16.18316 -9.9393,4.89245 -18.87762,7.47297 -34.92153,10.08194 -13.85755,2.25343 -73.93996,2.9053 -90.76556,0.98476 z"
           id="path124"
           sodipodi:nodetypes="sssscccccccsssssssssssssssscssssssscsssscsssssssssscccsssssscccsccssssssssssssscssssssssssss" />
        <path
           style="fill:#040402"
           d="m 601.5,705.96945 c -73.07021,-3.12405 -131.11686,-19.81507 -144.56073,-41.56771 -2.6002,-4.20721 -2.89675,-11.67091 -0.63486,-15.97827 2.22571,-4.23846 9.30864,-10.76983 16.08135,-14.82909 l 5.88577,-3.52765 2.72233,5.75636 c 12.15055,25.69234 55.71242,45.27615 114.00614,51.25295 16.57512,1.69943 50.73668,1.41596 67.5,-0.56012 56.67886,-6.68135 97.49264,-25.83488 109.22015,-51.25603 2.39418,-5.18976 2.44318,-5.22679 5.09863,-3.85336 5.78298,2.99103 15.25286,10.74461 17.77166,14.55077 12.86336,19.43785 -11.80506,38.34637 -65.83737,50.46483 -34.37801,7.71036 -83.68798,11.4099 -127.25307,9.54732 z m 3,-324.01093 c -33.67584,-1.53542 -64.8058,-6.85321 -88.18002,-15.06337 -12.3741,-4.34639 -27.45965,-12.29427 -32.35796,-17.04792 l -4.1443,-4.0219 -17.15886,0.71022 c -20.32315,0.8412 -26.41205,-0.0591 -32.09843,-4.74635 -5.80105,-4.78171 -7.51249,-9.52894 -7.53847,-20.91037 l -0.022,-9.62117 -5.25,-0.68191 c -2.8875,-0.37505 -6.86717,-1.74287 -8.84371,-3.03959 C 402.96368,303.63747 402,300.29177 402,283.55903 c 0,-16.86948 1.17854,-20.64199 7.71891,-24.70826 3.64719,-2.26752 4.62464,-2.36246 27.60125,-2.68083 13.10109,-0.18154 25.86092,-0.12729 26.50983,0.12056 -0.0729,4.72578 -0.11716,8.86822 -0.15632,13.67305 L 439.6655,270.23178 416.5,270.5 v 13 13 l 3.25,0.31336 3.25,0.31336 v -5.3748 c 0,-8.54781 5.4445,-12.45157 11.04317,-7.91805 1.72877,1.39988 2.37593,3.17478 2.73461,7.5 L 437.24766,297 H 459.62383 482 v -7.57792 -7.57793 l 4.25,3.66084 c 9.25327,7.97051 30.66377,16.26919 55.25,21.41483 81.13564,16.98082 192.72376,5.84756 226.53352,-22.60148 L 771,281.82221 v 8.98766 8.98765 l -8.75,4.50095 c -30.2461,15.55842 -77.71344,23.87806 -136.25,23.88066 -44.46991,0.002 -80.8657,-4.55121 -110,-13.76121 -11.03491,-3.48837 -21.32519,-4.20766 -53.38686,-3.73173 l -25.88686,0.38427 0.18991,9.21477 c 0.27467,13.32814 -1.23473,12.59693 26.37576,12.77738 l 22.79195,0.14896 4.87868,4.75198 c 25.80755,25.13734 116.48892,37.8507 193.03742,27.0635 36.02862,-5.07715 63.81828,-14.61066 76.57539,-26.26994 l 5.62256,-4.90751 2.49057,5.35003 c 1.36981,2.94251 2.49497,6.1074 2.50034,7.03308 0.0127,2.17997 -6.96537,7.62286 -15.18886,12.09515 -18.03074,9.8059 -45.03617,17.18995 -77.50537,21.19217 -11.2386,1.38529 -49.15394,3.64117 -55.49463,3.3018 -1.375,-0.0736 -9.7,-0.46208 -18.5,-0.86331 z"
           id="path122"
           sodipodi:nodetypes="sssscssssssssssscssscsssssccccccccssscccccssscccsssscsscssscssssss" />
      </g>
      <path
         style="display:inline;fill:#3e494a;stroke:none;stroke-width:0.264583"
         d="m 96.724719,44.712985 c -2.07962,0.87842 -1.86134,9.49616 1.54702,7.91078 2.380191,-1.10702 2.105031,-9.4533 -1.54702,-7.91078 m 48.418751,0.0757 c -2.12989,1.18613 -1.65576,9.48955 1.80764,7.83511 2.12883,-1.0168 1.78699,-9.83748 -1.80764,-7.83511 m -29.92173,3.89705 c -2.85908,1.04775 -0.40613,4.00447 1.05331,4.94585 2.7903,1.80023 6.75957,2.03968 9.78958,0.70697 1.64518,-0.72337 6.30317,-5.44803 1.85182,-5.76421 -2.32621,-0.1651 -3.90842,2.80273 -6.61432,2.50692 -2.03358,-0.22251 -4.15819,-3.10012 -6.08039,-2.39553 z"
         id="path1891"
         transform="matrix(3.7737525,0,0,3.7737525,-1297.3466,133.53255)" />
    </g>
  </g>
</svg>
