<?xml version="1.0" encoding="UTF-8" standalone="no"?>
<!-- Created with Inkscape (http://www.inkscape.org/) -->

<svg
   width="307.42453mm"
   height="284.06549mm"
   viewBox="0 0 307.42453 284.06549"
   version="1.1"
   id="svg5"
   inkscape:version="1.1.2 (b8e25be833, 2022-02-05)"
   sodipodi:docname="landing_hozzavalok.svg"
   xmlns:inkscape="http://www.inkscape.org/namespaces/inkscape"
   xmlns:sodipodi="http://sodipodi.sourceforge.net/DTD/sodipodi-0.dtd"
   xmlns="http://www.w3.org/2000/svg"
   xmlns:svg="http://www.w3.org/2000/svg">
  <sodipodi:namedview
     id="namedview7"
     pagecolor="#ffffff"
     bordercolor="#666666"
     borderopacity="1.0"
     inkscape:pageshadow="2"
     inkscape:pageopacity="0.0"
     inkscape:pagecheckerboard="0"
     inkscape:document-units="mm"
     showgrid="false"
     fit-margin-top="0"
     fit-margin-left="0"
     fit-margin-right="0"
     fit-margin-bottom="0"
     inkscape:zoom="0.5"
     inkscape:cx="639"
     inkscape:cy="692"
     inkscape:window-width="1920"
     inkscape:window-height="1009"
     inkscape:window-x="-8"
     inkscape:window-y="-8"
     inkscape:window-maximized="1"
     inkscape:current-layer="layer2" />
  <defs
     id="defs2" />
  <g
     inkscape:groupmode="layer"
     id="layer2"
     inkscape:label="Layer 2"
     transform="translate(133.48715,173.57203)"
     style="display:inline">
    <path
       style="fill:#ffffff;stroke:none;stroke-width:0.264583px;stroke-linecap:butt;stroke-linejoin:miter;stroke-opacity:1"
       d="m 83.625721,9.1762634 -34.635262,56.8508486 4.5e-5,6.517006 11.085144,24.907764 57.468112,2.221706 12.6131,-22.686058 -9.52513,-39.151389 z"
       id="path32379" />
    <path
       style="display:inline;fill:#ffffff;stroke:none;stroke-width:0.196437px;stroke-linecap:butt;stroke-linejoin:miter;stroke-opacity:1"
       d="m 138.46562,-10.785412 -25.71456,42.208259 3e-5,4.838476 8.23004,18.492483 42.66654,1.64948 9.36445,-16.843002 -7.07182,-29.0675 z"
       id="path32379-6" />
    <path
       style="display:inline;fill:#ffffff;stroke:none;stroke-width:0.170588px;stroke-linecap:butt;stroke-linejoin:miter;stroke-opacity:1"
       d="m 44.660842,-22.521238 -22.330834,36.654173 2.9e-5,4.201793 7.147066,16.0591 37.052149,1.432429 8.132205,-14.626672 -6.141259,-25.2425744 z"
       id="path32379-1" />
    <g
       id="g247"
       transform="translate(52.569506,96.18409)"
       inkscape:export-filename="C:\Users\adici\Documents\Git\Docusaurus\docs\img\flour.png"
       inkscape:export-xdpi="24.019777"
       inkscape:export-ydpi="24.019777">
      <path
         style="fill:#f2f4e5;stroke-width:0.264583"
         d="m -153.76044,-92.862797 c 0.35794,-0.47294 1.98257,-4.19791 4.03861,-7.051156 3.94448,-5.473937 6.3618,-7.442787 9.09783,-9.104837 2.47842,-1.50556 4.03247,-2.43191 9.93059,-3.86624 2.99038,-0.72721 6.19327,-1.52724 7.11753,-1.95308 2.8746,-1.32441 8.71887,-4.70617 8.53848,-4.88657 -0.0944,-0.0944 0.99542,0.25825 1.85718,0.60842 2.38289,0.96825 4.36941,1.40372 8.57344,1.8794 4.47221,0.50602 5.990643,0.76952 7.805208,1.35448 2.090526,0.67391 5.157057,2.35582 6.800067,3.72964 1.203648,1.00645 12.93006,13.641073 18.039836,19.02536 l 1.067149,1.124479 h -41.75836 -41.75837 z"
         id="path261"
         sodipodi:nodetypes="ssssssssssscccs" />
      <path
         style="fill:#d6d8cb;stroke-width:0.264583"
         d="m -170.48802,-91.892822 c 0,-0.190902 7.17066,-11.175178 8.44906,-12.760818 1.49943,-1.8598 4.18488,-3.92494 6.79309,-5.22398 1.90738,-0.94998 3.61763,-1.49688 8.20209,-2.62283 6.12649,-1.50468 6.55849,-1.67787 14.02771,-5.6238 4.11954,-2.17632 6.49845,-2.79946 10.68221,-2.79816 2.34961,7.3e-4 3.8436,0.14113 5.15937,0.48486 3.24275,0.84714 3.26776,0.75739 -0.83292,2.98947 -5.60262,3.04963 -6.60916,3.44217 -12.48921,4.87069 -6.09293,1.48024 -8.15127,2.24543 -10.79915,4.01457 -2.6814,1.79153 -4.12993,3.41671 -8.77233,9.842111 l -4.20559,6.840302 -8.10717,0.06997 c -4.45894,0.03848 -8.10716,0.0014 -8.10716,-0.08238 z"
         id="path259"
         sodipodi:nodetypes="ssssssssssscsss" />
      <path
         style="fill:#fbc873;stroke-width:0.264583"
         d="m -133.18178,14.229656 c -9.30552,-0.267904 -20.07585,-0.954214 -26.59062,-1.694418 -1.30969,-0.148804 -3.47728,-0.468756 -3.86697,-0.497617 -0.38969,-0.02886 -0.49342,-0.375576 -0.45077,-0.453845 -0.0721,-24.133749 -16.85309,-58.262657 -11.19649,-78.564034 35.45168,-8.799688 72.59117,2.154775 106.483582,5.134404 2.29806,-0.307084 2.091749,-0.539669 3.570102,0.828268 0.543558,0 2.319796,7.466832 3.084063,12.964582 1.606965,11.559688 1.814933,24.936759 0.623845,40.1274688 l -0.314566,4.0118451 1.900738,2.0352913 c 4.314579,4.6200084 5.491943,9.7677203 2.907313,12.7114508 -1.668434,1.900237 -5.309698,1.895657 -9.623494,-0.01212 -1.159134,-0.512625 -1.591669,-0.58456 -2.293765,-0.381476 -4.577037,1.323927 -16.74151,2.730132 -29.572549,3.418564 -5.198599,0.278927 -29.011769,0.534244 -34.660419,0.371623 z"
         id="path257"
         sodipodi:nodetypes="sssccccsscsssssss" />
      <path
         style="fill:#e5b05a;stroke-width:0.264583"
         d="m -183.05573,11.774384 c -4.33648,-1.9913206 -3.56737,-8.138488 1.73789,-13.8901405 l 1.7379,-1.8841243 -0.32574,-3.5718748 c -1.53557,-16.8379584 -0.84109,-35.2614184 1.78027,-47.2281224 0.67628,-3.08727 1.69901,-6.600672 1.92028,-6.600672 0.0958,0 0.65964,0.234587 1.25308,0.521306 1.86944,0.903213 3.22231,1.053086 9.56591,1.059725 5.18441,0.0054 6.15699,0.06609 6.03783,0.376626 -0.38006,0.990409 -1.94306,7.685464 -2.52017,10.860723 -2.20604,12.137641 -3.12529,27.404664 -2.57726,42.803485 0.29859,8.3897863 0.65214,14.4837275 0.97615,16.825414 l 0.14164,1.023694 -1.45543,-0.181845 c -0.80049,-0.100015 -3.09612,-0.515295 -5.1014,-0.922843 l -3.64595,-0.740997 -1.5214,0.630126 c -3.51616,1.456309 -6.17054,1.761268 -8.0036,0.91952 z m 49.2995,-71.402884 c 11.83504,-0.03811 31.12316,-0.0381 42.862499,1.1e-5 11.739334,0.03811 2.056119,0.06929 -21.518259,0.06928 -23.57437,-5e-6 -33.17928,-0.03119 -21.34424,-0.06929 z"
         id="path255"
         sodipodi:nodetypes="sscssssssssscsscssssss" />
      <path
         style="fill:#f98b49;stroke-width:0.264583"
         d="m -158.38712,-59.781405 c -0.78929,-0.157857 1.27662,-0.175882 1.05834,-0.201023 -0.95766,-0.110302 -3.45598,-1.219004 -4.52691,-2.288776 -0.64109,-0.640392 -1.58483,-2.064275 -2.03217,-3.011573 l -0.83469,-1.76758 0.30251,-8.53447 c -0.0675,-7.236462 -0.0143,-8.781481 0.34673,-10.054166 0.88381,-3.115836 1.35944,-5.567047 4.39151,-6.489364 -39.57,-0.698355 37.99355,-0.399675 39.7292,-0.394653 0,0 46.370647,0.344075 49.05808,0.520109 4.086671,0.453376 8.473624,2.994769 9.274922,4.416988 0.872143,2.485493 1.13238,6.45345 0.94123,11.614515 0,4.047086 0.239746,7.853734 -1.575788,11.20227 -1.010333,1.863439 -2.616255,3.419197 -4.474242,4.334481 -1.203086,0.592669 -1.452673,0.609304 -10.097121,0.672981 -20.741951,0.152791 -80.246931,0.243196 -81.561591,-0.01974 z"
         id="path253"
         sodipodi:nodetypes="sssscccccccccssss" />
      <path
         style="fill:#e66c23;stroke-width:0.264583"
         d="m -172.22243,-59.692503 c -2.03215,-0.298394 -3.6846,-1.152593 -5.22538,-2.701155 -2.80471,-2.81886 -3.20778,-4.847534 -3.02827,-15.241375 0.13618,-7.885239 0.28857,-8.750807 1.93304,-10.980237 1.10244,-1.494589 2.82279,-2.781972 4.56178,-3.413707 1.07447,-0.390329 2.34557,-0.450416 9.31407,-0.440279 4.43838,0.0065 7.77136,0.102515 7.40662,0.213465 -3.03207,0.922317 -5.59443,3.564679 -6.47824,6.680515 -0.36099,1.272685 -0.41427,2.817704 -0.34673,10.054166 l 0.0798,8.550399 0.72356,1.544508 c 1.20635,2.57503 2.75178,4.105851 5.11448,5.066125 l 1.44475,0.58719 -2.02767,0.171402 c -2.63927,0.223099 -11.75188,0.161536 -13.47182,-0.09102 z"
         id="path251" />
      <path
         style="fill:#3b4849;stroke-width:0.264583"
         d="m -122.33386,-21.086849 c -3.62452,-0.438819 -7.67292,-3.177825 -7.67292,-5.191238 0,-0.797746 0.80331,-1.641327 1.7338,-1.820725 0.66805,-0.128797 1.01127,0.01516 1.98438,0.832239 1.84201,1.546685 3.53534,2.227148 5.54224,2.227148 2.0069,0 3.70023,-0.680463 5.54224,-2.227148 0.97311,-0.817089 1.31633,-0.961036 1.98438,-0.832239 0.96705,0.186446 1.7338,1.03074 1.7338,1.909156 0,0.793533 -1.82299,2.819046 -3.29208,3.657801 -2.20591,1.259438 -4.874,1.769695 -7.55584,1.445006 z m -28.93619,-3.172859 c -0.69129,-0.543769 -0.69714,-0.578173 -0.69714,-4.101042 0,-3.199894 0.0525,-3.605217 0.52916,-4.081838 0.73698,-0.736973 2.13185,-0.696454 2.8643,0.0832 0.52847,0.56253 0.57529,0.886497 0.57529,3.980777 0,3.223559 -0.0279,3.396337 -0.64943,4.017841 -0.79367,0.79367 -1.69739,0.8285 -2.62218,0.101062 z m 58.425205,-0.101063 c -0.622247,-0.622245 -0.649433,-0.791993 -0.649433,-4.054919 0,-3.217619 0.03378,-3.437226 0.612365,-3.980778 0.779364,-0.732174 2.119304,-0.754034 2.827218,-0.04612 0.476621,0.476621 0.529167,0.881944 0.529167,4.081838 0,3.522869 -0.0058,3.557273 -0.69714,4.101042 -0.924788,0.727437 -1.828509,0.692607 -2.622177,-0.101063 z"
         id="path249" />
    </g>
    <g
       id="g675"
       transform="matrix(0.74740451,0,0,0.74740451,335.41893,-121.96725)"
       inkscape:export-filename="C:\Users\adici\Documents\Git\Docusaurus\docs\img\salt.png"
       inkscape:export-xdpi="24.082964"
       inkscape:export-ydpi="24.082964">
      <path
         style="fill:#e9e9e9;stroke-width:0.352778"
         d="m -466.49391,98.039842 c -0.38175,-1.042028 4.65014,-69.131566 5.31229,-70.975906 0.66689,-1.857501 5.62524,-4.507518 7.62838,-5.502691 l 1.67957,-0.834421 29.24463,-0.09803 c 32.36785,-0.108499 31.46184,-0.164842 34.49651,2.145192 1.01775,0.774722 1.89847,1.914398 2.65568,3.436543 1.10615,2.223562 3.99064,5.380518 5.05105,16.57471 0.59735,6.305903 1.87724,19.561528 2.8442,29.456944 2.46474,25.223096 1.25994,25.633307 0.33161,26.468134 -8.76263,0 -82.93467,-0.670475 -89.24392,-0.670475 z"
         id="path689"
         sodipodi:nodetypes="csscssssscc" />
      <path
         style="fill:#c6c4ca;stroke-width:0.352778"
         d="m -450.792,-39.272557 c -5.08524,-5.363986 -6.27433,-7.792689 -6.94789,-11.724904 -1.30458,-7.616084 4.73972,-15.607055 12.32586,-17.710629 2.18154,-0.604925 4.17711,-0.337224 28.70495,-0.337224 17.82957,0 26.9654,0.125779 28.22985,0.388659 4.31968,0.898063 8.93187,4.284774 10.78223,7.91735 1.93845,3.805506 2.36213,8.313398 1.14721,12.206136 -0.9036,2.895232 -1.82636,4.238475 -6.72441,9.788558 l -4.29146,4.954577 -28.99294,0.0226 -28.99294,0.0226 z"
         id="path687"
         sodipodi:nodetypes="sssssssscccs" />
      <path
         style="fill:#8fd2ef;stroke-width:0.352778"
         d="m -468.46125,102.48924 c -2.31095,-4.842141 -2.72468,-3.328841 1.33958,-45.238646 1.99945,-20.617879 2.9186,-38.840878 3.1887,-40.391357 1.97061,-11.3119748 2.86124,-23.4935723 12.20213,-30.202617 l 6.33373,-4.549162 29.16095,-0.438194 29.09782,-0.08358 2.52107,4.142358 c 5.82925,9.5780113 11.08274,18.6090313 13.17551,29.011354 1.25327,6.229516 8.06046,76.440816 7.84286,80.893514 -0.14524,2.972128 -0.29804,3.560159 -1.61645,6.22082 -2.37589,4.79472 -6.81971,8.25824 -11.97499,9.33331 -2.82496,0.58911 -79.71777,0.26727 -83.89356,0.26727 -3.84623,-2.51734 -5.07899,-3.97376 -7.37735,-8.96507 z m 89.30752,-6.56251 0.969,-0.833501 -3.09318,-31.815369 c -1.85517,-19.081634 -3.30176,-32.427513 -3.61431,-33.344813 -0.74166,-2.176646 -2.64724,-4.232201 -4.98984,-5.38256 l -2.01939,-0.99164 -29.25114,-0.09614 c -33.12861,-0.108885 -31.60315,-0.221901 -34.71014,2.571541 -3.27204,2.941849 -2.9138,0.892415 -6.3933,36.575047 -1.99847,20.494579 -2.99913,32.144381 -2.80541,32.661102 0.16561,0.441773 0.66062,0.947645 1.1,1.124168 0.46285,0.185949 18.26306,0.330352 42.31879,0.343306 l 41.51991,0.02236 z"
         id="path685"
         sodipodi:nodetypes="cssscccsssssccccssscsssssscc" />
      <path
         style="fill:#58c1e6;stroke-width:0.352778"
         d="m -466.77406,111.04276 c -4.88036,-1.0603 -9.33569,-4.5764 -11.55205,-9.11677 -2.36535,-4.84556 -2.43026,-3.007239 1.55263,-43.971311 1.95254,-20.081874 3.80267,-38.159947 4.1114,-40.173496 1.76651,-11.5212073 6.44647,-22.4275792 13.82929,-32.228352 l 2.75025,-3.666625 h 5.42015 5.42016 l -2.93026,3.907769 c -7.018,9.3591559 -11.57329,19.7529803 -13.54396,31.065262 -0.2701,1.550479 -2.12701,19.688227 -4.12646,40.306106 -3.39055,34.962627 -3.60626,37.656773 -3.20318,40.007345 1.16115,6.771292 6.28787,12.303012 12.88542,13.903332 1.71551,0.41613 1.53038,0.44099 -3.29772,0.44283 -2.99384,0.001 -6.02784,-0.1963 -7.31567,-0.47609 z"
         id="path683"
         sodipodi:nodetypes="ssssscccssssscs" />
      <path
         style="fill:#9f9cac;stroke-width:0.352778"
         d="m -448.69867,-18.562767 c -11.09495,-4.385699 -5.26606,-11.669801 -2.71531,-14.310747 l -4.43617,-0.0077 -4.69302,-6.153201 c -4.46295,-5.851545 -6.41353,-8.016794 -7.04057,-11.734284 -0.80094,-4.748544 0.93789,-10.076145 4.42788,-13.566536 3.55297,-3.553368 7.2143,-4.710275 14.80997,-4.679642 l 4.93889,0.01992 -2.16931,0.620831 c -7.45284,2.132922 -12.45219,9.971638 -11.16231,17.501915 0.67356,3.932215 2.0245,6.211992 6.94789,11.724904 l 4.48951,5.027084 h 29.52444 c 18.16294,0 29.98686,0.132622 30.72612,0.344639 3.40384,0.97621 5.67282,4.073147 5.67282,7.742851 0,2.497878 -0.72056,4.18537 -2.52804,5.920422 -2.39996,2.303798 -1.09136,2.220669 -34.82256,2.212118 -29.0171,-0.0074 -29.21921,0.613807 -30.55912,-0.0079 z"
         id="path681"
         sodipodi:nodetypes="cccsssscssscssssccc" />
      <path
         style="fill:#817e96;stroke-width:0.352778"
         d="m -459.63478,-18.731243 c -2.10196,-0.991235 -3.06006,-1.966676 -4.0273,-4.100188 -1.3982,-3.084106 -0.76168,-6.343046 1.72448,-8.829209 2.1306,-2.130595 3.42223,-2.461327 9.57569,-2.451932 l 5.07435,0.0077 -1.41111,0.647318 c -5.09844,2.338804 -6.39271,8.989353 -2.53976,13.050403 0.62076,0.654283 1.76365,1.484235 2.53976,1.844337 l 1.41111,0.65473 -5.29167,0.0043 c -4.83054,0.0039 -5.44537,-0.06818 -7.05555,-0.827507 z"
         id="path679"
         sodipodi:nodetypes="cssccssscscc" />
      <path
         style="fill:#433f4f;stroke-width:0.352778"
         d="m -424.55083,65.607491 c -3.30102,-0.930194 -5.62701,-2.996949 -5.62701,-4.999877 0,-2.51055 2.54208,-3.125533 4.94327,-1.195888 1.19863,0.963245 1.73708,1.154987 3.28664,1.170379 1.31088,0.01302 2.14232,-0.188055 2.84128,-0.687148 2.18359,-1.559175 3.08412,-1.906012 4.02246,-1.549255 2.13409,0.811378 2.36664,2.551451 0.60202,4.504676 -2.23719,2.476302 -6.71442,3.702307 -10.06866,2.757113 z m -22.91312,-2.713923 c -0.60612,-0.606121 -0.70555,-1.175924 -0.70555,-4.0432 0,-2.979208 0.0829,-3.414896 0.77207,-4.056944 0.42464,-0.395616 1.18846,-0.7193 1.69737,-0.7193 0.50891,0 1.27273,0.323684 1.69737,0.7193 0.68916,0.642048 0.77208,1.077736 0.77208,4.056944 0,3.77806 -0.50478,4.748756 -2.46945,4.748756 -0.58796,0 -1.37191,-0.313581 -1.76389,-0.705556 z m 47.65061,-0.223964 c -0.60807,-0.773025 -0.73116,-1.429061 -0.73116,-3.896589 0,-2.679856 0.0838,-3.050893 0.86591,-3.83298 0.47625,-0.47625 1.27721,-0.865911 1.77992,-0.865911 0.50271,0 1.30367,0.389661 1.77992,0.865911 0.78209,0.782087 0.86591,1.153124 0.86591,3.83298 0,3.590625 -0.67733,4.826109 -2.64583,4.826109 -0.85839,0 -1.38437,-0.255351 -1.91467,-0.92952 z"
         id="path677" />
    </g>
    <g
       id="g461"
       transform="matrix(0.83969973,0,0,0.83969973,382.03478,133.89821)"
       inkscape:export-filename="C:\Users\adici\Documents\Git\Docusaurus\docs\img\water.png"
       inkscape:export-xdpi="24.125237"
       inkscape:export-ydpi="24.125237">
      <path
         style="fill:#a2ddfc;stroke-width:0.352778"
         d="m -332.84371,-44.148058 c -3.5489,-0.376322 -8.68614,-2.224036 -11.8578,-3.440488 -12.31977,-4.725109 -20.78762,-15.508471 -23.65597,-30.862185 -0.77546,-4.150938 -1.38785,-17.179131 -0.8457,-22.634909 1.4644,-14.73679 6.78308,-31.8718 13.06007,-45.93972 2.2132,-4.96019 8.02164,-6.9284 12.38482,-4.47615 0.77539,0.43579 4.53853,4.27222 8.75221,8.92267 11.44125,12.62719 13.72679,14.62855 18.85098,21.57303 2.36432,3.46865 4.14075,6.17206 6.48886,9.43684 2.80193,4.56399 6.60325,11.938616 7.92357,15.848385 5.55135,16.438756 3.34228,32.485961 -5.34001,45.614851 l -2.92827,3.985396 -2.2218,0.773191 c -6.67824,2.324039 -14.63487,1.832784 -20.61096,1.199089 z m 20.6179,-17.7116 c 4.00032,-1.76953 6.05985,-4.489362 6.05985,-8.002676 0,-1.663199 -0.20382,-2.463835 -0.95138,-3.737158 -1.53459,-2.613854 -4.65572,-4.585145 -8.0419,-5.079217 -2.82948,-5.62e-4 -3.82952,0.287659 -6.16012,0.526094 -1.12635,0 -4.01914,1.768217 -5.25515,3.212221 -1.6037,1.873564 -2.11228,3.425444 -1.91242,5.835512 0.27245,3.28548 3.21435,6.398828 7.28469,7.709246 2.25903,0.72728 6.81583,0.491723 8.97646,-0.464026 z m -54.55078,-8.245211 c -164.77297,-197.374681 -82.38648,-98.687341 0,0 z m 91.88186,-26.516048 c -8.3608,-0.815153 -17.53834,-6.602703 -21.73847,-15.152213 -1.39915,-2.848 -1.11816,-3.65984 -0.31928,-5.87242 0.66661,-1.84627 -0.62361,-3.72131 -1.11825,-4.26756 -0.60425,-0.66729 -1.22349,-0.72442 -0.70092,-1.47051 0.36992,-0.52814 0.2858,-1.05782 0.2858,-2.49183 0,-1.85077 -0.14213,-1.97426 -1.10046,-2.73971 l -2.20164,-1.75852 0.15195,-6.81861 c 0.16974,-7.61712 5.02411,-20.22481 9.77617,-32.06054 1.9485,-4.85304 3.00721,-5.69251 5.09919,-6.65802 1.66194,-0.76703 2.59057,-0.81733 4.50425,-0.24398 1.15521,0.34611 2.35218,1.4497 6.60029,6.08542 9.47,10.33404 13.57309,15.3027 17.67694,21.40601 10.54527,15.68305 12.85056,30.76947 6.70632,43.88785 -1.32072,2.81982 -4.37844,7.159853 -4.65044,7.431214 -1.31068,1.307608 -2.5838,1.354596 -4.04509,1.208579 -5.5005,-0.835689 -10.32705,0.254554 -14.92636,-0.48516 z M -259.85,-112.56716 c 3.76049,-1.57084 5.41096,-5.47546 3.50805,-8.29919 -1.48176,-2.19878 -4.15663,-3.49416 -7.22355,-3.49818 -3.6273,0.35737 -5.3187,1.2654 -6.80562,3.73091 -1.57665,3.0925 -0.0863,6.48011 3.54243,8.05188 1.61764,0.70068 5.31768,0.70839 6.97869,0.0145 z m -127.37693,-6.69787 c -5.64642,-1.41158 -9.69766,-2.15176 -13.72943,-5.14617 -3.45511,-2.56614 -8.03383,-8.12706 -7.83233,-11.57132 0.0503,-0.85964 0.0576,-1.60469 -0.35965,-2.48169 -0.47552,-0.99942 -2.05069,-2.4854 -2.05069,-2.4854 0,0 0.14961,-3.58695 -1.2617,-5.50524 -2.46216,-3.13013 3.74937,-23.95238 8.98266,-36.36098 0.66513,-1.5771 0.52799,-2.06316 1.38344,-2.85089 0.34507,-0.31775 2.55384,-2.60965 3.76556,-2.97269 2.06672,-0.61921 3.72263,0.0566 6.00821,2.45205 17.62298,18.47009 24.88966,30.17912 26.39521,42.53139 0.21707,1.78095 0.30406,4.00682 0.19331,4.94638 -0.18558,1.57442 -0.15398,1.67157 0.40324,1.23962 0.33253,-0.25778 0.49524,1.66321 -0.6012,2.82469 -2.75395,2.91729 -7.09916,6.26554 -10.32127,11.16963 -4.62033,7.03222 -2.06666,4.91969 -2.38639,4.92183 -0.31972,0.002 -3.10626,-0.56448 -3.78536,-0.48897 -1.7609,-0.29408 -3.17629,0.18457 -4.80361,-0.22224 z m 13.29644,-12.64776 c 1.85479,-1.08698 3.21969,-3.4977 2.87328,-5.07487 -0.61395,-2.79532 -3.61686,-5.00695 -6.80828,-5.01428 -3.73437,-0.42178 -4.82837,0.99354 -6.47755,3.133 -0.45166,0.55777 -0.6662,1.38258 -0.6662,2.56119 0,1.52269 0.16419,1.91371 1.32291,3.15043 0.72761,0.77658 1.95792,1.64626 2.73403,1.93262 2.02484,0.74712 5.08493,0.44744 7.02181,-0.68764 z"
         id="path473"
         sodipodi:nodetypes="sssssssccsscsssssccssssscccsssssscsssssssscccsccscccsssccsssssssssccccsccssscc" />
      <path
         style="fill:#79cdf8;stroke-width:0.352778"
         d="m -352.73008,-28.445602 c -21.1258,-2.197629 -38.24076,-17.71976 -42.74943,-38.770899 -0.91373,-4.266258 -0.90461,-15.492468 0.0161,-19.755555 0.9071,-4.200278 2.49077,-9.077364 4.32866,-13.330634 1.5063,-3.4859 2.0947,-4.65439 4.46519,-8.86726 0.92271,-1.63986 0.97961,-1.87494 0.39829,-1.64555 -0.37301,0.14719 -1.81891,0.56244 -3.2131,0.92278 -12.47855,3.22518 -26.26682,-2.07775 -33.44228,-12.86181 -9.23077,-13.87299 -6.49616,-30.25624 8.10062,-48.53141 2.76544,-3.46235 12.24435,-14.16231 12.40437,-14.00229 0.0497,0.0497 -0.54759,1.67275 -1.32734,3.60675 -4.04616,10.03571 -6.66019,22.17751 -6.66019,30.93559 v 3.80161 l -1.54306,2.12688 c -1.0744,1.4809 1.4934,1.91915 -0.64218,2.37491 l -2.0481,0.4371 h -1.59883 c -2.96707,0 -5.759,1.76607 -6.54185,4.13813 -1.20347,3.64654 2.29656,7.15076 7.14221,7.15076 2.96033,0 6.64292,-2.61434 6.64292,-4.71594 0,-1.09262 0.54178,-0.57063 1.14167,1.09997 1.5613,4.34795 6.16144,9.36343 10.57188,11.5264 3.74376,1.83602 7.45099,2.68084 12.81294,2.91986 l 4.59455,0.20481 1.4573,-1.93017 c 3.27695,-4.3403 8.9154,-10.98935 14.86172,-17.52543 3.46524,-3.80893 6.71671,-7.40158 7.22548,-7.98367 0.78901,-0.9027 0.61867,-0.29721 -1.15836,4.11747 -5.1941,12.90363 -8.67122,25.85669 -10.44807,38.92142 -0.935,6.874854 -0.86288,19.409613 0.14333,24.909859 3.57429,19.53816 14.40133,30.507979 32.88089,33.314502 4.46716,0.678434 14.48892,0.657494 20.21488,-0.04225 2.4996,-0.305459 4.63041,-0.469695 4.73514,-0.364966 0.319,0.318999 -6.63058,7.02479 -9.07502,8.756671 -7.46012,5.285486 -15.42748,8.238377 -24.51806,9.086959 -4.30384,0.401754 -5.09402,0.399638 -9.17222,-0.02459 z m -21.49528,-32.937714 c 8.70962,-2.58734 10.11765,-12.111242 2.34882,-15.887351 -2.14718,-0.887634 -3.33277,-1.142357 -6.95905,-1.654542 l -1.5875,0.213635 c -5.62853,0.757446 -9.97286,5.825864 -8.84223,10.316006 1.42699,5.667071 8.48727,8.958858 15.04001,7.012252 z m 83.27566,-22.941016 c -2.65929,-0.551307 -6.5754,-1.773586 -8.0228,-2.504048 -0.77268,-0.389943 -1.04904,-0.968407 -1.69708,-3.552243 -1.60161,-6.3858 -5.46427,-15.053457 -9.72169,-21.815047 -1.74598,-2.77296 -1.85056,-3.03208 -0.82591,-2.04635 3.33292,3.20632 9.60342,3.08632 12.40006,-0.2373 0.53514,-0.63598 1.01534,-1.09671 1.06711,-1.02384 0.0518,0.0729 0.52596,1.17251 1.05374,2.44365 2.37511,5.7203 6.89996,10.56707 12.30209,13.177336 5.11476,2.47141 7.88478,3.079249 15.00203,3.291985 3.77672,0.112885 7.36246,0.02025 9.46637,-0.244581 1.86273,-0.234463 3.48324,-0.32984 3.60113,-0.211952 0.11789,0.117891 -0.64948,1.097862 -1.70526,2.177715 -4.81811,4.927956 -10.62529,8.288482 -17.40186,10.070203 -3.69946,0.972672 -11.90466,1.223554 -15.51793,0.474472 z m -22.42972,-32.431658 c -0.41094,-0.66492 -2.10137,-2.99076 -3.7565,-5.16854 l -3.00934,-3.95959 0.59514,-2.68077 c 2.08732,-9.40215 7.55902,-19.24846 16.87904,-30.37383 2.75822,-3.2925 12.18194,-13.75833 12.38838,-13.75833 0.0579,0 -0.44829,1.30968 -1.12492,2.91041 -4.82166,11.40671 -8.58028,28.17068 -8.58188,38.27639 -2.6e-4,1.59047 0.0617,2.79736 -0.51945,2.79736 -1.76929,0 -2.06335,0.50216 -2.06335,2.86946 v 1.4591 l -3.16051,0.0991 c -1.23932,0.0388 -2.86442,0.509 -3.68373,0.92699 -2.72207,1.38869 -4.17423,4.32002 -3.33407,6.7301 0.49069,1.40759 0.29561,1.36794 -0.62881,-0.1278 z"
         id="path469"
         sodipodi:nodetypes="sssssssssssscsscssssssscssssssssssssssccssssssssssssssssssssscssssssscssss" />
      <path
         style="fill:#4d555f;stroke-width:0.352778"
         d="m -351.45659,-67.792421 c -3.21864,-1.603918 -5.17033,-5.150795 -5.07499,-9.222983 0.0554,-2.366232 0.94547,-3.931377 2.75299,-4.841039 1.18628,-0.597013 2.10496,-0.70527 5.9874,-0.705556 3.88858,-2.85e-4 4.79727,0.106977 5.97446,0.705221 2.23274,1.134678 2.84777,2.271984 2.82856,5.230611 -0.0204,3.146841 -1.05906,5.689992 -3.06332,7.500719 -2.78709,2.517972 -6.08829,2.985865 -9.4051,1.333027 z m -26.27313,-10.738573 c -0.89266,-0.702162 -0.92952,-0.870063 -0.92952,-4.233333 0,-3.031804 0.0948,-3.596936 0.70555,-4.207729 0.95168,-0.951678 2.51502,-0.901647 3.46629,0.110931 0.67318,0.716573 0.76704,1.214991 0.76704,4.072982 0,2.987139 -0.0716,3.328112 -0.86591,4.122399 -1.05785,1.057853 -1.92279,1.09493 -3.14345,0.13475 z m 57.206,0.184662 c -1.15561,-0.627275 -1.47452,-1.97969 -1.27972,-5.42706 0.0989,-1.74964 0.32549,-2.648517 0.79991,-3.172752 0.8268,-0.913599 2.3333,-0.940238 3.41977,-0.06047 0.72197,0.584616 0.84541,1.040299 0.95892,3.539624 0.14802,3.25949 -0.27537,4.677167 -1.57346,5.268616 -1.08334,0.493603 -1.15148,0.489268 -2.32542,-0.147958 z m 32.66085,-42.175508 c -2.86714,-1.39174 -3.88925,-3.3627 -2.59626,-5.00646 0.96171,-1.22262 2.35403,-1.24748 4.08484,-0.0729 0.71478,0.48507 1.74153,0.88194 2.28165,0.88194 0.54012,0 1.4537,-0.39687 2.03017,-0.88194 1.99821,-1.68139 4.65045,-0.84727 4.65045,1.46254 0,1.09727 -1.65688,2.93211 -3.3368,3.69519 -1.93804,0.88033 -5.21338,0.84426 -7.11405,-0.0784 z m -14.59637,-2.08077 c -0.55832,-0.55832 -0.70556,-1.17593 -0.70556,-2.95953 0,-2.71878 0.65602,-3.76897 2.38506,-3.81813 1.9033,-0.0541 2.55383,0.85751 2.55383,3.57884 0,2.91772 -0.58453,3.90437 -2.31306,3.90437 -0.74435,0 -1.48793,-0.2732 -1.92027,-0.70555 z m 32.99736,0.22926 c -0.45456,-0.33238 -0.70092,-1.07364 -0.81532,-2.45316 -0.22983,-2.77152 0.0858,-3.72844 1.41386,-4.28686 1.19322,-0.50172 1.84512,-0.39905 2.8284,0.44545 0.9087,0.78044 0.88815,5.35812 -0.0278,6.18702 -0.77994,0.70584 -2.50627,0.76045 -3.39917,0.10755 z m -129.3263,-15.38044 c -2.65027,-0.8042 -4.56551,-2.51851 -4.56551,-4.08653 0,-2.19926 2.6754,-3.20549 4.34714,-1.63498 0.5023,0.4719 1.26865,0.76436 2.00286,0.76436 0.73422,0 1.50056,-0.29246 2.00287,-0.76436 1.68898,-1.58672 4.34713,-0.56343 4.34713,1.67349 0,0.91092 -0.30017,1.40948 -1.43175,2.37808 -1.95496,1.67337 -4.5559,2.32138 -6.70274,1.66994 z m -14.79606,-2.48771 c -1.08505,-1.08505 -1.01415,-4.87878 0.11093,-5.93573 1.06968,-1.00491 2.18663,-0.971 3.25649,0.0989 0.72838,0.72838 0.86591,1.20463 0.86591,2.99861 0,2.48368 -0.73873,3.54382 -2.46944,3.54382 -0.58797,0 -1.37192,-0.31358 -1.76389,-0.70556 z m 29.63333,0 c -0.55919,-0.55919 -0.70556,-1.17592 -0.70556,-2.97301 0,-2.02937 0.0976,-2.34421 0.92952,-2.99861 0.51124,-0.40214 1.2042,-0.73116 1.53993,-0.73116 0.33572,0 1.02869,0.32902 1.53992,0.73116 0.83193,0.6544 0.92952,0.96924 0.92952,2.99861 0,2.62707 -0.70587,3.67857 -2.46944,3.67857 -0.58797,0 -1.37192,-0.31358 -1.76389,-0.70556 z"
         id="path463" />
    </g>
  </g>
</svg>
